<svg viewBox="566.875 448.344827586207 680.2499999999995 679.3103448275858" fill="none" xmlns="http://www.w3.org/2000/svg" xmlns:xlink="http://www.w3.org/1999/xlink" overflow="visible" width="680.2499999999995px" height="679.3103448275858px"><g id="Master/Emoji/Angry"><g id="Group 4"><circle id="Oval" cx="907.5" cy="788.5" r="332.5" fill="#FFE044"/><path id="Oval Copy" fill-rule="evenodd" clip-rule="evenodd" d="M1241 788.5C1241 604.865 1092.13 456 908.5 456C724.865 456 576 604.865 576 788.5C576 972.135 724.865 1121 908.5 1121C1092.13 1121 1241 972.135 1241 788.5ZM580 788.5C580 607.074 727.074 460 908.5 460C1089.93 460 1237 607.074 1237 788.5C1237 969.926 1089.93 1117 908.5 1117C727.074 1117 580 969.926 580 788.5Z" fill="black"/><path id="Path 90" fill-rule="evenodd" clip-rule="evenodd" d="M664.638 948.22C664.638 948.22 661.362 961.823 664.638 967.377C697.44 1023 752.067 1057.11 809.606 1073.53C904.533 1100.62 774.606 1000.66 735.991 948.22C697.376 895.78 664.638 948.22 664.638 948.22Z" fill="white"/></g><g id="Group 2"><g id="Group"><path id="Path 175" fill-rule="evenodd" clip-rule="evenodd" d="M766.773 697.244L892.176 733.202C892.176 733.202 857.54 792.952 811.012 779.61C764.483 766.268 766.773 697.244 766.773 697.244Z" fill="white"/><path id="Path 176" fill-rule="evenodd" clip-rule="evenodd" d="M768.48 696.629L893.883 732.588C893.883 732.588 859.247 792.338 812.719 778.996C766.19 765.654 768.48 696.629 768.48 696.629Z" fill="white"/><path id="Path 176 (Stroke)" fill-rule="evenodd" clip-rule="evenodd" d="M766.566 694L896.899 731.372L895.613 733.591L893.882 732.588C895.613 733.591 895.612 733.592 895.612 733.593L895.61 733.596L895.604 733.606L895.582 733.643C895.563 733.675 895.536 733.721 895.501 733.781C895.43 733.9 895.326 734.073 895.189 734.297C894.916 734.745 894.512 735.395 893.984 736.214C892.926 737.852 891.368 740.168 889.354 742.902C885.329 748.364 879.46 755.522 872.1 762.269C857.444 775.705 836.442 787.879 812.167 780.918C787.893 773.958 776.533 752.504 771.224 733.343C768.558 723.721 767.374 714.541 766.855 707.776C766.596 704.39 766.502 701.6 766.473 699.651C766.459 698.676 766.46 697.911 766.466 697.387C766.469 697.124 766.473 696.922 766.476 696.783C766.477 696.714 766.479 696.661 766.48 696.624L766.481 696.581L766.481 696.569L766.481 696.565C766.481 696.564 766.481 696.563 768.48 696.629L766.481 696.563L766.566 694ZM770.468 699.28C770.47 699.381 770.471 699.485 770.473 699.592C770.5 701.47 770.591 704.177 770.844 707.47C771.349 714.064 772.501 722.974 775.079 732.275C780.257 750.963 791.016 770.692 813.27 777.073C835.523 783.454 855.103 772.425 869.397 759.321C876.512 752.798 882.211 745.853 886.134 740.529C888.093 737.87 889.604 735.622 890.623 734.044C890.681 733.955 890.737 733.867 890.792 733.782L770.468 699.28Z" fill="black"/><path id="Path 175 Copy" fill-rule="evenodd" clip-rule="evenodd" d="M834.062 716.538L869.629 726.737C869.629 726.737 859.805 743.685 846.609 739.901C833.412 736.117 834.062 716.538 834.062 716.538Z" fill="black"/></g><g id="Group Copy"><path id="Path 175_2" fill-rule="evenodd" clip-rule="evenodd" d="M1047.23 697.244L921.828 733.202C921.828 733.202 956.464 792.952 1002.99 779.61C1049.52 766.268 1047.23 697.244 1047.23 697.244Z" fill="white"/><path id="Path 176_2" fill-rule="evenodd" clip-rule="evenodd" d="M1048.94 696.629L923.539 732.588C923.539 732.588 958.175 792.338 1004.7 778.996C1051.23 765.654 1048.94 696.629 1048.94 696.629Z" fill="white"/><path id="Path 176 (Stroke)_2" fill-rule="evenodd" clip-rule="evenodd" d="M1050.86 694L920.523 731.372L921.809 733.591L923.539 732.588C921.809 733.591 921.81 733.592 921.81 733.593L921.812 733.596L921.818 733.606L921.84 733.643C921.858 733.675 921.886 733.721 921.921 733.781C921.992 733.9 922.096 734.073 922.232 734.297C922.506 734.745 922.91 735.395 923.438 736.214C924.495 737.852 926.054 740.168 928.068 742.902C932.093 748.364 937.962 755.522 945.322 762.269C959.977 775.705 980.98 787.879 1005.25 780.918C1029.53 773.958 1040.89 752.504 1046.2 733.343C1048.86 723.721 1050.05 714.541 1050.57 707.776C1050.83 704.39 1050.92 701.6 1050.95 699.651C1050.96 698.676 1050.96 697.911 1050.96 697.387C1050.95 697.124 1050.95 696.922 1050.95 696.783C1050.94 696.714 1050.94 696.661 1050.94 696.624L1050.94 696.581L1050.94 696.569L1050.94 696.565C1050.94 696.564 1050.94 696.563 1048.94 696.629L1050.94 696.563L1050.86 694ZM1046.95 699.28C1046.95 699.381 1046.95 699.485 1046.95 699.592C1046.92 701.47 1046.83 704.177 1046.58 707.47C1046.07 714.064 1044.92 722.974 1042.34 732.275C1037.17 750.963 1026.41 770.692 1004.15 777.073C981.898 783.454 962.319 772.425 948.025 759.321C940.91 752.798 935.211 745.853 931.288 740.529C929.329 737.87 927.817 735.622 926.799 734.044C926.741 733.955 926.685 733.867 926.63 733.782L1046.95 699.28Z" fill="black"/><path id="Path 175 Copy_2" fill-rule="evenodd" clip-rule="evenodd" d="M979.941 716.538L944.375 726.737C944.375 726.737 954.199 743.685 967.395 739.901C980.592 736.117 979.941 716.538 979.941 716.538Z" fill="black"/></g></g><path id="Path 174 (Stroke)" fill-rule="evenodd" clip-rule="evenodd" d="M873 831.5C873 827.634 876.134 824.5 880 824.5H950.002C953.868 824.5 957.002 827.634 957.002 831.5C957.002 835.366 953.868 838.5 950.002 838.5H880C876.134 838.5 873 835.366 873 831.5Z" fill="black"/></g></svg>