<svg viewBox="0 436.2926356589146 1713.9999999999995 687.7519379844961" xmlns="http://www.w3.org/2000/svg" overflow="visible" xmlns:xlink="http://www.w3.org/1999/xlink" width="1713.9999999999995px" height="687.7519379844961px"><g id="Master/Stickers/Background Bushes" stroke="none" stroke-width="1" fill="none" fill-rule="evenodd"><path d="M1584.30133,838.717554 C1584.30133,838.717554 1612.87774,735.142557 1555.7231,731.571006 C1498.56845,727.999454 1487.85161,781.572728 1487.85161,781.572728 C1487.85161,781.572728 1623.5964,538.710852 1487.85161,463.710085 C1352.10683,388.709318 1302.91078,624.909505 1302.91078,624.909505 C1302.91078,624.909505 1266.37396,527.998014 1241.368,545.855772 C1216.36205,563.71353 1241.368,767.286522 1241.368,767.286522 C1241.368,767.286522 1091.33593,560.140162 1027.0349,574.426368 C962.735702,588.710758 1005.60305,892.289012 1005.60305,892.289012 C1005.60305,892.289012 941.303845,738.715926 919.870172,813.716693 L898.436499,888.71746 C898.436499,888.71746 861.390913,714.543461 808.469945,714.129263 C755.54716,713.715064 659.097446,810.143325 659.097446,810.143325 C659.097446,810.143325 691.247956,485.139395 491.205789,485.139395 C291.159988,485.139395 334.027335,738.715926 334.027335,738.715926 C334.027335,738.715926 298.304546,645.8574 241.148083,645.8574 C183.993438,645.8574 205.427111,795.858935 205.427111,795.858935 C205.427111,795.858935 101.834657,695.857306 76.8287049,749.428764 C51.8227526,803.000221 108.977398,895.860563 108.977398,895.860563 C108.977398,895.860563 23.2463385,813.716693 8.95540585,853.001944 C-5.33370975,892.289012 1.76155866,1107 1.76155866,1107 L1712.90155,1106.57848 C1712.90155,1106.57848 1728.6988,849.174244 1673.60648,792.287383 C1656.10123,774.213443 1605.73318,781.572728 1584.30133,838.717554 Z" id="Fill-1" fill="#DADFFF"/><path d="M1648.61012,1001.26574 C1619.55173,1008.55042 1619.55173,1037.68134 1619.55173,1037.68134 C1619.55173,1037.68134 1597.75599,1015.8312 1579.59157,1015.8312 C1561.43105,1015.8312 1543.26663,1052.2468 1543.26663,1052.2468 C1543.26663,1052.2468 1558.61102,998.786679 1514.20825,997.625353 C1469.80547,996.460116 1474.25199,1044.96407 1474.25199,1044.96407 C1474.25199,1044.96407 1456.08952,1034.039 1427.02918,1034.039 C1397.96884,1034.039 1405.23539,1081.37967 1405.23539,1081.37967 C1405.23539,1081.37967 1395.19367,1036.96773 1368.90851,1034.039 C1356.4602,1032.65283 1347.31169,1034.43979 1340.64581,1038.23268 C1339.6824,1037.99611 1338.66243,1037.80255 1337.5547,1037.68134 C1304.86304,1034.039 1293.96517,1059.53148 1293.96517,1059.53148 C1293.96517,1059.53148 1308.49436,990.340669 1254.00696,990.340669 C1203.91342,990.340669 1207.35947,1031.05943 1208.23902,1037.63246 C1206.80951,1028.29297 1193.93215,950.284684 1163.19657,950.284684 C1130.50491,950.284684 1099.20181,1000.1181 1099.20181,1000.1181 C1099.20181,1000.1181 1115.97376,943 1054.22372,943 C992.471715,943 970.399042,1026.29487 970.399042,1026.29487 C970.399042,1026.29487 977.940571,990.340669 937.984313,993.981056 C898.026104,997.625353 887.128233,1055.88914 887.128233,1055.88914 C887.128233,1055.88914 814.390602,994.448324 789.006443,1006.96093 L763.626184,1019.47354 C763.626184,1019.47354 734.563895,964.850141 687.34304,964.850141 C640.122184,964.850141 636.48696,1030.39665 636.48696,1030.39665 C636.48696,1030.39665 632.855637,983.05794 603.797249,983.05794 C574.736911,983.05794 549.309846,1012.19081 549.309846,1012.19081 C549.309846,1012.19081 556.574443,983.05794 520.249508,975.775212 C483.924572,968.492483 480.293249,993.981056 480.293249,993.981056 C480.293249,993.981056 465.762105,953.925071 425.805846,964.850141 C385.849588,975.775212 402.656647,1035.9589 402.656647,1035.9589 C402.656647,1035.9589 378.58304,993.981056 349.524652,1001.26574 C320.462364,1008.55042 320.462364,1037.68134 320.462364,1037.68134 C320.462364,1037.68134 298.670523,1015.8312 280.506105,1015.8312 C262.345588,1015.8312 244.18117,1052.2468 244.18117,1052.2468 C244.18117,1052.2468 259.523609,998.786679 215.122782,997.625353 C170.721955,996.460116 175.166523,1044.96407 175.166523,1044.96407 C175.166523,1044.96407 157.002106,1034.039 127.943718,1034.039 C98.8833793,1034.039 106.149927,1081.37967 106.149927,1081.37967 C106.149927,1081.37967 96.1062555,1036.96773 69.8249913,1034.039 C4.43971782,1026.75627 29.8667824,1106.87019 29.8667824,1106.87019 L1356.79845,1106.87019 C1357.74272,1111.66226 1705.76161,1106.87019 1705.76161,1106.87019 C1724.31645,1111.66226 1677.6685,993.981056 1648.61012,1001.26574 Z" id="Fill-1" fill="#BDC5FE"/></g></svg>