<svg viewBox="113.01724137931035 212.54999999999995 270.25862068965523 286.12500000000006" xmlns="http://www.w3.org/2000/svg" xmlns:xlink="http://www.w3.org/1999/xlink" overflow="visible" width="270.25862068965523px" height="286.12500000000006px"><defs><polygon id="masterstickerscat-2-path-1" points="0.333309283 1.32853051 75.2226911 1.32853051 75.2226911 155.599971 0.333309283 155.599971"/><polygon id="masterstickerscat-2-path-3" points="0.697523548 0.608093842 177.604858 0.608093842 177.604858 281.876596 0.697523548 281.876596"/><polygon id="masterstickerscat-2-path-5" points="0 0.507294647 9.25285958 0.507294647 9.25285958 11.4383402 0 11.4383402"/></defs><g id="Master/Stickers/Cat 2" stroke="none" stroke-width="1" fill="none" fill-rule="evenodd"><g id="Pet-Copy-3" transform="translate(248.500000, 229.000000) scale(-1, 1) translate(-248.500000, -229.000000) translate(0.000000, -41.000000)"><g id="Group-32" transform="translate(117.127389, 256.539589)"><path d="M35.1793694,142.217789 C35.1793694,142.217789 14.933742,164.706176 10.8991783,175.238551 C6.86303185,185.769343 7.56579618,215.610282 7.56579618,215.610282 C7.56579618,215.610282 -4.54106051,230.005003 4.75790446,237.026587 C14.0568694,244.04817 25.6366529,231.233859 26.6892166,226.845765 C27.7417803,222.456088 28.0931624,204.439724 28.2688535,197.562246 C28.4445446,190.684768 31.6022357,182.610106 43.1820191,171.200428 C43.1820191,171.200428 54.8979236,149.746117 35.1793694,142.217789" id="Fill-1" fill="#1514B9"/><g id="Group-5" transform="translate(188.353503, 105.491613)"><mask id="masterstickerscat-2-mask-2" fill="#fff"><use xlink:href="#masterstickerscat-2-path-1"/></mask><g id="Clip-4"/><path d="M5.33863471,155.599971 C5.33863471,155.599971 41.288829,139.371466 54.8392016,107.399032 C68.7884404,74.4859531 90.3683704,6.29076246 59.3137844,1.55111437 C28.2591984,-3.18853372 29.5745073,69.236393 28.5219436,78.5763343 C27.4693799,87.9146921 25.8913258,118.457155 7.46908694,130.568358 C7.46908694,130.568358 -7.05470924,141.925777 5.33863471,155.599971" id="Fill-3" fill="#1514B9" mask="url(#masterstickerscat-2-mask-2)"/></g><g id="Group-8" transform="translate(22.159236, 0.975484)"><mask id="masterstickerscat-2-mask-4" fill="#fff"><use xlink:href="#masterstickerscat-2-path-3"/></mask><g id="Clip-7"/><path d="M69.0951876,89.8300293 C69.0951876,89.8300293 117.869248,138.979531 129.449032,156.181935 C141.028815,173.38434 166.996274,181.107449 174.715602,207.087625 C182.43493,233.066217 174.715602,274.844164 151.204653,279.056481 C127.695286,283.268798 61.3758596,281.514194 61.3758596,281.514194 C61.3758596,281.514194 51.5498213,281.876596 49.2690029,274.844164 C45.9989328,264.759941 57.164022,259.044809 70.6748245,259.044809 L84.5354264,259.044809 C84.5354264,259.044809 59.6205315,240.789326 65.9374965,209.895308 L45.4101303,183.215191 C45.4101303,183.215191 47.1638755,231.48739 43.4791111,261.328328 C43.4791111,261.328328 42.7779296,273.615308 32.426401,275.369912 C22.0748723,277.1261 15.2324169,275.897243 15.2324169,275.897243 C15.2324169,275.897243 7.45452516,275.137126 6.63621624,269.401408 C5.75776083,263.25871 10.1437067,257.290205 22.7760538,254.482522 C22.7760538,254.482522 22.6003627,194.097537 18.7414901,175.314721 C14.8810347,156.53349 9.44252516,135.820293 14.7053436,102.468563 C14.7053436,102.468563 13.4786717,92.1119648 9.09114299,78.9460997 C4.70519713,65.7818182 -4.76945892,33.8347214 4.88088822,9.08340176 C4.88088822,9.08340176 7.33739777,1.88762463 10.4950889,2.23759531 C13.6527799,2.58914956 17.1618532,6.27571848 21.8991812,23.4781232 C21.8991812,23.4781232 42.4265475,20.3173021 55.0588946,21.3719648 L61.90135,6.09994135 C61.90135,6.09994135 67.8669328,-6.7143695 72.2528787,6.80146628 C76.6388245,20.3173021 81.2004615,45.9459238 75.7619519,65.2544868 C70.3234424,84.5646334 65.6098564,86.2939003 69.0951876,89.8300293" id="Fill-6" fill="#4947D9" mask="url(#masterstickerscat-2-mask-4)"/></g><path d="M86.8812981,271.325771 C86.6074732,271.325771 86.3289,271.278264 86.056658,271.176915 C82.496935,269.860962 75.9013968,270.800023 73.6601484,271.273513 C72.3812439,271.553806 71.1197503,270.724012 70.8475083,269.441314 C70.5752662,268.158616 71.395158,266.898088 72.6756452,266.625713 C73.6379892,266.423015 82.2151962,264.690581 87.7059382,266.722311 C88.934193,267.176798 89.5625656,268.543425 89.1083013,269.773865 C88.7537535,270.73193 87.8452248,271.325771 86.8812981,271.325771" id="Fill-9" fill="#7D7AF9"/><path d="M84.7620838,279.928716 C84.4819277,279.928716 84.2001889,279.879625 83.9231984,279.773525 C81.9589404,279.033994 76.094657,279.402968 72.5555105,279.904962 C71.2781889,280.080739 70.0562653,279.186018 69.8726602,277.8859 C69.6890551,276.587367 70.5912525,275.385431 71.8891506,275.200152 C73.5131061,274.970534 81.8054086,273.890534 85.6009691,275.331589 C86.8292239,275.795578 87.4465169,277.165372 86.9827557,278.392645 C86.6234596,279.342792 85.7196793,279.928716 84.7620838,279.928716" id="Fill-11" fill="#7D7AF9"/><path d="M30.0626436,268.248246 C29.3171436,268.248246 28.5827232,267.898276 28.1205449,267.241091 C27.3655481,266.169009 27.6219621,264.68678 28.6935194,263.931413 C29.2712424,263.524434 34.4944908,259.986721 39.5673729,261.096809 C40.8478602,261.377103 41.6598379,262.642381 41.3796818,263.925079 C41.0995258,265.206194 39.8364494,266.018569 38.5527965,265.738276 C35.9490863,265.163437 32.4495099,267.093818 31.4286022,267.814346 C31.013908,268.107308 30.5359016,268.248246 30.0626436,268.248246" id="Fill-13" fill="#7D7AF9"/><path d="M31.8540596,276.002235 C31.113308,276.002235 30.383636,275.658598 29.9214576,275.012499 C29.1632952,273.951501 29.3928016,272.481941 30.4485309,271.713906 C30.624222,271.58722 34.7759131,268.629097 40.6069576,269.243525 C41.9111869,269.381296 42.8561201,270.549977 42.719999,271.854845 C42.5822952,273.161296 41.4252666,274.119361 40.1099576,273.968921 C36.1482029,273.555607 33.2548398,275.546164 33.2263494,275.566751 C32.8100723,275.861296 32.3304831,276.002235 31.8540596,276.002235" id="Fill-15" fill="#7D7AF9"/><g id="Group-19" transform="translate(0.000000, 224.259941)"><mask id="masterstickerscat-2-mask-6" fill="#fff"><use xlink:href="#masterstickerscat-2-path-5"/></mask><g id="Clip-18"/><path d="M2.37293758,11.4383402 C2.04688025,11.4383402 1.71607452,11.3702463 1.39951401,11.2277243 C0.206080892,10.6893079 -0.327323567,9.28784164 0.207663694,8.09224047 C0.285221019,7.92121408 2.11968917,3.87834018 5.32011592,1.0912434 C6.30778471,0.229777126 7.80828153,0.332709677 8.67090892,1.3256129 C9.5303707,2.31534897 9.42590573,3.81499707 8.43665414,4.67646334 C6.04029108,6.76203519 4.55403949,10.0083695 4.53979427,10.0416246 C4.14092803,10.9173431 3.27671783,11.4383402 2.37293758,11.4383402" id="Fill-17" fill="#7D7AF9" mask="url(#masterstickerscat-2-mask-6)"/></g><path d="M8.72108376,240.957026 C8.55647229,240.957026 8.39186083,240.939607 8.22408376,240.904768 C6.94043089,240.630809 6.12370478,239.368698 6.39594682,238.086 C6.43709968,237.895971 7.43584809,233.404944 11.60495,230.598845 C12.6939182,229.867232 14.1675073,230.155443 14.9003449,231.244944 C15.6315997,232.334446 15.3435296,233.808757 14.2545615,234.541953 C11.701501,236.260135 11.0478035,239.047232 11.0414723,239.075736 C10.8024691,240.192158 9.81638312,240.957026 8.72108376,240.957026" id="Fill-20" fill="#7D7AF9"/><path d="M92.0809627,209.44478 C91.8245487,209.44478 91.5633863,209.402023 91.3069723,209.313343 C90.0676379,208.885777 89.409192,207.533402 89.8365487,206.29346 L89.9853322,205.85956 C90.4126889,204.614868 90.4459277,204.537273 91.1107048,203.131056 L91.3639532,202.595806 C91.7992239,201.670997 92.3547876,200.63217 93.2189978,199.119853 C93.3661984,198.860147 93.5102334,198.448416 93.6621825,198.012933 C93.9233449,197.257566 94.2494022,196.318504 94.8587812,195.44437 C95.4175105,194.639912 96.0617111,193.95739 96.6837525,193.298622 C96.9670742,192.996158 97.2551443,192.693695 97.5258035,192.38173 C97.7679723,192.103021 98.0006443,191.810059 98.2380646,191.515513 C98.8110392,190.799736 99.4599882,189.987361 100.270383,189.282669 C101.118765,188.543138 102.07003,188.034809 102.907332,187.586657 C103.231807,187.412463 103.554698,187.241437 103.864928,187.054575 C104.979221,186.389472 106.15366,186.020499 107.18723,185.692698 L107.836179,185.485249 C109.088176,185.075103 110.425644,185.754457 110.834007,187.000733 C111.24237,188.247009 110.564931,189.588299 109.320848,189.998446 L108.616501,190.223314 C107.715886,190.508358 106.937147,190.753812 106.299278,191.133871 C105.927319,191.357155 105.53795,191.566188 105.146998,191.77522 C104.471141,192.136276 103.833272,192.478328 103.388504,192.866305 C102.897835,193.292287 102.434074,193.871877 101.943405,194.484721 C101.667998,194.829941 101.39259,195.173578 101.107686,195.499795 C100.794291,195.86085 100.466651,196.209238 100.139011,196.556041 C99.6119373,197.116628 99.1133545,197.643959 98.7556411,198.158622 C98.5198035,198.495924 98.339364,199.018504 98.1462621,199.572757 C97.9404978,200.165015 97.7078258,200.836452 97.3390328,201.479384 C96.5397175,202.877683 96.0379691,203.816745 95.6580965,204.622786 L95.4032653,205.162786 C94.8302908,206.371056 94.8302908,206.371056 94.4773258,207.403548 L94.3253768,207.843783 C93.986657,208.827185 93.0654659,209.44478 92.0809627,209.44478" id="Fill-22" fill="#1514B9"/><path d="M77.3472869,85.4571378 C76.8407901,85.4571378 76.3295449,85.2956129 75.8974398,84.961478 C72.176271,82.0872845 69.6896882,76.6017713 68.184443,72.1455836 C66.2470927,76.1314487 63.2840863,81.1355543 59.3065035,84.8237067 C58.3441596,85.715261 56.8452455,85.6598358 55.9493793,84.6970205 C55.0598443,83.7342053 55.1168252,82.23139 56.0775863,81.3398358 C62.741185,75.1607155 66.3673857,64.2007742 66.4037901,64.0899238 C66.7393443,63.0590147 67.7412583,62.3812434 68.8112328,62.4572551 C69.8922869,62.525349 70.789736,63.3187214 70.9923347,64.3844692 C71.6618602,67.9000117 74.3668697,77.7767859 78.8002997,81.2020645 C79.8370354,82.0033548 80.0285545,83.495085 79.2276564,84.533912 C78.7607296,85.1388387 78.0563825,85.4571378 77.3472869,85.4571378" id="Fill-24" fill="#1514B9"/><path d="M46.2075462,54.01061 C46.1236576,58.5808152 52.7761768,58.229261 52.9819411,54.2623988 C53.2051162,49.9519003 46.2961831,49.1886158 46.2075462,54.01061" id="Fill-26" fill="#000"/><path d="M78.6657615,53.2207214 C78.5818729,57.7909267 85.234392,57.4393724 85.4401564,53.4725103 C85.6617487,49.1620117 78.7543984,48.3987273 78.6657615,53.2207214" id="Fill-28" fill="#000"/><path d="M63.4881096,64.6026862 C63.4865268,68.8704282 74.0691446,69.009783 73.8285586,64.6106041 C73.464514,57.9310733 63.4896924,58.8352962 63.4881096,64.6026862" id="Fill-30" fill="#FF71DB"/></g></g></g></svg>