<svg viewBox="105 105 189.99999999999994 189.99999999999994" fill="none" xmlns="http://www.w3.org/2000/svg" xmlns:xlink="http://www.w3.org/1999/xlink" overflow="visible" width="189.99999999999994px" height="189.99999999999994px"><g id="Master/New Stickers/Clock"><g id="Group-34"><path id="Fill-1" fill-rule="evenodd" clip-rule="evenodd" d="M287.951 200.138C287.951 248.637 248.637 287.951 200.14 287.951C151.643 287.951 112.329 248.637 112.329 200.138C112.329 151.641 151.643 112.327 200.14 112.327C248.637 112.327 287.951 151.641 287.951 200.138Z" fill="white"/><g id="Group-5"><path id="Fill-3" fill-rule="evenodd" clip-rule="evenodd" d="M200.14 275.574C158.479 275.574 124.706 241.801 124.706 200.138C124.706 158.478 158.479 124.705 200.14 124.705C241.801 124.705 275.574 158.478 275.574 200.138C275.574 241.801 241.801 275.574 200.14 275.574ZM200.14 108C149.252 108 108 149.252 108 200.138C108 251.026 149.252 292.278 200.14 292.278C251.026 292.278 292.278 251.026 292.278 200.138C292.278 149.252 251.026 108 200.14 108Z" fill="#FF4B33"/></g><path id="Fill-6" fill-rule="evenodd" clip-rule="evenodd" d="M201.632 200.746L183.374 179.266C183.018 178.844 182.385 178.794 181.965 179.151L181.211 179.791C181.009 179.963 180.883 180.208 180.861 180.473C180.84 180.737 180.925 180.999 181.097 181.201L199.356 202.682C199.528 202.884 199.773 203.01 200.036 203.031C200.064 203.033 200.091 203.034 200.117 203.034C200.354 203.034 200.584 202.95 200.766 202.796L201.519 202.155C201.939 201.797 201.989 201.166 201.632 200.746Z" fill="#FF4B33"/><path id="Fill-8" fill-rule="evenodd" clip-rule="evenodd" d="M200.384 203.377C199.263 203.377 198.353 202.468 198.353 201.346V162.667C198.353 161.545 199.263 160.636 200.384 160.636C201.505 160.636 202.415 161.545 202.415 162.667V201.346C202.415 202.468 201.505 203.377 200.384 203.377Z" fill="#141414"/><path id="Fill-10" fill-rule="evenodd" clip-rule="evenodd" d="M200.139 141.673C199.035 141.673 198.139 140.777 198.139 139.673V130.814C198.139 129.709 199.035 128.814 200.139 128.814C201.243 128.814 202.139 129.709 202.139 130.814V139.673C202.139 140.777 201.243 141.673 200.139 141.673Z" fill="#141414"/><path id="Fill-12" fill-rule="evenodd" clip-rule="evenodd" d="M200.139 271.465C199.035 271.465 198.139 270.569 198.139 269.465V260.605C198.139 259.501 199.035 258.605 200.139 258.605C201.243 258.605 202.139 259.501 202.139 260.605V269.465C202.139 270.569 201.243 271.465 200.139 271.465Z" fill="#141414"/><path id="Fill-14" fill-rule="evenodd" clip-rule="evenodd" d="M252.907 172.613C252.206 172.613 251.526 172.244 251.16 171.589C250.62 170.625 250.965 169.406 251.928 168.867L259.66 164.541C260.623 164.001 261.843 164.345 262.382 165.309C262.922 166.273 262.577 167.492 261.613 168.031L253.882 172.358C253.573 172.53 253.237 172.613 252.907 172.613Z" fill="#141414"/><path id="Fill-16" fill-rule="evenodd" clip-rule="evenodd" d="M139.642 235.993C138.941 235.993 138.261 235.624 137.895 234.969C137.355 234.005 137.7 232.786 138.663 232.247L146.395 227.921C147.359 227.38 148.579 227.726 149.117 228.69C149.657 229.654 149.312 230.872 148.348 231.411L140.617 235.738C140.308 235.911 139.972 235.993 139.642 235.993Z" fill="#141414"/><path id="Fill-18" fill-rule="evenodd" clip-rule="evenodd" d="M260.471 236.284C260.137 236.284 259.799 236.2 259.488 236.024L251.777 231.66C250.816 231.117 250.479 229.896 251.023 228.935C251.566 227.973 252.786 227.637 253.747 228.179L261.458 232.543C262.419 233.087 262.758 234.307 262.214 235.268C261.847 235.919 261.168 236.284 260.471 236.284Z" fill="#141414"/><path id="Fill-20" fill-rule="evenodd" clip-rule="evenodd" d="M147.512 172.359C147.178 172.359 146.84 172.275 146.529 172.099L138.819 167.736C137.858 167.192 137.52 165.971 138.064 165.01C138.607 164.048 139.826 163.712 140.789 164.255L148.499 168.618C149.46 169.162 149.798 170.382 149.254 171.343C148.887 171.994 148.209 172.359 147.512 172.359Z" fill="#141414"/><path id="Fill-22" fill-rule="evenodd" clip-rule="evenodd" d="M269.465 202.139H260.606C259.501 202.139 258.606 201.243 258.606 200.139C258.606 199.035 259.501 198.139 260.606 198.139H269.465C270.569 198.139 271.465 199.035 271.465 200.139C271.465 201.243 270.569 202.139 269.465 202.139Z" fill="#141414"/><path id="Fill-24" fill-rule="evenodd" clip-rule="evenodd" d="M139.673 202.139H130.814C129.709 202.139 128.814 201.243 128.814 200.139C128.814 199.035 129.709 198.139 130.814 198.139H139.673C140.777 198.139 141.673 199.035 141.673 200.139C141.673 201.243 140.777 202.139 139.673 202.139Z" fill="#141414"/><path id="Fill-26" fill-rule="evenodd" clip-rule="evenodd" d="M236.241 261.324C235.566 261.324 234.908 260.983 234.532 260.365L229.919 252.802C229.344 251.859 229.641 250.628 230.585 250.053C231.524 249.476 232.759 249.776 233.333 250.719L237.946 258.282C238.521 259.225 238.223 260.456 237.28 261.031C236.956 261.229 236.595 261.324 236.241 261.324Z" fill="#141414"/><path id="Fill-28" fill-rule="evenodd" clip-rule="evenodd" d="M168.654 150.518C167.979 150.518 167.321 150.177 166.945 149.559L162.332 141.996C161.757 141.053 162.054 139.822 162.998 139.247C163.938 138.671 165.172 138.97 165.746 139.913L170.359 147.476C170.934 148.419 170.636 149.65 169.693 150.225C169.369 150.423 169.008 150.518 168.654 150.518Z" fill="#141414"/><path id="Fill-30" fill-rule="evenodd" clip-rule="evenodd" d="M164.368 261.525C164.016 261.525 163.661 261.432 163.338 261.238C162.391 260.668 162.087 259.439 162.657 258.493L167.228 250.903C167.799 249.958 169.026 249.653 169.973 250.222C170.92 250.792 171.224 252.021 170.654 252.967L166.083 260.556C165.708 261.18 165.047 261.525 164.368 261.525Z" fill="#141414"/><path id="Fill-32" fill-rule="evenodd" clip-rule="evenodd" d="M231.335 150.343C230.983 150.343 230.628 150.25 230.305 150.056C229.358 149.486 229.054 148.257 229.624 147.311L234.194 139.722C234.764 138.776 235.993 138.472 236.939 139.04C237.886 139.61 238.19 140.839 237.62 141.785L233.05 149.374C232.675 149.998 232.014 150.343 231.335 150.343Z" fill="#141414"/></g></g></svg>