<svg viewBox="195.54640718562882 177.88750000000005 411.6766467065868 571.1124999999998" xmlns="http://www.w3.org/2000/svg" overflow="visible" xmlns:xlink="http://www.w3.org/1999/xlink" width="411.6766467065868px" height="571.1124999999998px"><g id="Master/Character/Standing" stroke="none" stroke-width="1" fill="none" fill-rule="evenodd"><g id="Standing/Lower Body" transform="translate(14.000000, 442.000000) scale(1 1)"><g id="Standing/Lower Body/Green Pants" stroke="none" stroke-width="1" fill="none" fill-rule="evenodd"><g id="Group-332" transform="translate(187.000000, -1.000000)"><g id="Group-139" transform="translate(0.000000, 0.142000)"><path d="M161.5988,264.0726 C161.5988,264.0726 164.0338,290.4566 168.5818,299.8206 C172.3508,307.5796 177.7268,307.3156 177.7268,307.3156 L185.0968,307.3156 C185.0968,307.3156 191.8598,307.9686 192.5248,303.3116 C193.1898,298.6566 193.6888,294.9986 193.6888,294.9986 C193.6888,294.9986 194.1878,291.0086 196.3488,291.0086 C198.5658,291.0086 201.7368,296.7296 201.7368,296.7296 C201.7368,296.7296 207.8208,307.3156 215.8028,307.3156 C225.1138,307.3156 263.3558,307.8016 270.6718,303.4776 C277.9878,299.1556 280.9808,288.1806 265.3508,284.5236 C249.7218,280.8656 226.5908,279.0366 219.1188,264.0726 L161.5988,264.0726 Z" id="Fill-127" fill="#000"/><path d="M6.3669,264.0726 C6.3669,264.0726 0.8699,289.1786 3.6559,299.8206 C5.8389,308.1656 12.7999,307.3156 12.7999,307.3156 L20.1699,307.3156 C20.1699,307.3156 26.9329,307.9686 27.5979,303.3116 C28.2629,298.6566 27.6399,291.7566 31.4229,291.0086 C34.3419,290.4306 36.8099,296.7296 36.8099,296.7296 C36.8099,296.7296 40.9409,307.3156 47.0099,307.3156 C56.3209,307.3156 96.4459,307.8006 104.9559,305.1406 C114.2669,302.2316 113.6019,290.5096 99.9679,287.0176 C84.4179,283.0356 66.5749,284.1906 58.7329,264.0726 L6.3669,264.0726 Z" id="Fill-129" fill="#000"/><path d="M248.6134,285.7094 C248.6134,285.7094 263.7854,287.0594 270.0074,290.4534 C273.4984,292.3584 273.3464,297.9084 266.3634,297.5754 C259.3794,297.2434 254.7654,289.5534 249.8604,290.9254 C242.9014,292.8714 241.9624,285.1054 248.6134,285.7094" id="Fill-131" fill="#F8FBF8"/><path d="M84.0929,288.2103 C84.0929,288.2103 97.8009,289.3703 103.4219,292.2873 C106.5759,293.9253 106.4389,298.6943 100.1299,298.4093 C93.8199,298.1233 89.6509,291.5143 85.2189,292.6923 C78.9319,294.3653 78.0839,287.6903 84.0929,288.2103" id="Fill-133" fill="#F8FBF8"/><path d="M241.047,253.2416 C232.499,215.1706 196.802,82.7256 154.107,25.8826 C154.108,25.8826 154.107,25.8826 154.107,25.8826 C154.107,25.8826 155.797,0.5496 130.201,0.5496 L81.496,0.5496 C68.788,0.5496 58.258,9.8736 56.374,22.0536 L56.373,22.0536 L56.368,22.0846 C56.367,22.0946 56.365,22.1026 56.364,22.1116 L55.135,29.9066 L0.171,260.7586 C-0.717,264.4846 2.11,268.0626 5.94,268.0626 L78.237,268.0626 C83.896,268.0626 88.753,264.0336 89.797,258.4716 L116.227,117.7326 C132.805,161.2626 149.213,213.2346 153.488,257.1906 C153.867,261.0886 157.113,264.0726 161.028,264.0726 L232.37,264.0726 C238.065,264.0726 242.295,258.7976 241.047,253.2416" id="Fill-135" fill="#3D6C48"/><path d="M104.9328,178.4721 C104.8378,178.4721 104.7418,178.4631 104.6448,178.4451 C103.8318,178.2861 103.3008,177.4991 103.4578,176.6861 C103.5978,175.9661 103.7458,175.5811 103.8638,175.2731 C103.9588,175.0221 104.0358,174.8241 104.1248,174.3601 C104.1298,174.2341 104.0728,174.1161 104.0348,174.0371 C103.8278,173.6151 103.4818,172.9081 103.6928,171.8231 C103.8998,170.7601 104.4548,170.2351 104.7878,169.9201 C104.9758,169.7431 104.9758,169.7431 104.9978,169.6261 C105.0878,169.1631 105.0918,168.9511 105.0978,168.6831 C105.1038,168.3531 105.1118,167.9431 105.2508,167.2251 C105.2978,166.9841 105.2838,166.9321 105.2118,166.6801 C105.1008,166.2841 104.9318,165.6871 105.1158,164.7451 C105.3148,163.7241 105.8148,163.2011 106.1138,162.8891 C106.3038,162.6911 106.3038,162.6911 106.3338,162.5321 C106.4268,162.0571 106.4348,161.8401 106.4458,161.5651 C106.4568,161.2251 106.4718,160.8391 106.6088,160.1341 C106.6518,159.9151 106.6388,159.8771 106.5608,159.6251 C106.4328,159.2211 106.2418,158.6091 106.4288,157.6451 C106.6388,156.5641 107.2208,156.0371 107.5688,155.7231 C107.7558,155.5531 107.7558,155.5531 107.7758,155.4521 C107.8008,155.3241 107.8008,155.3241 107.6958,155.0831 C107.5138,154.6711 107.2098,153.9831 107.4138,152.9311 C107.5828,152.0661 107.8668,151.6141 108.0738,151.2841 C108.2108,151.0651 108.2678,150.9741 108.3288,150.6571 C108.3978,150.3081 108.3798,150.1801 108.3448,149.9241 C108.2948,149.5551 108.2258,149.0501 108.3878,148.2161 C108.4998,147.6421 108.5498,147.3541 108.5988,147.0651 C108.6518,146.7601 108.7038,146.4541 108.8218,145.8471 C108.9888,144.9921 109.2628,144.5421 109.4618,144.2141 C109.5958,143.9951 109.6568,143.8961 109.7198,143.5691 C109.8628,142.8351 110.0198,142.4461 110.1468,142.1331 C110.2478,141.8801 110.3228,141.6991 110.4098,141.2481 C110.5428,140.5641 110.6598,140.2091 110.7628,139.8981 C110.8488,139.6371 110.9228,139.4111 111.0198,138.9131 C111.1288,138.3521 111.1738,138.0681 111.2188,137.7841 C111.2688,137.4721 111.3188,137.1611 111.4388,136.5411 C111.5508,135.9671 111.5988,135.6811 111.6468,135.3921 C111.6968,135.0861 111.7478,134.7791 111.8658,134.1721 C111.9828,133.5731 112.0468,133.2711 112.1108,132.9731 C112.1728,132.6821 112.2348,132.3941 112.3478,131.8111 C112.4068,131.5121 112.3868,131.4181 112.3348,131.1661 C112.2548,130.7741 112.1448,130.2351 112.3168,129.3511 C112.3968,128.9431 112.3868,128.7711 112.3708,128.5101 C112.3518,128.1511 112.3268,127.7021 112.4768,126.9271 C112.6898,125.8391 113.2798,125.3141 113.6328,124.9991 C113.6978,124.9421 113.7948,124.8551 113.8138,124.8261 L113.8468,124.6701 C113.8378,124.6431 113.7798,124.5331 113.7378,124.4521 C113.5088,124.0211 113.1248,123.2981 113.3418,122.1861 C113.5088,121.3301 113.7848,120.8801 113.9848,120.5521 C114.1188,120.3331 114.1788,120.2341 114.2428,119.9081 C114.3908,119.1471 114.5708,118.7451 114.7158,118.4231 C114.8258,118.1791 114.8978,118.0171 114.9798,117.5971 C115.0468,117.2511 115.0298,117.1231 114.9948,116.8681 C114.9428,116.4971 114.8708,115.9901 115.0348,115.1531 C115.1848,114.3841 115.3708,113.9811 115.5218,113.6571 C115.6318,113.4181 115.7048,113.2601 115.7858,112.8491 C115.9338,112.0871 116.1138,111.6881 116.2578,111.3661 C116.3678,111.1211 116.4408,110.9601 116.5218,110.5401 C116.5758,110.2671 116.5578,110.1911 116.4978,109.9381 C116.4098,109.5581 116.2748,108.9841 116.4508,108.0771 C116.5368,107.6361 116.5348,107.4431 116.5308,107.1751 C116.5268,106.8321 116.5218,106.4071 116.6648,105.6651 C116.8028,104.9581 116.9348,104.5961 117.0498,104.2761 C117.1438,104.0171 117.2178,103.8121 117.3108,103.3351 C117.4368,102.6921 117.5238,102.3741 117.6098,102.0571 C117.6818,101.7921 117.7538,101.5281 117.8588,100.9911 C117.9338,100.6071 117.9198,100.4511 117.8968,100.1941 C117.8668,99.8411 117.8238,99.3591 117.9788,98.5591 C118.1868,97.4941 118.7438,96.9681 119.0768,96.6551 C119.2658,96.4761 119.2658,96.4761 119.2878,96.3581 C119.3818,95.8811 119.3898,95.6631 119.4008,95.3881 C119.4128,95.0481 119.4278,94.6621 119.5648,93.9571 C119.6758,93.3881 119.7228,93.1021 119.7698,92.8161 C119.8198,92.5061 119.8708,92.1981 119.9898,91.5831 C120.0888,91.0751 120.1088,90.8331 120.1298,90.5541 C120.1568,90.2311 120.1848,89.8661 120.3158,89.1931 C120.3928,88.7951 120.3818,88.6361 120.3628,88.3711 C120.3358,88.0051 120.3028,87.5491 120.4558,86.7611 C120.6408,85.8131 121.0298,85.3221 121.2858,84.9951 C121.4468,84.7911 121.4798,84.7491 121.5258,84.5141 C121.6018,84.1211 121.5898,83.9621 121.5698,83.7011 C121.5408,83.3311 121.5058,82.8731 121.6598,82.0811 C121.7158,81.7901 121.6978,81.7041 121.6438,81.4491 C121.5628,81.0751 121.4418,80.5081 121.6158,79.6151 C121.8218,78.5581 122.3688,78.0341 122.6948,77.7191 C122.8818,77.5381 122.8818,77.5381 122.9068,77.4131 C122.9408,77.2411 122.9368,77.2311 122.8398,76.9771 C122.6888,76.5791 122.4368,75.9141 122.6328,74.9031 C122.7948,74.0711 123.0458,73.6281 123.2288,73.3051 C123.3578,73.0771 123.4218,72.9631 123.4908,72.6111 C123.6298,71.8921 123.7768,71.5081 123.8938,71.1991 C123.9908,70.9471 124.0658,70.7461 124.1568,70.2811 C124.1938,70.0901 124.1868,70.0691 124.0968,69.8151 C123.9498,69.3981 123.7258,68.7691 123.9188,67.7751 C124.1178,66.7571 124.6078,66.2341 124.9008,65.9201 C125.0898,65.7181 125.0928,65.7141 125.1258,65.5441 C125.1668,65.3341 125.1568,65.3021 125.0738,65.0461 C124.9398,64.6371 124.7368,64.0181 124.9268,63.0411 C125.0858,62.2281 125.8828,61.7001 126.6868,61.8571 C127.4998,62.0151 128.0308,62.8031 127.8718,63.6161 C127.8298,63.8261 127.8408,63.8601 127.9248,64.1151 C128.0588,64.5241 128.2608,65.1421 128.0718,66.1181 C127.8728,67.1351 127.3828,67.6591 127.0898,67.9711 C126.9008,68.1731 126.8978,68.1771 126.8648,68.3471 C126.8278,68.5381 126.8338,68.5591 126.9238,68.8141 C127.0718,69.2301 127.2948,69.8601 127.1018,70.8541 C126.9618,71.5731 126.8158,71.9561 126.6988,72.2651 C126.6018,72.5181 126.5268,72.7181 126.4358,73.1841 C126.2738,74.0161 126.0228,74.4591 125.8398,74.7831 C125.7108,75.0091 125.6468,75.1231 125.5788,75.4761 C125.5438,75.6491 125.5478,75.6591 125.6448,75.9121 C125.7958,76.3101 126.0478,76.9751 125.8518,77.9871 C125.6468,79.0431 125.0998,79.5691 124.7738,79.8821 C124.5848,80.0641 124.5848,80.0641 124.5608,80.1891 C124.5038,80.4801 124.5228,80.5661 124.5778,80.8221 C124.6578,81.1961 124.7788,81.7621 124.6048,82.6551 C124.5278,83.0471 124.5398,83.2051 124.5608,83.4681 C124.5888,83.8361 124.6248,84.2951 124.4708,85.0861 C124.2868,86.0341 123.8988,86.5281 123.6418,86.8531 C123.4808,87.0581 123.4468,87.1001 123.4018,87.3341 C123.3248,87.7311 123.3348,87.8911 123.3548,88.1561 C123.3808,88.5221 123.4138,88.9781 123.2608,89.7651 C123.1618,90.2721 123.1428,90.5131 123.1208,90.7911 C123.0948,91.1151 123.0658,91.4811 122.9348,92.1571 C122.8238,92.7261 122.7768,93.0131 122.7298,93.2991 C122.6798,93.6081 122.6288,93.9161 122.5098,94.5311 C122.4158,95.0081 122.4088,95.2261 122.3978,95.5011 C122.3848,95.8411 122.3698,96.2261 122.2338,96.9321 C122.0258,97.9961 121.4688,98.5221 121.1358,98.8361 C120.9468,99.0141 120.9468,99.0141 120.9238,99.1331 C120.8488,99.5161 120.8628,99.6721 120.8858,99.9291 C120.9158,100.2821 120.9588,100.7641 120.8038,101.5641 C120.6778,102.2101 120.5908,102.5281 120.5038,102.8471 C120.4318,103.1111 120.3598,103.3751 120.2558,103.9091 C120.1188,104.6151 119.9868,104.9771 119.8708,105.2971 C119.7778,105.5561 119.7038,105.7611 119.6108,106.2381 C119.5248,106.6761 119.5278,106.8701 119.5308,107.1381 C119.5358,107.4811 119.5398,107.9081 119.3958,108.6511 C119.3418,108.9251 119.3598,109.0011 119.4188,109.2541 C119.5078,109.6341 119.6428,110.2081 119.4668,111.1151 C119.3188,111.8751 119.1388,112.2751 118.9948,112.5961 C118.8848,112.8401 118.8118,113.0011 118.7308,113.4211 C118.5808,114.1911 118.3938,114.5941 118.2438,114.9181 C118.1328,115.1581 118.0598,115.3161 117.9798,115.7271 C117.9118,116.0721 117.9298,116.2001 117.9648,116.4541 C118.0168,116.8261 118.0878,117.3331 117.9248,118.1711 C117.7768,118.9321 117.5958,119.3311 117.4518,119.6541 C117.3418,119.8981 117.2698,120.0591 117.1878,120.4801 C117.0208,121.3371 116.7458,121.7871 116.5448,122.1161 C116.4118,122.3341 116.3508,122.4341 116.2868,122.7601 C116.2868,122.8571 116.3448,122.9661 116.3878,123.0461 C116.6168,123.4781 116.9988,124.2001 116.7838,125.3111 C116.5708,126.4001 115.9808,126.9261 115.6268,127.2401 C115.5628,127.2971 115.4648,127.3851 115.4468,127.4131 C115.3418,127.9091 115.3518,128.0801 115.3678,128.3411 C115.3868,128.7011 115.4118,129.1491 115.2618,129.9241 C115.2038,130.2201 115.2228,130.3141 115.2748,130.5661 C115.3558,130.9591 115.4648,131.4981 115.2928,132.3841 C115.1738,132.9941 115.1098,133.2961 115.0438,133.6011 C114.9838,133.8861 114.9218,134.1731 114.8108,134.7451 C114.7008,135.3101 114.6538,135.5971 114.6058,135.8821 C114.5548,136.1921 114.5038,136.4991 114.3838,137.1161 C114.2728,137.6841 114.2278,137.9691 114.1818,138.2551 C114.1328,138.5641 114.0838,138.8731 113.9648,139.4871 C113.8308,140.1711 113.7148,140.5251 113.6118,140.8371 C113.5258,141.0981 113.4518,141.3241 113.3548,141.8221 C113.2118,142.5541 113.0548,142.9441 112.9278,143.2571 C112.8268,143.5091 112.7518,143.6921 112.6648,144.1411 C112.4988,144.9961 112.2248,145.4471 112.0248,145.7751 C111.8908,145.9931 111.8298,146.0941 111.7668,146.4211 C111.6548,146.9941 111.6048,147.2831 111.5558,147.5721 C111.5028,147.8761 111.4518,148.1821 111.3328,148.7891 C111.2658,149.1361 111.2838,149.2641 111.3178,149.5201 C111.3688,149.8891 111.4368,150.3961 111.2748,151.2301 C111.1068,152.0941 110.8228,152.5461 110.6158,152.8771 C110.4778,153.0961 110.4208,153.1871 110.3598,153.5041 C110.3338,153.6321 110.3338,153.6321 110.4408,153.8731 C110.6218,154.2851 110.9258,154.9741 110.7208,156.0271 C110.5098,157.1081 109.9278,157.6341 109.5808,157.9491 C109.3938,158.1181 109.3938,158.1181 109.3738,158.2171 C109.3308,158.4371 109.3438,158.4751 109.4218,158.7271 C109.5498,159.1311 109.7418,159.7431 109.5538,160.7071 C109.4608,161.1831 109.4538,161.4011 109.4428,161.6751 C109.4308,162.0151 109.4158,162.4011 109.2798,163.1061 C109.0788,164.1291 108.5788,164.6511 108.2818,164.9631 C108.0908,165.1611 108.0908,165.1611 108.0608,165.3201 C108.0138,165.5601 108.0288,165.6131 108.0998,165.8651 C108.2108,166.2601 108.3798,166.8571 108.1968,167.7981 C108.1068,168.2601 108.1018,168.4721 108.0968,168.7411 C108.0908,169.0701 108.0828,169.4811 107.9438,170.1991 C107.7368,171.2621 107.1808,171.7871 106.8478,172.1021 C106.6608,172.2791 106.6608,172.2791 106.6378,172.3961 C106.6328,172.5241 106.6908,172.6411 106.7288,172.7191 C106.9358,173.1421 107.2818,173.8491 107.0708,174.9341 C106.9298,175.6531 106.7838,176.0361 106.6648,176.3441 C106.5698,176.5961 106.4938,176.7941 106.4038,177.2571 C106.2638,177.9741 105.6358,178.4721 104.9328,178.4721" id="Fill-137" fill="#000"/></g></g></g></g><g id="Upper Body" transform="translate(-1.000000, 0.000000) scale(1 1)"><g id="Upper Body/Typing" stroke="none" stroke-width="1" fill="none" fill-rule="evenodd"><g id="Group-691" transform="translate(249.500000, 180.500000)"><g id="Group-330" transform="translate(0.000000, 0.095000)"><path d="M272.9796,124.1949 C271.3596,118.7769 261.3096,78.7549 261.3096,78.7549 C261.3096,78.7549 248.5016,0.8069 183.1236,0.8069 C141.9586,0.8069 116.3966,23.8019 98.7236,55.6869 C109.9366,63.1949 124.9246,73.3469 139.4476,83.2189 C150.2096,62.9009 163.7736,46.6869 179.7586,46.3049 C207.0626,45.6549 215.2216,72.8509 218.6586,89.3419 L221.1816,103.0339 C221.1816,103.0339 200.2936,131.0109 208.6716,137.0599 C214.2886,141.1149 224.8136,124.1949 224.8136,124.1949 C224.8136,124.1949 231.2856,167.2489 239.5856,166.0989 C246.7476,164.8749 243.4396,148.9609 241.2116,140.6939 C242.8336,145.3239 245.7916,151.5069 249.9586,151.2009 C254.1946,150.8889 254.1236,144.7699 253.3596,139.8269 C254.6736,144.1929 257.0366,149.0989 260.9256,148.2599 C265.4746,147.2799 264.7596,139.8879 263.8616,135.3419 C265.0136,139.3799 267.3366,145.3139 270.9266,144.6199 C276.6166,143.5189 274.6986,129.9459 272.9796,124.1949" id="Fill-286" fill="#ef9e89"/><path d="M243.5919,153.7867 C242.8519,153.7867 242.2069,153.2377 242.1069,152.4837 C241.0139,144.2467 237.9949,130.4207 237.9649,130.2817 C237.7869,129.4737 238.2999,128.6737 239.1099,128.4957 C239.9199,128.3187 240.7179,128.8317 240.8949,129.6407 C240.9259,129.7807 243.9709,143.7287 245.0809,152.0897 C245.1899,152.9107 244.6129,153.6647 243.7909,153.7727 C243.7249,153.7827 243.6569,153.7867 243.5919,153.7867" id="Fill-288" fill="#000"/><path d="M253.044,150.3854 C252.817,150.3854 252.587,150.3334 252.371,150.2254 C251.635,149.8554 251.336,148.9614 251.699,148.2234 C251.734,148.1474 253.079,145.1864 252.271,139.2964 C251.374,132.7594 249.945,128.6854 249.932,128.6454 C249.654,127.8644 250.063,127.0074 250.843,126.7304 C251.627,126.4514 252.481,126.8614 252.758,127.6394 C252.82,127.8154 254.3,132.0184 255.243,138.8884 C256.198,145.8494 254.46,149.4104 254.385,149.5594 C254.122,150.0824 253.593,150.3854 253.044,150.3854" id="Fill-290" fill="#000"/><path d="M263.1133,148.4088 C262.8143,148.4088 262.5123,148.3198 262.2503,148.1348 C261.5813,147.6628 261.4153,146.7428 261.8723,146.0678 C261.9373,145.9608 263.6693,143.0298 262.3833,135.5978 C261.4453,130.1778 260.2423,127.3658 260.2303,127.3388 C259.9013,126.5798 260.2483,125.6958 261.0073,125.3658 C261.7663,125.0348 262.6463,125.3798 262.9793,126.1378 C263.0343,126.2628 264.3323,129.2628 265.3403,135.0868 C266.8603,143.8798 264.6023,147.3998 264.3413,147.7718 C264.0493,148.1868 263.5843,148.4088 263.1133,148.4088" id="Fill-292" fill="#000"/><path d="M51.6607,150.2623 C36.0597,189.2583 89.7487,209.6763 107.5187,167.1123 C107.5187,167.1123 122.7797,131.7283 141.9887,88.2983 C143.4987,84.8833 142.0807,80.5753 138.8527,78.6993 C125.3627,70.8613 112.7047,62.0423 101.7067,55.3133 C98.6427,53.4383 94.6257,54.3713 92.7567,57.4383 C74.2137,87.8563 62.0177,124.3733 51.6607,150.2623" id="Fill-294" fill="#3164CF"/><path d="M7.0411,286.778 L131.3161,286.778 C134.4421,286.778 137.0721,284.435 137.4311,281.33 L126.9931,221.6 C126.9931,221.6 124.8321,210.71 136.7481,204.53 C144.8621,200.321 150.4931,193.667 151.1581,189.455 C151.8231,185.242 154.2611,174.823 140.7381,165.955 C127.2151,157.087 121.4511,154.426 116.5731,144.229 C111.6961,134.031 111.8001,122.032 100.6111,122.032 L51.5681,122.032 C37.6501,122.032 25.7701,132.081 23.4721,145.807 C16.9911,184.503 4.5241,258.871 0.9731,279.59 C0.3291,283.35 3.2261,286.778 7.0411,286.778" id="Fill-296" fill="#AFDCFD"/><path d="M46.2198,165.4762 C46.2198,165.4762 22.4668,179.0082 41.3778,207.9402 C60.2878,236.8712 80.9058,267.1322 80.9058,267.1322 C80.9058,267.1322 102.5208,302.7132 144.7538,278.1062 C187.6278,253.1242 200.3108,244.7492 200.3108,244.7492 L256.8388,245.7462 C256.8388,245.7462 232.1008,185.5802 183.7958,201.6402 C180.6158,202.6972 177.5538,204.0782 174.5878,205.6382 L118.4828,234.8752 L85.5608,181.0032 C85.5608,181.0032 70.2638,151.4082 46.2198,165.4762" id="Fill-298" fill="#ef9e89"/><path d="M55.6856,229.7438 L100.8486,200.3698 C103.6966,198.5168 104.5906,194.7578 102.8706,191.8278 C93.8606,176.4798 72.8146,134.9558 40.4476,142.2718 C29.2756,144.7978 13.6226,164.2198 25.8156,189.9358 C34.0166,207.2338 42.3186,220.8198 46.8746,227.8618 C48.7886,230.8188 52.7336,231.6648 55.6856,229.7438" id="Fill-300" fill="#AFDCFD"/><path d="M238.0606,238.3971 C237.8696,238.3971 237.6746,238.3601 237.4876,238.2831 C228.7766,234.6701 212.9346,234.4911 212.7756,234.4891 C211.9466,234.4821 211.2816,233.8041 211.288545,232.9761 C211.2946,232.1481 211.9666,231.4361 212.8006,231.4891 C213.4736,231.4951 229.3836,231.6741 238.6356,235.5111 C239.4016,235.8291 239.7646,236.7071 239.4476,237.4711 C239.2076,238.0481 238.6496,238.3971 238.0606,238.3971" id="Fill-302" fill="#000"/><path d="M236.9522,226.8688 C236.7132,226.8688 236.4702,226.8108 236.2452,226.6908 C231.7372,224.2748 217.7252,223.0378 212.7072,222.7648 C211.8802,222.7208 211.2452,222.0138 211.2902,221.1858 C211.3362,220.3588 212.0452,219.7098 212.8692,219.7698 C213.6332,219.8108 231.6442,220.8218 237.6612,224.0468 C238.3912,224.4378 238.6672,225.3468 238.2752,226.0768 C238.0052,226.5818 237.4872,226.8688 236.9522,226.8688" id="Fill-304" fill="#000"/><path d="M237.3126,218.1949 C237.0346,218.1949 236.7526,218.1179 236.5016,217.9559 C230.8336,214.3059 212.8806,213.2149 212.7006,213.2049 C211.8736,213.1559 211.2426,212.4459 211.2916,211.6189 C211.3396,210.7929 212.0296,210.1589 212.8756,210.2099 C213.6456,210.2549 231.7976,211.3599 238.1246,215.4329 C238.8226,215.8819 239.0236,216.8099 238.5756,217.5069 C238.2886,217.9519 237.8046,218.1949 237.3126,218.1949" id="Fill-306" fill="#000"/><path d="M55.521,231.3463 C55.017,231.3463 54.525,231.0923 54.242,230.6313 C53.757,229.8433 53.679,229.2563 53.628,228.8683 C53.593,228.6063 53.583,228.5273 53.433,228.2833 C53.177,227.8673 53.035,227.7003 52.854,227.4903 C52.631,227.2293 52.378,226.9343 51.999,226.3163 C51.61,225.6833 51.459,225.2933 51.337,224.9803 C51.236,224.7203 51.164,224.5323 50.917,224.1303 C50.805,223.9483 50.774,223.9303 50.539,223.7993 C50.162,223.5883 49.591,223.2693 49.069,222.4193 C48.799,221.9803 48.648,221.7913 48.475,221.5743 C48.269,221.3163 48.036,221.0243 47.67,220.4283 C47.225,219.7023 47.109,219.2053 47.024,218.8423 C46.964,218.5853 46.935,218.4563 46.744,218.1473 C46.467,217.6963 46.305,217.4853 46.143,217.2733 C45.946,217.0173 45.723,216.7273 45.365,216.1443 L44.091,214.0753 C43.869,213.7143 43.744,213.5913 43.554,213.4053 C43.296,213.1523 42.977,212.8373 42.563,212.1633 C42.113,211.4313 42.001,210.9253 41.919,210.5573 C41.863,210.3033 41.835,210.1763 41.649,209.8733 C41.375,209.4283 41.226,209.2363 41.052,209.0133 C40.852,208.7563 40.625,208.4663 40.264,207.8783 C39.827,207.1683 39.703,206.6863 39.612,206.3333 C39.547,206.0773 39.51,205.9373 39.311,205.6123 C38.911,204.9603 38.766,204.5543 38.649,204.2273 C38.559,203.9733 38.493,203.7893 38.257,203.4063 C38.034,203.0423 37.908,202.9183 37.718,202.7293 C37.462,202.4773 37.144,202.1613 36.731,201.4903 C36.476,201.0753 36.334,200.9093 36.152,200.7003 C35.927,200.4383 35.671,200.1423 35.29,199.5213 C35.021,199.0823 34.87,198.8963 34.695,198.6793 C34.487,198.4193 34.25,198.1263 33.881,197.5263 C33.61,197.0843 33.459,196.8953 33.285,196.6753 C33.08,196.4173 32.846,196.1243 32.48,195.5283 C32.046,194.8223 32.268,193.8983 32.973,193.4643 C33.681,193.0323 34.604,193.2523 35.037,193.9573 C35.308,194.3993 35.458,194.5883 35.633,194.8083 C35.838,195.0673 36.071,195.3593 36.438,195.9553 C36.707,196.3943 36.857,196.5803 37.032,196.7973 C37.24,197.0573 37.477,197.3503 37.846,197.9503 C38.1,198.3653 38.243,198.5313 38.424,198.7403 C38.649,199.0013 38.905,199.2983 39.288,199.9193 C39.511,200.2843 39.637,200.4083 39.828,200.5973 C40.083,200.8493 40.401,201.1633 40.813,201.8353 C41.214,202.4883 41.359,202.8943 41.475,203.2203 C41.565,203.4743 41.631,203.6583 41.867,204.0413 C42.303,204.7523 42.427,205.2343 42.518,205.5863 C42.583,205.8423 42.62,205.9833 42.819,206.3083 C43.093,206.7523 43.243,206.9453 43.417,207.1663 C43.617,207.4233 43.844,207.7143 44.206,208.3033 C44.656,209.0343 44.767,209.5403 44.849,209.9093 C44.905,210.1623 44.933,210.2903 45.119,210.5923 C45.341,210.9543 45.466,211.0773 45.657,211.2653 C45.914,211.5173 46.233,211.8313 46.647,212.5053 L47.921,214.5743 C48.198,215.0243 48.36,215.2353 48.522,215.4463 C48.719,215.7013 48.941,215.9923 49.301,216.5763 C49.746,217.3023 49.861,217.7993 49.946,218.1623 C50.006,218.4193 50.036,218.5483 50.226,218.8583 C50.495,219.2963 50.646,219.4843 50.819,219.7023 C51.025,219.9603 51.259,220.2523 51.625,220.8493 C51.737,221.0323 51.768,221.0483 52.002,221.1803 C52.38,221.3913 52.951,221.7093 53.473,222.5603 C53.862,223.1943 54.013,223.5823 54.134,223.8953 C54.235,224.1563 54.309,224.3443 54.555,224.7453 C54.812,225.1623 54.954,225.3283 55.134,225.5393 C55.357,225.8003 55.609,226.0953 55.988,226.7123 C56.473,227.5003 56.551,228.0863 56.602,228.4753 C56.637,228.7373 56.647,228.8163 56.797,229.0603 C57.231,229.7663 57.011,230.6903 56.305,231.1233 C56.06,231.2743 55.789,231.3463 55.521,231.3463" id="Fill-308" fill="#000"/><polygon id="Fill-310" fill="#5A593D" points="200.3111 244.7496 177.0391 204.4046 168.3981 208.8636 192.7801 249.4956"/><path d="M184.669,235.9781 C184.744,236.1041 192.44,231.1051 192.44,231.1051 L189.843,226.4211 L181.69,231.0141 L184.669,235.9781 Z" id="Fill-312" fill="#000"/><path d="M172.4405,224.5924 C173.2165,236.0104 191.6275,235.4004 190.9515,223.4544 C190.2865,211.7064 171.5685,211.7634 172.4405,224.5924" id="Fill-314" fill="#F8FBF8"/><path d="M180.5323,227.1735 C180.3423,227.1735 180.1493,227.1375 179.9683,227.0635 C179.4643,226.8585 179.1103,226.3975 179.0443,225.8575 L178.2133,219.1225 C178.1113,218.3005 178.6953,217.5525 179.5173,217.4505 C180.3363,217.3515 181.0883,217.9335 181.1893,218.7555 L181.6913,222.8205 L186.1273,219.2655 C186.7753,218.7485 187.7183,218.8515 188.2353,219.4975 C188.7543,220.1445 188.6503,221.0885 188.0043,221.6065 L181.4703,226.8435 C181.2003,227.0605 180.8683,227.1735 180.5323,227.1735" id="Fill-316" fill="#000"/><path d="M332.835,286.7828 C332.051,290.6748 328.632,293.4728 324.663,293.4728 L116.832,293.4728 C107.355,293.4728 109.168,284.5138 109.168,284.5138 C109.683,275.3498 117.997,275.8488 117.997,275.8488 L211.835,276.3258 L231.451,188.2758 C232.377,184.1208 236.172,181.2448 240.423,181.4768 L343.515,187.1078 C347.885,187.3468 351.043,191.3838 350.222,195.6828 L332.835,286.7828 Z" id="Fill-318" fill="#4166FF"/><path d="M292.6617,201.7516 C291.0497,208.1646 301.3167,209.6386 302.5317,203.9336 C303.9857,197.1056 294.4307,194.7136 292.6617,201.7516" id="Fill-320" fill="#F8FBF8"/><path d="M235.3643,213.0729 L239.3873,193.2089 C240.0353,190.0079 242.8923,187.7359 246.1573,187.8259 L271.7883,188.5299 C271.7883,188.5299 277.3453,188.5849 277.373446,192.5679 C277.4023,196.6929 273.1143,197.4669 268.0693,197.4669 C263.0233,197.4669 260.9603,201.9349 260.9603,201.9349 C260.9603,201.9349 258.6633,206.6429 253.7423,206.5749 C247.5553,206.4889 246.8683,211.2159 246.8683,211.2159 C246.8683,211.2159 244.7313,217.8299 240.5093,218.7769 C236.2983,219.7219 234.5793,216.3709 235.3643,213.0729" id="Fill-322" fill="#AFDCFD"/><path d="M327.2501,280.2145 L327.1611,280.2145 C326.3151,280.1995 325.8361,280.0295 325.4851,279.9055 C325.2411,279.8185 325.1181,279.7755 324.7611,279.7695 C323.8521,279.7535 323.3241,279.5185 322.9751,279.3625 C322.7361,279.2565 322.6561,279.2205 322.3601,279.2155 C322.0581,279.2105 321.9681,279.2455 321.7291,279.3395 C321.3561,279.4855 320.8401,279.6845 319.9461,279.6725 C319.2441,279.6605 318.8731,279.6045 318.5451,279.5535 C318.2661,279.5115 318.0451,279.4775 317.5461,279.4695 C316.9061,279.4575 316.5871,279.4365 316.2681,279.4155 C315.9851,279.3965 315.7031,279.3775 315.1401,279.3675 C314.4771,279.3565 314.1461,279.3235 313.8151,279.2915 C313.5461,279.2655 313.2751,279.2385 312.7341,279.2305 C312.3821,279.2245 312.2641,279.2635 312.0211,279.3435 C311.6651,279.4605 311.1691,279.6165 310.3211,279.6065 C309.9351,279.5975 309.7821,279.6405 309.5341,279.7075 C309.1911,279.8015 308.7291,279.9275 307.9081,279.9145 C307.0741,279.9005 306.5921,279.7175 306.1321,279.5145 C305.8921,279.4085 305.8121,279.3735 305.5131,279.3685 C304.9931,279.3565 304.7611,279.3845 304.4851,279.4115 C304.1611,279.4445 303.7901,279.4825 303.1041,279.4715 C302.2561,279.4565 301.7761,279.2845 301.4261,279.1585 C301.1831,279.0715 301.0611,279.0285 300.7071,279.0235 L298.3021,278.9795 C298.0891,278.9735 298.0711,278.9885 297.8361,279.1165 C297.4571,279.3225 296.8861,279.6105 295.8871,279.6185 C294.9541,279.6035 294.4151,279.3405 294.0601,279.1675 C293.8251,279.0535 293.7631,279.0235 293.4941,279.0185 C293.2201,279.0095 293.1611,279.0415 292.9221,279.1485 C292.5601,279.3085 291.9891,279.5485 291.0811,279.5355 C290.1351,279.5195 289.5911,279.2425 289.2301,279.0605 C288.9971,278.9425 288.9421,278.9135 288.6871,278.9095 C288.4071,278.9065 288.3161,278.9375 288.0781,279.0355 C287.7231,279.1815 287.1551,279.4045 286.2771,279.3865 C285.7521,279.3755 285.4921,279.4005 285.2291,279.4215 C284.9131,279.4485 284.5501,279.4785 283.8771,279.4685 C283.0561,279.4535 282.5891,279.3055 282.2491,279.1965 C281.9991,279.1165 281.8621,279.0725 281.4821,279.0675 C281.0211,279.0595 280.8311,279.0925 280.5621,279.1395 C280.2311,279.1975 279.8231,279.2725 279.0741,279.2575 C278.5781,279.2425 278.3621,279.2775 278.0871,279.3125 C277.7531,279.3555 277.3721,279.4025 276.6671,279.3915 C275.5531,279.3725 274.9311,278.8725 274.5601,278.5735 C274.4891,278.5175 274.3921,278.4395 274.3591,278.4245 C273.7121,278.4075 273.4261,278.4155 273.1411,278.4225 C272.8231,278.4305 272.5081,278.4375 271.8741,278.4285 C271.4811,278.4235 271.3481,278.4605 271.0931,278.5295 C270.7501,278.6245 270.2881,278.7555 269.4641,278.7395 C268.8001,278.7285 268.4691,278.6945 268.1381,278.6615 C267.8691,278.6345 267.6011,278.6075 267.0631,278.5985 C266.6141,278.5915 266.4141,278.6245 266.1461,278.6715 C265.8141,278.7305 265.4031,278.8065 264.6561,278.7905 C263.8531,278.7775 263.4141,278.6495 263.0611,278.5455 C262.8091,278.4725 262.6561,278.4275 262.2571,278.4205 C261.5961,278.4085 261.2671,278.3775 260.9371,278.3455 C260.6671,278.3195 260.3961,278.2935 259.8551,278.2845 C259.4951,278.2775 259.3961,278.3165 259.1491,278.3995 C258.7921,278.5185 258.2951,278.6815 257.4451,278.6665 C256.7881,278.6545 256.4601,278.6235 256.1321,278.5935 C255.8601,278.5685 255.5891,278.5425 255.0451,278.5335 C254.2161,278.5195 253.7451,278.3635 253.4011,278.2505 C253.1551,278.1695 253.0211,278.1245 252.6471,278.1185 C252.2911,278.1095 252.1971,278.1515 251.9541,278.2345 C251.5941,278.3585 251.0981,278.5295 250.2361,278.5125 L247.8341,278.4755 C247.3991,278.4645 247.2341,278.5055 246.9731,278.5615 C246.6281,278.6355 246.1851,278.7165 245.4281,278.7145 C244.7061,278.7015 244.3251,278.6335 243.9881,278.5725 C243.7211,278.5255 243.5091,278.4865 243.0291,278.4795 C242.4471,278.4685 242.1551,278.4715 241.8641,278.4735 C241.5541,278.4755 241.2421,278.4775 240.6271,278.4675 C240.1481,278.4595 239.9301,278.4885 239.6591,278.5275 C239.3221,278.5745 238.9451,278.6285 238.2201,278.6165 L235.8161,278.5675 C234.8751,278.5505 234.3331,278.2785 233.9751,278.0995 C233.7391,277.9815 233.6841,277.9535 233.4251,277.9485 C232.7831,277.9385 232.4631,277.9155 232.1421,277.8925 C231.8631,277.8725 231.5831,277.8525 231.0251,277.8435 C230.7171,277.8365 230.6101,277.8745 230.3711,277.9635 C230.0041,278.1015 229.4711,278.2835 228.6171,278.2745 C228.1691,278.2625 227.9851,278.3025 227.7261,278.3535 C227.3891,278.4185 226.9641,278.4975 226.2121,278.4865 C225.4691,278.4745 225.0601,278.3885 224.7311,278.3195 C224.4651,278.2635 224.2721,278.2235 223.8151,278.2155 C222.8341,278.1985 222.2751,277.8835 221.9061,277.6745 C221.6781,277.5455 221.6441,277.5255 221.4241,277.5225 C221.3171,277.5145 221.3201,277.5215 221.1181,277.6675 C220.7391,277.9425 220.0601,278.3865 219.0051,278.3815 C217.9501,278.3635 217.3451,277.9445 216.9831,277.6955 C216.7631,277.5435 216.7631,277.5435 216.6161,277.5405 C216.1701,277.5285 215.9891,277.5695 215.7291,277.6205 C215.3921,277.6875 214.9831,277.7625 214.2121,277.7575 C213.5841,277.7465 213.2711,277.7305 212.9581,277.7135 C212.6721,277.6975 212.3851,277.6835 211.8121,277.6735 C210.9841,277.6585 210.3241,276.9765 210.337881,276.1475 C210.3531,275.3185 211.0271,274.6645 211.8631,274.6735 C212.4911,274.6845 212.8041,274.7005 213.1171,274.7175 C213.4031,274.7335 213.6901,274.7475 214.2631,274.7575 C214.7061,274.7665 214.8911,274.7285 215.1491,274.6775 C215.4871,274.6105 215.8981,274.5325 216.6671,274.5405 C217.7221,274.5595 218.3271,274.9775 218.6881,275.2275 C218.9091,275.3795 218.9091,275.3795 219.0561,275.3815 C219.1481,275.3875 219.1551,275.3845 219.3601,275.2365 C219.7391,274.9625 220.4021,274.5385 221.4751,274.5225 C222.4561,274.5385 223.0151,274.8545 223.3841,275.0635 C223.6121,275.1925 223.6461,275.2125 223.8661,275.2155 C224.6091,275.2285 225.0191,275.3145 225.3471,275.3835 C225.6131,275.4395 225.8061,275.4795 226.2631,275.4865 C226.7061,275.4985 226.8941,275.4575 227.1541,275.4075 C227.4911,275.3425 227.9191,275.2685 228.6681,275.2745 C228.9931,275.2795 229.0841,275.2425 229.3221,275.1525 C229.6891,275.0155 230.1861,274.8225 231.0761,274.8435 C231.7161,274.8545 232.0361,274.8775 232.3551,274.9005 C232.6361,274.9195 232.9151,274.9405 233.4761,274.9485 C234.4181,274.9655 234.9601,275.2365 235.3191,275.4175 C235.5541,275.5345 235.6091,275.5625 235.8671,275.5675 L238.2711,275.6165 C238.7601,275.6245 238.9681,275.5955 239.2381,275.5575 C239.5751,275.5095 239.9501,275.4575 240.6781,275.4675 C241.2611,275.4775 241.5531,275.4755 241.8431,275.4735 C242.1521,275.4705 242.4641,275.4685 243.0801,275.4795 C243.8021,275.4915 244.1831,275.5605 244.5201,275.6205 C244.7871,275.6685 244.9991,275.7065 245.4791,275.7145 C245.9091,275.7265 246.0781,275.6855 246.3391,275.6285 C246.6841,275.5545 247.1271,275.4655 247.8851,275.4755 L250.2871,275.5125 C250.6431,275.5165 250.7371,275.4805 250.9801,275.3975 C251.3411,275.2735 251.8361,275.1105 252.6981,275.1185 C253.5271,275.1325 253.9981,275.2885 254.3421,275.4025 C254.5881,275.4835 254.7231,275.5275 255.0961,275.5335 C255.7541,275.5445 256.0831,275.5755 256.4121,275.6065 C256.6831,275.6315 256.9541,275.6565 257.4961,275.6665 C257.8551,275.6715 257.9541,275.6345 258.2021,275.5525 C258.5611,275.4335 259.0631,275.2735 259.9061,275.2845 C260.5661,275.2965 260.8961,275.3275 261.2251,275.3605 C261.4951,275.3855 261.7661,275.4115 262.3081,275.4205 C263.1101,275.4345 263.5491,275.5635 263.9021,275.6655 C264.1541,275.7395 264.3071,275.7835 264.7071,275.7905 C265.1571,275.8025 265.3561,275.7655 265.6231,275.7175 C265.9561,275.6585 266.3831,275.5895 267.1141,275.5985 C267.7781,275.6105 268.1091,275.6435 268.4401,275.6765 C268.7091,275.7035 268.9781,275.7315 269.5151,275.7395 C269.9061,275.7465 270.0411,275.7075 270.2961,275.6385 C270.6401,275.5435 271.1091,275.4215 271.9251,275.4285 C272.4921,275.4385 272.7781,275.4305 273.0631,275.4235 C273.3811,275.4155 273.6971,275.4075 274.3301,275.4175 C275.4451,275.4375 276.0671,275.9375 276.4381,276.2355 C276.5091,276.2925 276.6051,276.3695 276.6391,276.3855 C277.2011,276.4015 277.4291,276.3725 277.7051,276.3365 C278.0381,276.2945 278.4181,276.2485 279.1251,276.2575 C279.5861,276.2685 279.7761,276.2325 280.0451,276.1855 C280.3761,276.1265 280.8031,276.0565 281.5331,276.0675 C282.3541,276.0805 282.8201,276.2305 283.1601,276.3385 C283.4101,276.4175 283.5481,276.4615 283.9281,276.4685 C284.4531,276.4795 284.7141,276.4555 284.9761,276.4335 C285.2921,276.4065 285.6561,276.3785 286.3281,276.3865 C286.6061,276.3985 286.6981,276.3595 286.9371,276.2615 C287.2911,276.1145 287.8551,275.8955 288.7371,275.9095 C289.6841,275.9265 290.2281,276.2025 290.5881,276.3855 C290.8211,276.5035 290.8761,276.5315 291.1321,276.5355 C291.4111,276.5465 291.4671,276.5125 291.7051,276.4055 C292.0671,276.2455 292.6461,276.0065 293.5451,276.0185 C294.4781,276.0345 295.0171,276.2965 295.3721,276.4705 C295.6061,276.5835 295.6691,276.6145 295.9381,276.6185 C296.1551,276.6295 296.1671,276.6095 296.4011,276.4825 C296.7811,276.2755 297.3451,275.9775 298.3531,275.9795 L300.7581,276.0235 C301.6061,276.0375 302.0861,276.2095 302.4371,276.3345 C302.6801,276.4215 302.8011,276.4655 303.1541,276.4715 C303.6731,276.4805 303.9061,276.4555 304.1821,276.4275 C304.5061,276.3955 304.8711,276.3575 305.5631,276.3685 C306.3971,276.3835 306.8801,276.5665 307.3401,276.7685 C307.5801,276.8735 307.6601,276.9095 307.9591,276.9145 C308.3521,276.9175 308.4991,276.8805 308.7471,276.8135 C309.0901,276.7195 309.5521,276.5895 310.3721,276.6065 C310.7201,276.6155 310.8431,276.5715 311.0861,276.4925 C311.4421,276.3755 311.9461,276.2215 312.7851,276.2305 C313.4471,276.2415 313.7771,276.2745 314.1081,276.3065 C314.3781,276.3325 314.6481,276.3595 315.1901,276.3675 C315.8291,276.3795 316.1481,276.4015 316.4681,276.4215 C316.7501,276.4415 317.0321,276.4595 317.5971,276.4695 C318.2991,276.4815 318.6701,276.5375 318.9981,276.5885 C319.2771,276.6305 319.4981,276.6645 319.9971,276.6725 C320.3091,276.6835 320.3901,276.6435 320.6291,276.5485 C321.0011,276.4015 321.5081,276.1955 322.4111,276.2155 C323.3191,276.2315 323.8471,276.4665 324.1961,276.6225 C324.4351,276.7295 324.5151,276.7645 324.8121,276.7695 C325.6581,276.7835 326.1381,276.9535 326.4881,277.0775 C326.7321,277.1645 326.8551,277.2085 327.2131,277.2145 C327.4791,277.2185 327.5581,277.1885 327.7941,277.0845 C328.1551,276.9255 328.6981,276.6775 329.6321,276.7005 C330.5101,276.7155 331.0031,276.9115 331.3631,277.0555 C331.6071,277.1515 331.7091,277.1925 332.0381,277.1975 C332.1981,277.2025 332.1981,277.2005 332.4331,277.0545 C332.8021,276.8245 333.3971,276.4505 334.4651,276.4575 C335.2931,276.4725 335.9531,277.1545 335.939319,277.9835 C335.9261,278.8125 335.2201,279.4325 334.4141,279.4575 C334.2581,279.4575 334.2541,279.4545 334.0191,279.6015 C333.6501,279.8305 333.0611,280.1975 331.9871,280.1975 C331.1091,280.1825 330.6161,279.9855 330.2561,279.8435 C330.0121,279.7455 329.9101,279.7055 329.5811,279.7005 C329.3001,279.6935 329.2371,279.7265 329.0021,279.8305 C328.6511,279.9845 328.1281,280.2145 327.2501,280.2145" id="Fill-324" fill="#000"/><path d="M79.3086,92.9147 L67.9096,92.9147 C62.7556,92.9147 58.3696,96.6087 57.4536,101.6497 C57.4436,101.7127 57.4346,101.7727 57.4246,101.8367 L57.4196,101.8697 L57.4196,101.8707 C57.3826,102.1157 57.3446,102.3657 57.3076,102.6147 C55.9806,111.3557 54.3426,122.0667 54.3426,122.0667 L89.7756,122.0667 L89.8476,114.3017 L89.9456,103.6497 C90.0006,97.7367 85.2226,92.9147 79.3086,92.9147" id="Fill-326" fill="#ef9e89"/><path d="M89.7755,122.067 C75.9005,121.091 72.1095,118.116 72.2435,115.639 C72.3625,113.421 74.4475,113.73 75.3585,113.751 C79.3725,113.841 89.8475,114.301 89.8475,114.301" id="Fill-328" fill="#000"/></g></g></g></g><g id="Head" transform="translate(204.000000, 145.000000) scale(1 1)"><g id="Head/Bald" stroke="none" stroke-width="1" fill="none" fill-rule="evenodd"><g id="Group-183" transform="translate(100.000000, 94.000000)"><g id="Group-35" transform="translate(0.000000, 0.738000)"><path d="M54.2635,25.4479 C53.2995,20.0999 44.0205,22.4259 42.6645,22.7949 C41.2955,16.8799 39.8015,11.5029 38.4505,8.9759 C35.7455,3.9189 27.4985,-1.3961 14.3095,0.6449 C5.5525,1.9999 -3.7735,10.1689 2.2845,24.3889 C2.2845,24.3889 4.0165,27.8379 3.1875,33.5219 C3.0965,34.1479 2.9665,35.0219 2.8095,36.0639 L2.8085,36.0709 C2.5455,37.8319 2.2045,40.0879 1.8315,42.5519 C1.8225,42.6149 1.8125,42.6759 1.8035,42.7379 L1.7985,42.7719 L1.7985,42.7729 C1.7605,43.0179 1.7225,43.2679 1.6845,43.5169 C1.4555,46.1069 2.1615,54.5829 21.2395,54.6779 L34.2255,55.2039 L34.4235,55.2129 C34.4235,55.2129 38.7745,55.1639 41.4085,55.1639 C46.8825,55.1639 47.8225,49.9449 47.2085,46.0829 C46.9585,44.5149 46.0565,39.2069 44.8345,33.0059 C45.9565,32.7689 55.2025,30.6539 54.2635,25.4479" id="Fill-31" fill="#ef9e89"/><path d="M6.84902363,25.4590535 C8.41903185,23.2154055 11.1945553,22.9991124 14.8931423,24.5805224 C15.4009558,24.7976489 15.6366041,25.3853289 15.4194776,25.8931423 C15.2023511,26.4009558 14.6146711,26.6366041 14.1068577,26.4194776 C11.1766142,25.1665893 9.39770368,25.3052177 8.48767457,26.6057108 C6.41692941,29.5649458 7.51344578,32.9704669 13.1077714,35.46231 C13.6122722,35.6870264 13.8390822,36.2781737 13.6143658,36.7826744 C13.3896494,37.2871751 12.7985021,37.5139852 12.2940014,37.2892688 C5.58568252,34.3012271 4.03396589,29.4819615 6.84902363,25.4590535 Z" id="Path" fill="#000" fill-rule="nonzero"/></g></g></g></g><g id="Expression" transform="translate(315.000000, 246.000000) scale(1 1)"><defs><path d="M2.973,1.055 C-0.453,2.37 -2.944,13.004 10.567,16.001 L10.567,16.001 C16.271,17.266 19.387,14.583 19.536,11.9 L19.536,11.9 C19.665,9.554 17.527,7.208 12.869,7.501 L12.869,7.501 C11.822,7.568 10.572,7.073 9.905,5.972 L9.905,5.972 C8.651,3.902 7.906,0.626 4.999,0.626 L4.999,0.626 C4.417,0.626 3.749,0.757 2.973,1.055" id="expressionlaugh-path-1"/></defs><g id="Expression/Laugh" stroke="none" stroke-width="1" fill="none" fill-rule="evenodd"><g id="Group-77" transform="translate(13.400000, 13.300000)"><g id="Group-3" transform="translate(0.000000, 0.116900)"><g id="Group" transform="translate(0.000000, 15.000000)"><path d="M2.973,1.0549 C-0.453,2.3699 -2.944,13.0039 10.567,15.9999 C21.261,18.3719 22.855,6.8709 12.869,7.5009 C11.822,7.5679 10.571,7.0739 9.904,5.9719 C8.4,3.4879 7.63,-0.7321 2.973,1.0549" id="Fill-37" fill="#000"/><g id="Group-41"><mask id="expressionlaugh-mask-2" fill="#fff"><use xlink:href="#expressionlaugh-path-1"/></mask><g id="Clip-40"/><path d="M-3.2101,3.4943 C-3.2101,3.4943 1.3509,2.7393 5.4389,7.3023 C9.5279,11.8643 9.1349,18.8593 9.1349,18.8593 C9.1349,18.8593 -6.6571,11.2823 -3.2101,3.4943" id="Fill-39" fill="#FF71DB" mask="url(#expressionlaugh-mask-2)"/></g></g><g id="Group-46" transform="translate(3.000000, 0.000000)"><path d="M3.1312,6.052 C3.7892,6.555 4.7312,6.427 5.2332,5.769 C7.2772,3.086 9.8032,4.136 10.1002,4.271 C10.8412,4.624 11.7342,4.313 12.0932,3.571 C12.4552,2.825 12.1432,1.928 11.3982,1.566 C10.3642,1.065 8.4892,0.66 6.5312,1.268 C5.2702,1.659 3.9732,2.472 2.8462,3.95 C2.3442,4.61 2.4722,5.55 3.1312,6.052" id="Fill-42" fill="#000"/><path d="M4.6669,6.3596 C4.6669,7.0556 3.7149,7.6196 2.5399,7.6196 C1.3649,7.6196 0.4129,7.0556 0.4129,6.3596 C0.4129,5.6646 1.3649,5.0996 2.5399,5.0996 C3.7149,5.0996 4.6669,5.6646 4.6669,6.3596" id="Fill-44" fill="#F8FBF8"/></g></g></g></g></g><g id="Facial Hair" transform="translate(311.300000, 250.950000) scale(1 1)"><g id="Facial Hair/None" stroke="none" stroke-width="1" fill="none" fill-rule="evenodd" fill-opacity="0"/></g><g id="Accesories" transform="translate(311.300000, 250.950000) scale(1 1)"><g id="Accesories/None" stroke="none" stroke-width="1" fill="none" fill-rule="evenodd" fill-opacity="0"/></g></g></svg>