<svg viewBox="79.47500000000002 6.518691588785032 419.05000000000007 296.9626168224299" fill="none" xmlns="http://www.w3.org/2000/svg" xmlns:xlink="http://www.w3.org/1999/xlink" overflow="visible" width="419.05000000000007px" height="296.9626168224299px"><g id="Master/Background/Clouds"><g id="Background" transform="scale(1 1)"><g id="Background/Night City"><g id="City"><g id="Group 92"><path id="Path" fill-rule="evenodd" clip-rule="evenodd" d="M84.4325 122.062C84.4325 121.528 83.9995 121.096 83.4665 121.096C82.9325 121.096 82.4995 121.528 82.4995 122.062C82.4995 122.596 82.9325 123.029 83.4665 123.029C83.9995 123.029 84.4325 122.596 84.4325 122.062" fill="black"/><path id="Path_2" fill-rule="evenodd" clip-rule="evenodd" d="M365.14 152.505C365.674 152.505 366.107 152.072 366.107 151.539C366.107 151.005 365.674 150.572 365.14 150.572C364.606 150.572 364.174 151.005 364.174 151.539C364.174 152.072 364.606 152.505 365.14 152.505" fill="black"/><path id="Path_3" fill-rule="evenodd" clip-rule="evenodd" d="M188.325 130.076C188.325 130.609 188.757 131.042 189.291 131.042C189.825 131.042 190.258 130.609 190.258 130.076C190.258 129.542 189.825 129.109 189.291 129.109C188.757 129.109 188.325 129.542 188.325 130.076" fill="black"/><path id="Path_4" fill-rule="evenodd" clip-rule="evenodd" d="M99.1706 18.3723C99.7046 18.3723 100.138 17.9393 100.138 17.4053C100.138 16.8723 99.7046 16.4393 99.1706 16.4393C98.6376 16.4393 98.2046 16.8723 98.2046 17.4053C98.2046 17.9393 98.6376 18.3723 99.1706 18.3723" fill="black"/><path id="Path_5" fill-rule="evenodd" clip-rule="evenodd" d="M127.439 160.185C127.439 160.718 127.871 161.151 128.405 161.151C128.939 161.151 129.371 160.718 129.371 160.185C129.371 159.651 128.939 159.218 128.405 159.218C127.871 159.218 127.439 159.651 127.439 160.185" fill="black"/><path id="Path_6" fill-rule="evenodd" clip-rule="evenodd" d="M357.601 14.9333C358.135 14.9333 358.568 14.5003 358.568 13.9663C358.568 13.4333 358.135 13.0003 357.601 13.0003C357.068 13.0003 356.635 13.4333 356.635 13.9663C356.635 14.5003 357.068 14.9333 357.601 14.9333" fill="black"/><path id="Path_7" fill-rule="evenodd" clip-rule="evenodd" d="M162.715 65.5463C162.715 66.0803 163.147 66.5123 163.682 66.5123C164.215 66.5123 164.648 66.0803 164.648 65.5463C164.648 65.0123 164.215 64.5803 163.682 64.5803C163.147 64.5803 162.715 65.0123 162.715 65.5463" fill="black"/><path id="Path_8" fill-rule="evenodd" clip-rule="evenodd" d="M472.136 21.5523C472.67 21.5523 473.102 21.1203 473.102 20.5863C473.102 20.0523 472.67 19.6203 472.136 19.6203C471.602 19.6203 471.17 20.0523 471.17 20.5863C471.17 21.1203 471.602 21.5523 472.136 21.5523" fill="black"/><path id="Path_9" fill-rule="evenodd" clip-rule="evenodd" d="M456.512 88.2373C457.046 88.2373 457.478 87.8043 457.478 87.2703C457.478 86.7363 457.046 86.3043 456.512 86.3043C455.978 86.3043 455.546 86.7363 455.546 87.2703C455.546 87.8043 455.978 88.2373 456.512 88.2373" fill="black"/><path id="Exclude" fill-rule="evenodd" clip-rule="evenodd" d="M398.258 19.4993C397.031 22.2163 396.41 25.1123 396.41 28.1243C396.41 39.7323 405.854 49.1773 417.463 49.1773C418.615 49.1773 419.774 49.0803 420.923 48.8893C417.335 55.0823 410.781 58.8863 403.576 58.8863C392.518 58.8863 383.523 49.8913 383.523 38.8333C383.523 29.8313 389.66 21.8633 398.258 19.4993M403.576 59.8863C411.508 59.8863 418.688 55.4953 422.314 48.4263C422.403 48.2543 422.384 48.0473 422.266 47.8943C422.147 47.7403 421.951 47.6673 421.763 47.7103C420.343 48.0203 418.896 48.1773 417.463 48.1773C406.406 48.1773 397.41 39.1813 397.41 28.1243C397.41 24.9133 398.152 21.8383 399.614 18.9873C399.703 18.8153 399.683 18.6073 399.565 18.4543C399.447 18.3003 399.249 18.2283 399.062 18.2703C389.479 20.3653 382.523 29.0133 382.523 38.8333C382.523 50.4423 391.967 59.8863 403.576 59.8863" fill="black"/><path id="Path_10" fill-rule="evenodd" clip-rule="evenodd" d="M495.654 177.857H462.09V106.599C462.09 106.323 461.867 106.099 461.59 106.099H397.08C396.804 106.099 396.58 106.323 396.58 106.599V172.784H323.35C323.073 172.784 322.85 173.007 322.85 173.284V199.602H212.455V146.465C212.455 146.188 212.232 145.965 211.955 145.965H145.56C145.284 145.965 145.06 146.188 145.06 146.465V189.668C144.97 189.542 144.829 189.455 144.662 189.455H84.4326C84.1566 189.455 83.9326 189.678 83.9326 189.955C83.9326 190.231 84.1566 190.455 84.4326 190.455H144.662C144.829 190.455 144.97 190.367 145.06 190.241V295.781C145.06 296.057 145.284 296.281 145.56 296.281C145.837 296.281 146.06 296.057 146.06 295.781V146.965H211.455V200.102C211.455 200.378 211.679 200.602 211.955 200.602H323.35C323.626 200.602 323.85 200.378 323.85 200.102V173.784H396.58V215.68C396.58 215.957 396.804 216.18 397.08 216.18C397.357 216.18 397.58 215.957 397.58 215.68V107.099H461.09V222.089C461.09 222.365 461.314 222.589 461.59 222.589C461.867 222.589 462.09 222.365 462.09 222.089V178.857H495.154V267.028C495.154 267.305 495.377 267.528 495.654 267.528C495.93 267.528 496.154 267.305 496.154 267.028V178.357C496.154 178.081 495.93 177.857 495.654 177.857" fill="black"/><path id="Path_11" fill-rule="evenodd" clip-rule="evenodd" d="M83.0405 82.4713C83.0145 81.9383 82.9995 81.4013 82.9995 80.8613C82.9995 63.4063 97.2015 49.2053 114.657 49.2053C117.04 49.2053 119.443 49.4803 121.8 50.0243C122.055 50.0823 122.315 49.9343 122.391 49.6813C127.846 31.6013 144.853 18.9743 163.751 18.9743C175.35 18.9743 186.238 23.5093 194.412 31.7443C194.594 31.9283 194.888 31.9413 195.087 31.7763C199.035 28.4853 204.041 26.6723 209.185 26.6723C220.893 26.6723 230.557 35.8233 231.183 47.5043C231.192 47.6503 231.264 47.7863 231.38 47.8753C231.497 47.9643 231.645 47.9983 231.79 47.9653C233.87 47.5103 235.994 47.2793 238.101 47.2793C254.322 47.2793 267.517 60.4753 267.517 76.6953C267.517 78.5973 267.33 80.5173 266.96 82.4003C266.907 82.6713 267.083 82.9343 267.354 82.9873C267.387 82.9943 267.419 82.9973 267.451 82.9973C267.685 82.9973 267.894 82.8323 267.941 82.5933C268.324 80.6463 268.517 78.6623 268.517 76.6953C268.517 59.9243 254.873 46.2793 238.101 46.2793C236.114 46.2793 234.113 46.4783 232.144 46.8703C231.205 34.9363 221.231 25.6723 209.185 25.6723C203.96 25.6723 198.871 27.4613 194.8 30.7193C186.475 22.4963 175.467 17.9743 163.751 17.9743C144.571 17.9743 127.293 30.6863 121.57 48.9483C119.286 48.4553 116.962 48.2053 114.657 48.2053C96.6495 48.2053 81.9995 62.8543 81.9995 80.8613C81.9995 81.4183 82.0145 81.9723 82.0415 82.5223C82.0565 82.7983 82.2975 83.0183 82.5665 82.9963C82.8425 82.9823 83.0545 82.7473 83.0405 82.4713" fill="black"/></g></g></g></g></g></svg>