<svg viewBox="113.375 108.68965517241372 1587.2500000000005 1358.6206896551726" fill="none" xmlns="http://www.w3.org/2000/svg" xmlns:xlink="http://www.w3.org/1999/xlink" overflow="visible" width="1587.2500000000005px" height="1358.6206896551726px"><g id="Master/Office Supplies/Crypto"><g id="Group 954 Copy"><path id="Path" fill-rule="evenodd" clip-rule="evenodd" d="M739.643 1197C739.643 1197 732.958 1278.52 729.137 1305.05C725.317 1331.6 727.228 1360.97 701.441 1380.88C675.656 1400.79 657.943 1411.21 657.943 1411.21C657.943 1411.21 646.642 1418.49 662.305 1421.64C677.967 1424.79 1125.12 1423.88 1125.12 1423.88C1125.12 1423.88 1167.44 1422.51 1154.56 1413.83C1141.68 1405.15 1094.76 1386.89 1088.32 1352.2C1081.88 1317.49 1070.37 1198.78 1070.37 1198.78L739.643 1197Z" fill="#9FDDFF"/><path id="Path_2" d="M728.373 1316.42L739.72 1197H1067.59C1069.58 1213.12 1075.35 1259.58 1082.52 1316.42C1091.47 1387.48 1120.14 1389.27 1139.85 1402.41C1155.61 1412.92 1153.98 1419.52 1151.19 1421.52C990.149 1424.9 666.264 1429.64 659.097 1421.52C650.139 1411.37 671.041 1401.81 699.707 1383.9C722.64 1369.57 728.373 1332.94 728.373 1316.42Z" fill="#9FDDFF"/><path id="Shape" fill-rule="evenodd" clip-rule="evenodd" d="M737.808 1195H1069.44L1069.7 1197.09C1071.69 1213.16 1077.45 1259.45 1084.61 1316.11C1089.04 1351.22 1098.3 1368.8 1108.54 1379.24C1113.68 1384.48 1119.17 1388.01 1124.66 1391.07C1126.39 1392.04 1128.16 1392.98 1129.93 1393.91C1133.66 1395.88 1137.4 1397.86 1140.81 1400.13C1148.82 1405.45 1152.85 1410.07 1154.33 1413.97C1155.89 1418.1 1154.54 1421.42 1152.2 1423.09L1151.6 1423.52L1150.86 1423.53C1070.46 1425.22 949.401 1427.24 847.545 1427.83C796.62 1428.13 750.478 1428.07 716.611 1427.42C699.684 1427.1 685.793 1426.63 675.896 1425.98C670.954 1425.66 666.96 1425.3 664.065 1424.88C662.623 1424.66 661.391 1424.44 660.426 1424.16C659.945 1424.03 659.475 1423.88 659.056 1423.69C658.679 1423.52 658.132 1423.22 657.691 1422.72C656.361 1421.22 655.458 1419.58 655.133 1417.79C654.805 1415.98 655.103 1414.23 655.834 1412.57C657.24 1409.39 660.332 1406.39 664.214 1403.42C669.469 1399.39 676.922 1394.91 685.548 1389.7C689.717 1387.19 694.16 1384.51 698.762 1381.63C709.529 1374.92 716.442 1362.84 720.659 1350.1C724.862 1337.4 726.263 1324.42 726.263 1316.41V1316.29L737.808 1195ZM742.146 1199.76L731.033 1316.52C731.02 1324.98 729.552 1338.42 725.188 1351.59C720.819 1364.8 713.421 1378.11 701.291 1385.68C696.465 1388.68 691.904 1391.43 687.686 1393.98C679.232 1399.07 672.161 1403.33 667.118 1407.19C663.322 1410.1 661.086 1412.49 660.2 1414.5C659.785 1415.44 659.695 1416.22 659.826 1416.94C659.952 1417.63 660.313 1418.44 661.102 1419.39C661.223 1419.44 661.415 1419.5 661.699 1419.58C662.387 1419.77 663.396 1419.97 664.755 1420.16C667.461 1420.56 671.306 1420.92 676.205 1421.23C685.991 1421.88 699.795 1422.34 716.702 1422.66C750.507 1423.3 796.602 1423.36 847.517 1423.07C948.953 1422.48 1069.45 1420.47 1149.84 1418.79C1150.21 1418.26 1150.49 1417.31 1149.86 1415.65C1148.92 1413.15 1145.89 1409.24 1138.16 1404.08C1134.96 1401.95 1131.58 1400.17 1127.97 1398.26C1126.15 1397.31 1124.28 1396.31 1122.33 1395.23C1116.65 1392.06 1110.73 1388.26 1105.13 1382.57C1093.91 1371.14 1084.38 1352.41 1079.88 1316.7C1073.01 1262.33 1067.42 1217.49 1065.23 1199.76H742.146Z" fill="black"/><path id="Path_3" fill-rule="evenodd" clip-rule="evenodd" d="M771.643 1221C771.643 1221 764.958 1302.52 761.137 1329.05C757.317 1355.6 759.228 1384.97 733.441 1404.88C707.656 1424.79 689.943 1435.21 689.943 1435.21C689.943 1435.21 678.642 1442.49 694.305 1445.64C709.967 1448.79 1157.12 1447.88 1157.12 1447.88C1157.12 1447.88 1199.44 1446.51 1186.56 1437.83C1173.68 1429.15 1126.76 1410.89 1120.32 1376.2C1113.88 1341.5 1102.37 1222.78 1102.37 1222.78L771.643 1221Z" fill="#9FDDFF"/><path id="Path_4" d="M760.373 1340.42L771.72 1221H1099.59C1101.58 1237.12 1107.35 1283.58 1114.52 1340.42C1123.47 1411.48 1152.14 1413.27 1171.85 1426.41C1187.61 1436.92 1185.98 1443.52 1183.19 1445.52C1022.15 1448.9 698.264 1453.64 691.097 1445.52C682.139 1435.37 703.041 1425.81 731.707 1407.9C754.64 1393.57 760.373 1356.94 760.373 1340.42Z" fill="#9FDDFF"/><path id="Shape_2" fill-rule="evenodd" clip-rule="evenodd" d="M769.808 1219H1101.44L1101.7 1221.09C1103.69 1237.16 1109.45 1283.45 1116.61 1340.11C1121.04 1375.22 1130.3 1392.8 1140.54 1403.24C1145.68 1408.48 1151.17 1412.01 1156.66 1415.07C1158.39 1416.04 1160.16 1416.98 1161.93 1417.91C1165.66 1419.88 1169.4 1421.86 1172.81 1424.13C1180.82 1429.45 1184.85 1434.07 1186.33 1437.97C1187.89 1442.1 1186.54 1445.42 1184.2 1447.09L1183.6 1447.52L1182.86 1447.53C1102.46 1449.22 981.401 1451.24 879.545 1451.83C828.62 1452.13 782.478 1452.07 748.611 1451.42C731.684 1451.1 717.793 1450.63 707.896 1449.98C702.954 1449.66 698.96 1449.3 696.065 1448.88C694.623 1448.66 693.391 1448.44 692.426 1448.16C691.945 1448.03 691.475 1447.88 691.056 1447.69C690.679 1447.52 690.132 1447.22 689.691 1446.72C688.361 1445.22 687.458 1443.58 687.133 1441.79C686.805 1439.98 687.103 1438.23 687.834 1436.57C689.24 1433.39 692.332 1430.39 696.214 1427.42C701.469 1423.39 708.922 1418.91 717.548 1413.7C721.717 1411.19 726.16 1408.51 730.762 1405.63C741.529 1398.92 748.442 1386.84 752.659 1374.1C756.862 1361.4 758.263 1348.42 758.263 1340.41V1340.3L769.808 1219ZM774.146 1223.76L763.033 1340.53C763.02 1348.98 761.552 1362.42 757.188 1375.59C752.819 1388.8 745.421 1402.11 733.291 1409.68C728.465 1412.68 723.904 1415.43 719.686 1417.98C711.232 1423.07 704.161 1427.33 699.118 1431.19C695.322 1434.1 693.086 1436.49 692.2 1438.5C691.785 1439.44 691.695 1440.22 691.826 1440.94C691.952 1441.63 692.313 1442.44 693.102 1443.39C693.223 1443.44 693.415 1443.5 693.699 1443.58C694.387 1443.77 695.396 1443.97 696.755 1444.16C699.461 1444.56 703.306 1444.92 708.205 1445.23C717.991 1445.88 731.795 1446.34 748.702 1446.66C782.507 1447.3 828.602 1447.36 879.517 1447.07C980.953 1446.48 1101.45 1444.47 1181.84 1442.79C1182.21 1442.26 1182.49 1441.31 1181.86 1439.65C1180.92 1437.15 1177.89 1433.24 1170.16 1428.08C1166.96 1425.95 1163.58 1424.17 1159.97 1422.26C1158.15 1421.31 1156.28 1420.31 1154.33 1419.23C1148.65 1416.06 1142.73 1412.26 1137.13 1406.57C1125.91 1395.14 1116.38 1376.41 1111.88 1340.7C1105.01 1286.33 1099.42 1241.49 1097.23 1223.76H774.146Z" fill="black"/><path id="Path_5" fill-rule="evenodd" clip-rule="evenodd" d="M1105 1384H817V1379H1105V1384Z" fill="black"/><path id="Path_6" fill-rule="evenodd" clip-rule="evenodd" d="M1611.16 1213H178.838C152.418 1213 131 1191.59 131 1165.18V172.823C131 146.411 152.418 125 178.838 125H1611.16C1637.57 125 1659 146.411 1659 172.823V1165.18C1659 1191.59 1637.57 1213 1611.16 1213Z" fill="#9FDDFF"/><path id="Shape_3" fill-rule="evenodd" clip-rule="evenodd" d="M178.838 1208.22H1611.16C1634.94 1208.22 1654.22 1188.95 1654.22 1165.18V172.823C1654.22 149.048 1634.94 129.775 1611.16 129.775H178.838C155.056 129.775 135.777 149.048 135.777 172.823V1165.18C135.777 1188.95 155.056 1208.22 178.838 1208.22ZM178.838 1213H1611.16C1637.57 1213 1659 1191.59 1659 1165.18V172.823C1659 146.411 1637.57 125 1611.16 125H178.838C152.418 125 131 146.411 131 172.823V1165.18C131 1191.59 152.418 1213 178.838 1213Z" fill="black"/><path id="Path_7" fill-rule="evenodd" clip-rule="evenodd" d="M1635.16 1232H202.838C176.418 1232 155 1210.59 155 1184.18V191.823C155 165.411 176.418 144 202.838 144H1635.16C1661.57 144 1683 165.411 1683 191.823V1184.18C1683 1210.59 1661.57 1232 1635.16 1232Z" fill="#9FDDFF"/><path id="Shape_4" fill-rule="evenodd" clip-rule="evenodd" d="M202.838 1227.22H1635.16C1658.94 1227.22 1678.22 1207.95 1678.22 1184.18V191.823C1678.22 168.048 1658.94 148.775 1635.16 148.775H202.838C179.056 148.775 159.777 168.048 159.777 191.823V1184.18C159.777 1207.95 179.056 1227.22 202.838 1227.22ZM202.838 1232H1635.16C1661.57 1232 1683 1210.59 1683 1184.18V191.823C1683 165.411 1661.57 144 1635.16 144H202.838C176.418 144 155 165.411 155 191.823V1184.18C155 1210.59 176.418 1232 202.838 1232Z" fill="black"/><path id="Path_8" fill-rule="evenodd" clip-rule="evenodd" d="M959 1104C959 1125.54 942.659 1143 922.5 1143C902.342 1143 886 1125.54 886 1104C886 1082.46 902.342 1065 922.5 1065C942.659 1065 959 1082.46 959 1104Z" fill="white"/><path id="Shape_5" fill-rule="evenodd" clip-rule="evenodd" d="M922.5 1138.19C939.764 1138.19 954.225 1123.15 954.225 1104C954.225 1084.85 939.764 1069.81 922.5 1069.81C905.237 1069.81 890.775 1084.85 890.775 1104C890.775 1123.15 905.237 1138.19 922.5 1138.19ZM922.5 1143C942.659 1143 959 1125.54 959 1104C959 1082.46 942.659 1065 922.5 1065C902.342 1065 886 1082.46 886 1104C886 1125.54 902.342 1143 922.5 1143Z" fill="black"/><path id="Path_9" fill-rule="evenodd" clip-rule="evenodd" d="M1645.34 981H201V230.35C201 210.827 216.829 195 236.355 195H1611.65C1631.18 195 1647 210.827 1647 230.35V979.334C1647 980.254 1646.26 981 1645.34 981Z" fill="white"/><path id="Path Copy" fill-rule="evenodd" clip-rule="evenodd" d="M1646.34 981H202V340.178C202 323.511 217.829 310 237.355 310H1612.65C1632.18 310 1648 323.511 1648 340.178V979.578C1648 980.363 1647.26 981 1646.34 981Z" fill="#204EB2"/><path id="Shape_6" fill-rule="evenodd" clip-rule="evenodd" d="M1643.22 976.224V230.35C1643.22 213.464 1629.54 199.776 1612.65 199.776H237.355C220.468 199.776 206.777 213.464 206.777 230.35V976.224H1643.22ZM1646.34 981C1647.26 981 1648 980.254 1648 979.334V230.35C1648 210.827 1632.18 195 1612.65 195H237.355C217.829 195 202 210.827 202 230.35V981H1646.34Z" fill="black"/><g id="Group 3"><path id="Path 18" d="M423.73 436.3L423.581 910.447L418.809 910.446L418.959 436.299L423.73 436.3Z" fill="#4776DD"/><path id="Path 18 Copy 2" d="M1111.43 436.226L1111.28 910.373L1106.51 910.371L1106.66 436.225L1111.43 436.226Z" fill="#4776DD"/><path id="Path 18 Copy" d="M770.266 435.927L770.117 910.074L765.345 910.073L765.494 435.926L770.266 435.927Z" fill="#4776DD"/><path id="Path 18 Copy 3" d="M1457.97 435.853L1457.82 910L1453.05 909.998L1453.2 435.852L1457.97 435.853Z" fill="#4776DD"/></g><g id="Group 2"><path id="Path 18_2" d="M1595.4 908.015V912.79H254V908.015H1595.4Z" fill="#4776DD"/><path id="Path 18_3" d="M1595.4 751.612V756.388H254V751.612H1595.4Z" fill="#4776DD"/><path id="Path 18_4" d="M1595.4 595.209V599.985H254V595.209H1595.4Z" fill="#4776DD"/></g><g id="Group"><path id="Path_10" fill-rule="evenodd" clip-rule="evenodd" d="M336.758 911.612H267.76C259.604 911.612 253 906.241 253 899.616V652.565C253 645.938 259.604 640.567 267.76 640.567H336.758C344.902 640.567 351.517 645.938 351.517 652.565V899.616C351.517 906.241 344.902 911.612 336.758 911.612Z" fill="#08AEB5"/><path id="Path Copy 13" fill-rule="evenodd" clip-rule="evenodd" d="M270.148 638.179H339.146C348.515 638.179 356.294 644.499 356.294 652.564V899.615C356.294 907.68 348.515 914 339.146 914H270.148C260.771 914 253 907.682 253 899.615V652.564C253 644.496 260.771 638.179 270.148 638.179ZM339.146 642.955H270.148C263.216 642.955 257.777 647.377 257.777 652.564V899.615C257.777 904.801 263.216 909.223 270.148 909.223H339.146C346.07 909.223 351.517 904.798 351.517 899.615V652.564C351.517 647.381 346.07 642.955 339.146 642.955Z" fill="black"/><path id="Path Copy 2" fill-rule="evenodd" clip-rule="evenodd" d="M450.203 701.463H381.205C373.049 701.463 366.445 698.576 366.445 695.015V562.239C366.445 558.678 373.049 555.791 381.205 555.791H450.203C458.347 555.791 464.963 558.678 464.963 562.239V695.015C464.963 698.576 458.347 701.463 450.203 701.463Z" fill="#08AEB5"/><path id="Path Copy 14" fill-rule="evenodd" clip-rule="evenodd" d="M383.593 553.403H452.591C461.917 553.403 469.739 556.819 469.739 562.239V695.016C469.739 700.435 461.916 703.851 452.591 703.851H383.593C374.261 703.851 366.445 700.437 366.445 695.016V562.239C366.445 556.818 374.26 553.403 383.593 553.403ZM452.591 558.179H383.593C379.936 558.179 376.54 558.807 374.111 559.868C372.136 560.731 371.222 561.676 371.222 562.239V695.016C371.222 695.579 372.136 696.523 374.111 697.386C376.54 698.448 379.936 699.075 383.593 699.075H452.591C456.243 699.075 459.639 698.447 462.069 697.386C464.047 696.523 464.963 695.577 464.963 695.016V562.239C464.963 561.677 464.047 560.732 462.069 559.868C459.639 558.807 456.243 558.179 452.591 558.179Z" fill="black"/><path id="Path Copy 3" fill-rule="evenodd" clip-rule="evenodd" d="M563.644 786.239H494.646C486.49 786.239 479.887 783.353 479.887 779.792V647.015C479.887 643.454 486.49 640.567 494.646 640.567H563.644C571.788 640.567 578.404 643.454 578.404 647.015V779.792C578.404 783.353 571.788 786.239 563.644 786.239Z" fill="#08AEB5"/><path id="Path Copy 15" fill-rule="evenodd" clip-rule="evenodd" d="M497.035 638.179H566.033C575.358 638.179 583.181 641.595 583.181 647.015V779.791C583.181 785.211 575.358 788.626 566.033 788.626H497.035C487.702 788.626 479.887 785.212 479.887 779.791V647.015C479.887 641.593 487.702 638.179 497.035 638.179ZM566.033 642.955H497.035C493.377 642.955 489.982 643.582 487.553 644.643C485.578 645.506 484.663 646.451 484.663 647.015V779.791C484.663 780.354 485.578 781.299 487.553 782.162C489.982 783.223 493.377 783.85 497.035 783.85H566.033C569.685 783.85 573.08 783.223 575.511 782.162C577.488 781.298 578.404 780.353 578.404 779.791V647.015C578.404 646.453 577.488 645.507 575.511 644.644C573.08 643.582 569.685 642.955 566.033 642.955Z" fill="black"/><path id="Path Copy 4" fill-rule="evenodd" clip-rule="evenodd" d="M677.09 807.731H608.092C599.936 807.731 593.332 805.578 593.332 802.922V703.884C593.332 701.227 599.936 699.074 608.092 699.074H677.09C685.234 699.074 691.849 701.227 691.849 703.884V802.922C691.849 805.578 685.234 807.731 677.09 807.731Z" fill="#FF82D6"/><path id="Path Copy 16" fill-rule="evenodd" clip-rule="evenodd" d="M593.332 703.884C593.332 699.184 600.996 696.687 610.48 696.687L679.928 696.688C689.196 696.766 696.626 699.26 696.626 703.884V802.922C696.626 807.621 688.954 810.119 679.478 810.119H610.48C600.996 810.119 593.332 807.622 593.332 802.922V703.884ZM679.478 701.463H610.48C606.747 701.463 603.275 701.941 600.782 702.754C599.675 703.114 598.836 703.519 598.338 703.903C598.238 703.98 598.164 704.047 598.109 704.103V802.702C598.147 802.742 598.191 802.783 598.246 802.829L598.338 802.903C598.836 803.287 599.675 803.692 600.782 804.052C603.275 804.865 606.747 805.343 610.48 805.343H679.478C683.205 805.343 686.678 804.865 689.172 804.052C690.28 803.691 691.121 803.286 691.62 802.902C691.72 802.825 691.794 802.758 691.849 802.7V704.105C691.811 704.066 691.767 704.024 691.711 703.978L691.62 703.904C691.121 703.52 690.28 703.115 689.172 702.754C686.678 701.941 683.205 701.463 679.478 701.463Z" fill="black"/><path id="Path Copy 5" fill-rule="evenodd" clip-rule="evenodd" d="M789.34 695.492H720.342C712.186 695.492 705.582 694.972 705.582 694.33V670.386C705.582 669.744 712.186 669.224 720.342 669.224H789.34C797.484 669.224 804.099 669.744 804.099 670.386V694.33C804.099 694.972 797.484 695.492 789.34 695.492Z" fill="#FF82D6"/><path id="Path Copy 17" fill-rule="evenodd" clip-rule="evenodd" d="M705.584 670.253C705.695 667.177 709.725 666.865 722.295 666.836L793.336 666.837C805.009 666.869 808.876 667.305 808.876 670.386V694.33C808.876 697.412 805.005 697.847 793.32 697.878L722.73 697.88C709.797 697.88 705.582 697.548 705.582 694.33L705.584 670.253ZM791.728 671.612L722.3 671.612C718.958 671.62 715.824 671.716 713.357 671.881L712.342 671.956C711.852 671.995 711.404 672.038 711.003 672.081L710.359 672.158V692.556L710.789 692.61C710.985 692.633 711.193 692.655 711.413 692.677L712.107 692.74L712.993 692.81C715.269 692.972 718.159 693.074 721.277 693.098L722.73 693.104H791.728C795.634 693.104 799.291 692.982 801.974 692.771L802.347 692.74C802.954 692.689 803.493 692.633 803.951 692.576L804.099 692.556V672.158L803.666 672.106C803.47 672.083 803.262 672.061 803.042 672.039L802.347 671.975L801.46 671.906C799.183 671.744 796.293 671.642 793.18 671.617L791.728 671.612Z" fill="black"/><path id="Path Copy 6" fill-rule="evenodd" clip-rule="evenodd" d="M902.785 721.762H833.787C825.631 721.762 819.027 717.597 819.027 712.461V520.914C819.027 515.776 825.631 511.612 833.787 511.612H902.785C910.929 511.612 917.545 515.776 917.545 520.914V712.461C917.545 717.597 910.929 721.762 902.785 721.762Z" fill="#FF82D6"/><path id="Path Copy 18" fill-rule="evenodd" clip-rule="evenodd" d="M836.175 509.224H905.173C914.473 509.224 922.321 514.168 922.321 520.913V712.46C922.321 719.205 914.473 724.149 905.173 724.149H836.175C826.867 724.149 819.027 719.207 819.027 712.46V520.913C819.027 514.165 826.867 509.224 836.175 509.224ZM905.173 514H836.175C829.174 514 823.804 517.385 823.804 520.913V712.46C823.804 715.988 829.174 719.373 836.175 719.373H905.173C912.167 719.373 917.545 715.985 917.545 712.46V520.913C917.545 517.388 912.167 514 905.173 514Z" fill="black"/><path id="Path Copy 7" fill-rule="evenodd" clip-rule="evenodd" d="M1015.03 733.701H946.037C937.881 733.701 931.277 730.531 931.277 726.62V580.783C931.277 576.872 937.881 573.701 946.037 573.701H1015.03C1023.18 573.701 1029.79 576.872 1029.79 580.783V726.62C1029.79 730.531 1023.18 733.701 1015.03 733.701Z" fill="#08AEB5"/><path id="Path Copy 19" fill-rule="evenodd" clip-rule="evenodd" d="M948.425 571.313H1017.42C1026.73 571.313 1034.57 575.076 1034.57 580.784V726.62C1034.57 732.327 1026.73 736.09 1017.42 736.09H948.425C939.115 736.09 931.277 732.329 931.277 726.62V580.784C931.277 575.075 939.115 571.313 948.425 571.313ZM1017.42 576.09H948.425C941.427 576.09 936.054 578.668 936.054 580.784V726.62C936.054 728.735 941.427 731.313 948.425 731.313H1017.42C1024.41 731.313 1029.79 728.733 1029.79 726.62V580.784C1029.79 578.67 1024.41 576.09 1017.42 576.09Z" fill="black"/><path id="Path Copy 8" fill-rule="evenodd" clip-rule="evenodd" d="M1127.28 788.627H1058.29C1050.13 788.627 1043.53 786.521 1043.53 783.924V687.062C1043.53 684.464 1050.13 682.358 1058.29 682.358H1127.28C1135.43 682.358 1142.04 684.464 1142.04 687.062V783.924C1142.04 786.521 1135.43 788.627 1127.28 788.627Z" fill="#FF82D6"/><path id="Path Copy 20" fill-rule="evenodd" clip-rule="evenodd" d="M1043.53 687.062C1043.53 682.407 1051.17 679.97 1060.68 679.97L1130.12 679.972C1139.41 680.048 1146.82 682.482 1146.82 687.062V783.923C1146.82 788.576 1139.17 791.015 1129.67 791.015H1060.68C1051.17 791.015 1043.53 788.577 1043.53 783.923V687.062ZM1129.67 684.746H1060.68C1056.94 684.746 1053.46 685.215 1050.96 686.011C1049.85 686.364 1049.01 686.762 1048.51 687.137L1048.35 687.271L1048.3 687.313V783.671L1048.35 783.713L1048.51 783.847C1049.01 784.223 1049.85 784.62 1050.96 784.974C1053.46 785.77 1056.94 786.238 1060.68 786.238H1129.67C1133.41 786.238 1136.88 785.77 1139.38 784.973C1140.49 784.62 1141.34 784.222 1141.84 783.846C1141.9 783.796 1141.96 783.751 1142 783.712L1142.04 783.669V687.314L1142 687.272L1141.84 687.138C1141.34 686.762 1140.49 686.364 1139.38 686.011C1136.88 685.215 1133.41 684.746 1129.67 684.746Z" fill="black"/><path id="Path Copy 9" fill-rule="evenodd" clip-rule="evenodd" d="M1240.73 752.806H1171.73C1163.58 752.806 1156.97 750.7 1156.97 748.102V651.241C1156.97 648.643 1163.58 646.537 1171.73 646.537H1240.73C1248.87 646.537 1255.49 648.643 1255.49 651.241V748.102C1255.49 750.7 1248.87 752.806 1240.73 752.806Z" fill="#08AEB5"/><path id="Path Copy 21" fill-rule="evenodd" clip-rule="evenodd" d="M1156.97 651.241C1156.97 646.587 1164.62 644.149 1174.12 644.149L1243.57 644.151C1252.85 644.227 1260.27 646.662 1260.27 651.241V748.103C1260.27 752.756 1252.61 755.194 1243.12 755.194H1174.12C1164.62 755.194 1156.97 752.757 1156.97 748.103V651.241ZM1243.12 648.926H1174.12C1170.38 648.926 1166.91 649.394 1164.41 650.19C1163.3 650.544 1162.46 650.941 1161.96 651.317L1161.79 651.451L1161.75 651.493V747.851L1161.79 747.893L1161.96 748.027C1162.46 748.402 1163.3 748.8 1164.41 749.153C1166.91 749.949 1170.38 750.418 1174.12 750.418H1243.12C1246.85 750.418 1250.33 749.949 1252.83 749.153C1253.94 748.8 1254.78 748.402 1255.28 748.026C1255.35 747.976 1255.4 747.931 1255.44 747.892L1255.49 747.849V651.494L1255.44 651.452L1255.28 651.318C1254.78 650.942 1253.94 650.544 1252.83 650.19C1250.33 649.394 1246.85 648.926 1243.12 648.926Z" fill="black"/><path id="Path Copy 10" fill-rule="evenodd" clip-rule="evenodd" d="M1352.98 754H1283.98C1275.83 754 1269.22 750.002 1269.22 745.069V561.141C1269.22 556.208 1275.83 552.209 1283.98 552.209H1352.98C1361.12 552.209 1367.74 556.208 1367.74 561.141V745.069C1367.74 750.002 1361.12 754 1352.98 754Z" fill="#08AEB5"/><path id="Path Copy 22" fill-rule="evenodd" clip-rule="evenodd" d="M1286.37 549.821H1355.37C1364.66 549.821 1372.52 554.572 1372.52 561.141V745.069C1372.52 751.638 1364.66 756.388 1355.37 756.388H1286.37C1277.07 756.388 1269.22 751.64 1269.22 745.069V561.141C1269.22 554.57 1277.07 549.821 1286.37 549.821ZM1355.37 554.597H1286.37C1279.36 554.597 1274 557.845 1274 561.141V745.069C1274 748.365 1279.36 751.612 1286.37 751.612H1355.37C1362.37 751.612 1367.74 748.362 1367.74 745.069V561.141C1367.74 557.847 1362.37 554.597 1355.37 554.597Z" fill="black"/><path id="Path Copy 11" fill-rule="evenodd" clip-rule="evenodd" d="M1466.42 652.508H1397.42C1389.27 652.508 1382.66 648.864 1382.66 644.369V476.766C1382.66 472.271 1389.27 468.627 1397.42 468.627H1466.42C1474.57 468.627 1481.18 472.271 1481.18 476.766V644.369C1481.18 648.864 1474.57 652.508 1466.42 652.508Z" fill="#08AEB5"/><path id="Path Copy 23" fill-rule="evenodd" clip-rule="evenodd" d="M1399.81 466.239H1468.81C1478.1 466.239 1485.96 470.571 1485.96 476.766V644.37C1485.96 650.565 1478.1 654.896 1468.81 654.896H1399.81C1390.51 654.896 1382.66 650.567 1382.66 644.37V476.766C1382.66 470.569 1390.51 466.239 1399.81 466.239ZM1468.81 471.015H1399.81C1392.8 471.015 1387.44 473.972 1387.44 476.766V644.37C1387.44 647.164 1392.8 650.12 1399.81 650.12H1468.81C1475.81 650.12 1481.18 647.161 1481.18 644.37V476.766C1481.18 473.974 1475.81 471.015 1468.81 471.015Z" fill="black"/><path id="Path Copy 12" fill-rule="evenodd" clip-rule="evenodd" d="M1579.87 552.209H1510.87C1502.71 552.209 1496.11 549.914 1496.11 547.082V441.514C1496.11 438.683 1502.71 436.388 1510.87 436.388H1579.87C1588.01 436.388 1594.63 438.683 1594.63 441.514V547.082C1594.63 549.914 1588.01 552.209 1579.87 552.209Z" fill="#08AEB5"/><path id="Path Copy 24" fill-rule="evenodd" clip-rule="evenodd" d="M1513.26 434H1582.26C1591.69 434 1599.4 436.679 1599.4 441.515V547.083C1599.4 551.918 1591.69 554.597 1582.26 554.597H1513.26C1503.82 554.597 1496.11 551.919 1496.11 547.083V441.515C1496.11 436.678 1503.82 434 1513.26 434ZM1582.26 438.776H1513.26C1509.54 438.776 1506.08 439.284 1503.6 440.145C1502.5 440.527 1501.67 440.956 1501.17 441.364C1501.07 441.449 1500.99 441.524 1500.94 441.587L1500.89 441.645V546.95C1500.93 547.006 1500.99 547.073 1501.08 547.151L1501.17 547.233C1501.67 547.641 1502.5 548.07 1503.6 548.452C1506.08 549.313 1509.54 549.821 1513.26 549.821H1582.26C1585.97 549.821 1589.42 549.313 1591.91 548.452C1593.01 548.07 1593.84 547.641 1594.34 547.232C1594.44 547.147 1594.52 547.072 1594.58 547.009L1594.63 546.947V441.649C1594.58 441.593 1594.52 441.525 1594.43 441.447L1594.34 441.365C1593.84 440.956 1593.01 440.527 1591.91 440.145C1589.42 439.284 1585.97 438.776 1582.26 438.776Z" fill="black"/></g><path id="Path 18_5" d="M1595 436V441H253V436H1595Z" fill="#FF82D6"/><path id="Path_11" fill-rule="evenodd" clip-rule="evenodd" d="M203 333H1648V283H203V333Z" fill="#08AEB5"/><path id="Shape_7" fill-rule="evenodd" clip-rule="evenodd" d="M1645 333H200V283H1645V333ZM1640.22 287.762H204.777V328.238H1640.22V287.762Z" fill="black"/><path id="Path_12" fill-rule="evenodd" clip-rule="evenodd" d="M506 333H1648V283H506V333Z" fill="#FCEBEC"/><path id="Shape_8" fill-rule="evenodd" clip-rule="evenodd" d="M1648 333H506V283H1648V333ZM1643.22 287.762H510.778V328.238H1643.22V287.762Z" fill="black"/><path id="Path_13" fill-rule="evenodd" clip-rule="evenodd" d="M314 246C314 253.18 308.628 259 302.001 259C295.372 259 290 253.18 290 246C290 238.82 295.372 233 302.001 233C308.628 233 314 238.82 314 246Z" fill="#E93737"/><path id="Shape_9" fill-rule="evenodd" clip-rule="evenodd" d="M302.001 254.273C305.556 254.273 309.2 251.003 309.2 246C309.2 240.997 305.556 237.727 302.001 237.727C298.443 237.727 294.8 240.997 294.8 246C294.8 251.003 298.443 254.273 302.001 254.273ZM302.001 259C308.628 259 314 253.18 314 246C314 238.82 308.628 233 302.001 233C295.372 233 290 238.82 290 246C290 253.18 295.372 259 302.001 259Z" fill="black"/><path id="Path_14" fill-rule="evenodd" clip-rule="evenodd" d="M364 245.5C364 252.404 358.626 258 352 258C345.372 258 340 252.404 340 245.5C340 238.596 345.372 233 352 233C358.626 233 364 238.596 364 245.5Z" fill="#EECCDC"/><path id="Shape_10" fill-rule="evenodd" clip-rule="evenodd" d="M352 253.238C355.757 253.238 359.2 249.995 359.2 245.5C359.2 241.005 355.757 237.762 352 237.762C348.242 237.762 344.8 241.005 344.8 245.5C344.8 249.995 348.242 253.238 352 253.238ZM352 258C358.626 258 364 252.404 364 245.5C364 238.596 358.626 233 352 233C345.372 233 340 238.596 340 245.5C340 252.404 345.372 258 352 258Z" fill="black"/><path id="Path_15" fill-rule="evenodd" clip-rule="evenodd" d="M416 246C416 253.18 410.626 259 404 259C397.374 259 392 253.18 392 246C392 238.82 397.374 233 404 233C410.626 233 416 238.82 416 246Z" fill="#08AEB5"/><path id="Shape_11" fill-rule="evenodd" clip-rule="evenodd" d="M404 254.273C407.556 254.273 411.2 251.003 411.2 246C411.2 240.997 407.556 237.727 404 237.727C400.444 237.727 396.8 240.997 396.8 246C396.8 251.003 400.444 254.273 404 254.273ZM404 259C410.626 259 416 253.18 416 246C416 238.82 410.626 233 404 233C397.374 233 392 238.82 392 246C392 253.18 397.374 259 404 259Z" fill="black"/></g></g></svg>