<svg viewBox="566.875 448.344827586207 680.2499999999995 679.3103448275858" fill="none" xmlns="http://www.w3.org/2000/svg" xmlns:xlink="http://www.w3.org/1999/xlink" overflow="visible" width="680.2499999999995px" height="679.3103448275858px"><g id="Master/Emoji/Heart Eyes"><g id="Group 4"><circle id="Oval" cx="907.5" cy="788.5" r="332.5" fill="#FFE044"/><path id="Oval Copy" fill-rule="evenodd" clip-rule="evenodd" d="M1241 788.5C1241 604.865 1092.13 456 908.5 456C724.865 456 576 604.865 576 788.5C576 972.135 724.865 1121 908.5 1121C1092.13 1121 1241 972.135 1241 788.5ZM580 788.5C580 607.074 727.074 460 908.5 460C1089.93 460 1237 607.074 1237 788.5C1237 969.926 1089.93 1117 908.5 1117C727.074 1117 580 969.926 580 788.5Z" fill="black"/><g id="Group 3"><circle id="Oval_2" cx="688" cy="713" r="64" fill="#FFABDD"/><circle id="Oval Copy 2" cx="1127" cy="713" r="64" fill="#FFABDD"/><path id="Path 2" fill-rule="evenodd" clip-rule="evenodd" d="M844.385 736.031C844.385 736.031 802.649 717.698 777.014 705.338C751.38 692.978 745.749 688.472 745.749 688.472C745.749 688.472 709.45 659.455 724.824 623.893C740.198 588.332 790.826 593.441 806.18 618.122C806.18 618.122 811.99 570.807 853.525 570.031C853.525 570.031 866.449 570.807 870.664 572.486C891.236 580.684 903.702 603.013 899.405 627.525C899.405 627.525 897.847 636.512 893.754 644.11C875.751 677.538 844.385 736.031 844.385 736.031Z" fill="#E63E3E"/><path id="Path 2 Copy 2" fill-rule="evenodd" clip-rule="evenodd" d="M854.383 569.063L855.241 569.042L855.399 569.045C864.223 569.575 870.085 570.415 873.157 571.639C894.989 580.339 907.515 603.857 903.128 628.878C902.053 635.078 900.1 640.811 897.268 646.069C894.393 651.408 891.262 657.227 887.875 663.525L847.027 739.616L841.57 737.217C816.701 726.263 796.268 716.954 780.266 709.288L777.899 708.15C761.301 700.148 750.968 694.609 746.722 691.409L746.253 691.046C721.39 671.169 714.11 648.703 724.742 624.111C732.206 606.844 748.316 597.523 767.253 597.427C782.776 597.349 797.804 603.625 806.538 613.858L806.662 614.006L806.802 613.211C811.914 584.749 827.88 569.865 854.383 569.063ZM855.237 573.043L854.52 573.061C828.377 573.845 813.638 589.081 809.919 619.376L809.228 625L806.235 620.189C799.123 608.757 783.52 601.346 767.273 601.427C749.841 601.515 735.207 609.982 728.413 625.698C718.546 648.521 725.217 669.107 748.752 687.922C752.16 690.649 761.682 695.83 777.145 703.342L781.203 705.301C796.486 712.638 815.917 721.515 839.493 731.929L845.249 734.466L851.449 722.907L893.746 644.173C896.371 639.299 898.185 633.976 899.188 628.191C903.253 605.001 891.717 583.341 871.677 575.355C869.299 574.408 864.294 573.65 856.802 573.143L855.237 573.043Z" fill="black"/><path id="Path 2 Copy" fill-rule="evenodd" clip-rule="evenodd" d="M1007.56 732C1007.56 732 982.489 693.91 967.685 669.594C952.881 645.278 950.603 638.439 950.603 638.439C950.603 638.439 935.903 594.37 968.15 572.986C1000.4 551.603 1040.13 583.472 1039.6 612.497C1039.6 612.497 1070.21 576.064 1105.51 598.052C1105.51 598.052 1115.94 605.745 1118.56 609.448C1131.38 627.521 1129.71 653.003 1112.77 671.176C1112.77 671.176 1106.57 677.848 1099 681.977C1065.71 700.141 1007.56 732 1007.56 732Z" fill="#E63E3E"/><path id="Path 2 Copy 3" fill-rule="evenodd" clip-rule="evenodd" d="M950.162 639.179C940.513 609.44 946.718 586.972 968.798 572.33C984.455 561.948 1003.05 562.926 1019 573.166C1032.08 581.561 1041.28 595.003 1043.05 608.327L1043.08 608.527L1043.63 607.934C1063.4 586.898 1084.9 583.144 1107.59 596.915L1108.32 597.366L1108.45 597.454C1115.57 602.706 1120.04 606.604 1121.95 609.302C1135.55 628.482 1133.28 654.995 1115.99 673.548C1111.71 678.152 1106.95 681.886 1101.72 684.743C1099.4 686.005 1097 687.315 1094.51 688.676L1008.66 735.651L1006.14 731.813C990.866 708.584 978.521 689.277 969.099 673.887L966.991 670.43C957.487 654.769 952.005 644.724 950.459 640.083L950.162 639.179ZM1039.36 613.471C1039.6 600.028 1030.53 585.32 1016.84 576.532C1002.15 567.104 985.258 566.215 971.008 575.664C950.315 589.386 944.723 610.246 954.254 638.818L954.31 638.984C955.75 643.153 960.791 652.426 969.361 666.621L971.597 670.304C980.198 684.405 991.354 701.933 1005.06 722.886L1009.97 730.37L1051.9 707.411L1099.8 681.232C1104.65 678.584 1109.07 675.118 1113.06 670.823C1129.08 653.633 1131.17 629.222 1118.69 611.616C1117.2 609.526 1113.41 606.164 1107.4 601.656L1106.14 600.72L1105.53 600.343C1083.37 586.887 1062.9 591.375 1043.48 614.093L1042.89 614.794L1039.25 619.119L1039.36 613.471Z" fill="black"/></g><path id="Path 90" fill-rule="evenodd" clip-rule="evenodd" d="M664.638 948.22C664.638 948.22 661.362 961.823 664.638 967.377C697.44 1023 752.067 1057.11 809.606 1073.53C904.533 1100.62 774.606 1000.66 735.991 948.22C697.376 895.78 664.638 948.22 664.638 948.22Z" fill="white"/></g><ellipse id="Oval_3" cx="928" cy="825" rx="56" ry="64" fill="white"/><path id="Oval Copy 2_2" fill-rule="evenodd" clip-rule="evenodd" d="M984 825C984 789.654 958.928 761 928 761C897.072 761 872 789.654 872 825C872 860.346 897.072 889 928 889C958.928 889 984 860.346 984 825ZM877 825C877 791.623 900.285 765 928 765C955.715 765 979 791.623 979 825C979 858.377 955.715 885 928 885C900.285 885 877 858.377 877 825Z" fill="black"/><ellipse id="Oval Copy 3" cx="928" cy="838.5" rx="52" ry="50.5" fill="black"/><path id="Path 168" fill-rule="evenodd" clip-rule="evenodd" d="M891.762 867.794C891.762 867.794 897.419 845.238 922.989 849C948.559 852.762 957.267 836.161 970.925 857.628C970.925 857.628 961.392 878.762 936.224 883.622C911.056 888.482 891.762 867.794 891.762 867.794Z" fill="#ED5D6B"/></g></svg>