<svg viewBox="498.8499999999999 199.2643678160921 838.9750000000003 1177.4712643678165" fill="none" xmlns="http://www.w3.org/2000/svg" xmlns:xlink="http://www.w3.org/1999/xlink" overflow="visible" width="838.9750000000003px" height="1177.4712643678165px"><g id="Master/Marketing/Elements"><g id="Group 1176"><path id="Path" d="M625.724 769L510 869.124L1091.68 970L1317 832.236V769H625.724Z" fill="#F495BB"/><path id="Path Copy" fill-rule="evenodd" clip-rule="evenodd" d="M626.249 768H1319V834.315L1092.5 973L507 871.319L626.249 768ZM1315 831.154V771H627.766L516 867.926L1091.71 968L1315 831.154Z" fill="black"/><path id="Path_2" d="M622.449 771.924L509.449 868.884V1349.92L622.449 1219.14V771.924Z" fill="#FA83B3"/><path id="Path Copy 2" fill-rule="evenodd" clip-rule="evenodd" d="M625 768V1220.47L507 1356V868.481L625 768ZM621 1218.97V777L511 870.439V1345L621 1218.97Z" fill="black"/><path id="Path_3" d="M794.412 651L1011 807.157L767 916L794.412 651Z" fill="#66C7FF"/><path id="Path Copy 3" fill-rule="evenodd" clip-rule="evenodd" d="M793.229 647.818L1015.44 808.029L765.105 919.698L793.229 647.818ZM1007.46 807.208L796.496 655.105L769.796 913.225L1007.46 807.208Z" fill="black"/><rect id="Rectangle" x="509" y="868" width="696" height="488" fill="#FFE1ED"/><path id="Rectangle Copy" fill-rule="evenodd" clip-rule="evenodd" d="M507.449 866.462H1207.45V1358.46H507.449V866.462ZM1203.45 1354.46V870.462H511.449V1354.46H1203.45Z" fill="black"/><path id="Path_4" d="M1316.55 771.95L1205.55 869.245V1351.95L1316.55 1220.71V771.95Z" fill="#FFC6DD"/><path id="Path Copy 4" fill-rule="evenodd" clip-rule="evenodd" d="M1319 768V1221.91L1204 1357.87V868.801L1319 768ZM1315 1220.44V776.825L1208 870.614V1346.95L1315 1220.44Z" fill="black"/><circle id="Oval" cx="1169.5" cy="686.5" r="112.5" fill="#787EFF"/><path id="Oval Copy" fill-rule="evenodd" clip-rule="evenodd" d="M1055.45 686.962C1055.45 623.725 1106.71 572.462 1169.95 572.462C1233.19 572.462 1284.45 623.725 1284.45 686.962C1284.45 750.199 1233.19 801.462 1169.95 801.462C1106.71 801.462 1055.45 750.199 1055.45 686.962ZM1280.45 686.962C1280.45 625.934 1230.98 576.462 1169.95 576.462C1108.92 576.462 1059.45 625.934 1059.45 686.962C1059.45 747.989 1108.92 797.462 1169.95 797.462C1230.98 797.462 1280.45 747.989 1280.45 686.962Z" fill="black"/><path id="Path_5" d="M951 221L990.659 342.847H1119L1015.17 418.153L1054.83 540L951 464.694L847.17 540L886.83 418.153L783 342.847H911.341L951 221Z" fill="#FEBA57"/><path id="Path Copy 5" fill-rule="evenodd" clip-rule="evenodd" d="M951.449 215L992.56 341.309L1125.61 341.309L1017.97 419.378L1059.08 545.693L951.448 467.627L843.814 545.693L884.926 419.378L777.285 341.309L910.337 341.309L951.449 215ZM951.449 227.923L913.242 345.309L789.613 345.309L889.631 417.85L851.425 535.23L951.449 462.686L1051.47 535.23L1013.27 417.85L1113.28 345.309L989.656 345.309L951.449 227.923Z" fill="black"/><path id="Path_6" d="M613.17 432.572C616.527 414.476 642.473 414.476 645.83 432.572V432.572C648.232 445.518 664.037 450.649 673.592 441.587V441.587C686.953 428.918 707.944 444.159 700.016 460.771V460.771C694.345 472.654 704.113 486.09 717.175 484.372V484.372C735.433 481.971 743.451 506.632 727.267 515.413V515.413C715.689 521.696 715.689 538.304 727.267 544.587V544.587C743.451 553.368 735.433 578.029 717.175 575.628V575.628C704.113 573.91 694.345 587.346 700.016 599.229V599.229C707.944 615.841 686.953 631.082 673.592 618.413V618.413C664.037 609.351 648.232 614.482 645.83 627.428V627.428C642.473 645.524 616.527 645.524 613.17 627.428V627.428C610.768 614.482 594.963 609.351 585.407 618.413V618.413C572.048 631.082 551.056 615.841 558.984 599.229V599.229C564.656 587.346 554.888 573.91 541.826 575.628V575.628C523.567 578.029 515.549 553.368 531.734 544.587V544.587C543.311 538.304 543.311 521.696 531.734 515.413V515.413C515.549 506.632 523.567 481.971 541.826 484.372V484.372C554.888 486.09 564.656 472.654 558.984 460.771V460.771C551.056 444.159 572.048 428.918 585.407 441.587V441.587C594.963 450.649 610.768 445.518 613.17 432.572V432.572Z" fill="#FF5900"/><path id="Path Copy 6" fill-rule="evenodd" clip-rule="evenodd" d="M587.488 440.833C595.916 448.478 609.562 443.941 611.654 432.669L611.773 432.075C615.932 412.665 643.932 412.516 648.128 432.077L648.313 433.004C650.605 444.006 664.05 448.419 672.394 440.851L673.112 440.187C687.893 426.928 710.635 443.255 702.512 461.572L702.128 462.405C697.511 472.651 705.792 484.117 716.995 482.895L717.966 482.78C737.721 480.737 746.517 507.306 729.174 517.352L728.372 517.8C718.61 523.379 718.565 537.518 728.347 543.11L729.2 543.588C746.386 553.538 737.875 580.2 717.936 578.141L717.024 578.033C705.845 576.811 697.492 588.225 702.115 598.493L702.525 599.38C710.576 617.528 688.011 634.096 673.09 620.717L672.416 620.094C664.091 612.54 650.618 616.867 648.319 627.891L648.128 628.85C643.968 648.259 615.969 648.409 611.767 628.82L611.588 627.92C609.295 616.919 595.85 612.506 587.506 620.074L586.788 620.738C572.008 633.997 549.265 617.67 557.388 599.353L557.773 598.52C562.389 588.274 554.108 576.808 542.906 578.029L541.935 578.144C522.178 580.188 513.383 553.619 530.727 543.573L531.528 543.125C541.29 537.546 541.334 523.407 531.554 517.814L531.23 517.634C513.343 507.928 521.823 480.704 541.965 482.784L542.877 482.892C554.055 484.114 562.409 472.7 557.786 462.432L557.376 461.544C549.324 443.397 571.89 426.828 586.81 440.207L587.488 440.833ZM644.212 432.889L644.112 432.456C640.448 417.434 618.469 417.861 615.587 433.399L615.501 433.831C612.542 448.018 595.081 453.553 584.502 443.519L584.119 443.167C572.32 432.586 554.363 445.965 561.249 460.392L561.424 460.769C567.389 474.017 556.471 488.719 542.043 486.82L541.526 486.759C525.757 485.132 519.1 506.501 533.157 514.128L533.52 514.331C546.137 521.545 545.952 539.853 533.162 546.794L532.708 547.048C518.994 554.991 526.177 576.19 542.037 574.105L542.45 574.056C556.899 572.479 567.517 587.399 561.251 600.528L561.034 601C554.611 615.482 572.893 628.413 584.497 617.409L584.802 617.126C595.565 607.364 612.928 613.197 615.581 627.499L615.683 628.009C619.006 643.497 641.402 643.221 644.318 627.504L644.398 627.096C647.365 612.875 664.843 607.394 675.398 617.405L675.781 617.758C687.581 628.339 705.537 614.96 698.652 600.533L698.477 600.156C692.512 586.908 703.429 572.205 717.858 574.104L718.375 574.165C734.143 575.793 740.8 554.423 726.744 546.796L726.381 546.594C713.762 539.38 713.948 521.072 726.739 514.131L727.193 513.877C740.906 505.933 733.723 484.735 717.864 486.82L717.451 486.869C703.001 488.445 692.383 473.526 698.65 460.397L698.867 459.925C705.289 445.443 687.008 432.512 675.403 443.516L675.098 443.798C664.335 453.56 646.972 447.728 644.319 433.426L644.212 432.889Z" fill="black"/></g></g></svg>