<svg viewBox="63.879310344827616 171.67500000000007 442.24137931034477 261.59999999999985" xmlns="http://www.w3.org/2000/svg" overflow="visible" xmlns:xlink="http://www.w3.org/1999/xlink" width="189.99999999999994px" height="189.99999999999994px"><g id="Master/Stickers/Medal" stroke="none" stroke-width="1" fill="none" fill-rule="evenodd"><path d="M397.994,277.003 L398.006,276.997 L397.994,277.003 Z" id="Fill-46" fill="#FF71DB"/><path d="M397.994,277.003 L398.006,276.997 L397.994,277.003 Z" id="Stroke-48" stroke="#FFF"/><g id="Group-28" transform="translate(71.000000, 177.000000)"><path d="M178.002677,89.4802529 C230.336626,66.5939928 267.886622,92.4541737 310.009153,102.410343 C352.129958,112.364789 399.913804,92.4541737 399.687765,63.9441863 C399.406511,28.9243293 358.471114,19.5957001 315.896506,39.0546242 C273.321899,58.5135483 240.711965,61.6822825 190.890322,34.9825077 C142.133303,8.85338094 117.065462,63.9441863 117.065462,63.9441863 L84,59.4186546 C112.082262,-1.67343669 159.186267,-3.93706452 190.436519,2.39867979 C221.688497,8.73442411 244.345835,40.3665974 289.626003,16.8821051 C374.076397,-26.9198693 467.171469,29.1001786 410.787808,101.99658 C380.565945,141.06959 308.649471,139.516255 265.621061,117.733363 C222.594376,95.9487462 185.002968,115.533523 185.002968,115.533523 L169.603018,92.4541737 L178.002677,89.4802529 Z" id="Fill-26" fill="#A2D249"/><path d="M0.494521225,160.109113 C11.9313517,296.847325 198.859128,273.201321 199.99503,150.577833 C201.18453,21.9133186 -11.5716375,15.8688393 0.494521225,160.109113" id="Fill-35" fill="#EFD638"/><path d="M67.282585,136.850366 C65.2000007,133.171727 65.4861836,128.618854 68.0135583,125.228198 L89.7772537,96.018503 C89.7772537,96.018503 99.2954225,81.2868058 111.416822,83.1655515 C125.360482,85.3254233 121.429777,103.615766 121.429777,103.615766 L110.046247,195.261185 L115.416487,195.115479 C121.764231,194.945775 127,200.014617 127,206.324528 L127,208.786097 C127,215.082294 121.788367,220.14428 115.457863,219.99686 L71.0150312,218.959778 C64.7155585,218.812359 59.7590768,213.561813 60.0090559,207.301613 L60.0418118,206.521659 C60.2917909,200.28203 65.6206551,195.448031 71.8925439,195.770298 L76.5559467,196.010283 L86.5171818,138.000583 L82.5313086,140.575287 C77.3196758,143.943659 70.3323297,142.236332 67.282585,136.850366" id="Fill-37" fill="#FEF864"/></g></g></svg>