<svg viewBox="165.75 51 752.2500000000001 879.7499999999999" xmlns="http://www.w3.org/2000/svg" xmlns:xlink="http://www.w3.org/1999/xlink" overflow="visible" width="752.2500000000001px" height="879.7499999999999px"><defs><polygon id="masterspot-illustrationplanning-path-1" points="0.6017 0.148 107.7217 0.148 107.7217 265 0.6017 265"/><polygon id="masterspot-illustrationplanning-path-3" points="0.302904145 0.494 189.197939 0.494 189.197939 192.743236 0.302904145 192.743236"/></defs><g id="Master/Spot Illustration/Planning" stroke="none" stroke-width="1" fill="none" fill-rule="evenodd"><g id="Planning" transform="translate(25.000000, 63.000000) scale(1 1)"><defs><polygon id="planningpen-and-paper-path-1" points="0.6017 0.148 107.7217 0.148 107.7217 265 0.6017 265"/><polygon id="planningpen-and-paper-path-3" points="0.302904145 0.494 189.197939 0.494 189.197939 192.743236 0.302904145 192.743236"/></defs><g id="Planning/Pen and Paper" stroke="none" stroke-width="1" fill="none" fill-rule="evenodd"><g id="Group-33" transform="translate(211.000000, 0.000000)"><path d="M438.9089,130.2656 C438.9089,130.2656 178.6299,129.3266 92.8449,136.1146 C92.8449,136.1146 39.2289,134.7336 36.3049,201.7126 C33.3809,268.6916 36.3049,756.1056 36.3049,756.1056 C36.3049,756.1056 33.1369,801.9226 90.8949,801.9226 C138.6619,801.9226 410.6389,794.1236 443.7829,792.1736 C476.9279,790.2246 496.4239,778.5266 497.3989,726.8606 C498.3739,675.1946 497.3989,201.7126 497.3989,201.7126 C497.3989,201.7126 504.2139,130.2716 438.9089,130.2656" id="Fill-1" fill="#FE5C4F"/><path d="M467.7341,217.6768 L471.4031,736.9338 C471.4031,736.9338 471.4031,771.7868 442.8441,771.7868 C424.6351,771.7868 370.6711,774.1398 370.6711,774.1398 L46.7991,777.361654 C36.5521,777.4618 28.5211,768.5848 29.6441,758.3988 L35.0051,709.8008 L448.0071,190.3798 L460.2411,197.4818 L467.7341,217.6768 Z" id="Fill-3" fill="#DDF77D"/><path d="M112.6662,178.6826 C112.6662,178.6826 84.0712,174.7836 78.5472,203.0526 C75.8872,216.6666 74.3202,312.5316 59.7012,415.8906 C41.7832,542.5626 9.8332,683.0356 0.8862,728.4856 C0.8862,728.4856 -8.0498,763.4166 30.8332,766.7906 C64.5562,769.7176 403.8152,760.9796 403.8152,760.9796 C403.8152,760.9796 427.2112,764.2296 429.8112,736.2846 C431.2812,720.4756 450.9442,571.8786 460.3552,436.3616 C467.5802,332.3276 468.6462,252.3246 467.6032,211.7866 C467.6032,211.7866 469.1282,180.4696 442.1592,177.9856 C414.9442,175.4786 112.6662,178.6826 112.6662,178.6826" id="Fill-5" fill="#F8FBF8"/><path d="M116.5656,259.1055 L116.5656,229.1055 L131.639572,229.119976 C140.361145,229.139394 147.617677,229.179787 156.044145,229.249682 L181.755469,229.48031 C191.247151,229.552694 199.613176,229.586406 211.067399,229.595134 L218.849033,229.59793 L223.22302,229.608821 C239.088146,229.677932 249.200919,230.071897 263.436175,231.020887 L273.195942,231.697361 C288.582161,232.749984 298.501713,233.143634 315.715571,233.184826 L336.327166,233.205658 C344.562284,233.224783 351.641463,233.261244 359.985352,233.321648 L379.887883,233.476161 C392.168215,233.56381 401.787553,233.598778 416.770396,233.603047 L420.0626,233.6035 L420.0626,263.6035 L400.602002,263.581216 C392.024864,263.557752 384.529228,263.514036 375.198006,263.442104 L359.069343,263.315837 C346.789212,263.228189 337.17012,263.193222 322.187708,263.188953 L317.775136,263.18807 L313.401025,263.177179 C297.535457,263.108067 287.422444,262.714095 273.186982,261.765092 L263.427186,261.088616 C248.041189,260.036007 238.121888,259.642365 220.908535,259.601174 L202.690304,259.583104 C192.291496,259.560032 183.978607,259.507186 173.291878,259.410138 L156.158142,259.251671 C145.089522,259.159123 136.112243,259.117685 123.22661,259.107866 L116.5656,259.1055 Z" id="Stroke-7" fill="#A2D249" fill-rule="nonzero"/><path d="M110.716,346.475 L110.7165,316.4766 L110.691604,316.475528 C111.105175,316.44068 151.353382,315.564449 179.188685,315.060852 L190.826288,314.855942 L218.461543,314.395096 C223.535613,314.298635 228.931784,314.182895 235.585446,314.029011 L286.310501,312.821779 C290.592976,312.728815 294.401288,312.652477 298.125803,312.584878 L313.529374,312.326271 C328.060568,312.064807 338.157965,311.766475 348.988734,311.324172 L364.052176,310.677801 C374.232776,310.257019 382.506831,309.998666 394.123581,309.775858 L403.544919,309.613434 L404.014081,339.609766 L396.485979,339.736812 C383.55178,339.97388 374.964864,340.244043 363.746039,340.716689 L350.897102,341.271096 C339.821646,341.728143 329.585534,342.036806 315.02152,342.304086 L296.514993,342.619896 C292.195085,342.701552 287.659331,342.796885 282.311743,342.917951 L231.837892,344.122238 C222.863444,344.323465 216.10237,344.452764 208.642666,344.568788 C202.900606,344.658055 197.130133,344.752451 191.338972,344.851561 L166.795608,345.298984 C156.321388,345.501783 145.199712,345.729326 135.645393,345.929938 L110.716,346.475 Z" id="Stroke-9" fill="#A2D249" fill-rule="nonzero"/><path d="M98.3689,429.0117 L98.3689,399.0117 L107.903426,399.02174 C121.044413,399.052236 130.333099,399.155484 142.730579,399.375794 L159.516672,399.683109 C172.308004,399.898104 182.150172,399.980406 197.960387,399.987232 L204.57056,399.993916 C222.609482,400.04733 233.192372,400.452374 250.021653,401.492455 L255.936844,401.859087 C272.042148,402.834352 282.229904,403.175563 300.890346,403.188326 L308.51744,403.182022 C324.736835,403.14642 334.739146,402.963614 350.43787,402.518241 L359.22301,402.271393 C374.198341,401.870032 384.64826,401.724532 402.700085,401.718873 L403.8149,401.7187 L403.8149,431.7187 L396.379853,431.727562 C381.016985,431.767174 371.186137,431.94473 356.316585,432.36259 L347.51345,432.611105 C332.348136,433.022962 321.955695,433.176589 304.208597,433.188005 L298.639845,433.185137 C279.61522,433.143375 268.905349,432.728416 251.179146,431.623168 L245.302302,431.260673 C230.66892,430.384706 220.821609,430.042145 204.49745,429.993798 L189.668619,429.975236 C176.067886,429.939366 166.522613,429.822063 152.97432,429.572036 L139.654187,429.326789 C127.712308,429.12361 118.425737,429.035138 104.701509,429.01586 L98.3689,429.0117 Z" id="Stroke-11" fill="#A2D249" fill-rule="nonzero"/><path d="M381.450416,491.64593 L381.918984,521.64227 L378.776335,521.69595 C361.782694,522.012881 352.275173,522.653887 336.629599,524.233365 L333.734206,524.528275 C315.772709,526.355395 305.266933,527.04766 284.934288,527.365266 L256.248601,527.790137 L211.624827,528.369881 L180.571226,528.833218 C167.769325,529.009252 158.891293,529.052494 147.450141,529.020098 L130.713656,528.952742 C120.279163,528.92305 112.036591,528.956954 100.88917,529.098957 L90.8179933,529.24327 L90.3494067,499.24693 L96.664259,499.152945 C111.999884,498.937621 121.647271,498.908822 136.254592,498.97291 L147.504592,499.020137 C159.098424,499.053082 167.990202,499.00742 181.1692,498.822003 L217.590062,498.28499 L259.025633,497.749016 C266.214433,497.648846 273.62112,497.538173 283.372211,497.386009 L287.608169,497.315249 C303.582696,497.01733 312.942262,496.43305 327.003015,495.052105 L335.526387,494.193944 C351.475175,492.612394 361.823454,491.971004 380.351022,491.66363 L381.450416,491.64593 Z" id="Stroke-13" fill="#A2D249" fill-rule="nonzero"/><path d="M71.0739,611.4648 L71.0739,581.4648 L74.3902839,581.469463 C92.7151367,581.522737 103.351306,582.03988 119.92292,583.395953 L125.828205,583.886176 C141.659332,585.181998 151.565899,585.663012 169.011384,585.713314 L173.342063,585.717541 L179.703305,585.704192 C193.813677,585.648481 203.198416,585.414934 216.300579,584.880024 L227.046881,584.424494 C242.685594,583.776944 253.132862,583.536393 271.197731,583.518847 L281.796278,583.509306 C294.240848,583.481791 303.087566,583.384515 314.259254,583.175569 L333.186201,582.795671 C345.980477,582.556514 355.804649,582.461374 371.252574,582.449982 L374.5709,582.4488 L374.5709,612.4488 L365.202423,612.459612 C350.039591,612.498221 340.142237,612.645236 324.303827,612.979952 L317.132076,613.126165 C302.849032,613.404299 292.659677,613.50912 275.634231,613.517278 L271.210088,613.518844 C253.616255,613.536001 243.546095,613.767122 228.310659,614.397855 L218.592977,614.811092 C203.892377,615.419798 193.778908,615.668875 177.613395,615.711147 L171.111675,615.717288 L167.792529,615.709234 C150.890759,615.641095 140.510478,615.157713 125.396109,613.949232 L115.609436,613.144812 C101.153455,611.987435 91.4565606,611.536447 75.3362058,611.472824 L71.0739,611.4648 Z" id="Stroke-15" fill="#A2D249" fill-rule="nonzero"/><path d="M358.145298,672.651027 L370.6712,672.6514 L370.6712,702.6514 L281.153751,702.630993 L259.054285,702.634499 C241.59767,702.657163 231.091064,702.776995 213.650527,703.072744 L204.876906,703.215064 C192.31087,703.407206 182.65716,703.493149 168.595444,703.51413 L154.368513,703.525821 C137.579169,703.560767 127.259339,703.743144 111.028954,704.188932 L103.070651,704.406457 C88.3368491,704.794236 77.9941947,704.953173 61.5825922,704.980153 L56.1262,704.9844 L56.1262,674.9844 L62.6353107,674.978173 C78.1168775,674.946499 88.0938912,674.790016 102.230605,674.418186 L114.962374,674.072893 C129.204239,673.702857 139.452977,673.550052 155.514958,673.523647 L171.67631,673.508248 C186.86414,673.473015 197.052377,673.349895 213.141873,673.077056 L222.391523,672.927487 C234.961148,672.736873 244.676663,672.653228 258.993125,672.634558 L358.145298,672.651027 Z" id="Stroke-17" fill="#A2D249" fill-rule="nonzero"/><path d="M551.674,98.7764 C551.674,98.7764 553.649,65.6784 553.883,56.8264 C554.548,31.6864 566.53,29.8584 569.931,51.7344 C573.733,76.1934 576.116,97.3554 576.116,97.3554 C576.116,97.3554 563.256,113.8924 551.674,98.7764" id="Fill-19" fill="#67AD15"/><path d="M628.2692,472.374 C626.5632,441.724 615.5962,282.095 615.5962,282.095 L609.0162,188.268 L524.0442,190.38 C524.0442,190.38 535.4832,402.124 545.6022,578.822 L638.0192,569.654 C634.1662,535.578 629.2742,490.425 628.2692,472.374" id="Fill-21" fill="#A2D249"/><path d="M588.6716,103.0449 C588.6716,103.0449 587.2046,85.6669 570.5106,85.6669 C556.8636,85.6669 545.0436,83.4739 539.3166,106.6259 C534.2886,126.9489 524.0446,190.3799 524.0446,190.3799 L566.5566,189.3229 L609.0166,188.2679 L588.6716,103.0449 Z" id="Fill-23" fill="#DDF77D"/><g id="Group-27" transform="translate(545.000000, 569.506000)"><mask id="planningpen-and-paper-mask-2" fill="#ffffff"><use xlink:href="#planningpen-and-paper-path-1" fill="#ffffff"/></mask><g id="Clip-26"/><path d="M53.4557,264.911 C53.4557,264.911 107.0717,267.835 107.7217,240.215 L97.8917,42.325 C97.8917,42.325 95.7087,23.933 93.0187,0.148 L0.6017,9.316 C7.5377,130.424 13.8517,235.068 15.4377,243.79 C19.3367,265.235 53.4557,264.911 53.4557,264.911" id="Fill-25" fill="#67AD15" mask="url(#planningpen-and-paper-mask-2)"/></g><path d="M616.3278,508.8242 C616.3278,508.8242 622.5018,623.2042 623.1518,638.1512 C623.8018,653.0982 630.3008,784.7002 630.3008,784.7002 C630.3008,784.7002 629.8128,794.9362 638.4238,795.4242 C647.0348,795.9112 655.3208,795.4242 655.3208,795.4242 C655.3208,795.4242 664.7448,795.5862 665.0688,780.9642 C665.3938,766.3412 659.8698,671.6202 659.8698,649.8492 C659.8698,628.0782 650.7718,514.9982 650.9338,514.5112 C651.0968,514.0232 649.3088,494.5262 637.2858,495.1772 C625.2638,495.8262 625.2638,496.3132 625.2638,496.3132 C625.2638,496.3132 615.7158,497.4582 616.3278,508.8242" id="Fill-28" fill="#DDF77D"/><g id="Group-32" transform="translate(176.000000, 0.506000)"><mask id="planningpen-and-paper-mask-4" fill="#ffffff"><use xlink:href="#planningpen-and-paper-path-3" fill="#ffffff"/></mask><g id="Clip-31"/><path d="M81.5876,50.2098 C81.3816,26.6578 120.9326,25.5148 120.905614,50.5458 C120.8786,75.7928 81.7966,74.1058 81.5876,50.2098 M188.9816,106.7498 C188.4936,92.6148 166.5606,94.5638 166.5606,94.5638 L147.1456,94.1428 C142.1276,94.0338 139.9896,87.7738 143.8546,84.5718 C151.7856,77.9988 157.6926,67.7898 158.7616,53.6218 C160.7116,27.7888 142.7256,0.4938 103.1966,0.4938 C70.0526,0.4938 50.2096,14.8048 44.8686,42.1778 C40.1366,66.4318 49.5236,79.8228 57.6366,86.6038 C60.3226,88.8488 58.8616,93.2308 55.3696,93.4768 C45.4306,94.1768 31.1776,95.1828 19.3606,96.0268 C-1.1104,97.4888 0.3246,112.1108 0.3246,112.1108 L0.3246,179.5668 C0.3246,186.9908 6.4556,192.9488 13.8766,192.7378 L176.2596,188.1238 C183.3596,187.9218 189.0216,182.1368 189.0616,175.0338 C189.1756,154.9138 189.3346,116.9908 188.9816,106.7498" id="Fill-30" fill="#70A0E6" mask="url(#planningpen-and-paper-mask-4)"/></g></g></g></g><g transform="translate(-28.000000, 174.000000) scale(1 1)" id="Master/Character/Standing"><g id="Master/Character/Standing" stroke="none" stroke-width="1" fill="none" fill-rule="evenodd"><g id="Standing/Lower Body" transform="translate(14.000000, 442.000000) scale(1 1)"><g id="Standing/Lower Body/Sstanding" stroke="none" stroke-width="1" fill="none" fill-rule="evenodd"><g id="Group-332" transform="translate(236.000000, -1.000000)"><g id="Group-126" transform="translate(0.000000, 0.142000)"><path d="M72.0978,172.4369 L35.7948,172.4369 C9.5208,172.4369 8.5178,190.2879 8.5178,190.2879 L10.6818,271.3909 C10.6818,271.3909 12.9308,287.5639 39.4058,287.5639 L75.7078,287.5639 C102.1828,287.5639 103.8888,268.5599 103.8888,268.5599 L103.928158,189.2869 C103.928158,189.2869 104.3898,172.4369 72.0978,172.4369" id="Fill-98" fill="#ef9e89"/><polygon id="Fill-100" fill="#F8FBF8" points="9.7379 236.017 103.9279 236.017 103.8879 268.56 10.3719 267.807"/><path d="M64.5915,242.2348 L9.7375,242.2348 L10.1225,250.2568 C10.1225,250.2568 55.2505,250.4588 63.6745,250.2568 C72.0975,250.0568 103.9285,250.3468 103.9285,250.3468 L103.9285,242.3848 C103.9285,242.3848 67.9165,242.2348 64.5915,242.2348" id="Fill-102" fill="#FE5C4F"/><path d="M126.7531,268.56 L103.8891,267.689 L61.9691,267.689 C61.9691,267.689 16.9911,267.306 10.3721,267.807 C8.3621,267.959 7.3131,268.61 6.9201,271.391 C6.9201,271.391 6.2101,285.107 8.7681,296.539 L46.8391,296.539 L122.4711,296.539 L162.5351,296.539 C162.5431,296.339 162.5551,296.144 162.5551,295.937 C162.5551,284.806 139.5391,273.975 126.7531,268.56" id="Fill-104" fill="#FE5C4F"/><path d="M122.4709,296.5385 L46.8389,296.5385 L8.7679,296.5385 C8.7679,296.5385 5.8129,302.8815 6.9899,307.2315 L47.0539,307.2315 L111.2079,307.2315 L151.2729,307.2315 C151.2729,307.2315 162.1319,307.0665 162.5349,296.5385 L122.4709,296.5385 Z" id="Fill-106" fill="#D5E1D5"/><path d="M110.0558,249.7562 C110.0558,249.7562 101.7828,254.8702 102.8348,264.6492 C103.8888,274.4262 116.5408,278.9392 123.8948,273.3732 C141.8798,259.7632 123.4438,242.2352 110.0558,249.7562" id="Fill-108" fill="#FF9786"/><path d="M126.151,281.8949 C125.678,281.8949 125.205,281.7199 124.836,281.3679 C124.076,280.6409 124.049,279.4369 124.776,278.6769 C128.102,275.1999 135.7,268.4719 136.022,268.1869 C136.809,267.4909 138.012,267.5639 138.708,268.3519 C139.405,269.1389 139.331,270.3409 138.544,271.0379 C138.466,271.1069 130.743,277.9449 127.526,281.3069 C127.152,281.6989 126.652,281.8949 126.151,281.8949" id="Fill-110" fill="#000"/><path d="M133.6945,284.9115 C133.2225,284.9115 132.7485,284.7355 132.3795,284.3835 C131.6205,283.6565 131.5925,282.4515 132.3195,281.6925 C135.6465,278.2155 143.2435,271.4885 143.5655,271.2035 C144.3525,270.5075 145.5555,270.5805 146.2525,271.3675 C146.9485,272.1545 146.8745,273.3575 146.0875,274.0545 C146.0095,274.1235 138.2865,280.9615 135.0705,284.3235 C134.6965,284.7145 134.1955,284.9115 133.6945,284.9115" id="Fill-112" fill="#000"/><path d="M140.4128,288.0736 C139.9398,288.0736 139.4658,287.8986 139.0978,287.5466 C138.3378,286.8196 138.3108,285.6146 139.0378,284.8546 C142.3638,281.3786 149.9618,274.6506 150.2838,274.3656 C151.0708,273.6696 152.2738,273.7436 152.9698,274.5306 C153.6658,275.3176 153.5928,276.5206 152.8058,277.2176 C152.7278,277.2856 145.0048,284.1246 141.7878,287.4856 C141.4138,287.8766 140.9138,288.0736 140.4128,288.0736" id="Fill-114" fill="#000"/><path d="M103.9274,300.5482 C103.4944,300.5482 103.0594,300.4012 102.7024,300.1012 C101.8984,299.4232 101.7954,298.2232 102.4724,297.4192 C102.6664,297.1852 107.2884,291.4682 103.1174,285.2662 C98.6294,278.5912 100.8634,272.4132 100.9604,272.1532 C101.3284,271.1692 102.4234,270.6692 103.4104,271.0382 C104.3904,271.4062 104.8894,272.4962 104.5294,273.4782 C104.4524,273.6912 102.9274,278.1612 106.2764,283.1422 C110.9104,290.0332 107.7194,297.0982 105.3844,299.8702 C105.0074,300.3182 104.4694,300.5482 103.9274,300.5482" id="Fill-116" fill="#000"/><path d="M106.7956,23.5502 L106.7956,23.5502 C106.7956,10.8472 96.4976,0.5492 83.7946,0.5492 L26.5036,0.5492 C13.8006,0.5492 3.5026,10.8472 3.5026,23.5502 C3.5026,23.5502 4.4566,174.5932 4.4566,184.7952 C4.4566,184.7952 4.1056,190.2872 8.5176,190.2872 L103.8376,190.2872 C103.8376,190.2872 109.7546,190.2872 109.7546,182.7662 C109.7546,175.3452 106.7956,23.5502 106.7956,23.5502" id="Fill-118" fill="#70A0E6"/><path d="M4.6588,34.9222 L27.6088,34.9222 C29.7318,34.9222 31.4508,36.6402 31.4458109,38.7632 C31.4258,47.1692 30.0098,66.4942 17.4608,67.0342 C5.0078,67.5692 1.6968,47.9422 0.8388,39.1172 C0.6198,36.8652 2.3968,34.9222 4.6588,34.9222" id="Fill-120" fill="#3164CF"/><path d="M66.0016,34.9222 L88.9516,34.9222 C91.0746,34.9222 92.7936,36.6402 92.7886109,38.7632 C92.7686,47.1692 91.3526,66.4942 78.8036,67.0342 C66.3506,67.5692 63.0396,47.9422 62.1816,39.1172 C61.9626,36.8652 63.7396,34.9222 66.0016,34.9222" id="Fill-122" fill="#3164CF"/><path d="M44.4865,306.7152 C43.4355,306.7152 42.5835,305.8632 42.5835,304.8122 C42.5835,304.1522 42.6145,303.8222 42.6445,303.4922 C42.6675,303.2502 42.6905,303.0092 42.6905,302.5262 C42.6905,301.9622 42.6875,301.6812 42.6845,301.4002 C42.6815,301.1092 42.6785,300.8182 42.6785,300.2362 C42.6785,299.7852 42.6535,299.5852 42.6215,299.3322 C42.5815,299.0242 42.5325,298.6402 42.5325,297.9452 C42.5325,297.1642 42.6485,296.7042 42.7785,296.2652 C42.8445,296.0392 42.8695,295.9552 42.8695,295.6562 C42.8695,294.9042 42.9485,294.4882 43.0125,294.1542 C43.0605,293.9082 43.0885,293.7602 43.0885,293.3692 C43.0885,293.1642 43.0795,293.1422 42.9965,292.9332 C42.8115,292.4712 42.6315,291.9482 42.6315,291.0822 L42.6285,288.7952 C42.6285,287.7992 42.9085,287.2012 43.0765,286.8432 C43.1645,286.6552 43.1645,286.6552 43.1645,286.5072 C43.1645,285.7522 43.2455,285.3352 43.3105,285.0002 C43.3585,284.7562 43.3865,284.6082 43.3865,284.2192 C43.3865,283.7002 43.3725,283.4412 43.3575,283.1812 C43.3405,282.8682 43.3225,282.5552 43.3225,281.9292 C43.3195,281.9092 43.2875,281.8662 43.2585,281.8212 C43.0205,281.4562 42.5785,280.7762 42.5785,279.6392 C42.5785,278.4672 43.0625,277.7762 43.3225,277.4032 C43.3385,277.3812 43.3555,277.3582 43.3715,277.3352 C43.3555,277.2562 43.3295,277.2182 43.3065,277.1782 C43.0795,276.7962 42.6995,276.1572 42.6995,275.0632 C42.6995,274.2652 42.8255,273.7962 42.9665,273.3482 C43.0355,273.1282 43.0585,273.0542 43.0585,272.7742 C43.0585,272.1052 43.0955,271.7492 43.1275,271.4362 C43.1515,271.1972 43.1755,270.9602 43.1755,270.4852 C43.1755,270.2032 43.1535,270.1282 43.0835,269.9072 C42.9435,269.4602 42.8175,268.9912 42.8175,268.1942 C42.8175,267.4042 42.9235,266.9512 42.9995,266.6202 C43.0535,266.3872 43.0835,266.2592 43.0835,265.9042 C43.0835,265.1162 43.1875,264.6632 43.2625,264.3342 C43.3155,264.1062 43.3445,263.9792 43.3455,263.6422 C43.3275,263.6142 43.3075,263.5882 43.2895,263.5622 C43.0285,263.1912 42.5445,262.4982 42.5445,261.3262 C42.5445,260.6232 42.5985,260.2342 42.6415,259.9212 C42.6765,259.6642 42.7025,259.4792 42.7025,259.0362 C42.7025,258.5912 42.6775,258.4032 42.6425,258.1452 C42.6005,257.8332 42.5485,257.4452 42.5485,256.7452 C42.5485,255.9702 42.6605,255.5142 42.7855,255.0772 C42.8485,254.8542 42.8755,254.7612 42.8755,254.4552 C42.8755,253.8082 42.9015,253.4842 42.9265,253.1592 C42.9465,252.9112 42.9665,252.6632 42.9665,252.1662 C42.9665,251.9822 42.9635,251.9732 42.8755,251.7662 C42.6745,251.2952 42.4795,250.7622 42.4795,249.8752 C42.4795,248.7672 42.8735,248.1222 43.1085,247.7372 C43.1365,247.6922 43.1675,247.6482 43.1915,247.5962 C43.1795,247.2202 43.1505,247.0882 43.0975,246.8512 C43.0255,246.5232 42.9255,246.0752 42.9255,245.2942 C42.9255,244.6982 42.9335,244.4002 42.9415,244.1022 C42.9475,243.8272 42.9545,243.5532 42.9545,243.0042 C42.9545,242.2292 43.0495,241.7822 43.1205,241.4572 C43.1715,241.2242 43.2005,241.0822 43.2005,240.7122 C43.2005,240.6422 43.1945,240.6132 43.1945,240.6132 C43.1765,240.5692 43.1475,240.5242 43.1215,240.4762 C42.9195,240.1032 42.5815,239.4802 42.5815,238.4252 C42.5815,237.5112 42.7815,236.9742 42.9135,236.6182 C42.9925,236.4062 43.0075,236.3682 43.0075,236.1392 C43.0075,235.9802 43.0075,235.9802 42.9175,235.7842 C42.6995,235.3052 42.4865,234.7612 42.4865,233.8522 C42.4865,232.7302 42.8955,232.0812 43.1395,231.6942 C43.1685,231.6482 43.1995,231.6052 43.2245,231.5542 C43.2075,231.1632 43.1775,231.0042 43.1335,230.7632 C43.0715,230.4312 42.9955,230.0182 42.9955,229.2712 C42.9955,228.6052 43.0305,228.2512 43.0625,227.9392 C43.0865,227.6992 43.1095,227.4612 43.1095,226.9832 C43.1095,226.3552 43.1285,226.0402 43.1465,225.7262 C43.1615,225.4682 43.1765,225.2102 43.1765,224.6942 C43.1765,224.1032 43.1815,223.8082 43.1875,223.5132 C43.1925,223.2352 43.1975,222.9572 43.1975,222.4012 C43.1875,222.3502 43.1565,222.3062 43.1285,222.2612 C42.8875,221.8742 42.4855,221.2272 42.4855,220.1112 C42.4855,219.2862 42.6115,218.8162 42.7045,218.4712 C42.7655,218.2442 42.7935,218.1402 42.7935,217.8192 C42.7935,217.2752 42.7845,217.0032 42.7765,216.7322 C42.7665,216.4312 42.7575,216.1292 42.7575,215.5272 C42.7575,214.7052 42.8825,214.2362 42.9735,213.8922 C43.0335,213.6632 43.0615,213.5592 43.0615,213.2342 C43.0615,213.0682 43.0615,213.0682 42.9705,212.8662 C42.7575,212.3882 42.5485,211.8462 42.5485,210.9422 C42.5485,210.0682 42.7335,209.5402 42.9235,209.0752 C43.0075,208.8692 43.0165,208.8482 43.0165,208.6492 C43.0165,208.2922 42.9865,208.1632 42.9325,207.9312 C42.8555,207.5992 42.7505,207.1462 42.7505,206.3542 C42.7505,205.7192 42.7715,205.4022 42.7915,205.0852 C42.8085,204.8302 42.8255,204.5752 42.8255,204.0652 C42.8255,203.1812 43.0005,202.6582 43.1165,202.3132 C43.1885,202.0992 43.2105,202.0342 43.2105,201.7732 C43.2105,201.4972 43.1865,201.4242 43.1165,201.2082 C43.0075,200.8662 42.8405,200.3502 42.8405,199.4782 C42.8405,198.7532 42.9045,198.3522 42.9565,198.0292 C42.9955,197.7832 43.0245,197.6052 43.0245,197.1822 C43.0245,196.3942 43.1435,195.9312 43.2765,195.4872 C43.3435,195.2652 43.3685,195.1812 43.3685,194.8862 C43.3685,194.7372 43.3685,194.7372 43.2785,194.5492 C43.1095,194.1902 42.8255,193.5882 42.8255,192.5872 C42.8255,192.1742 42.7975,192.0092 42.7545,191.7602 C42.6975,191.4322 42.6275,191.0252 42.6275,190.2872 C42.6275,189.3712 42.8275,188.8332 42.9595,188.4772 C43.0375,188.2672 43.0535,188.2232 43.0535,187.9902 C43.0535,187.3702 43.0685,187.0612 43.0845,186.7502 C43.0965,186.4862 43.1095,186.2232 43.1095,185.6942 C43.1095,185.0902 43.1195,184.7872 43.1295,184.4852 C43.1375,184.2132 43.1465,183.9422 43.1465,183.3992 C43.1465,182.9472 43.1205,182.7482 43.0875,182.4952 C43.0475,182.1852 42.9975,181.7982 42.9975,181.1012 C42.9975,180.8372 42.9755,180.7722 42.9035,180.5572 C42.7875,180.2102 42.6115,179.6872 42.6115,178.8012 C42.6115,178.3152 42.5885,178.0712 42.5665,177.8282 C42.5355,177.4972 42.5045,177.1652 42.5045,176.5022 C42.5045,175.8312 42.5405,175.4762 42.5725,175.1612 C42.5965,174.9222 42.6215,174.6832 42.6215,174.2042 C42.6215,173.6422 42.6175,173.3602 42.6145,173.0782 C42.6115,172.7852 42.6075,172.4922 42.6075,171.9062 C42.6075,171.2712 42.6285,170.9522 42.6495,170.6352 C42.6655,170.3782 42.6825,170.1222 42.6825,169.6102 C42.6825,168.8312 42.7965,168.3722 42.9235,167.9342 C42.9875,167.7102 43.0135,167.6172 43.0135,167.3122 C43.0135,166.5632 43.0905,166.1492 43.1525,165.8172 C43.1965,165.5732 43.2265,165.4132 43.2265,165.0122 C43.2265,164.5732 43.1995,164.3892 43.1625,164.1342 C43.1165,163.8182 43.0605,163.4242 43.0605,162.7122 C43.0605,162.0762 43.0805,161.7592 43.1015,161.4412 C43.1175,161.1842 43.1345,160.9272 43.1345,160.4142 C43.1345,160.0452 43.1055,159.9132 43.0525,159.6722 C42.9815,159.3452 42.8835,158.8972 42.8835,158.1162 C42.8835,157.2562 43.0575,156.7362 43.2365,156.2772 C43.3185,156.0672 43.3315,156.0342 43.3315,155.8182 C43.3315,155.4732 43.3025,155.3562 43.2445,155.1222 C43.1615,154.7852 43.0475,154.3222 43.0475,153.5172 C43.0475,153.2302 43.0225,153.1482 42.9545,152.9302 C42.8165,152.4822 42.6925,152.0142 42.6925,151.2182 C42.6925,150.4292 42.8125,149.9652 42.9455,149.5222 C43.0125,149.2982 43.0375,149.2142 43.0375,148.9192 C43.0375,148.4972 43.0085,148.3192 42.9685,148.0732 C42.9165,147.7502 42.8515,147.3482 42.8515,146.6202 C42.8515,145.7112 43.0625,145.1662 43.2785,144.6872 C43.3575,144.5132 43.3685,144.4882 43.3695,144.3792 C43.3535,144.3582 43.3365,144.3372 43.3195,144.3152 C43.0355,143.9362 42.5045,143.2322 42.5045,142.0212 C42.5045,141.3752 42.5285,141.0522 42.5525,140.7292 C42.5715,140.4772 42.5905,140.2252 42.5905,139.7212 C42.5905,139.0642 42.6185,138.7352 42.6475,138.4062 C42.6685,138.1602 42.6905,137.9132 42.6905,137.4202 C42.6905,136.6222 42.8155,136.1532 42.9545,135.7062 C43.0245,135.4832 43.0475,135.4082 43.0475,135.1232 C43.0475,134.8452 43.0245,134.7712 42.9545,134.5512 C42.8125,134.1012 42.6835,133.6302 42.6835,132.8292 C42.6835,132.0132 42.8045,131.5462 42.8925,131.2052 C42.9515,130.9792 42.9805,130.8652 42.9805,130.5322 C42.9805,130.0612 42.9545,129.8242 42.9285,129.5892 C42.8945,129.2712 42.8555,128.9102 42.8555,128.2332 C42.8555,127.3222 43.0685,126.7782 43.2865,126.2962 C43.3775,126.0972 43.3775,126.0972 43.3775,125.9342 C43.3765,125.9282 43.3435,125.8852 43.3145,125.8402 C43.0685,125.4722 42.6115,124.7862 42.6115,123.6362 C42.6115,122.7562 42.8005,122.2262 42.9945,121.7572 C43.0815,121.5502 43.0885,121.5322 43.0885,121.3372 C43.0885,120.7212 43.1015,120.4132 43.1145,120.1052 C43.1255,119.8372 43.1375,119.5692 43.1375,119.0352 C43.1375,118.5482 43.1145,118.3042 43.0925,118.0612 C43.0625,117.7292 43.0315,117.3992 43.0315,116.7362 C43.0315,116.2222 43.0155,115.9642 42.9985,115.7062 C42.9785,115.3892 42.9585,115.0702 42.9585,114.4352 C42.9585,114.2642 42.9585,114.2642 42.8665,114.0572 C42.6545,113.5792 42.4465,113.0372 42.4465,112.1342 C42.4465,111.0532 42.8095,110.4182 43.0265,110.0382 C43.0535,109.9912 43.0845,109.9452 43.1065,109.8922 C43.1045,109.3862 43.0785,109.1982 43.0435,108.9402 C42.9995,108.6262 42.9465,108.2362 42.9465,107.5302 C42.9465,106.8372 42.9935,106.4532 43.0315,106.1462 C43.0635,105.8892 43.0885,105.6862 43.0885,105.2282 C43.0885,105.1012 43.0885,105.1012 43.0015,104.9262 C42.8195,104.5612 42.5135,103.9492 42.5135,102.9242 C42.5135,102.3902 42.5025,102.1222 42.4915,101.8562 C42.4785,101.5482 42.4655,101.2402 42.4655,100.6262 C42.4655,99.5352 42.8395,98.8962 43.0625,98.5142 C43.0895,98.4682 43.1205,98.4232 43.1435,98.3692 C43.1385,97.6872 43.1595,97.3672 43.1805,97.0472 C43.1975,96.7912 43.2145,96.5342 43.2145,96.0202 C43.2145,95.5162 43.1945,95.2642 43.1755,95.0122 C43.1525,94.6882 43.1275,94.3632 43.1275,93.7162 C43.1275,92.9892 43.1915,92.5882 43.2415,92.2662 C43.2815,92.0172 43.3095,91.8372 43.3095,91.4112 C43.2975,91.3512 43.2665,91.3062 43.2375,91.2602 C42.9965,90.8712 42.5935,90.2222 42.5935,89.1032 C42.5935,88.2332 42.7735,87.7082 42.9575,87.2442 C43.0415,87.0332 43.0525,87.0062 43.0525,86.7942 C43.0525,85.7422 43.9045,84.8912 44.9555,84.8912 C46.0065,84.8912 46.8585,85.7422 46.8585,86.7942 C46.8585,87.6622 46.6785,88.1882 46.4945,88.6512 C46.4105,88.8622 46.3995,88.8902 46.3995,89.1032 C46.4115,89.1622 46.4425,89.2072 46.4715,89.2532 C46.7125,89.6422 47.1155,90.2912 47.1155,91.4112 C47.1155,92.1372 47.0525,92.5382 47.0015,92.8612 C46.9615,93.1102 46.9335,93.2892 46.9335,93.7162 C46.9335,94.2212 46.9525,94.4732 46.9715,94.7252 C46.9955,95.0492 47.0205,95.3732 47.0205,96.0202 C47.0205,96.6582 46.9995,96.9782 46.9785,97.2972 C46.9615,97.5542 46.9445,97.8112 46.9445,98.3242 C46.9445,99.4152 46.5705,100.0542 46.3475,100.4362 C46.3205,100.4832 46.2895,100.5282 46.2665,100.5812 C46.2715,101.1602 46.2825,101.4282 46.2945,101.6952 C46.3075,102.0032 46.3195,102.3102 46.3195,102.9242 C46.3195,103.0522 46.3195,103.0522 46.4075,103.2272 C46.5895,103.5922 46.8945,104.2032 46.8945,105.2282 C46.8945,105.9202 46.8475,106.3042 46.8095,106.6122 C46.7775,106.8692 46.7525,107.0712 46.7525,107.5302 C46.7525,107.9762 46.7785,108.1622 46.8145,108.4222 C46.8575,108.7362 46.9105,109.1262 46.9105,109.8312 C46.9105,110.9122 46.5475,111.5482 46.3305,111.9272 C46.3035,111.9752 46.2735,112.0202 46.2505,112.0742 C46.2525,112.3052 46.2525,112.3052 46.3445,112.5112 C46.5565,112.9882 46.7645,113.5302 46.7645,114.4352 C46.7645,114.9492 46.7805,115.2072 46.7975,115.4642 C46.8175,115.7822 46.8375,116.1002 46.8375,116.7362 C46.8375,117.2242 46.8605,117.4682 46.8825,117.7112 C46.9125,118.0422 46.9435,118.3732 46.9435,119.0352 C46.9435,119.6522 46.9305,119.9592 46.9175,120.2682 C46.9055,120.5352 46.8945,120.8022 46.8945,121.3372 C46.8945,122.2172 46.7045,122.7472 46.5105,123.2152 C46.4245,123.4232 46.4175,123.4412 46.4175,123.6362 C46.4185,123.6412 46.4515,123.6842 46.4805,123.7292 C46.7265,124.0972 47.1835,124.7822 47.1835,125.9342 C47.1835,126.8442 46.9705,127.3892 46.7525,127.8692 C46.6615,128.0692 46.6615,128.0692 46.6615,128.2332 C46.6615,128.7052 46.6875,128.9412 46.7125,129.1772 C46.7475,129.4942 46.7865,129.8552 46.7865,130.5322 C46.7865,131.3492 46.6655,131.8162 46.5775,132.1562 C46.5195,132.3832 46.4895,132.4962 46.4895,132.8292 C46.4895,133.1092 46.5135,133.1822 46.5835,133.4012 C46.7255,133.8512 46.8545,134.3212 46.8545,135.1232 C46.8545,135.9212 46.7285,136.3902 46.5895,136.8382 C46.5195,137.0612 46.4965,137.1362 46.4965,137.4202 C46.4965,138.0772 46.4675,138.4052 46.4395,138.7352 C46.4185,138.9812 46.3965,139.2282 46.3965,139.7212 C46.3965,140.3662 46.3725,140.6902 46.3485,141.0122 C46.3305,141.2542 46.3125,141.4962 46.3105,141.9602 C46.3275,141.9822 46.3445,142.0032 46.3615,142.0262 C46.6455,142.4032 47.1765,143.1092 47.1765,144.3192 C47.1765,145.2282 46.9655,145.7732 46.7485,146.2522 C46.6575,146.4542 46.6575,146.4542 46.6575,146.6202 C46.6575,147.0412 46.6865,147.2192 46.7265,147.4652 C46.7785,147.7882 46.8435,148.1922 46.8435,148.9192 C46.8435,149.7082 46.7235,150.1722 46.5905,150.6162 C46.5235,150.8392 46.4985,150.9232 46.4985,151.2182 C46.4985,151.5052 46.5235,151.5872 46.5915,151.8052 C46.7295,152.2522 46.8545,152.7202 46.8545,153.5172 C46.8545,153.8612 46.8825,153.9782 46.9405,154.2122 C47.0235,154.5492 47.1375,155.0112 47.1375,155.8182 C47.1375,156.6782 46.9625,157.1982 46.7835,157.6572 C46.7015,157.8672 46.6895,157.9002 46.6895,158.1162 C46.6895,158.4862 46.7185,158.6172 46.7715,158.8592 C46.8425,159.1862 46.9405,159.6342 46.9405,160.4142 C46.9405,161.0512 46.9205,161.3682 46.8995,161.6862 C46.8825,161.9442 46.8665,162.1992 46.8665,162.7122 C46.8665,163.1522 46.8925,163.3352 46.9305,163.5912 C46.9755,163.9072 47.0325,164.3012 47.0325,165.0122 C47.0325,165.7612 46.9565,166.1752 46.8945,166.5082 C46.8495,166.7502 46.8195,166.9112 46.8195,167.3122 C46.8195,168.0902 46.7065,168.5492 46.5795,168.9882 C46.5155,169.2122 46.4885,169.3042 46.4885,169.6102 C46.4885,170.2462 46.4675,170.5642 46.4475,170.8822 C46.4305,171.1392 46.4135,171.3952 46.4135,171.9062 C46.4135,172.4712 46.4175,172.7522 46.4205,173.0332 C46.4235,173.3262 46.4275,173.6192 46.4275,174.2042 C46.4275,174.8752 46.3915,175.2322 46.3595,175.5462 C46.3355,175.7842 46.3105,176.0242 46.3105,176.5022 C46.3105,176.9882 46.3335,177.2332 46.3555,177.4762 C46.3865,177.8072 46.4175,178.1392 46.4175,178.8012 C46.4175,179.0662 46.4395,179.1312 46.5115,179.3472 C46.6275,179.6932 46.8035,180.2162 46.8035,181.1012 C46.8035,181.5522 46.8295,181.7512 46.8625,182.0042 C46.9025,182.3142 46.9525,182.7002 46.9525,183.3992 C46.9525,184.0032 46.9435,184.3062 46.9335,184.6092 C46.9245,184.8802 46.9155,185.1522 46.9155,185.6942 C46.9155,186.3152 46.9015,186.6252 46.8855,186.9352 C46.8735,187.1992 46.8605,187.4632 46.8605,187.9902 C46.8605,188.9062 46.6605,189.4442 46.5285,189.8012 C46.4505,190.0112 46.4335,190.0552 46.4335,190.2872 C46.4335,190.6992 46.4625,190.8642 46.5055,191.1132 C46.5615,191.4422 46.6325,191.8492 46.6325,192.5872 C46.6325,192.7362 46.6325,192.7362 46.7205,192.9252 C46.8905,193.2832 47.1745,193.8852 47.1745,194.8862 C47.1745,195.6742 47.0555,196.1382 46.9225,196.5812 C46.8555,196.8042 46.8305,196.8872 46.8305,197.1822 C46.8305,197.9072 46.7665,198.3082 46.7145,198.6312 C46.6745,198.8772 46.6465,199.0552 46.6465,199.4782 C46.6465,199.7522 46.6705,199.8252 46.7395,200.0412 C46.8495,200.3832 47.0165,200.9002 47.0165,201.7732 C47.0165,202.6562 46.8405,203.1792 46.7245,203.5242 C46.6535,203.7382 46.6315,203.8032 46.6315,204.0652 C46.6315,204.6992 46.6105,205.0162 46.5905,205.3332 C46.5735,205.5882 46.5565,205.8432 46.5565,206.3542 C46.5565,206.7102 46.5865,206.8392 46.6405,207.0712 C46.7175,207.4032 46.8225,207.8572 46.8225,208.6492 C46.8225,209.5232 46.6365,210.0502 46.4465,210.5152 C46.3615,210.7252 46.3545,210.7412 46.3545,210.9422 C46.3545,211.1072 46.3545,211.1072 46.4445,211.3092 C46.6585,211.7872 46.8675,212.3292 46.8675,213.2342 C46.8675,214.0552 46.7425,214.5262 46.6525,214.8682 C46.5915,215.0972 46.5635,215.2012 46.5635,215.5272 C46.5635,216.0692 46.5715,216.3422 46.5805,216.6122 C46.5905,216.9142 46.5995,217.2152 46.5995,217.8192 C46.5995,218.6422 46.4725,219.1132 46.3805,219.4572 C46.3195,219.6852 46.2915,219.7882 46.2915,220.1112 C46.3015,220.1622 46.3325,220.2062 46.3605,220.2512 C46.6015,220.6382 47.0035,221.2842 47.0035,222.4012 C47.0035,222.9902 46.9985,223.2852 46.9925,223.5812 C46.9885,223.8602 46.9835,224.1372 46.9835,224.6942 C46.9835,225.3212 46.9645,225.6352 46.9455,225.9502 C46.9315,226.2082 46.9155,226.4662 46.9155,226.9832 C46.9155,227.6502 46.8805,228.0032 46.8495,228.3162 C46.8255,228.5552 46.8015,228.7932 46.8015,229.2712 C46.8015,229.6692 46.8315,229.8282 46.8765,230.0702 C46.9375,230.4022 47.0135,230.8152 47.0135,231.5622 C47.0135,232.6842 46.6055,233.3332 46.3605,233.7212 C46.3325,233.7662 46.3005,233.8102 46.2765,233.8612 C46.2925,234.0112 46.2925,234.0112 46.3825,234.2072 C46.6005,234.6872 46.8135,235.2312 46.8135,236.1392 C46.8135,237.0532 46.6135,237.5902 46.4815,237.9452 C46.4025,238.1572 46.3875,238.1952 46.3875,238.4252 C46.3875,238.4952 46.3945,238.5242 46.3945,238.5252 C46.4125,238.5692 46.4425,238.6142 46.4675,238.6632 C46.6695,239.0352 47.0075,239.6582 47.0075,240.7122 C47.0075,241.4872 46.9115,241.9342 46.8415,242.2592 C46.7905,242.4922 46.7605,242.6342 46.7605,243.0042 C46.7605,243.6002 46.7535,243.8992 46.7455,244.1962 C46.7395,244.4712 46.7325,244.7452 46.7325,245.2942 C46.7325,245.6582 46.7605,245.7902 46.8145,246.0282 C46.8865,246.3562 46.9855,246.8042 46.9855,247.5842 C46.9855,248.6932 46.5915,249.3372 46.3555,249.7222 C46.3275,249.7682 46.2975,249.8122 46.2735,249.8632 C46.2855,250.0602 46.2885,250.0682 46.3765,250.2762 C46.5765,250.7462 46.7725,251.2792 46.7725,252.1662 C46.7725,252.8142 46.7475,253.1382 46.7205,253.4612 C46.7015,253.7102 46.6815,253.9582 46.6815,254.4552 C46.6815,255.2312 46.5695,255.6862 46.4445,256.1232 C46.3815,256.3472 46.3545,256.4402 46.3545,256.7452 C46.3545,257.1912 46.3795,257.3782 46.4145,257.6372 C46.4565,257.9482 46.5085,258.3362 46.5085,259.0362 C46.5085,259.7392 46.4545,260.1292 46.4125,260.4422 C46.3775,260.6942 46.3515,260.8772 46.3505,261.3002 C46.3695,261.3262 46.3885,261.3532 46.4075,261.3792 C46.6675,261.7512 47.1525,262.4432 47.1525,263.6152 C47.1525,264.4032 47.0485,264.8562 46.9725,265.1862 C46.9195,265.4192 46.8895,265.5482 46.8895,265.9042 C46.8895,266.6942 46.7845,267.1482 46.7075,267.4802 C46.6535,267.7112 46.6245,267.8392 46.6245,268.1942 C46.6245,268.4772 46.6475,268.5512 46.7165,268.7722 C46.8565,269.2192 46.9825,269.6882 46.9825,270.4852 C46.9825,271.1542 46.9455,271.5102 46.9135,271.8232 C46.8895,272.0622 46.8645,272.2992 46.8645,272.7742 C46.8645,273.5712 46.7385,274.0392 46.5975,274.4882 C46.5285,274.7082 46.5055,274.7812 46.5055,275.0632 C46.5205,275.1442 46.5505,275.1892 46.5785,275.2352 C46.8055,275.6162 47.1855,276.2552 47.1855,277.3502 C47.1855,278.5222 46.7005,279.2142 46.4415,279.5852 C46.4255,279.6082 46.4095,279.6292 46.3945,279.6522 C46.4055,279.6842 46.4285,279.7152 46.4495,279.7472 C46.6875,280.1122 47.1295,280.7922 47.1295,281.9292 C47.1295,282.4482 47.1435,282.7082 47.1585,282.9682 C47.1755,283.2802 47.1935,283.5942 47.1935,284.2192 C47.1935,284.9752 47.1115,285.3922 47.0465,285.7272 C46.9995,285.9712 46.9705,286.1192 46.9705,286.5072 C46.9705,287.5032 46.6905,288.1022 46.5225,288.4592 C46.4345,288.6472 46.4345,288.6472 46.4345,288.7952 L46.4375,291.0822 C46.4375,291.2872 46.4455,291.3092 46.5295,291.5192 C46.7145,291.9802 46.8945,292.5032 46.8945,293.3692 C46.8945,294.1212 46.8155,294.5372 46.7515,294.8712 C46.7035,295.1172 46.6755,295.2662 46.6755,295.6562 C46.6755,296.4392 46.5595,296.8992 46.4295,297.3392 C46.3635,297.5642 46.3385,297.6482 46.3385,297.9452 C46.3385,298.3982 46.3645,298.5972 46.3965,298.8502 C46.4355,299.1582 46.4855,299.5432 46.4855,300.2362 C46.4855,300.8002 46.4875,301.0802 46.4905,301.3622 C46.4935,301.6532 46.4965,301.9442 46.4965,302.5262 C46.4965,303.1852 46.4655,303.5152 46.4345,303.8452 C46.4125,304.0872 46.3895,304.3282 46.3895,304.8122 C46.3895,305.8632 45.5375,306.7152 44.4865,306.7152" id="Fill-124" fill="#000"/></g></g></g></g><g id="Upper Body" transform="translate(-1.000000, 0.000000) scale(1 1)"><g id="Upper Body/Scientist" stroke="none" stroke-width="1" fill="none" fill-rule="evenodd"><g id="Group-691" transform="translate(202.500000, 272.500000)"><g id="Group-508" transform="translate(0.000000, 0.095000)"><path d="M88.4009,29.9342 C88.4009,29.9342 -11.6231,99.6842 1.9399,159.4312 C9.2159,191.4822 33.1019,194.6812 33.1019,194.6812 L88.4009,29.9342 Z" id="Fill-454" fill="#D5E1D5"/><path d="M44.3399,139.7135 C44.3399,139.7135 12.2059,140.0225 9.8999,168.1835 L39.0989,165.5065 L44.3399,139.7135 Z" id="Fill-456" fill="#FEF864"/><path d="M42.8428,147.1959 C42.8428,147.1959 15.1448,142.5239 8.6348,172.8829 C2.0128,203.7679 30.2768,208.6559 30.2768,208.6559 L42.8428,147.1959 Z" id="Fill-458" fill="#ef9e89"/><path d="M32.4244,198.1764 C32.2964,198.1764 32.1664,198.1594 32.0364,198.1254 C28.7364,197.2454 13.8514,192.9854 13.2184,192.8044 C12.4224,192.5754 11.9614,191.7454 12.1894,190.9494 C12.4174,190.1534 13.2414,189.6924 14.0444,189.9204 C14.1984,189.9644 29.5354,194.3544 32.8104,195.2274 C33.6104,195.4404 34.0864,196.2624 33.8724,197.0634 C33.6944,197.7344 33.0874,198.1764 32.4244,198.1764" id="Fill-460" fill="#000"/><path d="M36.1529,185.5983 C36.0549,185.5983 35.9569,185.5883 35.8569,185.5693 C30.6109,184.5203 13.9479,180.0363 13.2419,179.8463 C12.4409,179.6303 11.9669,178.8073 12.1829,178.0073 C12.3979,177.2073 13.2209,176.7343 14.0209,176.9503 C14.1939,176.9953 31.2959,181.5983 36.4449,182.6273 C37.2569,182.7893 37.7839,183.5793 37.6219,184.3923 C37.4789,185.1053 36.8529,185.5983 36.1529,185.5983" id="Fill-462" fill="#000"/><path d="M37.9498,172.6344 C37.8388,172.6344 37.7258,172.6214 37.6128,172.5964 C33.3048,171.6054 15.7878,167.9864 15.6108,167.9494 C14.8008,167.7814 14.2778,166.9884 14.4458,166.1774 C14.6138,165.3654 15.4038,164.8474 16.2188,165.0114 C16.3948,165.0484 33.9448,168.6744 38.2848,169.6724 C39.0928,169.8584 39.5958,170.6624 39.4108,171.4704 C39.2508,172.1644 38.6338,172.6344 37.9498,172.6344" id="Fill-464" fill="#000"/><path d="M40.4859,160.2281 C40.3789,160.2281 40.2689,160.2161 40.1599,160.1921 L35.8049,159.2211 C30.8039,158.1041 25.1349,156.8381 23.7319,156.5841 C22.9169,156.4381 22.3759,155.6581 22.5219,154.8421 C22.6699,154.0271 23.4449,153.4911 24.2649,153.6321 C25.7289,153.8971 31.1839,155.1151 36.4589,156.2931 L40.8099,157.2631 C41.6189,157.4431 42.1289,158.2451 41.9489,159.0531 C41.7939,159.7521 41.1739,160.2281 40.4859,160.2281" id="Fill-466" fill="#000"/><path d="M225.0865,68.861 L213.9595,66.424 C213.9595,66.424 205.2635,64.18 203.1565,71.442 C200.6415,80.116 209.4005,82.479 209.4005,82.479 L223.5745,85.904 L224.0685,75.518 C224.0685,75.518 224.0485,71.955 225.0865,68.861" id="Fill-468" fill="#3164CF"/><path d="M235.8672,82.5905 C235.8672,82.5905 239.4922,77.2475 242.9442,72.7715 L234.7032,70.9665 C235.9472,76.1785 235.8672,82.5905 235.8672,82.5905" id="Fill-470" fill="#3164CF"/><path d="M247.397,91.7408 C247.397,91.7408 247.407,91.7118 247.423,91.6678 L247.508,91.6878 C247.436,91.7208 247.397,91.7408 247.397,91.7408 M248.425,91.9098 L248.424,91.9098 C248.731,91.0628 250.963,84.3738 253.674,80.1668 C255.394,77.4968 255.899,76.7578 256.636,75.7688 C261.367,69.4318 266.351,62.6348 263.888,59.6598 C259.834,54.7628 252.447,62.1228 247.531,67.4738 C246.481,68.6168 244.676,70.5258 242.944,72.7708 C239.492,77.2478 235.867,82.5908 235.867,82.5908 C235.867,82.5908 235.947,76.1778 234.703,70.9668 C233.851,67.3968 232.378,64.3898 229.834,64.3898 C227.302,64.3898 225.883,66.4878 225.086,68.8608 C224.049,71.9548 224.069,75.5178 224.069,75.5178 L223.574,85.9038 L222.862,100.8568 L236.299,138.3958 L260.402,123.3818 C272.889,114.4738 273.965,104.3188 271.109,97.3918 L249.377,92.1398 C249.306,92.1738 248.425,91.9098 248.425,91.9098" id="Fill-472" fill="#ef9e89"/><path d="M247.397,91.7408 C247.397,91.7408 247.436,91.7208 247.508,91.6878 L247.423,91.6678 C247.407,91.7118 247.397,91.7408 247.397,91.7408" id="Fill-474" fill="#ef9e89"/><path d="M249.377,92.1403 L271.109,97.3923 L249.377,92.1403 Z" id="Fill-476" fill="#ef9e89"/><path d="M248.9029,102.3375 C248.3909,102.3375 247.8929,102.0755 247.6129,101.6055 C247.1879,100.8935 247.4219,99.9735 248.1329,99.5485 C248.4799,99.3425 256.7149,94.4565 263.8499,92.1815 C264.6459,91.9285 265.4839,92.3655 265.7349,93.1545 C265.9869,93.9435 265.5509,94.7875 264.7619,95.0395 C257.9589,97.2085 249.7509,102.0765 249.6689,102.1255 C249.4279,102.2695 249.1639,102.3375 248.9029,102.3375" id="Fill-478" fill="#000"/><path d="M253.8795,113.2946 C253.3905,113.2946 252.9105,113.0556 252.6225,112.6146 C252.1695,111.9216 252.3645,110.9916 253.0585,110.5386 C253.5435,110.2226 265.0235,102.7476 271.7365,100.2526 C272.5095,99.9626 273.3765,100.3576 273.6655,101.1356 C273.9535,101.9116 273.5585,102.7746 272.7815,103.0646 C266.3795,105.4436 254.8155,112.9756 254.6985,113.0506 C254.4455,113.2166 254.1605,113.2946 253.8795,113.2946" id="Fill-480" fill="#000"/><path d="M281.191,81.1461 L256.636,75.7691 C255.899,76.7571 255.394,77.4971 253.674,80.1671 C250.963,84.3741 248.731,91.0631 248.424,91.9101 L248.425,91.9101 L249.377,92.1401 L271.109,97.3921 L277.333,98.8961 C277.848,99.0211 278.37,99.1141 278.893,99.1921 C276.681,90.5841 279.147,84.4341 281.191,81.1461" id="Fill-482" fill="#3164CF"/><path d="M284.3174,99.1696 L295.7184,97.3416 C296.5654,97.2056 297.2564,96.5936 297.4934,95.7706 L298.1184,93.5996 C298.3774,92.7006 298.0424,91.7356 297.2814,91.1906 L286.3144,83.3316 C284.9034,82.3206 283.3024,81.6076 281.6074,81.2366 L281.1914,81.1466 C279.1464,84.4346 276.6804,90.5836 278.8924,99.1916 C280.6894,99.4596 282.5184,99.4576 284.3174,99.1696" id="Fill-484" fill="#FEF864"/><path d="M296.5626,91.6647 C295.7706,91.5617 294.8246,91.5107 294.1606,93.7607 C293.4956,96.0097 296.0006,96.6227 296.0006,96.6227 L300.5076,97.7467 C300.5076,97.7467 302.1856,98.3037 302.7476,97.0537 C303.3106,95.8047 304.0226,93.6357 302.5406,93.1757 C301.0586,92.7157 298.0846,91.8607 296.5626,91.6647" id="Fill-486" fill="#000"/><path d="M63.3399,46.7877 L21.5539,246.8657 C20.8709,250.2077 23.4239,253.3357 26.8349,253.3357 L195.0019,253.3357 C198.2529,253.3357 200.7639,250.4787 200.3479,247.2547 L165.2179,29.9337 L83.9879,29.9337 C73.9759,29.9337 65.3449,36.9787 63.3399,46.7877" id="Fill-488" fill="#F8FBF8"/><path d="M88.4009,29.9342 C88.4009,29.9342 122.6519,48.0302 135.2889,49.6932 C147.9259,51.3562 165.8829,51.7442 165.2179,29.9342 L88.4009,29.9342 Z" id="Fill-490" fill="#D5E1D5"/><path d="M144.9835,72.8092 L170.1795,120.2212 C170.5725,120.9592 171.4605,121.2812 172.2345,120.9642 L207.4505,106.5572 L226.3675,159.4062 C227.5025,162.5752 225.9255,166.0752 222.7995,167.3252 L173.5315,187.0332 C173.5315,187.0332 139.6125,198.3382 121.9875,164.0872 C104.3625,129.8352 88.4005,98.2442 88.4005,98.2442 C88.4005,98.2442 73.0575,64.3562 102.3675,56.5572 C136.2865,47.5322 144.9835,72.8092 144.9835,72.8092" id="Fill-492" fill="#F8FBF8"/><path d="M192.3199,162.0084 C193.3829,167.0114 201.3769,166.4974 201.381904,161.4264 C201.3889,154.0284 190.9069,155.3584 192.3199,162.0084" id="Fill-494" fill="#D5E1D5"/><path d="M80.7525,253.3356 L96.4945,204.8506 C97.0225,203.2256 98.5365,202.1246 100.2445,202.1246 L155.9525,202.1246 C157.5805,202.1246 158.8995,203.4436 158.8995,205.0716 L158.8995,253.3356 L80.7525,253.3356 Z" id="Fill-496" fill="#D5E1D5"/><path d="M207.4507,106.5573 L223.1527,100.4263 L239.5737,146.3013 C240.2957,148.3183 239.3137,150.5473 237.3387,151.3753 L225.3007,156.4243 L207.4507,106.5573 Z" id="Fill-498" fill="#FEF864"/><path d="M159.3912,190.2731 C158.6912,190.2731 158.0942,190.0441 157.6142,189.8611 C157.3832,189.7731 157.0962,189.6641 156.9682,189.6581 C156.8422,189.6561 156.5342,189.7471 156.2902,189.8231 C155.7982,189.9771 155.1862,190.1691 154.4952,190.1061 C154.2342,190.0831 153.9162,190.1051 153.5812,190.1271 C153.1092,190.1611 152.5732,190.2001 152.0092,190.1191 C151.2102,190.0051 150.6262,189.5661 150.1572,189.2121 C150.0052,189.0981 149.7762,188.9251 149.6852,188.8911 C149.6202,188.8911 149.3132,188.9611 149.1092,189.0091 C148.5632,189.1341 147.8862,189.2901 147.1532,189.1021 C146.5762,188.9541 146.0762,188.7111 145.6342,188.4981 C145.3482,188.3591 145.0782,188.2281 144.8482,188.1541 C144.1672,187.9351 143.6642,187.5221 143.2592,187.1901 C143.0722,187.0361 142.8372,186.8441 142.7192,186.7971 C142.5892,186.7471 142.2732,186.7351 142.0182,186.7261 C141.4952,186.7081 140.8462,186.6851 140.2102,186.3851 C139.6282,186.1111 139.1012,185.8061 138.5912,185.5121 L138.0252,185.1881 C137.3892,184.8341 136.9772,184.3191 136.6452,183.9061 C136.4952,183.7191 136.3082,183.4871 136.2072,183.4211 C136.0402,183.3121 135.7632,183.2191 135.4702,183.1211 C134.9842,182.9581 134.4322,182.7731 133.9192,182.3811 C133.4162,181.9981 133.0512,181.5571 132.7282,181.1691 C132.5372,180.9401 132.3582,180.7231 132.1952,180.5791 C131.9562,180.3671 131.7042,180.1791 131.4612,179.9971 C131.0652,179.6981 130.6552,179.3901 130.2792,179.0001 C130.0862,178.8001 129.8272,178.6101 129.5522,178.4081 C129.1622,178.1221 128.7202,177.7961 128.3592,177.3551 C127.8192,176.6961 127.6382,175.9461 127.5072,175.3991 C127.4662,175.2311 127.4112,175.0011 127.3752,174.9271 C127.1132,174.5441 126.9452,174.3161 126.8232,174.1511 C126.5372,173.7641 126.4182,173.5911 126.0352,172.8361 C125.9512,172.6691 125.9422,172.6651 125.7122,172.5211 C125.3402,172.2891 124.7782,171.9371 124.3122,171.0481 C123.8542,170.1701 123.8712,169.5241 123.8832,169.0951 C123.8902,168.8331 123.8912,168.7991 123.7942,168.6141 C123.4992,168.0511 123.3662,167.7631 123.2322,167.4741 C123.1142,167.2201 122.9952,166.9641 122.7362,166.4671 C122.4262,165.8771 122.2992,165.5661 122.1722,165.2541 C122.0722,165.0091 121.9722,164.7641 121.7272,164.2971 C121.6742,164.1971 121.6742,164.1971 121.4492,164.0841 C121.0392,163.8781 120.3562,163.5371 119.8542,162.5781 C119.4942,161.8881 119.3882,161.4601 119.3032,161.1161 C119.2412,160.8621 119.2002,160.6951 119.0062,160.3261 C118.7472,159.8321 118.6062,159.5911 118.4632,159.3511 C118.3012,159.0781 118.1392,158.8031 117.8452,158.2411 C117.5132,157.6071 117.3912,157.2431 117.2832,156.9211 C117.1962,156.6641 117.1272,156.4601 116.9062,156.0361 C116.6252,155.4991 116.4882,155.2281 116.3512,154.9591 C116.2182,154.6961 116.0852,154.4331 115.8122,153.9111 C115.3952,153.1141 115.3472,152.5441 115.3152,152.1671 C115.2932,151.9101 115.2862,151.8231 115.1502,151.5621 C115.0902,151.4471 115.0902,151.4471 114.8622,151.3271 C114.4662,151.1191 113.8042,150.7711 113.3112,149.8271 C112.9672,149.1701 112.8482,148.7711 112.7512,148.4511 C112.6742,148.1921 112.6192,148.0061 112.4092,147.6041 C111.9762,146.7771 111.9522,146.1771 111.9362,145.7811 C111.9252,145.5261 111.9222,145.4571 111.8022,145.2251 C111.6522,144.9391 111.5722,144.8681 111.3792,144.6951 C111.0932,144.4391 110.7032,144.0881 110.3002,143.3191 C110.0422,142.8261 109.9002,142.5861 109.7572,142.3471 C109.5942,142.0721 109.4312,141.7971 109.1352,141.2321 C108.8232,140.6341 108.6902,140.3001 108.5732,140.0051 C108.4762,139.7631 108.3792,139.5211 108.1392,139.0601 C107.9862,138.7681 107.9002,138.6901 107.7132,138.5191 C107.4322,138.2631 107.0472,137.9131 106.6482,137.1491 C106.1942,136.2811 106.2062,135.6411 106.2142,135.2171 C106.2192,134.9541 106.2202,134.9201 106.1212,134.7321 C106.0042,134.5081 105.9552,134.4711 105.7482,134.3181 C105.4262,134.0791 104.9402,133.7171 104.5042,132.8841 C104.0372,131.9931 104.0732,131.3301 104.0962,130.8911 C104.1102,130.6261 104.1112,130.6101 104.0252,130.4471 C103.9082,130.2211 103.8592,130.1851 103.6522,130.0321 C103.3312,129.7931 102.8472,129.4321 102.4122,128.6011 C102.2312,128.2521 102.1232,128.1391 101.9482,127.9501 C101.6982,127.6821 101.3872,127.3491 101.0172,126.6411 C100.5852,125.8171 100.5602,125.2191 100.5422,124.8251 C100.5322,124.5691 100.5292,124.5001 100.4072,124.2671 C100.0212,123.5281 99.9372,123.0361 99.8762,122.6771 C99.8332,122.4211 99.8112,122.2931 99.6452,121.9751 C99.4302,121.5621 99.3092,121.4061 99.1412,121.1881 C98.9412,120.9281 98.6922,120.6051 98.3562,119.9611 C98.2772,119.8111 98.2732,119.8091 98.0402,119.6711 C97.6772,119.4571 97.0692,119.0961 96.5952,118.1891 C96.1812,117.3981 96.1312,116.8551 96.0952,116.4601 C96.0732,116.2071 96.0642,116.1131 95.9252,115.8471 C95.7582,115.5281 95.6642,115.4361 95.4792,115.2531 C95.2202,114.9991 94.8652,114.6491 94.4792,113.9121 C94.1592,113.2981 94.0302,112.9521 93.9172,112.6451 C93.8192,112.3801 93.7422,112.1711 93.5092,111.7281 C93.2992,111.3241 93.1772,111.1711 93.0102,110.9601 C92.8012,110.6991 92.5422,110.3731 92.2002,109.7161 C91.7152,108.7921 91.7872,108.0671 91.8312,107.6331 C91.8582,107.3711 91.8582,107.3711 91.7892,107.2411 C91.6332,106.9411 91.5472,106.8611 91.3592,106.6871 C91.0822,106.4311 90.7042,106.0821 90.3082,105.3241 C89.9282,104.5961 89.8382,104.1161 89.7722,103.7651 C89.7252,103.5111 89.6992,103.3721 89.5262,103.0421 C89.4342,102.8661 89.4152,102.8541 89.1912,102.7101 C88.8272,102.4771 88.2772,102.1251 87.8162,101.2431 C87.4822,100.6041 87.3562,100.2201 87.2542,99.9121 C87.1712,99.6571 87.1052,99.4551 86.8862,99.0361 C86.5022,98.3011 86.7862,97.3951 87.5212,97.0111 C88.2522,96.6291 89.1612,96.9121 89.5442,97.6461 C89.8782,98.2851 90.0042,98.6691 90.1062,98.9771 C90.1892,99.2331 90.2552,99.4341 90.4742,99.8531 C90.5662,100.0291 90.5842,100.0411 90.8092,100.1841 C91.1732,100.4181 91.7232,100.7701 92.1842,101.6521 C92.5652,102.3781 92.6552,102.8601 92.7212,103.2111 C92.7682,103.4641 92.7942,103.6041 92.9672,103.9341 C93.1222,104.2311 93.2082,104.3111 93.3972,104.4851 C93.6732,104.7411 94.0522,105.0911 94.4492,105.8501 C94.9332,106.7761 94.8602,107.5011 94.8172,107.9341 C94.7892,108.1971 94.7892,108.1971 94.8582,108.3271 C95.0682,108.7301 95.1902,108.8821 95.3572,109.0931 C95.5662,109.3551 95.8252,109.6811 96.1672,110.3371 C96.4902,110.9511 96.6182,111.2981 96.7312,111.6061 C96.8252,111.8601 96.9062,112.0801 97.1372,112.5221 C97.3042,112.8401 97.3972,112.9321 97.5822,113.1151 C97.8422,113.3701 98.1982,113.7191 98.5832,114.4581 C98.9972,115.2491 99.0472,115.7921 99.0832,116.1871 C99.1062,116.4401 99.1152,116.5341 99.2532,116.7991 C99.3322,116.9501 99.3362,116.9531 99.5692,117.0891 C99.9322,117.3051 100.5402,117.6651 101.0142,118.5721 C101.2292,118.9831 101.3502,119.1391 101.5182,119.3571 C101.7182,119.6171 101.9672,119.9401 102.3042,120.5851 C102.6902,121.3231 102.7732,121.8161 102.8342,122.1751 C102.8772,122.4311 102.9002,122.5591 103.0652,122.8771 C103.4962,123.7021 103.5232,124.2991 103.5392,124.6951 C103.5512,124.9511 103.5542,125.0191 103.6752,125.2521 C103.8572,125.5991 103.9632,125.7131 104.1402,125.9021 C104.3902,126.1691 104.7012,126.5021 105.0712,127.2111 C105.1882,127.4351 105.2372,127.4711 105.4432,127.6251 C105.7642,127.8641 106.2482,128.2241 106.6832,129.0561 C107.1502,129.9471 107.1152,130.6111 107.0912,131.0491 C107.0782,131.3141 107.0772,131.3301 107.1622,131.4941 C107.2802,131.7181 107.3292,131.7551 107.5362,131.9091 C107.8582,132.1481 108.3442,132.5091 108.7802,133.3421 C109.2342,134.2101 109.2222,134.8501 109.2132,135.2741 C109.2082,135.5371 109.2082,135.5701 109.3072,135.7581 C109.4602,136.0531 109.5462,136.1311 109.7342,136.3021 C110.0142,136.5571 110.3982,136.9081 110.7972,137.6701 C111.1102,138.2681 111.2432,138.6021 111.3602,138.8971 C111.4562,139.1391 111.5532,139.3811 111.7932,139.8421 C112.0512,140.3351 112.1942,140.5751 112.3362,140.8141 C112.4992,141.0881 112.6622,141.3631 112.9582,141.9281 C113.1092,142.2161 113.1892,142.2891 113.3812,142.4601 C113.6662,142.7161 114.0572,143.0671 114.4602,143.8351 C114.8932,144.6641 114.9172,145.2621 114.9332,145.6591 C114.9442,145.9151 114.9472,145.9831 115.0672,146.2141 C115.4112,146.8701 115.5302,147.2691 115.6252,147.5901 C115.7032,147.8481 115.7592,148.0351 115.9692,148.4361 C116.0302,148.5511 116.0302,148.5511 116.2582,148.6711 C116.6532,148.8791 117.3152,149.2271 117.8082,150.1711 C118.2252,150.9681 118.2732,151.5391 118.3052,151.9161 C118.3272,152.1721 118.3332,152.2591 118.4702,152.5201 C118.7522,153.0601 118.8902,153.3311 119.0282,153.6021 C119.1602,153.8641 119.2922,154.1261 119.5642,154.6451 C119.8962,155.2791 120.0182,155.6431 120.1262,155.9641 C120.2132,156.2221 120.2822,156.4261 120.5032,156.8511 C120.7612,157.3431 120.9032,157.5841 121.0452,157.8231 C121.2072,158.0971 121.3702,158.3711 121.6642,158.9351 C122.0262,159.6251 122.1312,160.0531 122.2162,160.3981 C122.2792,160.6521 122.3202,160.8191 122.5122,161.1881 C122.5652,161.2881 122.5652,161.2881 122.7912,161.4011 C123.2002,161.6051 123.8842,161.9481 124.3852,162.9071 C124.6952,163.4991 124.8222,163.8091 124.9492,164.1211 C125.0492,164.3661 125.1492,164.6111 125.3942,165.0781 C125.6862,165.6371 125.8202,165.9241 125.9532,166.2111 C126.0722,166.4671 126.1902,166.7231 126.4532,167.2231 C126.9112,168.1011 126.8932,168.7491 126.8812,169.1761 C126.8742,169.4391 126.8732,169.4731 126.9702,169.6591 C127.0572,169.8241 127.0762,169.8361 127.3012,169.9761 C127.6782,170.2111 128.2472,170.5671 128.7092,171.4771 C128.9992,172.0481 129.0362,172.0971 129.2372,172.3691 C129.3722,172.5541 129.5612,172.8091 129.8762,173.2731 C130.1942,173.7401 130.3162,174.2491 130.4242,174.6981 C130.4952,174.9921 130.5752,175.3261 130.6802,175.4541 C130.8022,175.6031 131.0582,175.7921 131.3292,175.9911 C131.6762,176.2461 132.0692,176.5351 132.4392,176.9191 C132.6482,177.1351 132.9472,177.3601 133.2632,177.5981 C133.5722,177.8301 133.8862,178.0681 134.1892,178.3361 C134.5212,178.6321 134.7942,178.9611 135.0362,179.2521 C135.2782,179.5441 135.5072,179.8191 135.7412,179.9981 C135.8582,180.0861 136.1582,180.1871 136.4232,180.2761 C136.8402,180.4171 137.3602,180.5901 137.8512,180.9121 C138.3492,181.2381 138.7012,181.6751 138.9842,182.0271 C139.1532,182.2381 139.3632,182.5001 139.4882,182.5691 C139.6872,182.6801 139.8882,182.7961 140.0912,182.9141 C140.5482,183.1781 141.0212,183.4511 141.4902,183.6711 C141.5842,183.7101 141.9092,183.7201 142.1232,183.7281 C142.6082,183.7461 143.2102,183.7661 143.8182,184.0061 C144.3742,184.2251 144.8112,184.5831 145.1622,184.8711 C145.3812,185.0501 145.6292,185.2541 145.7682,185.2981 C146.1972,185.4371 146.5762,185.6201 146.9412,185.7971 C147.2872,185.9641 147.6142,186.1231 147.9012,186.1971 C147.9582,186.1951 148.2452,186.1291 148.4362,186.0861 C148.9532,185.9661 149.5972,185.8171 150.3032,185.9581 C151.0032,186.0951 151.5342,186.4951 151.9602,186.8151 C152.1222,186.9371 152.3702,187.1231 152.4672,187.1561 C152.6772,187.1831 153.0152,187.1601 153.3732,187.1351 C153.7912,187.1061 154.2652,187.0731 154.7682,187.1191 C154.8562,187.1181 155.1852,187.0251 155.3922,186.9601 C155.8592,186.8141 156.4382,186.6311 157.1002,186.6611 C157.7142,186.6871 158.2522,186.8931 158.6852,187.0591 C158.9482,187.1601 159.2452,187.2731 159.3902,187.2731 C159.6582,187.2731 159.9922,187.2101 160.3462,187.1451 C160.7472,187.0701 161.2032,186.9861 161.6922,186.9651 C162.0862,186.9491 162.4842,186.9661 162.8872,186.9861 C163.2882,187.0051 163.6672,187.0231 164.0142,186.9971 L164.7792,186.9421 C165.2902,186.9071 165.8102,186.8721 166.3332,186.8101 C166.4512,186.7971 166.7432,186.6461 166.9552,186.5361 C167.3832,186.3141 167.9142,186.0391 168.5542,185.9431 C169.1042,185.8621 169.6102,185.9071 170.0552,185.9461 C170.3862,185.9761 170.6982,186.0041 170.9162,185.9641 C171.4392,185.8701 171.9472,185.8831 172.3912,185.8961 C172.7122,185.9051 173.0152,185.9141 173.2452,185.8791 C173.5892,185.7531 173.7262,185.6621 173.9422,185.5171 C174.2312,185.3241 174.5912,185.0841 175.2862,184.8101 C176.0302,184.5161 176.4802,184.4601 176.8412,184.4141 C177.1072,184.3791 177.2822,184.3571 177.6762,184.2021 C178.2732,183.9661 178.5762,183.8611 178.8782,183.7551 C179.1542,183.6591 179.4292,183.5621 179.9712,183.3491 C180.2272,183.2491 180.2762,183.1961 180.4592,183.0001 C180.7372,182.7041 181.1552,182.2561 182.0392,181.9081 C182.6892,181.6521 183.0502,181.5551 183.3692,181.4701 C183.6442,181.3971 183.8812,181.3341 184.3712,181.1401 C185.1422,180.8361 186.0132,181.2141 186.3172,181.9861 C186.6202,182.7571 186.2422,183.6281 185.4712,183.9311 C184.8212,184.1871 184.4602,184.2841 184.1422,184.3691 C183.8682,184.4421 183.6292,184.5051 183.1392,184.6991 C182.8832,184.7991 182.8342,184.8521 182.6512,185.0481 C182.3732,185.3441 181.9552,185.7921 181.0712,186.1401 C180.4742,186.3761 180.1712,186.4811 179.8692,186.5861 C179.5932,186.6831 179.3182,186.7801 178.7762,186.9931 C178.0322,187.2861 177.5822,187.3431 177.2202,187.3891 C176.9552,187.4231 176.7812,187.4451 176.3852,187.6011 C175.9902,187.7561 175.8302,187.8631 175.6102,188.0111 C175.2982,188.2191 174.9122,188.4771 174.1272,188.7501 C174.0682,188.7701 174.0082,188.7871 173.9472,188.8001 C173.3602,188.9251 172.8002,188.9091 172.3072,188.8951 C171.9762,188.8841 171.6652,188.8771 171.4542,188.9161 C170.8392,189.0281 170.2812,188.9781 169.7892,188.9341 C169.4832,188.9081 169.1962,188.8831 168.9982,188.9101 C168.8522,188.9321 168.5782,189.0741 168.3352,189.2001 C167.8922,189.4281 167.3422,189.7131 166.6792,189.7911 C166.1092,189.8571 165.5422,189.8961 164.9842,189.9341 L164.2522,189.9871 C163.7112,190.0301 163.1952,190.0041 162.7402,189.9831 C162.4292,189.9671 162.1222,189.9501 161.8162,189.9621 C161.5412,189.9741 161.2272,190.0331 160.8952,190.0941 C160.4452,190.1781 159.9352,190.2731 159.3912,190.2731" id="Fill-500" fill="#000"/><path d="M170.8365,121.9586 C170.4825,121.9586 170.0785,121.8916 169.6135,121.7156 C168.1435,121.1576 167.9005,120.1296 167.7565,119.5156 C167.7015,119.2836 167.6575,119.1006 167.5475,118.8926 C167.1445,118.1326 167.0675,117.6186 167.0125,117.2436 C166.9745,116.9846 166.9575,116.8676 166.7965,116.5646 C166.6825,116.3506 166.6375,116.3186 166.4245,116.1686 C166.0885,115.9316 165.5805,115.5736 165.1305,114.7276 C164.8575,114.2156 164.7155,113.9586 164.5745,113.7056 C164.4235,113.4336 164.2735,113.1646 163.9815,112.6136 L162.8485,110.4956 C162.5575,109.9486 162.4185,109.6756 162.2775,109.3996 C162.1465,109.1406 162.0135,108.8786 161.7395,108.3636 C161.3955,107.7176 161.2705,107.3236 161.1685,107.0086 C161.0845,106.7456 161.0235,106.5566 160.8065,106.1456 C160.3975,105.3776 160.3275,104.8556 160.2765,104.4756 C160.2425,104.2236 160.2275,104.1076 160.0725,103.8156 C159.8045,103.3116 159.6595,103.0626 159.5165,102.8156 C159.3575,102.5436 159.2005,102.2716 158.9055,101.7166 C158.7665,101.4536 158.6975,101.3986 158.4955,101.2336 C158.1065,100.9166 157.7245,100.5696 157.3325,99.8336 C157.0825,99.3636 156.9365,99.1406 156.7895,98.9176 C156.6065,98.6366 156.4215,98.3546 156.1075,97.7646 C155.7435,97.0786 155.6335,96.6526 155.5435,96.3116 C155.4775,96.0546 155.4335,95.8846 155.2335,95.5106 C154.8895,94.8606 154.7645,94.4676 154.6625,94.1496 C154.5795,93.8876 154.5195,93.6976 154.3015,93.2876 C154.1515,93.0076 154.0715,92.9386 153.8785,92.7716 C153.5815,92.5176 153.1765,92.1676 152.7625,91.3896 C152.3855,90.6796 152.2865,90.2316 152.2065,89.8716 C152.1495,89.6166 152.1155,89.4636 151.9305,89.1136 C151.7135,88.7056 151.5895,88.5506 151.4195,88.3356 C151.2125,88.0746 150.9545,87.7506 150.6075,87.0996 C150.3005,86.5196 150.1685,86.2166 150.0365,85.9146 C149.9285,85.6656 149.8205,85.4176 149.5665,84.9396 C149.3545,84.5396 149.2315,84.3886 149.0605,84.1786 C148.8475,83.9166 148.5825,83.5906 148.2325,82.9316 C147.8165,82.1486 147.7575,81.6136 147.7135,81.2226 C147.6855,80.9636 147.6745,80.8656 147.5265,80.5896 C147.4045,80.3596 147.3505,80.3186 147.1445,80.1666 C146.8245,79.9286 146.3405,79.5696 145.9005,78.7426 C145.5125,78.0116 145.7895,77.1026 146.5215,76.7136 C147.2465,76.3236 148.1595,76.6016 148.5495,77.3336 C148.6725,77.5636 148.7275,77.6046 148.9335,77.7576 C149.2525,77.9956 149.7365,78.3546 150.1765,79.1816 C150.5925,79.9656 150.6515,80.5006 150.6955,80.8916 C150.7245,81.1506 150.7345,81.2476 150.8825,81.5236 C151.0955,81.9256 151.2185,82.0766 151.3885,82.2866 C151.6015,82.5486 151.8655,82.8736 152.2155,83.5306 C152.5245,84.1116 152.6555,84.4146 152.7875,84.7166 C152.8965,84.9656 153.0035,85.2136 153.2575,85.6906 C153.4755,86.1006 153.5985,86.2556 153.7695,86.4706 C153.9755,86.7306 154.2325,87.0556 154.5785,87.7046 C154.9565,88.4156 155.0555,88.8626 155.1355,89.2236 C155.1915,89.4786 155.2265,89.6316 155.4115,89.9806 C155.5615,90.2626 155.6415,90.3316 155.8355,90.4976 C156.1315,90.7526 156.5365,91.1026 156.9495,91.8806 C157.2955,92.5296 157.4205,92.9236 157.5225,93.2406 C157.6055,93.5036 157.6655,93.6926 157.8835,94.1036 C158.2475,94.7886 158.3575,95.2146 158.4475,95.5566 C158.5145,95.8126 158.5585,95.9826 158.7575,96.3566 C159.0065,96.8256 159.1525,97.0496 159.2995,97.2726 C159.4825,97.5546 159.6675,97.8346 159.9815,98.4266 C160.1205,98.6876 160.1895,98.7436 160.3915,98.9076 C160.7805,99.2266 161.1625,99.5716 161.5545,100.3086 C161.8225,100.8136 161.9675,101.0616 162.1105,101.3096 C162.2695,101.5806 162.4265,101.8536 162.7215,102.4086 C163.1295,103.1766 163.1995,103.6976 163.2505,104.0776 C163.2835,104.3306 163.2995,104.4456 163.4545,104.7376 C163.7995,105.3856 163.9245,105.7776 164.0255,106.0936 C164.1095,106.3556 164.1705,106.5456 164.3895,106.9566 C164.6755,107.4946 164.8145,107.7686 164.9515,108.0396 C165.0865,108.3036 165.2195,108.5646 165.4965,109.0876 L166.6305,111.2066 C166.9085,111.7316 167.0515,111.9876 167.1955,112.2466 C167.3445,112.5136 167.4935,112.7816 167.7785,113.3176 C167.8935,113.5336 167.9385,113.5646 168.1505,113.7156 C168.4865,113.9516 168.9945,114.3096 169.4445,115.1566 C169.8495,115.9166 169.9255,116.4306 169.9815,116.8066 C170.0195,117.0636 170.0355,117.1826 170.1965,117.4846 C170.4885,118.0346 170.6025,118.5126 170.6765,118.8276 C170.6835,118.8576 170.6905,118.8886 170.6955,118.9166 C170.7385,118.9326 170.7715,118.9426 170.7955,118.9496 C170.8575,118.9186 170.9185,118.8796 170.9875,118.8396 C171.2405,118.6946 171.5875,118.4966 172.0665,118.3206 C172.3195,118.2286 172.3695,118.1776 172.5545,117.9886 C172.8365,117.7016 173.2625,117.2686 174.1495,116.9426 C175.0645,116.6076 175.6935,116.6876 176.1085,116.7416 C176.3685,116.7756 176.4235,116.7826 176.6505,116.6996 C176.9805,116.5796 177.0735,116.5016 177.2785,116.3316 C177.5715,116.0886 177.9745,115.7556 178.7865,115.4576 C179.2235,115.2976 179.3945,115.1936 179.6305,115.0516 C179.9215,114.8756 180.2835,114.6566 180.9895,114.3976 C181.6815,114.1456 182.0865,114.0696 182.4125,114.0096 C182.6825,113.9586 182.8965,113.9196 183.3495,113.7536 C183.9505,113.5326 184.2555,113.4356 184.5605,113.3376 C184.8355,113.2486 185.1115,113.1596 185.6545,112.9606 C186.4335,112.6766 187.2935,113.0746 187.5795,113.8536 C187.8645,114.6306 187.4655,115.4926 186.6885,115.7766 C186.0865,115.9976 185.7815,116.0956 185.4775,116.1926 C185.2015,116.2816 184.9255,116.3706 184.3825,116.5696 C183.6915,116.8226 183.2855,116.8976 182.9595,116.9586 C182.6905,117.0096 182.4765,117.0486 182.0235,117.2146 C181.5875,117.3746 181.4175,117.4776 181.1815,117.6196 C180.8895,117.7956 180.5265,118.0156 179.8185,118.2736 C179.4915,118.3946 179.3985,118.4716 179.1925,118.6416 C178.8995,118.8846 178.4975,119.2186 177.6845,119.5166 C176.7685,119.8526 176.1405,119.7706 175.7255,119.7176 C175.4655,119.6836 175.4105,119.6766 175.1835,119.7596 C174.9305,119.8526 174.8805,119.9026 174.6955,120.0916 C174.4135,120.3786 173.9875,120.8126 173.1005,121.1376 C172.8575,121.2276 172.6805,121.3276 172.4755,121.4446 C172.0915,121.6636 171.5745,121.9586 170.8365,121.9586" id="Fill-502" fill="#000"/><path d="M126.1665,0.7819 L114.7675,0.7819 C109.6135,0.7819 105.2275,4.4759 104.3115,9.5169 C104.3015,9.5799 104.2925,9.6409 104.2835,9.7039 L104.2775,9.7379 C104.2405,9.9829 104.2025,10.2339 104.1655,10.4829 C102.8385,19.2239 101.2005,29.9339 101.2005,29.9339 L136.6335,29.9339 L136.7055,22.1699 L136.8035,11.5179 C136.8585,5.6049 132.0805,0.7819 126.1665,0.7819" id="Fill-504" fill="#ef9e89"/><path d="M136.6334,29.9342 C122.7584,28.9582 118.9674,25.9842 119.1014,23.5072 C119.2204,21.2882 121.3054,21.5972 122.2164,21.6182 C126.2304,21.7082 136.7054,22.1692 136.7054,22.1692" id="Fill-506" fill="#000"/></g></g></g></g><g id="Head" transform="translate(204.000000, 145.000000) scale(1 1)"><g id="Head/Bob 3" stroke="none" stroke-width="1" fill="none" fill-rule="evenodd"><g id="Group-183" transform="translate(85.000000, 90.000000)"><g id="Group-103" transform="translate(0.000000, 0.738000)"><path d="M66.1449,32.9274 C65.6449,30.5914 60.5299,29.4874 58.2279,29.1054 C56.7229,22.3134 55.0159,15.8274 53.4909,12.9764 C50.7859,7.9184 42.5399,2.6044 29.3499,4.6454 C20.5929,5.9994 11.2679,14.1684 17.3239,28.3894 C17.3239,28.3894 19.0569,31.8374 18.2279,37.5224 C18.1359,38.1484 18.0059,39.0224 17.8509,40.0644 L17.8489,40.0714 C17.5859,41.8314 17.2449,44.0874 16.8719,46.5524 C16.8619,46.6154 16.8529,46.6754 16.8439,46.7384 L16.8379,46.7724 L16.8379,46.7734 C16.8009,47.0184 16.7629,47.2684 16.7259,47.5174 C16.4959,50.1074 17.2029,58.5824 36.2799,58.6784 L49.2659,59.2034 L49.4629,59.2124 C49.4629,59.2124 53.8149,59.1634 56.4489,59.1634 C61.9219,59.1634 62.8629,53.9454 62.2489,50.0824 C62.0049,48.5504 61.1369,43.4424 59.9569,37.4234 C62.2009,36.7754 66.6299,35.1954 66.1449,32.9274" id="Fill-99" fill="#ef9e89"/><path d="M31.4862,24.6246 L31.4862,46.6916 C31.4862,49.2966 29.4372,51.4386 26.8362,51.5566 L0.3792,52.7436 C0.3792,52.7436 -2.9458,7.8506 26.9832,1.6986 C45.5782,-2.1244 53.2972,6.3306 56.3602,12.2836 C57.6222,14.7366 55.9932,17.6886 53.2512,17.9976 C49.6422,18.4036 43.8602,19.1156 35.2202,20.3336 C33.0812,20.6346 31.4862,22.4646 31.4862,24.6246" id="Fill-101" fill="#860a0c"/></g></g></g></g><g id="Expression" transform="translate(315.000000, 246.000000) scale(1 1)"><defs><path d="M2.973,1.055 C-0.453,2.37 -2.944,13.004 10.567,16.001 L10.567,16.001 C16.271,17.266 19.387,14.583 19.536,11.9 L19.536,11.9 C19.665,9.554 17.527,7.208 12.869,7.501 L12.869,7.501 C11.822,7.568 10.572,7.073 9.905,5.972 L9.905,5.972 C8.651,3.902 7.906,0.626 4.999,0.626 L4.999,0.626 C4.417,0.626 3.749,0.757 2.973,1.055" id="expressionlaugh-path-1"/></defs><g id="Expression/Laugh" stroke="none" stroke-width="1" fill="none" fill-rule="evenodd"><g id="Group-77" transform="translate(13.400000, 13.300000)"><g id="Group-3" transform="translate(0.000000, 0.116900)"><g id="Group" transform="translate(0.000000, 15.000000)"><path d="M2.973,1.0549 C-0.453,2.3699 -2.944,13.0039 10.567,15.9999 C21.261,18.3719 22.855,6.8709 12.869,7.5009 C11.822,7.5679 10.571,7.0739 9.904,5.9719 C8.4,3.4879 7.63,-0.7321 2.973,1.0549" id="Fill-37" fill="#000"/><g id="Group-41"><mask id="expressionlaugh-mask-2" fill="#ffffff"><use xlink:href="#expressionlaugh-path-1" fill="#ffffff"/></mask><g id="Clip-40"/><path d="M-3.2101,3.4943 C-3.2101,3.4943 1.3509,2.7393 5.4389,7.3023 C9.5279,11.8643 9.1349,18.8593 9.1349,18.8593 C9.1349,18.8593 -6.6571,11.2823 -3.2101,3.4943" id="Fill-39" fill="#FF71DB" mask="url(#expressionlaugh-mask-2)"/></g></g><g id="Group-46" transform="translate(3.000000, 0.000000)"><path d="M3.1312,6.052 C3.7892,6.555 4.7312,6.427 5.2332,5.769 C7.2772,3.086 9.8032,4.136 10.1002,4.271 C10.8412,4.624 11.7342,4.313 12.0932,3.571 C12.4552,2.825 12.1432,1.928 11.3982,1.566 C10.3642,1.065 8.4892,0.66 6.5312,1.268 C5.2702,1.659 3.9732,2.472 2.8462,3.95 C2.3442,4.61 2.4722,5.55 3.1312,6.052" id="Fill-42" fill="#000"/><path d="M4.6669,6.3596 C4.6669,7.0556 3.7149,7.6196 2.5399,7.6196 C1.3649,7.6196 0.4129,7.0556 0.4129,6.3596 C0.4129,5.6646 1.3649,5.0996 2.5399,5.0996 C3.7149,5.0996 4.6669,5.6646 4.6669,6.3596" id="Fill-44" fill="#F8FBF8"/></g></g></g></g></g><g id="Facial Hair" transform="translate(311.300000, 250.950000) scale(1 1)"><g id="Facial Hair/None" stroke="none" stroke-width="1" fill="none" fill-rule="evenodd" fill-opacity="0"/></g><g id="Accesories" transform="translate(311.300000, 250.950000) scale(1 1)"><g id="Accesories/None" stroke="none" stroke-width="1" fill="none" fill-rule="evenodd" fill-opacity="0"/></g></g></g></g></svg>