<svg viewBox="72.24999999999994 35.490654205607484 433.50000000000006 239.01869158878498" fill="none" xmlns="http://www.w3.org/2000/svg" xmlns:xlink="http://www.w3.org/1999/xlink" overflow="visible" width="433.50000000000006px" height="239.01869158878498px"><g id="Master/Background/Neighborhood"><g id="Background" transform="scale(1 1)"><g id="Background/Clouds"><path id="Path" fill-rule="evenodd" clip-rule="evenodd" d="M439.612 202.688C435.78 202.688 431.919 203.088 428.124 203.877C426.627 181.646 408.133 164.316 385.767 164.316C376.006 164.316 366.502 167.702 358.951 173.86C343.495 158.456 322.992 149.98 301.164 149.98C286.737 149.98 272.901 153.67 260.607 160.717C256.293 149.159 245.144 140.904 232.101 140.904C230.113 140.904 228.112 141.103 226.143 141.495C225.204 129.561 215.23 120.297 203.185 120.297C197.959 120.297 192.87 122.086 188.8 125.344C180.473 117.121 169.466 112.599 157.751 112.599C138.57 112.599 121.293 125.311 115.57 143.573C113.285 143.08 110.962 142.83 108.656 142.83C90.65 142.83 76 157.48 76 175.486C76 176.043 76.014 176.597 76.042 177.147C76.056 177.423 76.297 177.642 76.567 177.621C76.842 177.607 77.054 177.372 77.041 177.096C77.014 176.563 77 176.026 77 175.486C77 158.031 91.201 143.83 108.656 143.83C111.039 143.83 113.443 144.105 115.8 144.649C116.052 144.709 116.315 144.558 116.39 144.306C121.845 126.226 138.853 113.599 157.751 113.599C169.348 113.599 180.237 118.134 188.411 126.369C188.594 126.553 188.887 126.566 189.087 126.401C193.034 123.11 198.041 121.297 203.185 121.297C214.893 121.297 224.556 130.448 225.183 142.129C225.191 142.275 225.263 142.411 225.38 142.5C225.496 142.589 225.646 142.621 225.789 142.59C227.87 142.135 229.993 141.904 232.101 141.904C244.777 141.904 255.606 149.964 259.733 161.227C257.047 162.811 254.433 164.548 251.91 166.452C238.095 176.876 227.749 191.695 222.776 208.178C222.696 208.443 222.846 208.722 223.11 208.801C223.375 208.881 223.654 208.732 223.733 208.467C228.646 192.185 238.866 177.547 252.512 167.25C254.949 165.412 257.472 163.733 260.061 162.197C261.002 165.071 261.517 168.136 261.517 171.32C261.517 173.222 261.329 175.142 260.959 177.025C260.906 177.296 261.083 177.559 261.354 177.612C261.386 177.619 261.419 177.622 261.45 177.622C261.685 177.622 261.894 177.457 261.941 177.218C262.323 175.271 262.517 173.287 262.517 171.32C262.517 167.949 261.957 164.708 260.94 161.675C273.124 154.654 286.85 150.98 301.164 150.98C322.875 150.98 343.26 159.47 358.563 174.887C358.746 175.071 359.039 175.084 359.238 174.919C366.666 168.727 376.087 165.316 385.767 165.316C407.798 165.316 425.98 182.534 427.16 204.514C427.169 204.661 427.24 204.796 427.357 204.885C427.473 204.974 427.624 205.007 427.767 204.976C431.675 204.121 435.66 203.688 439.612 203.688C470.053 203.688 494.819 228.454 494.819 258.896C494.819 262.467 494.467 266.069 493.773 269.602C493.719 269.873 493.896 270.136 494.167 270.189C494.199 270.195 494.232 270.198 494.264 270.198C494.498 270.198 494.707 270.033 494.754 269.794C495.461 266.199 495.819 262.532 495.819 258.896C495.819 227.902 470.605 202.688 439.612 202.688" fill="black"/><path id="Path_2" fill-rule="evenodd" clip-rule="evenodd" d="M480.3 60.072C478.936 60.072 477.562 60.204 476.207 60.463C475.458 52.004 468.358 45.459 459.795 45.459C456.099 45.459 452.499 46.709 449.604 48.99C443.683 43.188 435.879 40 427.575 40C413.955 40 401.682 48.998 397.564 61.94C395.977 61.607 394.363 61.438 392.76 61.438C379.91 61.438 369.456 71.892 369.456 84.742C369.456 85.139 369.466 85.534 369.486 85.926C369.499 86.201 369.718 86.414 370.01 86.401C370.286 86.387 370.499 86.152 370.485 85.876C370.466 85.5 370.456 85.122 370.456 84.742C370.456 72.443 380.462 62.438 392.76 62.438C394.441 62.438 396.134 62.632 397.793 63.015C398.048 63.076 398.308 62.924 398.384 62.672C402.234 49.912 414.238 41 427.575 41C435.761 41 443.446 44.201 449.215 50.013C449.398 50.197 449.691 50.21 449.89 50.044C452.663 47.732 456.181 46.459 459.795 46.459C468.02 46.459 474.809 52.888 475.249 61.094C475.258 61.241 475.329 61.376 475.446 61.465C475.562 61.554 475.712 61.588 475.856 61.556C477.322 61.235 478.818 61.072 480.3 61.072C491.723 61.072 501.015 70.365 501.015 81.788C501.015 83.126 500.883 84.478 500.623 85.805C500.57 86.076 500.746 86.339 501.017 86.392C501.05 86.398 501.082 86.401 501.114 86.401C501.348 86.401 501.557 86.236 501.604 85.998C501.877 84.607 502.015 83.191 502.015 81.788C502.015 69.814 492.274 60.072 480.3 60.072" fill="black"/></g></g></g></svg>