<svg viewBox="283.80000000000007 144.49253731343282 120.4000000000001 318.2276119402985" fill="none" xmlns="http://www.w3.org/2000/svg" xmlns:xlink="http://www.w3.org/1999/xlink" overflow="visible" width="120.4000000000001px" height="318.2276119402985px"><g id="Master/Stickers/Classic Leaves Plant"><g id="Classic Leaves"><path id="Fill 65" fill-rule="evenodd" clip-rule="evenodd" d="M336.02 356.584C336.02 356.584 289.998 212.403 392.754 150.5C392.754 150.5 421.462 223.941 336.02 356.584" fill="#009E80"/><path id="Fill 67" fill-rule="evenodd" clip-rule="evenodd" d="M392.488 151.246C369.4 165.288 352.076 184.725 340.993 209.024C332.054 228.624 327.128 251.417 326.353 276.771C325.156 315.901 334.356 349.209 336.185 355.403C360.414 317.626 390.196 260.949 395.93 203.751C399.048 172.657 393.619 154.584 392.488 151.246M336.02 357.084C335.999 357.084 335.977 357.083 335.955 357.08C335.763 357.055 335.603 356.921 335.544 356.736C335.428 356.375 324.028 320.108 325.354 276.741C326.133 251.253 331.089 228.33 340.084 208.609C351.336 183.94 368.969 164.245 392.496 150.072C392.622 149.996 392.775 149.979 392.915 150.027C393.054 150.075 393.166 150.181 393.219 150.318C393.292 150.503 400.4 169.192 396.925 203.851C391.125 261.707 360.832 318.99 336.441 356.855C336.348 356.999 336.189 357.084 336.02 357.084" fill="black"/><path id="Fill 69" fill-rule="evenodd" clip-rule="evenodd" d="M345.186 369.042C345.186 369.042 326.255 328.25 368.054 313.853C367.934 314.099 372.756 338.872 345.186 369.042" fill="#009E80"/><path id="Fill 71" fill-rule="evenodd" clip-rule="evenodd" d="M367.616 314.535C355.886 318.706 347.985 325.41 344.129 334.469C338.067 348.707 343.904 364.626 345.34 368.127C351.85 360.873 370.034 338.255 367.616 314.535M345.187 369.541C345.161 369.541 345.136 369.539 345.111 369.535C344.945 369.51 344.804 369.403 344.733 369.251C344.647 369.066 336.211 350.523 343.205 334.084C347.242 324.597 355.548 317.63 367.892 313.379C368.083 313.314 368.296 313.369 368.429 313.52C368.52 313.623 368.563 313.756 368.553 313.888C368.557 313.937 368.567 314.024 368.58 314.147C369.326 321.011 368.088 327.825 366.917 332.332C363.627 345.003 356.44 357.467 345.556 369.378C345.46 369.483 345.326 369.541 345.187 369.541" fill="black"/><path id="Fill 73" fill-rule="evenodd" clip-rule="evenodd" d="M324.537 360.147C324.537 360.147 354.912 279.492 292.213 257.897C292.393 258.266 283.183 314.891 324.537 360.147" fill="#009E80"/><path id="Fill 75" fill-rule="evenodd" clip-rule="evenodd" d="M292.657 258.582C292.653 258.622 292.648 258.664 292.643 258.707C291.18 272.46 289.173 320.178 324.346 359.193C326.384 353.31 338.568 315.403 325.112 286.786C318.855 273.478 307.938 263.992 292.657 258.582M324.537 360.647C324.398 360.647 324.263 360.589 324.168 360.485C288.132 321.049 290.167 272.532 291.649 258.602C291.685 258.26 291.711 258.038 291.715 257.943C291.702 257.809 291.745 257.671 291.838 257.566C291.972 257.415 292.184 257.358 292.375 257.425C308.241 262.889 319.56 272.626 326.019 286.364C340.75 317.7 325.164 359.901 325.005 360.324C324.944 360.486 324.802 360.605 324.632 360.639C324.6 360.645 324.568 360.647 324.537 360.647" fill="black"/><path id="Pot" fill-rule="evenodd" clip-rule="evenodd" d="M336.203 459.885H334.434C318.047 459.885 304.762 446.6 304.762 430.212V380.686H365.876V430.212C365.876 446.6 352.591 459.885 336.203 459.885" fill="#FF5613"/><path id="Fill 122" fill-rule="evenodd" clip-rule="evenodd" d="M305.262 381.185V430.211C305.262 446.297 318.349 459.384 334.435 459.384H336.203C352.289 459.384 365.376 446.297 365.376 430.211V381.185H305.262ZM336.203 460.384H334.435C317.798 460.384 304.262 446.849 304.262 430.211V380.685C304.262 380.409 304.486 380.185 304.762 380.185H365.876C366.153 380.185 366.376 380.409 366.376 380.685V430.211C366.376 446.849 352.841 460.384 336.203 460.384V460.384Z" fill="black"/><path id="Fill 124" fill-rule="evenodd" clip-rule="evenodd" d="M335.318 381.186C335.042 381.186 334.818 380.962 334.818 380.686C334.818 335.141 342.231 290.175 356.851 247.038L377.259 186.826C377.349 186.565 377.633 186.424 377.894 186.513C378.155 186.602 378.295 186.886 378.207 187.147L357.798 247.359C343.214 290.392 335.818 335.25 335.818 380.686C335.818 380.962 335.594 381.186 335.318 381.186" fill="black"/><path id="Fill 126" fill-rule="evenodd" clip-rule="evenodd" d="M324.537 381.185C324.261 381.185 324.037 380.961 324.037 380.685V369.557C324.037 332.077 313.842 295.28 294.554 263.144L292.17 259.173C292.028 258.936 292.104 258.629 292.341 258.487C292.578 258.345 292.886 258.421 293.027 258.658L295.411 262.629C314.792 294.92 325.037 331.895 325.037 369.557V380.685C325.037 380.961 324.813 381.185 324.537 381.185" fill="black"/><path id="Fill 128" fill-rule="evenodd" clip-rule="evenodd" d="M344.998 381.185C344.722 381.185 344.498 380.961 344.498 380.685V373.43C344.498 351.219 352.732 329.94 367.684 313.515C367.87 313.311 368.186 313.296 368.39 313.482C368.595 313.667 368.609 313.984 368.423 314.188C353.64 330.429 345.498 351.468 345.498 373.43V380.685C345.498 380.961 345.274 381.185 344.998 381.185" fill="black"/></g></g></svg>