<svg viewBox="0 -17.875 1071.9999999999998 1465.7499999999998" xmlns="http://www.w3.org/2000/svg" overflow="visible" xmlns:xlink="http://www.w3.org/1999/xlink" width="1071.9999999999998px" height="1465.7499999999998px"><g id="Master/Textures/Colorful" stroke="none" stroke-width="1" fill="none" fill-rule="evenodd"><g id="Textures/Colorful" transform="scale(1 1)"><g id="Textures/Colorful/Squiggle 27" stroke="none" stroke-width="1" fill="none" fill-rule="evenodd"><g id="Group-64" transform="translate(5.000000, -17.000000)"><path d="M461.7962,639.5658 C488.1322,626.4388 518.5412,643.4848 532.0862,667.1658 C565.1302,706.2718 593.4412,572.5458 653.2852,664.8198 C696.0792,707.0788 717.9322,582.4558 782.8392,665.5538 C821.8702,706.6028 829.4122,574.2438 903.3492,672.1628 C920.2682,631.3748 971.6782,632.7568 997.0392,668.3008 C1022.6082,701.4678 1030.1422,631.8248 1052.9472,644.8968 C1073.5852,657.1118 1054.0802,670.3858 1044.8122,683.7028 C1006.9712,723.9698 985.3542,647.0788 944.0662,659.4718 C909.4922,670.5638 921.5482,723.2298 877.1062,658.4218 C862.9402,642.7198 837.4212,663.0328 830.0712,677.4878 C792.8472,727.5038 756.2552,615.5108 721.6222,667.0848 C656.4522,747.1698 635.5672,611.1348 597.8282,658.9968 C537.3462,734.4788 535.8552,660.8708 489.7012,649.0078 C475.3702,650.4408 465.2902,658.3628 456.8862,668.7528 C405.9042,732.8448 381.6832,609.8738 342.9612,662.9298 C299.4342,719.0308 274.6832,592.7838 224.0312,661.2678 C174.4872,731.6008 160.9222,610.3008 115.1442,659.5608 C82.7882,711.1828 63.7222,628.9368 34.0802,665.6748 C31.6322,689.0898 -11.5968,691.2498 6.3322,665.0628 C49.2142,592.8678 74.8262,682.6628 102.5632,643.5758 C159.6892,603.3748 179.7572,704.8338 202.6572,660.0088 C220.9112,616.8418 285.8942,622.8048 306.3252,661.9268 C310.5092,669.9488 315.6922,664.8098 319.6342,660.8488 C371.8492,585.3488 399.4252,702.5218 435.8762,660.4688 C441.5092,651.1998 452.7042,640.5128 461.7962,639.5658" id="Fill-1" fill="#44CAFB"/><path d="M261.0774,1374.5931 C252.8304,1374.1301 249.9924,1381.1611 246.7364,1386.2211 C215.5844,1430.9271 192.2394,1397.0971 168.0554,1371.5401 C152.0344,1387.6691 146.5634,1403.3731 119.0644,1403.8081 C98.0984,1408.6751 97.5484,1377.9141 82.0264,1377.1851 C68.6244,1386.4711 74.9004,1410.0191 55.5774,1415.8951 C36.8724,1431.4511 4.7504,1375.1981 20.4144,1367.5311 C33.8734,1367.8731 28.8334,1396.0091 39.8514,1398.4001 C62.4614,1396.9891 47.6674,1362.9421 71.6374,1357.8391 C102.0124,1352.6651 99.6074,1412.0341 140.5504,1370.3331 C145.1544,1364.1091 147.4924,1355.0081 156.5064,1354.7411 C170.9024,1354.3171 179.9834,1363.6081 184.4194,1376.0511 C222.4124,1436.6651 237.7344,1306.5851 288.5234,1377.0511 C333.3294,1429.1461 342.1174,1374.6391 380.0134,1362.3871 C397.3544,1367.5771 399.7564,1391.7931 418.7214,1396.5281 C435.7114,1403.8691 446.8044,1400.0821 458.1564,1383.7461 C509.1084,1310.0361 545.8084,1435.8521 583.0914,1378.4541 C619.0094,1328.0131 616.4044,1395.5721 658.5794,1391.5151 C686.3844,1379.3601 689.2404,1347.3561 730.3364,1376.5491 C783.2134,1426.9941 810.2684,1313.4351 857.8434,1381.5191 C898.7954,1433.3481 915.0854,1304.9741 985.6664,1391.5091 C1005.0504,1414.5411 1020.4564,1372.3971 1037.2874,1364.8771 C1080.2564,1357.7601 1034.5374,1410.7951 1022.3634,1422.7801 C1014.5024,1432.7021 992.7954,1427.2041 984.6964,1414.5191 C916.6654,1314.1581 909.8204,1481.5401 850.5074,1387.9391 C804.7294,1341.2871 794.5104,1442.3831 737.1814,1395.9951 C723.2084,1386.1701 701.6484,1365.5511 687.7924,1386.8651 C670.8224,1419.4921 626.7224,1402.5231 615.8414,1374.1481 C606.3384,1357.4891 595.9394,1386.7201 588.9754,1392.8781 C556.2364,1451.7361 508.8844,1333.1031 473.3204,1388.6891 C424.0384,1459.7131 396.1824,1360.9891 375.2124,1382.0741 C315.5904,1465.5611 291.7164,1368.2801 261.0774,1374.5931" id="Fill-3" fill="#44CAFB"/><path d="M8.5623,532.4847 C8.3973,532.7447 8.4553,532.9907 8.7443,532.9577 C8.9563,532.7167 8.8763,532.5277 8.5623,532.4847 M13.5393,533.7807 C12.2943,535.1237 13.6973,534.9257 13.7873,533.4227 C13.7043,533.5427 13.6223,533.6617 13.5393,533.7807 M6.9213,531.3277 C13.4803,501.8687 50.4493,483.9277 77.6473,497.0587 C88.4323,500.4647 92.2253,528.4057 105.0623,515.8937 C174.3253,424.2477 178.1353,547.9027 220.1413,518.0467 C297.9553,438.2407 315.0943,554.5357 343.3893,513.0307 C362.9073,479.6927 411.7733,482.4337 426.4293,519.3787 C444.7193,551.3947 471.0803,442.6187 546.3823,513.5637 C589.4423,545.4937 606.4453,445.3807 681.0523,510.9527 C741.9103,545.1197 729.9283,433.6697 838.0133,520.6677 C886.4363,531.2167 908.7393,448.9207 961.7893,521.5237 C968.1703,532.8427 975.9303,526.5607 983.3803,524.4587 C999.5093,519.9077 1010.1483,507.1497 1022.6483,497.2787 C1035.6043,484.9637 1067.1103,495.5777 1060.3493,514.2577 C1032.3353,509.5927 1021.2133,538.1257 996.4433,546.6687 C947.8623,564.5527 941.4223,468.7047 881.5143,535.1017 C836.7903,577.6037 780.4173,455.4297 737.4573,524.7217 C697.2083,571.5387 651.6953,468.6707 608.3963,517.8307 C544.0343,585.4687 522.0223,447.8237 456.1703,534.5247 C391.2243,565.0667 425.3083,445.4317 345.1143,534.4637 C292.2553,543.7577 291.4233,460.0717 230.6983,527.5157 C189.1013,562.8447 166.6823,459.4607 134.0913,506.3237 C99.4773,570.9207 72.9213,477.3497 39.0653,514.5297 C31.1263,524.6047 13.2593,551.9127 6.9213,531.3277" id="Fill-5" fill="#44CAFB"/><g id="Group-9" transform="translate(0.000000, 776.690000)" fill="#44CAFB"><path d="M0.4021,20.7596 C-0.7599,17.6846 0.8251,12.9486 2.2511,13.2646 C27.3971,9.5246 22.3691,69.4056 39.6051,21.6896 C46.5801,3.5926 68.8991,0.4806 90.8111,13.6096 C119.2181,47.1146 123.7941,45.4696 149.6051,10.7926 C200.2461,-32.4024 214.9371,76.2116 251.2641,23.2166 C305.8021,-48.0734 327.2631,78.1886 372.4501,26.5256 C381.7601,15.6006 393.0581,8.0156 406.6191,4.0936 C423.9721,-0.9244 435.6681,10.2006 446.9391,20.2596 C491.7831,67.7176 532.7961,-39.6244 587.6311,29.8626 C627.6431,67.9846 633.2271,-38.6804 692.8451,21.1736 C709.4371,35.0206 718.8861,35.3416 737.0051,22.3556 C803.8211,-37.0854 823.3841,56.0266 880.2171,23.2236 C933.2391,-29.9964 930.9791,42.0986 974.3791,32.1686 C993.3831,26.9256 1006.9701,9.1846 1027.8361,10.4506 C1040.8291,11.1296 1054.3651,25.9176 1051.9701,36.7806 C1035.3091,29.2726 1033.1521,25.7856 1019.1581,39.0496 C945.6961,90.5086 948.6311,2.1556 906.4721,27.3476 C889.1991,36.9786 874.0881,51.9866 851.2091,46.3966 C765.5591,-30.2084 761.2521,83.8746 691.1501,32.6686 C669.3381,14.2396 651.6611,14.2856 636.9411,36.8636 C596.3161,88.0636 567.9021,-8.0104 525.8641,26.8986 C460.5391,96.9536 438.3991,-16.1274 398.0341,27.3646 C326.3531,110.0746 314.0361,-28.4104 271.2151,31.0766 C215.2521,98.1946 193.4031,-26.1434 156.8861,22.2276 C145.2871,48.8776 114.8111,58.4936 91.3191,34.3566 C86.4041,29.2256 84.1471,17.1596 72.7921,22.3476 C58.8381,34.6636 56.7671,64.4856 31.0531,56.4766 C7.8471,50.9026 -0.6949,40.1136 0.4021,20.7596" id="Fill-7"/></g><path d="M564.1208,1225.9711 C563.5378,1226.6021 563.5728,1226.9021 564.4528,1227.0731 C565.0208,1226.7501 564.4438,1226.2951 564.1208,1225.9711 M562.0108,1222.7031 C593.2548,1227.9341 608.9638,1277.2591 639.0058,1240.3341 C684.2658,1181.3831 729.9308,1291.2201 774.3748,1232.9401 C814.2678,1180.6821 854.4688,1260.1021 894.1308,1230.2721 C940.1818,1172.9411 974.1388,1281.7891 1023.9638,1232.3541 C1033.1978,1223.3341 1042.5498,1225.1081 1044.7508,1237.8181 C1037.0858,1270.5611 981.4268,1277.0591 960.7978,1247.1191 C945.7418,1225.4921 925.8088,1225.2441 906.2358,1243.7161 C883.6288,1265.0501 865.6088,1258.9221 844.0948,1245.0591 C792.8158,1205.0771 762.1498,1302.7961 711.5938,1251.9331 C660.3578,1203.7821 638.9638,1314.0551 588.3168,1249.5931 C521.4998,1198.0761 524.9468,1290.7681 481.9228,1261.0531 C461.4528,1240.1041 439.7758,1214.9961 419.0888,1250.6651 C384.3638,1313.0811 356.3438,1198.5121 317.6678,1239.2311 C306.2888,1253.2531 294.2068,1266.5961 272.8508,1260.0541 C247.9398,1247.8001 232.0208,1205.5801 206.1108,1243.7971 C163.2518,1300.1071 136.2478,1179.3451 90.5748,1251.0891 C69.3938,1282.9271 67.9968,1243.8741 49.2168,1237.6421 C21.9738,1229.3081 19.8028,1301.2331 5.4158,1252.9701 C8.4818,1213.8461 58.9958,1206.1151 69.6268,1244.2541 C72.7808,1249.3081 73.5338,1248.0711 76.0818,1244.3601 C87.6368,1227.5351 101.4078,1213.1471 123.6308,1213.9921 C136.9548,1214.4991 144.1098,1226.8021 152.7198,1234.9911 C194.6638,1279.6851 205.8078,1164.1111 253.9988,1232.0571 C290.5228,1284.5621 322.1818,1174.6731 363.4458,1235.9691 C375.2418,1256.5861 396.7048,1260.5121 407.6708,1238.7681 C449.4738,1173.4551 476.4478,1284.0021 506.5738,1237.7071 C510.7948,1230.5681 516.1158,1221.5281 527.2668,1222.0061 C532.6858,1218.8401 541.1948,1225.5111 542.4038,1220.4231 C549.3018,1219.3931 558.3328,1224.4901 562.0108,1222.7031" id="Fill-10" fill="#44CAFB"/><path d="M44.2679,349.511 C56.3669,352.092 67.4609,360.27 76.5009,371.191 C96.3029,397.927 125.8139,329.155 162.0129,355.834 C215.5539,415.375 267.1299,297.285 334.5389,375.971 C343.2449,386.641 351.0709,383.812 359.5009,377.901 C437.9269,293.498 461.7139,418.838 521.6479,359.57 C578.4019,306.338 622.5459,398.489 677.1709,358.753 C727.2959,326.047 730.0099,376.212 760.4309,372.731 C786.9949,361.654 814.0969,337.653 837.3539,371.862 C841.7419,377.692 843.5599,376.127 846.3789,371.16 C864.0599,343.029 918.8259,333 935.0499,368.065 C947.1909,373.763 963.3169,350.781 978.6779,349.777 C1002.6649,338.412 1014.9939,365.236 1032.0719,367.933 C1034.1649,355.445 1043.7909,372.545 1037.4599,378.372 C1008.3329,377.332 1010.8309,345.518 969.4539,376.154 C922.4319,417.585 935.5599,320.216 860.9899,382.464 C828.1299,405.315 837.5849,336.133 777.1299,386.052 C744.7289,410.104 724.6349,344.263 688.9369,373.528 C635.7269,420.723 589.3279,316.08 535.9949,374.299 C491.7339,433.698 440.7709,330.974 393.3519,377.288 C337.6289,439.735 317.7499,332.796 255.0079,371.462 C226.9599,388.919 193.9729,400.445 169.2689,371.561 C129.0069,342.39 106.3219,426.449 68.3209,377.3 C47.9969,350.414 33.4559,384.094 16.7739,393.15 C-6.1591,381.36 27.2389,349.983 44.2679,349.511" id="Fill-12" fill="#44CAFB"/><path d="M56.0335,204.7366 C73.8715,204.8696 85.7685,213.6776 96.3695,227.9156 C111.3555,242.5216 122.3875,188.8946 155.0465,200.7316 C173.5335,203.5806 184.3875,214.4116 193.6905,229.1156 C214.4085,263.9336 251.2835,177.2376 284.5095,204.1896 C351.2345,280.8606 314.4665,156.5486 388.2585,210.3356 C394.0245,215.6406 399.5015,221.3126 402.5075,228.4476 C421.2375,251.1206 435.3475,183.2146 461.5395,199.8506 C478.5305,208.4196 495.0195,217.2846 501.7275,237.1556 C524.7755,239.2356 546.1775,172.5826 597.0965,212.3586 C636.0035,255.5736 659.0775,153.8766 696.8845,209.1096 C711.1085,225.3056 722.6045,234.7306 741.3135,211.7696 C787.6355,164.0226 815.7725,252.3426 848.4425,219.9136 C917.5865,145.1416 916.2155,268.7056 966.6645,211.6276 C990.7185,188.6766 1006.4535,208.0326 1024.4715,217.7756 C1030.3925,213.2436 1036.2945,198.3216 1044.3405,202.6316 C1050.1605,207.8116 1057.9345,214.3746 1053.4465,224.3366 C1041.6625,243.0806 1028.1725,267.9436 1013.7985,232.5016 C1005.7225,216.2446 995.9475,224.8856 987.8725,228.4286 C924.0835,296.7126 917.0225,169.4856 861.5165,228.5386 C823.2785,269.0636 786.4335,176.5946 749.4005,225.7336 C714.6165,272.7386 695.0565,187.4076 663.4605,213.7636 C613.0875,289.5076 580.8785,161.6786 527.8945,238.6356 C491.5945,283.0526 473.3615,162.3126 438.3505,227.2576 C426.5065,244.5026 413.9445,249.4256 400.1305,240.2356 C347.8535,150.2376 351.7255,290.4146 297.6415,228.3526 C274.0185,204.9766 261.3045,205.5306 238.1455,230.9446 C192.4915,288.5616 170.3635,166.6066 129.7725,227.2256 C103.8885,271.1616 79.6185,202.3396 48.8245,224.7626 C-21.3495,292.2946 7.9025,209.5806 56.0335,204.7366" id="Fill-14" fill="#46CAFB"/><path d="M985.1248,1093.9388 C970.9188,1093.9508 959.1318,1098.6018 950.1798,1110.1928 C923.3098,1139.0948 907.2418,1055.5028 864.8118,1110.2978 C823.6748,1158.7338 776.9208,1041.2648 726.3778,1103.5718 C683.4008,1139.9618 643.8758,1049.7548 603.7948,1117.7988 C565.0488,1142.5128 540.8218,1047.9718 497.2778,1088.4938 C436.7328,1168.1718 411.5308,1044.2838 362.1428,1108.0708 C328.2438,1156.1498 307.4358,1064.2278 267.0808,1094.5168 C209.7858,1171.8078 213.3278,1049.7788 157.8498,1090.6168 C94.1018,1144.5878 102.3148,1088.6928 68.7568,1086.6018 C60.1888,1087.8508 61.2008,1103.0498 54.5358,1108.0988 C38.0118,1137.2038 -7.0152,1096.2348 12.1218,1076.1918 C26.0818,1086.2038 28.7168,1117.9238 45.1928,1088.8078 C50.3698,1064.6518 85.2688,1071.3888 94.1478,1090.7608 C100.1278,1103.8818 118.6748,1106.9258 129.8998,1097.0208 C149.4538,1078.9528 177.1668,1053.3138 199.1178,1081.8728 C209.5458,1090.0378 224.5868,1122.0718 237.7738,1100.6738 C253.4168,1072.4008 301.6688,1065.1478 317.0238,1095.7428 C337.3728,1132.3318 368.7858,1028.0138 417.4908,1083.4198 C470.7058,1135.9198 507.9978,1008.7798 571.4508,1102.3038 C579.6788,1111.5628 586.6098,1106.5208 592.6808,1099.8358 C634.9578,1036.0998 677.1508,1119.4348 721.9878,1085.6558 C766.5958,1046.0958 795.0098,1097.7668 835.9508,1109.4638 C851.3748,1108.9218 857.6828,1095.4198 868.7108,1088.7568 C909.5688,1056.1628 921.8448,1121.2178 943.6288,1092.4418 C956.3308,1067.3988 1047.1638,1083.4558 1017.8918,1113.4918 C1006.2738,1096.9858 1010.7528,1093.6888 985.1248,1093.9388" id="Fill-16" fill="#44CAFB"/><path d="M586.5691,941.6742 C573.7951,941.6122 567.4391,952.4282 558.8271,958.9142 C516.5051,987.0162 505.7731,891.0342 469.4741,955.5372 C454.3551,972.9102 442.8651,949.7092 432.7041,939.2662 C417.1911,921.7262 400.7261,945.7992 387.5301,954.5912 C362.4341,981.9082 336.6301,948.7962 306.7851,937.9502 C254.3831,940.1362 286.1781,1002.3642 216.5191,942.4292 C189.1341,932.8682 167.9021,989.9072 142.1351,950.0452 C103.6951,902.8032 93.9881,997.3342 66.8211,959.9302 C33.9231,918.9062 17.7911,1016.3482 8.6201,964.0732 C41.1631,879.8852 67.5691,970.9592 84.2641,940.0042 C124.0901,887.0772 145.6631,975.7952 182.8181,939.2632 C229.3191,897.9242 236.3531,993.6852 280.4891,927.9922 C322.8021,903.5912 350.7761,984.3212 388.8831,936.0152 C435.3571,884.5642 438.0781,975.2272 467.3661,934.5352 C474.6571,926.2172 481.6541,916.7792 494.9431,917.0152 C525.3471,932.9982 532.2961,967.5902 566.7631,932.2022 C602.5761,904.9002 609.0851,970.2472 629.5421,935.7962 C665.4551,885.8262 707.2541,973.0922 746.6391,927.7202 C772.5701,903.7972 795.0951,933.1952 817.3281,946.2422 C845.8141,962.9112 863.7101,924.5822 889.6201,922.1892 C921.0881,916.1772 936.8731,973.5972 945.3911,956.3062 C953.6211,944.2122 964.8821,934.7572 978.4911,929.9092 C1003.2011,916.3872 1009.8551,964.3072 1024.9631,951.8332 C1031.1291,945.9402 1037.7721,933.3402 1047.4391,936.6642 C1066.0641,951.1252 1018.2241,991.0702 1011.3791,962.1822 C983.0821,890.7862 952.2681,1012.4942 925.3551,954.8162 C899.6241,908.7702 874.2931,950.4282 849.0681,967.5212 C835.5851,974.2572 824.3011,964.6792 813.6381,957.5262 C749.4011,888.6912 747.3141,995.6052 685.2621,938.2532 C645.2141,906.3642 636.8971,983.6212 611.3401,960.2572 C598.6191,943.4792 596.3091,941.7542 586.5691,941.6742" id="Fill-18" fill="#46CAFB"/><path d="M786.9133,69.2845 C744.9983,60.3445 727.9943,112.3635 688.8113,80.4245 C647.7413,38.3045 632.8113,125.2625 591.2013,92.7885 C547.5803,37.6885 514.8363,128.5065 474.7483,88.1815 C445.1353,66.0085 444.1813,64.7455 414.3483,87.2845 C373.0423,133.2395 354.6283,51.0325 306.9493,84.6255 C292.2673,93.1005 277.3673,102.7515 259.7173,102.7115 C221.0813,103.9825 196.8663,39.7735 157.3473,72.8875 C145.0103,85.2535 131.7793,94.8325 113.6433,97.0225 C59.4033,88.3885 77.2423,58.4555 15.3793,96.0525 C8.9273,65.8455 59.6903,52.6785 81.2173,72.3705 C100.6613,87.3305 119.2733,88.0385 136.0943,70.0305 C190.5133,13.4375 218.6033,103.4875 266.0663,83.7525 C378.4713,13.8315 333.4483,129.8375 420.8023,57.0635 C465.9573,34.4555 474.2243,107.6245 514.8223,72.1185 C536.3593,59.0655 564.4553,53.3615 587.9443,77.4935 C618.6703,105.7805 642.7163,38.9145 676.4133,61.3255 C722.8173,98.4235 779.6503,25.2525 828.0203,73.0595 C871.1343,116.8965 916.9503,11.3785 966.2293,82.9505 C990.3073,107.3395 1009.0303,22.7495 1050.0473,77.3255 C1052.2443,93.3075 1024.6793,60.8085 1009.1023,89.9025 C969.7933,134.9245 942.3413,36.1315 898.7593,82.1705 C846.0343,140.2755 833.8733,69.0035 786.9133,69.2845" id="Fill-20" fill="#46CAFB"/><path d="M32.8572,0.00401824847 C335.9392,-0.0458 639.5692,10.2372 942.8812,10.1652 C974.2112,11.7432 1023.3942,-10.9418 1045.9192,14.6962 C785.8142,29.1282 511.6332,13.3472 247.0632,21.3612 C226.1142,17.6692 -83.1828,24.5952 32.8572,0.00401824847" id="Fill-22" fill="#FFB680"/><path d="M31.5056,150.8704 C245.3146,138.6604 460.6076,153.2914 675.0016,152.7274 C789.5646,150.0654 903.6986,146.2094 1018.2216,143.4354 C1024.3346,143.1124 1033.9636,149.0134 1031.9746,155.4444 C727.1226,176.3894 260.5706,165.3954 31.5056,150.8704" id="Fill-24" fill="#FFB680"/><path d="M215.6497,301.3167 C197.9397,292.0297 -48.7793,323.1697 18.9267,290.7627 C240.3497,277.3347 461.5897,285.5707 682.9717,291.5367 C793.0827,288.5687 902.9997,294.7027 1013.0157,294.0737 C1024.6947,292.7577 1030.0307,307.5767 1015.4567,303.6467 C748.9027,309.4547 481.8687,289.1167 215.6497,301.3167" id="Fill-26" fill="#FFB680"/><path d="M65.9773,1019.2191 C265.1033,1006.5331 463.9923,1008.5041 663.3903,1012.0971 C782.4113,1016.4011 907.9193,1001.7721 1023.2583,1019.3301 C756.4833,1040.3531 439.5703,1005.3821 156.6133,1029.4741 C113.1833,1033.3281 -54.4157,1031.1071 65.9773,1019.2191" id="Fill-28" fill="#FFB680"/><path d="M37.0799,439.0267 C224.4109,425.8227 412.2129,427.5477 599.8909,430.1757 C740.8129,433.7787 895.4929,417.4547 1029.8629,444.0307 C763.3549,446.7447 486.7519,430.4607 216.9549,443.4617 C194.6299,447.0987 -93.5111,456.0467 37.0799,439.0267" id="Fill-30" fill="#FFB680"/><path d="M52.7781,1161.3324 C239.4211,1158.5954 425.1801,1153.9034 611.7971,1160.1574 C746.9431,1166.3434 884.8321,1141.7644 1018.7271,1159.8574 C858.7351,1176.4084 647.9541,1166.4434 470.9821,1169.0654 C319.7851,1161.6914 168.5041,1184.6354 17.3591,1175.1034 C13.3641,1174.9334 6.2641,1175.6794 6.5841,1169.9564 C13.4621,1156.6734 49.5111,1174.9734 52.7781,1161.3324" id="Fill-32" fill="#FFB680"/><path d="M1023.5999,875.9095 C684.5079,857.0605 335.3259,903.6115 1.7549,877.9935 C227.2569,866.8885 468.5549,863.5425 699.2859,864.6995 C795.0799,868.9545 965.1359,849.1035 1023.5999,875.9095" id="Fill-34" fill="#FFB680"/><path d="M1011.2039,590.6302 C675.4569,585.6222 334.1339,593.1992 1.0739,591.0832 C199.3449,571.8442 416.0419,581.3132 620.3859,573.5862 C659.0429,578.0302 1082.3099,575.4042 1011.2039,590.6302" id="Fill-36" fill="#FFB680"/><path d="M22.3069,726.0082 C354.9799,733.0382 689.0799,712.8222 1021.3269,731.6592 C845.3849,749.1652 603.4529,725.7612 405.4849,734.6212 C379.6659,731.1432 -81.5051,753.8122 22.3069,726.0082" id="Fill-38" fill="#FFB680"/><path d="M997.574,1311.807 C782.845,1311.978 567.873,1309.429 353.982,1310.119 C238.74,1308.317 114.568,1331.001 3.494,1310.114 C264.251,1302.992 536.762,1297.398 801.82,1301.686 C820.526,1293.539 1105.104,1304.764 997.574,1311.807" id="Fill-40" fill="#FFB680"/><path d="M28.5657,1454.2962 C358.6547,1444.2682 697.0717,1439.4622 1023.7467,1452.8262 C847.0247,1479.0912 659.4397,1448.7262 478.7827,1454.4952 C322.3147,1448.4892 165.1277,1463.1092 9.1867,1458.7422 C1.6437,1453.2992 24.8997,1455.4412 28.5657,1454.2962" id="Fill-42" fill="#FFB680"/><path d="M542.4031,1220.4193 C541.7351,1223.9493 541.0501,1223.2033 538.0971,1221.6803 C521.7621,1221.9063 531.8941,1217.6823 542.4031,1220.4193" id="Fill-44" fill="#46CAFB"/><path d="M261.0774,1374.5931 C259.9214,1368.9661 267.5424,1370.0021 267.6194,1374.9331 C265.4394,1374.8201 263.2584,1374.7061 261.0774,1374.5931" id="Fill-46" fill="#46CAFB"/><path d="M6.9217,531.3275 C7.6847,533.5375 8.4477,535.7465 9.2107,537.9565 C4.0537,537.2645 5.9447,534.1385 6.9217,531.3275" id="Fill-48" fill="#46CAFB"/><path d="M12.4959,538.7758 C14.2349,536.7808 14.7699,537.7098 15.7689,539.7358 C14.6789,539.4148 13.5869,539.0948 12.4959,538.7758" id="Fill-50" fill="#46CAFB"/><path d="M562.0105,1222.7035 C560.3975,1225.4385 559.4335,1224.5375 558.7405,1222.1185 C559.8305,1222.3135 560.9205,1222.5085 562.0105,1222.7035" id="Fill-52" fill="#46CAFB"/><path d="M556.9436,1222.058 C555.3926,1221.791 553.8406,1221.526 552.2896,1221.259 C553.8406,1221.526 555.3926,1221.791 556.9436,1222.058" id="Fill-54" fill="#46CAFB"/><path d="M13.6126,533.8539 C13.5476,535.3769 12.3646,534.6639 13.5386,533.7809 L13.6126,533.8539 Z" id="Fill-56" fill="#46CAFB"/><path d="M8.5623,532.4847 C8.8763,532.5277 8.9563,532.7167 8.7443,532.9577 C8.4553,532.9897 8.3973,532.7447 8.5623,532.4847" id="Fill-58" fill="#46CAFB"/><path d="M13.5388,533.7806 C13.6218,533.6616 13.7048,533.5426 13.7878,533.4236 C13.7038,533.5346 13.6758,533.9426 13.5388,533.7806" id="Fill-60" fill="#46CAFB"/><path d="M564.1453,1225.9701 C564.4373,1226.2971 565.0213,1226.7561 564.4523,1227.0731 C563.5753,1226.8931 563.5243,1226.5971 564.1453,1225.9701" id="Fill-62" fill="#46CAFB"/></g></g></g></g></svg>