<svg width="32" height="50"  viewBox="0 0 32 50" fill="none" xmlns="http://www.w3.org/2000/svg">
<path d="M16.0406 50C15.536 50 15.1094 49.429 14.9872 48.664C14.5976 46.2258 13.8519 43.6328 12.75 40.8855C11.4444 37.5868 9.58333 34.527 7.16667 31.7057C5.06478 29.2235 2.9629 27.5308 0.861021 26.6278C0.363208 26.414 0 25.7242 0 24.9175C0 24.1266 0.349237 23.4449 0.835957 23.2277C2.89672 22.3084 4.88195 20.8158 6.79166 18.75C8.98611 16.3628 10.8194 13.4983 12.2917 10.1562C13.5941 7.17913 14.4881 4.2347 14.9738 1.32302C15.101 0.560237 15.5308 0 16.0354 0C16.5454 0 16.9782 0.572645 17.1024 1.34582C17.3827 3.09135 17.8208 4.878 18.4166 6.70573C19.1667 8.96268 20.125 11.1328 21.2917 13.2162C22.4861 15.2561 23.8195 17.1007 25.2917 18.75C27.2155 20.8808 29.1712 22.3778 31.159 23.241C31.6467 23.4527 32 24.1311 32 24.9219C32 25.7245 31.636 26.4085 31.1406 26.6208C29.8806 27.1605 28.5837 28.031 27.2501 29.2318C25.6389 30.7075 24.1389 32.4652 22.7499 34.5052C21.3611 36.5017 20.2222 38.6068 19.3333 40.8203C18.2293 43.5733 17.4827 46.1863 17.0939 48.6598C16.9733 49.427 16.5461 50 16.0406 50Z" fill="#060A23"/>
</svg>
