<svg viewBox="566.875 448.344827586207 680.2499999999995 679.3103448275858" fill="none" xmlns="http://www.w3.org/2000/svg" xmlns:xlink="http://www.w3.org/1999/xlink" overflow="visible" width="680.2499999999995px" height="679.3103448275858px"><g id="Master/Emoji/Sad Eyes"><g id="Group 4"><circle id="Oval" cx="907.5" cy="788.5" r="332.5" fill="#FFE044"/><path id="Oval Copy" fill-rule="evenodd" clip-rule="evenodd" d="M1241 788.5C1241 604.865 1092.13 456 908.5 456C724.865 456 576 604.865 576 788.5C576 972.135 724.865 1121 908.5 1121C1092.13 1121 1241 972.135 1241 788.5ZM580 788.5C580 607.074 727.074 460 908.5 460C1089.93 460 1237 607.074 1237 788.5C1237 969.926 1089.93 1117 908.5 1117C727.074 1117 580 969.926 580 788.5Z" fill="black"/><path id="Path 90" fill-rule="evenodd" clip-rule="evenodd" d="M664.638 948.22C664.638 948.22 661.362 961.823 664.638 967.377C697.44 1023 752.067 1057.11 809.606 1073.53C904.533 1100.62 774.606 1000.66 735.991 948.22C697.376 895.78 664.638 948.22 664.638 948.22Z" fill="white"/></g><g id="Group 3"><path id="Path 170" fill-rule="evenodd" clip-rule="evenodd" d="M918.21 749C963.701 749 990.133 785.816 984.796 806.993C979.458 828.171 949.771 835.77 934.695 818.289C920.099 802.019 916.956 825.765 889.819 825.765C862.351 825.765 858 811.597 858 799.102C858 799.102 858.858 790.399 860.123 787.244C870.838 760.525 891.086 749 918.21 749Z" fill="black"/><path id="Path 171" fill-rule="evenodd" clip-rule="evenodd" d="M893.344 757V761.47C893.344 766.993 897.821 771.47 903.344 771.47H932.001C937.524 771.47 942.001 766.993 942.001 761.47V757C942.001 757 931.161 753.236 916.623 753.236C902.086 753.236 893.344 757 893.344 757Z" fill="white"/></g><g id="Group 2"><g id="Group"><path id="Combined Shape" fill-rule="evenodd" clip-rule="evenodd" d="M851.277 749.319C851.297 748.587 851.308 747.85 851.308 747.11C851.308 720.523 838.017 698.97 821.621 698.97C805.226 698.97 791.935 720.523 791.935 747.11V761.072C791.935 761.072 792.385 768.848 790.328 783.361C789.199 791.318 789.816 797.991 790.463 805.008C790.997 810.791 791.553 816.808 791.172 823.97C790.821 830.547 790.282 835.654 789.772 840.494C789.051 847.32 788.387 853.617 788.387 862.761C788.387 870.742 789.681 877.854 790.948 884.814C792.162 891.482 793.35 898.011 793.35 905.03C793.35 919.375 790.328 946.287 790.328 946.287C790.328 946.287 799.539 936.912 807.806 942.941C816.072 948.97 822.894 950.954 832.378 946.287C841.862 941.619 851.308 948.97 851.308 948.97C851.308 948.97 848.409 926.442 851.308 905.03C853.289 890.4 852.563 878.173 851.904 867.081C851.599 861.939 851.308 857.041 851.308 852.261C851.308 844.854 852.049 837.18 852.804 829.364C853.588 821.253 854.387 812.989 854.387 804.711C854.387 796.485 853.598 786.517 852.819 776.669C852.059 767.059 851.308 757.564 851.308 749.917C851.308 749.713 851.297 749.514 851.277 749.319Z" fill="#0089FF"/><path id="Path 172 (Stroke)" fill-rule="evenodd" clip-rule="evenodd" d="M806.012 761.092C806.013 761.094 806.014 761.096 807.707 760.031C809.4 758.967 809.401 758.968 809.402 758.97L809.405 758.974L809.41 758.983L809.421 759.001C809.429 759.014 809.438 759.029 809.447 759.045C809.467 759.078 809.489 759.117 809.513 759.164C809.563 759.256 809.623 759.376 809.692 759.527C809.829 759.828 809.998 760.252 810.176 760.821C810.534 761.959 810.932 763.68 811.193 766.177C811.715 771.165 811.697 779.294 809.683 792.133C807.734 804.553 808.876 811.743 810.491 818.299C810.775 819.45 811.077 820.593 811.383 821.75C812.842 827.266 814.386 833.105 814.386 841.596C814.386 851.794 812.579 860.386 810.962 867.759C810.909 867.997 810.858 868.233 810.806 868.467C809.236 875.617 807.974 881.363 808.51 886.572C808.541 886.872 808.572 887.177 808.604 887.488C809.186 893.136 809.946 900.504 810.198 907.639C810.461 915.086 810.19 922.606 808.408 927.693L804.633 926.37C806.141 922.065 806.463 915.228 806.2 907.781C805.953 900.785 805.207 893.539 804.622 887.871C804.591 887.57 804.561 887.273 804.531 886.981C803.928 881.114 805.32 874.784 806.826 867.94C806.902 867.596 806.978 867.25 807.054 866.902C808.667 859.552 810.386 851.326 810.386 841.596C810.386 833.662 808.984 828.348 807.54 822.872C807.226 821.684 806.911 820.488 806.608 819.256C804.886 812.269 803.688 804.537 805.731 791.513C807.709 778.908 807.691 771.141 807.215 766.594C806.977 764.323 806.627 762.868 806.36 762.02C806.227 761.597 806.115 761.325 806.05 761.18C806.017 761.108 805.995 761.067 805.988 761.054C805.985 761.047 805.985 761.048 805.989 761.055L805.998 761.071L806.005 761.082L806.009 761.089L806.012 761.092Z" fill="black"/><path id="Path 172 Copy (Stroke)" fill-rule="evenodd" clip-rule="evenodd" d="M830.811 768.155C830.813 768.157 830.814 768.158 832.487 767.063C834.16 765.967 834.161 765.968 834.162 765.97L834.165 765.974L834.17 765.983L834.182 766.001C834.19 766.015 834.2 766.029 834.21 766.046C834.23 766.079 834.253 766.118 834.279 766.165C834.331 766.258 834.394 766.38 834.466 766.532C834.61 766.836 834.788 767.263 834.975 767.837C835.351 768.984 835.768 770.719 836.043 773.234C836.59 778.256 836.571 786.435 834.461 799.346C832.422 811.822 833.616 819.041 835.306 825.626C835.603 826.781 835.919 827.929 836.24 829.092C837.767 834.638 839.387 840.516 839.387 849.063H835.387C835.387 841.096 833.921 835.763 832.409 830.258C832.081 829.063 831.75 827.86 831.432 826.62C829.627 819.589 828.371 811.806 830.513 798.701C832.583 786.033 832.564 778.231 832.066 773.667C831.818 771.389 831.452 769.93 831.174 769.081C831.035 768.657 830.919 768.386 830.85 768.242C830.816 768.169 830.794 768.128 830.787 768.116C830.785 768.113 830.784 768.111 830.784 768.111C830.784 768.111 830.785 768.113 830.788 768.117L830.798 768.133L830.805 768.145L830.809 768.151L830.811 768.155Z" fill="black"/><path id="Path 172 Copy 2 (Stroke)" fill-rule="evenodd" clip-rule="evenodd" d="M825.665 907.855C825.666 907.853 825.668 907.851 827.363 908.913C829.058 909.974 829.059 909.972 829.06 909.97L829.063 909.966L829.068 909.958L829.079 909.939C829.087 909.926 829.096 909.911 829.105 909.895C829.124 909.862 829.146 909.823 829.171 909.776C829.221 909.684 829.281 909.563 829.349 909.412C829.486 909.109 829.655 908.683 829.834 908.111C830.192 906.968 830.59 905.236 830.852 902.724C831.375 897.706 831.357 889.526 829.339 876.604L825.387 877.221C827.369 889.91 827.351 897.73 826.874 902.309C826.635 904.596 826.284 906.062 826.016 906.917C825.883 907.344 825.771 907.618 825.704 907.764C825.671 907.838 825.65 907.879 825.642 907.893C825.641 907.896 825.64 907.897 825.64 907.897C825.64 907.897 825.641 907.896 825.643 907.892L825.652 907.876L825.659 907.865L825.663 907.858L825.665 907.855Z" fill="black"/></g><path id="Path 177" fill-rule="evenodd" clip-rule="evenodd" d="M780.988 682.7L785.727 715.677L842.774 701.529L831.188 692.019L780.988 682.7Z" fill="#FFE044"/><path id="Path 176" d="M774.153 680.94L774.842 677L876.758 694.84L774.995 720.983L774 717.108L857.796 695.581L774.153 680.94Z" fill="black"/></g><g id="Group 2 Copy"><g id="Group_2"><path id="Combined Shape_2" fill-rule="evenodd" clip-rule="evenodd" d="M988.723 749.319C988.703 748.587 988.692 747.85 988.692 747.11C988.692 720.523 1001.98 698.97 1018.38 698.97C1034.77 698.97 1048.07 720.523 1048.07 747.11V761.072C1048.07 761.072 1047.61 768.848 1049.67 783.361C1050.8 791.318 1050.18 797.991 1049.54 805.008C1049 810.791 1048.45 816.808 1048.83 823.97C1049.18 830.547 1049.72 835.654 1050.23 840.494C1050.95 847.32 1051.61 853.617 1051.61 862.761C1051.61 870.742 1050.32 877.854 1049.05 884.814C1047.84 891.482 1046.65 898.011 1046.65 905.03C1046.65 919.375 1049.67 946.287 1049.67 946.287C1049.67 946.287 1040.46 936.912 1032.19 942.941C1023.93 948.97 1017.11 950.954 1007.62 946.287C998.138 941.619 988.692 948.97 988.692 948.97C988.692 948.97 991.591 926.442 988.692 905.03C986.711 890.4 987.437 878.173 988.096 867.081C988.401 861.939 988.692 857.041 988.692 852.261C988.692 844.854 987.951 837.18 987.196 829.364C986.412 821.253 985.613 812.989 985.613 804.711C985.613 796.485 986.402 786.517 987.181 776.669C987.941 767.059 988.692 757.564 988.692 749.917C988.692 749.713 988.703 749.514 988.723 749.319Z" fill="#0089FF"/><path id="Path 172 (Stroke)_2" fill-rule="evenodd" clip-rule="evenodd" d="M1033.99 761.092C1033.99 761.094 1033.99 761.096 1032.29 760.031C1030.6 758.967 1030.6 758.968 1030.6 758.97L1030.6 758.974L1030.59 758.983L1030.58 759.001C1030.57 759.014 1030.56 759.029 1030.55 759.045C1030.53 759.078 1030.51 759.117 1030.49 759.164C1030.44 759.256 1030.38 759.376 1030.31 759.527C1030.17 759.828 1030 760.252 1029.82 760.821C1029.47 761.959 1029.07 763.68 1028.81 766.177C1028.29 771.165 1028.3 779.294 1030.32 792.133C1032.27 804.553 1031.12 811.743 1029.51 818.299C1029.23 819.45 1028.92 820.593 1028.62 821.75C1027.16 827.266 1025.61 833.105 1025.61 841.596C1025.61 851.794 1027.42 860.386 1029.04 867.759C1029.09 867.997 1029.14 868.233 1029.19 868.467C1030.76 875.617 1032.03 881.363 1031.49 886.572C1031.46 886.872 1031.43 887.177 1031.4 887.488C1030.81 893.136 1030.05 900.504 1029.8 907.639C1029.54 915.086 1029.81 922.606 1031.59 927.693L1035.37 926.37C1033.86 922.065 1033.54 915.228 1033.8 907.781C1034.05 900.785 1034.79 893.539 1035.38 887.871C1035.41 887.57 1035.44 887.273 1035.47 886.981C1036.07 881.114 1034.68 874.784 1033.17 867.94C1033.1 867.596 1033.02 867.25 1032.95 866.902C1031.33 859.552 1029.61 851.326 1029.61 841.596C1029.61 833.662 1031.02 828.348 1032.46 822.872C1032.77 821.684 1033.09 820.488 1033.39 819.256C1035.11 812.269 1036.31 804.537 1034.27 791.513C1032.29 778.908 1032.31 771.141 1032.79 766.594C1033.02 764.323 1033.37 762.868 1033.64 762.02C1033.77 761.597 1033.88 761.325 1033.95 761.18C1033.98 761.108 1034 761.067 1034.01 761.054C1034.02 761.047 1034.02 761.048 1034.01 761.055L1034 761.071L1033.99 761.082L1033.99 761.089L1033.99 761.092Z" fill="black"/><path id="Path 172 Copy (Stroke)_2" fill-rule="evenodd" clip-rule="evenodd" d="M1009.19 768.155C1009.19 768.157 1009.19 768.158 1007.51 767.063C1005.84 765.967 1005.84 765.968 1005.84 765.97L1005.84 765.974L1005.83 765.983L1005.82 766.001C1005.81 766.015 1005.8 766.029 1005.79 766.046C1005.77 766.079 1005.75 766.118 1005.72 766.165C1005.67 766.258 1005.61 766.38 1005.53 766.532C1005.39 766.836 1005.21 767.263 1005.02 767.837C1004.65 768.984 1004.23 770.719 1003.96 773.234C1003.41 778.256 1003.43 786.435 1005.54 799.346C1007.58 811.822 1006.38 819.041 1004.69 825.626C1004.4 826.781 1004.08 827.929 1003.76 829.092C1002.23 834.638 1000.61 840.516 1000.61 849.063H1004.61C1004.61 841.096 1006.08 835.763 1007.59 830.258C1007.92 829.063 1008.25 827.86 1008.57 826.62C1010.37 819.589 1011.63 811.806 1009.49 798.701C1007.42 786.033 1007.44 778.231 1007.93 773.667C1008.18 771.389 1008.55 769.93 1008.83 769.081C1008.96 768.657 1009.08 768.386 1009.15 768.242C1009.18 768.169 1009.21 768.128 1009.21 768.116C1009.21 768.113 1009.22 768.111 1009.22 768.111C1009.22 768.111 1009.21 768.113 1009.21 768.117L1009.2 768.133L1009.2 768.145L1009.19 768.151L1009.19 768.155Z" fill="black"/><path id="Path 172 Copy 2 (Stroke)_2" fill-rule="evenodd" clip-rule="evenodd" d="M1014.33 907.855C1014.33 907.853 1014.33 907.851 1012.64 908.913C1010.94 909.974 1010.94 909.972 1010.94 909.97L1010.94 909.966L1010.93 909.958L1010.92 909.939C1010.91 909.926 1010.9 909.911 1010.89 909.895C1010.88 909.862 1010.85 909.823 1010.83 909.776C1010.78 909.684 1010.72 909.563 1010.65 909.412C1010.51 909.109 1010.34 908.683 1010.17 908.111C1009.81 906.968 1009.41 905.236 1009.15 902.724C1008.63 897.706 1008.64 889.526 1010.66 876.604L1014.61 877.221C1012.63 889.91 1012.65 897.73 1013.13 902.309C1013.36 904.596 1013.72 906.062 1013.98 906.917C1014.12 907.344 1014.23 907.618 1014.3 907.764C1014.33 907.838 1014.35 907.879 1014.36 907.893C1014.36 907.896 1014.36 907.897 1014.36 907.897C1014.36 907.897 1014.36 907.896 1014.36 907.892L1014.35 907.876L1014.34 907.865L1014.34 907.858L1014.33 907.855Z" fill="black"/></g><path id="Path 177_2" fill-rule="evenodd" clip-rule="evenodd" d="M1059.01 682.7L1054.27 715.677L997.226 701.529L1008.81 692.019L1059.01 682.7Z" fill="#FFE044"/><path id="Path 176_2" d="M1065.85 680.94L1065.16 677L963.242 694.84L1065 720.983L1066 717.108L982.204 695.581L1065.85 680.94Z" fill="black"/></g></g></svg>