<svg viewBox="566.875 448.344827586207 680.2499999999995 679.3103448275858" fill="none" xmlns="http://www.w3.org/2000/svg" xmlns:xlink="http://www.w3.org/1999/xlink" overflow="visible" width="680.2499999999995px" height="679.3103448275858px"><g id="Master/Emoji/Sad"><g id="Group 4 Copy"><circle id="Oval" cx="906.5" cy="788.5" r="332.5" fill="#FFE044"/><path id="Oval Copy" fill-rule="evenodd" clip-rule="evenodd" d="M1240 788.5C1240 604.865 1091.13 456 907.5 456C723.865 456 575 604.865 575 788.5C575 972.135 723.865 1121 907.5 1121C1091.13 1121 1240 972.135 1240 788.5ZM579 788.5C579 607.074 726.074 460 907.5 460C1088.93 460 1236 607.074 1236 788.5C1236 969.926 1088.93 1117 907.5 1117C726.074 1117 579 969.926 579 788.5Z" fill="black"/><g id="Group 3"><ellipse id="Oval_2" cx="840" cy="649" rx="45" ry="64" fill="white"/><path id="Oval Copy 2" fill-rule="evenodd" clip-rule="evenodd" d="M885 649C885 613.654 864.853 585 840 585C815.147 585 795 613.654 795 649C795 684.346 815.147 713 840 713C864.853 713 885 684.346 885 649ZM799 649C799 615.623 817.719 589 840 589C862.281 589 881 615.623 881 649C881 682.377 862.281 709 840 709C817.719 709 799 682.377 799 649Z" fill="black"/><ellipse id="Oval Copy 4" cx="978" cy="649" rx="45" ry="64" fill="white"/><path id="Oval Copy 6" fill-rule="evenodd" clip-rule="evenodd" d="M1023 649C1023 613.654 1002.85 585 978 585C953.147 585 933 613.654 933 649C933 684.346 953.147 713 978 713C1002.85 713 1023 684.346 1023 649ZM937 649C937 615.623 955.719 589 978 589C1000.28 589 1019 615.623 1019 649C1019 682.377 1000.28 709 978 709C955.719 709 937 682.377 937 649Z" fill="black"/><ellipse id="Oval Copy 3" cx="840.5" cy="675.5" rx="32.5" ry="37.5" fill="black"/><ellipse id="Oval Copy 5" cx="978.5" cy="675.5" rx="32.5" ry="37.5" fill="black"/></g><path id="Path 90" fill-rule="evenodd" clip-rule="evenodd" d="M663.638 948.22C663.638 948.22 660.362 961.823 663.638 967.377C696.44 1023 751.067 1057.11 808.606 1073.53C903.533 1100.62 773.606 1000.66 734.991 948.22C696.376 895.78 663.638 948.22 663.638 948.22Z" fill="white"/></g><path id="Path 105" d="M909.001 765.608C961.457 765.608 996.045 784.488 1012.36 822.221L1012.85 823.371L1009.16 824.914C993.729 788.034 960.484 769.608 909.001 769.608C857.985 769.608 822.965 787.716 803.619 823.961L803.037 825.065L799.488 823.22C819.447 784.821 856.063 765.608 909.001 765.608Z" fill="black"/></g></svg>