<svg viewBox="148.76497005988028 252.78750000000002 458.4580838323353 505.57500000000005" xmlns="http://www.w3.org/2000/svg" xmlns:xlink="http://www.w3.org/1999/xlink" overflow="visible" width="458.4580838323353px" height="505.57500000000005px"><defs><polygon id="mastercharactersitting-path-1" points="0.644 0.0174503817 98.896 0.0174503817 98.896 28.4488725 0.644 28.4488725"/><path d="M0.611,4.152 C0.516,6.977 4.407,8.141 8.572,9.455 L8.572,9.455 C16.217,11.868 20.367,12.194 21.052,9.038 L21.052,9.038 C21.453,7.193 20.288,5.826 18.679,5.317 L18.679,5.317 C17.91,5.073 16.958,4.844 15.818,4.517 L15.818,4.517 C15.818,4.517 12.448,3.701 6.92,1.517 L6.92,1.517 C6.885,1.502 6.85,1.488 6.813,1.475 L6.813,1.475 C5.923,1.139 5.098,0.988999462 4.36,0.988999462 L4.36,0.988999462 C2.113,0.988 0.672,2.381 0.611,4.152 L0.611,4.152 Z" id="mastercharactersitting-path-3"/></defs><g id="Master/Character/Sitting" stroke="none" stroke-width="1" fill="none" fill-rule="evenodd"><g id="Sitting/Lower Body" transform="translate(204.000000, 488.000000) scale(1 1)"><defs><polygon id="sittinglower-bodyyellow-pants-path-1" points="0.644 0.0174503817 98.896 0.0174503817 98.896 28.4488725 0.644 28.4488725"/></defs><g id="Sitting/Lower Body/Yellow Pants" stroke="none" stroke-width="1" fill="none" fill-rule="evenodd"><g id="Group-100" transform="translate(51.000000, 7.000000)"><g id="Group-53"><path d="M318.3328,138.400044 L301.9128,146.654074 C298.2318,148.301196 293.2528,149.45486 289.6278,143.202776 L280.8118,127.99283 L240.9718,149.696257 L263.2498,187.347395 L342.5508,144.146066 C332.4868,129.990898 318.3328,138.400044 318.3328,138.400044" id="Fill-30" fill="#CB79AA"/><path d="M275.9236,195.983782 C281.1666,193.127737 279.1126,187.60566 279.1126,187.60566 C279.1126,187.60566 283.0576,192.097195 288.5916,189.082156 C294.1266,186.067118 293.1356,179.399134 293.1356,179.399134 C293.1356,179.399134 296.7726,183.689989 302.2816,181.624057 C307.7916,179.558126 306.1596,172.114569 306.1596,172.114569 C306.1596,172.114569 312.3966,176.260973 315.7136,174.38021 C319.0306,172.499447 321.0626,169.392309 318.9136,164.693309 C318.9136,164.693309 321.6526,171.072393 328.7886,167.183866 C335.9246,163.296309 332.8946,157.076218 332.8946,157.076218 C332.8946,157.076218 338.0856,162.194027 343.2956,159.281752 C348.5066,156.368508 345.4706,149.183798 345.4706,149.183798 C344.5526,147.248744 343.5716,145.583202 342.5506,144.145485 L263.2496,187.347782 C263.2496,187.347782 269.4816,199.493248 275.9236,195.983782" id="Fill-32" fill="#D5E1D5"/><polygon id="Fill-34" fill="#000" points="243.5633 154.076206 282.6763 131.20845 280.8123 127.992733 240.9723 149.69616"/><path d="M211.9671,221.255231 L191.7481,220.607628 C187.3291,220.273163 181.9431,218.815086 181.9431,211.120437 L181.9431,192.400056 L131.9581,192.400056 L132.3901,238.969308 L231.8841,238.969308 C230.1111,220.600842 211.9671,221.255231 211.9671,221.255231" id="Fill-36" fill="#CB79AA"/><path d="M139.7029,253.506057 C146.2809,253.506057 147.3739,247.29566 147.3739,247.29566 C147.3739,247.29566 148.6529,253.506057 155.5969,253.506057 C162.5399,253.506057 165.2809,246.764393 165.2809,246.764393 C165.2809,246.764393 166.3769,252.631599 172.7729,253.506057 C179.1679,254.380515 181.7259,246.586011 181.7259,246.586011 C181.7259,246.586011 185.3809,253.643721 189.5829,253.574889 C193.7859,253.506057 197.4409,251.634989 197.9889,246.143935 C197.9889,246.143935 197.0759,253.506057 206.0289,253.506057 C214.9819,253.506057 215.5309,246.143935 215.5309,246.143935 C215.5309,246.143935 217.6509,253.574889 224.2289,253.506057 C230.8069,253.437225 231.8839,245.169622 231.8839,245.169622 C232.0779,242.892347 232.0639,240.834172 231.8839,238.969889 L132.3909,238.969889 C132.3909,238.969889 131.6199,253.506057 139.7029,253.506057" id="Fill-38" fill="#D5E1D5"/><polygon id="Fill-40" fill="#000" points="132.1111 208.872731 181.9181 207.065647 181.9431 203.46796 132.0611 203.481533"/><path d="M282.8514,119.867544 C254.9984,77.090842 203.6304,26.5622924 98.8964,26.5622924 L98.8964,21.0285824 L0.6434,21.0285824 L0.6434,32.0960023 L0.6434,32.0960023 C0.6434,32.0960023 -0.4576,86.8533611 58.7464,91.4592924 L95.0834,96.3735137 C95.0834,96.3735137 124.4224,96.5897046 124.4224,124.920399 C124.4224,136.0043 125.7884,184.558048 125.4474,189.921132 C125.3494,191.461613 125.3034,194.564873 125.2824,197.357903 C125.2574,200.529025 127.9714,203.35017 131.6204,203.467476 C132.6164,203.500437 133.1234,203.467476 134.0404,203.467476 L181.9424,203.467476 C187.5134,203.467476 187.7114,199.383117 187.9384,193.906605 C188.1604,188.585208 190.9314,120.468613 180.5164,96.5538344 C180.5164,96.5538344 206.0284,99.5882618 231.0614,142.9893 L232.9044,146.25446 C234.9024,149.793979 239.4784,151.097911 243.1344,149.169644 L279.8364,129.807476 C283.5054,127.871453 285.0814,123.292666 282.8514,119.867544" id="Fill-42" fill="#E9DE2C"/><g id="Group-46"><mask id="sittinglower-bodyyellow-pants-mask-2" fill="#fff"><use xlink:href="#sittinglower-bodyyellow-pants-path-1"/></mask><g id="Clip-45"/><path d="M77.223,0.0173534351 L22.318,0.0173534351 C10.347,0.0173534351 0.644,9.42407863 0.644,21.0285824 L0.644,28.4488725 L98.896,26.5622924 L98.896,21.0285824 C98.896,9.42407863 89.193,0.0173534351 77.223,0.0173534351" id="Fill-44" fill="#E9DE2C" mask="url(#sittinglower-bodyyellow-pants-mask-2)"/></g><path d="M185.8162,122.315736 C185.1102,122.315736 184.5382,121.751507 184.5382,121.067064 C184.5382,120.448545 184.7962,119.938606 185.0042,119.528522 C185.0782,119.382133 185.1912,119.159156 185.2052,119.077721 C185.2022,119.009858 185.0872,118.75198 185.0042,118.564873 C184.8372,118.188721 184.6312,117.720469 184.6062,117.175629 C184.5892,116.825652 184.6022,116.475675 184.6182,116.125698 C184.6322,115.803835 184.6462,115.500392 184.6262,115.226034 C184.6042,114.939072 184.5472,114.631751 184.4872,114.30698 C184.4252,113.970576 184.3642,113.63514 184.3312,113.297766 C184.3112,113.099995 184.2232,112.845995 184.1292,112.577453 C184.0082,112.234263 183.8712,111.843568 183.8162,111.403431 C183.7342,110.758736 183.9642,110.20614 184.1492,109.762125 C184.2102,109.615736 184.3012,109.394698 184.3112,109.315202 C184.2852,109.19014 184.1782,108.943896 184.0662,108.68214 C183.9192,108.339919 183.7522,107.952133 183.6702,107.508118 C183.5822,107.028232 183.6192,106.587125 183.6502,106.199339 C183.6722,105.942431 183.6942,105.678736 183.6612,105.52653 C183.6052,105.261866 183.5002,104.974904 183.3892,104.670492 C183.2722,104.351537 183.1512,104.02095 183.0632,103.659339 C182.9132,103.046637 182.7442,102.438782 182.5782,101.841591 C182.5292,101.666118 182.3642,101.445079 182.2322,101.266698 C181.9932,100.945805 181.6942,100.545415 181.5382,100.040324 C181.4512,99.7611176 181.3742,99.4799725 181.2972,99.2007664 C181.2032,98.858545 181.1102,98.5172931 180.9942,98.1828275 C180.8372,97.7291176 180.8022,97.292858 180.7732,96.9089496 C180.7522,96.6413771 180.7332,96.3873771 180.6752,96.2371099 C180.5292,95.8532015 180.4452,95.4712321 180.3722,95.133858 C180.3082,94.8362321 180.2472,94.5560565 180.1572,94.3437435 C180.1192,94.2661863 179.9132,94.0752015 179.7772,93.949171 C179.4632,93.6573618 179.0732,93.2957511 178.8362,92.7819344 C178.6992,92.4843084 178.5322,92.2041328 178.3682,91.9258962 C178.2042,91.6457206 178.0402,91.3665145 177.8962,91.0776137 C177.6282,90.5453771 177.6112,89.9985985 177.5982,89.5604 C177.5932,89.391713 177.5862,89.135774 177.5562,89.0553084 C177.4722,88.9021328 177.2872,88.7033924 177.0902,88.4920489 C176.8362,88.2176901 176.5472,87.9084305 176.3192,87.5177359 C176.1562,87.2414382 176.0092,86.9554458 175.8632,86.6713924 C175.7122,86.3757053 175.5632,86.0800183 175.3862,85.8017817 C175.1522,85.4314458 175.0022,85.0514153 174.8682,84.7169496 C174.7612,84.4454992 174.6592,84.1885908 174.5432,84.0169954 C174.3402,83.7203389 174.1152,83.4362855 173.8922,83.1532015 C173.7072,82.9185908 173.5242,82.6859191 173.3512,82.4484 C173.2952,82.377629 173.0472,82.2302702 172.8832,82.1342931 C172.5182,81.9181023 172.0642,81.6495603 171.7182,81.2065145 C171.5122,80.9428198 171.2822,80.699484 171.0542,80.4561481 C170.8362,80.2244458 170.6202,79.991774 170.4172,79.7494076 C170.1482,79.4265756 169.9462,79.0882321 169.7682,78.7906061 C169.6152,78.5336977 169.4712,78.2923008 169.3202,78.1236137 C169.1452,77.9258427 168.9122,77.7329191 168.6662,77.5273924 C168.4002,77.3053847 168.1252,77.0765908 167.8612,76.7983542 C167.5002,76.4183237 167.2892,75.9810947 167.1192,75.6301481 C167.0172,75.419774 166.9012,75.1812855 166.8132,75.0930641 C166.6182,74.9011099 166.3712,74.7140031 166.1092,74.5172015 C165.8212,74.3010107 165.5352,74.0828809 165.2762,73.841484 C165.1272,73.7018809 164.8872,73.5642168 164.6332,73.4178275 C164.3142,73.2345985 163.9532,73.0261634 163.6182,72.7324153 C163.1782,72.3485069 162.9432,71.8695908 162.7552,71.484713 C162.6772,71.3257206 162.5602,71.0852931 162.4972,71.0242168 C162.4282,70.9708962 162.1502,70.8875221 161.9662,70.8322626 C161.5582,70.7091405 161.0492,70.5559649 160.6032,70.2088962 C160.3412,70.0062779 160.0622,69.8288656 159.7842,69.6524229 C159.5062,69.4740412 159.2302,69.2975985 158.9662,69.1027359 C158.5022,68.7634229 158.2222,68.3203771 157.9962,67.9636137 C157.8992,67.8094687 157.7512,67.5758275 157.6792,67.5205679 C157.6062,67.4798504 157.3332,67.4294382 157.1522,67.3964763 C156.7202,67.3169802 156.1822,67.2180947 155.6912,66.898171 C155.1752,66.5627359 154.8792,66.0915756 154.6402,65.711545 C154.5502,65.5700031 154.4162,65.3557511 154.3512,65.3004916 C154.2332,65.2297206 153.9692,65.1608885 153.7132,65.0949649 C153.3222,64.9922015 152.8782,64.8768351 152.4462,64.6257435 C152.1442,64.4502702 151.8312,64.3000031 151.5222,64.1497359 C151.2362,64.0101328 150.9512,63.8714992 150.6762,63.7212321 C150.4342,63.5893847 150.1482,63.4808046 149.8452,63.3644687 C149.5202,63.2413466 149.1832,63.1133771 148.8412,62.9379038 C148.4202,62.7207435 148.0862,62.4463847 147.7912,62.2049878 C147.5762,62.0275756 147.3732,61.8617969 147.2082,61.7813313 C146.7872,61.578713 146.4462,61.3179267 146.1452,61.0891328 C145.9192,60.9175374 145.7062,60.7556366 145.5322,60.6761405 C145.4252,60.6286366 145.1442,60.6102168 144.9182,60.5956748 C144.5072,60.5694992 143.9962,60.5355679 143.4962,60.3242244 C143.0172,60.1206366 142.6392,59.8181634 142.3342,59.5757969 C142.1392,59.4206824 141.9372,59.2607206 141.8092,59.2093389 C141.3882,59.0416214 140.9692,58.8913542 140.5602,58.7439954 L139.9352,58.516171 C139.2832,58.274774 138.6502,58.0556748 138.0482,57.8501481 C137.8412,57.7793771 137.5572,57.754171 137.2562,57.7289649 C136.8882,57.6969725 136.4692,57.6611023 136.0462,57.5282855 C135.4532,57.3411786 135.0202,56.9931405 134.6722,56.7139344 C134.5472,56.6140794 134.3572,56.4609038 134.2832,56.4298809 C134.0982,56.3765603 133.8112,56.3920718 133.5062,56.4085527 C133.1282,56.4260031 132.7012,56.4483008 132.2652,56.3377817 C131.4622,56.1380718 131.1122,55.934484 130.7952,55.7260489 C130.6802,55.6494611 130.6522,55.6320107 130.4182,55.5835374 C130.1272,55.5214916 130.0182,55.5331252 129.8012,55.5573618 C129.4842,55.5903237 129.0522,55.636858 128.3422,55.482713 C127.5842,55.3159649 127.1842,55.030942 126.9212,54.8409267 C126.7412,54.7148962 126.6882,54.6751481 126.4522,54.6247359 C126.0652,54.5394229 125.8862,54.5316672 125.6602,54.5210031 C125.3812,54.5084 125.0322,54.4919191 124.4272,54.3591023 C124.2102,54.3115985 124.1532,54.325171 123.9442,54.3707359 C123.6132,54.4424763 123.1152,54.552026 122.3372,54.3823695 C121.5822,54.2165908 121.1842,53.9354458 120.9212,53.7483389 C120.7452,53.6252168 120.6872,53.5835298 120.4482,53.5311786 C120.2342,53.4846443 120.1782,53.4972473 119.9642,53.5437817 C119.6332,53.6155221 119.1332,53.7241023 118.3532,53.5544458 C117.7012,53.4119344 117.3632,53.2461557 117.0912,53.1123695 C116.8952,53.0163924 116.7642,52.9514382 116.4212,52.8767893 C115.8362,52.7488198 115.5342,52.6373313 115.2692,52.5384458 C115.0492,52.4560412 114.8752,52.3920565 114.4682,52.3028656 C114.1832,52.2398504 114.0812,52.251484 113.8642,52.2776595 C113.5452,52.3125603 113.1102,52.3620031 112.4012,52.2068885 C111.7502,52.0643771 111.4122,51.8985985 111.1402,51.7667511 C110.9422,51.6698046 110.8112,51.6048504 110.4672,51.5302015 C109.6712,51.3556977 109.2632,51.0280183 108.9942,50.810858 C108.8262,50.6751328 108.7912,50.6460489 108.5942,50.6033924 C108.1992,50.5161405 108.0172,50.5074153 107.7872,50.4938427 C107.5112,50.4773618 107.1672,50.4579725 106.5672,50.3270947 C106.3402,50.2766824 106.2772,50.290255 106.0642,50.3329115 C105.7382,50.3998046 105.2442,50.4986901 104.4762,50.3309725 C104.0222,50.2311176 103.7912,50.1962168 103.5602,50.1622855 C103.2852,50.1215679 103.0112,50.0798809 102.4692,49.9625756 C101.9242,49.8423618 101.6562,49.7628656 101.3892,49.6833695 C101.1682,49.6174458 100.9472,49.5505527 100.4972,49.4536061 C99.8012,49.3014 99.4342,49.0881176 99.1662,48.9339725 C98.9752,48.8234534 98.8802,48.7681939 98.5802,48.7022702 C97.9182,48.5578198 97.5762,48.383316 97.3012,48.243713 C97.1022,48.1419191 96.9832,48.0808427 96.6492,48.0081328 C96.4442,47.9625679 96.4002,47.9732321 96.1842,48.0246137 C95.8472,48.1041099 95.3402,48.2233542 94.5512,48.0507893 C94.0862,47.9489954 93.8502,47.9092473 93.6152,47.8694992 C93.3472,47.8249038 93.0792,47.7793389 92.5492,47.6639725 C91.7672,47.4923771 91.3632,47.1811786 91.0952,46.9756519 C90.9212,46.8408962 90.8792,46.8098733 90.6662,46.7633389 C90.2362,46.6693008 90.0162,46.6450641 89.7962,46.6217969 C89.5232,46.5917435 89.2152,46.5578122 88.6482,46.4346901 C88.1762,46.3309573 87.9382,46.2883008 87.7002,46.2466137 C87.4352,46.2000794 87.1712,46.1525756 86.6462,46.0381786 C86.4782,46.0013389 86.4542,46.0090947 86.2382,46.0721099 C85.8852,46.1768122 85.3502,46.3338656 84.5222,46.1525756 C83.8452,46.0052168 83.4832,45.8122931 83.2192,45.6697817 C83.0222,45.5641099 82.9122,45.505942 82.5902,45.435171 C81.9012,45.2849038 81.4692,44.6208198 81.6252,43.9538275 C81.7802,43.2848962 82.4622,42.8670565 83.1532,43.0173237 C83.8302,43.1646824 84.1922,43.3585756 84.4552,43.5001176 C84.6532,43.6057893 84.7632,43.6639573 85.0852,43.7337588 C85.2532,43.7715679 85.2752,43.7647817 85.4922,43.7007969 C85.8462,43.5970641 86.3802,43.4390412 87.2092,43.6193618 C87.6812,43.7230947 87.9202,43.7657511 88.1572,43.8084076 C88.4222,43.8539725 88.6872,43.9005069 89.2112,44.0149038 C89.6412,44.108942 89.8612,44.1331786 90.0822,44.1574153 C90.3542,44.1874687 90.6622,44.2204305 91.2292,44.3445221 C92.0112,44.5161176 92.4162,44.8263466 92.6832,45.0328427 C92.8582,45.166629 92.8992,45.1986214 93.1122,45.2451557 C93.5802,45.3469496 93.8162,45.3866977 94.0522,45.4264458 C94.3192,45.4710412 94.5862,45.5166061 95.1142,45.6319725 C95.3172,45.6755985 95.3632,45.6668733 95.5802,45.6154916 C95.9162,45.5369649 96.4242,45.4177206 97.2122,45.5883466 C97.8752,45.7347359 98.2172,45.9092397 98.4912,46.0488427 C98.6902,46.1506366 98.8102,46.211713 99.1432,46.2834534 C99.8392,46.4356595 100.2062,46.6479725 100.4752,46.803087 C100.6662,46.9136061 100.7612,46.9688656 101.0612,47.0347893 C101.6062,47.1540336 101.8742,47.2335298 102.1412,47.3139954 C102.3622,47.3789496 102.5832,47.4448733 103.0322,47.5437588 C103.4872,47.6436137 103.7172,47.677545 103.9482,47.7114763 C104.2232,47.7521939 104.4982,47.7938809 105.0392,47.9121557 C105.2672,47.9625679 105.3302,47.948026 105.5432,47.9053695 C105.8682,47.8404153 106.3622,47.7405603 107.1302,47.9082779 C107.5252,47.9955298 107.7072,48.0052244 107.9382,48.0178275 C108.2132,48.0343084 108.5572,48.0536977 109.1572,48.1845756 C109.9542,48.3600489 110.3612,48.6877282 110.6302,48.9039191 C110.7982,49.0406137 110.8332,49.0687282 111.0302,49.1113847 C111.6812,49.2548656 112.0192,49.4196748 112.2922,49.5524916 C112.4902,49.6494382 112.6202,49.7124534 112.9642,49.7871023 C113.2502,49.851087 113.3502,49.8394534 113.5682,49.8142473 C113.8862,49.7793466 114.3202,49.7289344 115.0302,49.8840489 C115.6162,50.0129878 115.9182,50.1244763 116.1832,50.2233618 C116.4032,50.3047969 116.5772,50.3697511 116.9842,50.4579725 C117.6362,50.600484 117.9742,50.7672321 118.2462,50.9010183 C118.4432,50.9969954 118.5732,51.0609802 118.9162,51.135629 C119.1302,51.1831328 119.1892,51.1705298 119.4012,51.1239954 C119.7332,51.0512855 120.2342,50.9427053 121.0112,51.1123618 C121.7652,51.2781405 122.1642,51.5592855 122.4272,51.7454229 C122.6032,51.8695145 122.6612,51.9112015 122.8992,51.9635527 C123.1132,52.010087 123.1712,51.997484 123.3832,51.9519191 C123.7142,51.8811481 124.2142,51.770629 124.9902,51.9402855 C125.3782,52.0255985 125.5562,52.0343237 125.7822,52.0449878 C126.0612,52.0566214 126.4102,52.0731023 127.0152,52.2059191 C127.7742,52.3726672 128.1732,52.6567206 128.4372,52.8467359 C128.6162,52.9737359 128.6702,53.0125145 128.9052,53.0629267 C129.1972,53.1278809 129.2992,53.1152779 129.5202,53.0929802 C129.8342,53.0590489 130.2632,53.0144534 130.9592,53.1598733 C131.6232,53.2994763 131.9402,53.4827053 132.2322,53.6746595 C132.3612,53.7599725 132.4642,53.8278351 132.9032,53.9383542 C132.9772,53.9519267 133.2072,53.9402931 133.3752,53.9315679 C133.8322,53.9083008 134.4022,53.8801863 135.0222,54.056629 C135.5642,54.2098046 135.9742,54.5394229 136.3032,54.8050565 C136.4922,54.9572626 136.7072,55.128858 136.8342,55.1686061 C136.9832,55.2151405 137.2262,55.2374382 137.4842,55.2587664 C137.8872,55.2936672 138.3882,55.3363237 138.8992,55.5117969 C139.5202,55.7241099 140.1722,55.9509649 140.8462,56.2001176 L141.4532,56.4201863 C141.8862,56.5762702 142.3312,56.7372015 142.7782,56.9146137 C143.2622,57.1075374 143.6312,57.4012855 143.9572,57.6601328 C144.1682,57.8278504 144.3672,57.9868427 144.5242,58.0537359 C144.6132,58.091545 144.8872,58.1089954 145.0872,58.1215985 C145.5272,58.149713 146.0752,58.1855832 146.6162,58.4318275 C147.0542,58.6305679 147.4092,58.9000794 147.7232,59.1385679 C147.9482,59.3101634 148.1612,59.4720641 148.3492,59.5622244 C148.7912,59.7755069 149.1382,60.0614992 149.4442,60.3135603 C149.6592,60.4900031 149.8612,60.6548122 150.0392,60.7469115 C150.2752,60.8680947 150.5272,60.9611634 150.7802,61.0571405 C151.1342,61.1918962 151.5352,61.3450718 151.9302,61.5602931 C152.1712,61.6921405 152.4192,61.8123542 152.6692,61.9345069 C153.0342,62.1109496 153.4012,62.2912702 153.7582,62.4977664 C153.8862,62.5714458 154.1362,62.6364 154.3782,62.7003847 C154.7772,62.8031481 155.2732,62.9330565 155.7362,63.2180794 C156.2742,63.5486672 156.5782,64.0324305 156.8232,64.4202168 C156.9162,64.5675756 157.0552,64.7895832 157.1252,64.8448427 C157.1902,64.8797435 157.4532,64.9282168 157.6282,64.9602092 C158.0842,65.0435832 158.6502,65.147316 159.1642,65.5021405 C159.6532,65.840484 159.9432,66.2990412 160.1762,66.6684076 C160.2772,66.8274 160.4292,67.0678275 160.5072,67.1240565 C160.7282,67.2859573 160.9602,67.4342855 161.1932,67.5826137 C161.5352,67.801713 161.8772,68.0227511 162.2022,68.2738427 C162.2752,68.3281328 162.5452,68.4095679 162.7232,68.463858 C163.1542,68.5927969 163.6912,68.7546977 164.1572,69.1376366 C164.6272,69.5254229 164.8702,70.0227588 165.0662,70.4212092 C165.1462,70.5840794 165.2662,70.8312931 165.3322,70.8933389 C165.4782,71.0203389 165.7032,71.1502473 165.9402,71.286942 C166.2902,71.4876214 166.6852,71.7164153 167.0472,72.0518504 C167.2432,72.2350794 167.4612,72.3960107 167.6782,72.5598504 C167.9802,72.7876748 168.3232,73.0465221 168.6392,73.3577206 C169.0332,73.7464763 169.2552,74.2069725 169.4342,74.5773084 C169.5402,74.7944687 169.6492,75.0203542 169.7422,75.1182702 C169.9212,75.3082855 170.1282,75.4760031 170.3332,75.6456595 C170.6242,75.8889954 170.9552,76.1652931 171.2542,76.5007282 C171.5652,76.8487664 171.7872,77.2200718 171.9832,77.5496901 C172.1262,77.7901176 172.2612,78.017942 172.4042,78.1885679 C172.5772,78.3950641 172.7612,78.5908962 172.9462,78.7896366 C173.2252,79.0862931 173.5032,79.3848885 173.7572,79.7096595 C173.8152,79.7804305 174.0562,79.922942 174.2162,80.0169802 C174.6022,80.245774 175.0832,80.5307969 175.4382,81.0155298 C175.5932,81.2288122 175.7582,81.4382168 175.9242,81.6476214 C176.1832,81.9762702 176.4432,82.306858 176.6772,82.6519878 C176.9462,83.0475298 177.1102,83.4614916 177.2552,83.8260107 C177.3582,84.0838885 177.4552,84.3291634 177.5662,84.5046366 C177.7812,84.8449191 177.9692,85.2065298 178.1542,85.5691099 C178.2782,85.8114763 178.4022,86.0557817 178.5422,86.2913618 C178.6332,86.4484153 178.8072,86.6345527 178.9912,86.8323237 C179.2702,87.1338275 179.5872,87.4741099 179.8262,87.9171557 C180.1232,88.4629649 180.1412,89.0310718 180.1552,89.4876901 C180.1602,89.660255 180.1682,89.9220107 180.2002,90.0034458 C180.3162,90.2351481 180.4532,90.4649115 180.5882,90.6966137 C180.7882,91.0330183 180.9922,91.382026 181.1722,91.7736901 C181.2122,91.8483389 181.4112,92.0344763 181.5442,92.156629 C181.8772,92.4649191 182.2902,92.847858 182.5262,93.4091786 C182.7022,93.8279878 182.7942,94.2506748 182.8752,94.6229496 C182.9362,94.9011863 182.9922,95.1639115 183.0732,95.3762244 C183.2552,95.8532015 183.2912,96.3156366 183.3232,96.7228122 C183.3432,96.9845679 183.3622,97.2337206 183.4192,97.3936824 C183.5512,97.7766214 183.6602,98.169255 183.7682,98.5638275 C183.8382,98.816858 183.9082,99.070858 183.9862,99.324858 C184.0202,99.4314992 184.1772,99.6438122 184.3052,99.8144382 C184.5602,100.157629 184.8772,100.582255 185.0292,101.130003 C185.2202,101.818324 185.3962,102.450415 185.5512,103.086385 C185.6132,103.340385 185.7072,103.590507 185.7992,103.842568 C185.9282,104.195453 186.0742,104.593904 186.1662,105.022408 C186.2722,105.523621 186.2342,105.987026 186.2002,106.39711 C186.1782,106.660805 186.1572,106.908988 186.1872,107.072827 C186.2202,107.248301 186.3192,107.480003 186.4262,107.726247 C186.5862,108.097553 186.7682,108.51927 186.8432,109.010789 C186.9452,109.670995 186.7092,110.235224 186.5212,110.688934 C186.4592,110.839202 186.3642,111.066056 186.3562,111.147492 C186.3782,111.289034 186.4612,111.527522 186.5502,111.780553 C186.6802,112.153797 186.8282,112.575515 186.8772,113.061217 C186.9032,113.330728 186.9542,113.59927 187.0042,113.868782 C187.0742,114.242995 187.1462,114.629812 187.1762,115.049591 C187.2062,115.465492 187.1902,115.855217 187.1732,116.232339 C187.1602,116.507667 187.1472,116.784934 187.1602,117.062202 C187.1652,117.157209 187.2782,117.416056 187.3552,117.587652 C187.5292,117.981255 187.7472,118.473744 187.761734,119.052515 C187.7752,119.683637 187.5112,120.20424 187.2992,120.622079 C187.2232,120.773316 187.1072,121.00211 187.0952,121.085484 C187.0952,121.770896 186.5232,122.315736 185.8162,122.315736" id="Fill-47" fill="#F7941D"/><path d="M149.7454,188.160873 C149.0104,188.160873 148.5934,188.010606 148.2894,187.900087 C148.0854,187.826408 148.0004,187.795385 147.7264,187.795385 C147.0544,187.795385 146.6854,187.699408 146.3884,187.62282 C146.1754,187.56853 146.0464,187.534598 145.7094,187.534598 C145.2344,187.534598 144.9954,187.545263 144.7574,187.555927 C144.4914,187.56756 144.2244,187.578224 143.6914,187.578224 C143.1204,187.578224 142.8184,187.54914 142.5504,187.522965 C142.3304,187.500667 142.1104,187.479339 141.6704,187.479339 C141.2844,187.479339 141.1214,187.508423 140.8964,187.55011 C140.6184,187.601492 140.2734,187.663537 139.6484,187.663537 C138.9484,187.663537 138.5494,187.543324 138.2574,187.454133 C138.0514,187.393056 137.9374,187.358156 137.6284,187.358156 C137.3204,187.358156 137.2144,187.391118 137.0034,187.455102 C136.7104,187.545263 136.3094,187.668385 135.6054,187.668385 C135.1144,187.668385 134.8674,187.673232 134.6214,187.678079 C134.3624,187.683896 134.1034,187.688744 133.5854,187.688744 C133.2634,187.688744 133.1454,187.721705 132.9334,187.781812 C132.6464,187.863247 132.2524,187.975705 131.5654,187.975705 C130.7604,187.975705 130.2934,187.750789 129.9854,187.602461 C129.7904,187.508423 129.7494,187.489034 129.5444,187.489034 C129.3134,187.489034 129.2544,187.51424 129.0574,187.600522 C128.7574,187.7314 128.3024,187.93014 127.5224,187.93014 C126.7154,187.93014 126.2494,187.704255 125.9414,187.554957 C125.7464,187.460919 125.7054,187.44153 125.5014,187.44153 C124.7954,187.44153 124.2234,186.886995 124.2234,186.201583 C124.2234,185.516171 124.7954,184.961637 125.5014,184.961637 C126.3084,184.961637 126.7734,185.187522 127.0814,185.33682 C127.2774,185.430858 127.3184,185.450247 127.5224,185.450247 C127.7524,185.450247 127.8124,185.425041 128.0084,185.338759 C128.3084,185.207881 128.7644,185.00914 129.5444,185.00914 C130.3494,185.00914 130.8144,185.233087 131.1224,185.382385 C131.3184,185.475453 131.3594,185.495812 131.5654,185.495812 C131.8874,185.495812 132.0034,185.46285 132.2164,185.401774 C132.5034,185.320339 132.8974,185.20982 133.5854,185.20982 C134.0774,185.20982 134.3234,185.204003 134.5684,185.199156 C134.8284,185.194308 135.0874,185.189461 135.6054,185.189461 C135.9134,185.189461 136.0204,185.156499 136.2314,185.092515 C136.5244,185.002354 136.9254,184.878263 137.6284,184.878263 C138.3274,184.878263 138.7264,184.999446 139.0184,185.087667 C139.2244,185.150682 139.3384,185.184614 139.6484,185.184614 C140.0344,185.184614 140.1974,185.15456 140.4224,185.112873 C140.7004,185.062461 141.0444,184.999446 141.6704,184.999446 C142.2404,184.999446 142.5434,185.029499 142.8104,185.056644 C143.0314,185.077973 143.2504,185.10027 143.6914,185.10027 C144.1664,185.10027 144.4044,185.089606 144.6424,185.078942 C144.9094,185.068278 145.1764,185.055675 145.7094,185.055675 C146.3814,185.055675 146.7504,185.151652 147.0484,185.22824 C147.2614,185.28253 147.3904,185.316461 147.7264,185.316461 C148.4624,185.316461 148.8794,185.467698 149.1834,185.577247 C149.3874,185.650927 149.4714,185.68098 149.7454,185.68098 C149.8354,185.68098 149.8354,185.68098 150.0054,185.562705 C150.3194,185.341667 150.8464,184.970362 151.7664,184.970362 C152.5034,184.970362 152.9204,185.121598 153.2254,185.232118 C153.4294,185.306766 153.5144,185.33682 153.7874,185.33682 C154.0724,185.33682 154.1654,185.305797 154.3704,185.234056 C154.6714,185.132263 155.0824,184.990721 155.8074,184.990721 C156.3794,184.990721 156.6844,185.022713 156.9534,185.050827 C157.1714,185.073125 157.3904,185.096392 157.8274,185.096392 C158.2494,185.096392 158.4354,185.072156 158.6724,185.042102 C158.9484,185.007202 159.2614,184.967453 159.8504,184.967453 C160.6324,184.967453 161.0894,185.168133 161.3904,185.301919 C161.5894,185.389171 161.6434,185.412438 161.8704,185.412438 C162.4014,185.412438 162.6664,185.423102 162.9314,185.432797 C163.1724,185.441522 163.4124,185.450247 163.8934,185.450247 C164.1794,185.450247 164.2724,185.418255 164.4774,185.348453 C164.7784,185.244721 165.1904,185.103179 165.9154,185.103179 C166.5664,185.103179 166.9254,185.182675 167.2134,185.247629 C167.4334,185.296102 167.5784,185.328095 167.9394,185.328095 C168.3334,185.328095 168.4994,185.29998 168.7284,185.261202 C169.0024,185.213698 169.3444,185.15456 169.9614,185.15456 C170.6724,185.15456 171.0764,185.28253 171.3714,185.376568 C171.5794,185.442492 171.6834,185.474484 171.9854,185.474484 C172.2604,185.474484 172.3454,185.444431 172.5504,185.370751 C172.8554,185.260232 173.2724,185.108995 174.0104,185.108995 C174.8254,185.108995 175.2954,185.343606 175.6064,185.49969 C175.8014,185.595667 175.8364,185.614087 176.0314,185.614087 C176.1934,185.614087 176.2084,185.604392 176.4014,185.496782 C176.7214,185.316461 177.2034,185.04598 178.0534,185.04598 C178.7534,185.04598 179.1524,185.166194 179.4454,185.253446 C179.6524,185.315492 179.7664,185.350392 180.0784,185.350392 C180.5114,185.350392 180.7124,185.327125 180.9444,185.301919 C181.2164,185.271866 181.5234,185.236965 182.1034,185.236965 C182.4064,185.236965 182.5104,185.204003 182.7184,185.138079 C183.0144,185.043072 183.4184,184.914133 184.1294,184.914133 C184.9294,184.914133 185.3934,185.131293 185.7004,185.274774 C185.8974,185.367843 185.9444,185.39014 186.1594,185.39014 C186.3754,185.39014 186.4224,185.367843 186.6204,185.274774 C186.9264,185.133232 187.3894,184.917041 188.1874,184.917041 C188.8934,184.917041 189.4664,185.472545 189.4664,186.156988 C189.4664,186.841431 188.8934,187.395965 188.1874,187.395965 C187.9724,187.395965 187.9254,187.417293 187.7274,187.510362 C187.4214,187.652873 186.9584,187.869064 186.1594,187.869064 C185.3594,187.869064 184.8954,187.651904 184.5884,187.507453 C184.3914,187.415354 184.3444,187.394026 184.1294,187.394026 C183.8284,187.394026 183.7244,187.426988 183.5164,187.493881 C183.2204,187.58695 182.8144,187.715889 182.1034,187.715889 C181.6704,187.715889 181.4694,187.738186 181.2374,187.765331 C180.9664,187.795385 180.6584,187.829316 180.0784,187.829316 C179.3794,187.829316 178.9794,187.709102 178.6874,187.620881 C178.4804,187.559805 178.3664,187.524904 178.0534,187.524904 C177.8914,187.524904 177.8754,187.534598 177.6834,187.642209 C177.3634,187.82156 176.8804,188.09398 176.0314,188.09398 C175.2154,188.09398 174.7444,187.8584 174.4334,187.702316 C174.2404,187.605369 174.2054,187.587919 174.0104,187.587919 C173.7354,187.587919 173.6504,187.617973 173.4464,187.693591 C173.1404,187.80314 172.7234,187.954377 171.9854,187.954377 C171.2764,187.954377 170.8724,187.826408 170.5774,187.733339 C170.3694,187.667415 170.2654,187.634453 169.9614,187.634453 C169.5694,187.634453 169.4034,187.662568 169.1744,187.701347 C168.8994,187.74885 168.5584,187.807988 167.9394,187.807988 C167.2884,187.807988 166.9294,187.728492 166.6414,187.663537 C166.4214,187.615064 166.2764,187.582102 165.9154,187.582102 C165.6314,187.582102 165.5374,187.615064 165.3334,187.684866 C165.0314,187.788598 164.6204,187.93014 163.8934,187.93014 C163.3634,187.93014 163.0984,187.920446 162.8334,187.909782 C162.5924,187.901056 162.3514,187.892331 161.8704,187.892331 C161.0894,187.892331 160.6324,187.691652 160.3314,187.557866 C160.1324,187.470614 160.0784,187.447347 159.8504,187.447347 C159.4284,187.447347 159.2414,187.470614 159.0054,187.499698 C158.7294,187.534598 158.4164,187.575316 157.8274,187.575316 C157.2534,187.575316 156.9494,187.543324 156.6804,187.516179 C156.4614,187.493881 156.2444,187.470614 155.8074,187.470614 C155.5214,187.470614 155.4284,187.502606 155.2234,187.573377 C154.9224,187.675171 154.5114,187.816713 153.7874,187.816713 C153.0514,187.816713 152.6344,187.664507 152.3294,187.553988 C152.1254,187.480308 152.0404,187.450255 151.7664,187.450255 C151.6764,187.450255 151.6764,187.450255 151.5064,187.569499 C151.1924,187.790537 150.6654,188.160873 149.7454,188.160873" id="Fill-49" fill="#F7941D"/><path d="M228.0398,139.178234 C227.5848,139.178234 227.1438,138.942653 226.9138,138.525783 C226.5778,137.923745 226.8108,137.172409 227.4328,136.846669 C227.8178,136.645989 227.9988,136.525776 228.1808,136.406531 C228.4028,136.259173 228.6538,136.093394 229.1548,135.831638 C229.7028,135.545646 230.0368,135.441913 230.3048,135.359508 C230.5218,135.291646 230.6788,135.243173 231.0168,135.06673 L232.7918,134.143798 C233.1008,133.982867 233.2098,133.888829 233.3738,133.745348 C233.5958,133.553394 233.8708,133.314905 234.4458,133.014371 C235.0258,132.711898 235.3858,132.620768 235.6758,132.548058 C235.8878,132.493768 236.0278,132.458867 236.3348,132.298905 C236.6478,132.135066 236.7588,132.041027 236.9258,131.897547 C237.1478,131.708501 237.4228,131.471951 237.9958,131.172386 C238.6428,130.835012 239.0828,130.775875 239.4048,130.734188 C239.6188,130.706073 239.7068,130.69444 239.9448,130.569379 C240.4738,130.293081 240.7768,130.189348 241.0448,130.097249 C241.2608,130.0226 241.4318,129.963463 241.7878,129.777325 C241.9188,129.708493 241.9228,129.701707 242.0368,129.515569 C242.2168,129.221821 242.5188,128.731272 243.2728,128.336699 C243.7918,128.065249 244.0878,127.958608 244.3498,127.862631 C244.5698,127.783134 244.7448,127.720119 245.1108,127.528165 C245.4978,127.325547 245.6818,127.205333 245.8658,127.085119 C246.1018,126.931944 246.3378,126.777798 246.8358,126.517012 C247.2588,126.297913 247.4658,126.179638 247.6718,126.062333 C247.8998,125.933394 248.1268,125.804455 248.5908,125.562089 L250.3658,124.638188 C250.7778,124.421997 250.9778,124.303722 251.1788,124.185447 C251.4098,124.049722 251.6388,123.913027 252.1138,123.665814 C252.6438,123.388547 252.9488,123.282875 253.2178,123.191745 C253.4338,123.117096 253.6048,123.058928 253.9608,122.872791 C254.7088,122.480157 255.2728,122.502455 255.6418,122.515058 C255.8678,122.521844 255.8778,122.522814 256.0158,122.451073 C256.2018,122.354127 256.2318,122.313409 256.3588,122.143753 C256.5588,121.87715 256.8588,121.475791 257.5588,121.110302 C258.2548,120.746753 258.7628,120.720577 259.0988,120.703127 C259.3168,120.692463 259.3688,120.689554 259.5608,120.58873 C259.9168,120.402592 260.0618,120.295951 260.2468,120.162165 C260.4738,119.995417 260.7308,119.80734 261.2608,119.530073 C261.4698,119.420524 261.5088,119.371081 261.6438,119.204333 C261.8438,118.957119 262.1478,118.580966 262.8268,118.227111 C263.4408,117.905249 263.8508,117.827692 264.1488,117.770493 C264.3608,117.730745 264.4768,117.708447 264.7488,117.565936 C264.9708,117.450569 265.0208,117.390463 265.1558,117.23147 C265.4208,116.916394 265.7108,116.608104 266.3258,116.286241 C267.0818,115.890699 267.6718,115.916875 268.0228,115.933356 C268.2458,115.94402 268.2558,115.94305 268.3878,115.876157 C268.6668,115.729768 268.7518,115.647363 268.9078,115.497096 C269.1208,115.2906 269.4128,115.008485 270.0208,114.690501 C270.6548,114.358944 271.0818,114.29205 271.3938,114.242608 C271.6098,114.208676 271.7078,114.194134 271.9628,114.061318 C272.2358,113.917837 272.3188,113.835432 272.4708,113.686134 C272.6838,113.474791 272.9768,113.18589 273.5918,112.864027 C274.0298,112.635234 274.2478,112.517928 274.4658,112.401592 C274.6898,112.280409 274.9148,112.160195 275.3658,111.924615 C275.6158,111.793737 275.6828,111.721997 275.8278,111.565913 C276.0408,111.33518 276.3348,111.020104 276.9748,110.685638 C277.5978,110.360867 278.3718,110.585783 278.7068,111.188791 C279.0428,111.790829 278.8108,112.543134 278.1888,112.867905 C277.9378,112.998783 277.8718,113.070524 277.7268,113.226608 C277.5128,113.45734 277.2188,113.771447 276.5798,114.106882 C276.1408,114.335676 275.9228,114.452982 275.7058,114.569318 C275.4808,114.690501 275.2568,114.810715 274.8058,115.046295 C274.5318,115.189776 274.4488,115.27218 274.2968,115.421478 C274.0838,115.632821 273.7918,115.921722 273.1768,116.243585 C272.5428,116.574173 272.1158,116.641066 271.8038,116.690508 C271.5888,116.72444 271.4898,116.739951 271.2348,116.873737 C270.9538,117.020127 270.8688,117.102531 270.7138,117.252798 C270.4998,117.459295 270.2088,117.741409 269.6018,118.058424 C268.8448,118.452997 268.2538,118.427791 267.9038,118.41034 C267.6778,118.398707 267.6698,118.399676 267.5398,118.468508 C267.3188,118.583875 267.2688,118.643012 267.1338,118.802005 C266.8678,119.11805 266.5778,119.42731 265.9628,119.748203 C265.3488,120.069096 264.9398,120.146653 264.6418,120.203852 C264.4298,120.244569 264.3128,120.265898 264.0408,120.409379 C263.8318,120.517959 263.7908,120.568371 263.6568,120.73415 C263.4568,120.982333 263.1528,121.357516 262.4738,121.71234 C262.1168,121.899447 261.9718,122.005119 261.7888,122.139875 C261.5608,122.306623 261.3038,122.494699 260.7738,122.771966 C260.0778,123.135516 259.5708,123.161692 259.2348,123.179142 C259.0158,123.190776 258.9638,123.193684 258.7728,123.292569 C258.5858,123.390485 258.5558,123.431203 258.4288,123.60086 C258.2298,123.865524 257.9298,124.267852 257.2288,124.63334 C256.4798,125.025005 255.9208,125.006585 255.5468,124.992043 C255.3248,124.984287 255.3108,124.982348 255.1748,125.055058 C254.6438,125.332325 254.3398,125.436058 254.0708,125.529127 C253.8538,125.602806 253.6838,125.661944 253.3278,125.848081 C252.9118,126.065241 252.7108,126.183516 252.5098,126.30276 C252.2798,126.437516 252.0498,126.574211 251.5788,126.820455 L249.8038,127.744356 C249.3798,127.966363 249.1718,128.084638 248.9648,128.201944 C248.7388,128.330882 248.5118,128.458852 248.0498,128.699279 C247.6608,128.902867 247.4768,129.023081 247.2928,129.143295 C247.0568,129.29744 246.8218,129.450615 246.3248,129.710432 C245.8048,129.982852 245.5088,130.089493 245.2468,130.18547 C245.0268,130.264966 244.8518,130.327982 244.4858,130.518966 C244.3548,130.588768 244.3508,130.595554 244.2358,130.781692 C244.0568,131.07544 243.7558,131.56502 243.0018,131.959592 C242.4728,132.23686 242.1678,132.340592 241.8998,132.433661 C241.6848,132.50734 241.5138,132.566478 241.1578,132.751646 C240.5118,133.089989 240.0718,133.148157 239.7498,133.189844 C239.5358,133.218928 239.4478,133.229592 239.2098,133.354653 C238.8948,133.519463 238.7848,133.613501 238.6178,133.756012 C238.3958,133.946997 238.1208,134.182577 237.5478,134.481173 C236.9698,134.784615 236.6088,134.874776 236.3188,134.948455 C236.1068,135.000806 235.9668,135.036676 235.6598,135.197608 C235.3508,135.358539 235.2418,135.451608 235.0778,135.595089 C234.8568,135.787043 234.5808,136.025531 234.0058,136.327035 L232.2308,137.248997 C231.6828,137.535959 231.3498,137.638722 231.0818,137.722096 C230.8638,137.78802 230.7068,137.836493 230.3688,138.014875 C229.9828,138.215554 229.8018,138.335768 229.6198,138.455012 C229.3978,138.601402 229.1468,138.76718 228.6458,139.029905 C228.4528,139.12976 228.2448,139.178234 228.0398,139.178234" id="Fill-51" fill="#F7941D"/></g></g></g></g><g id="Upper Body" transform="translate(-1.000000, 53.000000) scale(1 1)"><g id="Upper Body/Laptop" stroke="none" stroke-width="1" fill="none" fill-rule="evenodd"><g id="Group-691" transform="translate(152.500000, 272.500000)"><g id="Group-453" transform="translate(0.000000, 0.095000)"><path d="M241.5489,174.4264 L262.3799,74.3814 C262.3799,74.3814 252.8759,47.1744 212.0979,39.9614 C212.0979,39.9614 211.5509,15.4834 160.0019,15.4834 C108.4529,15.4834 106.8899,38.6954 106.8899,38.6954 C106.8899,38.6954 -4.3451,56.6524 0.2789,139.0164 C0.2789,139.0164 6.1749,190.7654 71.0239,182.9044 C70.9179,185.7814 71.5209,189.0814 73.9719,191.7894 C79.9819,198.4274 91.6929,197.6654 98.3559,196.5624 C101.1019,196.1074 103.8799,196.8674 106.1169,198.5244 C108.6669,200.4134 113.3329,202.5834 121.5689,203.0954 C127.8529,203.4864 132.4689,202.2684 135.7249,200.6984 C139.4069,198.9254 143.7659,199.4444 146.8579,202.1154 C150.5619,205.3184 157.1519,208.6544 168.7689,209.4994 C182.7509,210.5184 189.9819,205.5454 193.5739,201.2484 C196.0219,198.3214 199.8399,196.8864 203.5659,197.7124 C207.7369,198.6374 213.2789,199.0844 218.4979,197.0464 C220.6419,196.2094 223.0059,196.1594 225.1979,196.8604 C230.4509,198.5374 240.5249,200.6714 249.3079,196.2434 C257.8439,191.9404 255.8429,175.1594 241.5489,174.4264" id="Fill-429" fill="#00A378"/><path d="M273.8741,181.274 C273.8741,181.274 301.1821,179.927 301.8441,150.795 C302.5221,120.91 284.6001,114.814 273.8741,114.071 L273.8741,181.274 Z" id="Fill-431" fill="#ef9e89"/><path d="M119.8228,61.6696 C119.6548,61.6696 119.4838,61.6416 119.3168,61.5816 C119.0848,61.4986 118.7918,61.4476 118.4808,61.3946 C117.9548,61.3036 117.3568,61.2006 116.7638,60.8986 C116.5298,60.7806 116.2918,60.6726 116.0558,60.5656 C115.5038,60.3156 114.9328,60.0556 114.3888,59.6776 C114.1598,59.5186 113.9158,59.3746 113.6738,59.2316 C113.1808,58.9396 112.6238,58.6076 112.1398,58.1576 C111.4738,57.5356 110.9048,56.8446 110.3308,56.1316 C109.8228,55.4986 109.6678,54.7816 109.5438,54.2056 C109.4948,53.9796 109.4268,53.6686 109.3678,53.5696 C109.2548,53.3816 109.0548,53.1666 108.8438,52.9396 C108.4708,52.5366 108.0478,52.0806 107.7658,51.4486 C107.4638,50.7696 107.4328,50.0936 107.4078,49.5516 C107.3948,49.2736 107.3828,48.9876 107.3338,48.8346 C107.2928,48.7406 107.0658,48.4956 106.9168,48.3326 C106.5068,47.8896 105.9968,47.3386 105.8268,46.5416 C105.6688,45.8046 105.7738,45.1216 105.8578,44.5726 C105.8978,44.3146 105.9428,44.0216 105.9268,43.8866 C105.8138,42.9666 105.7868,42.1636 105.7628,41.4546 L105.7588,41.3186 C105.7388,40.7736 105.6888,40.5656 105.6348,40.3466 C105.5308,39.9116 105.4568,39.5126 105.5358,38.6786 C105.6128,37.8536 106.3368,37.2416 107.1708,37.3256 C107.9948,37.4036 108.5998,38.1356 108.5218,38.9606 C108.4838,39.3616 108.4998,39.4276 108.5518,39.6426 C108.6428,40.0226 108.7278,40.4286 108.7568,41.2136 L108.7608,41.3526 C108.7828,41.9996 108.8078,42.7326 108.9048,43.5226 C108.9708,44.0676 108.8928,44.5786 108.8228,45.0296 C108.7708,45.3666 108.7178,45.7156 108.7598,45.9126 C108.7828,45.9326 108.9858,46.1516 109.1198,46.2966 C109.4958,46.7036 109.9638,47.2106 110.1908,47.9216 C110.3608,48.4536 110.3848,48.9636 110.4048,49.4136 C110.4198,49.7346 110.4348,50.0666 110.5078,50.2306 C110.5858,50.4046 110.8178,50.6556 111.0438,50.8986 C111.3348,51.2126 111.6648,51.5676 111.9378,52.0216 C112.2548,52.5476 112.3778,53.1156 112.4758,53.5726 C112.5258,53.8066 112.6018,54.1596 112.6708,54.2536 C113.1908,54.8996 113.6658,55.4776 114.1858,55.9646 C114.4318,56.1926 114.8068,56.4156 115.2038,56.6496 C115.5078,56.8306 115.8118,57.0136 116.0998,57.2136 C116.4218,57.4366 116.8468,57.6296 117.2988,57.8346 C117.5718,57.9596 117.8488,58.0856 118.1218,58.2246 C118.3118,58.3206 118.6418,58.3776 118.9908,58.4386 C119.3938,58.5076 119.8508,58.5866 120.3288,58.7576 C121.1078,59.0366 121.5138,59.8956 121.2348,60.6756 C121.0148,61.2876 120.4378,61.6696 119.8228,61.6696" id="Fill-433" fill="#000"/><path d="M202.3526,60.4244 C201.7886,60.4244 201.2476,60.1044 200.9926,59.5584 C200.6416,58.8074 200.9666,57.9144 201.7176,57.5654 C201.9406,57.4604 202.1656,57.3614 202.3886,57.2634 C202.8976,57.0404 203.3766,56.8304 203.7446,56.5864 C203.9586,56.4444 204.1846,56.1544 204.4226,55.8484 C204.6536,55.5524 204.9156,55.2174 205.2426,54.9144 C205.5096,54.6664 205.7946,54.4434 206.0796,54.2234 C206.4166,53.9614 206.7356,53.7144 206.9256,53.4724 C207.1016,53.2484 207.2406,52.8994 207.3886,52.5294 C207.5216,52.1964 207.6716,51.8204 207.8796,51.4514 C208.1536,50.9714 208.4946,50.6014 208.7946,50.2754 C209.0036,50.0484 209.2416,49.7914 209.3006,49.6414 C209.4206,49.3444 209.5536,49.0514 209.6856,48.7604 C209.8926,48.3054 210.0876,47.8754 210.1886,47.5014 C210.2196,47.3834 210.1416,46.9934 210.0946,46.7614 C209.9966,46.2714 209.8846,45.7164 209.9816,45.1084 C210.0636,44.5904 210.2006,44.1354 210.3206,43.7334 C210.4216,43.3934 210.5176,43.0724 210.5306,42.8684 C210.5716,42.1714 210.6306,41.8004 210.6746,41.5294 C210.7196,41.2504 210.7346,41.1554 210.6896,40.6284 C210.6776,40.4924 210.5116,40.1934 210.3786,39.9514 C210.1566,39.5484 209.9036,39.0904 209.7826,38.5264 C209.6616,37.9584 209.6936,37.4174 209.7186,36.9834 C209.7336,36.7274 209.7546,36.3774 209.7116,36.2594 L209.5776,35.8744 C209.3606,35.2564 209.1566,34.6724 208.8986,34.1674 C208.8186,34.0124 208.5716,33.7864 208.3316,33.5704 C208.0116,33.2784 207.6476,32.9474 207.3456,32.5064 C207.1256,32.1844 206.9406,31.8404 206.7576,31.4964 C206.5706,31.1434 206.3936,30.8094 206.1956,30.5794 C205.8216,30.1504 205.5926,29.6754 205.3916,29.2574 C205.2576,28.9824 205.1076,28.6694 204.9916,28.5614 C204.9346,28.5314 204.6316,28.4564 204.4316,28.4064 C203.9176,28.2784 203.2776,28.1194 202.7206,27.6844 C202.4046,27.4364 202.1146,27.1574 201.8266,26.8764 C201.5396,26.5974 201.2676,26.3324 200.9996,26.1554 C200.7706,26.0024 200.4426,25.8764 200.0946,25.7414 C199.7226,25.5984 199.2996,25.4354 198.8836,25.1974 L198.3266,24.8754 C197.8446,24.5954 197.3686,24.3174 196.8656,24.0684 C196.2176,23.7484 195.7966,23.2294 195.4576,22.8124 C195.3276,22.6514 195.1286,22.4064 195.0406,22.3504 C194.8906,22.2874 194.5616,22.2544 194.2426,22.2234 C193.7736,22.1764 193.2416,22.1224 192.6986,21.9184 C192.3556,21.7884 191.9706,21.6934 191.5626,21.5914 C191.1786,21.4954 190.7976,21.3994 190.4266,21.2764 C190.1306,21.1784 189.7736,21.1234 189.3956,21.0674 C189.0016,21.0074 188.5556,20.9394 188.1076,20.8094 C187.7906,20.7174 187.4816,20.6204 187.1746,20.5254 C186.7296,20.3864 186.2906,20.2484 185.8486,20.1364 C185.1716,19.9644 184.6496,19.5904 184.2286,19.2904 C184.0546,19.1654 183.7896,18.9764 183.6886,18.9454 C183.5266,18.9104 183.2046,18.9534 182.8926,18.9974 C182.4066,19.0654 181.8556,19.1404 181.2556,19.0284 C180.5956,18.9034 180.0516,18.6114 179.6156,18.3754 C179.4176,18.2694 179.1206,18.1094 179.0126,18.0914 C178.4136,17.9974 177.8526,17.9354 177.3466,17.8784 L176.6526,17.7984 C176.2116,17.7444 176.1376,17.7744 175.9746,17.8374 C175.5666,17.9984 175.1026,18.1514 174.2786,18.0964 C173.4526,18.0404 172.8276,17.3244 172.8836,16.4984 C172.9386,15.6714 173.6406,15.0434 174.4816,15.1034 C174.6976,15.1164 174.7116,15.1104 174.8726,15.0474 C175.3516,14.8584 175.9146,14.6854 177.0206,14.8204 L177.6806,14.8984 C178.2256,14.9584 178.8306,15.0274 179.4766,15.1274 C180.0916,15.2244 180.5946,15.4954 181.0396,15.7354 C181.3316,15.8934 181.6086,16.0414 181.8106,16.0794 C181.9246,16.1014 182.2486,16.0574 182.4826,16.0254 C183.0016,15.9534 183.6456,15.8644 184.3376,16.0174 C185.0186,16.1664 185.5486,16.5454 185.9746,16.8504 C186.1786,16.9964 186.4576,17.1954 186.5856,17.2284 C187.0796,17.3534 187.5706,17.5064 188.0696,17.6614 C188.3566,17.7514 188.6466,17.8424 188.9416,17.9274 C189.2016,18.0024 189.5136,18.0504 189.8456,18.1004 C190.3076,18.1704 190.8316,18.2504 191.3696,18.4284 C191.6676,18.5274 191.9776,18.6024 192.2886,18.6804 C192.7616,18.7984 193.2506,18.9194 193.7576,19.1114 C193.9316,19.1764 194.2416,19.2074 194.5406,19.2374 C195.0616,19.2894 195.6526,19.3484 196.2536,19.6084 C196.9716,19.9174 197.4226,20.4744 197.7866,20.9214 C197.9176,21.0834 198.1186,21.3284 198.2066,21.3854 C198.7586,21.6574 199.2946,21.9684 199.8346,22.2824 L200.3696,22.5914 C200.5896,22.7174 200.8746,22.8274 201.1756,22.9444 C201.6356,23.1214 202.1576,23.3224 202.6596,23.6554 C203.1596,23.9874 203.5636,24.3814 203.9186,24.7284 C204.1296,24.9334 204.3386,25.1414 204.5696,25.3204 C204.6476,25.3684 204.9546,25.4454 205.1566,25.4954 C205.7346,25.6394 206.4546,25.8194 207.0446,26.3734 C207.5666,26.8624 207.8586,27.4674 208.0926,27.9534 C208.2186,28.2154 208.3496,28.4864 208.4606,28.6134 C208.8846,29.1024 209.1636,29.6274 209.4096,30.0914 C209.5396,30.3374 209.6666,30.5844 209.8236,30.8144 C209.9256,30.9644 210.1316,31.1514 210.3496,31.3494 C210.7466,31.7094 211.2406,32.1584 211.5696,32.8014 C211.9206,33.4884 212.1686,34.1974 212.4096,34.8844 L212.5386,35.2524 C212.7856,35.9454 212.7456,36.6184 212.7136,37.1594 C212.6976,37.4404 212.6796,37.7304 212.7156,37.8994 C212.7446,38.0284 212.8826,38.2794 213.0046,38.5014 C213.2756,38.9904 213.6116,39.6004 213.6776,40.3704 C213.7496,41.2074 213.7106,41.5474 213.6356,42.0084 C213.6016,42.2244 213.5566,42.5024 213.5246,43.0444 C213.4926,43.5974 213.3406,44.1034 213.1946,44.5934 C213.0916,44.9354 212.9956,45.2594 212.9446,45.5784 C212.9356,45.6734 212.9966,45.9724 213.0366,46.1694 C213.1536,46.7554 213.2996,47.4854 213.0846,48.2814 C212.9206,48.8924 212.6656,49.4554 212.4166,50.0004 C212.3026,50.2514 212.1876,50.5044 212.0846,50.7594 C211.8206,51.4194 211.3666,51.9124 211.0006,52.3094 C210.7906,52.5364 210.5916,52.7524 210.4896,52.9324 C210.3656,53.1524 210.2726,53.3974 210.1746,53.6424 C209.9646,54.1664 209.7276,54.7614 209.2856,55.3244 C208.8666,55.8594 208.3616,56.2494 207.9156,56.5944 C207.7016,56.7614 207.4826,56.9284 207.2796,57.1154 C207.1306,57.2534 206.9646,57.4674 206.7896,57.6934 C206.4486,58.1294 206.0256,58.6724 205.4046,59.0854 C204.8206,59.4734 204.1976,59.7464 203.5946,60.0114 C203.3926,60.1004 203.1886,60.1894 202.9856,60.2834 C202.7806,60.3794 202.5646,60.4244 202.3526,60.4244" id="Fill-435" fill="#000"/><path d="M159.5821,72.0865 C159.5451,72.0865 159.5091,72.0845 159.4731,72.0825 C158.6461,72.0235 158.0241,71.3055 158.0841,70.4785 L158.9271,58.7765 C158.9861,57.9495 159.7451,57.3345 160.5301,57.3885 C161.3561,57.4475 161.9781,58.1655 161.9191,58.9925 L161.0761,70.6935 C161.0191,71.4835 160.3611,72.0865 159.5821,72.0865" id="Fill-437" fill="#000"/><path d="M175.6026,72.0865 C174.9206,72.0865 174.3046,71.6195 174.1426,70.9285 L171.4016,59.2275 C171.2126,58.4205 171.7136,57.6125 172.5206,57.4245 C173.3196,57.2345 174.1336,57.7355 174.3236,58.5425 L177.0646,70.2435 C177.2526,71.0505 176.7516,71.8575 175.9456,72.0465 C175.8316,72.0735 175.7156,72.0865 175.6026,72.0865" id="Fill-439" fill="#000"/><path d="M60.378,185.4069 C59.747,185.4069 59.191,185.2019 58.739,185.0359 C58.474,184.9379 58.173,184.8279 58.02,184.8279 L58.018,184.8279 C57.75,184.8289 57.437,184.8689 57.106,184.9119 C56.654,184.9699 56.16,185.0339 55.59,185.0249 L54.933,185.0139 C54.353,185.0059 53.762,184.9959 53.158,184.9689 C52.883,184.9559 52.606,184.9469 52.327,184.9379 C51.799,184.9219 51.265,184.9029 50.723,184.8639 C50.444,184.8449 50.125,184.8609 49.784,184.8789 C49.328,184.9029 48.813,184.9289 48.271,184.8749 C48.048,184.8519 47.745,184.8859 47.424,184.9229 C46.938,184.9769 46.387,185.0389 45.79,184.9589 C45.23,184.8849 44.728,184.7109 44.284,184.5569 C43.964,184.4459 43.661,184.3419 43.404,184.2989 C42.776,184.1919 42.265,183.9349 41.813,183.7089 C41.533,183.5679 41.27,183.4349 41.082,183.3959 C40.819,183.3429 40.506,183.3219 40.174,183.3019 C39.708,183.2709 39.181,183.2379 38.634,183.0999 C38.028,182.9479 37.538,182.6669 37.106,182.4189 C36.834,182.2629 36.577,182.1159 36.377,182.0549 C36.277,182.0339 35.962,182.0679 35.755,182.0909 C35.205,182.1519 34.519,182.2259 33.805,181.9699 C33.152,181.7349 32.665,181.3179 32.274,180.9839 C32.068,180.8079 31.835,180.6089 31.695,180.5499 C31.537,180.4809 31.241,180.4429 30.955,180.4049 C30.452,180.3399 29.827,180.2589 29.224,179.9499 C28.996,179.8339 28.706,179.7329 28.399,179.6269 C27.922,179.4609 27.383,179.2739 26.87,178.9599 C26.164,178.5259 25.942,177.6019 26.376,176.8959 C26.809,176.1899 27.732,175.9699 28.439,176.4019 C28.674,176.5469 29.019,176.6659 29.382,176.7929 C29.755,176.9219 30.178,177.0679 30.59,177.2789 C30.73,177.3509 31.055,177.3929 31.342,177.4299 C31.809,177.4909 32.337,177.5599 32.879,177.7929 C33.438,178.0319 33.873,178.4039 34.223,178.7029 C34.44,178.8879 34.686,179.0979 34.822,179.1479 C34.906,179.1649 35.221,179.1319 35.428,179.1089 C35.941,179.0529 36.578,178.9819 37.244,179.1829 C37.773,179.3429 38.211,179.5949 38.598,179.8159 C38.888,179.9819 39.161,180.1389 39.365,180.1909 C39.646,180.2609 39.995,180.2839 40.365,180.3069 C40.767,180.3329 41.222,180.3619 41.691,180.4589 C42.264,180.5779 42.739,180.8159 43.159,181.0269 C43.435,181.1659 43.72,181.3089 43.902,181.3399 C44.405,181.4249 44.862,181.5829 45.266,181.7219 C45.606,181.8399 45.926,181.9509 46.186,181.9849 C46.419,182.0169 46.746,181.9799 47.09,181.9409 C47.534,181.8919 48.038,181.8359 48.573,181.8899 C48.885,181.9219 49.245,181.9019 49.627,181.8829 C50.044,181.8609 50.478,181.8399 50.94,181.8719 C51.441,181.9089 51.936,181.9239 52.424,181.9399 C52.716,181.9489 53.007,181.9589 53.295,181.9709 C53.867,181.9979 54.428,182.0069 54.979,182.0139 L55.651,182.0259 C55.967,182.0339 56.339,181.9859 56.721,181.9359 C57.129,181.8839 57.551,181.8299 58.005,181.8279 L58.021,181.8279 C58.708,181.8279 59.3,182.0459 59.776,182.2209 C59.975,182.2939 60.274,182.4039 60.377,182.4069 C60.596,182.4009 60.9,182.2939 61.224,182.1809 C61.657,182.0289 62.149,181.8569 62.708,181.8279 C63.194,181.8019 63.653,181.8079 64.082,181.8149 C64.432,181.8209 64.758,181.8279 65.055,181.8039 C65.716,181.7529 66.036,181.7359 66.279,181.7219 C66.576,181.7069 66.747,181.6969 67.379,181.6269 C68.306,181.5219 68.877,181.6999 69.253,181.8179 C69.511,181.8989 69.597,181.9279 69.9,181.8929 C70.151,181.8669 70.198,181.8359 70.427,181.6849 C70.778,181.4529 71.311,181.1019 72.285,180.9979 C72.958,180.9259 73.297,180.9159 73.636,180.9059 C73.916,180.8979 74.197,180.8889 74.754,180.8299 C75.541,180.7469 75.986,180.8019 76.345,180.8469 C76.618,180.8819 76.8,180.9069 77.239,180.8579 C77.783,180.7999 78.052,180.7449 78.321,180.6899 C78.66,180.6209 78.999,180.5519 79.684,180.4779 C80.36,180.4059 80.702,180.3979 81.044,180.3899 C81.322,180.3839 81.601,180.3779 82.152,180.3179 C82.438,180.2879 82.507,180.2469 82.737,180.1079 C83.082,179.9019 83.603,179.5909 84.543,179.4889 C85.197,179.4199 85.527,179.4029 85.857,179.3859 C86.145,179.3709 86.433,179.3559 87.006,179.2949 C88.062,179.1809 88.723,179.5159 89.117,179.7169 C89.374,179.8469 89.382,179.8469 89.55,179.8309 C90.199,179.7609 90.524,179.7409 90.85,179.7209 C91.143,179.7029 91.435,179.6849 92.016,179.6229 L94.474,179.3619 C94.891,179.3169 95.046,179.2569 95.303,179.1559 C95.652,179.0199 96.087,178.8499 96.901,178.7629 C97.171,178.7339 97.232,178.6959 97.46,178.5529 C97.81,178.3309 98.338,177.9969 99.3,177.8939 C100.129,177.8129 100.863,178.4019 100.951,179.2259 C101.04,180.0499 100.443,180.7889 99.62,180.8779 C99.351,180.9059 99.289,180.9449 99.062,181.0889 C98.712,181.3089 98.184,181.6429 97.222,181.7469 C96.805,181.7909 96.649,181.8509 96.393,181.9519 C96.043,182.0879 95.608,182.2579 94.794,182.3439 L92.335,182.6059 C91.686,182.6759 91.36,182.6959 91.035,182.7159 C90.742,182.7339 90.45,182.7519 89.869,182.8139 C88.818,182.9289 88.153,182.5919 87.759,182.3909 C87.502,182.2609 87.496,182.2599 87.325,182.2779 C86.67,182.3479 86.34,182.3649 86.01,182.3819 C85.722,182.3959 85.435,182.4109 84.862,182.4719 C84.578,182.5029 84.509,182.5449 84.278,182.6819 C83.934,182.8879 83.412,183.2009 82.472,183.3019 C81.795,183.3739 81.454,183.3819 81.113,183.3889 C80.834,183.3959 80.556,183.4019 80.003,183.4619 C79.459,183.5199 79.19,183.5749 78.921,183.6299 C78.582,183.6989 78.243,183.7679 77.559,183.8419 C76.772,183.9269 76.324,183.8689 75.968,183.8239 C75.693,183.7899 75.513,183.7659 75.072,183.8129 C74.4,183.8859 74.062,183.8949 73.723,183.9049 C73.442,183.9129 73.161,183.9219 72.605,183.9809 C72.354,184.0079 72.307,184.0389 72.078,184.1889 C71.727,184.4219 71.194,184.7719 70.22,184.8769 C69.298,184.9769 68.731,184.7989 68.357,184.6809 C68.101,184.6009 68.018,184.5739 67.713,184.6079 C66.981,184.6899 66.783,184.6999 66.44,184.7189 C66.211,184.7299 65.91,184.7469 65.29,184.7959 C64.905,184.8259 64.489,184.8209 64.035,184.8149 C63.672,184.8079 63.28,184.8019 62.864,184.8239 C62.735,184.8309 62.459,184.9279 62.215,185.0119 C61.739,185.1789 61.147,185.3859 60.458,185.4059 C60.431,185.4069 60.404,185.4069 60.378,185.4069" id="Fill-441" fill="#000"/><path d="M62.0967,114.5406 C61.2357,114.5406 60.7447,114.3706 60.3877,114.2476 C60.1417,114.1616 60.0177,114.1186 59.6607,114.1186 C59.2727,114.1186 59.1307,114.1616 58.8737,114.2386 C58.5277,114.3436 58.0527,114.4856 57.2227,114.4856 C56.1767,114.4856 55.5647,114.0966 55.1997,113.8636 C54.9637,113.7136 54.9587,113.7106 54.7867,113.7106 C54.2157,113.7106 53.9307,113.7256 53.6447,113.7386 C53.3227,113.7556 52.9987,113.7706 52.3537,113.7706 C52.0637,113.7706 51.9837,113.8076 51.7447,113.9126 C51.3867,114.0726 50.8447,114.3136 49.9167,114.3136 C49.1617,114.3136 48.7437,114.2316 48.4097,114.1656 C48.1387,114.1126 47.9437,114.0736 47.4807,114.0736 C47.1257,114.0736 47.0027,114.1166 46.7577,114.2026 C46.4007,114.3266 45.9097,114.4976 45.0477,114.4976 C44.1707,114.4976 43.6737,114.3126 43.3107,114.1796 C43.0677,114.0886 42.9557,114.0476 42.6177,114.0476 C41.9447,114.0476 41.6087,114.0186 41.2727,113.9896 C40.9997,113.9666 40.7277,113.9426 40.1837,113.9426 C39.7937,113.9426 39.6527,113.9846 39.3947,114.0616 C39.0487,114.1646 38.5757,114.3066 37.7467,114.3066 C36.8787,114.3066 36.3857,114.1316 36.0267,114.0036 C35.7757,113.9136 35.6607,113.8736 35.3107,113.8736 C34.4827,113.8736 33.8107,113.2016 33.8107,112.3736 C33.8107,111.5446 34.4827,110.8736 35.3107,110.8736 C36.1777,110.8736 36.6707,111.0486 37.0307,111.1766 C37.2817,111.2656 37.3967,111.3066 37.7467,111.3066 C38.1377,111.3066 38.2797,111.2636 38.5367,111.1866 C38.8827,111.0836 39.3557,110.9426 40.1837,110.9426 C40.8567,110.9426 41.1927,110.9716 41.5287,111.0006 C41.8007,111.0236 42.0737,111.0476 42.6177,111.0476 C43.4927,111.0476 43.9907,111.2306 44.3527,111.3656 C44.5977,111.4556 44.7087,111.4976 45.0477,111.4976 C45.4027,111.4976 45.5267,111.4546 45.7717,111.3686 C46.1287,111.2446 46.6187,111.0736 47.4807,111.0736 C48.2367,111.0736 48.6547,111.1566 48.9897,111.2226 C49.2597,111.2756 49.4547,111.3136 49.9167,111.3136 C50.2067,111.3136 50.2857,111.2786 50.5247,111.1726 C50.8827,111.0136 51.4247,110.7706 52.3537,110.7706 C52.9247,110.7706 53.2097,110.7576 53.4957,110.7426 C53.8187,110.7276 54.1417,110.7106 54.7867,110.7106 C55.8327,110.7106 56.4457,111.1006 56.8107,111.3336 C57.0457,111.4826 57.0507,111.4856 57.2227,111.4856 C57.6117,111.4856 57.7517,111.4436 58.0087,111.3666 C58.3557,111.2626 58.8297,111.1186 59.6607,111.1186 C60.5227,111.1186 61.0127,111.2886 61.3697,111.4126 C61.6167,111.4976 61.7407,111.5406 62.0967,111.5406 C62.6357,111.5406 62.9057,111.5156 63.1747,111.4896 C63.5147,111.4586 63.8547,111.4266 64.5347,111.4266 C65.1177,111.4266 65.4097,111.4156 65.7007,111.4056 C66.0177,111.3946 66.3357,111.3836 66.9717,111.3836 C67.4397,111.3836 67.6367,111.3456 67.9087,111.2936 C68.2427,111.2286 68.6587,111.1496 69.4107,111.1496 L71.8487,111.1546 C72.2087,111.1546 72.3327,111.1116 72.5817,111.0266 C72.9397,110.9046 73.4287,110.7366 74.2877,110.7366 C75.1347,110.7366 75.6177,110.8936 75.9697,111.0076 C76.2177,111.0876 76.3547,111.1326 76.7287,111.1326 C77.5647,111.1326 78.0417,111.2806 78.3907,111.3896 C78.6437,111.4676 78.7827,111.5116 79.1627,111.5116 C79.4577,111.5116 79.5387,111.4756 79.7807,111.3696 C80.1377,111.2136 80.6777,110.9776 81.6017,110.9776 C82.4507,110.9776 82.9347,111.1346 83.2867,111.2496 C83.5427,111.3326 83.6707,111.3746 84.0417,111.3746 C84.6677,111.3746 84.9807,111.3816 85.2937,111.3886 C85.5907,111.3946 85.8887,111.3996 86.4837,111.3996 C86.6867,111.3996 86.7107,111.3866 86.9467,111.2486 C87.3287,111.0236 87.9087,110.6856 88.9257,110.6856 C90.0017,110.6856 90.6237,111.1116 90.9957,111.3666 C91.2247,111.5226 91.2247,111.5226 91.3707,111.5226 C91.7647,111.5226 91.9077,111.4796 92.1667,111.4026 C92.5137,111.3006 92.9887,111.1586 93.8177,111.1586 C94.6457,111.1586 95.3177,111.8306 95.3177,112.6586 C95.3177,113.4876 94.6457,114.1586 93.8177,114.1586 C93.4247,114.1586 93.2817,114.2016 93.0227,114.2786 C92.6757,114.3816 92.2007,114.5226 91.3707,114.5226 C90.2947,114.5226 89.6727,114.0966 89.3007,113.8416 C89.0727,113.6856 89.0727,113.6856 88.9257,113.6856 C88.7217,113.6856 88.6977,113.6986 88.4617,113.8366 C88.0787,114.0616 87.5007,114.3996 86.4837,114.3996 C85.8577,114.3996 85.5447,114.3946 85.2317,114.3876 C84.9347,114.3816 84.6367,114.3746 84.0417,114.3746 C83.1937,114.3746 82.7097,114.2176 82.3577,114.1026 C82.1017,114.0196 81.9737,113.9776 81.6017,113.9776 C81.3057,113.9776 81.2247,114.0126 80.9837,114.1176 C80.6257,114.2746 80.0867,114.5116 79.1627,114.5116 C78.3257,114.5116 77.8487,114.3616 77.4987,114.2536 C77.2467,114.1756 77.1087,114.1326 76.7287,114.1326 C75.8807,114.1326 75.3987,113.9766 75.0457,113.8616 C74.7977,113.7816 74.6607,113.7366 74.2877,113.7366 C73.9277,113.7366 73.8037,113.7796 73.5547,113.8646 C73.1977,113.9876 72.7077,114.1546 71.8487,114.1546 L69.4107,114.1496 C68.9437,114.1496 68.7457,114.1866 68.4737,114.2396 C68.1397,114.3036 67.7237,114.3836 66.9717,114.3836 C66.3887,114.3836 66.0967,114.3936 65.8057,114.4036 C65.4887,114.4146 65.1697,114.4266 64.5347,114.4266 C63.9947,114.4266 63.7257,114.4516 63.4557,114.4776 C63.1167,114.5096 62.7767,114.5406 62.0967,114.5406" id="Fill-443" fill="#000"/><path d="M88.6358,105.8483 C88.6358,105.8483 63.4068,110.9093 59.4538,135.1013 C55.9698,156.4213 64.5138,178.4283 90.6048,181.2743 L88.6358,105.8483 Z" id="Fill-445" fill="#ef9e89"/><path d="M86.0939984,74.0543 L88.4808,185.8853 C88.5198,187.7163 90.0148,189.1803 91.8468,189.1803 L270.5068,189.1803 C272.3668,189.1803 273.8738,187.6733 273.8738,185.8143 L273.8738,75.5063 C273.8738,73.6583 272.3838,72.1553 270.5358,72.1393 L89.4898,70.6161621 C87.5908,70.5993 86.0538,72.1563 86.0939984,74.0543" id="Fill-447" fill="#F8FBF8"/><path d="M94.8738,74.0543 L97.1490047,185.8853 C97.1861813,187.7163 98.6112813,189.1803 100.357625,189.1803 L270.664227,189.1803 C272.437261,189.1803 273.8738,187.6733 273.8738,185.8143 L273.8738,75.5063 C273.8738,73.6583 272.453466,72.1553 270.691871,72.1393 L98.1108281,70.6161621 C96.3006174,70.5993 94.8354811,72.1563 94.8738,74.0543" id="Fill-447-Copy" fill="#AFDCFD"/><path d="M176.1475,0.9069 L164.7485,0.9069 C159.5945,0.9069 155.2085,4.6009 154.2925,9.6419 C154.2825,9.7049 154.2735,9.7649 154.2635,9.8289 L154.2585,9.8619 L154.2585,9.8629 C154.2215,10.1079 154.1835,10.3579 154.1455,10.6069 C152.8195,19.3479 151.1815,30.0589 151.1815,30.0589 L186.6145,30.0589 L186.6865,22.2939 L186.7845,11.6419 C186.8385,5.7289 182.0605,0.9069 176.1475,0.9069" id="Fill-449" fill="#ef9e89"/><path d="M186.6143,30.0592 C172.7393,29.0832 168.9483,26.1082 169.0823,23.6312 C169.2013,21.4132 171.2863,21.7222 172.1973,21.7432 C176.2113,21.8322 186.6863,22.2932 186.6863,22.2932" id="Fill-451" fill="#430000"/></g></g><circle id="Oval" fill="#F8FBF8" cx="342.5" cy="405.5" r="11.5"/><path d="M223.5,449 L248,449 L248,449 L248,462 L223.5,462 C219.910149,462 217,459.089851 217,455.5 C217,451.910149 219.910149,449 223.5,449 Z" id="Rectangle" fill="#F8FBF8"/></g></g><g id="Head" transform="translate(204.000000, 198.000000) scale(1 1)"><g id="Head/Double Bun" stroke="none" stroke-width="1" fill="none" fill-rule="evenodd"><g id="Group-183" transform="translate(71.000000, 58.000000)"><g id="Group-93" transform="translate(0.000000, 0.738000)"><path d="M80.8934,66.7692 C80.3454,63.0942 74.3224,59.8552 71.6904,58.8062 C70.2904,52.7022 68.8684,47.5952 67.4804,45.0002 C64.7764,39.9432 56.5294,34.6282 43.3404,36.6692 C34.5834,38.0252 25.2574,46.1942 31.3144,60.4152 C31.3144,60.4152 33.0474,63.8622 32.2174,69.5462 C32.1264,70.1722 31.9964,71.0472 31.8404,72.0882 L31.8394,72.0962 C31.5764,73.8562 31.2354,76.1132 30.8624,78.5772 C30.8524,78.6392 30.8434,78.7002 30.8334,78.7632 L30.8284,78.7972 C30.7914,79.0422 30.7534,79.2922 30.7154,79.5412 C30.4864,82.1312 31.1924,90.6072 50.2694,90.7042 L63.2554,91.2292 L63.4534,91.2372 C63.4534,91.2372 67.8054,91.1892 70.4384,91.1892 C75.9134,91.1892 76.8534,85.9702 76.2384,82.1072 C76.0184,80.7262 75.2904,76.4322 74.2844,71.1892 C76.6804,71.0502 81.4244,70.3292 80.8934,66.7692" id="Fill-85" fill="#ef9e89"/><path d="M38.8339,32.9577 C49.7449,55.1767 90.0119,38.4277 76.6069,13.2267 C62.0509,-14.1363 25.5479,5.9007 38.8339,32.9577" id="Fill-87" fill="#860a0c"/><path d="M45.597,58.8063 C42.526,59.0033 40.241,60.6173 40.109,64.2383 C40.035,66.2843 41.033,68.5083 41.914,70.0573 C42.414,70.9333 41.78,72.0173 40.771,71.9985463 C38.386,71.9553 34.756,71.8783 32.275,71.7763 C32.275,71.7763 26.038,66.2093 26.925,48.6963 C26.925,48.6963 26.814,34.9953 48.651,34.9953 C70.488,34.9953 69.997,48.6963 69.997,48.6963 L52.531,48.6963 C52.531,48.6963 52.198,53.5183 50.313,56.5023 C48.99,58.5983 45.597,58.8063 45.597,58.8063" id="Fill-89" fill="#860a0c"/><path d="M3.4686,46.2458 C14.3796,68.4648 54.6466,51.7158 41.2416,26.5158 C26.6866,-0.8472 -9.8174,19.1898 3.4686,46.2458" id="Fill-91" fill="#860a0c"/></g></g></g></g><g id="Expression" transform="translate(315.000000, 299.000000) scale(1 1)"><defs><path d="M0.611,4.152 C0.516,6.977 4.407,8.141 8.572,9.455 L8.572,9.455 C16.217,11.868 20.367,12.194 21.052,9.038 L21.052,9.038 C21.453,7.193 20.288,5.826 18.679,5.317 L18.679,5.317 C17.91,5.073 16.958,4.844 15.818,4.517 L15.818,4.517 C15.818,4.517 12.448,3.701 6.92,1.517 L6.92,1.517 C6.885,1.502 6.85,1.488 6.813,1.475 L6.813,1.475 C5.923,1.139 5.098,0.988999462 4.36,0.988999462 L4.36,0.988999462 C2.113,0.988 0.672,2.381 0.611,4.152 L0.611,4.152 Z" id="expressionblush-path-1"/></defs><g id="Expression/Blush" stroke="none" stroke-width="1" fill="none" fill-rule="evenodd"><g id="Group-77" transform="translate(10.400000, 12.300000)"><g id="Group-10" transform="translate(0.000000, 9.116900)"><path d="M18.6791,16.3166 C17.9101,16.0736 16.9581,15.8446 15.8181,15.5166 C15.8181,15.5166 12.4481,14.7006 6.9201,12.5166 C6.8841,12.5026 6.8501,12.4886 6.8141,12.4746 C3.2091,11.1156 0.6911,12.7996 0.6121,15.1516 C0.5161,17.9776 4.4071,19.1406 8.5721,20.4556 C16.2181,22.8686 20.3661,23.1936 21.0521,20.0386 C21.4531,18.1926 20.2881,16.8256 18.6791,16.3166" id="Fill-6" fill="#000"/><path d="M9.474,2.9729 C9.474,4.2309 7.719,5.2509 5.553,5.2509 C3.388,5.2509 1.632,4.2309 1.632,2.9729 C1.632,1.7149 3.388,0.6959 5.553,0.6959 C7.719,0.6959 9.474,1.7149 9.474,2.9729" id="Fill-8" fill="#FF71DB"/></g><g id="Group" transform="translate(0.000000, 0.687879)"><g id="Group-13" transform="translate(0.000000, 19.429021)"><mask id="expressionblush-mask-2" fill="#fff"><use xlink:href="#expressionblush-path-1"/></mask><g id="Clip-12"/><path d="M-0.9284,0.8088 C-0.9284,0.8088 5.0096,3.9688 8.2026,7.7758 C11.3966,11.5818 11.2856,13.4168 11.2856,13.4168 L-5.0004,10.1608 L-0.9284,0.8088 Z" id="Fill-11" fill="#FF71DB" mask="url(#expressionblush-mask-2)"/></g><path d="M12.1527,2.62162057 C12.4587,5.55762057 16.8827,5.20162057 16.9197,2.37762057 C16.9607,-0.815379426 11.7917,-0.849379426 12.1527,2.62162057" id="Fill-14" fill="#000"/></g></g></g></g><g id="Facial Hair" transform="translate(311.300000, 303.950000) scale(1 1)" fill="#000"><g id="Facial Hair/None" stroke="none" stroke-width="1" fill="none" fill-rule="evenodd" fill-opacity="0"/></g><g id="Accesories" transform="translate(311.300000, 303.950000) scale(1 1)" fill="#000"><g id="Accesories/None" stroke="none" stroke-width="1" fill="none" fill-rule="evenodd" fill-opacity="0"/></g></g></svg>