<svg viewBox="566.875 448.344827586207 680.2499999999995 679.3103448275858" fill="none" xmlns="http://www.w3.org/2000/svg" xmlns:xlink="http://www.w3.org/1999/xlink" overflow="visible" width="680.2499999999995px" height="679.3103448275858px"><g id="Master/Emoji/Smile"><g id="Group 4"><circle id="Oval" cx="907.5" cy="788.5" r="332.5" fill="#FFE044"/><path id="Oval Copy" fill-rule="evenodd" clip-rule="evenodd" d="M1241 788.5C1241 604.865 1092.13 456 908.5 456C724.865 456 576 604.865 576 788.5C576 972.135 724.865 1121 908.5 1121C1092.13 1121 1241 972.135 1241 788.5ZM580 788.5C580 607.074 727.074 460 908.5 460C1089.93 460 1237 607.074 1237 788.5C1237 969.926 1089.93 1117 908.5 1117C727.074 1117 580 969.926 580 788.5Z" fill="black"/><g id="Group 3"><circle id="Oval_2" cx="688" cy="713" r="64" fill="#FFABDD"/><circle id="Oval Copy 2" cx="1127" cy="713" r="64" fill="#FFABDD"/></g><g id="Group"><path id="Path 90 Copy" d="M1011.19 680.153L1014.81 681.847C1007.72 697.014 995.783 704.701 979.296 704.701C962.949 704.701 951.517 697.135 945.34 682.225L945.145 681.747L948.855 680.253C954.374 693.961 964.404 700.701 979.296 700.701C994.052 700.701 1004.51 694.073 1010.97 680.62L1011.19 680.153Z" fill="black"/><path id="Path 90 Copy 2" d="M866.188 680.153L869.812 681.847C862.721 697.014 850.783 704.701 834.296 704.701C817.949 704.701 806.517 697.135 800.34 682.225L800.145 681.747L803.855 680.253C809.374 693.961 819.404 700.701 834.296 700.701C849.052 700.701 859.512 694.073 865.967 680.62L866.188 680.153Z" fill="black"/></g><g id="Group 2"><path id="Path 89" d="M1120.61 734.778L1123.74 737.264C1074.23 799.703 1002.09 830.923 907.501 830.923C813.845 830.923 743.572 800.311 696.88 739.083L695.473 737.218L698.677 734.824C744.556 796.222 814.096 826.923 907.501 826.923C999.987 826.923 1070.47 796.82 1119.14 736.612L1120.61 734.778Z" fill="black"/><path id="Path 91" d="M709.481 712.864L713.476 713.066C712.868 725.064 707.643 733.428 697.901 737.842C688.538 742.086 676.829 742.155 662.816 738.143L662.113 737.939L663.243 734.102C676.721 738.07 687.709 738.07 696.25 734.199C704.437 730.489 708.806 723.644 709.452 713.364L709.481 712.864Z" fill="black"/><path id="Path 91 Copy" d="M1108.43 712.899L1104.44 713.101C1105.05 725.098 1110.27 733.463 1120.01 737.877C1129.38 742.121 1141.08 742.19 1155.1 738.178L1155.8 737.974L1154.67 734.137C1141.19 738.105 1130.21 738.105 1121.66 734.234C1113.48 730.524 1109.11 723.679 1108.46 713.399L1108.43 712.899Z" fill="black"/></g><path id="Path 90" fill-rule="evenodd" clip-rule="evenodd" d="M664.638 948.22C664.638 948.22 661.362 961.823 664.638 967.377C697.44 1023 752.067 1057.11 809.606 1073.53C904.533 1100.62 774.606 1000.66 735.991 948.22C697.376 895.78 664.638 948.22 664.638 948.22Z" fill="white"/></g></g></svg>