<svg viewBox="104.82758620689651 188.02499999999998 360.34482758620675 277.9499999999999" xmlns="http://www.w3.org/2000/svg" overflow="visible" xmlns:xlink="http://www.w3.org/1999/xlink" width="189.34482758620675px" height="189.9499999999999px"><g id="Master/Stickers/Sucess" stroke="none" stroke-width="1" fill="none" fill-rule="evenodd"><g id="Group-31" transform="translate(108.000000, 194.000000)"><path d="M31.715229,89.3716906 C31.715229,89.3716906 23.6329589,109.293306 22.1636561,125.893542 C20.6943533,142.493779 42.0003486,134.746114 54.1237537,107.631507 C54.1237537,107.631507 71.3908234,135.697932 85.3503047,136.960367 C99.3119955,138.22502 85.717078,108.925003 77.2680346,91.9542455 C95.0631695,82.0012034 148.897098,43.9173941 75.4319585,59.8586798 C75.4319585,59.8586798 71.7575968,25.919383 58.5338716,27.0265092 C45.3057275,28.1336354 39.061743,60.229201 39.061743,60.229201 C39.061743,60.229201 9.3044948,52.113234 1.58899802,58.3832512 C-6.12428928,64.655487 15.9174621,83.1016735 31.715229,89.3716906" id="Fill-12" fill="#EBE200"/><path d="M154.715229,62.3729471 C154.715229,62.3729471 146.632959,82.2949634 145.163656,98.8955344 C143.694353,115.493887 165.000349,107.748285 177.123754,80.6331314 C177.123754,80.6331314 194.390823,108.700122 208.350305,109.960363 C222.311995,111.225042 208.717078,81.9266535 200.268035,64.9555539 C218.06317,55.0023113 271.897098,16.9155162 198.431958,32.8593417 C198.431958,32.8593417 194.757597,-1.08063873 181.533872,0.0265097439 C168.305727,1.13143949 162.061743,33.2276517 162.061743,33.2276517 C162.061743,33.2276517 132.304495,25.1115211 124.588998,31.3838834 C116.875711,37.6540268 138.917462,56.1005848 154.715229,62.3729471" id="Fill-14" fill="#EBE200"/><path d="M272.713939,97.3716906 C272.713939,97.3716906 264.631613,117.293306 263.1623,133.893542 C261.692987,150.493779 282.999131,142.746114 295.12483,115.631507 C295.12483,115.631507 312.389811,143.697932 326.34939,144.960367 C340.311178,146.22502 326.718375,116.925003 318.269273,99.9542455 C336.064532,90.0012034 389.896627,51.9173941 316.430974,67.8586798 C316.430974,67.8586798 312.758796,33.919383 299.532769,35.0265092 C286.306742,36.1336354 280.060505,68.2269823 280.060505,68.2269823 C280.060505,68.2269823 250.303049,60.113234 242.589708,66.3832512 C234.874157,72.6532684 256.918272,91.1016735 272.713939,97.3716906" id="Fill-16" fill="#EBE200"/><path d="M257.422863,178 L69.8733443,178 C69.8733443,178 11.03493,178 8.09334106,223.44022 C5.14954038,268.877384 72.8149333,265.946239 72.8149333,265.946239 L257.422863,265.985908 C257.422863,265.985908 316.966817,268.165535 317,218.309613 C317.024321,177.273576 257.422863,178 257.422863,178" id="Fill-18" fill="#FF71DB"/><path d="M62,208.382841 C64.6775801,208.360238 64.6509375,205.263641 67.3285176,205.241039 C70.0038774,205.218436 70.0371806,209.022503 72.7125405,208.9999 C75.3879004,208.977297 75.3745791,207.329546 78.0499389,207.306943 C80.7297392,207.28434 80.727519,207.019886 83.4028788,206.999544 C86.0826791,206.97468 86.0649174,204.911036 88.7447177,204.886173 C91.4222978,204.86357 91.455601,208.873323 94.1354013,208.850721 C96.8107611,208.828118 96.8041005,207.912701 99.4794603,207.887837 C102.15704,207.865234 102.139279,205.632069 104.814639,205.609466 C107.492219,205.589123 107.516641,208.367019 110.194221,208.342155 C112.874021,208.321813 112.876242,208.581746 115.556042,208.556883 C118.233622,208.53428 118.233622,208.480033 120.911202,208.45517 C123.588782,208.432567 123.577681,207.180367 126.255261,207.155504 C128.935061,207.132901 128.928401,206.088647 131.605981,206.066044 C134.285781,206.043441 134.290221,206.497759 136.970022,206.475157 C139.647602,206.452554 139.649822,206.694405 142.327402,206.671802 C145.007202,206.646939 145.009423,206.981461 147.687003,206.956598 C150.366803,206.933995 150.366803,206.782556 153.046603,206.759953 C155.719743,206.73509 155.733064,208.089003 158.406204,208.0664 C161.079343,208.043797 161.057141,205.356313 163.730281,205.33145 C166.405641,205.311108 166.410081,205.930427 169.085441,205.907824 C171.763021,205.885221 171.75192,204.194525 174.43172,204.171922 C177.1093,204.149319 177.127062,206.486458 179.806862,206.461595 C182.484443,206.441252 182.491103,207.212011 185.166463,207.189408 C187.844043,207.166805 187.824061,204.913297 190.503861,204.888433 C193.183662,204.865831 193.190322,205.611726 195.872343,205.591383 C198.549923,205.56652 198.554363,206.170017 201.231943,206.149675 C203.913964,206.124812 203.911744,205.989194 206.593764,205.966591 C209.273565,205.943989 209.273565,205.862618 211.953365,205.840015 C214.635385,205.815152 214.630945,205.48515 217.315186,205.462547 C219.994986,205.439944 220.014968,207.765782 222.694768,207.743179 C225.376789,207.718316 225.352366,204.922338 228.034387,204.897475 C230.718628,204.874872 230.714187,204.452198 233.398428,204.427334 C236.076008,204.404732 236.09377,206.665021 238.77135,206.640158 C241.45337,206.619815 241.44671,205.905564 244.12651,205.885221 C246.810751,205.860358 246.819631,206.768994 249.503872,206.744131 C252.188113,206.723788 252.16369,204.022743 254.850151,204.00014 C257.534392,203.977537 257.556594,206.703446 260.243055,206.680843 C262.931736,206.65598 262.938397,207.526191 265.629298,207.503588 C268.317979,207.480985 268.311319,206.599472 271,206.57687" id="Stroke-43" stroke="#FF00BF" stroke-width="3" stroke-linecap="round"/><path d="M62,238.384804 C64.6753599,238.35993 64.6509375,235.264208 67.3262973,235.239333 C70.0016572,235.218982 70.0349604,239.024753 72.7103203,238.999879 C75.3856801,238.979527 75.3723588,237.331038 78.0499389,237.306163 C80.727519,237.285812 80.7252988,237.021239 83.4028788,236.998626 C86.0804589,236.976013 86.0626972,234.909183 88.7424975,234.88657 C91.4200775,234.861696 91.455601,238.875507 94.1331811,238.850633 C96.8107611,238.82802 96.8018803,237.912192 99.4794603,237.889579 C102.15482,237.866966 102.137058,235.6328 104.814639,235.610187 C107.492219,235.587574 107.514421,238.366714 110.192001,238.344101 C112.871801,238.321488 112.874021,238.581538 115.553822,238.558925 C118.233622,238.536312 118.231402,238.479779 120.911202,238.457166 C123.588782,238.434553 123.577681,237.17953 126.255261,237.156917 C128.932841,237.132043 128.92618,236.087322 131.605981,236.06697 C134.283561,236.042096 134.288001,236.496617 136.967802,236.474004 C139.645382,236.453653 139.647602,236.693351 142.325182,236.670738 C145.004982,236.648125 145.007202,236.980536 147.687003,236.957923 C150.366803,236.933049 150.364583,236.783803 153.044383,236.758928 C155.719743,236.736315 155.730844,238.090835 158.406204,238.065961 C161.079343,238.045609 161.057141,235.35466 163.730281,235.332047 C166.403421,235.311695 166.410081,235.931292 169.083221,235.906417 C171.763021,235.886066 171.7497,234.192351 174.4295,234.171999 C177.10708,234.147124 177.127062,236.485311 179.806862,236.462698 C182.482222,236.442346 182.488883,237.211189 185.164243,237.190837 C187.841823,237.165963 187.824061,234.911445 190.501641,234.888832 C193.183662,234.866219 193.188102,235.612448 195.870123,235.589835 C198.547703,235.567222 198.552143,236.17099 201.231943,236.148377 C203.911744,236.125764 203.911744,235.987824 206.591544,235.967473 C209.271344,235.942598 209.271344,235.863453 211.951145,235.838578 C214.633165,235.815965 214.630945,235.485815 217.312965,235.460941 C219.992766,235.438328 220.012748,237.767469 222.692548,237.742595 C225.374568,237.719982 225.352366,234.92049 228.034387,234.897877 C230.716407,234.873002 230.714187,234.450139 233.396208,234.427526 C236.073788,234.402652 236.09377,236.663954 238.769129,236.641341 C241.45115,236.620989 241.444489,235.906417 244.12651,235.883804 C246.810751,235.861191 246.817411,236.767974 249.501652,236.74536 C252.185893,236.722747 252.16369,234.020492 254.847931,234.00014 C257.532172,233.977527 257.556594,236.704657 260.240835,236.679783 C262.929516,236.65717 262.938397,237.52551 265.627078,237.502897 C268.317979,237.482545 268.309099,236.600637 271,236.575763" id="Stroke-45" stroke="#FF00BF" stroke-width="3" stroke-linecap="round"/></g></g></svg>