<svg viewBox="566.875 448.344827586207 680.2499999999995 679.3103448275858" fill="none" xmlns="http://www.w3.org/2000/svg" xmlns:xlink="http://www.w3.org/1999/xlink" overflow="visible" width="680.2499999999995px" height="679.3103448275858px"><g id="Master/Emoji/Suspicious"><circle id="Oval" cx="906.5" cy="788.5" r="332.5" fill="#FFE044"/><path id="Oval Copy" fill-rule="evenodd" clip-rule="evenodd" d="M1240 788.5C1240 604.865 1091.13 456 907.5 456C723.865 456 575 604.865 575 788.5C575 972.135 723.865 1121 907.5 1121C1091.13 1121 1240 972.135 1240 788.5ZM579 788.5C579 607.074 726.074 460 907.5 460C1088.93 460 1236 607.074 1236 788.5C1236 969.926 1088.93 1117 907.5 1117C726.074 1117 579 969.926 579 788.5Z" fill="black"/><path id="Path 90" fill-rule="evenodd" clip-rule="evenodd" d="M663.638 948.22C663.638 948.22 660.362 961.823 663.638 967.377C696.44 1023 751.067 1057.11 808.606 1073.53C903.533 1100.62 773.606 1000.66 734.991 948.22C696.376 895.78 663.638 948.22 663.638 948.22Z" fill="white"/><circle id="Oval_2" cx="841.5" cy="825.5" r="37.5" fill="black"/><rect id="Rectangle" x="741" y="585" width="126" height="36" rx="18" fill="#651F1F"/><path id="Rectangle Copy 2" fill-rule="evenodd" clip-rule="evenodd" d="M867 604.014C867 593.244 858.27 584.514 847.5 584.514H760.5C749.73 584.514 741 593.244 741 604.014C741 614.783 749.73 623.514 760.5 623.514H847.5C858.27 623.514 867 614.783 867 604.014ZM760.5 588.514H847.5L847.816 588.517C856.231 588.685 863 595.559 863 604.014C863 612.574 856.06 619.514 847.5 619.514H760.5L760.184 619.511C751.769 619.342 745 612.468 745 604.014C745 595.453 751.94 588.514 760.5 588.514Z" fill="black"/><rect id="Rectangle Copy" x="934.059" y="586.423" width="126" height="37.0148" rx="18.5074" transform="rotate(-18 934.059 586.423)" fill="#651F1F"/><path id="Rectangle Copy 3" fill-rule="evenodd" clip-rule="evenodd" d="M1059.92 565.546C1056.59 555.304 1045.59 549.698 1035.35 553.026L952.604 579.911C942.362 583.239 936.756 594.24 940.084 604.482C943.412 614.725 954.413 620.33 964.656 617.002L1047.4 590.117C1057.64 586.789 1063.25 575.788 1059.92 565.546ZM953.84 583.715L1036.58 556.83L1036.88 556.736C1044.94 554.296 1053.5 558.741 1056.11 566.782C1058.76 574.923 1054.3 583.668 1046.16 586.313L963.42 613.198L963.118 613.292C955.063 615.732 946.501 611.287 943.889 603.246C941.243 595.105 945.699 586.36 953.84 583.715Z" fill="black"/><g id="Group 1179"><path id="Vector 3" d="M875 650H746C747.833 672.667 757.7 717.8 810.5 717C863.3 716.2 875.5 672 875 650Z" fill="white"/><g id="Group 1178"><g id="Group 1177"><path id="Vector 5 (Stroke)" fill-rule="evenodd" clip-rule="evenodd" d="M742 647H875.123L875.168 648.955C875.425 660.274 872.431 677.264 862.552 691.586C852.601 706.013 835.751 717.59 808.699 718C781.601 718.41 765.302 706.976 755.639 692.405C746.066 677.971 743.102 660.619 742.175 649.161L742 647ZM746.356 651C747.453 662.104 750.517 677.446 758.973 690.195C767.901 703.657 782.935 714.39 808.638 714C834.385 713.61 850.036 702.687 859.259 689.314C868.005 676.635 871.05 661.626 871.179 651H746.356Z" fill="black"/><path id="Vector 4" d="M846.992 650H772C773.066 665.221 778.802 695.53 809.496 694.993C840.19 694.456 847.282 664.774 846.992 650Z" fill="black"/></g></g></g><g id="Group 1180"><path id="Vector 3_2" d="M1070 650H941C942.833 672.667 952.7 717.8 1005.5 717C1058.3 716.2 1070.5 672 1070 650Z" fill="white"/><g id="Group 1178_2"><g id="Group 1177_2"><path id="Vector 5 (Stroke)_2" fill-rule="evenodd" clip-rule="evenodd" d="M937 647H1070.12L1070.17 648.955C1070.43 660.274 1067.43 677.264 1057.55 691.586C1047.6 706.013 1030.75 717.59 1003.7 718C976.601 718.41 960.302 706.976 950.639 692.405C941.066 677.971 938.102 660.619 937.175 649.161L937 647ZM941.356 651C942.453 662.104 945.517 677.446 953.973 690.195C962.901 703.657 977.935 714.39 1003.64 714C1029.39 713.61 1045.04 702.687 1054.26 689.314C1063 676.635 1066.05 661.626 1066.18 651H941.356Z" fill="black"/><path id="Vector 4_2" d="M1041.99 650H967C968.066 665.221 973.802 695.53 1004.5 694.993C1035.19 694.456 1042.28 664.774 1041.99 650Z" fill="black"/></g></g></g></g></svg>