<svg viewBox="476.1750000000002 470.9885057471263 861.6499999999997 634.0229885057472" fill="none" xmlns="http://www.w3.org/2000/svg" xmlns:xlink="http://www.w3.org/1999/xlink" overflow="visible" width="861.6499999999997px" height="634.0229885057472px"><g id="Master/Office Supplies/Pencil"><g id="Group"><path id="Path 155" fill-rule="evenodd" clip-rule="evenodd" d="M1015.06 1073.01C1015.06 1073.01 1026.41 1086.54 1091.29 1082.03C1156.17 1077.52 1331.99 1062.94 1331.99 1062.94L1220.54 831.136C1220.54 831.136 1202.55 795.775 1183.47 790.932C1164.39 786.089 1073.46 771.209 1073.46 771.209L946.59 901.168L968.122 1034.51L1015.06 1073.01Z" fill="white"/><path id="Path 155 Copy" fill-rule="evenodd" clip-rule="evenodd" d="M1074.69 770.625L946.389 902.05L968.202 1037.13L1015.6 1076.01L1015.72 1076.15C1023.9 1085.36 1048.32 1088.42 1089.51 1085.84L1092.05 1085.67L1094.67 1085.49C1133.39 1082.79 1200.75 1077.48 1296.75 1069.58L1336.98 1066.25L1224.26 831.787C1212.03 807.748 1199.31 793.956 1185.9 790.551C1174.12 787.562 1142.12 781.756 1089.82 773.112L1074.69 770.625ZM950.66 903.4L1076.1 774.908L1078.66 775.328C1135.89 784.715 1171.08 791.025 1184.13 794.234L1184.91 794.428C1196.7 797.42 1208.46 809.975 1219.97 832.189L1220.68 833.561L1330.86 1062.74L1313.4 1064.19C1214.98 1072.32 1144.69 1077.9 1102.53 1080.92L1093.08 1081.59C1050.54 1084.55 1025.49 1081.59 1018.53 1073.28L1018.41 1073.14L971.909 1035L950.66 903.4Z" fill="black"/><path id="Path 154" fill-rule="evenodd" clip-rule="evenodd" d="M1183.47 790.933L672.574 494.725C672.574 494.725 620.68 479.542 574.321 523.19C527.961 566.839 468.378 646.198 480.152 729.61C480.152 729.61 488.511 770.925 526.949 790.933C565.387 810.941 1015.06 1073.01 1015.06 1073.01C1015.06 1073.01 969.117 984.949 1038.72 879.814C1108.32 774.678 1183.47 790.933 1183.47 790.933Z" fill="#F9C818"/><path id="Path 154 Copy" fill-rule="evenodd" clip-rule="evenodd" d="M1197.39 797.13L675.301 494.432L674.01 494.06C639.086 484.227 605.968 494.024 574.883 523.292C547.79 548.8 523.044 579.691 505.608 612.099C484.065 652.142 474.605 692.487 480.105 731.447L480.125 731.564C485.818 759.704 501.801 780.649 527.958 794.265L528.767 794.688C555.674 808.871 706.373 895.918 980.683 1055.73L1021.97 1079.79L1018.77 1073.65C988.503 1015.63 996.293 951.998 1042.32 882.476C1088.31 812.999 1135.84 783.817 1184.98 794.445L1197.39 797.13ZM509.131 613.994C526.348 581.992 550.828 551.434 577.625 526.204C608.038 497.569 640.067 488.29 673.946 498.203L673.716 498.136L1175.08 788.815L1173.61 788.674C1127.45 784.608 1083.02 814.558 1040.39 878.159L1038.98 880.268C994.076 948.1 984.929 1010.87 1011.69 1068.34L1012.23 1069.48L991.737 1057.54C711.548 894.287 557.903 805.524 530.617 791.142L529.055 790.323C504.408 777.255 489.442 757.448 484.045 730.771L484.058 730.827L483.909 729.747C478.934 692.447 487.988 653.736 508.499 615.175L509.131 613.994Z" fill="black"/><path id="Path 158 Copy" fill-rule="evenodd" clip-rule="evenodd" d="M794.734 565.505L735.443 531.173C735.443 531.173 731.401 529.567 731.254 529.525C698.604 520.262 670.001 525.109 644.791 546.803C606.805 579.49 562.945 634.043 546.547 683.823C530.149 733.603 532.271 785.341 557.508 808.935C557.508 808.935 578.341 820.884 598.574 832.036C618.808 843.188 618.032 842.447 618.032 842.447C618.032 842.447 616.596 754.6 671.389 672.121C726.182 589.643 794.734 565.505 794.734 565.505Z" fill="white"/><path id="Path 158 Copy 2" fill-rule="evenodd" clip-rule="evenodd" d="M734.588 529.478C734.147 529.306 733.9 529.214 733.782 529.174L732.715 528.875C699.187 519.637 670.414 525.336 645.418 546.845C602.485 583.789 561.748 638.708 546.58 684.755C529.268 737.309 533.06 788.568 558.074 811.954L558.243 812.113L561.915 814.215C574.625 821.482 587.167 828.525 599.541 835.345L601.287 836.307C606.593 839.228 610.71 841.476 613.643 843.053L616.299 844.468C616.728 844.694 617.108 844.893 617.441 845.064L618.319 845.507C618.649 845.67 618.897 845.785 619.083 845.86L619.24 845.921C619.483 846.012 619.657 846.05 619.972 846.051L620.115 846.052C620.328 846.051 620.439 846.022 620.776 845.844L621.31 845.552C621.965 844.522 622.068 844.359 621.971 843.796L621.962 843.746L621.942 842.228C621.375 785.28 638.684 730.025 673.904 676.426L674.987 674.786C711.292 620.138 752.078 584.883 797.331 568.949L801.426 567.507L738.25 530.927L734.588 529.478ZM550.379 686.007C565.295 640.724 605.605 586.382 648.027 549.877C672.225 529.055 699.933 523.727 732.641 533.007L736.504 534.537L791.967 566.652L790.542 567.199C747.035 584.116 707.778 618.711 672.76 670.919L671.656 672.573C635.644 726.779 617.725 782.768 617.93 840.501L617.932 840.806L616.431 840.009C614.244 838.839 611.253 837.214 607.462 835.136L598.098 829.98C585.712 823.129 573.157 816.055 560.435 808.758L560.645 808.878L560.103 808.361C537.34 786.175 533.742 737.721 549.879 687.543L550.379 686.007Z" fill="black"/><path id="Path 156 Copy" fill-rule="evenodd" clip-rule="evenodd" d="M1310.5 1011.54L1308.78 1012.21C1295.98 1017.22 1286.97 1024.96 1281.86 1035.41C1276.8 1045.73 1274.96 1056.96 1276.31 1069.06L1276.53 1070.98L1337 1066.26L1310.5 1011.54ZM1308.39 1016.69L1308.53 1016.63L1330.85 1062.73L1280.1 1066.69L1280.08 1066.45C1279.27 1056.17 1280.96 1046.63 1285.15 1037.79L1285.45 1037.17C1289.86 1028.17 1297.47 1021.35 1308.39 1016.69Z" fill="black"/><path id="Path 158" fill-rule="evenodd" clip-rule="evenodd" d="M738 532.325L674.02 495.283C674.02 495.283 624.775 481.117 586.79 513.804C548.804 546.491 504.944 601.043 488.546 650.824C472.148 700.604 475.725 748.595 500.961 772.189C500.961 772.189 520.34 787.884 540.573 799.037C560.807 810.189 560.031 809.448 560.031 809.448C560.031 809.448 558.595 721.6 613.388 639.122C668.181 556.644 738 532.325 738 532.325Z" fill="#FF2E52"/><path id="Path 158 Copy 3" fill-rule="evenodd" clip-rule="evenodd" d="M743.262 533.779L675.295 494.429L674.055 494.076C640.989 484.86 611.55 491.276 585.97 513.288C543.038 550.232 502.3 605.151 487.132 651.198C470.145 702.767 474.691 750.912 500.081 774.65L500.188 774.743C513.197 785.279 526.499 794.295 540.093 801.788C546.844 805.509 551.844 808.239 555.096 809.979L556.851 810.911C557.28 811.137 557.661 811.335 557.993 811.506L558.871 811.95C559.201 812.112 559.449 812.227 559.635 812.302L559.792 812.363C560.036 812.454 560.209 812.492 560.524 812.494L560.6 812.495C560.86 812.497 560.958 812.482 561.329 812.287L561.862 811.995C562.517 810.964 562.621 810.802 562.523 810.238L562.514 810.189L562.494 808.671C561.927 751.722 579.236 696.468 614.456 642.869L615.54 641.228C651.842 586.583 693.046 551.269 739.143 535.213L743.262 533.779ZM490.931 652.449C505.848 607.167 546.157 552.824 588.58 516.32C613.389 494.971 641.766 488.946 673.952 498.205L673.721 498.139L733.768 532.904L732.269 533.472C687.991 550.498 648.341 585.149 613.312 637.361L612.208 639.015C576.197 693.221 558.277 749.211 558.482 806.943L558.484 807.249L557.895 806.938L555.769 805.8C554.482 805.107 552.977 804.29 551.253 803.35L542.024 798.285C528.641 790.908 515.534 782.025 502.705 771.634L502.76 771.678L502.097 771.046C478.927 748.554 474.632 703.121 490.441 653.955L490.931 652.449Z" fill="black"/><path id="Path 157" fill-rule="evenodd" clip-rule="evenodd" d="M1306 1046.17L1205.67 833.273C1205.67 833.273 1190.89 815.717 1121.46 777.483C1052.02 739.248 670.714 520.465 670.714 520.465C670.714 520.465 641.814 514.826 625.626 530.889L1143.72 826.925C1143.72 826.925 1184.09 850.491 1194.88 878.708C1205.67 906.925 1281.91 1067.14 1281.91 1067.14L1306 1046.17Z" fill="white"/><path id="Path 156" fill-rule="evenodd" clip-rule="evenodd" d="M1276.36 1067.28L1331.99 1062.94L1307.57 1012.52C1307.57 1012.52 1289.04 1019.77 1281.72 1034.73C1274.4 1049.7 1276.36 1067.28 1276.36 1067.28Z" fill="black"/></g></g></svg>