<svg viewBox="194.91379310344826 122.625 180.17241379310337 408.75" xmlns="http://www.w3.org/2000/svg" overflow="visible" xmlns:xlink="http://www.w3.org/1999/xlink" width="180.17241379310337px" height="408.75px"><g id="Master/Stickers/Tree 2" stroke="none" stroke-width="1" fill="none" fill-rule="evenodd"><g id="Tree-Copy" transform="translate(202.000000, 124.000000)"><path d="M75.7165296,270.92707 L77.3527313,383.376837 C77.3527313,383.376837 77.761897,393.505581 72.6484785,395.986252 C67.5355214,398.466457 67.3385498,405.701474 75.0047565,405.908002 C82.6705019,406.114997 92.6925253,405.908002 94.328727,405.908002 C95.9649286,405.908002 103.328067,406.114997 100.260477,395.986252 C97.1924258,385.857041 95.9649286,389.164757 96.1697421,373.868143 C96.3740944,358.571529 96.1697421,272.580695 96.1697421,272.580695 C96.1697421,272.580695 90.2384535,263.485524 75.7165296,270.92707" id="Fill-65" fill="#FECB72"/><path d="M166.845514,213.87931 C165.782852,197.343078 160.308392,181.953424 151.593632,167.9251 C148.000668,162.142251 144.073724,156.575085 140.452266,150.810443 C138.695021,148.014488 137.009242,145.172316 135.481345,142.244244 C134.781623,140.902988 134.134217,139.538858 133.498488,138.166324 C133.171048,137.295185 132.838937,136.425913 132.542326,135.542637 C131.646888,132.876466 130.981732,130.158009 130.506687,127.3952 C129.940557,121.393399 130.22876,115.387396 130.936422,109.406136 C134.149164,87.7812569 143.616896,62.9668705 136.167988,41.4194884 C127.684444,16.879142 104.049913,-11.8712422 53.4228401,5.11083063 C41.2566479,9.1915514 30.5557611,20.8048691 25.6932079,32.6334038 C17.3488611,52.9319669 20.8493389,72.5218542 22.1847894,80.1034702 C23.0349188,84.9320819 24.364764,89.6243739 26.0052334,94.2139593 L26.0047663,94.2139593 C26.0047663,94.2139593 37.5954863,129.883502 23.211017,144.534134 L23.2128854,144.534134 C21.9965465,145.834307 20.7979574,147.149885 19.6460788,148.508414 C8.55842991,161.577831 2.4164787,176.960949 0.487806058,193.909875 C-2.93419824,223.968368 11.9696908,255.812089 35.0918086,274.759593 C46.7750152,284.333718 60.4639666,291.854177 75.4832304,294.504474 C83.1974539,295.866271 90.9873482,296.475508 98.7861175,295.57309 C107.700798,294.541355 115.724245,292.402723 123.934533,288.778113 C152.284012,276.262378 168.788667,244.111471 166.845514,213.87931" id="Fill-66" fill="#3164CF"/></g></g></svg>