<svg viewBox="181.4000000000001 244.55172413793093 1451.2000000000003 1200.1149425287354" fill="none" xmlns="http://www.w3.org/2000/svg" xmlns:xlink="http://www.w3.org/1999/xlink" overflow="visible" width="1451.2000000000003px" height="1200.1149425287354px"><g id="Master/Cats/Standing"><g id="Group 938 Copy"><path id="Path" d="M671.254 750.584C578.784 872.644 550.529 956.586 547.961 983.299C847.974 1037.75 1443.38 1138.65 1424.88 1106.59C1401.77 1066.52 1387.9 949.394 1344.74 839.971C1310.22 752.433 1219.91 598.009 1167.51 561.021H848.488C842.323 525.574 763.724 628.524 671.254 750.584Z" fill="#9FDDFF"/><path id="Path Copy" fill-rule="evenodd" clip-rule="evenodd" d="M831.562 557.075L832.253 556.599C842.602 549.57 849.906 549.924 852.249 558.639L852.279 558.753L1170.32 558.753L1170.84 559.119C1195.61 576.601 1230.15 620.995 1266.71 680.221C1300.06 734.249 1331.39 794.885 1348.78 838.969C1352.61 848.684 1356.3 858.689 1359.88 869.016C1370.74 900.378 1379.87 932.332 1390.16 973.186L1391.01 976.564C1393.08 984.799 1398.44 1006.68 1401.17 1017.78C1401.59 1019.53 1401.96 1021.01 1402.23 1022.13L1404.8 1032.47C1407.99 1045.15 1410.57 1054.91 1413.07 1063.63L1413.93 1066.6C1418.94 1083.66 1423.54 1095.93 1428.3 1104.46L1428.9 1105.52C1430.68 1108.84 1428.55 1111.43 1424.12 1112.74C1420.72 1113.74 1415.46 1114.29 1408.3 1114.44L1407.02 1114.46C1392.74 1114.66 1371.25 1113.32 1342.96 1110.54L1338.18 1110.07C1284.58 1104.64 1208.39 1094.37 1113.62 1079.99L1102.86 1078.35C944.5 1054.17 740.16 1019.46 560.842 987.003L547.973 984.671L548.149 982.84C549.748 966.207 559.476 936.653 576.269 901.565L576.924 900.201C598.635 855.131 630.168 804.113 671.838 749.108L673.776 746.551C736.078 664.334 764.919 627.318 791.281 597.019L792.908 595.153C809.366 576.336 822.153 563.653 831.562 557.075ZM1169.05 562.753L848.984 562.753L848.696 561.096C847.539 554.446 843.659 553.842 835.125 559.489L834.5 559.908C825.39 566.095 812.571 578.747 795.919 597.786L794.297 599.646C769.373 628.294 742.165 663.041 686.325 736.623L675.027 751.524C633.094 806.874 601.487 858.137 579.877 903.292C563.933 936.606 554.456 964.793 552.354 981.23L552.333 981.396L561.443 983.047C740.755 1015.5 945.112 1050.21 1103.46 1074.4L1108.34 1075.14C1204.8 1089.83 1282.37 1100.34 1336.92 1105.92L1340.23 1106.25C1369.93 1109.23 1392.35 1110.66 1406.97 1110.46L1408.19 1110.44C1415.03 1110.3 1420 1109.78 1422.99 1108.9C1424.35 1108.5 1425.17 1108.06 1425.45 1107.7L1425.46 1107.7C1425.49 1107.65 1425.5 1107.64 1425.45 1107.55L1425.07 1106.88C1420.04 1098.01 1415.27 1085.36 1410.1 1067.74L1409.57 1065.93C1406.89 1056.65 1404.15 1046.31 1400.71 1032.58L1398.88 1025.26C1398.74 1024.67 1398.14 1022.23 1397.28 1018.72C1395.23 1010.39 1391.71 996.015 1389.2 985.88L1386.71 975.846C1376.27 934.286 1367.07 901.988 1356.1 870.325C1352.54 860.051 1348.87 850.098 1345.06 840.437C1327.77 796.59 1296.54 736.16 1263.3 682.322L1262.22 680.563C1226.33 622.659 1192.48 579.29 1168.53 562.387L1169.05 562.753Z" fill="black"/><path id="Path_2" d="M396.928 1064.98C356.857 1100.04 277.746 1146.15 236.648 1155.91L324.495 1245.3C433.917 1171.32 658.925 1143.58 917.841 1143.58C1176.76 1143.58 1400.74 1181.59 1480.36 1200.6L1568.21 1143.58C1554.85 1136.39 1508.41 1116.15 1429.51 1092.72C1330.87 1063.44 1281.56 935.521 1078.12 881.581C874.688 827.64 678.961 881.581 595.738 920.11C539.36 946.211 458.574 1011.04 396.928 1064.98Z" fill="#9FDDFF"/><path id="Path Copy 2" fill-rule="evenodd" clip-rule="evenodd" d="M597.075 918.027C647.255 894.795 718.257 874.215 793.758 863.919C890.069 850.786 987.667 854.682 1080.81 879.38C1157.85 899.806 1216.72 930.986 1274.19 976.269C1287.16 986.492 1297.58 995.265 1314.95 1010.44L1328.6 1022.41C1347.01 1038.55 1355.52 1045.75 1365.9 1053.82L1367.96 1055.4C1390.84 1072.97 1410.83 1084.17 1432.26 1090.53L1436.15 1091.7C1499.56 1110.7 1550.47 1130.32 1571.34 1141.55L1574.31 1143.15L1482.91 1202.48L1479.12 1201.58C1430.24 1190.12 1353.14 1176.93 1268.27 1166.68L1264.4 1166.21C1153.17 1152.92 1036.22 1145.31 920.018 1145.31C636.658 1145.31 429.192 1178.13 327.792 1246.69L326.413 1247.62L234.914 1154.51L238.363 1153.69C277.886 1144.31 356.588 1099.26 397.788 1063.21C476.522 994.312 547.852 940.815 597.075 918.027ZM1270 978.066C1213.48 933.831 1155.5 903.321 1079.79 883.246C987.184 858.692 890.112 854.817 794.298 867.883C719.189 878.125 648.572 898.594 598.755 921.657C549.986 944.235 478.878 997.566 400.422 1066.22C360.018 1101.57 284.232 1145.32 243.011 1156.63L242.688 1156.72L326.94 1242.45L328.652 1241.31C430.953 1174.25 634.564 1141.97 911.517 1141.32L920.018 1141.31C1037.74 1141.31 1156.21 1149.11 1268.75 1162.71C1353.76 1172.98 1431.01 1186.19 1480.04 1197.69L1482.17 1198.19L1566.42 1143.5L1565.37 1142.96C1542.41 1131.5 1493.29 1112.91 1433.06 1094.95L1430.18 1094.09C1408.26 1087.43 1387.85 1075.82 1364.52 1057.8C1354.15 1049.79 1345.99 1042.94 1328.99 1028.07L1318.54 1018.9C1298.06 1000.93 1286.87 991.406 1273.17 980.564L1270 978.066Z" fill="black"/><path id="Path_3" fill-rule="evenodd" clip-rule="evenodd" d="M1501.15 1248.53H1553.53C1589.69 1248.53 1619.01 1218.48 1619.01 1181.41C1619.01 1144.35 1589.69 1114.3 1553.53 1114.3H1501.15C1464.98 1114.3 1435.67 1144.35 1435.67 1181.41C1435.67 1218.48 1464.98 1248.53 1501.15 1248.53Z" fill="white"/><path id="Path Copy 3" fill-rule="evenodd" clip-rule="evenodd" d="M1503.33 1112.03H1555.71C1592.98 1112.03 1623.19 1142.99 1623.19 1181.15C1623.19 1219.3 1592.98 1250.26 1555.71 1250.26H1503.33C1466.04 1250.26 1435.85 1219.31 1435.85 1181.15C1435.85 1142.98 1466.04 1112.03 1503.33 1112.03ZM1555.71 1116.03H1503.33C1468.28 1116.03 1439.85 1145.17 1439.85 1181.15C1439.85 1217.12 1468.28 1246.26 1503.33 1246.26H1555.71C1590.75 1246.26 1619.19 1217.12 1619.19 1181.15C1619.19 1145.17 1590.75 1116.03 1555.71 1116.03Z" fill="black"/><path id="Path_4" fill-rule="evenodd" clip-rule="evenodd" d="M283.328 1266.95L341.093 1251.22C380.968 1240.36 405.209 1201.86 395.233 1165.22C385.256 1128.59 344.84 1107.69 304.966 1118.55L247.201 1134.28C207.326 1145.13 183.087 1183.64 193.063 1220.27C203.04 1256.91 243.453 1277.81 283.328 1266.95Z" fill="white"/><path id="Path Copy 4" fill-rule="evenodd" clip-rule="evenodd" d="M248.852 1132.08L306.617 1116.35C347.523 1105.21 389.062 1126.69 399.34 1164.43C409.616 1202.17 384.702 1241.74 343.795 1252.88L286.031 1268.61C245.126 1279.75 203.588 1258.27 193.311 1220.53C183.034 1182.79 207.946 1143.22 248.852 1132.08ZM342.744 1249.02C381.589 1238.44 405.155 1201.01 395.48 1165.48C385.804 1129.95 346.512 1109.63 307.668 1120.21L249.903 1135.94C211.059 1146.52 187.495 1183.95 197.17 1219.48C206.846 1255.01 246.137 1275.33 284.979 1264.75L342.744 1249.02Z" fill="black"/><path id="Path_5" d="M722.112 1123.55C811.98 1028.18 959.858 1127.91 990.276 1143.58C843.965 1128.17 826.411 1185.77 843.965 1240.81C913.831 1244.53 1058.68 1235.26 1096.62 1310.03C1144.03 1403.48 1018 1464.15 877.771 1437.94C750.716 1414.19 609.777 1242.75 722.112 1123.55Z" fill="#9FDDFF"/><path id="Path Copy 5" fill-rule="evenodd" clip-rule="evenodd" d="M710.644 1317.31C669.022 1249.13 670.311 1177.64 722.837 1121.91C750.715 1092.32 785.661 1079.42 826.161 1080.58C860.846 1081.57 897.49 1092.57 936.262 1110.95L938.688 1112.11C948.931 1117.03 958.638 1122.12 969.25 1128.02L972.308 1129.73L984.923 1136.86C988.631 1138.94 992.025 1140.83 993.274 1141.48L1002.85 1146.42L992.247 1145.3C924.597 1138.17 881.108 1146.29 859.226 1166.96C841.545 1183.67 838.427 1208.37 847.482 1238.1L847.638 1238.61L849.358 1238.7C854.725 1238.95 860.544 1239.14 868.978 1239.36L882.647 1239.68C918.497 1240.52 934.798 1241.19 955.495 1243.07L959.643 1243.46C992.749 1246.67 1020.3 1252.28 1043 1261.29C1070.34 1272.14 1089.84 1287.69 1100.58 1308.86C1123.61 1354.24 1107.46 1394.78 1060.7 1420.34C1015.85 1444.87 948.235 1452.47 879.584 1439.64C815.659 1427.69 748.11 1378.68 710.644 1317.31ZM983.059 1140.4L968.825 1132.36C957.678 1126.14 947.604 1120.83 936.954 1115.71C897.746 1096.86 860.797 1085.57 826.047 1084.57C786.637 1083.45 752.801 1095.94 725.748 1124.65C674.566 1178.96 673.312 1248.48 714.058 1315.23C750.951 1375.66 817.544 1423.97 880.319 1435.71C948.118 1448.38 1014.81 1440.88 1058.78 1416.83C1103.75 1392.25 1118.99 1353.99 1097.01 1310.67C1086.77 1290.47 1068.03 1275.53 1041.53 1265.01C1018.91 1256.04 991.24 1250.46 957.846 1247.31C937.524 1245.39 922.235 1244.66 890.379 1243.87L870.119 1243.39C859.912 1243.13 853.437 1242.91 847.206 1242.6L844.66 1242.46L844.24 1241.15C834.075 1209.28 837.132 1182.33 856.478 1164.05C878.251 1143.48 919.566 1134.95 982.542 1140.35L983.059 1140.4Z" fill="black"/><path id="Path_6" fill-rule="evenodd" clip-rule="evenodd" d="M810.974 1251.08C822.952 1243.65 836.314 1239.6 845.016 1238.14L845.679 1242.08C837.396 1243.48 824.545 1247.37 813.083 1254.48C801.615 1261.6 791.784 1271.77 788.988 1285.65C787.281 1294.12 789.77 1304.92 796.824 1316.21C803.857 1327.46 815.334 1339.04 831.25 1348.96C863.064 1368.79 912.537 1381.97 979.221 1372.77L979.767 1376.74C912.302 1386.04 861.858 1372.75 829.134 1352.35C812.782 1342.16 800.835 1330.17 793.432 1318.33C786.05 1306.52 783.09 1294.67 785.067 1284.86C788.164 1269.48 799 1258.51 810.974 1251.08Z" fill="black"/><path id="Path_7" fill-rule="evenodd" clip-rule="evenodd" d="M724.086 828.11C708.22 850.366 693.769 873.887 685.32 888.736L681.844 886.758C690.348 871.812 704.871 848.173 720.829 825.788C736.734 803.478 754.248 782.144 768.745 772.06L771.029 775.343C757.169 784.985 740.007 805.777 724.086 828.11Z" fill="black"/><path id="Path_8" fill-rule="evenodd" clip-rule="evenodd" d="M1309.87 1005.18C1276.46 957.581 1218.85 875.517 1193.49 828.593L1197.01 826.691C1222.24 873.376 1279.61 955.107 1313.05 1002.75C1320.37 1013.17 1326.54 1021.96 1330.98 1028.4L1327.68 1030.67C1323.28 1024.29 1317.15 1015.55 1309.87 1005.18Z" fill="black"/><path id="Path_9" fill-rule="evenodd" clip-rule="evenodd" d="M1174.29 412.244L1127.33 261.083L1075.49 351.012L1174.29 412.244Z" fill="#9FDDFF"/><path id="Path Copy 6" fill-rule="evenodd" clip-rule="evenodd" d="M1130.06 255.852L1179.97 416.498L1074.97 351.424L1130.06 255.852ZM1172.97 407.454L1128.96 265.778L1080.37 350.064L1172.97 407.454Z" fill="black"/><path id="Path_10" fill-rule="evenodd" clip-rule="evenodd" d="M1017.9 344.014L1127.67 261.229L1075.84 350.56L1017.9 344.014Z" fill="#FFD0E6"/><path id="Path Copy 7" fill-rule="evenodd" clip-rule="evenodd" d="M1136.55 253.406L1079.09 352.426L1014.87 345.17L1136.55 253.406ZM1076.94 348.157L1123.16 268.515L1025.29 342.321L1076.94 348.157Z" fill="black"/><path id="Path_11" fill-rule="evenodd" clip-rule="evenodd" d="M955.617 331.158L835.574 258.268L886.408 348.403L955.617 331.158Z" fill="#FFD0E6"/><path id="Path Copy 8" fill-rule="evenodd" clip-rule="evenodd" d="M832.254 252.321L962.935 331.671L887.593 350.444L832.254 252.321ZM952.656 330.109L843.25 263.678L889.58 345.826L952.656 330.109Z" fill="black"/><path id="Path_12" fill-rule="evenodd" clip-rule="evenodd" d="M801.059 408.97L835.578 258.268L886.411 345.129L801.059 408.97Z" fill="#9FDDFF"/><path id="Path Copy 9" fill-rule="evenodd" clip-rule="evenodd" d="M836.933 252.634L891.217 345.393L800.07 413.568L836.933 252.634ZM885.96 344.329L838.577 263.365L806.402 403.836L885.96 344.329Z" fill="black"/><path id="Path_13" fill-rule="evenodd" clip-rule="evenodd" d="M789.031 419.613C734.197 507.831 777.294 615.655 885.293 660.446C993.291 705.237 1125.29 670.033 1180.13 581.814C1234.96 493.596 1191.86 385.771 1083.86 340.98C975.863 296.189 843.864 331.394 789.031 419.613Z" fill="#9FDDFF"/><path id="Path Copy 10" fill-rule="evenodd" clip-rule="evenodd" d="M886.704 662.025C777.623 616.785 733.987 507.616 789.51 418.289L791.194 415.633C847.543 328.499 979.028 294.165 1086.81 338.865C1195.89 384.105 1239.52 493.276 1184.01 582.602C1128.63 671.691 995.57 707.176 886.704 662.025ZM1180.61 580.49C1234.75 493.38 1192.19 386.901 1085.27 342.56C978.143 298.129 847.2 333.052 792.907 420.401C738.762 507.511 781.321 613.989 888.237 658.331C995.367 702.762 1126.31 667.839 1180.61 580.49Z" fill="black"/><path id="Path_14" fill-rule="evenodd" clip-rule="evenodd" d="M962.847 646.314L1002.3 646.91C1041.51 647.504 1074.79 621.741 1076.62 589.365C1078.45 556.987 1048.14 530.262 1008.93 529.669L969.479 529.072C930.261 528.478 896.985 554.245 895.153 586.618C893.325 618.996 923.632 645.722 962.847 646.314Z" fill="#FCEBEC"/><path id="Path_15" fill-rule="evenodd" clip-rule="evenodd" d="M1026.37 524.308C1026.85 524.63 1026.86 525.286 1026.38 525.705L987.128 560.248C986.699 560.626 986.041 560.662 985.648 560.329L944.602 525.599C944.17 525.234 944.236 524.583 944.742 524.204L955.756 515.943C971.712 503.976 993.802 502.598 1008.85 512.63L1026.37 524.308Z" fill="#FF2E52"/><path id="Path_16" fill-rule="evenodd" clip-rule="evenodd" d="M982.71 555C985.117 552.261 989.39 552.283 991.768 555.048L1008.22 574.185C1009.98 576.229 1009.9 579.271 1008.04 581.224C1005.9 583.474 1002.29 583.383 1000.26 581.028L991.711 571.081C989.334 568.316 985.06 568.294 982.654 571.034L973.275 581.711C971.217 584.055 967.585 584.107 965.46 581.825C963.616 579.845 963.572 576.79 965.357 574.757L982.71 555Z" fill="black"/><path id="Shape" fill-rule="evenodd" clip-rule="evenodd" d="M1276.62 515.978C1255.76 504.302 1220.86 489.51 1183.89 483.053C1146.94 476.601 1107.7 478.439 1078.39 500.3L1075.39 502.536L1079.11 502.094C1081.92 501.759 1084.96 501.464 1088.18 501.219C1108.26 506.052 1136.61 516.167 1162.86 531.338C1191.33 547.783 1217.16 570.072 1227.48 597.852L1229.36 597.156C1218.79 568.723 1192.47 546.135 1163.87 529.606C1139.95 515.788 1114.32 506.136 1094.65 500.811C1116.75 499.695 1145.79 500.97 1174.45 507.627C1210.5 515.999 1245.79 532.841 1266.05 563.96L1267.73 562.869C1247.06 531.129 1211.18 514.104 1174.91 505.679C1143.27 498.332 1111.2 497.493 1088.34 499.201C1087.09 498.903 1085.87 498.624 1084.69 498.367C1112.73 480.333 1148.94 478.982 1183.54 485.023C1220.26 491.434 1254.94 506.135 1275.64 517.723L1276.62 515.978ZM1083.56 499.104C1083.27 499.298 1082.98 499.494 1082.69 499.692C1082.94 499.667 1083.19 499.642 1083.45 499.617L1083.56 499.104ZM803.392 494.077C766.753 502.228 732.574 518.611 712.277 531.235L713.334 532.933C733.478 520.404 767.449 504.123 803.826 496.029C838.109 488.401 874.346 488.084 903.188 504.807C902.017 505.119 900.813 505.453 899.577 505.809C876.657 505.156 844.665 507.47 813.404 516.265C777.554 526.351 742.501 545.009 723.315 577.667L725.04 578.68C743.85 546.661 778.323 528.212 813.946 518.19C842.271 510.221 871.219 507.611 893.349 507.708C873.943 513.933 848.784 524.754 825.533 539.657C797.718 557.486 772.469 581.261 763.223 610.15L765.128 610.759C774.162 582.533 798.938 559.079 826.613 541.341C852.139 524.979 879.991 513.571 899.832 507.818C903.061 507.914 906.106 508.07 908.938 508.275L912.67 508.545L909.571 506.449C879.282 485.961 840.006 485.93 803.392 494.077ZM904.482 506C904.74 506.013 904.996 506.026 905.251 506.04C904.951 505.855 904.651 505.672 904.349 505.491L904.482 506Z" fill="black"/><path id="Path_17" d="M950.439 485.844C948.804 491.574 940.843 494.324 932.659 491.988C924.474 489.652 919.164 483.114 920.8 477.385C922.435 471.655 930.396 468.905 938.58 471.241C946.765 473.577 952.075 480.115 950.439 485.844Z" fill="black"/><path id="Path_18" d="M1010.19 485.844C1011.83 491.574 1019.79 494.324 1027.97 491.988C1036.16 489.652 1041.47 483.114 1039.83 477.385C1038.2 471.655 1030.23 468.905 1022.05 471.241C1013.87 473.577 1008.56 480.115 1010.19 485.844Z" fill="black"/></g></g></svg>