<svg viewBox="153.9655172413793 89.92499999999995 262.0689655172414 449.62500000000006" xmlns="http://www.w3.org/2000/svg" overflow="visible" xmlns:xlink="http://www.w3.org/1999/xlink" width="262.0689655172414px" height="449.62500000000006px"><g id="Master/Stickers/Dog" stroke="none" stroke-width="1" fill="none" fill-rule="evenodd"><g id="Pet-Copy-4" transform="translate(285.500000, 270.000000) scale(-1, 1) translate(-285.500000, -270.000000) translate(37.000000, 0.000000)"><g id="Group-2" transform="translate(120.292994, 95.014663)"><path d="M36.5187121,346.415425 C36.5187121,346.415425 16.1891962,303.250264 11.9789414,273.76088 C11.9789414,273.76088 10.9263777,261.12393 3.82117705,264.020293 C-2.79968601,266.71871 -0.390660528,285.873666 7.76868661,316.94346 C15.9264509,348.013255 36.5187121,374.080528 36.5187121,374.080528 C36.5187121,374.080528 48.1633904,366.670968 36.5187121,346.415425" id="Fill-285" fill="#B02D1C"/><path d="M176.374987,267.179372 C176.374987,267.179372 209.781617,291.173742 212.852254,308.640604 C212.852254,308.640604 217.781102,336.6921 226.114557,352.576968 C235.673102,370.797613 257.520525,359.334094 254.712633,346.169812 C252.805356,337.227349 246.890423,334.851982 242.066041,334.589108 C242.066041,334.589108 242.168923,302.461484 236.728831,289.032745 C231.290321,275.604006 204.140509,248.235032 204.140509,248.235032 L176.374987,267.179372 Z" id="Fill-287" fill="#B02D1C"/><path d="M96.0577293,174.922035 C96.0577293,174.922035 52.5085,274.023912 39.8761528,326.158457 C27.2438057,378.293003 45.8449013,428.609601 91.4581051,439.905261 C118.038108,446.48661 167.514933,447.276815 174.620134,435.428487 C174.620134,435.428487 177.833223,431.309601 176.856634,425.733824 C176.111134,421.474 169.197452,418.984616 169.197452,418.984616 L189.436748,400.377578 C189.436748,400.377578 196.272873,422.976815 199.49071,429.466317 C203.43822,437.433296 229.359777,445.697988 236.46656,432.006375 C243.571761,418.314762 220.939267,411.204498 220.939267,411.204498 L188.042299,275.341449 C188.042299,275.341449 207.779847,257.173061 206.464538,229.262504 C205.147646,201.351947 182.779481,177.656874 182.779481,177.656874 C182.779481,177.656874 216.201939,176.340921 221.991831,164.753883 C227.781723,153.170012 224.886777,139.476815 208.832411,132.368135 C192.779627,125.259454 193.569446,125.390891 192.121182,119.861038 C190.6745,114.331185 185.937172,89.8443225 154.355513,91.8190439 C122.775436,93.7953489 115.801608,103.668956 109.747389,114.727079 C103.694752,125.786786 90.7885796,158.628604 96.0577293,174.922035" id="Fill-289" fill="#FE5C4F"/><path d="M124.149467,98.8746744 C124.149467,98.8746744 123.024095,40.0811847 124.149467,31.1292198 C125.27484,22.1756715 131.460432,22.1756715 136.19776,33.1039413 C140.933505,44.0290439 161.593827,91.7074017 161.593827,91.7074017 C161.593827,91.7074017 150.262544,106.718135 124.149467,98.8746744" id="Fill-291" fill="#70A0E6"/><path d="M137.776131,21.7804105 C137.776131,21.7804105 129.475914,28.6689735 120.14371,28.4282697 C107.840586,28.1147213 109.228704,20.6956597 117.840733,19.4113782 C117.840733,19.4113782 109.515191,14.6717301 111.145478,9.40633422 C112.774182,4.13935475 121.590392,9.40633422 121.590392,9.40633422 C121.590392,9.40633422 124.353965,-1.2574781 129.485411,0.123401666 C134.61844,1.50586501 132.644685,12.3692081 132.644685,12.3692081 C132.644685,12.3692081 138.195574,8.32158348 140.868927,10.9202345 C145.4733,15.3970087 137.776131,21.7804105 137.776131,21.7804105" id="Fill-293" fill="#FEF864"/><path d="M212.648706,142.636528 C214.622461,155.537935 232.031706,153.313009 232.648999,142.098111 C233.438817,127.760399 210.304575,127.315413 212.648706,142.636528" id="Fill-295" fill="#B02D1C"/><path d="M95.8840964,315.022611 C96.6283236,314.9805 97.2672484,315.017799 98.5041656,315.198572 C99.0297134,315.274592 99.5123529,315.438051 100.031103,315.680995 L100.391047,315.858842 L101.057587,316.216821 C101.597253,316.50812 101.894116,316.635264 102.148641,316.686021 L102.21119,316.688278 C102.303152,316.684981 102.492245,316.663098 102.858519,316.605361 L103.534775,316.498235 C103.739934,316.46825 103.90796,316.448093 104.10012,316.430619 C104.808786,316.366179 105.456214,316.393754 106.108873,316.558399 L106.38561,316.623153 C106.531451,316.654877 106.694056,316.686782 106.898429,316.724099 L108.248518,316.963039 C108.410924,316.993453 108.547126,317.020741 108.694616,317.052159 L108.847258,317.085222 C109.220522,317.167242 109.5688,317.256847 109.905791,317.360093 C110.604595,317.573588 111.13915,317.87881 111.817375,318.383795 L112.55213,318.952009 C112.890994,319.212579 113.08137,319.33968 113.222797,319.404924 L114.840738,320.008171 C115.506915,320.260851 116.042916,320.474595 116.600372,320.710749 L116.88159,320.830978 C117.087316,320.919976 117.325012,320.986737 117.844224,321.099236 L118.266272,321.18866 C119.30549,321.408619 119.929776,321.589834 120.64229,321.951258 L121.624804,322.456908 C122.242698,322.779657 122.792947,323.077603 123.315051,323.374141 L124.082034,323.820814 C124.25306,323.922714 124.477199,324.012525 124.980804,324.176273 L125.307724,324.280854 C126.464878,324.648564 127.072765,324.895753 127.787495,325.398069 C128.278294,325.744414 128.685363,326.069934 129.286704,326.589979 L130.713742,327.836189 L130.860918,327.959749 C131.893442,328.819174 132.915249,329.744708 133.832689,330.656104 C134.586477,331.402094 134.860947,332.039869 135.185829,333.335669 L135.398347,334.191348 C135.462675,334.430691 135.495386,334.523135 135.494693,334.52231 C135.601768,334.650476 135.723385,334.774345 135.92039,334.952165 L136.437822,335.401229 C137.257503,336.099459 137.705402,336.526332 138.134067,337.109282 L138.920333,338.231563 C139.661634,339.285134 140.064425,339.898233 140.477595,340.653043 C140.769799,341.185868 140.96788,341.645277 141.221508,342.353935 L141.600996,343.455444 C141.73066,343.831198 141.83175,344.1019 141.935769,344.346053 C141.99532,344.485469 142.068222,344.633384 142.168428,344.817271 L142.937948,346.150995 C143.256707,346.720362 143.462679,347.152784 143.638908,347.653248 L143.828933,348.223321 C143.879257,348.367617 143.940093,348.532788 144.031619,348.775197 L144.445518,349.874804 C144.705662,350.588744 144.859305,351.091047 144.992388,351.692116 C145.126576,352.297877 145.172833,352.776517 145.18304,353.53866 L145.183938,354.855813 L145.198772,355.301038 C145.206775,355.433325 145.218002,355.551428 145.232946,355.661163 C145.238154,355.69966 145.254953,355.765473 145.288024,355.860086 L145.38632,356.109984 L145.649685,356.680427 C146.224597,357.892745 146.458912,358.537615 146.516554,359.509604 C146.559141,360.234884 146.398043,360.900202 146.09472,361.573113 L145.947311,361.882163 C145.871818,362.030776 145.789166,362.179108 145.679214,362.365809 L145.22143,363.129245 C145.141314,363.266851 145.086337,363.366984 145.050561,363.437236 L145.008455,363.522933 L145.013313,363.554938 C145.023407,363.614853 145.042653,363.694772 145.074891,363.806214 L145.282252,364.447413 C145.674613,365.596952 145.840064,366.249261 145.81695,367.084534 L145.802314,367.370667 C145.792625,367.506035 145.804239,367.669331 145.852829,367.976643 L146.084043,369.298022 C146.197862,370.042157 146.229214,370.679044 146.14313,371.34569 C146.03342,372.190352 145.805136,372.774462 145.304249,373.703615 L144.861523,374.509389 C144.706034,374.802932 144.637427,374.973836 144.623313,375.054027 C144.491222,375.804788 144.290232,376.349464 143.87559,377.217205 L143.527679,377.931993 L143.352625,378.318342 C143.283796,378.483012 143.24124,378.608964 143.216971,378.714367 C143.224222,378.682851 143.245811,378.82444 143.338927,379.17049 L143.440279,379.529841 C143.887762,381.080129 143.999609,381.762681 143.67822,382.867902 C143.392655,383.849072 142.966799,384.42756 142.078494,385.300352 L141.42808,385.929898 C141.238191,386.119766 141.169213,386.200496 141.175874,386.181972 C141.14275,386.273406 141.119366,386.427361 141.10647,386.699718 L141.094183,387.298253 C141.083698,388.668076 141.018699,389.303554 140.627989,390.188425 C140.386029,390.736402 140.128037,391.268994 139.809067,391.88616 L138.824407,393.731468 C138.463289,394.40445 138.092871,394.940937 137.44118,395.798505 L137.040906,396.326072 C136.885037,396.533979 136.760943,396.705494 136.655414,396.860101 L136.555584,397.009793 C136.429164,397.204644 136.310925,397.443051 136.135309,397.857626 L135.957536,398.286883 C135.496595,399.409978 135.222192,399.965848 134.708435,400.619451 C134.282169,401.161852 133.857043,401.584551 133.202147,402.153473 L132.231324,402.985449 C132.087934,403.112345 131.973568,403.218621 131.873931,403.317787 L131.778675,403.415084 C131.318353,403.898618 130.869369,404.275351 130.206308,404.762054 L129.157557,405.517389 C128.93863,405.678997 128.782313,405.802272 128.637144,405.927616 L128.202114,406.317011 L127.4341,407.039544 C126.703935,407.727424 126.209746,408.154536 125.625301,408.566906 C124.824032,409.132288 124.116781,409.340165 122.977377,409.487739 L121.897943,409.620365 C121.733533,409.645452 121.662618,409.662583 121.646985,409.671431 L121.372401,409.839004 C121.276555,409.901567 121.173785,409.972562 121.056271,410.057169 L120.306961,410.617622 C119.659545,411.104161 119.177976,411.426293 118.633221,411.69646 L118.005016,411.989342 L117.328404,412.324047 L117.357415,412.34278 C117.734084,412.589871 117.976201,412.801004 118.315636,413.15335 L118.777325,413.65028 C118.792682,413.665787 118.800662,413.671204 118.809166,413.673072 L118.844143,413.674572 C119.220368,413.702818 119.365813,413.693378 119.680475,413.598104 L120.263027,413.413741 C120.99355,413.196958 121.595364,413.106581 122.417187,413.138677 L122.783883,413.15992 C123.2789,413.197115 123.519129,413.192104 123.914081,413.134603 L124.172895,413.093721 C124.956013,412.963138 125.501256,412.913683 126.283197,412.950468 L126.696089,412.976071 C127.228595,413.015615 127.500777,413.014743 127.923165,412.973059 L128.197906,412.943147 C129.075071,412.841126 129.6282,412.818877 130.605949,412.892284 C131.462411,412.956585 131.996017,413.051255 132.67603,413.239383 L133.289699,413.416539 C133.607295,413.504604 133.832738,413.548606 134.173401,413.58246 L134.453742,413.606478 C135.534614,413.687627 136.215666,413.9039 137.043421,414.346215 L137.361773,414.522856 C137.722684,414.729672 137.833884,414.781253 138.109679,414.810644 L138.26321,414.824106 C138.750302,414.860278 138.98452,414.854327 139.373707,414.793523 L139.629079,414.750356 C140.552289,414.585945 141.151715,414.539288 142.184439,414.616822 C143.114681,414.686777 143.69647,414.814288 144.434067,415.074276 L144.76119,415.194029 C145.190652,415.356277 145.393156,415.416723 145.767698,415.456351 L146.016259,415.478278 C146.80633,415.537643 147.291284,415.604443 147.92177,415.730217 L148.251227,415.798258 C148.77725,415.909979 149.074438,415.961424 149.55859,416.005176 L149.874843,416.030925 C150.337426,416.065626 150.628536,416.076682 150.960879,416.06963 L151.516905,416.046162 C152.228927,416.00649 152.702323,415.999436 153.406475,416.041998 L153.779953,416.067492 C154.072331,416.089663 154.201673,416.086791 154.417916,416.020273 L155.075004,415.783696 C155.954779,415.478871 156.655305,415.370747 157.728566,415.451324 C158.726159,415.526099 159.358826,415.693227 160.13604,416.033875 L160.689878,416.287715 C161.000919,416.425326 161.160131,416.458975 161.56072,416.488701 C161.958304,416.518802 162.119978,416.509148 162.447622,416.418825 L162.669987,416.353821 C163.675281,416.049302 164.362694,415.943016 165.50823,416.02788 C166.573752,416.108549 167.24478,416.313919 168.066002,416.734411 L168.574158,417.00543 C168.856686,417.151515 168.981388,417.179398 169.333719,417.206051 C170.641223,417.30496 171.621023,418.445602 171.522163,419.753747 C171.423303,421.061891 170.283219,422.042171 168.975715,421.943263 C167.90935,421.862596 167.237752,421.657121 166.416178,421.236476 L165.908046,420.965461 C165.625845,420.819484 165.502066,420.791728 165.153767,420.765357 C164.756536,420.73593 164.594329,420.745869 164.266062,420.836401 L163.679106,421.006585 C162.856995,421.230026 162.204332,421.301743 161.205974,421.226157 C160.207618,421.152078 159.574955,420.985181 158.796986,420.644216 L158.453185,420.487195 C157.985959,420.266306 157.85169,420.2246 157.373528,420.188759 C157.023631,420.16249 156.90759,420.172042 156.594505,420.284242 L156.079236,420.473077 C155.308453,420.740076 154.674939,420.856129 153.809283,420.826422 L153.422997,420.804782 C152.729123,420.75273 152.421063,420.753879 151.780935,420.789545 C150.950243,420.835829 150.444347,420.837715 149.52144,420.768482 C148.726415,420.709394 148.242417,420.642918 147.607213,420.516146 L147.265222,420.44544 C146.753172,420.336691 146.456124,420.285384 145.974686,420.241499 L145.660501,420.215659 C144.730259,420.145704 144.14847,420.018193 143.410872,419.758205 L143.08375,419.638452 C142.568395,419.443753 142.37986,419.395652 141.828825,419.354214 C141.341247,419.317608 141.107093,419.323407 140.718209,419.384124 L140.084205,419.490645 C139.360835,419.602377 138.794902,419.627392 137.909806,419.561663 C136.828934,419.480513 136.147882,419.26424 135.320127,418.821926 L135.001775,418.645285 C134.640864,418.438469 134.529664,418.386888 134.252569,418.3574 L134.098273,418.343881 C133.242669,418.279591 132.70965,418.184987 132.02996,417.996929 L131.416324,417.819783 C131.019106,417.709655 130.765619,417.668362 130.250624,417.629698 C129.717358,417.589661 129.445025,417.590368 129.022964,417.631969 L128.748474,417.661839 C127.99718,417.749221 127.484557,417.778193 126.737686,417.738961 L126.34254,417.713617 C125.847524,417.676422 125.607294,417.681432 125.212342,417.738933 L124.953528,417.779815 C124.170411,417.910399 123.625167,417.959854 122.841926,417.922972 L122.42827,417.897312 C122.052908,417.869107 121.907861,417.878511 121.593633,417.973664 L121.011173,418.158 C120.175887,418.405869 119.508746,418.488559 118.48853,418.411964 C117.063581,418.304807 116.239103,417.827353 115.298583,416.872445 L114.797852,416.34043 C114.792845,416.336927 114.788678,416.335127 114.784357,416.33421 L114.608007,416.325545 C114.550676,416.32666 114.505306,416.337379 114.438014,416.369079 L114.136483,416.538503 C113.09757,417.147721 112.306187,417.433077 111.131992,417.402774 L110.767619,417.384222 C110.288512,417.348193 110.061503,417.354504 109.678529,417.417754 L109.426765,417.462652 C108.499281,417.636641 107.894461,417.687262 106.856711,417.609223 C105.493509,417.507741 104.686391,417.08422 103.750224,416.23279 L103.278781,415.787071 C103.232911,415.746449 103.209558,415.733269 103.17957,415.727836 L102.117133,415.653722 L100.368675,415.567214 L100.15916,415.561509 L99.1090856,415.505859 C98.9181041,415.492952 98.7557531,415.479856 98.6376192,415.46748 L98.4636061,415.447407 C98.4069597,415.4354 98.2956544,415.4042 97.9988404,415.321 L97.8863427,415.302701 C97.7147522,415.259529 97.5942743,415.11287 97.0986729,414.261014 L96.4622438,413.151805 L96.9196105,411.695354 L97.424299,411.187778 L97.6810513,411.022257 L97.8775579,410.924402 C97.9596779,410.88946 97.9596779,410.88946 98.0914817,410.842035 L98.6316201,410.727132 L99.02598,410.725695 L100.577605,410.821232 L100.886337,410.832151 C101.434086,410.846067 101.968863,410.846731 102.449025,410.830874 L102.909439,410.809388 C103.434344,410.776712 103.930226,410.845927 104.467021,410.988939 L104.908513,411.118599 L105.890562,411.449483 C106.218913,411.552056 106.401867,411.588901 106.510001,411.587727 L106.55816,411.5841 C106.733463,411.557379 106.928503,411.488127 107.462444,411.247808 L107.872115,411.060842 C108.613946,410.71902 109.110093,410.515487 109.664776,410.359843 L109.948404,410.285593 C110.0712,410.255845 110.204938,410.215669 110.354634,410.163387 L110.733187,410.020076 L112.262444,409.356401 C112.532685,409.242574 112.767595,409.149743 113.006912,409.063346 L113.24917,408.978553 C113.434023,408.915708 113.628407,408.83873 113.847996,408.741509 L114.417664,408.473022 L115.74488,407.805757 L116.41844,407.489833 C116.642314,407.38968 116.882284,407.240328 117.256374,406.96666 L117.789555,406.566265 C118.40963,406.09763 118.809007,405.819699 119.308251,405.536889 C119.944682,405.176702 120.449916,405.02668 121.278409,404.908651 L122.552829,404.750227 C122.78604,404.715293 122.879725,404.690824 122.888621,404.684547 C123.193638,404.469335 123.498425,404.212832 123.943816,403.800514 L124.999907,402.808998 C125.127411,402.691512 125.24469,402.585467 125.360973,402.482749 L125.535805,402.330154 C125.833682,402.072956 126.116291,401.854184 126.522638,401.5598 L127.095715,401.149903 C127.65178,400.752471 127.976947,400.497546 128.234388,400.245866 L128.34105,400.137795 C128.536241,399.932947 128.731081,399.744934 128.962318,399.536572 L129.833296,398.785676 C130.43401,398.27535 130.738908,397.984346 130.975824,397.682883 C131.09356,397.533099 131.206319,397.324395 131.389267,396.901217 L131.652497,396.269352 C131.98699,395.457673 132.221955,394.963783 132.574079,394.421059 C132.719885,394.196846 132.873334,393.976501 133.053096,393.73075 L133.661226,392.923193 C134.107145,392.336404 134.361137,391.97592 134.559482,391.630682 L135.207759,390.431792 L135.579074,389.727374 C135.861961,389.18068 136.083816,388.723264 136.284529,388.2687 L136.304457,388.192994 C136.319937,388.104054 136.332337,387.943775 136.339671,387.66183 L136.347991,387.031508 C136.359986,386.003364 136.433087,385.332062 136.709906,384.567962 C136.996659,383.771035 137.385861,383.250699 138.095758,382.544814 L138.883736,381.77825 L139.091939,381.56305 L139.080829,381.545954 L139.01116,381.322153 L138.814796,380.62642 C138.474576,379.425006 138.362432,378.635928 138.589663,377.648296 C138.698104,377.177318 138.849556,376.752127 139.068174,376.261693 L139.641429,375.061987 C139.832297,374.653351 139.911248,374.432526 139.946829,374.230296 C140.041163,373.694299 140.209253,373.215377 140.461119,372.689567 L140.807649,372.022794 L140.956523,371.754981 C141.305271,371.129508 141.415299,370.879884 141.434088,370.735233 C141.449774,370.613758 141.445845,370.445916 141.416828,370.208309 L141.375926,369.92567 L141.287382,369.430583 C141.075947,368.295594 141.011987,367.786414 141.066276,367.028003 L141.061326,366.921944 C141.046977,366.813126 141.004719,366.646348 140.916941,366.370069 L140.78863,365.982677 C140.385098,364.800408 140.247147,364.263814 140.256054,363.407268 C140.258665,363.172135 140.282129,362.939545 140.324337,362.709217 C140.459706,361.970504 140.680802,361.475447 141.166827,360.654358 L141.607328,359.920418 L141.751048,359.651085 L141.733913,359.590606 L141.659296,359.385803 C141.627039,359.305257 141.58691,359.211367 141.537455,359.100941 L141.142798,358.254023 C140.991955,357.925254 140.905457,357.713448 140.805811,357.42838 C140.673519,357.049916 140.579045,356.679795 140.527726,356.30044 C140.483011,355.972095 140.457258,355.64458 140.444516,355.285357 L140.434823,354.41793 L140.436014,353.733576 C140.432254,353.294187 140.415752,353.040612 140.377436,352.825098 L140.356418,352.719829 C140.262288,352.294689 140.132932,351.894089 139.865081,351.180225 L139.384445,349.899598 L139.200105,349.350714 C139.114485,349.082189 138.991565,348.819818 138.739294,348.374274 L138.311577,347.64136 C137.980821,347.076118 137.764935,346.670797 137.568509,346.210943 C137.451253,345.935724 137.345072,345.66108 137.230562,345.341736 L136.781968,344.043079 C136.621812,343.591642 136.507005,343.310534 136.379071,343.059999 L136.313739,342.936631 C136.076853,342.503872 135.826142,342.106216 135.423293,341.520042 L134.375057,340.017749 C134.261796,339.85192 134.118356,339.693187 133.85522,339.452382 L132.828984,338.560132 C132.41964,338.197365 132.150537,337.927151 131.853275,337.571333 C131.266556,336.870824 131.025216,336.277973 130.745543,335.168941 L130.473283,334.062208 C130.468371,334.033908 130.468948,334.020742 130.475597,334.020767 L130.490197,334.030456 C129.875679,333.41999 129.205218,332.799237 128.517142,332.201354 L127.277399,331.145483 L126.22627,330.223013 C125.716627,329.78142 125.397745,329.525247 125.054333,329.282906 C124.908953,329.180732 124.69965,329.086054 124.282326,328.943686 L123.16858,328.580239 C122.623419,328.394526 122.251011,328.239081 121.852469,328.017768 L120.960179,327.499627 C120.250775,327.097086 119.469327,326.683625 118.493473,326.18771 C118.315273,326.097318 118.092936,326.023113 117.716017,325.933054 L116.4439,325.65406 C115.95363,325.539783 115.602768,325.436256 115.22828,325.287617 L114.242021,324.87511 C113.559701,324.597661 112.811344,324.316017 111.661781,323.895471 C111.045203,323.67071 110.593117,323.412264 109.994676,322.97253 L109.203571,322.3636 C108.804983,322.053618 108.607886,321.930859 108.517223,321.90316 C108.378645,321.860703 108.232007,321.820708 108.074177,321.782179 L107.473889,321.651736 L105.761505,321.344442 C105.461638,321.286471 105.21704,321.232546 104.950334,321.16556 C104.879783,321.147763 104.747036,321.142109 104.529922,321.161851 L104.179731,321.205353 L103.825416,321.261506 C102.57719,321.466357 102.0546,321.510845 101.222086,321.345433 C100.50394,321.202224 99.9199115,320.975569 99.1845683,320.598972 L97.9770804,319.962984 C97.8827717,319.91726 97.8436354,319.903154 97.8212694,319.899918 L97.1206132,319.805884 C96.7397093,319.761803 96.5062847,319.752159 96.2708147,319.760293 L95.9963776,319.775111 C95.4281779,319.809586 94.998976,319.813827 94.294322,319.773763 C92.9851975,319.699332 91.9842513,318.577219 92.058646,317.267453 C92.1330407,315.957688 93.2546045,314.956251 94.563729,315.030682 C94.8667585,315.047911 95.0768033,315.053925 95.2813286,315.050824 L95.8840964,315.022611 Z" id="Stroke-297" fill="#B02D1C" fill-rule="nonzero"/><path d="M151.195765,249.456493 C152.466239,249.131934 153.759141,249.899255 154.08354,251.170352 L154.321656,252.08483 L154.773139,253.727156 C154.853334,254.0287 154.94376,254.376619 155.06899,254.863936 C155.215174,255.434158 155.257802,255.864598 155.279534,256.690586 L155.30105,257.556956 C155.321348,258.10491 155.357519,258.403161 155.438466,258.718033 L155.480956,258.843059 L155.593875,259.092835 C155.641426,259.187709 155.706623,259.305891 155.840827,259.5424 L156.038283,259.889089 C156.572521,260.825421 156.864014,261.443032 157.07187,262.249225 C157.284481,263.073074 157.272951,263.631532 157.112727,264.747211 L156.985521,265.625109 C156.945734,265.958306 156.948033,266.146262 156.970837,266.234538 C156.966689,266.218435 156.969186,266.214437 156.979554,266.222169 L157.478889,266.771205 L157.564073,266.862402 C158.546738,267.915524 159.000776,268.538739 159.273479,269.595171 C159.495968,270.45688 159.366842,271.254831 159.029793,272.080289 C158.896734,272.406161 158.77943,272.643985 158.559393,273.03769 L158.110771,273.826826 L157.95578,274.115718 L158.238488,274.464327 L158.405739,274.661676 C159.306354,275.722357 159.70926,276.317291 159.967643,277.314046 L160.966419,281.007057 C161.018429,281.207576 161.108033,281.440361 161.264539,281.778658 L161.540202,282.351031 C161.961136,283.210972 162.18382,283.717146 162.359218,284.31557 L162.431933,284.578985 C162.481762,284.770883 162.57926,285.002473 162.771005,285.376417 L163.011117,285.831298 C163.548723,286.837667 163.791837,287.367469 163.98887,288.127289 C164.220416,289.015703 164.18609,289.634487 163.932276,290.681305 L163.586968,292.019102 C163.552749,292.165682 163.54152,292.220757 163.53603,292.199642 C163.744396,292.998252 163.753491,293.574792 163.649301,294.637596 L163.595689,295.147668 C163.530953,295.752298 163.528503,296.016966 163.563317,296.15054 C163.611925,296.337327 163.717636,296.567804 163.956998,296.994534 L164.147786,297.328505 C164.740745,298.357781 165.000385,298.886922 165.207659,299.681192 C165.437126,300.561814 165.406387,301.180654 165.164529,302.220901 L164.793487,303.733372 L164.861217,303.792656 L165.376742,304.311269 C166.487013,305.403456 166.943415,305.974505 167.229405,307.067635 C167.261528,307.190013 167.366004,307.382738 167.642021,307.792823 L167.820715,308.054342 C168.550619,309.113898 168.862327,309.658644 169.092555,310.536399 C169.26637,311.199448 169.321094,311.703738 169.352269,312.622869 L169.366211,313.108866 C169.384664,313.79706 169.414093,314.123029 169.484745,314.391094 L169.532458,314.444163 C169.57944,314.499779 169.664475,314.600203 169.802309,314.753842 L170.076623,315.053346 C171.091328,316.144299 171.507805,316.705322 171.782974,317.746696 C171.947405,318.372484 171.998564,318.860572 171.998112,319.62241 L171.977328,320.874983 C171.976334,321.203759 171.989019,321.40344 172.017944,321.554681 L172.037269,321.640259 C172.266515,322.509586 172.1412,323.322103 171.803917,324.158985 C171.668147,324.495863 171.540545,324.754763 171.317293,325.153759 L170.728997,326.193255 L170.999131,326.49956 L171.151235,326.665678 C172.066124,327.657296 172.488912,328.207538 172.763954,329.07499 L172.842379,329.3455 C172.857191,329.401471 172.921353,329.512526 173.088881,329.741256 L173.437159,330.196608 C174.199741,331.167355 174.560821,331.707439 174.808576,332.493842 L174.887359,332.766028 C174.932015,332.934762 175.022775,333.130495 175.241448,333.50874 L175.477266,333.906414 C176.107206,334.951628 176.373398,335.470517 176.587799,336.275945 C176.784924,337.015526 176.743616,337.733899 176.548804,338.486988 C176.468817,338.796197 176.38873,339.039563 176.252795,339.392449 L175.878996,340.336328 C175.85004,340.413189 175.827455,340.476496 175.809166,340.531962 L175.765475,340.671906 L175.774222,340.700679 C175.878124,341.130041 175.94028,341.525487 175.998397,342.080585 L176.130708,343.486096 C176.171532,343.857057 176.210934,344.081092 176.270897,344.304989 C176.311011,344.455153 176.383881,344.621228 176.545943,344.911241 L177.236225,346.087667 C177.611006,346.748521 177.809314,347.202281 177.975039,347.824862 C178.173731,348.566063 178.208267,349.134826 178.168991,350.113163 L178.130171,350.966674 C178.123892,351.154143 178.12265,351.298318 178.126402,351.41346 L178.139678,351.600176 L178.304889,351.756619 L179.336573,352.61354 C180.264415,353.411777 180.681574,353.962421 180.954722,354.973567 C181.223081,355.969908 181.149006,356.668688 180.812026,357.914105 L180.523379,358.963812 L180.912652,359.268165 L181.09321,359.403344 C182.519621,360.467153 183.07629,361.013888 183.411539,362.251725 C183.664211,363.182203 183.500056,364.037512 183.095328,364.910659 C182.935348,365.255793 182.778448,365.533946 182.52089,365.938754 L181.993724,366.748643 C181.903279,366.889157 181.836245,366.99684 181.784106,367.085779 L181.750051,367.144575 L181.891723,367.554557 L182.525818,369.248738 C182.633293,369.549607 182.720952,369.81474 182.799528,370.080482 L182.875475,370.347772 C182.919911,370.510302 183.03363,370.721622 183.348566,371.198533 L183.531367,371.472149 C184.111385,372.336356 184.420847,372.872384 184.640942,373.558994 L184.804701,374.106177 C184.88477,374.347729 184.993268,374.621216 185.171158,375.038765 L185.387032,375.540338 C185.676076,376.212525 185.860177,376.682449 186.009098,377.175413 L186.08095,377.424859 C186.169302,377.745445 186.283649,378.044532 186.535734,378.620985 L186.773936,379.160008 C187.10805,379.918206 187.306987,380.42999 187.469363,381.016511 C187.565555,381.362793 187.649306,381.710361 187.735144,382.110753 L188.113849,383.99325 C188.150818,384.166205 188.184457,384.313438 188.218632,384.451594 L188.301167,384.765312 L188.332441,384.827811 C188.376994,384.900397 188.472023,385.028326 188.649373,385.242212 L188.983855,385.634901 C189.827061,386.612904 190.22706,387.194078 190.4891,388.128128 C190.749931,389.056767 190.591872,389.915774 190.192132,390.788869 C190.03951,391.12222 189.880704,391.407049 189.644456,391.780885 L189.133825,392.55783 L189.898436,392.961216 C190.265972,393.161402 190.5213,393.318665 190.802252,393.522301 C191.537555,394.055254 192.075341,394.68444 192.325607,395.561376 C192.614778,396.574608 192.52387,397.356938 192.164704,398.542772 L191.854108,399.520733 L191.766025,399.848622 C191.82631,399.983421 191.919443,400.144778 192.074596,400.38133 L192.522475,401.038203 C193.070618,401.840386 193.388364,402.412674 193.605152,403.153075 L194.72262,406.816265 L194.806243,407.058909 C194.87239,407.228115 194.96239,407.418983 195.094589,407.672174 L195.68985,408.773218 C195.908044,409.189939 196.079809,409.560735 196.217506,409.935831 L196.344304,410.314221 C196.401872,410.503964 196.527341,410.730394 196.823412,411.159533 L197.335939,411.891467 C197.772786,412.533339 198.064746,413.069133 198.262745,413.701819 C198.603278,414.789184 198.459334,415.71181 198.005604,416.883307 L197.692386,417.632627 L197.497255,418.084278 L197.391306,418.34956 L197.48177,418.647953 L197.763418,419.699859 L198.087631,420.977511 C198.162125,421.251205 198.225703,421.457574 198.290685,421.636849 C198.388271,421.905905 198.57587,422.160898 198.900405,422.462123 L199.130173,422.665094 C199.249173,422.765832 199.402602,422.890922 199.638148,423.081611 C200.153999,423.50733 200.446243,423.794957 200.724333,424.270362 C201.386638,425.402594 201.006137,426.857616 199.874459,427.520245 C198.742782,428.182874 197.288472,427.802186 196.626167,426.669955 L196.687109,426.781195 C196.695307,426.800457 196.692103,426.803665 196.67964,426.796107 L196.616622,426.746431 C196.236091,426.4406 195.952724,426.206453 195.670943,425.944913 C194.836557,425.170459 194.214045,424.32431 193.826913,423.256936 C193.716886,422.953393 193.621927,422.648355 193.520821,422.280252 L193.080216,420.55132 L192.924865,419.983676 C192.873879,419.807387 192.823038,419.64206 192.77038,419.481798 C192.507654,418.68413 192.562269,417.923302 192.801044,417.116758 L192.893529,416.824053 C192.956992,416.637685 193.029235,416.454875 193.141265,416.191742 L193.491749,415.380681 L193.600658,415.104784 L193.652726,414.949619 L193.516985,414.724986 L193.08504,414.100675 C192.491148,413.261059 192.151054,412.700443 191.90216,412.002711 L191.762606,411.581075 C191.718998,411.462033 191.657995,411.323724 191.574634,411.155847 L191.305452,410.646752 L191.165919,410.392744 C190.716038,409.574139 190.459429,409.05033 190.255618,408.43869 L189.460616,405.857239 C189.300245,405.336766 189.17046,404.906972 189.047846,404.487267 C189.02041,404.393567 188.950211,404.254478 188.8086,404.030834 L188.4242,403.460603 C187.72695,402.451778 187.403049,401.8893 187.157333,401.038493 C186.851043,399.979244 186.943419,399.305142 187.371358,397.944919 L187.62858,397.13437 L186.590342,396.586175 C186.208547,396.378643 185.950767,396.219792 185.659776,396.008846 C184.902955,395.460206 184.350929,394.811118 184.097417,393.914331 C183.827593,392.961987 184.003173,392.097289 184.429076,391.20716 C184.591898,390.866866 184.73945,390.609742 185.005326,390.197712 L185.580463,389.320736 L185.705475,389.118299 L185.310562,388.647872 C184.39527,387.5879 184.000878,387.021908 183.727338,386.041655 L183.615485,385.619109 C183.527959,385.268885 183.449795,384.903338 183.344649,384.371977 L183.16728,383.468647 C183.069499,382.982912 182.986834,382.621539 182.893802,382.286626 C182.819791,382.019288 182.713474,381.734789 182.528388,381.30445 L182.030694,380.16668 C181.867338,379.781366 181.748648,379.474619 181.64666,379.164122 L181.502711,378.685274 C181.438479,378.451259 181.353172,378.209099 181.21623,377.872528 L180.928079,377.192846 C180.561057,376.343558 180.370361,375.865939 180.207993,375.318761 L180.13971,375.078711 C180.106056,374.955941 180.021922,374.789268 179.825449,374.480411 L179.535509,374.040526 C178.910044,373.109575 178.600927,372.580427 178.375892,371.874247 L178.294991,371.6 C178.213738,371.302185 178.111608,370.996643 177.948608,370.558002 L177.737259,370.000454 C177.372143,369.045998 177.206537,368.577231 177.039623,367.96177 C176.783708,367.022549 176.954184,366.16493 177.368468,365.285344 L177.529928,364.961864 C177.641026,364.752698 177.765201,364.545331 177.939402,364.272714 L178.505306,363.400997 L178.003284,363.02336 C177.581772,362.704891 177.3493,362.512395 177.07093,362.239404 C176.502754,361.682206 176.091238,361.072174 175.887772,360.316757 C175.616487,359.313804 175.688915,358.640899 176.036101,357.363501 L176.327369,356.295484 L176.055629,356.059208 L175.774844,355.829586 C174.428303,354.739058 173.904993,354.1884 173.58261,352.987315 C173.37866,352.230389 173.346917,351.670422 173.390292,350.644381 L173.408905,350.255084 C173.442307,349.608707 173.44027,349.312454 173.403191,349.119498 L173.387644,349.051499 C173.348042,348.902728 173.275293,348.736827 173.114498,348.448837 L172.425076,347.273909 C172.048629,346.61062 171.850999,346.158653 171.683894,345.5331 C171.539109,344.992489 171.466213,344.558967 171.395954,343.870166 L171.268781,342.514765 C171.228342,342.149928 171.188626,341.923798 171.12918,341.701263 C170.932055,340.961682 170.973362,340.243309 171.168174,339.49022 L171.267775,339.139551 C171.30337,339.025714 171.342548,338.911188 171.388878,338.784751 L171.876897,337.53504 L171.941424,337.330557 L171.90853,337.250777 L171.799731,337.03179 C171.755328,336.948406 171.702099,336.853321 171.637983,336.742597 L171.032735,335.716978 C170.661884,335.062781 170.462075,334.605264 170.298014,333.985341 L170.263753,333.905814 C170.208912,333.803556 170.086022,333.625639 169.838329,333.304855 L169.691042,333.115982 C168.854569,332.051121 168.499972,331.497894 168.252497,330.562796 L168.017879,330.283069 C167.959517,330.216238 167.888366,330.136118 167.802399,330.041338 L167.646736,329.871366 C166.653966,328.795276 166.240107,328.232961 165.969518,327.20818 C165.74111,326.34378 165.862429,325.532676 166.194132,324.699604 C166.297054,324.441116 166.398454,324.222867 166.538679,323.958299 L167.196195,322.792193 C167.259348,322.677768 167.305132,322.590263 167.340636,322.516282 L167.357627,322.475015 L167.331735,322.340312 C167.241941,321.841044 167.220206,321.351019 167.230476,320.655873 L167.24864,319.60525 C167.246831,319.276548 167.228948,319.100487 167.191441,318.957741 L166.859428,318.572731 L166.574098,318.261345 C165.583128,317.19574 165.162265,316.626106 164.892831,315.600693 C164.725386,314.965388 164.663044,314.427271 164.631407,313.606459 L164.59259,312.464732 C164.57375,312.118947 164.546754,311.921916 164.499576,311.741945 C164.462908,311.602145 164.352654,311.401052 164.038556,310.937043 L163.860218,310.676646 C163.178164,309.685659 162.859413,309.122704 162.636242,308.272476 C162.63956,308.28516 162.63531,308.286478 162.621586,308.275833 L161.994341,307.64641 C160.93375,306.602504 160.471798,306.020054 160.192922,304.953727 C159.944175,304.00634 160.004757,303.294212 160.28745,302.141659 L160.601106,300.891701 C160.606939,300.873852 160.610496,300.870702 160.613047,300.880491 L160.558171,300.709373 C160.500508,300.556587 160.408976,300.370129 160.253317,300.088476 L159.950997,299.556997 C159.429965,298.649907 159.162129,298.093108 158.96833,297.348402 C158.769174,296.584275 158.752112,295.952081 158.837588,295.010235 L158.945215,293.921081 C158.96394,293.673044 158.963835,293.533355 158.950556,293.444913 L158.941053,293.397541 C158.69763,292.461202 158.759413,291.735939 159.038224,290.625857 L159.379668,289.327988 C159.386049,289.311974 159.390174,289.310913 159.393368,289.323168 C159.336923,289.105499 159.24283,288.879414 159.033158,288.470251 L158.678213,287.798256 C158.316048,287.113721 158.084401,286.609497 157.915782,286.056447 L157.836412,285.774793 C157.774584,285.537222 157.683526,285.300601 157.496801,284.900791 L157.088006,284.055044 C156.743745,283.339356 156.527541,282.806793 156.370189,282.200134 L156.154621,281.3881 L155.439091,278.765803 C155.415966,278.678126 155.393484,278.592203 155.371414,278.50713 C155.359736,278.462077 155.274158,278.329534 155.03327,278.033263 L154.607205,277.525428 C153.853581,276.630553 153.45092,276.015376 153.216836,275.112039 C152.893813,273.862611 153.155923,272.984623 153.897685,271.631969 L154.500522,270.557419 L154.228675,270.251063 L153.821953,269.812623 C153.046203,268.967901 152.609172,268.338248 152.373086,267.421735 C152.204093,266.767556 152.173398,266.138444 152.233338,265.425514 L152.301208,264.823284 L152.442887,263.843825 C152.477072,263.573364 152.481146,263.463651 152.474105,263.436368 C152.409464,263.18565 152.288093,262.914271 152.032471,262.453738 L151.453211,261.425773 C151.337564,261.211754 151.2776,261.08266 151.176304,260.854378 C151.035729,260.537579 150.923499,260.226119 150.840239,259.903384 C150.639524,259.122635 150.577123,258.532453 150.548624,257.513832 L150.52202,256.522226 C150.512599,256.323394 150.500384,256.198286 150.483436,256.107674 L150.246037,255.181978 L149.682272,253.116273 C149.62495,252.899484 149.561778,252.655362 149.482744,252.345683 C149.158344,251.074586 149.92529,249.781051 151.195765,249.456493 Z" id="Stroke-299" fill="#B02D1C" fill-rule="nonzero"/><path d="M169.156932,418.884217 C170.969241,418.136768 170.614694,418.417061 172.686582,417.204041 C173.661589,416.633953 174.771133,415.90234 175.961401,415.045625 C176.950652,414.334598 177.954149,413.482633 178.99405,412.565742 C179.937401,411.735947 180.929818,410.874481 181.843095,409.87366 C182.700974,408.931431 183.693391,408.027208 184.467382,406.929789 C185.20655,405.884627 185.906149,404.741284 186.520276,403.552018 C187.107496,402.416592 187.647232,401.187736 188.079337,399.914539 C188.4877,398.709437 188.740948,397.395067 188.97362,396.064862" id="Stroke-301" stroke="#B02D1C" stroke-width="3" stroke-linecap="round" stroke-linejoin="round"/><path d="M153.495269,128.839047 C154.750344,128.459219 156.075544,129.169246 156.455185,130.424936 L156.850909,131.663821 L156.967986,132.014053 C157.146197,132.557763 157.303589,133.121002 157.590178,134.258722 C157.774173,134.991797 157.776234,135.464576 157.639346,136.410358 L157.476567,137.455531 C157.434552,137.751467 157.420193,137.935422 157.423744,138.104281 L157.435603,138.266501 C157.43882,138.28963 157.442616,138.310872 157.446928,138.33033 L157.483518,138.452603 L157.599596,138.731584 C157.644344,138.827083 157.70435,138.945194 157.804636,139.136506 L157.988403,139.484698 C158.535167,140.516843 158.81014,141.158047 158.979438,142.027273 C159.092845,142.612216 159.123257,143.0667 159.109755,143.799371 L159.070985,145.037364 C159.067881,145.177693 159.067394,145.289217 159.069327,145.396861 L159.072059,145.504135 C159.078406,145.698248 159.09334,145.863276 159.117526,146.008813 C159.134016,146.108311 159.168167,146.233296 159.224548,146.393127 L159.392931,146.82152 L159.576072,147.245158 C160.060566,148.356236 160.272384,148.954538 160.387645,149.802581 L160.440136,150.24994 C160.475429,150.615828 160.49098,150.9826 160.497145,151.486484 L160.504089,152.834187 L160.51299,153.18304 L160.535509,153.589662 L160.582273,154.030597 C160.599643,154.161245 160.620987,154.299003 160.649504,154.464335 L160.935979,155.991258 C161.063573,156.69265 161.124952,157.146607 161.16232,157.706046 L161.187323,158.165931 C161.199698,158.468142 161.203806,158.77365 161.202151,159.154788 L161.173118,161.043085 L161.177945,161.696701 C161.197029,162.475686 161.104259,163.034615 160.843864,164.015867 L160.659328,164.692703 C160.527411,165.181944 160.473847,165.462888 160.468855,165.676822 L160.46607,165.962887 C160.46661,166.060198 160.468674,166.162016 160.472428,166.275985 L160.554287,167.88096 C160.578424,168.411364 160.583876,168.799251 160.567682,169.189444 L160.53767,169.668051 C160.527875,169.788141 160.522033,169.91639 160.51987,170.059189 L160.530161,170.725508 L160.57322,171.85916 C160.590303,172.517286 160.576296,172.966324 160.512987,173.466054 L160.47714,173.721346 C160.447877,173.912939 160.430792,174.123464 160.421787,174.409786 L160.413828,174.903223 L160.41303,175.143239 C160.409909,176.437065 160.374229,177.036858 160.17615,177.850419 C159.959817,178.741571 159.639263,179.326603 158.963074,180.257862 L158.392502,181.034361 C158.240109,181.250441 158.153498,181.391987 158.106275,181.495349 L158.082457,181.553075 C157.799338,182.332783 157.515927,182.892706 156.943439,183.871635 L156.350944,184.882299 C156.281204,185.005238 156.222965,185.111567 156.163207,185.224447 L156.039366,185.476599 C155.976584,185.613957 155.910514,185.772665 155.832175,185.972639 L155.661655,186.418647 C155.184764,187.679082 154.894519,188.299275 154.316261,189.04763 C153.752251,189.777019 153.206567,190.316585 152.285435,191.106825 L151.095137,192.119422 L150.403852,192.766865 C149.444175,193.683726 148.866912,194.175372 148.105267,194.624856 L147.843778,194.773648 C147.773738,194.812138 147.697941,194.857308 147.613638,194.910893 L146.895955,195.409933 L146.758127,195.509343 C145.654085,196.305595 144.977093,196.70974 144.029136,197.009486 C143.228672,197.263862 142.617759,197.332344 141.439746,197.359276 L140.441619,197.379959 L140.032367,197.402091 C139.970912,197.406851 139.912502,197.41218 139.856637,197.41813 L139.696176,197.437893 C139.48254,197.468197 139.279214,197.503727 139.014915,197.557593 L137.651358,197.855536 C136.898175,198.017565 136.48321,198.085918 135.919148,198.136265 C135.405455,198.181764 134.978618,198.185977 134.407466,198.153392 L132.742678,198.0228 C132.447968,198.002457 132.259862,197.997796 132.061168,198.003612 C131.40939,198.022243 130.897988,197.967539 130.157999,197.817727 L128.881764,197.538301 C128.575542,197.475273 128.404759,197.451991 128.2377,197.445517 L127.82091,197.436649 C127.625516,197.435616 127.402734,197.438387 127.097158,197.444664 L126.144336,197.462921 C125.516461,197.470046 125.098523,197.458424 124.636812,197.415214 L123.855121,197.337396 L122.028365,197.196768 C121.450804,197.14367 121.035057,197.085551 120.549424,196.989303 C119.432207,196.76575 118.419606,196.529771 117.467396,196.266842 L116.76387,196.064366 C116.607842,196.017555 116.43303,195.975411 116.222554,195.933675 L115.539527,195.815651 L115.385511,195.791253 C114.205904,195.604762 113.632667,195.479257 112.899799,195.174637 C112.072581,194.830346 111.530984,194.409339 110.796906,193.655799 L110.084623,192.909741 C109.916964,192.742136 109.819268,192.660447 109.761425,192.628296 C109.612261,192.545317 109.441484,192.464892 109.224924,192.375542 L108.728177,192.182861 L108.455565,192.081901 C107.390694,191.687391 106.825423,191.430525 106.172204,190.957309 C105.609331,190.550356 105.161283,190.12589 104.630263,189.533445 L103.699098,188.464956 C103.618212,188.376104 103.546819,188.300996 103.479847,188.234331 L103.284203,188.049542 L101.880774,186.838641 C101.305517,186.338425 100.879139,185.922321 100.488643,185.450919 C100.344815,185.277117 100.206268,185.099265 100.071792,184.916513 C99.8295831,184.587352 99.608591,184.254623 99.3838955,183.886845 L98.9183952,183.088104 L98.434136,182.24023 L97.5036338,180.758939 C97.3700872,180.542942 97.2600657,180.360412 97.2103904,180.267017 L97.1121954,180.074232 L96.939822,179.690194 C96.8364358,179.441395 96.7347715,179.156924 96.4923851,178.462247 C96.0602203,177.223669 96.7134561,175.869093 97.9514282,175.436716 C99.1894003,175.00434 100.543314,175.657895 100.975479,176.896474 L101.312567,177.835968 L101.402225,178.035252 L102.388466,179.603494 L102.503983,179.792851 L103.259345,181.113712 C103.487313,181.504979 103.685389,181.814166 103.895702,182.09998 C103.977679,182.211386 104.060883,182.318195 104.145398,182.420324 C104.301147,182.608342 104.497839,182.807498 104.773518,183.056362 L104.995682,183.252932 C105.020846,183.274813 105.869053,183.993807 106.261566,184.33948 L106.621097,184.666117 C106.870869,184.899164 107.094411,185.133292 107.36085,185.43438 L107.94838,186.114753 L108.287921,186.495753 C108.545064,186.77285 108.746204,186.956945 108.955226,187.108067 L109.122963,187.213961 C109.251907,187.285657 109.421389,187.362344 109.669222,187.460768 L110.703952,187.85148 C111.224491,188.052753 111.648291,188.242229 112.068196,188.47582 C112.608871,188.776342 113.007428,189.106283 113.512158,189.620433 L114.232324,190.374964 C114.497385,190.643203 114.634163,190.751075 114.722594,190.787881 L114.91456,190.857223 C115.089763,190.911912 115.31258,190.961027 115.654537,191.020823 L116.829507,191.214313 C117.189993,191.278336 117.511082,191.346114 117.820672,191.427477 L118.127462,191.513733 C118.962555,191.76415 119.859782,191.989614 120.862062,192.203166 L121.476379,192.329973 C121.83885,192.401809 122.184062,192.444916 122.789971,192.493775 L124.281009,192.605599 L125.224526,192.696186 C125.474288,192.712798 125.753583,192.716774 126.170264,192.711348 L127.578374,192.68613 C127.885553,192.683917 128.132219,192.687568 128.417865,192.698207 L128.830557,192.724227 C129.161747,192.754385 129.479367,192.807946 129.920158,192.901555 L130.971504,193.134423 C131.369084,193.217605 131.609899,193.251676 131.820541,193.255427 L132.32998,193.250373 C132.594873,193.252864 132.862501,193.266678 133.218939,193.293923 L134.35238,193.388193 C134.887041,193.428007 135.187285,193.431774 135.498807,193.404183 L135.748183,193.377063 C135.916473,193.355247 136.09621,193.324677 136.331609,193.277649 L138.121721,192.891158 C138.450713,192.824775 138.72374,192.777589 139.031,192.734004 C139.42289,192.678651 139.817965,192.648381 140.273183,192.632215 L141.499892,192.604995 C142.089588,192.586719 142.368324,192.552645 142.594918,192.480638 C142.846739,192.401011 143.11565,192.256191 143.557127,191.954587 L144.627892,191.193806 C144.849331,191.040282 145.053818,190.906028 145.255562,190.784112 L145.5579,190.609623 C145.941347,190.398938 146.273991,190.133305 146.903293,189.540956 L147.627446,188.854173 C147.742401,188.747012 147.844634,188.653721 147.947324,188.562496 L149.352086,187.364039 C149.862162,186.91971 150.178933,186.608475 150.447501,186.282398 L150.560074,186.14131 C150.734977,185.914958 150.873487,185.635366 151.122097,184.994594 L151.312441,184.494933 C151.551793,183.866724 151.729706,183.448748 151.967467,183.00004 L152.206758,182.562734 L152.956433,181.280383 C153.262532,180.748811 153.429696,180.419649 153.563769,180.07835 L153.619511,179.93071 C153.844316,179.311782 154.119861,178.839507 154.586275,178.191533 L155.180734,177.382319 C155.437421,177.021671 155.533356,176.846707 155.562265,176.727624 C155.62353,176.475989 155.650091,176.202448 155.659906,175.663925 L155.665484,174.878603 C155.668851,174.228634 155.687496,173.758475 155.744437,173.287091 L155.78338,173.002666 C155.828164,172.710331 155.83914,172.420313 155.822911,171.869493 L155.777536,170.668655 C155.766885,170.282408 155.767608,169.941118 155.783695,169.61 L155.822897,168.978856 C155.830188,168.77305 155.828256,168.549362 155.817031,168.253152 L155.732399,166.596841 C155.716273,166.204437 155.713343,165.909912 155.721801,165.563403 C155.73509,164.993822 155.81618,164.485183 155.972171,163.851814 L156.283104,162.685817 C156.383577,162.29458 156.423903,162.074133 156.430404,161.897906 L156.424659,161.031411 L156.452663,159.187101 C156.454986,158.860029 156.452139,158.608471 156.443007,158.372411 L156.424455,158.022442 C156.397302,157.615947 156.341958,157.245784 156.203648,156.516457 L156.038958,155.654745 C155.929246,155.065409 155.875298,154.711631 155.828535,154.260116 C155.808704,154.066838 155.793481,153.870792 155.782091,153.66777 L155.756454,152.926854 L155.746547,151.400416 C155.739779,151.051121 155.725987,150.81074 155.699859,150.580963 L155.682659,150.443583 C155.653736,150.230784 155.581077,149.996415 155.403336,149.565933 L154.94342,148.489288 C154.917128,148.424696 154.89202,148.361385 154.864191,148.289939 C154.658974,147.763085 154.516056,147.286617 154.433251,146.786972 C154.372497,146.421404 154.338999,146.051232 154.32619,145.659442 L154.319858,145.164128 C154.321219,144.99451 154.326018,144.809261 154.334158,144.575029 L154.358735,143.849752 C154.370103,143.372902 154.358224,143.139826 154.318306,142.933927 C154.271662,142.694445 154.163291,142.425397 153.910334,141.934129 L153.462,141.078841 C153.296148,140.755463 153.218765,140.582154 153.104254,140.295232 C152.979549,139.98277 152.881389,139.675355 152.811278,139.359485 C152.727331,138.980697 152.684655,138.59737 152.676387,138.204219 C152.667145,137.764764 152.692178,137.394927 152.757279,136.91401 L152.98525,135.417742 L152.781803,134.624483 C152.723306,134.402085 152.672869,134.21694 152.626715,134.054739 L152.397272,133.318344 L152.227362,132.810014 C152.129257,132.5115 152.02891,132.1932 151.910156,131.800413 C151.530515,130.544723 152.240194,129.218874 153.495269,128.839047 Z" id="Stroke-303" fill="#B02D1C" fill-rule="nonzero"/><path d="M219.886229,431.3039 C219.886229,431.3039 229.360885,431.3039 231.386872,437.432346" id="Stroke-305" stroke="#FF9786" stroke-width="3" stroke-linecap="round" stroke-linejoin="round"/><path d="M227.073102,422.560176 C227.073102,422.560176 235.412889,422.715366 237.473698,429.466158" id="Stroke-307" stroke="#FF9786" stroke-width="3" stroke-linecap="round" stroke-linejoin="round"/><path d="M165.298535,436.074745 C165.298535,436.074745 173.021028,434.063601 175.689633,437.137325" id="Stroke-309" stroke="#FF9786" stroke-width="3" stroke-linecap="round" stroke-linejoin="round"/><path d="M167.777995,427.360317 C167.777995,427.360317 175.361202,426.13146 177.558132,429.466475" id="Stroke-311" stroke="#FF9786" stroke-width="3" stroke-linecap="round" stroke-linejoin="round"/><path d="M243.749352,352.401824 C243.749352,352.401824 249.096059,351.941003 251.804234,356.509625" id="Stroke-313" stroke="#FF9786" stroke-width="3" stroke-linecap="round" stroke-linejoin="round"/><path d="M245.501831,344.324627 C245.501831,344.324627 251.116031,343.700698 254.712159,348.046035" id="Stroke-315" stroke="#FF9786" stroke-width="3" stroke-linecap="round" stroke-linejoin="round"/><path d="M167.646306,133.815525 C167.01635,139.258281 181.945344,139.61617 181.989802,134.737167 C182.040312,129.150305 168.262016,128.502622 167.646306,133.815525" id="Fill-317" fill="#000"/></g></g></g></svg>