<svg viewBox="283.80000000000007 239.10074626865674 120.4000000000001 223.61940298507463" fill="none" xmlns="http://www.w3.org/2000/svg" xmlns:xlink="http://www.w3.org/1999/xlink" overflow="visible" width="120.4000000000001px" height="223.61940298507463px"><g id="Master/Stickers/Big Leaves Plant"><g id="Big Leaves"><path id="Leaves" fill-rule="evenodd" clip-rule="evenodd" d="M347.586 421.98C347.581 422.09 347.577 422.2 347.572 422.309C347.577 422.2 347.581 422.09 347.586 421.98V421.98ZM347.626 420.519C347.624 420.647 347.621 420.775 347.619 420.903C347.621 420.776 347.624 420.647 347.626 420.519V420.519ZM347.504 423.506C347.5 423.566 347.498 423.626 347.493 423.685C347.498 423.626 347.5 423.566 347.504 423.506V423.506ZM326.823 382.46C326.588 382.317 326.353 382.172 326.113 382.03C326.353 382.172 326.588 382.317 326.823 382.46V382.46ZM328.656 383.628C328.425 383.475 328.193 383.323 327.959 383.17C328.193 383.323 328.425 383.475 328.656 383.628V383.628ZM330.367 384.821C330.154 384.666 329.936 384.512 329.718 384.359C329.936 384.512 330.154 384.666 330.367 384.821V384.821ZM331.97 386.039C331.792 385.897 331.605 385.757 331.423 385.617C331.605 385.757 331.792 385.897 331.97 386.039V386.039ZM333.473 387.285C333.395 387.217 333.311 387.151 333.232 387.084C333.311 387.151 333.395 387.217 333.473 387.285V387.285ZM335.278 388.952C335.144 388.822 335.017 388.69 334.881 388.562C335.017 388.69 335.144 388.822 335.278 388.952V388.952ZM324.811 381.29C324.597 381.171 324.39 381.051 324.174 380.934C324.39 381.051 324.597 381.171 324.811 381.29V381.29ZM337.905 391.746C337.753 391.567 337.598 391.389 337.441 391.211C337.598 391.389 337.753 391.567 337.905 391.746V391.746ZM339.034 393.124C338.894 392.944 338.751 392.766 338.607 392.588C338.751 392.766 338.894 392.944 339.034 393.124V393.124ZM340.074 394.513C339.955 394.346 339.83 394.181 339.708 394.015C339.83 394.181 339.955 394.346 340.074 394.513V394.513ZM341.031 395.915C340.961 395.807 340.884 395.701 340.814 395.593C340.884 395.701 340.961 395.807 341.031 395.915V395.915ZM342.104 397.677C342.039 397.565 341.978 397.452 341.913 397.339C341.978 397.452 342.039 397.565 342.104 397.677V397.677ZM342.981 399.289C342.894 399.119 342.808 398.948 342.718 398.779C342.808 398.948 342.894 399.119 342.981 399.289V399.289ZM343.716 400.792C343.631 400.606 343.545 400.421 343.456 400.237C343.545 400.421 343.631 400.606 343.716 400.792V400.792ZM344.365 402.273C344.288 402.087 344.209 401.902 344.129 401.716C344.209 401.902 344.288 402.087 344.365 402.273V402.273ZM344.941 403.748C344.879 403.578 344.812 403.407 344.747 403.237C344.812 403.407 344.879 403.577 344.941 403.748V403.748ZM345.454 405.223C345.416 405.104 345.372 404.985 345.332 404.865C345.372 404.985 345.416 405.104 345.454 405.223V405.223ZM345.947 406.861C345.934 406.816 345.924 406.77 345.911 406.725C345.924 406.77 345.934 406.816 345.947 406.861V406.861ZM346.404 408.655C346.37 408.507 346.338 408.359 346.301 408.21C346.338 408.359 346.37 408.507 346.404 408.655V408.655ZM346.739 410.21C346.706 410.042 346.674 409.874 346.638 409.705C346.674 409.874 346.706 410.042 346.739 410.21V410.21ZM347.008 411.715C346.981 411.546 346.953 411.377 346.924 411.209C346.953 411.377 346.981 411.546 347.008 411.715V411.715ZM347.224 413.196C347.205 413.044 347.182 412.892 347.162 412.741C347.182 412.892 347.205 413.044 347.224 413.196V413.196ZM347.391 414.663C347.382 414.56 347.369 414.458 347.358 414.356C347.369 414.458 347.382 414.56 347.391 414.663V414.663ZM347.601 417.899C347.597 417.808 347.596 417.718 347.592 417.627C347.596 417.718 347.597 417.808 347.601 417.899V417.899ZM336.674 390.372C336.517 390.205 336.363 390.037 336.202 389.872C336.363 390.037 336.516 390.205 336.674 390.372V390.372ZM347.631 419.451C347.63 419.325 347.63 419.199 347.629 419.072C347.63 419.199 347.63 419.325 347.631 419.451V419.451ZM397.423 349.357C397.359 342.907 390.386 338.845 384.809 342.085C374.198 348.251 367.36 356.618 363.116 365.861C363.117 365.86 363.117 365.858 363.117 365.857C363.631 326.379 354.679 278.236 316.564 244.308C307.258 236.024 292.528 242.055 291.776 254.492C290.285 279.146 293.992 321.495 321.599 379.663C321.779 379.73 321.959 379.795 322.134 379.882C318.086 377.893 313.387 380.938 313.645 385.443C314.324 397.297 319.048 419.668 342.314 445.129C342.314 445.129 346 437.186 347.235 426.476C349.056 429.422 350.929 432.396 352.867 435.404C352.867 435.404 355.557 426.963 358.185 413.307C360.265 428.113 364.35 438.966 364.35 438.966C393.826 406.71 397.613 368.678 397.423 349.357V349.357Z" fill="#409B81"/><path id="Fill 3" fill-rule="evenodd" clip-rule="evenodd" d="M357.558 400.664C356.906 381.808 361.148 356.412 385.06 342.518C386.287 341.806 387.637 341.449 388.989 341.449C390.324 341.449 391.66 341.796 392.881 342.491C395.383 343.915 396.894 346.483 396.922 349.362C397.115 368.757 393.191 405.742 365.142 437.323C366.472 412.065 372.369 387.542 382.724 364.28C382.836 364.028 382.723 363.732 382.47 363.62C382.221 363.508 381.922 363.621 381.81 363.874C371.454 387.138 365.54 411.657 364.167 436.91C362.495 431.87 358.133 417.278 357.558 400.664M353.187 432.534C350.839 396.229 343.761 360.455 332.036 325.857L311.627 265.645C311.539 265.384 311.255 265.246 310.994 265.332C310.732 265.421 310.591 265.705 310.68 265.966L331.088 326.178C342.885 360.986 349.974 396.988 352.255 433.523C350.779 431.212 349.249 428.775 347.679 426.226C349.294 411.278 346.167 391.133 322.356 379.434C322.289 379.401 322.221 379.38 322.154 379.351C304.609 342.29 289.691 297.268 292.275 254.522C292.61 248.977 296 244.22 301.122 242.104C302.918 241.363 304.792 241.001 306.648 241.001C310.112 241.001 313.515 242.264 316.232 244.682C355.225 279.392 362.986 329.333 362.63 365.117C362.628 365.374 362.622 365.627 362.618 365.882C357.36 377.462 356.191 390.113 356.56 400.724C356.711 405.07 357.121 409.276 357.673 413.216C355.933 422.261 354.172 429.022 353.187 432.534M342.763 442.704C341.498 424.991 335.992 407.819 326.642 392.624C326.496 392.388 326.186 392.314 325.954 392.46C325.719 392.604 325.646 392.912 325.79 393.147C335.245 408.511 340.725 425.914 341.828 443.847C331.728 432.583 315.596 410.815 314.144 385.415C314.035 383.5 314.92 381.727 316.514 380.67C317.421 380.067 318.453 379.763 319.495 379.763C320.315 379.763 321.14 379.951 321.914 380.332C338.758 388.607 347.243 401.968 347.133 420.042C347.073 430.04 344.253 438.776 342.763 442.704M397.922 349.352C397.89 346.113 396.191 343.224 393.376 341.622C390.605 340.046 387.308 340.056 384.558 341.653C374.537 347.476 367.915 355.27 363.631 363.761C363.781 327.866 355.678 278.456 316.896 243.935C312.436 239.965 306.246 238.907 300.741 241.181C295.262 243.442 291.635 248.531 291.277 254.462C290.022 275.225 293.047 299.383 300.026 324.324C304.964 341.972 311.881 360.203 320.686 378.878C319.063 378.568 317.383 378.892 315.96 379.836C314.068 381.092 313.016 383.198 313.146 385.472C314.655 411.877 331.8 434.356 341.911 445.43C341.992 447.146 342.047 448.866 342.047 450.591V459.617C342.047 459.893 342.271 460.117 342.547 460.117C342.824 460.117 343.047 459.893 343.047 459.617V450.591C343.047 448.741 342.985 446.896 342.892 445.056C343.514 443.616 346.292 436.803 347.487 427.816C349.084 430.39 350.704 432.967 352.369 435.552C352.827 443.515 353.069 451.5 353.069 459.505C353.069 459.781 353.292 460.005 353.569 460.005C353.845 460.005 354.069 459.781 354.069 459.505C354.069 451.477 353.826 443.468 353.367 435.483C353.582 434.791 355.794 427.585 358.116 416.14C360.275 429.436 363.833 439.014 363.882 439.143C363.917 439.235 363.981 439.307 364.058 439.363C363.93 442.359 363.85 445.362 363.85 448.377V459.505C363.85 459.781 364.074 460.005 364.35 460.005C364.626 460.005 364.85 459.781 364.85 459.505V448.377C364.85 445.206 364.935 442.049 365.077 438.899C394.091 406.87 398.118 369.079 397.922 349.352" fill="black"/></g></g></svg>