<svg viewBox="292.4 273.50373134328356 103.20000000000009 189.2164179104478" fill="none" xmlns="http://www.w3.org/2000/svg" xmlns:xlink="http://www.w3.org/1999/xlink" overflow="visible" width="103.20000000000009px" height="189.2164179104478px"><g id="Master/Stickers/Side Table"><g id="Side table"><path id="Side table_2" fill-rule="evenodd" clip-rule="evenodd" d="M296.095 326.74V371.021H303.872L306.819 460.738H310.686L313.634 371.021H373.816L376.764 460.738H380.631L383.578 371.021H391.356V326.74H296.095Z" fill="#8B4500"/><path id="Fill 2" fill-rule="evenodd" clip-rule="evenodd" d="M347.453 347.597C347.453 349.618 345.784 351.254 343.725 351.254C341.667 351.254 339.998 349.618 339.998 347.597C339.998 345.577 341.667 343.941 343.725 343.941C345.784 343.941 347.453 345.577 347.453 347.597" fill="#E96600"/><path id="Fill 4" fill-rule="evenodd" clip-rule="evenodd" d="M343.726 344.442C345.5 344.442 346.943 345.858 346.943 347.598C346.943 349.339 345.5 350.755 343.726 350.755C341.951 350.755 340.508 349.339 340.508 347.598C340.508 345.858 341.951 344.442 343.726 344.442V344.442ZM343.726 351.755C346.062 351.755 347.963 349.89 347.963 347.598C347.963 345.306 346.062 343.442 343.726 343.442C341.389 343.442 339.489 345.306 339.489 347.598C339.489 349.89 341.389 351.755 343.726 351.755V351.755ZM296.604 370.521H390.847V327.24H296.604V370.521ZM380.138 460.239H377.258L374.344 371.521H383.052L380.138 460.239ZM310.193 460.239H307.313L304.399 371.521H313.107L310.193 460.239ZM295.585 326.24V371.521H303.378L306.311 460.755L306.326 461.239H311.181L314.127 371.521H373.324L376.255 460.755L376.271 461.239H381.125L384.072 371.521H391.866V326.24H295.585Z" fill="black"/><path id="Frame" fill-rule="evenodd" clip-rule="evenodd" d="M329.417 326.739H364.71C365.316 326.739 365.851 326.355 366.035 325.79L365.755 326.738H378.698L371.58 307.01L379.04 281.745C379.298 280.872 378.63 280 377.704 280H342.41C341.791 280 341.246 280.402 341.074 280.985L328.08 324.995C327.823 325.867 328.491 326.739 329.417 326.739Z" fill="#FF5613"/><path id="Fill 11" fill-rule="evenodd" clip-rule="evenodd" d="M360.896 322.681H335.25C334.757 322.681 334.403 322.217 334.539 321.753L345.514 284.585C345.605 284.275 345.895 284.061 346.224 284.061H371.87C372.363 284.061 372.718 284.525 372.58 284.989L361.607 322.158C361.515 322.467 361.226 322.681 360.896 322.681" fill="#FCBD21"/><path id="Fill 13" fill-rule="evenodd" clip-rule="evenodd" d="M371.87 284.061H353.336C352.817 285.302 352.525 286.659 352.525 288.083C352.525 293.934 357.359 298.676 363.321 298.676C365.413 298.676 367.36 298.082 369.013 297.073L372.58 284.989C372.718 284.525 372.362 284.061 371.87 284.061" fill="#409B81"/><path id="Fill 15" fill-rule="evenodd" clip-rule="evenodd" d="M361.759 311.745C361.759 302.606 354.207 295.197 344.892 295.197C344.018 295.197 343.161 295.263 342.324 295.388L334.539 321.753C334.403 322.217 334.757 322.681 335.251 322.681H357.546C360.166 319.765 361.759 315.938 361.759 311.745" fill="#409B81"/><path id="Fill 17" fill-rule="evenodd" clip-rule="evenodd" d="M372.092 284.849L368.579 296.745C366.982 297.682 365.169 298.175 363.322 298.175C357.651 298.175 353.035 293.648 353.035 288.082C353.035 286.874 353.254 285.692 353.684 284.56H371.87C371.97 284.56 372.028 284.617 372.055 284.651C372.08 284.684 372.119 284.754 372.092 284.849V284.849ZM361.118 322.017C361.091 322.113 360.999 322.18 360.897 322.18H358.609C360.968 319.199 362.269 315.537 362.269 311.745C362.269 302.344 354.474 294.697 344.893 294.697C344.271 294.697 343.647 294.742 343.026 294.806L346.004 284.723C346.032 284.627 346.123 284.56 346.225 284.56H352.616C352.225 285.698 352.016 286.878 352.016 288.082C352.016 294.199 357.088 299.175 363.322 299.175C365.012 299.175 366.668 298.783 368.19 298.065L361.118 322.017ZM335.25 322.18C335.151 322.18 335.092 322.123 335.067 322.09C335.041 322.056 335.002 321.986 335.03 321.891L342.723 295.836C343.441 295.744 344.168 295.697 344.893 295.697C353.912 295.697 361.25 302.896 361.25 311.745C361.25 315.576 359.853 319.273 357.313 322.18H335.25ZM371.87 283.56H346.225C345.672 283.56 345.178 283.924 345.024 284.446L334.051 321.614C333.941 321.987 334.014 322.379 334.252 322.691C334.49 323.001 334.854 323.18 335.25 323.18H360.897C361.449 323.18 361.943 322.817 362.098 322.295L369.449 297.395L373.07 285.127C373.181 284.753 373.109 284.361 372.87 284.05C372.632 283.739 372.267 283.56 371.87 283.56V283.56ZM378.551 281.607L365.557 325.616C365.449 325.983 365.1 326.24 364.711 326.24H329.417C329.138 326.24 328.881 326.114 328.713 325.894C328.545 325.675 328.493 325.398 328.571 325.134L341.565 281.125C341.673 280.757 342.021 280.5 342.411 280.5H377.705C377.984 280.5 378.241 280.626 378.409 280.845C378.577 281.065 378.629 281.342 378.551 281.607V281.607ZM377.977 326.24H366.435L369.458 316L371.629 308.643L377.977 326.24ZM379.223 280.245C378.861 279.772 378.308 279.5 377.705 279.5H342.411C341.57 279.5 340.82 280.054 340.585 280.847L327.592 324.857C327.425 325.424 327.536 326.022 327.898 326.495C328.261 326.968 328.815 327.24 329.417 327.24H364.711C364.845 327.24 364.969 327.203 365.096 327.177L365.078 327.24H379.419L372.116 306.995L379.53 281.884C379.697 281.316 379.586 280.718 379.223 280.245V280.245Z" fill="black"/></g></g></svg>