<svg viewBox="275.20000000000005 213.29850746268653 137.60000000000014 249.42164179104486" fill="none" xmlns="http://www.w3.org/2000/svg" xmlns:xlink="http://www.w3.org/1999/xlink" overflow="visible" width="137.60000000000014px" height="249.42164179104486px"><g id="Master/Stickers/Exterior Plant"><g id="Exterior Plant"><path id="Fill 1" fill-rule="evenodd" clip-rule="evenodd" d="M395.287 251.259C395.766 248.847 395.959 246.331 395.827 243.75C395.07 228.923 381.84 215.772 366.978 215.068C355.929 214.546 346.101 219.92 340.381 228.308C336.618 233.826 330.567 237.305 323.885 237.601C323.767 237.607 323.651 237.613 323.534 237.619C307.887 238.49 295.297 251.341 294.755 266.971C294.74 267.388 294.734 267.803 294.736 268.216C294.788 277.674 292.658 287.066 287.765 295.167C284.14 301.168 282.184 308.287 282.541 315.883C283.437 334.985 299.215 350.38 318.372 350.877C331.12 351.208 342.444 345.071 349.308 335.525C355.222 339.421 362.322 341.669 369.956 341.595C389.846 341.4 406.602 324.362 406.44 304.515C406.387 298.007 404.639 291.903 401.615 286.62C395.469 275.88 392.877 263.39 395.287 251.259" fill="#409B81"/><path id="Fill 3" fill-rule="evenodd" clip-rule="evenodd" d="M357.329 339.484L354.316 361.031C354.251 361.504 354.128 361.967 353.952 362.411C352.267 366.672 346.619 367.569 343.689 364.042L342.395 362.484C341.64 361.573 341.169 360.461 341.042 359.285L339.489 344.9C335.52 347.492 331.02 349.335 326.186 350.241L335.083 459.926H350.203L362.689 340.926C360.85 340.578 359.06 340.095 357.329 339.484" fill="#8B4500"/><path id="Fill 5" fill-rule="evenodd" clip-rule="evenodd" d="M369.951 341.096C362.7 341.147 355.636 339.097 349.584 335.109C349.36 334.961 349.059 335.016 348.902 335.234C341.858 345.029 330.446 350.69 318.385 350.378C299.451 349.887 283.926 334.725 283.04 315.86C282.701 308.632 284.483 301.567 288.193 295.425C292.855 287.705 295.291 278.295 295.236 268.213C295.234 267.807 295.24 267.398 295.255 266.987C295.786 251.652 308.221 238.97 323.561 238.117L323.907 238.1C330.724 237.797 336.879 234.329 340.794 228.589C346.419 220.341 355.57 215.532 365.496 215.532C365.98 215.532 366.468 215.544 366.955 215.567C381.59 216.26 394.583 229.177 395.328 243.775C395.455 246.265 395.276 248.749 394.797 251.162C392.462 262.913 394.729 275.594 401.18 286.867C404.243 292.22 405.889 298.323 405.94 304.518C406.1 324.154 389.62 340.903 369.951 341.096V341.096ZM340.019 345.152C343.608 342.771 346.805 339.761 349.433 336.201C351.755 337.689 354.218 338.902 356.776 339.833L353.821 360.963C353.762 361.392 353.649 361.818 353.488 362.228C352.762 364.063 351.162 365.344 349.209 365.655C347.264 365.965 345.337 365.244 344.074 363.724L342.781 362.166C342.086 361.329 341.656 360.314 341.539 359.232L340.019 345.152ZM349.753 459.427H335.544L326.72 350.638C331.116 349.754 335.297 348.091 339.077 345.742L340.545 359.339C340.682 360.616 341.19 361.815 342.012 362.803L343.305 364.36C344.794 366.153 347.057 367.008 349.366 366.64C351.672 366.273 353.56 364.761 354.419 362.593C354.609 362.109 354.741 361.606 354.811 361.099L357.741 340.148C359.184 340.629 360.65 341.035 362.143 341.337L349.753 459.427ZM402.05 286.373C395.717 275.309 393.489 262.871 395.777 251.355C396.273 248.863 396.458 246.295 396.326 243.724C395.556 228.637 382.128 215.286 367.002 214.57C356.188 214.062 346.063 219.088 339.968 228.027C336.231 233.506 330.361 236.814 323.862 237.103L323.506 237.121C307.653 238.003 294.805 251.107 294.255 266.953C294.24 267.377 294.234 267.798 294.236 268.219C294.29 278.117 291.904 287.346 287.337 294.909C283.524 301.221 281.693 308.482 282.042 315.906C282.951 335.29 298.904 350.871 318.359 351.376C318.685 351.384 319.01 351.388 319.336 351.388C321.499 351.388 323.638 351.197 325.733 350.834L334.585 459.966C334.605 460.225 334.822 460.425 335.083 460.425H350.203C350.459 460.425 350.674 460.232 350.7 459.978L363.131 341.508C365.373 341.899 367.654 342.113 369.961 342.094C390.171 341.896 407.105 324.685 406.94 304.51C406.888 298.145 405.196 291.873 402.05 286.373V286.373Z" fill="black"/><path id="Fill 7" fill-rule="evenodd" clip-rule="evenodd" d="M387.319 412.017L374.66 459.745H369.797L379.417 409.769H384.097C385.355 409.769 386.519 410.224 387.063 410.929C387.332 411.278 387.419 411.644 387.319 412.017V412.017ZM303.621 412.017C303.521 411.644 303.608 411.278 303.877 410.929C304.421 410.224 305.585 409.769 306.842 409.769H311.523L321.143 459.745H316.28L303.621 412.017ZM368.301 409.769H378.398L368.778 459.745H361.674L368.301 409.769ZM357.506 409.769H367.292L360.665 459.745H353.554L357.506 409.769ZM345.97 409.769H356.503L352.551 459.745H345.97V409.769ZM334.436 409.769H344.97V459.745H338.387L334.436 409.769ZM329.266 459.745H322.162L312.542 409.769H322.638L329.266 459.745ZM323.647 409.769H333.434L337.385 459.745H330.275L323.647 409.769ZM387.855 410.32C387.119 409.365 385.678 408.771 384.097 408.771H306.842C305.261 408.771 303.821 409.365 303.085 410.32C302.63 410.911 302.476 411.603 302.654 412.273L315.412 460.372C315.469 460.591 315.669 460.743 315.895 460.743H375.045C375.271 460.743 375.47 460.591 375.528 460.372L388.286 412.273C388.464 411.603 388.31 410.911 387.855 410.32V410.32Z" fill="black"/></g></g></svg>