<svg viewBox="283.80000000000007 230.5 120.4000000000001 232.22014925373136" fill="none" xmlns="http://www.w3.org/2000/svg" xmlns:xlink="http://www.w3.org/1999/xlink" overflow="visible" width="120.4000000000001px" height="232.22014925373136px"><g id="Master/Stickers/Wavy Leaves Plant"><g id="Wavy Leaves"><path id="Fill 1" fill-rule="evenodd" clip-rule="evenodd" d="M329.89 377.67C329.974 379.581 329.54 381.511 328.872 383.434C327.035 382.31 325.393 381.141 324.98 379.715C324.347 377.529 326.515 374.225 327.813 371.252C328.937 373.42 329.798 375.561 329.89 377.67M399.609 293.455C400.551 286.177 393.069 278.919 393.234 272.944C393.45 265.178 399.058 259.274 399.515 253.754C400.501 241.828 395.632 239.175 391.416 237.399C386.602 235.372 377.64 236.745 373.039 242.616C368.596 248.288 368.111 257.814 363.669 262.934C358.989 268.328 348.46 269.258 344.879 275.083C341.166 281.12 345.105 290.997 342.436 297.34C339.698 303.851 329.922 307.892 328.136 314.552C326.304 321.382 332.756 329.857 331.766 336.66C330.742 343.705 322.171 349.935 321.874 356.745C321.763 359.298 322.707 361.826 323.976 364.325C320.914 363.694 317.244 363.421 315.848 361.67C313.642 358.903 316.751 350.704 313.814 348.304C311.114 346.099 307.858 348.079 304.47 346.263C301.422 344.629 299.379 334.989 292.287 337.716C292.384 337.679 286.605 342.592 292.833 351.355C294.486 353.681 287.337 357.406 287.503 361.212C287.637 364.29 295.855 367.014 296.265 370.588C296.626 373.739 289.209 378.257 289.858 381.713C290.452 384.876 298.979 386.387 299.869 389.743C300.701 392.881 294.031 398.432 295.165 401.689C296.239 404.769 304.897 404.965 306.279 408.109C307.595 411.103 301.877 417.626 303.505 420.641C305.06 423.523 313.637 422.323 315.505 425.193C317.292 427.939 312.714 435.304 314.812 438.011C316.818 440.601 320.687 436.985 322.999 439.516C328.109 437.534 330.793 436.637 331.676 431.903C332.214 429.02 325.267 425.376 325.969 421.362C326.312 419.398 329.308 417.692 331.823 415.856C332.242 416.774 332.576 417.689 332.759 418.608C335.271 431.222 329.075 441.748 335.72 443.499C338.833 444.32 342.307 428.78 345.604 423.235C349.12 417.321 356.76 412.915 359.826 407.26C363.114 401.193 359.038 391.622 361.842 385.857C364.872 379.628 374.906 376.896 377.413 371.023C380.146 364.622 375.142 355.5 377.309 349.528C379.697 342.946 389.358 339.116 391.133 333.062C393.12 326.281 386.999 317.864 388.32 311.756C389.833 304.755 398.82 299.558 399.609 293.455" fill="#FCBD21"/><path id="Fill 3" fill-rule="evenodd" clip-rule="evenodd" d="M399.113 293.39C398.739 296.285 396.378 299.02 393.879 301.916C391.292 304.914 388.616 308.015 387.831 311.65C387.183 314.645 388.209 318.036 389.294 321.626C390.46 325.481 391.665 329.468 390.653 332.921C389.807 335.807 387.046 338.193 384.123 340.719C381.151 343.287 378.077 345.944 376.839 349.357C375.76 352.329 376.359 355.896 376.992 359.671C377.647 363.576 378.325 367.614 376.953 370.826C375.757 373.628 372.737 375.701 369.54 377.894C366.307 380.112 362.965 382.405 361.392 385.638C359.984 388.535 360.24 392.357 360.488 396.053C360.75 399.961 361.022 404.004 359.386 407.021C357.869 409.819 355.223 412.286 352.421 414.898C349.728 417.409 346.943 420.004 345.174 422.979C343.889 425.14 342.575 428.796 341.305 432.332C339.716 436.756 337.56 442.722 336.09 443.012C337.735 404.216 344.983 367.99 357.705 330.453L378.113 270.242C378.201 269.981 378.061 269.697 377.8 269.608C377.538 269.522 377.255 269.66 377.166 269.921L356.758 330.133C344.03 367.685 336.77 403.938 335.102 442.743C332.65 441.609 332.829 438.558 333.386 433.181C333.81 429.082 334.339 423.981 333.249 418.509C333.082 417.674 332.798 416.846 332.444 416.02C334.203 414.703 335.68 413.291 335.831 411.594C336.01 409.583 334.062 407.648 332 405.6C330.187 403.799 328.313 401.938 328.296 400.286C328.28 398.751 330.038 396.904 331.738 395.117C333.728 393.026 335.785 390.864 335.503 388.732C335.225 386.636 332.689 385.129 330.235 383.671C329.981 383.52 329.727 383.369 329.474 383.217C330.086 381.369 330.471 379.507 330.389 377.648C330.297 375.526 329.45 373.369 328.359 371.23C329.115 369.439 329.553 367.729 328.878 366.384C328.162 364.955 326.4 364.327 324.31 363.88C323.132 361.518 322.271 359.131 322.374 356.766C322.521 353.393 324.788 350.164 327.189 346.746C329.43 343.554 331.749 340.253 332.261 336.732C332.744 333.411 331.517 329.708 330.331 326.126C329.031 322.204 327.688 318.15 328.619 314.68C329.521 311.317 332.545 308.654 335.747 305.835C338.603 303.32 341.557 300.719 342.897 297.534C344.176 294.492 343.989 290.665 343.808 286.964C343.604 282.781 343.392 278.454 345.304 275.344C347.123 272.386 350.822 270.744 354.737 269.004C358.198 267.467 361.777 265.877 364.046 263.261C366.371 260.581 367.652 256.701 368.891 252.948C370.076 249.356 371.302 245.643 373.432 242.924C376.687 238.771 382.1 237.041 386.519 237.041C388.324 237.041 389.964 237.329 391.222 237.86C394.726 239.335 400.021 241.565 399.016 253.712C398.822 256.057 397.624 258.554 396.355 261.198C394.716 264.614 392.858 268.485 392.735 272.93C392.656 275.766 394.175 278.781 395.783 281.973C397.663 285.705 399.608 289.566 399.113 293.39V293.39ZM323.693 459.734V452.653C323.693 448.063 323.615 443.836 323.45 439.876L323.646 439.801C328.556 437.902 331.261 436.856 332.168 431.994C332.46 430.425 331.028 428.831 329.51 427.143C327.846 425.29 326.124 423.375 326.461 421.448C326.706 420.045 328.742 418.628 330.711 417.257C331.013 417.047 331.317 416.836 331.616 416.623C331.903 417.321 332.131 418.014 332.268 418.704C333.329 424.029 332.809 429.046 332.391 433.078C331.85 438.301 331.428 442.47 335.057 443.804C334.845 449.063 334.736 454.369 334.729 459.734H323.693ZM328.592 382.671C327.079 381.709 325.786 380.7 325.46 379.575C325.032 378.099 326.15 375.834 327.23 373.645C327.433 373.235 327.633 372.823 327.829 372.411C328.693 374.208 329.315 375.963 329.39 377.691C329.462 379.33 329.127 380.998 328.592 382.671V382.671ZM331.2 415.689C330.85 415.94 330.495 416.19 330.14 416.437C327.904 417.993 325.793 419.463 325.476 421.276C325.055 423.682 327.027 425.876 328.767 427.812C330.114 429.311 331.386 430.727 331.184 431.811C330.387 436.088 328.045 437.027 323.4 438.825C322.153 411.852 316.721 397.108 304.007 362.637L302.748 359.224C302.652 358.964 302.363 358.829 302.106 358.928C301.846 359.023 301.714 359.311 301.809 359.57L303.068 362.984C315.672 397.152 321.096 411.877 322.379 438.438C321.836 438.169 321.26 438.063 320.674 438.063C320.012 438.063 319.342 438.18 318.707 438.291C317.268 438.543 316.025 438.76 315.207 437.703C314.279 436.506 314.941 433.975 315.582 431.528C316.266 428.911 316.913 426.439 315.924 424.92C314.875 423.308 312.15 422.865 309.514 422.435C307.103 422.042 304.61 421.636 303.945 420.403C303.224 419.069 304.291 416.678 305.322 414.366C306.425 411.897 307.465 409.564 306.737 407.908C305.959 406.138 303.332 405.259 300.792 404.409C298.483 403.636 296.095 402.837 295.637 401.524C295.133 400.076 296.568 397.871 297.955 395.74C299.425 393.482 300.812 391.349 300.352 389.615C299.849 387.715 297.362 386.435 294.957 385.198C292.815 384.095 290.6 382.955 290.349 381.62C290.057 380.062 291.827 378.063 293.539 376.129C295.298 374.141 296.96 372.264 296.761 370.531C296.526 368.479 294.184 366.811 291.918 365.198C290.02 363.846 288.057 362.448 288.002 361.19C287.929 359.51 289.589 357.703 291.053 356.11C292.727 354.288 294.308 352.567 293.24 351.064C288.076 343.798 291.38 339.371 292.572 338.142C296.933 336.535 299.211 340.047 301.22 343.151C302.25 344.743 303.14 346.117 304.234 346.703C305.954 347.624 307.66 347.63 309.165 347.635C310.803 347.641 312.218 347.645 313.497 348.69C314.867 349.81 314.72 352.63 314.578 355.357C314.44 358.023 314.309 360.54 315.457 361.981C316.693 363.531 319.397 364.006 322.011 364.465C322.558 364.561 323.106 364.661 323.642 364.767L324.915 365.053C326.357 365.426 327.539 365.944 327.985 366.832C328.403 367.667 328.201 368.808 327.744 370.065L327.255 371.271C326.97 371.908 326.652 372.557 326.334 373.203C325.115 375.672 323.964 378.004 324.499 379.853C324.932 381.347 326.496 382.538 328.261 383.643L329.131 384.176C329.329 384.294 329.527 384.413 329.724 384.531C331.973 385.867 334.298 387.248 334.511 388.863C334.731 390.521 332.842 392.507 331.014 394.427C329.092 396.448 327.276 398.356 327.296 400.295C327.317 402.358 329.34 404.367 331.295 406.309C333.103 408.105 334.972 409.962 334.835 411.506C334.722 412.771 333.509 413.951 332.016 415.087L331.2 415.689ZM396.676 281.523C395.127 278.447 393.663 275.541 393.735 272.957C393.851 268.725 395.66 264.956 397.257 261.63C398.566 258.901 399.803 256.323 400.013 253.794C400.995 241.919 396.19 238.867 391.61 236.938C386.361 234.727 377.282 236.388 372.645 242.307C370.407 245.163 369.154 248.961 367.942 252.634C366.678 256.462 365.484 260.077 363.291 262.606C361.167 265.054 357.692 266.597 354.331 268.09C350.449 269.815 346.434 271.598 344.453 274.821C342.378 278.195 342.597 282.677 342.809 287.013C342.993 290.768 343.167 294.314 341.975 297.145C340.724 300.119 337.858 302.644 335.086 305.084C331.914 307.877 328.634 310.766 327.653 314.42C326.645 318.18 328.036 322.379 329.382 326.441C330.584 330.072 331.72 333.501 331.272 336.587C330.793 339.874 328.545 343.076 326.37 346.171C323.993 349.557 321.534 353.057 321.375 356.723C321.273 359.069 322.021 361.375 323.087 363.641C322.788 363.586 322.488 363.534 322.184 363.48C319.753 363.053 317.238 362.612 316.239 361.358C315.327 360.213 315.454 357.771 315.577 355.41C315.732 352.433 315.892 349.356 314.13 347.916C312.576 346.647 310.844 346.641 309.169 346.635C307.713 346.63 306.207 346.625 304.706 345.822C303.839 345.357 302.975 344.021 302.059 342.608C300.05 339.503 297.299 335.253 292.107 337.248C292.02 337.283 291.945 337.339 291.889 337.412L291.888 337.411C290.96 338.356 286.623 343.48 292.425 351.644C293.025 352.487 291.709 353.918 290.317 355.433C288.721 357.17 286.912 359.139 287.003 361.233C287.079 362.979 289.148 364.453 291.338 366.012C293.425 367.498 295.584 369.036 295.768 370.644C295.916 371.935 294.327 373.73 292.79 375.466C290.919 377.58 288.984 379.766 289.367 381.805C289.708 383.62 292.035 384.819 294.499 386.086C296.71 387.225 298.996 388.401 299.385 389.87C299.732 391.176 298.403 393.219 297.117 395.194C295.598 397.528 294.028 399.942 294.693 401.853C295.313 403.629 297.82 404.469 300.474 405.357C302.808 406.138 305.222 406.946 305.821 408.31C306.371 409.561 305.374 411.796 304.409 413.958C303.28 416.492 302.111 419.111 303.065 420.877C303.964 422.543 306.582 422.97 309.354 423.422C311.775 423.817 314.278 424.224 315.086 425.465C315.833 426.614 315.214 428.983 314.614 431.275C313.913 433.956 313.187 436.73 314.417 438.317C315.605 439.849 317.344 439.543 318.879 439.277C320.218 439.042 321.485 438.833 322.438 439.681C322.611 443.698 322.693 447.984 322.693 452.653V459.734H307.236C306.959 459.734 306.736 459.957 306.736 460.234C306.736 460.51 306.959 460.734 307.236 460.734H352.781C353.057 460.734 353.281 460.51 353.281 460.234C353.281 459.957 353.057 459.734 352.781 459.734H335.729C335.736 454.442 335.844 449.205 336.051 444.016C338.219 443.868 340.096 438.656 342.246 432.67C343.501 429.179 344.798 425.569 346.033 423.491C347.729 420.638 350.461 418.092 353.103 415.629C355.841 413.078 358.671 410.439 360.265 407.497C362.039 404.226 361.758 400.036 361.486 395.986C361.236 392.256 360.999 388.733 362.292 386.076C363.749 383.08 366.98 380.863 370.105 378.719C373.426 376.441 376.562 374.288 377.873 371.218C379.36 367.737 378.657 363.552 377.978 359.506C377.367 355.864 376.79 352.424 377.779 349.699C378.928 346.53 381.902 343.96 384.777 341.476C387.814 338.851 390.683 336.371 391.613 333.203C392.708 329.463 391.459 325.331 390.251 321.336C389.204 317.873 388.216 314.603 388.808 311.861C389.54 308.475 392.131 305.473 394.636 302.57C397.236 299.556 399.692 296.71 400.105 293.519C400.639 289.389 398.624 285.39 396.676 281.523V281.523Z" fill="black"/></g></g></svg>