<svg viewBox="203.1034482758621 98.10000000000002 163.79310344827599 457.80000000000007" xmlns="http://www.w3.org/2000/svg" overflow="visible" xmlns:xlink="http://www.w3.org/1999/xlink" width="163.79310344827599px" height="457.80000000000007px"><g id="Master/Stickers/Plant 2" stroke="none" stroke-width="1" fill="none" fill-rule="evenodd"><g id="Group-5-Copy" transform="translate(206.000000, 103.000000)"><path d="M115.484482,164.225622 C109.413355,166.543971 104.762339,172.101427 100.584694,176.837712 C98.1216474,179.630365 95.781795,182.521761 93.5415109,185.488269 C96.1049697,176.010634 100.723077,167.154152 105.587574,158.56014 C111.002226,148.993889 120.694936,136.917712 118.442839,125.170677 C116.546824,115.282035 106.075289,112.542552 98.5157011,118.538865 C91.2826632,124.277771 86.2772524,133.7073 82.7797089,142.827941 C83.3509603,131.549303 87.8939697,119.799736 93.1601141,110.616642 C96.7217862,104.406808 101.137382,99.0316473 105.96222,93.7797042 C110.255465,89.1075594 114.451673,84.2750628 116.425317,78.1226177 C119.543995,68.4036113 114.751222,55.6497362 102.679845,59.8425136 C95.6788516,62.2747971 89.3250514,67.7993382 83.9112423,73.8884865 C87.1092374,62.8368723 90.3106077,51.7852581 93.4309733,40.711701 C96.0931565,31.2669805 97.2280651,15.9196262 83.9939345,14.1481609 C71.5909452,12.4872539 65.4253119,25.1381663 61.6611282,34.6790978 C57.6438051,44.8622805 55.0702207,55.518079 53.7783657,66.3527963 C48.2970527,58.5782663 40.3172534,52.3296102 30.9114352,50.8324308 C16.3508539,48.5140815 12.2913408,64.015036 19.4492807,74.1855593 C23.8868153,80.4924484 29.8482495,85.6810948 34.5060154,91.8554827 C39.3283219,98.2476114 43.5878151,105.08113 47.158769,112.249699 C53.095733,124.1689 56.8658232,136.988604 58.0243581,150.172897 C53.6121374,144.990158 48.4658124,140.42182 42.6807321,136.969193 C32.63869,130.9771 24.0783575,139.349995 25.8334577,150.066559 C27.5834952,160.756959 35.7632747,168.89861 43.1397583,176.166766 C51.8207539,184.719425 58.1939615,193.265331 61.4442721,204.511899 C58.3390948,202.555607 55.2339175,200.598472 52.1287403,198.641336 C48.3333361,196.249562 44.386892,193.36745 39.8042241,192.812126 C31.0616312,191.752116 25.7802985,199.185688 28.0593973,207.345062 C30.4878485,216.041193 38.7536954,220.853435 46.2424042,224.69175 C57.1991235,230.310814 66.005845,238.537705 64.1089867,252.002192 C63.7664047,254.437851 65.751018,256.075127 67.6267813,256.232947 C68.1651246,256.751137 68.9270743,257.065933 69.9354131,256.988289 C77.6359153,256.400895 85.3364174,255.812657 93.0377634,255.224419 C94.7169217,255.096138 96.6163114,253.772813 96.4205502,251.840996 C94.9506538,237.392456 95.6341303,221.223088 106.624602,210.391746 C115.932539,201.21878 130.015531,195.481562 133.461603,181.619571 C136.327985,170.090277 127.375286,159.68429 115.484482,164.225622" id="Fill-163" fill="#EFD638"/><path d="M33.3000463,129.959497 C33.3000463,129.959497 34.6159741,120.643102 28.2233577,121.010593 C21.829895,121.378912 24.2747281,129.959497 24.2747281,129.959497 C24.2747281,129.959497 15.2485635,127.263735 14.1205045,132.597322 C12.9924455,137.930908 20.0612204,138.298399 23.7661283,137.011353 C23.7661283,137.011353 20.3252522,146.022333 26.9065836,146.941889 C33.4879151,147.861444 31.7954035,137.563417 31.7954035,137.563417 C31.7954035,137.563417 41.8133798,141.889714 42.8898172,135.723479 C44.205745,128.18329 33.3000463,129.959497 33.3000463,129.959497" id="Fill-165" fill="#FE5C4F"/><path d="M133.090376,159.864374 C133.090376,159.864374 134.480762,152.39809 130.43507,152.025112 C126.389377,151.652133 125.884092,155.508762 125.630596,158.620274 C125.630596,158.620274 119.688378,156.380724 118.297991,159.864374 C116.90675,163.348024 120.551288,165.339762 125.809835,164.841617 C125.809835,164.841617 122.343684,172.05925 127.653442,172.930372 C132.964054,173.801495 133.32168,166.210884 133.32168,166.210884 C133.32168,166.210884 141.181761,168.076615 141.940542,163.100212 C142.699323,158.122129 135.998324,158.246455 133.090376,159.864374" id="Fill-167" fill="#FE5C4F"/><path d="M118.090376,58.8644852 C118.090376,58.8644852 119.480762,51.3981943 115.43507,51.0252157 C111.389377,50.6513972 110.884092,54.5088688 110.630596,57.6203834 C110.630596,57.6203834 104.688378,55.3808321 103.297991,58.8644852 C101.90675,62.3481383 105.551288,64.3398772 110.809835,63.8417325 C110.809835,63.8417325 107.343684,71.059371 112.653442,71.9304943 C117.964054,72.8007775 118.320826,65.2110005 118.320826,65.2110005 C118.320826,65.2110005 126.181761,67.0767332 126.940542,62.0994859 C127.699323,57.1222386 120.998324,57.2465648 118.090376,58.8644852" id="Fill-169" fill="#FE5C4F"/><path d="M91.2165628,11.3921206 C91.2165628,11.3921206 96.5163647,1.79478188 89.5757625,0.174189707 C82.6351603,-1.44640247 82.8873289,8.7744351 82.8873289,8.7744351 C82.8873289,8.7744351 71.6564514,4.7852204 71.0251778,11.1422162 C70.3939042,17.499212 81.8428735,16.6274916 81.8428735,16.6274916 C81.8428735,16.6274916 74.8111157,25.1023641 81.1212962,27.5955181 C87.4306248,30.0886721 89.0714251,20.241429 89.0714251,20.241429 C89.0714251,20.241429 95.6329224,26.2239889 99.292776,20.6150234 C102.95263,15.0068994 91.2165628,11.3921206 91.2165628,11.3921206" id="Fill-171" fill="#FE5C4F"/><path d="M41.4686835,256.67971 C41.4686835,256.67971 3.28101875,259.925291 2.02922743,304.731502 C0.877173713,345.964373 -11.9940472,431.787756 45.2249027,438.027833 C45.2249027,438.027833 35.7405338,438.403619 35.5528919,443.738775 C35.36525,449.074774 47.1030123,448.980406 47.1030123,448.980406 L119.596183,448.980406 C119.596183,448.980406 128.704423,449.635926 128.799089,443.363832 C128.89291,437.09258 118.938591,437.466681 118.938591,437.466681 C118.938591,437.466681 154.152723,438.403619 156.030833,385.983099 C157.908942,333.562578 167.29949,266.539469 118.84477,255.307162 C118.84477,255.307162 128.110223,254.807518 127.734094,247.319594 C127.35881,239.830828 109.955446,241.077833 109.955446,241.077833 L42.0950018,242.826166 C42.0950018,242.826166 30.7012497,243.324968 30.3251206,249.690588 C29.9498368,256.056207 41.4686835,256.67971 41.4686835,256.67971" id="Fill-173" fill="#8C72CB"/></g></g></svg>