<svg viewBox="162.15517241379314 114.45000000000005 245.68965517241364 425.1" xmlns="http://www.w3.org/2000/svg" xmlns:xlink="http://www.w3.org/1999/xlink" overflow="visible" width="245.68965517241364px" height="425.1px"><defs><polygon id="masterstickerstree-3-path-1" points="0.447607543 0.464353576 32.6902316 0.464353576 32.6902316 139 0.447607543 139"/><polygon id="masterstickerstree-3-path-3" points="1.61916857e-05 0.0210135135 241.560468 0.0210135135 241.560468 310.861368 1.61916857e-05 310.861368"/></defs><g id="Master/Stickers/Tree 3" stroke="none" stroke-width="1" fill="none" fill-rule="evenodd"><g id="Group-17-Copy" transform="translate(164.000000, 118.000000)"><g id="Group-3" transform="translate(107.000000, 280.000000)"><mask id="masterstickerstree-3-mask-2" fill="#fff"><use xlink:href="#masterstickerstree-3-path-1"/></mask><g id="Clip-2"/><path d="M7.21505493,3.40278552 L8.86366056,116.289038 C8.86366056,116.289038 9.27592817,126.457099 4.12374507,128.947398 C-1.02797324,131.43723 -1.22643803,138.700331 6.49788592,138.907661 C14.2217451,139.115459 24.3197451,138.907661 25.9683507,138.907661 C27.6174211,138.907661 35.0359141,139.115459 31.945069,128.947398 C28.8537592,118.77887 27.6174211,122.099425 27.8233225,106.743435 C28.0292239,91.3879135 27.8233225,5.06282929 27.8233225,5.06282929 C27.8233225,5.06282929 21.847069,-4.06764545 7.21505493,3.40278552" id="Fill-1" fill="#FD2118" mask="url(#masterstickerstree-3-mask-2)"/></g><path d="M173.825381,45.0345858 C173.553781,45.0041896 173.282887,44.9723905 173.014109,44.9363826 C173.009171,44.935915 173.004938,44.9354474 173,44.9354474 C174.131548,45.0916371 174.133664,45.0804139 173.825381,45.0345858" id="Fill-4" fill="#67AD15"/><path d="M184.952625,57.9141343 C184.987732,57.6169096 185.02471,57.3211823 185.06637,57.0269524 C185.066838,57.0172196 185.066838,57.0097328 185.067774,57 C184.917519,58.0009808 184.91471,58.1222665 184.952625,57.9141343" id="Fill-6" fill="#67AD15"/><path d="M203.879468,180.808504 C203.878064,180.806633 203.876191,180.804295 203.874787,180.801957 C204.002106,181.006781 204.081681,181.132107 204.125213,181.198043 C204.04283,181.068508 203.960915,180.938974 203.879468,180.808504" id="Fill-8" fill="#67AD15"/><path d="M188.194889,174.020641 C187.854591,173.981827 187.521783,173.951431 188.194889,174.020641" id="Fill-10" fill="#67AD15"/><path d="M207.021991,187.935388 C207.009821,187.677855 206.999991,187.418599 206.988289,187.161066 C206.984544,187.105942 206.981267,187.05254 206.977523,187 C207.012161,187.960367 207.025267,188.113681 207.021991,187.935388" id="Fill-12" fill="#67AD15"/><g id="Group-16" transform="translate(0.000000, 1.000000)"><mask id="masterstickerstree-3-mask-4" fill="#fff"><use xlink:href="#masterstickerstree-3-path-3"/></mask><g id="Clip-15"/><path d="M240.330013,250.838171 C237.192438,242.725087 229.887034,238.710105 222.264736,235.532394 C213.820481,232.01193 205.082268,229.41933 196.226098,227.251202 C207.135289,220.979369 216.382311,212.568827 220.165374,199.660459 C223.079672,189.717331 221.796651,178.829997 215.255162,170.613713 C208.817587,162.526779 198.714906,159.381289 188.832226,158.117677 C188.589289,158.086857 188.345417,158.065376 188.102481,158.037358 C194.604183,154.375403 200.359289,149.538093 204.748991,142.897822 C210.244311,134.584876 212.337587,123.476666 206.786098,114.649123 C202.187162,107.335953 194.192736,102.907705 186.107502,100.444455 C181.686906,99.0972548 177.103417,98.3524425 172.623843,97.2340566 C171.191034,96.8758929 169.766651,96.479438 168.360055,96.0297488 C168.360055,96.0297488 192.258609,85.4982428 198.335289,64.3390356 C200.0218,59.200998 200.582566,53.6842503 199.270991,48.5247323 C190.054864,-11.2059464 126.005843,1.06080886 126.005843,1.06080886 C126.005843,1.06080886 64.8832894,3.23500706 47.138183,60.6906227 C29.3935447,118.146238 81.0855872,106.074675 81.0855872,106.074675 C68.0966936,111.511105 55.3732043,117.534512 43.2886511,124.768297 C33.0357149,130.905644 18.1655872,139.822845 19.3821404,153.800567 C20.7386511,169.392594 37.5976723,171.622361 49.9527787,173.266552 C50.3895021,173.324923 50.8266936,173.378157 51.263417,173.434193 C42.8098,176.760399 34.5560553,180.592797 26.5677149,184.909906 C21.5311191,187.631857 16.5300979,190.725513 13.3195021,195.602516 C9.45826809,201.467621 9.69465106,208.81021 12.834566,214.912534 C18.5395872,226.001132 31.6693745,228.955165 43.1884809,230.310303 C29.7291617,233.478207 7.72073617,241.495563 1.37490638,260.698645 C-7.24394468,286.780618 24.3536723,306.912031 104.8058,310.288669 C111.821928,310.830351 118.868481,310.97371 125.912694,310.778051 C125.944055,310.778518 125.974481,310.778985 126.005843,310.778985 L126.003034,310.776183 C138.191034,310.432962 150.373417,309.07222 162.38214,306.966666 C175.919162,304.59354 189.56946,301.542378 202.350991,296.407609 C215.124098,291.276109 228.274013,284.18148 236.393417,272.721177 C240.787332,266.519388 243.165204,258.169552 240.330013,250.838171" id="Fill-14" fill="#67AD15" mask="url(#masterstickerstree-3-mask-4)"/></g></g></g></svg>