<svg viewBox="118.60465116279073 150.8 156.97674418604657 156.60000000000002" fill="none" xmlns="http://www.w3.org/2000/svg" xmlns:xlink="http://www.w3.org/1999/xlink" overflow="visible" width="156.97674418604657px" height="156.60000000000002px"><g id="Master/Character/Avatar"><g id="Avatar"><path id="Mask" fill-rule="evenodd" clip-rule="evenodd" d="M274.682 231.62C274.682 273.075 241.076 306.682 199.62 306.682C158.164 306.682 124.558 273.075 124.558 231.62C124.558 190.164 158.164 156.558 199.62 156.558C241.076 156.558 274.682 190.164 274.682 231.62" fill="#EEF2F8"/><mask id="mask031628f0f-13c4-4dc6-a9ac-bb23639aef35" mask-type="alpha" maskUnits="userSpaceOnUse" x="124" y="156" width="151" height="151" fill="#ffffff"><path id="Mask_2" fill-rule="evenodd" clip-rule="evenodd" d="M274.682 231.62C274.682 273.075 241.076 306.682 199.62 306.682C158.164 306.682 124.558 273.075 124.558 231.62C124.558 190.164 158.164 156.558 199.62 156.558C241.076 156.558 274.682 190.164 274.682 231.62" fill="#ffffff"/></mask><g mask="url(#mask031628f0f-13c4-4dc6-a9ac-bb23639aef35)"><g id="Master/Character/Torso" transform="translate(-19 56) scale(1 1)"><g id="Master/Character/Torso"><g id="Head 2" transform="translate(189.79 120) scale(1 1)"><g id="Head 2/Laughing"><path id="Path 2" fill-rule="evenodd" clip-rule="evenodd" d="M16 65.8323C16 65.8323 21.5224 62.2244 20.5403 47.3243C20.5403 47.3243 29.274 51.4116 38.8022 44.5006L41 65.6603C41 65.6603 34.3939 73.164 27.4671 72.4363C20.5403 71.7086 16 65.8323 16 65.8323Z" fill="#fbefe3"/><path id="Path 2 Copy" fill-rule="evenodd" clip-rule="evenodd" d="M20.7523 46.8715C26.3989 49.514 32.2957 48.6022 38.5087 44.0959C38.8203 43.8698 39.2598 44.066 39.2996 44.449L41.4974 65.6086C41.5118 65.7474 41.4675 65.8859 41.3753 65.9907C36.8731 71.1047 32.2136 73.4377 27.4149 72.9335C22.6587 72.4339 18.7133 70.1617 15.6044 66.1381C15.426 65.9072 15.4824 65.5733 15.7266 65.4138C19.2108 63.1374 20.6854 57.1264 20.0414 47.3572C20.0164 46.9776 20.4077 46.7102 20.7523 46.8715ZM40.479 65.492L38.392 45.4L37.9797 45.6795C32.2505 49.4704 26.6918 50.3258 21.3497 48.2176L21.088 48.111L21.1011 48.3404C21.5662 57.3108 20.1823 63.143 16.8667 65.8193L16.719 65.934L16.9567 66.2216C19.711 69.4853 23.0863 71.3695 27.1017 71.89L27.5194 71.939C31.9564 72.4051 36.3189 70.2208 40.6248 65.3299L40.479 65.492Z" fill="black"/><g id="Head"><path id="Combined Shape" fill-rule="evenodd" clip-rule="evenodd" d="M27.485 48.7008C17.392 48.7008 9.20996 40.0248 9.20996 29.3208C9.20996 18.6168 17.392 9.93982 27.485 9.93982C37.578 9.93982 45.76 18.6168 45.76 29.3208C45.76 40.0248 37.578 48.7008 27.485 48.7008Z" fill="#fbefe3"/><path id="Fill 18" fill-rule="evenodd" clip-rule="evenodd" d="M27.485 10.4399C17.684 10.4399 9.70996 18.9099 9.70996 29.3209C9.70996 39.7319 17.684 48.2009 27.485 48.2009C37.286 48.2009 45.26 39.7319 45.26 29.3209C45.26 18.9099 37.286 10.4399 27.485 10.4399M27.485 49.2009C17.132 49.2009 8.70996 40.2829 8.70996 29.3209C8.70996 18.3579 17.132 9.43994 27.485 9.43994C37.838 9.43994 46.26 18.3579 46.26 29.3209C46.26 40.2829 37.838 49.2009 27.485 49.2009" fill="black"/><g id="Group 3"><path id="Fill 1" fill-rule="evenodd" clip-rule="evenodd" d="M17.6809 27.9607C17.5944 27.9392 15.5057 27.4391 13.2801 28.6121C13.0228 28.7471 12.925 29.0632 13.0619 29.3189C13.1556 29.4958 13.3388 29.5981 13.5282 29.5981C13.6106 29.5981 13.695 29.5776 13.7743 29.5357C15.6282 28.56 17.4071 28.9721 17.4256 28.9762C17.7107 29.0489 17.9938 28.876 18.0628 28.5937C18.1328 28.3145 17.9619 28.0302 17.6809 27.9607M28.7481 28.5181C26.4751 27.4391 24.4122 28.0241 24.3247 28.0496C24.0468 28.1304 23.8882 28.4199 23.9696 28.6981C24.0498 28.9742 24.3381 29.1307 24.6222 29.054C24.6387 29.0489 26.4 28.5631 28.2941 29.4631C28.3672 29.4968 28.4444 29.5142 28.5206 29.5142C28.7172 29.5142 28.9056 29.4037 28.9962 29.2166C29.1218 28.9558 29.0106 28.6418 28.7481 28.5181M25.8863 37.5866C25.734 37.559 25.5806 37.604 25.4632 37.7001C22.8763 39.8519 19.5091 38.9049 19.4762 38.8967C19.2909 38.8425 19.0901 38.8926 18.9543 39.0307C18.8173 39.1677 18.7669 39.3661 18.8235 39.5512C19.3681 41.342 21.1747 44.3877 24.3422 44.3877C24.7056 44.3877 25.0854 44.3468 25.4838 44.2609C26.6326 44.0124 27.1309 43.3609 27.345 42.8587C28.1479 40.981 26.4473 38.146 26.2497 37.8279C26.1704 37.6981 26.0366 37.6101 25.8863 37.5866M13.6435 24.5192C13.765 24.5192 13.8875 24.4773 13.9873 24.3934C15.585 23.0311 17.4143 23.0403 17.4256 23.0485C17.7272 23.0577 17.9568 22.8235 17.9619 22.5351C17.9681 22.2477 17.7385 22.0094 17.4482 22.0023C17.3566 21.9941 15.2134 21.9675 13.3007 23.5977C13.0794 23.7869 13.0547 24.1173 13.2431 24.3361C13.3481 24.4568 13.4953 24.5192 13.6435 24.5192M29.9371 23.5977C28.0234 21.9675 25.876 21.992 25.7885 22.0023C25.4993 22.0094 25.2697 22.2477 25.2748 22.5351C25.281 22.8235 25.5332 23.0557 25.8122 23.0485C25.8287 23.0424 27.6528 23.0321 29.2504 24.3934C29.3493 24.4773 29.4718 24.5192 29.5932 24.5192C29.7415 24.5192 29.8897 24.4568 29.9937 24.3361C30.1831 24.1173 30.1573 23.7869 29.9371 23.5977M19.2641 34.9244L22.4954 35.312C22.5171 35.3151 22.5376 35.3161 22.5582 35.3161C22.8218 35.3161 23.0493 35.1208 23.0822 34.8559C23.1162 34.5685 22.9113 34.3087 22.6221 34.274L19.9909 33.9559L20.8165 30.8407C20.8906 30.5615 20.7228 30.2761 20.4418 30.2015C20.1618 30.1268 19.8715 30.2945 19.7973 30.5758L18.8173 34.2719C18.7793 34.4171 18.806 34.5736 18.8915 34.6984C18.9769 34.8242 19.1128 34.906 19.2641 34.9244" fill="black"/></g></g></g></g><g id="Hair 2" transform="translate(107.79 57) scale(1 1)"><g id="Hair 2/Short Peaks"><g id="Group 6"><path id="Hair" fill-rule="evenodd" clip-rule="evenodd" d="M134.575 90.7824C133.662 99.1624 128.935 107.236 121.202 107.236L120.806 98.4344C120.922 98.4464 121.034 98.4694 121.154 98.4694C123.127 98.4694 124.728 96.8774 124.743 94.9074C124.748 94.1514 124.4 93.4224 123.91 92.8454C122.586 91.2924 121.481 91.1714 120.487 91.3584L119.52 82.8934C119.31 81.0504 117.75 79.6584 115.894 79.6584H94.2918C94.2918 79.6584 89.8958 55.3774 94.9278 56.2354C99.9588 57.0944 99.5328 60.4684 103.583 56.0724C107.633 51.6774 111.071 54.0944 113.402 57.1634C115.734 60.2304 120.884 50.8504 124.547 54.2794C129.081 58.5234 126.886 61.8394 134.739 60.5304C139.368 59.7604 134.678 90.2664 134.575 90.7824" fill="#fecb51"/><path id="Fill 3" fill-rule="evenodd" clip-rule="evenodd" d="M121.342 98.9778L121.691 106.714C129.029 106.369 133.244 98.2668 134.066 90.7268C134.069 90.7138 134.071 90.6978 134.073 90.6838C134.453 88.6918 137.974 63.9918 135.236 61.1888C135.071 61.0208 134.941 61.0158 134.823 61.0358C129.436 61.9358 128.423 60.7048 126.973 58.2628C126.338 57.1958 125.619 55.9858 124.196 54.6538C122.684 53.2388 120.842 54.4348 118.404 56.2808C116.435 57.7738 114.4 59.3208 112.993 57.4738C111.395 55.3688 109.784 54.2628 108.206 54.1888C106.814 54.1238 105.383 54.8738 103.959 56.4178C101.182 59.4328 100.193 59.0818 98.3913 58.0738C97.5593 57.6078 96.5233 57.0278 94.8413 56.7408C94.5453 56.6928 94.3243 56.7628 94.1133 56.9768C91.8093 59.3038 93.7053 73.3738 94.7203 79.1458H115.895C118.011 79.1458 119.788 80.7318 120.029 82.8348L120.937 90.7848C121.851 90.7408 123.007 90.9988 124.299 92.5138C124.921 93.2448 125.26 94.0958 125.254 94.9128C125.238 97.0928 123.501 98.8788 121.342 98.9778M121.201 107.749C120.927 107.749 120.702 107.534 120.691 107.26L120.294 98.4568C120.287 98.3088 120.346 98.1648 120.454 98.0628C120.562 97.9598 120.703 97.9098 120.859 97.9248L120.991 97.9428C121.044 97.9498 121.099 97.9578 121.154 97.9578C122.838 97.9578 124.218 96.5888 124.23 94.9038C124.235 94.3338 123.982 93.7208 123.519 93.1778C122.316 91.7638 121.395 91.7058 120.581 91.8618C120.44 91.8868 120.297 91.8548 120.183 91.7708C120.069 91.6868 119.993 91.5578 119.978 91.4158L119.011 82.9518C118.83 81.3658 117.49 80.1688 115.895 80.1688H94.2913C94.0433 80.1688 93.8313 79.9928 93.7873 79.7488C93.4133 77.6808 90.2223 59.4528 93.3853 56.2558C93.8303 55.8068 94.3883 55.6248 95.0133 55.7308C96.8683 56.0478 98.0373 56.7028 98.8913 57.1808C100.358 58.0008 100.854 58.2788 103.205 55.7248C104.845 53.9458 106.563 53.0568 108.254 53.1658C110.15 53.2558 112.018 54.4978 113.81 56.8538C114.518 57.7858 115.617 57.1098 117.787 55.4648C119.947 53.8278 122.637 51.7898 124.897 53.9068C126.425 55.3378 127.217 56.6688 127.853 57.7408C129.123 59.8758 129.703 60.8518 134.655 60.0258C135.151 59.9448 135.607 60.1008 135.973 60.4778C139.318 63.9248 135.255 89.8208 135.082 90.8518C134.19 98.9938 129.468 107.749 121.201 107.749" fill="black"/></g></g></g><g id="Torso Upper Body" transform="translate(1 41.7684) scale(1 1)"><g id="Torso Upper Body/Phone"><path id="Tshirt" fill-rule="evenodd" clip-rule="evenodd" d="M272.672 195.475L280.789 215.453L326.931 202.159L312.224 180.708C295.402 156.175 267.568 141.511 237.821 141.511H230.602C228.669 145.582 223.884 148.471 218.268 148.49C212.652 148.471 207.867 145.582 205.935 141.511H198.716C168.969 141.511 137.997 155.727 121.175 180.26L107.583 201.503L155.829 217.141L163.864 195.475L160.946 217.287L154.654 254.139H281.882L275.59 217.286L272.672 195.475Z" fill="#EFF2F7"/><path id="Fill 3" fill-rule="evenodd" clip-rule="evenodd" d="M155.262 253.627H281.276L275.086 217.372L272.165 195.543C272.132 195.287 272.292 195.047 272.541 194.981C272.793 194.912 273.05 195.044 273.147 195.282L281.091 214.834L326.109 201.863L311.802 180.999C295.069 156.594 267.413 142.023 237.822 142.023H230.921C228.752 146.255 223.828 148.983 218.27 149.003C212.709 148.983 207.784 146.255 205.617 142.023H198.716C167.916 142.023 137.645 157.147 121.598 180.551L108.371 201.221L155.52 216.504L163.385 195.298C163.475 195.053 163.737 194.918 163.988 194.979C164.242 195.041 164.407 195.284 164.372 195.543L161.454 217.356L155.262 253.627ZM281.883 254.651H154.655C154.504 254.651 154.361 254.584 154.263 254.469C154.166 254.355 154.125 254.202 154.151 254.053L160.442 217.202L162.749 199.957L156.309 217.319C156.214 217.577 155.932 217.711 155.672 217.629L107.425 201.99C107.274 201.941 107.155 201.825 107.101 201.677C107.048 201.526 107.066 201.361 107.152 201.228L120.745 179.985C136.987 156.297 167.588 141 198.716 141H205.935C206.133 141 206.313 141.114 206.398 141.292C208.317 145.336 212.977 147.961 218.27 147.979C223.559 147.961 228.22 145.336 230.14 141.292C230.225 141.114 230.405 141 230.603 141H237.822C267.751 141 295.722 155.736 312.647 180.419L327.354 201.869C327.447 202.005 327.469 202.178 327.414 202.332C327.358 202.487 327.232 202.606 327.074 202.651L280.932 215.946C280.679 216.021 280.414 215.889 280.316 215.647L273.714 199.398L276.098 217.218L282.387 254.053C282.412 254.202 282.371 254.355 282.274 254.469C282.177 254.584 282.033 254.651 281.883 254.651V254.651Z" fill="black"/><path id="Phone" fill-rule="evenodd" clip-rule="evenodd" d="M197.604 217.258L171.064 210.583C168.928 210.045 167.631 207.877 168.168 205.74L182.593 148.394C183.13 146.257 185.298 144.961 187.435 145.498L213.975 152.174C216.111 152.711 217.408 154.879 216.87 157.016L202.446 214.362C201.909 216.499 199.741 217.796 197.604 217.258" fill="#FF5613"/><path id="Fill 8" fill-rule="evenodd" clip-rule="evenodd" d="M186.454 145.888C185.833 145.888 185.222 146.055 184.676 146.382C183.878 146.86 183.314 147.618 183.088 148.519L168.664 205.866C168.197 207.726 169.329 209.618 171.188 210.086L197.728 216.761C198.628 216.988 199.564 216.851 200.361 216.374C201.159 215.897 201.722 215.138 201.949 214.238L216.373 156.891C216.84 155.031 215.708 153.138 213.848 152.67L187.309 145.995C187.026 145.923 186.739 145.888 186.454 145.888M198.584 217.893C198.216 217.893 197.845 217.847 197.478 217.755L170.939 211.08C168.532 210.474 167.066 208.023 167.671 205.616L182.095 148.269C182.389 147.103 183.119 146.121 184.15 145.503C185.182 144.887 186.392 144.709 187.559 145.001L214.098 151.676C216.505 152.283 217.971 154.734 217.366 157.14L202.942 214.488C202.648 215.654 201.918 216.635 200.887 217.253C200.179 217.676 199.388 217.892 198.584 217.893" fill="black"/><path id="Fill 10" fill-rule="evenodd" clip-rule="evenodd" d="M185.806 152.273C185.498 153.499 186.242 154.742 187.467 155.05C188.693 155.359 189.936 154.615 190.244 153.389C190.553 152.164 189.809 150.92 188.583 150.612C187.358 150.303 186.114 151.047 185.806 152.273" fill="#EEF2F8"/><path id="Fill 12" fill-rule="evenodd" clip-rule="evenodd" d="M186.303 152.397C186.187 152.857 186.258 153.335 186.501 153.743C186.745 154.15 187.132 154.438 187.592 154.553C188.053 154.67 188.53 154.599 188.937 154.356C189.345 154.112 189.633 153.725 189.748 153.264C189.864 152.804 189.794 152.327 189.55 151.919C189.306 151.511 188.919 151.224 188.459 151.109C187.508 150.862 186.541 151.449 186.303 152.397M188.032 155.633C187.802 155.633 187.571 155.604 187.343 155.545C186.617 155.364 186.007 154.91 185.622 154.268C185.239 153.626 185.128 152.874 185.31 152.148C185.687 150.65 187.211 149.744 188.709 150.115C189.434 150.297 190.045 150.751 190.428 151.394C190.813 152.036 190.924 152.789 190.741 153.514C190.559 154.239 190.105 154.851 189.463 155.235C189.023 155.498 188.531 155.633 188.032 155.633" fill="black"/><path id="Fill 14" fill-rule="evenodd" clip-rule="evenodd" d="M129.097 194.617C126.621 204.765 126.415 207.607 126.415 207.607L110.808 202.549C110.808 202.549 74.1457 253.775 104.592 272.835C135.037 291.894 158.552 215.656 158.552 215.656C158.552 215.656 163.208 211.648 167.606 206.069C167.628 205.918 167.634 205.767 167.672 205.616L174.35 179.065C173.743 177.821 173.156 177.29 173.156 177.29C173.156 177.29 173.73 177.652 174.594 178.098L177.827 165.244C174.748 163.287 170.197 161.507 163.503 160.211C140.483 155.756 131.572 184.469 129.097 194.617M323.508 203.145L282.426 214.982L285.037 221.102C285.037 221.102 257.562 202.538 249.146 195.359C240.73 188.181 234.79 169.122 230.829 163.181C226.869 157.241 218.453 157.736 216.226 160.273C213.998 162.811 215.73 164.667 215.73 164.667C215.73 164.667 202.117 156.498 197.166 162.438C192.216 168.379 200.879 174.32 200.879 174.32C200.879 174.32 186.77 168.132 184.523 174.815C182.277 181.498 190.731 185.211 190.731 185.211C189.369 184.871 187.99 185.485 186.895 186.251C185.216 187.426 184.058 189.292 183.965 191.34C183.686 197.522 191.935 199.295 194.608 199.706C189.12 199.182 187.76 205.135 187.76 205.135C186.894 213.677 196.671 213.181 196.671 213.181C217.34 211.325 230.087 221.845 230.087 221.845C230.087 221.845 261.523 275.062 300.879 270.112C340.236 265.162 323.508 203.145 323.508 203.145" fill="#fbefe3"/><path id="Fill 16" fill-rule="evenodd" clip-rule="evenodd" d="M192.52 199.286C192.52 199.286 203.62 200.94 209.438 202.88Z" fill="#E5AB78"/><path id="Fill 18" fill-rule="evenodd" clip-rule="evenodd" d="M200.879 174.32C200.879 174.32 211.483 177.265 218.269 182.515Z" fill="#E5AB78"/><path id="Fill 20" fill-rule="evenodd" clip-rule="evenodd" d="M215.73 164.667C215.73 164.667 221.074 167.162 226.084 171.85Z" fill="#E5AB78"/><path id="Fill 22" fill-rule="evenodd" clip-rule="evenodd" d="M319.899 258.359C315.597 264.769 309.175 268.552 300.814 269.604C262.265 274.464 230.839 222.114 230.527 221.585C230.497 221.533 230.458 221.488 230.412 221.45C230.293 221.351 219.286 212.451 201.494 212.451C199.93 212.451 198.311 212.52 196.645 212.671C196.6 212.671 192.116 212.861 189.724 210.34C188.538 209.091 188.048 207.358 188.258 205.25C188.312 205.016 189.545 199.918 194.31 200.181C194.908 200.277 195.302 200.316 195.385 200.324C195.45 200.327 195.512 200.317 195.571 200.3C199.288 200.935 205.462 202.094 209.275 203.366C209.329 203.383 209.384 203.391 209.437 203.391C209.651 203.391 209.851 203.255 209.922 203.042C210.012 202.774 209.867 202.484 209.599 202.394C204.07 200.551 193.716 198.95 192.684 198.793C189.356 197.978 184.267 195.978 184.476 191.363C184.558 189.555 185.572 187.8 187.189 186.67C188.458 185.783 189.607 185.457 190.606 185.708C190.624 185.712 190.641 185.708 190.659 185.711C190.674 185.713 190.688 185.721 190.703 185.721C190.805 185.728 201.037 186.329 213.401 192.828C213.477 192.868 213.558 192.886 213.638 192.886C213.822 192.886 214.001 192.788 214.092 192.613C214.224 192.363 214.128 192.052 213.877 191.921C201.962 185.658 191.948 184.785 190.86 184.707C190.069 184.335 183.041 180.831 185.008 174.977C185.356 173.944 186.024 173.22 187.05 172.766C191.48 170.805 200.581 174.748 200.672 174.789C200.685 174.794 200.698 174.793 200.711 174.797C200.722 174.801 200.73 174.809 200.741 174.813C200.846 174.842 211.329 177.795 217.955 182.921C218.048 182.992 218.158 183.027 218.268 183.027C218.42 183.027 218.572 182.96 218.673 182.829C218.846 182.605 218.805 182.284 218.582 182.11C211.987 177.008 202.066 174.124 201.104 173.852C200.562 173.462 196.682 170.553 196.199 167.044C195.991 165.538 196.449 164.098 197.559 162.767C202.172 157.232 215.335 165.025 215.466 165.105C215.475 165.11 215.484 165.111 215.492 165.115C215.5 165.119 215.505 165.127 215.513 165.13C215.566 165.155 220.846 167.65 225.733 172.223C225.832 172.315 225.958 172.361 226.083 172.361C226.22 172.361 226.356 172.307 226.457 172.199C226.65 171.992 226.64 171.669 226.433 171.475C221.74 167.085 216.837 164.63 216.05 164.252C215.807 163.946 214.901 162.557 216.61 160.611C217.589 159.496 219.908 158.852 222.38 159.019C225.744 159.243 228.668 160.862 230.403 163.464C231.699 165.408 233.228 168.822 234.999 172.774C238.614 180.843 243.114 190.888 248.813 195.749C255.884 201.781 276.59 215.972 282.9 220.269C283.019 220.352 283.164 220.452 283.348 220.574C284.206 221.158 284.714 221.502 284.751 221.526C284.843 221.589 284.95 221.617 285.056 221.613C287.465 222.961 291.368 224.689 295.555 224.689C295.938 224.689 296.324 224.675 296.711 224.644C296.992 224.622 297.203 224.376 297.181 224.094C297.158 223.813 296.919 223.612 296.63 223.625C292.207 223.963 287.877 222.01 285.379 220.598L283.123 215.313L323.141 203.784C324.245 208.223 331.745 240.711 319.899 258.359M323.758 202.7C323.639 202.632 323.498 202.619 323.365 202.654L282.284 214.49C282.143 214.531 282.026 214.63 281.963 214.761C281.9 214.895 281.897 215.047 281.955 215.182L283.878 219.69C283.46 219.417 283.223 219.241 283.211 219.232C283.195 219.22 283.177 219.217 283.161 219.208C276.515 214.68 256.399 200.874 249.478 194.969C243.954 190.258 239.506 180.332 235.933 172.355C234.143 168.361 232.598 164.913 231.255 162.897C229.342 160.027 226.132 158.242 222.448 157.998C219.632 157.806 217.037 158.571 215.84 159.935C214.618 161.328 214.468 162.567 214.638 163.471C210.99 161.541 201.047 156.985 196.772 162.111C195.469 163.674 194.935 165.382 195.185 167.188C195.499 169.459 196.994 171.441 198.332 172.806C195.136 171.726 189.897 170.388 186.637 171.829C185.35 172.398 184.476 173.348 184.038 174.652C182.334 179.721 186.396 183.186 188.84 184.744C188.121 184.928 187.374 185.291 186.602 185.831C184.726 187.142 183.549 189.193 183.453 191.317C183.228 196.304 188 198.581 191.58 199.584C188.23 200.942 187.27 204.983 187.25 205.084C186.998 207.567 187.582 209.574 188.984 211.049C191.704 213.91 196.492 213.703 196.716 213.691C216.167 211.935 228.68 221.39 229.694 222.187C231.069 224.463 259.648 270.945 295.746 270.945C297.46 270.945 299.196 270.839 300.942 270.62C309.611 269.529 316.275 265.596 320.75 258.928C333.678 239.666 324.099 203.377 324.001 203.012C323.965 202.88 323.878 202.767 323.758 202.7Z" fill="black"/><path id="Fill 25" fill-rule="evenodd" clip-rule="evenodd" d="M174.792 178.776C174.837 178.797 174.888 178.821 174.934 178.842L175.189 177.828C174.175 177.325 173.461 176.879 173.433 176.86C173.432 176.86 173.432 176.859 173.431 176.858L167.542 173.098C167.435 173.031 167.313 173.013 167.197 173.03C161.457 168.434 152.526 167.755 152.398 167.747C152.108 167.722 151.873 167.941 151.853 168.223C151.834 168.505 152.047 168.75 152.33 168.769C152.503 168.781 169.747 170.085 170.852 181.393C171.625 189.303 170.86 194.408 168.697 195.767C167.602 196.458 166.063 196.212 164.13 195.037C164.1 195.018 164.065 195.013 164.033 195.003C164.413 191.55 163.448 187.032 161.133 181.466C157.789 173.427 146.041 175.62 145.923 175.642C145.646 175.698 145.465 175.965 145.519 176.244C145.573 176.52 145.841 176.697 146.119 176.648C146.229 176.627 157.165 174.594 160.198 181.883C164.562 192.374 163.973 198.873 158.49 201.183C157.494 201.498 154.666 202.032 153.556 200.748C153.524 200.712 153.484 200.688 153.445 200.663C154.732 196.991 154.899 192.08 154.417 188.719C153.341 181.211 141.745 181.97 141.25 182.005C140.968 182.025 140.756 182.27 140.776 182.552C140.797 182.834 141.05 183.049 141.324 183.026C141.437 183.016 152.463 182.297 153.404 188.865C154.107 193.771 153.272 202.028 149.923 204.124C148.575 204.967 146.89 204.717 144.916 203.381C139.344 199.61 144.558 190.136 144.611 190.04C144.749 189.794 144.661 189.482 144.415 189.343C144.167 189.205 143.856 189.293 143.718 189.54C143.632 189.693 142.858 191.101 142.206 193.036C142.153 192.968 142.089 192.909 142.003 192.875C141.046 192.485 140.966 190.284 141.014 189.545C141.032 189.262 140.818 189.019 140.536 189.001C140.254 189.001 140.011 189.196 139.992 189.477C139.968 189.845 139.809 193.087 141.617 193.822C141.68 193.848 141.746 193.86 141.811 193.86C141.864 193.86 141.909 193.832 141.959 193.816C140.971 197.175 140.591 201.691 144.342 204.229C145.736 205.173 147.03 205.645 148.214 205.645C149.017 205.645 149.769 205.427 150.466 204.992C151.563 204.305 152.405 203.123 153.044 201.678C153.83 202.378 154.93 202.589 155.964 202.589C157.411 202.589 158.723 202.182 158.843 202.143C161.596 200.984 163.263 198.945 163.859 196.055C165.138 196.792 166.296 197.175 167.313 197.175C168.023 197.175 168.667 196.996 169.242 196.633C169.974 196.174 170.564 195.421 171.022 194.395L171.978 190.596C172.273 188.159 172.238 185.055 171.871 181.294C171.658 179.122 170.901 177.299 169.81 175.761L172.837 177.695C172.951 177.806 173.814 178.719 174.454 180.752L174.895 178.997C174.861 178.922 174.827 178.845 174.792 178.776" fill="black"/><path id="Fill 27" fill-rule="evenodd" clip-rule="evenodd" d="M168.168 205.741L168.649 203.828C163.974 210.273 158.306 215.193 158.218 215.268C158.145 215.332 158.09 215.414 158.063 215.506C157.907 216.012 142.213 266.156 120.39 274.273C115.172 276.214 109.947 275.583 104.862 272.401C98.7622 268.582 94.9752 263.136 93.6062 256.213C89.4402 235.141 108.745 206.428 111.01 203.153L125.652 207.898C120.997 228.466 114.961 234.026 114.897 234.085C114.685 234.271 114.665 234.595 114.851 234.806C114.952 234.922 115.093 234.98 115.235 234.98C115.355 234.98 115.475 234.938 115.571 234.853C115.847 234.613 121.941 229.064 126.671 208.044C126.68 208.038 126.691 208.038 126.701 208.032C126.831 207.944 126.914 207.802 126.925 207.645C126.927 207.628 127.016 206.576 127.589 203.663C127.626 203.48 127.662 203.304 127.697 203.119C128.095 201.15 128.693 198.429 129.593 194.738C132.434 183.091 141.421 156.464 163.405 160.715C169.827 161.957 174.799 163.77 178.148 166.063L178.417 164.995C174.975 162.725 170.031 160.954 163.6 159.709C153.505 157.756 144.95 161.772 138.172 171.647C132.772 179.518 129.856 189.342 128.599 194.497C127.494 199.026 126.842 202.094 126.455 204.118C126.265 205.069 126.073 205.999 125.877 206.894L110.966 202.062C110.754 201.993 110.522 202.07 110.391 202.251C110.168 202.563 88.1152 233.712 92.6022 256.41C94.0272 263.621 97.9692 269.294 104.319 273.268C107.654 275.356 111.049 276.402 114.469 276.402C116.555 276.402 118.651 276.012 120.748 275.232C130.129 271.743 139.429 260.668 148.388 242.316C154.659 229.472 158.544 217.383 158.997 215.949C159.788 215.258 164.051 211.457 168.082 206.324C168.101 206.13 168.119 205.936 168.168 205.741" fill="black"/></g></g></g></g></g></g><path id="Fill 3" fill-rule="evenodd" clip-rule="evenodd" d="M199.62 157.117C158.539 157.117 125.117 190.539 125.117 231.621C125.117 272.702 158.539 306.124 199.62 306.124C240.701 306.124 274.123 272.702 274.123 231.621C274.123 190.539 240.701 157.117 199.62 157.117M199.62 307.241C157.923 307.241 124 273.318 124 231.621C124 189.924 157.923 156.001 199.62 156.001C241.317 156.001 275.24 189.924 275.24 231.621C275.24 273.318 241.317 307.241 199.62 307.241" fill="black"/></g></svg>