<svg viewBox="118.60465116279073 150.8 156.97674418604657 156.60000000000002" fill="none" xmlns="http://www.w3.org/2000/svg" xmlns:xlink="http://www.w3.org/1999/xlink" overflow="visible" width="156.97674418604657px" height="156.60000000000002px"><g id="Master/Character/Avatar"><g id="Avatar"><path id="Mask" fill-rule="evenodd" clip-rule="evenodd" d="M274.682 231.62C274.682 273.075 241.076 306.682 199.62 306.682C158.164 306.682 124.558 273.075 124.558 231.62C124.558 190.164 158.164 156.558 199.62 156.558C241.076 156.558 274.682 190.164 274.682 231.62" fill="#EEF2F8"/><mask id="mask031628f0f-13c4-4dc6-a9ac-bb23639aef35" mask-type="alpha" maskUnits="userSpaceOnUse" x="124" y="156" width="151" height="151" fill="#ffffff"><path id="Mask_2" fill-rule="evenodd" clip-rule="evenodd" d="M274.682 231.62C274.682 273.075 241.076 306.682 199.62 306.682C158.164 306.682 124.558 273.075 124.558 231.62C124.558 190.164 158.164 156.558 199.62 156.558C241.076 156.558 274.682 190.164 274.682 231.62" fill="#ffffff"/></mask><g mask="url(#mask031628f0f-13c4-4dc6-a9ac-bb23639aef35)"><g id="Master/Character/Torso" transform="translate(-19 56) scale(1 1)"><g id="Master/Character/Torso"><g id="Head 2" transform="translate(189.79 120) scale(1 1)"><g id="Head 2/Funny"><path id="Path 2" fill-rule="evenodd" clip-rule="evenodd" d="M16 65.8323C16 65.8323 21.5224 62.2244 20.5403 47.3243C20.5403 47.3243 29.274 51.4116 38.8022 44.5006L41 65.6603C41 65.6603 34.3939 73.164 27.4671 72.4363C20.5403 71.7086 16 65.8323 16 65.8323Z" fill="#d96e05"/><path id="Path 2 Copy" fill-rule="evenodd" clip-rule="evenodd" d="M20.7523 46.8715C26.3989 49.514 32.2957 48.6022 38.5087 44.0959C38.8203 43.8698 39.2598 44.066 39.2996 44.449L41.4974 65.6086C41.5118 65.7474 41.4675 65.8859 41.3753 65.9907C36.8731 71.1047 32.2136 73.4377 27.4149 72.9335C22.6587 72.4339 18.7133 70.1617 15.6044 66.1381C15.426 65.9072 15.4824 65.5733 15.7266 65.4138C19.2108 63.1374 20.6854 57.1264 20.0414 47.3572C20.0164 46.9776 20.4077 46.7102 20.7523 46.8715ZM40.479 65.492L38.392 45.4L37.9797 45.6795C32.2505 49.4704 26.6918 50.3258 21.3497 48.2176L21.088 48.111L21.1011 48.3404C21.5662 57.3108 20.1823 63.143 16.8667 65.8193L16.719 65.934L16.9567 66.2216C19.711 69.4853 23.0863 71.3695 27.1017 71.89L27.5194 71.939C31.9564 72.4051 36.3189 70.2208 40.6248 65.3299L40.479 65.492Z" fill="black"/><g id="Head"><path id="Combined Shape" fill-rule="evenodd" clip-rule="evenodd" d="M27.485 48.7008C17.392 48.7008 9.20996 40.0248 9.20996 29.3208C9.20996 18.6168 17.392 9.93982 27.485 9.93982C37.578 9.93982 45.76 18.6168 45.76 29.3208C45.76 40.0248 37.578 48.7008 27.485 48.7008Z" fill="#d96e05"/><path id="Fill 18" fill-rule="evenodd" clip-rule="evenodd" d="M27.485 10.4399C17.684 10.4399 9.70996 18.9099 9.70996 29.3209C9.70996 39.7319 17.684 48.2009 27.485 48.2009C37.286 48.2009 45.26 39.7319 45.26 29.3209C45.26 18.9099 37.286 10.4399 27.485 10.4399M27.485 49.2009C17.132 49.2009 8.70996 40.2829 8.70996 29.3209C8.70996 18.3579 17.132 9.43994 27.485 9.43994C37.838 9.43994 46.26 18.3579 46.26 29.3209C46.26 40.2829 37.838 49.2009 27.485 49.2009" fill="black"/><path id="Fill 21" fill-rule="evenodd" clip-rule="evenodd" d="M22.3651 35.2921C22.3451 35.2921 22.3251 35.2911 22.3041 35.2891L19.2491 34.9181C19.1061 34.9001 18.9771 34.8221 18.8961 34.7021C18.8151 34.5831 18.7891 34.4341 18.8261 34.2941L19.7521 30.7751C19.8231 30.5091 20.0961 30.3511 20.3631 30.4191C20.6291 30.4901 20.7891 30.7631 20.7191 31.0301L19.9391 33.9941L22.4251 34.2951C22.6991 34.3291 22.8941 34.5781 22.8611 34.8521C22.8301 35.1061 22.6151 35.2921 22.3651 35.2921" fill="black"/><path id="Fill 22" fill-rule="evenodd" clip-rule="evenodd" d="M27.4851 28.8979C27.4851 29.7989 27.0261 30.5299 26.4591 30.5299C25.8911 30.5299 25.4321 29.7989 25.4321 28.8979C25.4321 27.9959 25.8911 27.2649 26.4591 27.2649C27.0261 27.2649 27.4851 27.9959 27.4851 28.8979" fill="black"/><path id="Fill 23" fill-rule="evenodd" clip-rule="evenodd" d="M17.5203 28.8979C17.5203 29.7989 17.0603 30.5299 16.4933 30.5299C15.9263 30.5299 15.4663 29.7989 15.4663 28.8979C15.4663 27.9959 15.9263 27.2649 16.4933 27.2649C17.0603 27.2649 17.5203 27.9959 17.5203 28.8979" fill="black"/><path id="Fill 24" fill-rule="evenodd" clip-rule="evenodd" d="M29.0188 25.0131C28.9028 25.0131 28.7878 24.9731 28.6928 24.8921C27.1708 23.5861 25.4648 23.6191 25.4438 23.6141C25.1638 23.6141 24.9388 23.4011 24.9318 23.1251C24.9258 22.8491 25.1438 22.6201 25.4198 22.6141C25.5038 22.6151 27.5368 22.5821 29.3448 24.1341C29.5538 24.3131 29.5778 24.6291 29.3978 24.8391C29.2988 24.9541 29.1598 25.0131 29.0188 25.0131" fill="black"/><path id="Fill 25" fill-rule="evenodd" clip-rule="evenodd" d="M13.9334 25.0131C13.7924 25.0131 13.6534 24.9541 13.5544 24.8391C13.3744 24.6291 13.3984 24.3141 13.6074 24.1341C15.4144 22.5821 17.4474 22.6111 17.5324 22.6141C17.8074 22.6201 18.0244 22.8481 18.0194 23.1241C18.0144 23.3991 17.7974 23.5851 17.5104 23.6141C17.4854 23.6111 15.7614 23.6031 14.2594 24.8921C14.1644 24.9731 14.0494 25.0131 13.9334 25.0131" fill="black"/><path id="Fill 26" fill-rule="evenodd" clip-rule="evenodd" d="M22.0183 41.1421C20.4003 41.1421 19.1463 40.6431 19.1193 40.6321C18.8643 40.5271 18.7423 40.2361 18.8473 39.9801C18.9513 39.7251 19.2433 39.6021 19.4983 39.7061C19.6973 39.7881 24.3933 41.6351 26.7873 37.2821C26.9203 37.0401 27.2253 36.9521 27.4663 37.0841C27.7083 37.2171 27.7963 37.5211 27.6633 37.7631C26.1603 40.4981 23.8553 41.1421 22.0183 41.1421" fill="black"/><path id="Fill 27" fill-rule="evenodd" clip-rule="evenodd" d="M24.7944 40.0698C24.7944 40.0698 26.3494 43.5018 27.9764 41.8748C29.6044 40.2468 26.9824 38.7488 26.9824 38.7488" fill="#FF4200"/><path id="Fill 28" fill-rule="evenodd" clip-rule="evenodd" d="M27.0572 42.8121C26.9552 42.8121 26.8602 42.8021 26.7762 42.7871C25.3992 42.5361 24.4432 40.5071 24.3392 40.2761C24.2252 40.0251 24.3362 39.7291 24.5882 39.6151C24.8402 39.5011 25.1362 39.6121 25.2492 39.8631C25.5622 40.5501 26.3022 41.6851 26.9552 41.8031C27.0972 41.8301 27.3172 41.8271 27.6232 41.5211C27.9162 41.2281 28.0402 40.9441 28.0022 40.6531C27.9152 39.9971 27.0572 39.3691 26.7332 39.1821C26.4942 39.0441 26.4112 38.7391 26.5492 38.5001C26.6852 38.2611 26.9912 38.1761 27.2302 38.3141C27.3922 38.4071 28.8242 39.2591 28.9932 40.5191C29.0492 40.9391 28.9802 41.5781 28.3302 42.2281C27.8712 42.6871 27.4172 42.8121 27.0572 42.8121" fill="black"/></g></g></g><g id="Hair 2" transform="translate(107.79 57) scale(1 1)"><g id="Hair 2/Wavy Short"><g id="Group 6"><path id="Hair" fill-rule="evenodd" clip-rule="evenodd" d="M153.074 79.6766C131.072 79.6766 143.813 56.1466 106.561 61.2206C106.561 61.2206 90.8883 58.0396 87.2523 78.9496C87.2523 78.9496 86.7073 87.6776 66.1603 88.5866C45.6133 89.4956 52.7053 107.133 52.7053 107.133H97.4803L97.4793 107.116C93.8373 103.486 91.5493 98.3436 91.5493 92.6236C91.5493 89.5376 93.7843 83.7376 94.1343 84.0146H118.889C118.889 84.0146 115.435 92.2236 117.981 97.3146C120.526 102.406 118.889 107.133 118.889 107.133H173.438C173.438 107.133 175.075 79.6766 153.074 79.6766" fill="#ff5613"/><path id="Fill 3" fill-rule="evenodd" clip-rule="evenodd" d="M119.565 106.621H172.944C172.999 104.11 172.882 92.391 166.357 85.467C163.055 81.964 158.587 80.188 153.074 80.188C143.511 80.188 140.339 75.87 136.981 71.299C132.482 65.173 127.831 58.849 106.631 61.728C106.574 61.734 106.516 61.734 106.462 61.723C106.406 61.712 100.924 60.666 95.8647 64.128C91.7107 66.973 88.9817 71.9889 87.7557 79.0379C87.7407 79.3559 86.9517 88.18 66.1827 89.098C60.0217 89.371 55.8117 91.193 53.6697 94.515C50.7387 99.062 52.5607 105.164 53.0627 106.621H96.3047C92.8997 102.814 91.0377 97.889 91.0377 92.623C91.0377 89.832 92.9807 83.9739 93.8537 83.5519C93.9347 83.5129 94.0367 83.4919 94.1337 83.5029H118.891C119.062 83.5029 119.223 83.5889 119.317 83.7319C119.412 83.8749 119.429 84.055 119.363 84.214C119.329 84.293 116.03 92.267 118.439 97.086C120.509 101.227 119.929 105.096 119.565 106.621V106.621ZM173.438 107.645H118.891C118.726 107.645 118.571 107.564 118.474 107.43C118.379 107.296 118.353 107.123 118.407 106.966C118.422 106.921 119.936 102.369 117.523 97.5439C115.319 93.1349 117.355 86.6729 118.143 84.5259H94.3007C93.7247 85.4159 92.0617 90.013 92.0617 92.623C92.0617 98.02 94.1137 103.039 97.8397 106.754C97.9287 106.843 97.9827 106.96 97.9907 107.085C97.9997 107.226 97.9497 107.373 97.8537 107.476C97.7557 107.579 97.6217 107.645 97.4807 107.645H52.7057C52.4967 107.645 52.3077 107.518 52.2307 107.324C52.1047 107.011 49.1867 99.586 52.8057 93.965C55.1377 90.346 59.6237 88.364 66.1367 88.076C85.8797 87.201 86.7357 78.9969 86.7417 78.9149C88.0237 71.5229 90.9027 66.278 95.3017 63.273C100.427 59.772 105.796 60.563 106.575 60.703C128.306 57.76 133.352 64.631 137.805 70.693C141.006 75.05 144.03 79.1649 153.074 79.1649C158.881 79.1649 163.601 81.051 167.105 84.768C174.711 92.841 173.984 106.582 173.95 107.163C173.933 107.434 173.71 107.645 173.438 107.645V107.645Z" fill="black"/></g></g></g><g id="Torso Upper Body" transform="translate(1 41.7684) scale(1 1)"><g id="Torso Upper Body/Pointing Up"><g id="Group 10"><path id="Sweater" fill-rule="evenodd" clip-rule="evenodd" d="M254.006 255.09H145.59C145.59 255.09 156.357 218.333 157.471 203.482C157.471 203.482 64.6496 187.897 40.1436 83.7456H103.315C103.315 83.7456 132.233 158.171 205.743 141.47C207.682 145.554 212.49 148.451 218.129 148.451C223.769 148.451 228.577 145.554 230.516 141.47L239.616 142.014C253.09 142.819 266.349 146.118 278.418 152.161C297.466 161.698 319.074 180.307 322.694 216.105C329.377 282.194 282.595 270.313 282.595 270.313C282.595 270.313 266.258 266.043 254.006 254.348" fill="#FCBD21"/><g id="Group 5"><path id="Fill 3" fill-rule="evenodd" clip-rule="evenodd" d="M310.679 263.749C299.032 273.796 282.883 269.856 282.724 269.818C282.563 269.775 266.37 265.44 254.359 253.978C254.352 253.972 254.343 253.97 254.336 253.963C254.329 253.957 254.326 253.948 254.319 253.942L226.532 232.493L260.509 193.663L294.78 220.346C295.003 220.519 295.325 220.478 295.499 220.257C295.672 220.033 295.632 219.712 295.409 219.538L277.222 205.378L276.298 194.896C276.273 194.616 276.025 194.427 275.743 194.432C275.461 194.456 275.253 194.704 275.278 194.986L276.119 204.519L260.756 192.558C260.542 192.39 260.235 192.421 260.056 192.625L225.403 232.228C225.31 232.335 225.265 232.475 225.279 232.616C225.293 232.756 225.363 232.885 225.475 232.971L253.467 254.578H146.272C147.721 249.558 156.95 217.192 157.98 203.539C158.001 203.36 158.476 199.101 157.98 194.882C157.946 194.601 157.69 194.39 157.411 194.434C157.13 194.466 156.93 194.72 156.963 195.001C157.344 198.244 157.125 201.593 157.015 202.874C153.414 202.17 131.958 197.499 108.237 182.216C84.4565 166.894 53.5005 137.476 40.7915 84.2579H102.97C104.031 86.8259 111.48 104.019 126.6 119.231C141.619 134.343 167.474 150.537 205.464 142.058C207.662 146.266 212.582 148.964 218.129 148.964C223.701 148.964 228.641 146.241 230.824 142.001L239.586 142.524C253.484 143.355 266.472 146.752 278.189 152.62C296.243 161.658 318.53 180.019 322.185 216.155C324.509 239.145 320.638 255.157 310.679 263.749M323.203 216.053C319.502 179.453 296.931 160.858 278.648 151.704C266.806 145.774 253.684 142.343 239.647 141.503L230.546 140.959C230.343 140.946 230.143 141.061 230.054 141.249C228.125 145.313 223.444 147.939 218.129 147.939C212.815 147.939 208.135 145.313 206.206 141.249C206.103 141.034 205.862 140.911 205.63 140.971C167.901 149.546 142.236 133.501 127.351 118.534C111.185 102.281 103.864 83.7449 103.792 83.5609C103.716 83.3639 103.526 83.2329 103.315 83.2329H40.1445C39.9875 83.2329 39.8395 83.3059 39.7425 83.4279C39.6455 83.5509 39.6095 83.7109 39.6455 83.8619C52.3435 137.83 83.6735 167.616 107.72 183.101C131.754 198.577 153.51 203.239 156.924 203.899C155.646 218.815 145.205 254.583 145.099 254.946C145.053 255.101 145.084 255.268 145.18 255.396C145.277 255.525 145.429 255.602 145.59 255.602H254.006C254.164 255.602 254.305 255.53 254.399 255.418C266.519 266.546 282.304 270.767 282.469 270.81C282.543 270.828 285.82 271.63 290.497 271.63C296.425 271.63 304.6 270.341 311.34 264.531C321.573 255.71 325.564 239.399 323.203 216.053" fill="black"/></g><path id="Skin" fill-rule="evenodd" clip-rule="evenodd" d="M74.6453 40.207C73.2953 38.918 71.3373 38.35 69.5683 38.946C68.8013 39.206 68.0833 39.674 67.6193 40.486L49.3433 18.023C47.7803 16.067 44.8043 15.99 43.1903 17.903C41.4373 19.981 39.8903 22.884 40.9393 26.03C42.9813 32.157 44.5993 34.731 44.5993 34.731C42.3113 33.962 39.7913 34.809 38.4303 36.802L37.9663 37.481C37.2163 38.579 36.8993 39.915 37.0753 41.233L37.5443 44.756L36.4583 44.911C34.6823 45.165 33.1193 46.216 32.2153 47.767C31.4643 49.053 31.2303 50.576 31.5613 52.028L31.9753 53.853L31.4013 54.082C29.4453 54.864 28.0213 56.589 27.6243 58.657C27.4253 59.689 27.4863 60.755 27.8193 61.751C29.2563 66.05 33.9343 77.436 42.5573 75.016C42.5573 75.016 43.6713 82.08 49.9823 83.746H96.5793L97.1053 76.247C97.7133 67.588 94.4323 59.108 88.1553 53.112L74.6453 40.207ZM236.554 179.348L231.049 169.096C228.223 163.834 221.489 162.134 216.505 165.424C212.947 162.815 209.927 161.114 207.633 160.022C205.02 158.779 201.901 159.793 200.529 162.341L200.38 162.618C198.901 165.363 200.062 168.744 202.872 170.097C216.445 176.629 220.589 184.917 220.589 184.917C214.79 179.117 205.366 174.405 199.112 171.685C195.632 170.172 192 171.829 190.072 175.241C190.072 175.241 190.033 175.302 189.971 175.411C188.4 178.196 190.07 181.707 193.2 182.356L193.372 182.393C189.442 181.936 188.106 186.464 188.106 186.464C186.766 189.298 188.245 192.63 191.221 193.613C204.103 197.87 208.708 203.481 208.708 203.481C204.096 201.54 199.978 200.685 196.8 200.338C193.248 199.951 190.144 202.707 190.144 206.28C190.144 209.411 192.56 212.013 195.683 212.241L208.268 213.165C209.672 213.269 211.065 213.492 212.432 213.833C216.913 214.954 220.988 217.313 224.19 220.642L230.49 227.19L252.942 201.53L236.554 179.348Z" fill="#d96e05"/><path id="Fill 8" fill-rule="evenodd" clip-rule="evenodd" d="M96.5954 76.2118L96.1024 83.2328H50.0504C44.9814 81.8568 43.4614 76.6928 43.1374 75.2938C44.1784 74.7788 44.8704 74.0368 45.1544 73.0568C45.3614 72.3458 45.3364 71.5908 45.1924 70.8708C45.7184 71.2758 46.3264 71.6248 47.0154 71.8418C48.4644 72.2948 49.9854 72.0788 51.5364 71.1908C53.1274 70.2808 54.0744 69.0848 54.3504 67.6358C54.6324 66.1548 54.1494 64.7258 53.6484 63.7258C57.5764 64.7758 60.8854 61.6798 60.9584 61.6068C65.8314 55.7578 59.1514 48.4478 59.0684 48.3598L45.0044 34.4108C44.7854 34.0438 43.2754 31.4208 41.4254 25.8678C40.6194 23.4528 41.3454 20.8848 43.5814 18.2338C44.2424 17.4508 45.1984 16.9838 46.2464 17.0238C47.3024 17.0378 48.2854 17.5188 48.9464 18.3458L67.0324 40.5748L66.3934 42.1728C64.9274 45.8388 65.1434 49.9428 66.9884 53.4348L71.8884 62.7108C71.6604 63.4008 71.1734 65.5178 71.9454 69.5418C71.9924 69.7878 72.2074 69.9578 72.4474 69.9578C72.4794 69.9578 72.5124 69.9548 72.5444 69.9488C72.8224 69.8958 73.0044 69.6268 72.9504 69.3508C72.4704 66.8458 72.5054 65.1488 72.6344 64.1238L74.5924 67.8288C74.6844 68.0028 74.8614 68.1028 75.0454 68.1028C75.1264 68.1028 75.2084 68.0828 75.2844 68.0438C75.5344 67.9108 75.6294 67.6018 75.4974 67.3518L67.8934 52.9568C66.1894 49.7318 65.9894 45.9408 67.3444 42.5528L68.0764 40.7228C68.4264 40.1198 68.9824 39.6858 69.7324 39.4318C71.2404 38.9208 73.0304 39.3708 74.2924 40.5768L87.8024 53.4818C93.9894 59.3918 97.1944 67.6768 96.5954 76.2118V76.2118ZM28.3054 61.5888C28.0054 60.6898 27.9434 59.7098 28.1264 58.7548C28.4934 56.8488 29.7894 55.2778 31.5924 54.5568L31.8164 54.4668L42.7444 67.8708C42.8134 68.0088 43.0294 68.4268 43.4094 68.9678C43.9364 69.9758 44.5374 71.5078 44.1714 72.7718C43.9414 73.5628 43.3574 74.1378 42.3894 74.5298C34.3284 76.7688 29.8554 66.2278 28.3054 61.5888V61.5888ZM32.6574 48.0248C33.4884 46.6008 34.8994 45.6498 36.5314 45.4188L37.3334 45.3038L52.0024 63.0008C52.0024 63.0008 52.0024 63.0008 52.0034 63.0018C52.0554 63.0688 53.7614 65.2708 53.3444 67.4478C53.1254 68.5888 52.3464 69.5478 51.0284 70.3008C49.7364 71.0408 48.4914 71.2298 47.3274 70.8658C45.9244 70.4268 44.8844 69.2728 44.2724 68.4088C43.9294 67.7648 43.6254 67.3368 43.5914 67.2898C43.5884 67.2858 43.5834 67.2838 43.5794 67.2798C43.5764 67.2748 43.5764 67.2708 43.5734 67.2668L32.4484 53.6198L32.0604 51.9148C31.7584 50.5848 31.9694 49.2018 32.6574 48.0248V48.0248ZM38.3894 37.7708L38.8534 37.0908C40.0594 35.3228 42.3014 34.5578 44.3364 35.1908L58.3334 49.0708C58.3954 49.1388 64.4674 55.7958 60.2114 60.9068C60.0644 61.0478 56.5714 64.2918 52.7184 62.2608L38.0324 44.5418L37.5824 41.1648C37.4234 39.9718 37.7104 38.7658 38.3894 37.7708V37.7708ZM74.9994 39.8368C73.4424 38.3498 71.2994 37.8208 69.4054 38.4618C68.6574 38.7138 68.0504 39.1098 67.5914 39.6418L49.7434 17.7028C48.8934 16.6398 47.6234 16.0188 46.2604 16.0008C44.9144 15.9748 43.6574 16.5568 42.7994 17.5738C40.3524 20.4748 39.5414 23.4548 40.4534 26.1918C41.7954 30.2188 42.9504 32.7168 43.6024 33.9828C41.4474 33.7268 39.2634 34.6718 38.0074 36.5128L37.5444 37.1918C36.7214 38.3968 36.3754 39.8558 36.5684 41.3008L36.9704 44.3198L36.3864 44.4038C34.4434 44.6818 32.7624 45.8128 31.7734 47.5078C30.9544 48.9108 30.7014 50.5578 31.0624 52.1418L31.3794 53.5388L31.2114 53.6068C29.0834 54.4588 27.5544 56.3108 27.1214 58.5618C26.9054 59.6888 26.9784 60.8478 27.3344 61.9128C31.9994 75.8718 38.9044 76.3398 42.1624 75.6398C42.5724 77.3908 44.2664 82.7668 49.8524 84.2398C49.8954 84.2508 49.9394 84.2578 49.9834 84.2578H96.5794C96.8484 84.2578 97.0714 84.0498 97.0904 83.7818L97.6164 76.2838C98.2364 67.4428 94.9174 58.8628 88.5094 52.7418L74.9994 39.8368ZM230.472 226.434L224.559 220.287C221.286 216.885 217.136 214.482 212.556 213.337C211.165 212.989 209.734 212.759 208.306 212.654L195.721 211.731C192.881 211.523 190.656 209.129 190.656 206.28C190.656 204.732 191.316 203.251 192.467 202.218C193.479 201.312 194.793 200.815 196.146 200.815C196.345 200.815 196.545 200.825 196.744 200.847C200.673 201.275 204.631 202.32 208.509 203.952C208.727 204.043 208.978 203.976 209.118 203.786C209.259 203.599 209.253 203.338 209.104 203.155C208.912 202.922 204.257 197.382 191.382 193.128C190.084 192.698 189.034 191.739 188.5 190.493C187.968 189.255 187.993 187.9 188.597 186.608C188.604 186.585 189.317 184.239 191.132 183.274C191.753 182.944 192.441 182.813 193.187 182.876L194.329 183.113C194.382 183.125 194.433 183.121 194.484 183.116C199.327 184.238 209.52 187.452 216.378 195.587C216.479 195.707 216.624 195.769 216.77 195.769C216.886 195.769 217.003 195.73 217.099 195.649C217.316 195.466 217.343 195.144 217.161 194.927C209.026 185.278 196.369 182.372 192.823 181.726C191.687 181.353 190.77 180.532 190.264 179.42C189.707 178.192 189.763 176.823 190.417 175.663L190.518 175.493C192.414 172.138 195.786 170.796 198.907 172.155C205.523 175.03 214.592 179.644 220.227 185.278C220.405 185.456 220.686 185.48 220.888 185.332C221.092 185.187 221.159 184.913 221.047 184.689C220.875 184.343 216.669 176.169 203.094 169.636C201.839 169.03 200.912 167.978 200.487 166.667C200.073 165.393 200.195 164.04 200.831 162.86L200.98 162.584C202.22 160.281 205.046 159.358 207.414 160.485C208.728 161.111 210.075 161.847 211.441 162.666C212.631 163.471 226.393 172.819 237.917 182.053L252.286 201.503L230.472 226.434ZM224.461 164.55C227.082 165.212 229.319 166.956 230.598 169.338L235.857 179.118C229.137 173.872 222.065 168.805 217.365 165.513C219.512 164.303 222.058 163.943 224.461 164.55V164.55ZM253.355 201.226L237.006 179.105L231.5 168.854C230.085 166.22 227.611 164.288 224.711 163.557C221.928 162.851 218.965 163.31 216.525 164.806C214.986 163.689 213.463 162.683 211.962 161.781C211.946 161.771 211.928 161.759 211.925 161.756C211.917 161.751 211.908 161.751 211.901 161.746C210.529 160.925 209.176 160.191 207.854 159.562C204.993 158.2 201.578 159.315 200.079 162.098L199.929 162.375C199.16 163.804 199.012 165.441 199.513 166.983C200.019 168.539 201.162 169.842 202.65 170.558C210.391 174.284 215.044 178.615 217.581 181.585C212.004 177.193 204.818 173.608 199.316 171.216C195.744 169.661 191.76 171.214 189.641 174.965C189.641 174.965 189.597 175.034 189.526 175.159C188.709 176.608 188.638 178.316 189.332 179.844C189.754 180.773 190.432 181.551 191.266 182.098C191.054 182.173 190.847 182.266 190.645 182.374C188.448 183.545 187.648 186.207 187.643 186.245C186.95 187.71 186.919 189.406 187.558 190.896C188.208 192.411 189.485 193.579 191.061 194.1C199.25 196.805 204.075 200.087 206.454 202.058C203.275 200.925 200.056 200.177 196.855 199.829C195.006 199.626 193.16 200.22 191.783 201.456C190.416 202.683 189.632 204.441 189.632 206.28C189.632 209.661 192.274 212.504 195.646 212.752L208.231 213.676C209.601 213.776 210.973 213.997 212.308 214.331C216.701 215.429 220.682 217.733 223.821 220.997L230.121 227.546C230.218 227.646 230.351 227.702 230.49 227.702H230.502C230.645 227.698 230.781 227.636 230.875 227.527L253.328 201.867C253.487 201.687 253.498 201.419 253.355 201.226V201.226Z" fill="black"/></g></g></g></g></g></g></g><path id="Fill 3" fill-rule="evenodd" clip-rule="evenodd" d="M199.62 157.117C158.539 157.117 125.117 190.539 125.117 231.621C125.117 272.702 158.539 306.124 199.62 306.124C240.701 306.124 274.123 272.702 274.123 231.621C274.123 190.539 240.701 157.117 199.62 157.117M199.62 307.241C157.923 307.241 124 273.318 124 231.621C124 189.924 157.923 156.001 199.62 156.001C241.317 156.001 275.24 189.924 275.24 231.621C275.24 273.318 241.317 307.241 199.62 307.241" fill="black"/></g></svg>