<svg viewBox="118.60465116279073 150.8 156.97674418604657 156.60000000000002" fill="none" xmlns="http://www.w3.org/2000/svg" xmlns:xlink="http://www.w3.org/1999/xlink" overflow="visible" width="156.97674418604657px" height="156.60000000000002px"><g id="Master/Character/Avatar"><g id="Avatar"><path id="Mask" fill-rule="evenodd" clip-rule="evenodd" d="M274.682 231.62C274.682 273.075 241.076 306.682 199.62 306.682C158.164 306.682 124.558 273.075 124.558 231.62C124.558 190.164 158.164 156.558 199.62 156.558C241.076 156.558 274.682 190.164 274.682 231.62" fill="#EEF2F8"/><mask id="mask031628f0f-13c4-4dc6-a9ac-bb23639aef35" mask-type="alpha" maskUnits="userSpaceOnUse" x="124" y="156" width="151" height="151" fill="#ffffff"><path id="Mask_2" fill-rule="evenodd" clip-rule="evenodd" d="M274.682 231.62C274.682 273.075 241.076 306.682 199.62 306.682C158.164 306.682 124.558 273.075 124.558 231.62C124.558 190.164 158.164 156.558 199.62 156.558C241.076 156.558 274.682 190.164 274.682 231.62" fill="#ffffff"/></mask><g mask="url(#mask031628f0f-13c4-4dc6-a9ac-bb23639aef35)"><g id="Master/Character/Torso" transform="translate(-19 56) scale(1 1)"><g id="Master/Character/Torso"><g id="Head 2" transform="translate(189.79 120) scale(1 1)"><g id="Head 2/Relax"><path id="Path 2" fill-rule="evenodd" clip-rule="evenodd" d="M16 65.8325C16 65.8325 21.5224 62.2245 20.5403 47.3244C20.5403 47.3244 29.274 51.4117 38.8022 44.5007L41 65.6604C41 65.6604 34.3939 73.1641 27.4671 72.4364C20.5403 71.7087 16 65.8325 16 65.8325Z" fill="#dcad7f"/><path id="Path 2 Copy" fill-rule="evenodd" clip-rule="evenodd" d="M20.7523 46.8715C26.3989 49.514 32.2957 48.6022 38.5087 44.0959C38.8203 43.8698 39.2598 44.066 39.2996 44.449L41.4974 65.6086C41.5118 65.7474 41.4675 65.8859 41.3753 65.9907C36.8731 71.1047 32.2136 73.4377 27.4149 72.9335C22.6587 72.4339 18.7133 70.1617 15.6044 66.1381C15.426 65.9072 15.4824 65.5733 15.7266 65.4138C19.2108 63.1374 20.6854 57.1264 20.0414 47.3572C20.0164 46.9776 20.4077 46.7102 20.7523 46.8715ZM40.479 65.492L38.392 45.4L37.9797 45.6795C32.2505 49.4704 26.6918 50.3258 21.3497 48.2176L21.088 48.111L21.1011 48.3404C21.5662 57.3108 20.1823 63.143 16.8667 65.8193L16.719 65.934L16.9567 66.2216C19.711 69.4853 23.0863 71.3695 27.1017 71.89L27.5194 71.939C31.9564 72.4051 36.3189 70.2208 40.6248 65.3299L40.479 65.492Z" fill="black"/><g id="Head"><path id="Combined Shape" fill-rule="evenodd" clip-rule="evenodd" d="M27.485 48.7009C17.392 48.7009 9.20996 40.0249 9.20996 29.3209C9.20996 18.6169 17.392 9.93994 27.485 9.93994C37.578 9.93994 45.76 18.6169 45.76 29.3209C45.76 40.0249 37.578 48.7009 27.485 48.7009Z" fill="#dcad7f"/><path id="Fill 18" fill-rule="evenodd" clip-rule="evenodd" d="M27.485 10.4399C17.684 10.4399 9.70996 18.9099 9.70996 29.3209C9.70996 39.7319 17.684 48.2009 27.485 48.2009C37.286 48.2009 45.26 39.7319 45.26 29.3209C45.26 18.9099 37.286 10.4399 27.485 10.4399M27.485 49.2009C17.132 49.2009 8.70996 40.2829 8.70996 29.3209C8.70996 18.3579 17.132 9.43994 27.485 9.43994C37.838 9.43994 46.26 18.3579 46.26 29.3209C46.26 40.2829 37.838 49.2009 27.485 49.2009" fill="black"/><g id="Group 3"><path id="Fill 1" fill-rule="evenodd" clip-rule="evenodd" d="M17.2774 30.5449C15.8894 31.7662 14.3014 30.5746 14.2344 30.5233C14.0084 30.3499 13.6874 30.3961 13.5184 30.629C13.3484 30.8599 13.3924 31.1873 13.6174 31.3628C14.0804 31.7221 14.9304 32.1428 15.8814 32.1428C16.5534 32.1428 17.2754 31.9324 17.9444 31.3423C18.1584 31.1535 18.1834 30.822 17.9994 30.6023C17.8164 30.3827 17.4924 30.3581 17.2774 30.5449M28.6074 30.5449C27.2204 31.7662 25.6314 30.5746 25.5644 30.5233C25.3384 30.3499 25.0174 30.3961 24.8474 30.629C24.6784 30.8599 24.7224 31.1873 24.9464 31.3628C25.4094 31.7221 26.2594 32.1428 27.2104 32.1428C27.8824 32.1428 28.6044 31.9324 29.2744 31.3423C29.4884 31.1535 29.5124 30.822 29.3294 30.6023C29.1454 30.3827 28.8204 30.3581 28.6074 30.5449M22.8154 39.6103C22.3694 40.2528 21.9064 40.5843 21.4404 40.5956C20.6684 40.612 20.0554 39.8135 20.0454 39.8022C19.8714 39.5754 19.5514 39.5333 19.3274 39.7099C19.1044 39.8884 19.0634 40.2169 19.2374 40.4468C19.2744 40.496 20.1584 41.6455 21.4134 41.6455H21.4564C22.2664 41.6301 23.0044 41.1498 23.6494 40.221C23.8134 39.9839 23.7594 39.6555 23.5294 39.4872C23.2984 39.3188 22.9794 39.3743 22.8154 39.6103M13.8764 25.6781C15.3084 24.1879 17.0784 24.0524 17.0964 24.0514C17.3784 24.0319 17.5914 23.7835 17.5744 23.4941C17.5574 23.2067 17.3214 22.9717 17.0344 23.0025C16.9464 23.0076 14.8654 23.1523 13.1474 24.9391C12.9484 25.1444 12.9504 25.4779 13.1524 25.6822C13.2514 25.7828 13.3814 25.8341 13.5114 25.8341C13.6434 25.8341 13.7754 25.7807 13.8764 25.6781M27.7394 25.5457C28.5914 25.5457 29.1644 25.3784 29.2084 25.3651C29.4804 25.2829 29.6344 24.9915 29.5544 24.7113C29.4754 24.4352 29.1924 24.2792 28.9194 24.3572C28.9024 24.3613 27.2094 24.857 25.3544 23.9436C25.0994 23.8184 24.7934 23.9282 24.6714 24.1909C24.5484 24.4516 24.6564 24.7657 24.9114 24.8919C25.9614 25.4071 26.9654 25.5457 27.7394 25.5457M22.1064 34.8308C22.3624 34.8308 22.5824 34.6347 22.6144 34.3699C22.6484 34.0805 22.4484 33.8188 22.1674 33.7839L19.6124 33.4658L20.4134 30.3396C20.4854 30.0594 20.3224 29.7721 20.0484 29.6982C19.7784 29.6253 19.4964 29.7926 19.4234 30.0728L18.4724 33.7808C18.4344 33.9276 18.4614 34.0836 18.5444 34.2098C18.6274 34.3351 18.7594 34.4172 18.9064 34.4356L22.0444 34.8267C22.0654 34.8297 22.0864 34.8308 22.1064 34.8308" fill="black"/></g></g></g></g><g id="Hair 2" transform="translate(107.79 57) scale(1 1)"><g id="Hair 2/Side Tail"><g id="Group 8"><path id="Hair" fill-rule="evenodd" clip-rule="evenodd" d="M98.2222 67.9965C98.2222 67.9965 86.4452 66.1295 85.5122 81.6855H120.514C120.514 81.6855 113.825 102.641 132.959 111.376C132.959 111.376 124.403 116.065 132.959 126.956C132.959 126.956 118.577 134.72 133.737 152.313C139.648 159.173 137.113 159.999 139.801 167.498C142.75 175.725 151.133 172.475 151.133 172.475C151.133 172.475 141.666 160.447 153.183 157.913C160.961 156.202 165.939 141.579 155.672 137.16C155.672 137.16 166.562 107.043 139.182 107.198C139.182 107.198 149.387 98.5605 148.672 80.9085C147.738 57.8845 111.088 41.8605 98.2222 67.9965" fill="#ee7a08"/><path id="Fill 3" fill-rule="evenodd" clip-rule="evenodd" d="M141.47 104.726C141.103 104.554 140.7 104.455 140.284 104.455H139.075C138.22 104.455 137.411 104.845 136.88 105.516L136.438 106.074C135.923 106.724 135.146 107.113 134.315 107.134L134.107 107.14C133.185 107.164 132.333 107.64 131.831 108.414L130.789 110.018C130.752 110.076 130.704 110.128 130.661 110.184C131.387 110.6 132.141 111.002 132.96 111.376C132.96 111.376 131.671 112.086 130.594 113.588C130.777 113.521 130.956 113.442 131.149 113.414L134.213 112.965C134.804 112.878 135.353 112.605 135.778 112.184L136.898 111.075C137.345 110.63 137.93 110.351 138.556 110.281L140.607 110.051C141.241 109.98 141.83 109.696 142.28 109.244C142.78 108.741 143.05 108.09 143.088 107.425C141.875 107.282 140.591 107.191 139.182 107.199C139.182 107.199 140.153 106.373 141.47 104.726" fill="#FF4200"/><path id="Fill 5" fill-rule="evenodd" clip-rule="evenodd" d="M160.907 147.054C160.436 152 156.995 156.55 153.073 157.413C149.998 158.09 148.057 159.497 147.306 161.595C145.916 165.478 149.086 170.494 150.294 172.202C149.107 172.522 146.503 173.008 144.16 171.934C142.393 171.125 141.089 169.575 140.283 167.325C139.34 164.695 139.054 162.923 138.803 161.36C138.348 158.538 138.021 156.501 134.125 151.98C128.837 145.843 126.605 140.277 127.49 135.437C128.48 130.029 133.156 127.432 133.203 127.406C133.336 127.333 133.429 127.206 133.46 127.06C133.49 126.911 133.455 126.758 133.362 126.64C130.418 122.894 129.224 119.518 129.813 116.609C130.023 115.57 130.446 114.708 130.924 114.013C131.031 113.974 131.135 113.933 131.222 113.921L134.287 113.472C134.991 113.368 135.631 113.048 136.137 112.547L137.258 111.438C137.622 111.076 138.103 110.847 138.613 110.789L140.664 110.56C141.409 110.476 142.112 110.137 142.642 109.605C143.081 109.163 143.38 108.609 143.516 108.007C148.442 108.694 152.095 110.634 154.385 113.875C160.371 122.35 155.243 136.841 155.191 136.986C155.099 137.241 155.221 137.523 155.47 137.63C159.338 139.294 161.319 142.73 160.907 147.054M120.073 93.2322C119.366 87.0772 120.985 81.8932 121.002 81.8412C121.051 81.6862 121.023 81.5162 120.927 81.3842C120.831 81.2512 120.677 81.1742 120.513 81.1742H86.0603C86.4433 76.2982 87.9733 72.7502 90.6123 70.6222C93.9963 67.8962 98.1003 68.4952 98.1423 68.5022C98.3663 68.5382 98.5833 68.4232 98.6813 68.2222C103.724 57.9772 113.387 53.2652 124.528 55.6252C139.339 58.7572 147.758 71.0002 148.16 80.9292C148.634 92.6282 144.191 100.354 141.277 104.12C140.95 104.015 140.619 103.942 140.283 103.942H139.074C138.056 103.942 137.11 104.4 136.478 105.199L136.036 105.755C135.615 106.289 134.982 106.605 134.303 106.622L134.094 106.627C133.002 106.657 131.995 107.219 131.401 108.135L130.504 109.516C124.407 105.896 120.902 100.433 120.073 93.2322M132.005 112.753C132.149 112.616 132.286 112.497 132.415 112.392C132.437 112.372 132.461 112.353 132.483 112.335C132.608 112.234 132.724 112.146 132.824 112.075C132.837 112.066 132.85 112.057 132.863 112.048C133.069 111.903 133.204 111.825 133.208 111.824C133.377 111.73 133.478 111.548 133.47 111.356C133.463 111.162 133.347 110.99 133.172 110.909C133.162 110.906 133.153 110.9 133.143 110.896C132.8 110.739 132.47 110.572 132.14 110.406C131.899 110.281 131.657 110.156 131.402 110.014L132.26 108.693C132.671 108.06 133.366 107.67 134.119 107.652L134.328 107.646C135.313 107.621 136.228 107.163 136.839 106.392L137.281 105.834C137.718 105.283 138.372 104.966 139.074 104.966H140.283C140.381 104.966 140.479 104.973 140.577 104.987C139.764 105.951 139.157 106.532 138.941 106.728C138.887 106.777 138.851 106.808 138.849 106.81C138.786 106.864 138.754 106.937 138.724 107.011C138.715 107.033 138.693 107.047 138.687 107.07C138.676 107.112 138.694 107.156 138.693 107.199C138.693 107.259 138.68 107.319 138.702 107.377C138.778 107.58 138.978 107.702 139.185 107.711C139.897 107.709 140.574 107.743 141.245 107.783C141.574 107.802 141.904 107.825 142.237 107.856C142.325 107.865 142.407 107.878 142.494 107.886C142.389 108.261 142.193 108.605 141.917 108.883C141.551 109.249 141.065 109.484 140.55 109.542L138.499 109.772C137.761 109.855 137.064 110.188 136.537 110.71L135.417 111.82C135.072 112.161 134.618 112.388 134.138 112.458L131.982 112.775C131.99 112.768 131.997 112.76 132.005 112.753M156.307 136.886C157.169 134.285 160.979 121.441 155.222 113.286C152.529 109.472 148.124 107.316 142.139 106.818C141.693 106.778 141.251 106.747 140.813 106.728C140.682 106.722 140.564 106.705 140.432 106.701C141.414 105.677 143.041 103.763 144.641 100.924C146.92 96.8832 149.557 90.1262 149.183 80.8872C148.691 68.7582 138.183 57.4672 124.74 54.6232C113.23 52.1862 103.231 56.9802 97.9243 67.4472C96.7543 67.3442 93.1403 67.2792 89.9823 69.8162C87.0043 72.2082 85.3283 76.1922 85.0003 81.6552C84.9923 81.7962 85.0423 81.9342 85.1393 82.0362C85.2353 82.1402 85.3703 82.1982 85.5113 82.1982H119.843C118.938 85.7642 115.615 102.683 131.049 110.986C131.235 111.087 131.417 111.183 131.595 111.276C131.711 111.334 131.817 111.398 131.934 111.455C130.953 112.217 129.338 113.818 128.812 116.389C128.179 119.488 129.32 122.992 132.205 126.816C130.875 127.687 127.379 130.39 126.486 135.238C125.534 140.401 127.844 146.259 133.349 152.648C137.056 156.949 137.349 158.769 137.792 161.523C138.038 163.05 138.344 164.95 139.319 167.671C140.223 170.193 141.711 171.941 143.742 172.868C144.989 173.438 146.276 173.624 147.429 173.624C149.549 173.624 151.212 172.993 151.317 172.952C151.469 172.895 151.583 172.768 151.626 172.611C151.669 172.454 151.635 172.286 151.535 172.159C151.487 172.099 146.794 166.058 148.27 161.938C148.895 160.195 150.585 159.009 153.293 158.413C157.623 157.46 161.416 152.515 161.927 147.152C162.368 142.519 160.325 138.803 156.307 136.886" fill="black"/></g></g></g><g id="Torso Upper Body" transform="translate(1 41.7684) scale(1 1)"><g id="Torso Upper Body/Empty Box"><g id="Group 43"><path id="Sweater" fill-rule="evenodd" clip-rule="evenodd" d="M280.334 203.875C280.334 203.875 277.424 202.562 272.953 200.435L272.244 195.138L290.251 208.909L280.334 203.875ZM333.245 216.544C330.668 204.12 321.768 191.579 311.611 180.714L311.622 180.709C294.8 156.176 267.14 141.173 237.393 141.173H230.175C228.242 145.244 223.456 148.134 217.84 148.151C212.225 148.134 207.439 145.244 205.507 141.173H198.288C189.635 141.173 180.879 142.376 172.397 144.686C150.987 150.516 133.262 164.818 122.543 183.678C122.54 183.683 122.537 183.687 122.533 183.69C118.303 189.229 115.822 196.3 114.408 203.438C114.401 203.463 114.394 203.485 114.388 203.51C114.388 203.51 114.386 203.532 114.386 203.539C111.222 219.626 113.479 236.03 113.481 236.048L113.48 236.046L111.131 222.717L82.0688 228.246C82.0428 228.19 78.0088 229.072 78.0088 229.072C78.7798 232.792 79.6208 236.49 80.5618 240.088C85.6438 259.52 96.5818 269.671 112.445 270.549C148.31 272.536 158.661 217.703 158.661 217.703L163.437 195.138L160.518 216.95L154.227 253.801H281.455L280.153 246.179C285.313 249.115 289.981 251.29 293.889 253.178C315.918 263.821 340.465 251.357 333.245 216.544V216.544Z" fill="#FF5613"/><path id="Fill 3" fill-rule="evenodd" clip-rule="evenodd" d="M273.423 200.092C277.698 202.122 280.516 203.396 280.544 203.408C280.551 203.412 280.559 203.415 280.565 203.418L285.512 205.93L272.915 196.296L273.423 200.092ZM290.25 209.42C290.172 209.42 290.092 209.403 290.019 209.365L280.112 204.337C279.912 204.246 277.022 202.938 272.733 200.897C272.576 200.823 272.468 200.675 272.445 200.503L271.736 195.206C271.709 195.001 271.808 194.799 271.986 194.696C272.166 194.591 272.389 194.604 272.554 194.731L290.561 208.501C290.771 208.662 290.824 208.957 290.683 209.182C290.587 209.334 290.421 209.42 290.25 209.42V209.42ZM78.6129 229.464C79.4229 233.335 80.2229 236.773 81.0559 239.958C86.0479 259.04 96.6179 269.16 112.473 270.039C147.472 271.993 158.054 218.152 158.157 217.608L162.936 195.032C162.993 194.764 163.255 194.587 163.524 194.633C163.795 194.68 163.981 194.933 163.944 195.206L161.025 217.018L154.834 253.289H280.847L279.649 246.265C279.615 246.071 279.697 245.873 279.859 245.76C280.021 245.646 280.235 245.635 280.406 245.735C284.881 248.28 288.955 250.238 292.549 251.965L294.111 252.717C304.99 257.973 316.578 257.467 324.355 251.401C333.011 244.646 335.99 232.304 332.743 216.649C330.519 205.923 323.283 193.95 311.236 181.064C311.193 181.017 311.159 180.963 311.136 180.906C294.251 156.344 266.693 141.686 237.393 141.686H230.492C228.324 145.917 223.399 148.646 217.841 148.664C212.281 148.646 207.357 145.917 205.188 141.686H198.287C189.713 141.686 181.048 142.862 172.532 145.18C151.537 150.897 133.941 164.658 122.987 183.931C122.973 183.958 122.948 183.991 122.928 184.016C119.212 188.883 116.51 195.456 114.909 203.538C114.909 203.571 114.895 203.606 114.888 203.639C111.799 219.343 113.896 235.304 113.987 235.976C114.025 236.253 113.834 236.51 113.559 236.552C113.282 236.6 113.025 236.411 112.976 236.137L110.717 223.317L82.1639 228.749C82.1269 228.756 82.0899 228.758 82.0519 228.758C81.7519 228.797 80.1629 229.129 78.6129 229.464V229.464ZM114.314 271.113C113.688 271.113 113.059 271.097 112.417 271.061C96.0669 270.155 85.1829 259.778 80.0659 240.218C79.1929 236.88 78.3559 233.268 77.5069 229.176C77.4499 228.901 77.6249 228.632 77.8999 228.572C80.3589 228.035 81.4549 227.795 81.9769 227.762L81.9729 227.743L111.036 222.214C111.17 222.191 111.309 222.218 111.422 222.296C111.535 222.373 111.611 222.493 111.635 222.628L112.244 226.085C112.062 219.905 112.275 211.624 113.883 203.441C113.886 203.405 113.895 203.367 113.905 203.332C115.537 195.102 118.303 188.387 122.126 183.38C133.187 163.914 151.003 149.981 172.263 144.192C180.866 141.849 189.622 140.661 198.287 140.661H205.506C205.704 140.661 205.884 140.776 205.969 140.953C207.889 144.998 212.549 147.623 217.841 147.64C223.131 147.623 227.791 144.998 229.712 140.953C229.797 140.776 229.977 140.661 230.174 140.661H237.393C267.067 140.661 294.974 155.525 312.044 180.419C312.049 180.429 312.055 180.437 312.06 180.446C324.192 193.442 331.487 205.551 333.746 216.441C337.076 232.497 333.965 245.199 324.985 252.207C316.899 258.517 304.898 259.066 293.666 253.639L292.106 252.888C288.749 251.276 284.975 249.461 280.839 247.153L281.958 253.715C281.984 253.863 281.943 254.016 281.845 254.131C281.748 254.245 281.605 254.313 281.454 254.313H154.227C154.076 254.313 153.933 254.245 153.835 254.131C153.738 254.016 153.697 253.863 153.722 253.715L160.013 216.864L161.133 208.488L159.161 217.809C159.06 218.341 148.691 271.11 114.314 271.113V271.113Z" fill="black"/><path id="Box" fill-rule="evenodd" clip-rule="evenodd" d="M204.485 213.869L186.198 138.584L83.251 163.589L101.538 238.875L101.81 238.808L101.019 288.131L107.287 286.608L108.079 237.286L198.216 215.392L221.545 258.855L227.814 257.333L204.485 213.869Z" fill="#FCBD21"/><path id="Fill 7" fill-rule="evenodd" clip-rule="evenodd" d="M83.8687 163.965L101.914 238.256L203.866 213.491L185.821 139.2L83.8687 163.965ZM101.537 239.386C101.306 239.386 101.097 239.23 101.04 238.995L82.7527 163.709C82.7207 163.577 82.7427 163.439 82.8127 163.322C82.8837 163.206 82.9977 163.123 83.1297 163.091L186.077 138.085C186.355 138.02 186.628 138.188 186.695 138.462L204.982 213.747C205.014 213.88 204.993 214.019 204.922 214.135C204.851 214.25 204.738 214.333 204.605 214.366L101.659 239.372C101.618 239.381 101.577 239.386 101.537 239.386V239.386Z" fill="black"/><path id="Fill 9" fill-rule="evenodd" clip-rule="evenodd" d="M111.012 168.818L163.929 155.964L161.307 145.171L108.39 158.024L111.012 168.818Z" fill="#EEF2F8"/><path id="Fill 11" fill-rule="evenodd" clip-rule="evenodd" d="M109.008 158.401L111.388 168.2L163.31 155.588L160.93 145.788L109.008 158.401ZM111.011 169.33C110.781 169.33 110.571 169.172 110.514 168.939L107.892 158.145C107.86 158.013 107.882 157.874 107.952 157.757C108.023 157.642 108.137 157.559 108.269 157.526L161.185 144.672C161.463 144.612 161.737 144.774 161.804 145.049L164.426 155.843C164.458 155.975 164.436 156.114 164.366 156.23C164.295 156.346 164.181 156.429 164.05 156.463L111.133 169.316C111.092 169.325 111.051 169.33 111.011 169.33V169.33Z" fill="black"/><path id="Fill 13" fill-rule="evenodd" clip-rule="evenodd" d="M128.356 232.361L181.273 219.507L178.651 208.714L125.734 221.567L128.356 232.361Z" fill="#EEF2F8"/><path id="Fill 15" fill-rule="evenodd" clip-rule="evenodd" d="M126.353 221.944L128.732 231.743L180.654 219.131L178.275 209.331L126.353 221.944ZM128.356 232.873C128.263 232.873 128.17 232.848 128.089 232.798C127.974 232.728 127.891 232.614 127.858 232.482L125.237 221.688C125.17 221.413 125.339 221.135 125.613 221.069L178.53 208.215C178.662 208.186 178.801 208.204 178.917 208.276C179.034 208.346 179.117 208.46 179.148 208.592L181.77 219.386C181.837 219.661 181.668 219.938 181.394 220.006L128.477 232.859C128.437 232.868 128.396 232.873 128.356 232.873V232.873Z" fill="black"/><path id="Fill 17" fill-rule="evenodd" clip-rule="evenodd" d="M198.981 215.733L221.81 258.264L227.05 256.992L204.222 214.46L198.981 215.733ZM221.546 259.367C221.36 259.367 221.185 259.266 221.095 259.097L197.766 215.633C197.691 215.494 197.685 215.328 197.75 215.183C197.814 215.039 197.942 214.932 198.096 214.894L204.365 213.371C204.593 213.324 204.827 213.422 204.937 213.628L228.266 257.09C228.34 257.23 228.347 257.396 228.282 257.542C228.218 257.685 228.089 257.793 227.936 257.831L221.667 259.353C221.626 259.362 221.586 259.367 221.546 259.367V259.367Z" fill="black"/><path id="Fill 19" fill-rule="evenodd" clip-rule="evenodd" d="M102.315 239.212L101.54 287.477L106.781 286.204L107.556 237.94L102.315 239.212ZM101.018 288.643C100.903 288.643 100.79 288.604 100.698 288.53C100.574 288.432 100.503 288.28 100.506 288.122L101.298 238.8C101.302 238.567 101.462 238.366 101.689 238.311L107.957 236.787C108.111 236.754 108.274 236.786 108.398 236.886C108.522 236.984 108.592 237.136 108.59 237.293L107.798 286.616C107.794 286.849 107.634 287.051 107.408 287.106L101.139 288.629C101.099 288.638 101.058 288.643 101.018 288.643V288.643Z" fill="black"/><path id="Skin" fill-rule="evenodd" clip-rule="evenodd" d="M208.212 155.806C210.36 159.081 212.594 162.486 215.009 165.736C225.269 179.541 249.628 190.272 249.628 190.272L238.862 220.17C238.862 220.17 219.3 205.656 210.905 204.351C207.029 203.748 202.034 206.939 197.295 209.966C191.772 213.494 186.597 216.801 183.942 213.623C178.995 207.701 190.423 199.092 193.418 196.992C189.798 199.425 172.913 210.24 168.31 203.48C163.864 196.95 181.058 189.427 181.058 189.427C181.058 189.427 162.783 197.411 160.409 188.822C158.029 180.207 181.618 175.809 181.618 175.809L169.63 175.914C161.296 175.494 161.766 171.276 161.766 171.276C161.498 160.748 193.391 161.151 193.391 161.151C193.391 161.151 175.722 140.13 186.655 137.755C195.161 135.907 201.237 145.171 208.212 155.806ZM91.6018 183.838L112.949 181.07C115.536 180.748 117.932 182.478 118.441 185.035C118.936 187.524 117.477 189.987 115.056 190.75L94.9448 196.902L111.395 195.018C114.019 194.741 116.422 196.509 116.936 199.098C117.509 201.973 115.546 204.738 112.642 205.147L96.4758 207.514C96.7892 211.111 102.496 210.663 107.067 210.304C108.489 210.192 109.801 210.089 110.807 210.119C112.692 210.175 114.281 211.529 114.649 213.379C115.004 215.16 114.145 216.978 112.516 217.781C110.38 218.834 106.664 220.211 100.376 221.461C99.8338 221.568 99.2838 221.615 98.7328 221.658H98.7318C98.4788 221.677 98.2238 221.684 97.9688 221.69C97.6568 222.836 97.6908 224.09 98.1168 225.194L82.0688 228.247C82.0528 228.213 80.4918 228.539 79.3098 228.792C78.0567 222.759 76.9855 216.674 75.9645 210.876C75.1499 206.249 74.3673 201.803 73.5498 197.711C73.6069 197.814 73.6784 197.915 73.7499 198.016C73.771 198.045 73.7921 198.075 73.8128 198.105C73.0128 195.841 72.3008 193.424 71.6918 190.852V190.851C71.6342 190.608 71.579 190.363 71.5239 190.117C71.4748 189.898 71.4257 189.68 71.3748 189.463C71.3323 189.268 71.2867 189.077 71.241 188.887C71.1781 188.624 71.1153 188.362 71.0608 188.088C69.5738 180.612 71.3078 173.814 74.0988 168.278C74.4488 167.587 74.8138 166.914 75.1918 166.262C77.8378 161.703 81.0858 158.167 83.4898 156.045C86.3428 153.528 90.8428 154.693 92.1968 158.249L92.3328 158.605C93.1238 160.686 92.5338 162.992 90.9528 164.56C87.6108 167.874 85.7288 173.592 85.7288 173.592L106.352 170.031C108.936 169.585 111.404 171.28 111.916 173.851C112.413 176.352 110.882 178.809 108.418 179.466L91.6018 183.838Z" fill="#dcad7f"/><path id="Fill 26" fill-rule="evenodd" clip-rule="evenodd" d="M238.613 219.351C235.305 216.937 218.711 205.046 210.984 203.845C210.634 203.79 210.277 203.765 209.914 203.765C206.051 203.765 201.467 206.695 197.02 209.535C191.712 212.925 186.699 216.124 184.335 213.294C183.418 212.197 183.076 210.973 183.289 209.554C184.03 204.601 191.32 199.101 193.671 197.443C194.083 197.164 194.341 196.985 194.412 196.935C194.437 196.917 194.452 196.892 194.473 196.871C195.613 196.152 196.916 195.466 198.177 195.101C198.449 195.022 198.606 194.738 198.528 194.467C198.448 194.197 198.167 194.039 197.893 194.118C195.81 194.72 193.692 196.081 192.238 197.156C188.256 199.74 177.682 206.101 171.75 205.038C170.399 204.792 169.413 204.189 168.734 203.192C168.09 202.246 167.929 201.258 168.242 200.17C169.73 194.997 181.149 189.946 181.264 189.896C181.284 189.887 181.298 189.871 181.316 189.859C184.254 188.497 188.648 186.708 193.508 185.585C193.783 185.521 193.954 185.246 193.891 184.971C193.827 184.695 193.556 184.524 193.276 184.587C188.18 185.765 183.597 187.66 180.61 189.061C178.897 189.774 168.368 193.966 163.314 191.557C162.061 190.96 161.272 190.02 160.904 188.685C160.586 187.538 160.765 186.446 161.451 185.348C165.125 179.467 181.547 176.343 181.713 176.312C181.788 176.298 181.854 176.265 181.913 176.222C182.513 176.162 183.166 176.093 183.892 176.015C185.723 175.821 188.002 175.579 190.779 175.339C191.06 175.316 191.269 175.068 191.245 174.786C191.22 174.503 190.977 174.3 190.691 174.32C187.904 174.559 185.619 174.802 183.784 174.997C182.603 175.123 181.609 175.229 180.761 175.305L169.656 175.402C165.594 175.197 163.8 174.071 163.011 173.162C162.204 172.233 162.272 171.365 162.278 171.263C162.245 169.976 162.734 168.837 163.771 167.787C169.6 161.883 190.035 161.662 193.021 161.662C193.271 161.662 193.376 161.662 193.392 161.663C193.59 161.663 193.77 161.549 193.854 161.371C193.94 161.189 193.913 160.975 193.784 160.822C193.664 160.679 181.799 146.462 183.822 140.535C184.23 139.341 185.192 138.596 186.763 138.254C194.922 136.493 200.884 145.566 207.783 156.085C209.942 159.376 212.174 162.779 214.599 166.041C224.064 178.776 245.648 189.012 248.987 190.542L238.613 219.351ZM249.835 189.803C249.592 189.697 225.48 178.966 215.421 165.431C213.013 162.192 210.79 158.802 208.64 155.524C201.532 144.689 195.388 135.32 186.547 137.254C184.621 137.672 183.379 138.665 182.854 140.204C180.925 145.854 189.713 157.398 192.311 160.637C187.54 160.665 168.877 161.158 163.043 167.067C161.816 168.31 161.215 169.731 161.257 171.219C161.252 171.273 161.126 172.526 162.206 173.796C163.536 175.36 166.025 176.244 169.635 176.424L176.934 176.362C171.607 177.762 163.236 180.559 160.583 184.805C159.749 186.141 159.524 187.539 159.917 188.957C160.363 190.573 161.358 191.759 162.874 192.481C166.047 193.995 170.983 193.193 174.944 192.099C171.675 194.127 168.109 196.931 167.258 199.886C166.861 201.266 167.073 202.572 167.888 203.767C168.717 204.987 169.956 205.753 171.567 206.045C175.972 206.85 182.48 203.978 187.43 201.251C184.996 203.63 182.703 206.551 182.276 209.401C182.021 211.103 182.449 212.634 183.549 213.951C186.492 217.474 191.874 214.036 197.571 210.398C202.276 207.391 207.141 204.277 210.827 204.857C219.001 206.128 238.363 220.437 238.557 220.58C238.646 220.647 238.754 220.681 238.863 220.681C238.912 220.681 238.962 220.675 239.01 220.66C239.166 220.613 239.289 220.496 239.344 220.343L250.11 190.445C250.201 190.192 250.081 189.912 249.835 189.803V189.803ZM114.906 190.259L94.7953 196.412C94.5423 196.49 94.3893 196.747 94.4443 197.005C94.4973 197.265 94.7423 197.427 95.0033 197.411L111.448 195.527C113.836 195.281 115.968 196.855 116.434 199.198C116.683 200.449 116.413 201.71 115.675 202.751C114.936 203.791 113.834 204.462 112.569 204.64L96.4023 207.007C96.1343 207.047 95.9423 207.288 95.9663 207.558C96.3233 211.661 102.303 211.189 107.107 210.814C108.499 210.705 109.816 210.593 110.792 210.63C112.444 210.681 113.823 211.851 114.147 213.478C114.459 215.048 113.695 216.628 112.289 217.322C110.354 218.276 106.699 219.681 100.276 220.958C99.7793 221.058 99.2653 221.103 98.6923 221.148C87.5373 222.017 76.6343 209.513 72.1903 190.734L71.8753 189.351C71.8313 189.15 71.7843 188.954 71.7373 188.756C71.6763 188.503 71.6163 188.251 71.5633 187.989C70.2813 181.542 71.2893 174.989 74.5563 168.509C74.9013 167.825 75.2623 167.162 75.6353 166.519C78.7043 161.229 82.3873 157.701 83.8293 156.429C85.0473 155.356 86.6563 154.965 88.2413 155.356C89.8363 155.749 91.1353 156.899 91.7183 158.431L91.8543 158.788C92.5523 160.621 92.0563 162.744 90.5923 164.196C87.2023 167.558 85.3213 173.194 85.2433 173.432C85.1873 173.603 85.2243 173.79 85.3423 173.925C85.4593 174.062 85.6393 174.124 85.8163 174.097L106.439 170.536C108.769 170.132 110.952 171.633 111.414 173.951C111.857 176.181 110.483 178.385 108.289 178.969L91.4733 183.341C91.2123 183.41 91.0493 183.669 91.1003 183.935C91.1513 184.201 91.3983 184.379 91.6683 184.345L113.012 181.578C115.323 181.29 117.485 182.852 117.939 185.135C118.384 187.372 117.078 189.576 114.906 190.259V190.259ZM112.883 180.562L99.6193 182.282L108.55 179.96C111.267 179.236 112.966 176.509 112.418 173.751C111.847 170.885 109.146 169.035 106.265 169.526L86.5133 172.937C87.1603 171.26 88.8373 167.379 91.3143 164.923C93.0653 163.186 93.6533 160.635 92.8113 158.423L92.6753 158.067C91.9723 156.221 90.4073 154.836 88.4873 154.361C86.5683 153.89 84.6233 154.363 83.1523 155.662C81.6733 156.966 77.8943 160.585 74.7493 166.005C74.3673 166.666 73.9963 167.347 73.6433 168.046C70.2693 174.737 69.2323 181.513 70.5593 188.189C70.6143 188.464 70.6773 188.73 70.7413 188.996C70.7873 189.185 70.8333 189.375 70.8753 189.57C70.8753 189.574 70.8763 189.576 70.8773 189.58L71.1943 190.97C75.6033 209.606 86.3443 222.213 97.6023 222.213C97.9913 222.213 98.3833 222.199 98.7733 222.167C99.3793 222.121 99.9253 222.073 100.476 221.962C107.008 220.663 110.752 219.221 112.742 218.24C114.563 217.342 115.553 215.302 115.151 213.278C114.734 211.181 112.954 209.671 110.823 209.607C109.789 209.573 108.448 209.681 107.027 209.792C102.911 210.117 97.8413 210.513 97.0753 207.944L112.714 205.654C114.259 205.437 115.606 204.617 116.509 203.345C117.413 202.072 117.743 200.529 117.438 198.997C116.869 196.132 114.241 194.219 111.337 194.509L100.432 195.758L115.21 191.237C117.885 190.395 119.49 187.687 118.943 184.935C118.385 182.128 115.73 180.207 112.883 180.562V180.562Z" fill="black"/><path id="Fill 29" fill-rule="evenodd" clip-rule="evenodd" d="M97.9536 224.703L81.9736 227.744L81.9746 227.755C81.6066 227.783 80.9486 227.918 79.7066 228.183C78.5016 222.33 77.4696 216.466 76.4716 210.79C75.7216 206.523 75.0046 202.475 74.2626 198.68C73.5986 197.96 73.2226 197.182 73.0826 196.402C72.9196 196.517 72.8296 196.715 72.8716 196.916C73.7536 201.246 74.5836 205.968 75.4636 210.967C76.4916 216.814 77.5556 222.859 78.8086 228.895C78.8366 229.029 78.9156 229.146 79.0306 229.221C79.1146 229.275 79.2116 229.304 79.3096 229.304C79.3456 229.304 79.3816 229.3 79.4166 229.293C81.0906 228.933 81.8666 228.784 82.0526 228.759C82.0866 228.759 82.1266 228.757 82.1636 228.75L98.3306 225.674C98.1736 225.365 98.0476 225.04 97.9536 224.703" fill="black"/><path id="Fill 31" fill-rule="evenodd" clip-rule="evenodd" d="M282.883 248.177C282.798 248.177 282.711 248.156 282.632 248.111C263.037 237.06 237.562 223.549 237.307 223.413C237.185 223.349 237.095 223.239 237.056 223.106C237.017 222.973 237.033 222.831 237.1 222.711C240.2 217.175 249.887 187.877 249.985 187.581C250.033 187.437 250.143 187.321 250.286 187.264C250.428 187.208 250.589 187.22 250.722 187.296L273.203 199.989C273.45 200.128 273.537 200.44 273.398 200.687C273.258 200.932 272.947 201.02 272.7 200.881L250.761 188.494C249.367 192.696 241.375 216.637 238.24 222.749C241.759 224.618 264.97 236.975 283.135 247.219C283.381 247.358 283.468 247.67 283.329 247.917C283.235 248.083 283.062 248.177 282.883 248.177" fill="black"/><path id="Fill 33" fill-rule="evenodd" clip-rule="evenodd" d="M307.002 221.71C306.846 221.71 306.693 221.64 306.593 221.506C300.537 213.482 283.53 206.058 283.359 205.983C283.1 205.872 282.981 205.57 283.093 205.311C283.205 205.051 283.504 204.931 283.766 205.044C284.474 205.351 301.191 212.649 307.41 220.891C307.58 221.115 307.535 221.437 307.31 221.607C307.217 221.676 307.109 221.71 307.002 221.71" fill="black"/><path id="Fill 35" fill-rule="evenodd" clip-rule="evenodd" d="M114.388 203.51V203.51V203.509V203.51C114.388 203.51 114.387 203.53 114.386 203.534C114.387 203.525 114.388 203.51 114.388 203.51" fill="#E5AB78"/><path id="Fill 37" fill-rule="evenodd" clip-rule="evenodd" d="M114.387 204.046C114.361 204.046 114.335 204.044 114.308 204.04C114.037 203.998 113.848 203.75 113.878 203.478C113.908 203.205 114.155 202.985 114.422 203.012C114.696 203.029 114.907 203.248 114.9 203.523C114.9 203.524 114.9 203.525 114.9 203.525V203.527C114.9 203.532 114.899 203.538 114.899 203.544C114.898 203.562 114.897 203.581 114.896 203.591L114.895 203.59C114.893 203.608 114.891 203.623 114.888 203.634C114.84 203.877 114.627 204.046 114.387 204.046" fill="black"/><path id="Fill 39" fill-rule="evenodd" clip-rule="evenodd" d="M113.478 236.039L113.479 236.047L113.48 236.048L113.478 236.039Z" fill="#E5AB78"/><path id="Fill 41" fill-rule="evenodd" clip-rule="evenodd" d="M113.534 236.039H113.991H113.534ZM113.082 235.725L113.471 236.041L113.082 235.725ZM113.48 236.56C113.239 236.56 113.027 236.391 112.978 236.148L113.056 236.132L112.978 236.147C112.971 236.112 112.967 236.073 112.967 236.039C112.967 235.772 113.171 235.551 113.436 235.528C113.701 235.524 113.933 235.686 113.981 235.942C113.988 235.977 113.992 236.015 113.992 236.049C113.992 236.311 113.793 236.532 113.531 236.559C113.514 236.56 113.497 236.56 113.48 236.56V236.56Z" fill="black"/></g></g></g></g></g></g></g><path id="Fill 3" fill-rule="evenodd" clip-rule="evenodd" d="M199.62 157.117C158.539 157.117 125.117 190.539 125.117 231.621C125.117 272.702 158.539 306.124 199.62 306.124C240.701 306.124 274.123 272.702 274.123 231.621C274.123 190.539 240.701 157.117 199.62 157.117M199.62 307.241C157.923 307.241 124 273.318 124 231.621C124 189.924 157.923 156.001 199.62 156.001C241.317 156.001 275.24 189.924 275.24 231.621C275.24 273.318 241.317 307.241 199.62 307.241" fill="black"/></g></svg>