<svg viewBox="118.60465116279073 150.8 156.97674418604657 156.60000000000002" fill="none" xmlns="http://www.w3.org/2000/svg" xmlns:xlink="http://www.w3.org/1999/xlink" overflow="visible" width="156.97674418604657px" height="156.60000000000002px"><g id="Master/Character/Avatar"><g id="Avatar"><path id="Mask" fill-rule="evenodd" clip-rule="evenodd" d="M274.682 231.62C274.682 273.075 241.076 306.682 199.62 306.682C158.164 306.682 124.558 273.075 124.558 231.62C124.558 190.164 158.164 156.558 199.62 156.558C241.076 156.558 274.682 190.164 274.682 231.62" fill="#EEF2F8"/><mask id="mask031628f0f-13c4-4dc6-a9ac-bb23639aef35" mask-type="alpha" maskUnits="userSpaceOnUse" x="124" y="156" width="151" height="151" fill="#ffffff"><path id="Mask_2" fill-rule="evenodd" clip-rule="evenodd" d="M274.682 231.62C274.682 273.075 241.076 306.682 199.62 306.682C158.164 306.682 124.558 273.075 124.558 231.62C124.558 190.164 158.164 156.558 199.62 156.558C241.076 156.558 274.682 190.164 274.682 231.62" fill="#ffffff"/></mask><g mask="url(#mask031628f0f-13c4-4dc6-a9ac-bb23639aef35)"><g id="Master/Character/Torso" transform="translate(-19 56) scale(1 1)"><g id="Master/Character/Torso"><g id="Head 2" transform="translate(189.79 120) scale(1 1)"><g id="Head 2/Happy"><path id="Path 2" fill-rule="evenodd" clip-rule="evenodd" d="M16 65.8323C16 65.8323 21.5224 62.2244 20.5403 47.3243C20.5403 47.3243 29.274 51.4116 38.8022 44.5006L41 65.6603C41 65.6603 34.3939 73.164 27.4671 72.4363C20.5403 71.7086 16 65.8323 16 65.8323Z" fill="#dcad7f"/><path id="Path 2 Copy" fill-rule="evenodd" clip-rule="evenodd" d="M20.7523 46.8715C26.3989 49.514 32.2957 48.6022 38.5087 44.0959C38.8203 43.8698 39.2598 44.066 39.2996 44.449L41.4974 65.6086C41.5118 65.7474 41.4675 65.8859 41.3753 65.9907C36.8731 71.1047 32.2136 73.4377 27.4149 72.9335C22.6587 72.4339 18.7133 70.1617 15.6044 66.1381C15.426 65.9072 15.4824 65.5733 15.7266 65.4138C19.2108 63.1374 20.6854 57.1264 20.0414 47.3572C20.0164 46.9776 20.4077 46.7102 20.7523 46.8715ZM40.479 65.492L38.392 45.4L37.9797 45.6795C32.2505 49.4704 26.6918 50.3258 21.3497 48.2176L21.088 48.111L21.1011 48.3404C21.5662 57.3108 20.1823 63.143 16.8667 65.8193L16.719 65.934L16.9567 66.2216C19.711 69.4853 23.0863 71.3695 27.1017 71.89L27.5194 71.939C31.9564 72.4051 36.3189 70.2208 40.6248 65.3299L40.479 65.492Z" fill="black"/><g id="Head"><path id="Combined Shape" fill-rule="evenodd" clip-rule="evenodd" d="M27.485 48.7008C17.392 48.7008 9.20996 40.0248 9.20996 29.3208C9.20996 18.6168 17.392 9.93982 27.485 9.93982C37.578 9.93982 45.76 18.6168 45.76 29.3208C45.76 40.0248 37.578 48.7008 27.485 48.7008Z" fill="#dcad7f"/><path id="Fill 18" fill-rule="evenodd" clip-rule="evenodd" d="M27.485 10.4399C17.684 10.4399 9.70996 18.9099 9.70996 29.3209C9.70996 39.7319 17.684 48.2009 27.485 48.2009C37.286 48.2009 45.26 39.7319 45.26 29.3209C45.26 18.9099 37.286 10.4399 27.485 10.4399M27.485 49.2009C17.132 49.2009 8.70996 40.2829 8.70996 29.3209C8.70996 18.3579 17.132 9.43994 27.485 9.43994C37.838 9.43994 46.26 18.3579 46.26 29.3209C46.26 40.2829 37.838 49.2009 27.485 49.2009" fill="black"/><g id="Group 14"><path id="Fill 1" fill-rule="evenodd" clip-rule="evenodd" d="M22.442 35.3454C22.4204 35.3454 22.3998 35.3443 22.3782 35.3413L19.1479 34.9507C18.9966 34.9323 18.8607 34.8503 18.7753 34.7252C18.6898 34.5981 18.6631 34.4434 18.7022 34.2968L19.6801 30.5924C19.7553 30.3126 20.0425 30.1445 20.3245 30.2193C20.6056 30.2921 20.7734 30.5801 20.6992 30.8589L19.8747 33.9811L22.5048 34.2988C22.7941 34.3347 23 34.5961 22.965 34.8841C22.932 35.1496 22.7045 35.3454 22.442 35.3454" fill="black"/><path id="Fill 3" fill-rule="evenodd" clip-rule="evenodd" d="M27.8556 28.6148C27.8556 29.565 27.3697 30.3337 26.7706 30.3337C26.1705 30.3337 25.6846 29.565 25.6846 28.6148C25.6846 27.6656 26.1705 26.8959 26.7706 26.8959C27.3697 26.8959 27.8556 27.6656 27.8556 28.6148" fill="black"/><path id="Fill 5" fill-rule="evenodd" clip-rule="evenodd" d="M17.3195 28.6148C17.3195 29.565 16.8336 30.3337 16.2334 30.3337C15.6343 30.3337 15.1484 29.565 15.1484 28.6148C15.1484 27.6656 15.6343 26.8959 16.2334 26.8959C16.8336 26.8959 17.3195 27.6656 17.3195 28.6148" fill="black"/><path id="Fill 7" fill-rule="evenodd" clip-rule="evenodd" d="M29.4772 24.5238C29.3547 24.5238 29.2332 24.4818 29.1344 24.3967C27.5367 23.0335 25.7188 23.0458 25.6961 23.0509C25.3997 23.0693 25.165 22.8254 25.1588 22.5363C25.1536 22.2463 25.3822 22.0085 25.6725 22.0013C25.761 21.9951 27.9073 21.9664 29.82 23.6023C30.0413 23.7899 30.066 24.121 29.8766 24.3414C29.7726 24.4613 29.6254 24.5238 29.4772 24.5238" fill="black"/><path id="Fill 9" fill-rule="evenodd" clip-rule="evenodd" d="M13.5266 24.5238C13.3784 24.5238 13.2312 24.4613 13.1272 24.3403C12.9378 24.121 12.9625 23.7899 13.1838 23.6013C15.0965 21.9674 17.2397 21.9972 17.3324 22.0013C17.6227 22.0084 17.8512 22.2462 17.845 22.5363C17.8399 22.8254 17.5928 23.0714 17.3087 23.0509C17.2984 23.0652 15.4681 23.0324 13.8694 24.3977C13.7706 24.4818 13.6491 24.5238 13.5266 24.5238" fill="black"/><path id="Fill 11" fill-rule="evenodd" clip-rule="evenodd" d="M22.4969 41.4884C20.4628 41.4884 18.9413 40.4942 18.9177 40.4788C18.6768 40.3158 18.613 39.993 18.7735 39.7521C18.9362 39.5102 19.2625 39.4466 19.5044 39.6065C19.6341 39.6937 22.7172 41.6811 25.7458 39.2457C25.9722 39.0633 26.3027 39.1002 26.4859 39.3247C26.6691 39.5491 26.6341 39.8812 26.4077 40.0616C25.0602 41.1461 23.691 41.4884 22.4969 41.4884" fill="black"/></g></g><path id="Path 2" fill-rule="evenodd" clip-rule="evenodd" d="M16 65.8323C16 65.8323 21.5224 62.2244 20.5403 47.3243C20.5403 47.3243 29.274 51.4116 38.8022 44.5006L41 65.6603C41 65.6603 34.3939 73.164 27.4671 72.4363C20.5403 71.7086 16 65.8323 16 65.8323Z" fill="#dcad7f"/><path id="Path 2 Copy_2" fill-rule="evenodd" clip-rule="evenodd" d="M20.7523 46.8715C26.3989 49.514 32.2957 48.6022 38.5087 44.0959C38.8203 43.8698 39.2598 44.066 39.2996 44.449L41.4974 65.6086C41.5118 65.7474 41.4675 65.8859 41.3753 65.9907C36.8731 71.1047 32.2136 73.4377 27.4149 72.9335C22.6587 72.4339 18.7133 70.1617 15.6044 66.1381C15.426 65.9072 15.4824 65.5733 15.7266 65.4138C19.2108 63.1374 20.6854 57.1264 20.0414 47.3572C20.0164 46.9776 20.4077 46.7102 20.7523 46.8715ZM40.479 65.492L38.392 45.4L37.9797 45.6795C32.2505 49.4704 26.6918 50.3258 21.3497 48.2176L21.088 48.111L21.1011 48.3404C21.5662 57.3108 20.1823 63.143 16.8667 65.8193L16.719 65.934L16.9567 66.2216C19.711 69.4853 23.0863 71.3695 27.1017 71.89L27.5194 71.939C31.9564 72.4051 36.3189 70.2208 40.6248 65.3299L40.479 65.492Z" fill="black"/></g></g><g id="Hair 2" transform="translate(107.79 57) scale(1 1)"><g id="Hair 2/Medium Top Bun"><g id="Group 6"><path id="Hair" fill-rule="evenodd" clip-rule="evenodd" d="M122.904 51.4487C122.904 44.1377 116.977 38.2117 109.666 38.2117C102.355 38.2117 96.4279 44.1377 96.4279 51.4487C96.4279 58.7607 102.355 64.6867 109.666 64.6867C116.977 64.6867 122.904 58.7607 122.904 51.4487M147.661 92.7907C135.303 91.1047 140.793 64.6867 117.008 64.6867H109.666H105.419C81.6329 64.6867 87.2299 91.1047 74.8729 92.7907C55.0729 95.4897 58.8009 115.419 58.8009 115.419H102.704L104.098 111.07H104.1C96.4509 108.554 90.8959 100.993 90.8959 92.0537C90.8959 87.7267 92.2129 83.7337 94.4239 80.4687H115.914C117.769 80.4687 119.33 81.8597 119.541 83.7027L120.507 92.1687C121.501 91.9807 122.605 92.1007 123.929 93.6557C124.42 94.2317 124.768 94.9617 124.762 95.7177C124.748 97.6867 123.146 99.2797 121.174 99.2797C121.054 99.2797 120.941 99.2557 120.826 99.2447L121.044 108.177L121.144 112.264L121.221 115.419H163.732C163.732 115.419 167.461 95.4897 147.661 92.7907" fill="#040226"/><path id="Fill 3" fill-rule="evenodd" clip-rule="evenodd" d="M163.293 114.907H121.721L121.351 99.7887C123.515 99.6947 125.258 97.9057 125.274 95.7217C125.28 94.9047 124.941 94.0527 124.319 93.3237C123.028 91.8077 121.871 91.5507 120.957 91.5947L120.049 83.6447C119.81 81.5417 118.031 79.9557 115.915 79.9557H94.4239C94.2539 79.9557 94.0949 80.0397 93.9999 80.1797C91.6339 83.6737 90.3849 87.7807 90.3849 92.0537C90.3849 100.874 95.6169 108.578 103.458 111.39L102.331 114.907H59.2419C58.9949 113.09 58.3109 105.713 62.3919 100.059C65.0739 96.3437 69.2969 94.0667 74.9419 93.2977C80.3199 92.5637 82.4869 87.3837 84.7819 81.8977C88.0569 74.0707 91.7689 65.1987 105.42 65.1987H117.008C130.662 65.1987 134.408 74.0727 137.714 81.9017C140.028 87.3857 142.215 92.5637 147.593 93.2977C153.234 94.0667 157.456 96.3397 160.14 100.053C164.218 105.698 163.537 113.086 163.293 114.907M96.9399 51.4497C96.9399 44.4327 102.649 38.7237 109.666 38.7237C116.683 38.7237 122.392 44.4327 122.392 51.4497C122.392 58.4667 116.683 64.1757 109.666 64.1757C102.649 64.1757 96.9399 58.4667 96.9399 51.4497M160.974 99.4607C158.12 95.5077 153.664 93.0927 147.73 92.2837C142.933 91.6287 140.951 86.9367 138.657 81.5047C135.397 73.7837 131.341 64.1757 117.008 64.1757H114.854C119.87 62.1227 123.416 57.1947 123.416 51.4497C123.416 43.8677 117.248 37.6997 109.666 37.6997C102.084 37.6997 95.9159 43.8677 95.9159 51.4497C95.9159 57.2147 99.4869 62.1537 104.529 64.1937C90.9239 64.5877 86.9999 73.9457 83.8389 81.5037C81.5639 86.9357 79.6029 91.6287 74.8039 92.2837C68.8699 93.0927 64.4139 95.5077 61.5609 99.4607C56.6429 106.276 58.2289 115.138 58.2989 115.512C58.3439 115.755 58.5559 115.93 58.8019 115.93H102.704C102.926 115.93 103.124 115.787 103.192 115.574L104.588 111.225C104.673 110.959 104.527 110.671 104.26 110.584C96.5729 108.056 91.4079 100.61 91.4079 92.0537C91.4079 88.0757 92.5449 84.2537 94.6969 80.9787H115.915C117.511 80.9787 118.852 82.1757 119.031 83.7607L119.998 92.2257C120.014 92.3677 120.089 92.4967 120.203 92.5807C120.318 92.6647 120.46 92.6967 120.603 92.6717C121.416 92.5147 122.335 92.5737 123.541 93.9877C124.003 94.5297 124.256 95.1427 124.25 95.7147C124.238 97.3977 122.858 98.7677 121.174 98.7677C121.118 98.7677 121.065 98.7597 121.012 98.7527L120.879 98.7357C120.732 98.7187 120.588 98.7667 120.479 98.8687C120.37 98.9687 120.312 99.1087 120.314 99.2567L120.71 115.431C120.717 115.709 120.944 115.93 121.222 115.93H163.732C163.979 115.93 164.19 115.755 164.235 115.512C164.306 115.138 165.893 106.276 160.974 99.4607" fill="black"/></g></g></g><g id="Torso Upper Body" transform="translate(1 41.7684) scale(1 1)"><g id="Torso Upper Body/Box Open"><g id="Group 21"><path id="Tshirt" fill-rule="evenodd" clip-rule="evenodd" d="M205.616 140.439C207.555 144.524 212.363 147.421 218.002 147.421C223.642 147.421 228.45 144.524 230.389 140.439H237.608C267.355 140.439 295.189 155.103 312.011 179.636L326.719 201.086H275.801L272.459 194.404L280.308 253.067H154.442L164.838 192.175L165.704 147.869L205.616 140.439Z" fill="#4B69FD"/><path id="Fill 3" fill-rule="evenodd" clip-rule="evenodd" d="M155.049 252.555H279.723L271.952 194.471C271.919 194.223 272.07 193.988 272.309 193.914C272.549 193.837 272.805 193.95 272.918 194.174L276.118 200.575H325.747L311.589 179.927C294.855 155.521 267.199 140.951 237.608 140.951H230.708C228.529 145.202 223.584 147.932 218.003 147.932C212.449 147.932 207.524 145.229 205.331 141.012L166.208 148.295L165.35 192.186L155.049 252.555ZM280.308 253.578H154.442C154.291 253.578 154.148 253.512 154.05 253.397C153.954 253.282 153.912 253.13 153.938 252.981L164.333 192.089L165.192 147.859C165.197 147.616 165.372 147.409 165.611 147.366L205.523 139.936C205.748 139.892 205.979 140.01 206.079 140.219C208.008 144.283 212.689 146.909 218.003 146.909C223.318 146.909 227.998 144.283 229.927 140.219C230.011 140.04 230.192 139.927 230.389 139.927H237.608C267.536 139.927 295.509 154.663 312.434 179.347L327.141 200.796C327.249 200.953 327.26 201.157 327.172 201.325C327.084 201.492 326.909 201.598 326.719 201.598H275.801C275.608 201.598 275.43 201.488 275.343 201.315L273.374 197.375L280.816 252.999C280.835 253.145 280.791 253.293 280.694 253.404C280.596 253.515 280.456 253.578 280.308 253.578V253.578Z" fill="black"/><path id="Fill 9" fill-rule="evenodd" clip-rule="evenodd" d="M69.9254 115.599L53.6484 99.3221Z" fill="#EEF2F8"/><path id="Box" fill-rule="evenodd" clip-rule="evenodd" d="M204.318 119.349H74.0332L86.2062 142.616H86.2052V220.091H192.146V142.617L192.147 142.616L204.318 119.349Z" fill="#FCBD21"/><path id="Fill 13" fill-rule="evenodd" clip-rule="evenodd" d="M191.837 142.104H86.516L74.879 119.861H203.473L191.837 142.104ZM191.634 219.58H166.916V208.946C166.916 208.663 166.687 208.433 166.404 208.433H111.948C111.666 208.433 111.437 208.663 111.437 208.946V219.58H86.718V143.127H191.634V219.58ZM112.46 219.542H165.892V209.458H112.46V219.542ZM204.756 119.083C204.663 118.931 204.497 118.836 204.318 118.836H74.034C73.855 118.836 73.689 118.931 73.596 119.083C73.503 119.237 73.498 119.427 73.581 119.585L85.694 142.74V220.091C85.694 220.375 85.923 220.603 86.206 220.603H192.147C192.429 220.603 192.658 220.375 192.658 220.091V142.742L204.772 119.585C204.855 119.427 204.849 119.237 204.756 119.083V119.083ZM54.01 98.411C53.81 98.21 53.486 98.21 53.286 98.411C53.086 98.61 53.086 98.934 53.286 99.134L69.563 115.412C69.663 115.511 69.795 115.561 69.925 115.561C70.056 115.561 70.187 115.511 70.287 115.412C70.487 115.211 70.487 114.887 70.287 114.688L54.01 98.411ZM75.377 114.043C75.659 114.043 75.888 113.815 75.888 113.532V90.512C75.888 90.229 75.659 90 75.377 90C75.093 90 74.864 90.229 74.864 90.512V113.532C74.864 113.815 75.093 114.043 75.377 114.043V114.043ZM68.531 119.332H45.512C45.229 119.332 45 119.561 45 119.843C45 120.126 45.229 120.356 45.512 120.356H68.531C68.815 120.356 69.044 120.126 69.044 119.843C69.044 119.561 68.815 119.332 68.531 119.332V119.332Z" fill="black"/><path id="Fill 16" fill-rule="evenodd" clip-rule="evenodd" d="M112.46 219.604H165.892V209.458H112.46V219.604Z" fill="#EEF2F8"/><path id="Skin" fill-rule="evenodd" clip-rule="evenodd" d="M107.336 162.554L85.8588 161.106L103.206 160.097C105.75 159.935 107.731 157.824 107.731 155.274C107.731 152.652 105.641 150.507 103.02 150.442L82.0978 149.911C82.0978 149.911 85.0588 144.67 88.9828 142.072C90.8398 140.842 91.8678 138.697 91.4968 136.5L91.4338 136.124C90.7998 132.372 86.6128 130.352 83.3238 132.265C76.9878 135.949 64.8848 146.023 64.8848 161.268C64.8848 185.441 75.5868 199.718 87.1268 199.718C93.5378 199.718 97.4498 199.093 99.7508 198.476C101.505 198.006 102.701 196.391 102.701 194.575C102.701 192.689 101.408 191.052 99.5698 190.628C95.4388 189.677 85.5048 189.984 86.0218 185.279L102.34 186.11C105.267 186.275 107.731 183.947 107.731 181.015C107.731 178.376 105.719 176.172 103.091 175.933L86.5888 174.572L107.515 172.46C110.038 172.184 111.949 170.053 111.949 167.515C111.949 164.908 109.936 162.743 107.336 162.554M319.665 201.086H277.833C277.833 201.086 293.223 226.225 277.877 234.888C262.53 243.552 193.18 220.641 193.18 220.641C193.18 220.641 174.368 214.452 172.883 222.373C172.719 223.248 172.724 224.033 172.862 224.736C172.862 224.736 167.252 223.456 164.56 220.115H139.313C139.313 220.115 134.95 231.718 175.698 242.949C175.698 242.949 190.643 247.868 196.955 251.21C203.267 254.552 273.564 287.906 309.022 261.73C344.48 235.554 319.665 201.086 319.665 201.086" fill="#dcad7f"/><path id="Fill 19" fill-rule="evenodd" clip-rule="evenodd" d="M308.718 261.318C272.117 288.34 197.927 251.146 197.194 250.757C190.917 247.435 176.008 242.512 175.834 242.455C149.681 235.248 142.487 227.877 140.526 224.125C139.637 222.423 139.647 221.186 139.723 220.627H147.249C147.22 220.802 147.212 221.002 147.243 221.228C147.503 223.123 150.193 225.339 155.238 227.814C165.185 232.697 177.562 236.44 177.686 236.477C177.735 236.492 177.785 236.5 177.833 236.5C178.054 236.5 178.257 236.356 178.324 236.134C178.405 235.865 178.251 235.578 177.981 235.498C177.858 235.461 165.562 231.741 155.689 226.895C149.58 223.897 148.415 222 148.265 221.134C148.223 220.893 148.262 220.732 148.308 220.627H164.32C166.807 223.536 171.277 224.855 172.459 225.163C173.939 230.83 183.345 231.285 183.73 231.298L190.784 231.918C190.799 231.92 190.814 231.92 190.829 231.92C191.092 231.92 191.315 231.718 191.339 231.453C191.364 231.172 191.155 230.923 190.873 230.898L183.795 230.277C183.7 230.274 174.392 229.837 173.365 224.637C173.234 223.972 173.241 223.243 173.386 222.467C173.596 221.345 174.192 220.509 175.207 219.909C180.19 216.962 192.892 221.085 193.019 221.127C193.193 221.185 210.597 226.915 229.654 231.511C255.337 237.707 271.647 238.993 278.128 235.335C281.499 233.431 283.693 230.601 284.647 226.925C287.137 217.32 280.576 204.843 278.727 201.598H319.397C320.343 202.993 325.566 211.082 327.14 221.705C329.444 237.265 323.246 250.592 308.718 261.318M320.081 200.787C319.985 200.654 319.83 200.574 319.665 200.574H277.834C277.649 200.574 277.478 200.674 277.387 200.837C277.297 200.998 277.3 201.195 277.397 201.353C277.488 201.502 286.373 216.196 283.655 226.67C282.773 230.066 280.744 232.681 277.625 234.443C262.65 242.899 194.032 220.382 193.34 220.155C192.8 219.976 180.067 215.845 174.687 219.027C173.42 219.776 172.644 220.87 172.38 222.28C172.266 222.889 172.226 223.479 172.26 224.043C170.694 223.58 166.949 222.265 164.958 219.795C164.862 219.673 164.715 219.603 164.56 219.603H139.312C139.099 219.603 138.908 219.735 138.833 219.935C138.805 220.007 138.174 221.763 139.567 224.5C142.006 229.288 150.231 236.461 175.538 243.435C175.688 243.484 190.514 248.38 196.715 251.664C197.256 251.949 237.55 272.149 273.644 272.147C286.806 272.146 299.413 269.46 309.325 262.142C344.781 235.968 320.332 201.136 320.081 200.787" fill="black"/><path id="Fill 20" fill-rule="evenodd" clip-rule="evenodd" d="M86.0211 132.041C85.1791 132.041 84.3421 132.264 83.5801 132.708C80.5431 134.474 65.3961 144.149 65.3961 161.268C65.3961 179.658 73.0121 199.205 87.1261 199.205C93.6741 199.205 97.5331 198.54 99.6171 197.981C101.131 197.576 102.188 196.175 102.188 194.574C102.188 192.915 101.064 191.497 99.4541 191.127C98.5001 190.906 97.1911 190.752 95.8041 190.588C91.0191 190.02 85.0621 189.314 85.5111 185.223C85.5411 184.952 85.7871 184.737 86.0461 184.768L102.364 185.599C103.638 185.673 104.853 185.228 105.779 184.352C106.707 183.476 107.218 182.29 107.218 181.015C107.218 178.625 105.423 176.659 103.044 176.442L86.5461 175.081C86.2821 175.061 86.0791 174.84 86.0761 174.576C86.0741 174.312 86.2741 174.089 86.5371 174.062L107.462 171.951C109.726 171.703 111.436 169.795 111.436 167.515C111.436 165.188 109.618 163.233 107.298 163.065L85.8241 161.616C85.5541 161.599 85.3451 161.374 85.3471 161.103C85.3481 160.833 85.5591 160.61 85.8291 160.595L103.175 159.586C105.441 159.442 107.218 157.547 107.218 155.273C107.218 152.91 105.368 151.013 103.005 150.953L82.0841 150.424C81.9051 150.419 81.7401 150.32 81.6511 150.164C81.5631 150.008 81.5631 149.816 81.6511 149.66C81.7741 149.441 84.7191 144.28 88.6991 141.645C90.4181 140.506 91.3181 138.52 90.9921 136.585L90.9281 136.209C90.6551 134.594 89.6041 133.213 88.1171 132.516C87.4411 132.199 86.7291 132.041 86.0211 132.041M87.1261 200.229C75.8191 200.229 64.3721 186.847 64.3721 161.268C64.3721 143.589 79.9441 133.638 83.0651 131.822C84.7631 130.835 86.7621 130.75 88.5511 131.589C90.3431 132.428 91.6081 134.092 91.9381 136.039L92.0011 136.415C92.3951 138.749 91.3211 141.136 89.2641 142.499C86.3541 144.427 83.9541 147.905 82.9931 149.423L103.031 149.93C105.953 150.004 108.242 152.351 108.242 155.273C108.242 158.086 106.043 160.429 103.237 160.607L94.0251 161.144L107.37 162.044C110.225 162.252 112.46 164.654 112.46 167.515C112.46 170.319 110.357 172.664 107.569 172.969L92.1951 174.52L103.132 175.422C106.047 175.688 108.242 178.092 108.242 181.015C108.242 182.575 107.617 184.024 106.483 185.096C105.349 186.167 103.864 186.702 102.31 186.62L86.5241 185.816C86.7751 188.487 91.8241 189.085 95.9251 189.57C97.3401 189.738 98.6761 189.896 99.6841 190.129C101.762 190.607 103.212 192.437 103.212 194.574C103.212 196.638 101.843 198.445 99.8821 198.971C97.7381 199.545 93.7851 200.229 87.1261 200.229" fill="black"/></g></g></g></g></g></g></g><path id="Fill 3" fill-rule="evenodd" clip-rule="evenodd" d="M199.62 157.117C158.539 157.117 125.117 190.539 125.117 231.621C125.117 272.702 158.539 306.124 199.62 306.124C240.701 306.124 274.123 272.702 274.123 231.621C274.123 190.539 240.701 157.117 199.62 157.117M199.62 307.241C157.923 307.241 124 273.318 124 231.621C124 189.924 157.923 156.001 199.62 156.001C241.317 156.001 275.24 189.924 275.24 231.621C275.24 273.318 241.317 307.241 199.62 307.241" fill="black"/></g></svg>