<svg viewBox="118.60465116279073 150.8 156.97674418604657 156.60000000000002" fill="none" xmlns="http://www.w3.org/2000/svg" xmlns:xlink="http://www.w3.org/1999/xlink" overflow="visible" width="156.97674418604657px" height="156.60000000000002px"><g id="Master/Character/Avatar"><g id="Avatar"><path id="Mask" fill-rule="evenodd" clip-rule="evenodd" d="M274.682 231.62C274.682 273.075 241.076 306.682 199.62 306.682C158.164 306.682 124.558 273.075 124.558 231.62C124.558 190.164 158.164 156.558 199.62 156.558C241.076 156.558 274.682 190.164 274.682 231.62" fill="#EEF2F8"/><mask id="mask031628f0f-13c4-4dc6-a9ac-bb23639aef35" mask-type="alpha" maskUnits="userSpaceOnUse" x="124" y="156" width="151" height="151" fill="#ffffff"><path id="Mask_2" fill-rule="evenodd" clip-rule="evenodd" d="M274.682 231.62C274.682 273.075 241.076 306.682 199.62 306.682C158.164 306.682 124.558 273.075 124.558 231.62C124.558 190.164 158.164 156.558 199.62 156.558C241.076 156.558 274.682 190.164 274.682 231.62" fill="#ffffff"/></mask><g mask="url(#mask031628f0f-13c4-4dc6-a9ac-bb23639aef35)"><g id="Master/Character/Torso" transform="translate(-19 56) scale(1 1)"><g id="Master/Character/Torso"><g id="Head 2" transform="translate(189.79 120) scale(1 1)"><g id="Head 2/Happy"><path id="Path 2" fill-rule="evenodd" clip-rule="evenodd" d="M16 65.8323C16 65.8323 21.5224 62.2244 20.5403 47.3243C20.5403 47.3243 29.274 51.4116 38.8022 44.5006L41 65.6603C41 65.6603 34.3939 73.164 27.4671 72.4363C20.5403 71.7086 16 65.8323 16 65.8323Z" fill="#dcad7f"/><path id="Path 2 Copy" fill-rule="evenodd" clip-rule="evenodd" d="M20.7523 46.8715C26.3989 49.514 32.2957 48.6022 38.5087 44.0959C38.8203 43.8698 39.2598 44.066 39.2996 44.449L41.4974 65.6086C41.5118 65.7474 41.4675 65.8859 41.3753 65.9907C36.8731 71.1047 32.2136 73.4377 27.4149 72.9335C22.6587 72.4339 18.7133 70.1617 15.6044 66.1381C15.426 65.9072 15.4824 65.5733 15.7266 65.4138C19.2108 63.1374 20.6854 57.1264 20.0414 47.3572C20.0164 46.9776 20.4077 46.7102 20.7523 46.8715ZM40.479 65.492L38.392 45.4L37.9797 45.6795C32.2505 49.4704 26.6918 50.3258 21.3497 48.2176L21.088 48.111L21.1011 48.3404C21.5662 57.3108 20.1823 63.143 16.8667 65.8193L16.719 65.934L16.9567 66.2216C19.711 69.4853 23.0863 71.3695 27.1017 71.89L27.5194 71.939C31.9564 72.4051 36.3189 70.2208 40.6248 65.3299L40.479 65.492Z" fill="black"/><g id="Head"><path id="Combined Shape" fill-rule="evenodd" clip-rule="evenodd" d="M27.485 48.7008C17.392 48.7008 9.20996 40.0248 9.20996 29.3208C9.20996 18.6168 17.392 9.93982 27.485 9.93982C37.578 9.93982 45.76 18.6168 45.76 29.3208C45.76 40.0248 37.578 48.7008 27.485 48.7008Z" fill="#dcad7f"/><path id="Fill 18" fill-rule="evenodd" clip-rule="evenodd" d="M27.485 10.4399C17.684 10.4399 9.70996 18.9099 9.70996 29.3209C9.70996 39.7319 17.684 48.2009 27.485 48.2009C37.286 48.2009 45.26 39.7319 45.26 29.3209C45.26 18.9099 37.286 10.4399 27.485 10.4399M27.485 49.2009C17.132 49.2009 8.70996 40.2829 8.70996 29.3209C8.70996 18.3579 17.132 9.43994 27.485 9.43994C37.838 9.43994 46.26 18.3579 46.26 29.3209C46.26 40.2829 37.838 49.2009 27.485 49.2009" fill="black"/><g id="Group 14"><path id="Fill 1" fill-rule="evenodd" clip-rule="evenodd" d="M22.442 35.3454C22.4204 35.3454 22.3998 35.3443 22.3782 35.3413L19.1479 34.9507C18.9966 34.9323 18.8607 34.8503 18.7753 34.7252C18.6898 34.5981 18.6631 34.4434 18.7022 34.2968L19.6801 30.5924C19.7553 30.3126 20.0425 30.1445 20.3245 30.2193C20.6056 30.2921 20.7734 30.5801 20.6992 30.8589L19.8747 33.9811L22.5048 34.2988C22.7941 34.3347 23 34.5961 22.965 34.8841C22.932 35.1496 22.7045 35.3454 22.442 35.3454" fill="black"/><path id="Fill 3" fill-rule="evenodd" clip-rule="evenodd" d="M27.8556 28.6148C27.8556 29.565 27.3697 30.3337 26.7706 30.3337C26.1705 30.3337 25.6846 29.565 25.6846 28.6148C25.6846 27.6656 26.1705 26.8959 26.7706 26.8959C27.3697 26.8959 27.8556 27.6656 27.8556 28.6148" fill="black"/><path id="Fill 5" fill-rule="evenodd" clip-rule="evenodd" d="M17.3195 28.6148C17.3195 29.565 16.8336 30.3337 16.2334 30.3337C15.6343 30.3337 15.1484 29.565 15.1484 28.6148C15.1484 27.6656 15.6343 26.8959 16.2334 26.8959C16.8336 26.8959 17.3195 27.6656 17.3195 28.6148" fill="black"/><path id="Fill 7" fill-rule="evenodd" clip-rule="evenodd" d="M29.4772 24.5238C29.3547 24.5238 29.2332 24.4818 29.1344 24.3967C27.5367 23.0335 25.7188 23.0458 25.6961 23.0509C25.3997 23.0693 25.165 22.8254 25.1588 22.5363C25.1536 22.2463 25.3822 22.0085 25.6725 22.0013C25.761 21.9951 27.9073 21.9664 29.82 23.6023C30.0413 23.7899 30.066 24.121 29.8766 24.3414C29.7726 24.4613 29.6254 24.5238 29.4772 24.5238" fill="black"/><path id="Fill 9" fill-rule="evenodd" clip-rule="evenodd" d="M13.5266 24.5238C13.3784 24.5238 13.2312 24.4613 13.1272 24.3403C12.9378 24.121 12.9625 23.7899 13.1838 23.6013C15.0965 21.9674 17.2397 21.9972 17.3324 22.0013C17.6227 22.0084 17.8512 22.2462 17.845 22.5363C17.8399 22.8254 17.5928 23.0714 17.3087 23.0509C17.2984 23.0652 15.4681 23.0324 13.8694 24.3977C13.7706 24.4818 13.6491 24.5238 13.5266 24.5238" fill="black"/><path id="Fill 11" fill-rule="evenodd" clip-rule="evenodd" d="M22.4969 41.4884C20.4628 41.4884 18.9413 40.4942 18.9177 40.4788C18.6768 40.3158 18.613 39.993 18.7735 39.7521C18.9362 39.5102 19.2625 39.4466 19.5044 39.6065C19.6341 39.6937 22.7172 41.6811 25.7458 39.2457C25.9722 39.0633 26.3027 39.1002 26.4859 39.3247C26.6691 39.5491 26.6341 39.8812 26.4077 40.0616C25.0602 41.1461 23.691 41.4884 22.4969 41.4884" fill="black"/></g></g><path id="Path 2" fill-rule="evenodd" clip-rule="evenodd" d="M16 65.8323C16 65.8323 21.5224 62.2244 20.5403 47.3243C20.5403 47.3243 29.274 51.4116 38.8022 44.5006L41 65.6603C41 65.6603 34.3939 73.164 27.4671 72.4363C20.5403 71.7086 16 65.8323 16 65.8323Z" fill="#dcad7f"/><path id="Path 2 Copy_2" fill-rule="evenodd" clip-rule="evenodd" d="M20.7523 46.8715C26.3989 49.514 32.2957 48.6022 38.5087 44.0959C38.8203 43.8698 39.2598 44.066 39.2996 44.449L41.4974 65.6086C41.5118 65.7474 41.4675 65.8859 41.3753 65.9907C36.8731 71.1047 32.2136 73.4377 27.4149 72.9335C22.6587 72.4339 18.7133 70.1617 15.6044 66.1381C15.426 65.9072 15.4824 65.5733 15.7266 65.4138C19.2108 63.1374 20.6854 57.1264 20.0414 47.3572C20.0164 46.9776 20.4077 46.7102 20.7523 46.8715ZM40.479 65.492L38.392 45.4L37.9797 45.6795C32.2505 49.4704 26.6918 50.3258 21.3497 48.2176L21.088 48.111L21.1011 48.3404C21.5662 57.3108 20.1823 63.143 16.8667 65.8193L16.719 65.934L16.9567 66.2216C19.711 69.4853 23.0863 71.3695 27.1017 71.89L27.5194 71.939C31.9564 72.4051 36.3189 70.2208 40.6248 65.3299L40.479 65.492Z" fill="black"/></g></g><g id="Hair 2" transform="translate(107.79 57) scale(1 1)"><g id="Hair 2/Ponytail"><g id="Group 6"><path id="Hair" fill-rule="evenodd" clip-rule="evenodd" d="M174.765 79.83C180.689 76.189 184.653 69.669 184.653 62.206C184.653 50.777 175.388 41.512 163.958 41.512C156.922 41.512 150.716 45.031 146.977 50.397C144.448 48.554 141.343 47.453 137.974 47.453C129.515 47.453 122.658 54.309 122.658 62.768C122.658 64.402 122.919 65.975 123.394 67.451C120.774 66.535 117.6 66.017 113.747 66.017C95.3687 66.017 93.5117 79.94 93.5117 79.94H119.75L121.087 91.641C121.303 91.601 121.525 91.574 121.753 91.574C123.736 91.574 125.342 93.181 125.342 95.163C125.342 97.145 123.736 98.752 121.753 98.752C121.634 98.752 121.522 98.728 121.406 98.717L121.801 107.518C129.536 107.518 134.262 99.444 135.175 91.064C135.278 90.549 135.334 89.894 135.324 89.038V89.02C135.377 87.437 135.29 85.867 135.062 84.359C134.807 81.947 134.337 79.595 133.529 77.424C134.936 77.85 136.427 78.084 137.974 78.084C141.584 78.084 144.898 76.826 147.516 74.736C150.045 78.049 153.538 80.582 157.592 81.893C154.392 84.699 152.361 88.808 152.361 93.399C152.361 101.857 159.218 108.715 167.677 108.715C176.135 108.715 182.993 101.857 182.993 93.399C182.993 87.5 179.653 82.389 174.765 79.83" fill="#eff2f7"/><path id="Fill 3" fill-rule="evenodd" clip-rule="evenodd" d="M167.676 108.203C159.514 108.203 152.873 101.562 152.873 93.399C152.873 89.068 154.759 85.183 157.734 82.474C159.701 83.084 161.791 83.412 163.958 83.412C167.9 83.412 171.579 82.311 174.744 80.432C179.344 82.941 182.48 87.801 182.48 93.399C182.48 101.562 175.839 108.203 167.676 108.203M148.241 74.79C151.638 71.885 153.801 67.578 153.801 62.768C153.801 57.707 151.405 53.205 147.697 50.307C151.372 45.296 157.282 42.023 163.958 42.023C175.087 42.023 184.141 51.077 184.141 62.207C184.141 73.334 175.087 82.388 163.958 82.388C157.594 82.388 151.936 79.41 148.241 74.79M133.844 76.965C131.94 72.152 128.624 68.877 123.848 67.103C123.421 65.73 123.17 64.281 123.17 62.768C123.17 54.605 129.811 47.965 137.974 47.965C146.136 47.965 152.777 54.605 152.777 62.768C152.777 70.932 146.136 77.572 137.974 77.572C136.537 77.572 135.155 77.351 133.844 76.965M134.811 89.003C134.811 89.011 134.812 89.036 134.812 89.044C134.822 89.816 134.775 90.445 134.666 91.009C133.844 98.549 129.629 106.65 122.29 106.996L121.943 99.26C124.116 99.161 125.855 97.36 125.855 95.163C125.855 92.83 123.916 90.903 121.536 91.069L120.26 79.883C120.23 79.623 120.011 79.429 119.751 79.429H94.1269C94.7019 76.814 97.9679 66.529 113.746 66.529C126.652 66.529 133.262 72.212 134.556 84.434C134.78 85.914 134.865 87.451 134.811 89.003M175.749 79.82C181.422 76.011 185.164 69.539 185.164 62.207C185.164 50.514 175.651 41 163.958 41C156.947 41 150.74 44.434 146.878 49.693C144.339 47.959 141.274 46.941 137.974 46.941C129.246 46.941 122.147 54.041 122.147 62.768C122.147 64.12 122.327 65.428 122.648 66.681C120.069 65.896 117.106 65.505 113.746 65.505C95.1349 65.505 93.0249 79.729 93.0039 79.873C92.9859 80.019 93.0299 80.166 93.1269 80.277C93.2239 80.389 93.3639 80.452 93.5119 80.452H119.294L120.577 91.699C120.594 91.84 120.668 91.969 120.782 92.053C120.898 92.137 121.04 92.172 121.182 92.144C121.367 92.109 121.558 92.086 121.753 92.086C123.45 92.086 124.831 93.466 124.831 95.163C124.831 96.859 123.45 98.24 121.753 98.24C121.699 98.24 121.648 98.231 121.595 98.224L121.453 98.207C121.311 98.2 121.16 98.244 121.053 98.346C120.946 98.448 120.888 98.592 120.895 98.74L121.29 107.541C121.302 107.815 121.528 108.03 121.801 108.03C130.072 108.03 134.796 99.265 135.677 91.164C135.791 90.586 135.844 89.906 135.834 89.039H135.835C135.891 87.423 135.801 85.823 135.571 84.305C135.331 82.043 134.899 79.998 134.286 78.15C135.47 78.435 136.702 78.596 137.974 78.596C141.525 78.596 144.796 77.406 147.44 75.423C149.83 78.414 153.002 80.752 156.653 82.105C153.705 84.98 151.849 88.967 151.849 93.399C151.849 102.127 158.948 109.227 167.676 109.227C176.404 109.227 183.503 102.127 183.503 93.399C183.503 87.623 180.384 82.579 175.749 79.82" fill="black"/></g></g></g><g id="Torso Upper Body" transform="translate(1 41.7684) scale(1 1)"><g id="Torso Upper Body/Neutral Arms Sweater"><g id="Group 18"><path id="Skin" fill-rule="evenodd" clip-rule="evenodd" d="M356.801 320.448L348.292 305.558C342.248 294.983 338.078 283.412 336.277 271.365C330.462 232.468 318.169 196.434 305.013 176.133C300.307 168.872 295.126 162.803 289.971 157.776C277.516 145.627 256.564 153.486 255.284 170.839C254.761 177.927 258.041 184.67 263.737 188.921C292.941 210.717 305.431 279.799 306.315 289.027C307.289 299.193 296.892 298.138 295.192 319.26C293.304 342.719 303.489 344.47 307.705 342.121C311.921 339.771 309.384 320.816 309.384 320.816C318.455 333.171 312.402 352.174 319.035 357.893C325.197 363.209 330.979 357.775 330.979 357.775C341.055 360.924 345.172 352.793 345.172 352.793C356.75 351.097 355.486 340.03 355.486 340.03C362.454 332.321 356.801 320.448 356.801 320.448M183.168 170.839C181.888 153.486 160.936 145.627 148.481 157.776C143.326 162.803 138.145 168.872 133.439 176.133C120.283 196.434 107.99 232.468 102.176 271.365C100.375 283.412 96.2042 294.983 90.1602 305.558L81.6512 320.448C81.6512 320.448 75.9982 332.321 82.9662 340.03C82.9662 340.03 81.7032 351.097 93.2802 352.793C93.2802 352.793 97.3972 360.924 107.473 357.775C107.473 357.775 113.255 363.209 119.418 357.893C126.05 352.174 119.998 333.171 129.069 320.816C129.069 320.816 126.531 339.771 130.748 342.121C134.964 344.47 145.148 342.719 143.26 319.26C141.56 298.138 131.163 299.193 132.137 289.027C133.021 279.799 145.511 210.717 174.716 188.921C180.412 184.67 183.691 177.927 183.168 170.839" fill="#dcad7f"/><path id="Fill 3" fill-rule="evenodd" clip-rule="evenodd" d="M344.552 316.805C350.779 328.438 353.766 334.571 354.979 340.112C355.045 340.731 355.888 350.42 345.533 352.208C346.811 347.44 346.171 338.059 337.914 319.679C337.799 319.42 337.497 319.304 337.238 319.422C336.98 319.538 336.865 319.841 336.981 320.099C346.435 341.145 345.522 349.846 344.136 353.159C343.973 353.549 343.799 353.866 343.623 354.149C343.22 354.631 342.7 355.17 342.056 355.689C341.96 355.725 341.888 355.791 341.831 355.869C339.743 357.463 336.44 358.762 331.675 357.442C332.458 355.249 334.347 346.457 326.957 322.859C326.872 322.59 326.585 322.436 326.316 322.523C326.046 322.608 325.896 322.895 325.98 323.164C334.001 348.777 330.898 356.725 330.562 357.463C329.909 358.043 324.835 362.22 319.368 357.506C316.448 354.987 316.113 349.557 315.725 343.269C315.264 335.78 314.739 327.294 309.836 320.573C309.827 316.549 311.103 314.836 311.12 314.814C311.294 314.593 311.256 314.274 311.035 314.097C310.815 313.92 310.492 313.958 310.317 314.179C310.21 314.313 307.736 317.54 309.353 325.539C309.354 325.543 309.357 325.547 309.358 325.551C309.844 331.76 309.93 340.295 307.455 341.674C306.012 342.481 303.475 342.871 301.079 341.331C298.54 339.7 294.465 334.667 295.702 319.3C296.646 307.574 300.251 302.841 303.149 299.037C305.451 296.016 307.27 293.629 306.824 288.98C305.898 279.301 293.099 210.196 264.042 188.511C258.375 184.282 255.292 177.689 255.794 170.877C256.369 163.075 261.265 156.51 268.57 153.743C275.916 150.956 283.978 152.645 289.614 158.143C295.26 163.652 300.297 169.798 304.583 176.411C318.198 197.42 330.148 233.834 335.77 271.442C337.549 283.338 341.613 294.904 347.847 305.814L356.338 320.668C356.391 320.78 361.394 331.545 355.747 338.913C354.383 333.505 351.368 327.369 345.454 316.321C345.321 316.072 345.012 315.975 344.762 316.112C344.512 316.244 344.418 316.555 344.552 316.805M357.245 320.194L348.736 305.306C342.564 294.506 338.542 283.062 336.782 271.289C331.14 233.547 319.131 196.979 305.442 175.856C301.115 169.177 296.03 162.971 290.329 157.409C284.406 151.633 275.929 149.862 268.207 152.784C260.526 155.695 255.378 162.598 254.774 170.801C254.245 177.965 257.481 184.892 263.43 189.33C292.191 210.796 304.884 279.458 305.805 289.077C306.212 293.326 304.585 295.462 302.334 298.416C299.356 302.326 295.649 307.192 294.681 319.218C293.466 334.322 297.189 340.049 300.526 342.194C303.303 343.979 306.263 343.51 307.953 342.569C311.612 340.53 310.704 328.131 310.145 322.896C313.825 329.088 314.289 336.618 314.703 343.332C315.106 349.851 315.452 355.48 318.7 358.282C320.823 360.114 322.913 360.728 324.763 360.728C327.906 360.728 330.356 358.952 331.098 358.348C336.388 359.912 340.086 358.431 342.431 356.639C342.574 356.585 343.638 356.14 344.578 354.553C345.029 353.996 345.335 353.527 345.493 353.261C356.219 351.545 356.111 341.852 356.013 340.208C362.903 332.332 357.321 320.349 357.245 320.194M174.409 188.511C145.353 210.196 132.554 279.301 131.627 288.98C131.181 293.629 133 296.016 135.303 299.037C138.2 302.841 141.806 307.574 142.749 319.3C143.987 334.667 139.911 339.7 137.372 341.331C134.976 342.87 132.44 342.479 130.996 341.674C128.522 340.295 128.608 331.76 129.094 325.551C129.095 325.547 129.097 325.543 129.098 325.539C130.716 317.54 128.241 314.313 128.135 314.179C127.96 313.96 127.641 313.924 127.419 314.096C127.198 314.27 127.159 314.591 127.331 314.814C127.348 314.836 128.624 316.549 128.615 320.573C123.714 327.294 123.188 335.78 122.726 343.269C122.339 349.557 122.004 354.987 119.083 357.506C113.616 362.224 108.544 358.043 107.89 357.463C107.553 356.725 104.451 348.776 112.471 323.164C112.556 322.895 112.406 322.608 112.136 322.523C111.865 322.436 111.578 322.588 111.494 322.859C104.104 346.456 105.993 355.249 106.777 357.442C102.007 358.764 98.7023 357.462 96.6153 355.868C96.5583 355.788 96.4853 355.72 96.3873 355.684C96.3873 355.684 96.3853 355.683 96.3843 355.682C95.7483 355.168 95.2333 354.634 94.8333 354.155C94.6563 353.871 94.4803 353.553 94.3163 353.159C92.9303 349.846 92.0173 341.145 101.471 320.099C101.587 319.841 101.471 319.538 101.214 319.422C100.955 319.306 100.653 319.421 100.537 319.679C92.2813 338.059 91.6413 347.44 92.9183 352.209C82.5763 350.422 83.4043 340.755 83.4723 340.115C84.6843 334.573 87.6713 328.44 93.9003 316.805C94.0333 316.555 93.9403 316.244 93.6903 316.112C93.4403 315.975 93.1313 316.072 92.9973 316.321C87.0833 327.368 84.0683 333.504 82.7043 338.913C77.0583 331.545 82.0593 320.782 82.0953 320.701L90.6043 305.814C96.8403 294.904 100.903 283.338 102.681 271.442C108.303 233.834 120.254 197.42 133.868 176.411C138.155 169.797 143.192 163.652 148.838 158.143C154.473 152.645 162.538 150.96 169.881 153.743C177.187 156.508 182.081 163.075 182.657 170.877C183.159 177.689 180.076 184.282 174.409 188.511M170.244 152.784C162.524 149.86 154.047 151.632 148.123 157.409C142.422 162.971 137.337 169.177 133.01 175.856C119.32 196.979 107.311 233.547 101.669 271.289C99.9093 283.062 95.8883 294.506 89.7153 305.306L81.1883 320.228C81.1313 320.349 75.5493 332.332 82.4393 340.208C82.3413 341.852 82.2333 351.545 92.9583 353.261C93.1163 353.528 93.4243 353.998 93.8753 354.556C94.8143 356.137 95.8733 356.584 96.0203 356.638C98.3653 358.43 102.063 359.911 107.354 358.348C108.096 358.952 110.546 360.728 113.689 360.728C115.538 360.728 117.628 360.114 119.752 358.282C122.999 355.48 123.346 349.851 123.748 343.332C124.162 336.618 124.626 329.088 128.306 322.896C127.746 328.131 126.84 340.53 130.497 342.569C132.188 343.511 135.148 343.98 137.926 342.194C141.263 340.049 144.986 334.322 143.77 319.218C142.802 307.192 139.095 302.326 136.117 298.416C133.866 295.462 132.239 293.326 132.646 289.077C133.567 279.458 146.261 210.796 175.021 189.33C180.97 184.892 184.206 177.965 183.678 170.801C183.073 162.598 177.926 155.695 170.244 152.784" fill="black"/><path id="Sweater" fill-rule="evenodd" clip-rule="evenodd" d="M342.249 264.271C342.249 264.271 336.639 253.39 324.258 204.528C311.877 155.666 266.664 144.786 266.664 144.786V144.787C260.125 142.701 253.32 141.348 246.365 140.798C246.333 140.796 246.302 140.792 246.27 140.79C245.212 140.707 244.15 140.648 243.085 140.602C242.977 140.598 242.869 140.588 242.761 140.583C241.594 140.539 240.423 140.515 239.25 140.515H232.024C232.023 140.519 232.02 140.522 232.018 140.525L231.962 140.515C231.962 140.515 231.961 140.515 231.961 140.516L231.955 140.515C230.02 144.59 225.229 147.481 219.606 147.495C213.984 147.481 209.193 144.59 207.258 140.515L207.252 140.516C207.252 140.515 207.251 140.515 207.251 140.515L207.195 140.525C207.193 140.522 207.19 140.519 207.189 140.515H199.963C198.79 140.515 197.619 140.539 196.452 140.583C196.344 140.588 196.236 140.598 196.128 140.602C195.063 140.648 194.001 140.707 192.942 140.79C192.911 140.792 192.88 140.796 192.848 140.798C185.893 141.348 179.087 142.701 172.549 144.787V144.786C172.549 144.786 127.335 155.666 114.955 204.528C102.574 253.39 96.9639 264.271 96.9639 264.271H140.091C140.091 264.271 147.612 229.833 160.928 210.149C159.954 226.658 156.91 253.142 156.91 253.142H282.304C282.304 253.142 279.259 226.658 278.286 210.149C291.601 229.833 299.122 264.271 299.122 264.271H342.249Z" fill="#4B69FD"/><path id="Fill 7" fill-rule="evenodd" clip-rule="evenodd" d="M159.955 223.059L163.005 192.548Z" fill="#426AFF"/><path id="Fill 9" fill-rule="evenodd" clip-rule="evenodd" d="M279.089 221.727L276.32 192.572Z" fill="#426AFF"/><path id="Fill 11" fill-rule="evenodd" clip-rule="evenodd" d="M280.007 231.351H159.195L159.776 225.092H279.436L280.007 231.351Z" fill="#FF4200"/><path id="Fill 13" fill-rule="evenodd" clip-rule="evenodd" d="M280.579 237.585H158.615L159.196 231.325H280.008L280.579 237.585Z" fill="#FFBA00"/><path id="Fill 15" fill-rule="evenodd" clip-rule="evenodd" d="M299.531 263.759C298.633 259.829 291.152 228.254 278.709 209.862C278.647 209.769 278.557 209.703 278.457 209.668L276.829 192.524C276.802 192.242 276.56 192.044 276.271 192.063C275.989 192.089 275.783 192.339 275.81 192.62L278.579 221.776C278.586 221.853 278.614 221.922 278.652 221.986C278.726 222.847 278.801 223.712 278.878 224.579H160.334C160.378 224.092 160.421 223.604 160.463 223.117C160.463 223.115 160.465 223.113 160.465 223.112L163.515 192.6C163.543 192.319 163.338 192.068 163.056 192.039C162.777 192.014 162.524 192.216 162.496 192.497L160.781 209.66C160.67 209.694 160.571 209.761 160.503 209.862C148.061 228.254 140.579 259.829 139.681 263.759H97.7631C99.1661 260.58 104.877 246.384 115.451 204.653C127.453 157.281 171.082 145.686 172.63 145.291C172.656 145.287 172.68 145.282 172.704 145.275C179.255 143.184 186.045 141.849 192.982 141.299C194.034 141.217 195.091 141.158 196.151 141.113L196.472 141.095C197.632 141.05 198.796 141.026 199.963 141.026H206.94C209.111 145.264 214.041 147.992 219.608 148.006C225.172 147.992 230.102 145.264 232.273 141.026H239.25C240.417 141.026 241.581 141.05 242.741 141.095L243.064 141.114C244.122 141.158 245.178 141.217 246.222 141.299C246.224 141.299 246.322 141.308 246.324 141.308C253.167 141.849 259.958 143.184 266.509 145.275C266.532 145.282 266.557 145.287 266.582 145.291C268.12 145.682 311.758 157.276 323.761 204.653C334.335 246.384 340.046 260.58 341.449 263.759H299.531ZM157.483 252.631C157.682 250.863 158.318 245.179 159.039 238.098H280.174C280.894 245.179 281.531 250.863 281.73 252.631H157.483ZM279.444 230.814H159.759L159.769 230.71C159.929 229.027 160.089 227.316 160.243 225.604H278.968L279.444 230.814ZM159.659 231.863H279.542L280.018 237.073H159.176L159.659 231.863ZM342.704 264.035C342.648 263.928 336.979 252.65 324.754 204.401C312.441 155.801 267.239 144.397 266.783 144.286C266.781 144.286 266.78 144.285 266.779 144.285C260.166 142.179 253.312 140.834 246.413 140.288C246.41 140.288 246.314 140.28 246.31 140.28C245.246 140.196 244.178 140.137 243.109 140.091L242.78 140.071C241.607 140.027 240.43 140.002 239.25 140.002H232.024C232.01 140.002 231.996 140.002 231.983 140.003C231.761 139.975 231.582 140.107 231.492 140.294C229.57 144.345 224.904 146.97 219.608 146.983C214.309 146.97 209.643 144.345 207.72 140.294C207.636 140.116 207.448 140.002 207.251 140.002C207.236 140.001 207.212 140.001 207.189 140.002H199.963C198.782 140.002 197.606 140.027 196.433 140.071L196.106 140.09C195.035 140.137 193.967 140.196 192.808 140.288C185.901 140.834 179.047 142.179 172.434 144.285C172.433 144.285 172.431 144.286 172.429 144.286C171.974 144.397 126.772 155.801 114.458 204.401C102.253 252.572 96.5651 263.928 96.5091 264.037C96.4271 264.195 96.4341 264.385 96.5271 264.537C96.6191 264.69 96.7851 264.782 96.9631 264.782H140.091C140.331 264.782 140.54 264.614 140.591 264.379C140.664 264.045 147.839 231.643 160.296 212.045C160.031 216.101 159.66 220.65 159.251 225.202L158.741 230.703C158.723 230.895 158.704 231.085 158.686 231.277C158.686 231.278 158.685 231.278 158.685 231.279L158.676 231.375C157.57 242.876 156.419 252.922 156.401 253.084C156.384 253.23 156.429 253.375 156.527 253.484C156.624 253.592 156.763 253.655 156.909 253.655H282.304C282.449 253.655 282.589 253.592 282.686 253.484C282.783 253.375 282.829 253.23 282.812 253.084C282.783 252.83 279.987 228.418 278.916 212.045C291.373 231.643 298.549 264.045 298.622 264.379C298.673 264.614 298.881 264.782 299.122 264.782H342.249C342.428 264.782 342.594 264.69 342.686 264.537C342.779 264.385 342.786 264.195 342.704 264.035V264.035Z" fill="black"/></g></g></g></g></g></g></g><path id="Fill 3" fill-rule="evenodd" clip-rule="evenodd" d="M199.62 157.117C158.539 157.117 125.117 190.539 125.117 231.621C125.117 272.702 158.539 306.124 199.62 306.124C240.701 306.124 274.123 272.702 274.123 231.621C274.123 190.539 240.701 157.117 199.62 157.117M199.62 307.241C157.923 307.241 124 273.318 124 231.621C124 189.924 157.923 156.001 199.62 156.001C241.317 156.001 275.24 189.924 275.24 231.621C275.24 273.318 241.317 307.241 199.62 307.241" fill="black"/></g></svg>