<svg viewBox="118.60465116279073 150.8 156.97674418604657 156.60000000000002" fill="none" xmlns="http://www.w3.org/2000/svg" xmlns:xlink="http://www.w3.org/1999/xlink" overflow="visible" width="156.97674418604657px" height="156.60000000000002px"><g id="Master/Character/Avatar"><g id="Avatar"><path id="Mask" fill-rule="evenodd" clip-rule="evenodd" d="M274.682 231.62C274.682 273.075 241.076 306.682 199.62 306.682C158.164 306.682 124.558 273.075 124.558 231.62C124.558 190.164 158.164 156.558 199.62 156.558C241.076 156.558 274.682 190.164 274.682 231.62" fill="#EEF2F8"/><mask id="mask031628f0f-13c4-4dc6-a9ac-bb23639aef35" mask-type="alpha" maskUnits="userSpaceOnUse" x="124" y="156" width="151" height="151" fill="#ffffff"><path id="Mask_2" fill-rule="evenodd" clip-rule="evenodd" d="M274.682 231.62C274.682 273.075 241.076 306.682 199.62 306.682C158.164 306.682 124.558 273.075 124.558 231.62C124.558 190.164 158.164 156.558 199.62 156.558C241.076 156.558 274.682 190.164 274.682 231.62" fill="#ffffff"/></mask><g mask="url(#mask031628f0f-13c4-4dc6-a9ac-bb23639aef35)"><g id="Master/Character/Torso" transform="translate(-19 56) scale(1 1)"><g id="Master/Character/Torso"><g id="Head 2" transform="translate(189.79 120) scale(1 1)"><g id="Head 2/Funny"><path id="Path 2" fill-rule="evenodd" clip-rule="evenodd" d="M16 65.8323C16 65.8323 21.5224 62.2244 20.5403 47.3243C20.5403 47.3243 29.274 51.4116 38.8022 44.5006L41 65.6603C41 65.6603 34.3939 73.164 27.4671 72.4363C20.5403 71.7086 16 65.8323 16 65.8323Z" fill="#fbefe3"/><path id="Path 2 Copy" fill-rule="evenodd" clip-rule="evenodd" d="M20.7523 46.8715C26.3989 49.514 32.2957 48.6022 38.5087 44.0959C38.8203 43.8698 39.2598 44.066 39.2996 44.449L41.4974 65.6086C41.5118 65.7474 41.4675 65.8859 41.3753 65.9907C36.8731 71.1047 32.2136 73.4377 27.4149 72.9335C22.6587 72.4339 18.7133 70.1617 15.6044 66.1381C15.426 65.9072 15.4824 65.5733 15.7266 65.4138C19.2108 63.1374 20.6854 57.1264 20.0414 47.3572C20.0164 46.9776 20.4077 46.7102 20.7523 46.8715ZM40.479 65.492L38.392 45.4L37.9797 45.6795C32.2505 49.4704 26.6918 50.3258 21.3497 48.2176L21.088 48.111L21.1011 48.3404C21.5662 57.3108 20.1823 63.143 16.8667 65.8193L16.719 65.934L16.9567 66.2216C19.711 69.4853 23.0863 71.3695 27.1017 71.89L27.5194 71.939C31.9564 72.4051 36.3189 70.2208 40.6248 65.3299L40.479 65.492Z" fill="black"/><g id="Head"><path id="Combined Shape" fill-rule="evenodd" clip-rule="evenodd" d="M27.485 48.7008C17.392 48.7008 9.20996 40.0248 9.20996 29.3208C9.20996 18.6168 17.392 9.93982 27.485 9.93982C37.578 9.93982 45.76 18.6168 45.76 29.3208C45.76 40.0248 37.578 48.7008 27.485 48.7008Z" fill="#fbefe3"/><path id="Fill 18" fill-rule="evenodd" clip-rule="evenodd" d="M27.485 10.4399C17.684 10.4399 9.70996 18.9099 9.70996 29.3209C9.70996 39.7319 17.684 48.2009 27.485 48.2009C37.286 48.2009 45.26 39.7319 45.26 29.3209C45.26 18.9099 37.286 10.4399 27.485 10.4399M27.485 49.2009C17.132 49.2009 8.70996 40.2829 8.70996 29.3209C8.70996 18.3579 17.132 9.43994 27.485 9.43994C37.838 9.43994 46.26 18.3579 46.26 29.3209C46.26 40.2829 37.838 49.2009 27.485 49.2009" fill="black"/><path id="Fill 21" fill-rule="evenodd" clip-rule="evenodd" d="M22.3651 35.2921C22.3451 35.2921 22.3251 35.2911 22.3041 35.2891L19.2491 34.9181C19.1061 34.9001 18.9771 34.8221 18.8961 34.7021C18.8151 34.5831 18.7891 34.4341 18.8261 34.2941L19.7521 30.7751C19.8231 30.5091 20.0961 30.3511 20.3631 30.4191C20.6291 30.4901 20.7891 30.7631 20.7191 31.0301L19.9391 33.9941L22.4251 34.2951C22.6991 34.3291 22.8941 34.5781 22.8611 34.8521C22.8301 35.1061 22.6151 35.2921 22.3651 35.2921" fill="black"/><path id="Fill 22" fill-rule="evenodd" clip-rule="evenodd" d="M27.4851 28.8979C27.4851 29.7989 27.0261 30.5299 26.4591 30.5299C25.8911 30.5299 25.4321 29.7989 25.4321 28.8979C25.4321 27.9959 25.8911 27.2649 26.4591 27.2649C27.0261 27.2649 27.4851 27.9959 27.4851 28.8979" fill="black"/><path id="Fill 23" fill-rule="evenodd" clip-rule="evenodd" d="M17.5203 28.8979C17.5203 29.7989 17.0603 30.5299 16.4933 30.5299C15.9263 30.5299 15.4663 29.7989 15.4663 28.8979C15.4663 27.9959 15.9263 27.2649 16.4933 27.2649C17.0603 27.2649 17.5203 27.9959 17.5203 28.8979" fill="black"/><path id="Fill 24" fill-rule="evenodd" clip-rule="evenodd" d="M29.0188 25.0131C28.9028 25.0131 28.7878 24.9731 28.6928 24.8921C27.1708 23.5861 25.4648 23.6191 25.4438 23.6141C25.1638 23.6141 24.9388 23.4011 24.9318 23.1251C24.9258 22.8491 25.1438 22.6201 25.4198 22.6141C25.5038 22.6151 27.5368 22.5821 29.3448 24.1341C29.5538 24.3131 29.5778 24.6291 29.3978 24.8391C29.2988 24.9541 29.1598 25.0131 29.0188 25.0131" fill="black"/><path id="Fill 25" fill-rule="evenodd" clip-rule="evenodd" d="M13.9334 25.0131C13.7924 25.0131 13.6534 24.9541 13.5544 24.8391C13.3744 24.6291 13.3984 24.3141 13.6074 24.1341C15.4144 22.5821 17.4474 22.6111 17.5324 22.6141C17.8074 22.6201 18.0244 22.8481 18.0194 23.1241C18.0144 23.3991 17.7974 23.5851 17.5104 23.6141C17.4854 23.6111 15.7614 23.6031 14.2594 24.8921C14.1644 24.9731 14.0494 25.0131 13.9334 25.0131" fill="black"/><path id="Fill 26" fill-rule="evenodd" clip-rule="evenodd" d="M22.0183 41.1421C20.4003 41.1421 19.1463 40.6431 19.1193 40.6321C18.8643 40.5271 18.7423 40.2361 18.8473 39.9801C18.9513 39.7251 19.2433 39.6021 19.4983 39.7061C19.6973 39.7881 24.3933 41.6351 26.7873 37.2821C26.9203 37.0401 27.2253 36.9521 27.4663 37.0841C27.7083 37.2171 27.7963 37.5211 27.6633 37.7631C26.1603 40.4981 23.8553 41.1421 22.0183 41.1421" fill="black"/><path id="Fill 27" fill-rule="evenodd" clip-rule="evenodd" d="M24.7944 40.0698C24.7944 40.0698 26.3494 43.5018 27.9764 41.8748C29.6044 40.2468 26.9824 38.7488 26.9824 38.7488" fill="#FF4200"/><path id="Fill 28" fill-rule="evenodd" clip-rule="evenodd" d="M27.0572 42.8121C26.9552 42.8121 26.8602 42.8021 26.7762 42.7871C25.3992 42.5361 24.4432 40.5071 24.3392 40.2761C24.2252 40.0251 24.3362 39.7291 24.5882 39.6151C24.8402 39.5011 25.1362 39.6121 25.2492 39.8631C25.5622 40.5501 26.3022 41.6851 26.9552 41.8031C27.0972 41.8301 27.3172 41.8271 27.6232 41.5211C27.9162 41.2281 28.0402 40.9441 28.0022 40.6531C27.9152 39.9971 27.0572 39.3691 26.7332 39.1821C26.4942 39.0441 26.4112 38.7391 26.5492 38.5001C26.6852 38.2611 26.9912 38.1761 27.2302 38.3141C27.3922 38.4071 28.8242 39.2591 28.9932 40.5191C29.0492 40.9391 28.9802 41.5781 28.3302 42.2281C27.8712 42.6871 27.4172 42.8121 27.0572 42.8121" fill="black"/></g></g></g><g id="Hair 2" transform="translate(107.79 57) scale(1 1)"><g id="Hair 2/Curly Medium"><g id="Group 6"><path id="Hair" fill-rule="evenodd" clip-rule="evenodd" d="M103.937 110.869L99.836 123.695H44.7104C44.7104 123.695 41.5812 115.001 45.4471 110.869C49.3119 106.736 57.0427 99.3026 53.5457 91.5187C50.0486 83.7358 49.8642 68.8277 64.7734 66.243C79.6837 63.6563 68.8237 56.4545 83.733 49.9898C98.6422 43.5261 110.238 60.1484 110.238 60.1484C116.313 45.9267 133.41 47.5524 140.463 51.9109C151.101 58.486 142.45 73.0758 160.856 69.936C179.263 66.7962 189.019 77.878 190.123 85.6082C191.228 93.3383 183.865 99.4876 190.491 107.983C197.117 116.479 190.491 124.403 190.491 124.403H120.867C120.867 124.403 115.27 109.399 119.565 104.473C121.712 102.012 121.439 99.6409 120.631 97.8859C119.699 95.8673 119.153 93.6756 119.389 91.463C119.7 88.555 119.011 84.5914 113.796 82.5569C104.961 79.1087 108.41 71.7208 108.41 71.7208C107.502 77.108 101.679 80.5552 97.9571 80.5552C94.236 80.5552 92.1776 84.5884 92.1776 84.5884L91.6065 86.3225C91.1107 88.1063 90.845 89.9966 90.845 91.9505C90.845 100.626 96.0861 107.998 103.383 110.677L103.937 110.869Z" fill="#4b2500"/><path id="Fill 3" fill-rule="evenodd" clip-rule="evenodd" d="M121.224 123.894H190.246C191.183 122.669 195.914 115.763 190.091 108.297C185.812 102.808 187.163 98.214 188.47 93.7709C189.235 91.1763 190.024 88.4951 189.62 85.6806C189.052 81.7021 186.222 77.4182 182.236 74.5022C178.344 71.6549 171.491 68.6355 160.942 70.4392C149.479 72.3911 148.014 67.4337 146.46 62.1817C145.398 58.5932 144.301 54.8824 140.196 52.3444C135.993 49.7478 128.249 48.2257 121.589 50.3457C116.512 51.9614 112.85 55.3261 110.706 60.3492C110.632 60.5183 110.473 60.6347 110.292 60.6546C110.1 60.6735 109.928 60.5899 109.824 60.4407C109.71 60.2765 98.2829 44.2303 83.9339 50.4582C76.8714 53.5194 75.7748 56.705 74.8091 59.5165C73.7294 62.6563 72.7964 65.3683 64.8594 66.7452C59.6956 67.6396 56.0231 70.088 53.9439 74.0187C51.0656 79.4587 51.9024 86.6227 54.0084 91.3096C57.436 98.9373 50.6214 106.137 46.5503 110.44L45.8166 111.217C42.6249 114.63 44.5683 121.578 45.0769 123.184H99.4678L103.302 111.188L103.218 111.157C95.5097 108.328 90.337 100.611 90.337 91.9503C90.337 89.9904 90.5998 88.0514 91.1183 86.186L91.6954 84.4291C91.8154 84.1803 93.9719 80.0466 97.9567 80.0466C101.001 80.0466 105.668 77.5425 107.371 73.4825C107.57 72.3374 107.921 71.5673 107.95 71.5057C108.058 71.2739 108.318 71.1575 108.562 71.2341C108.804 71.3107 108.953 71.5554 108.911 71.8061C108.796 72.4876 108.607 73.1373 108.362 73.7561C108.194 74.7947 108.173 76.1607 108.723 77.5306C109.512 79.4965 111.282 81.0286 113.98 82.0822C119.471 84.2241 120.228 88.3946 119.895 91.5175C119.69 93.4346 120.091 95.506 121.091 97.6728C121.894 99.4098 122.345 102.058 119.946 104.808C116.242 109.058 120.447 121.683 121.224 123.894M190.491 124.912H120.867C120.655 124.912 120.465 124.781 120.391 124.581C120.159 123.957 114.74 109.233 119.182 104.138C120.82 102.26 121.153 100.23 120.17 98.1006C119.093 95.7636 118.66 93.5122 118.885 91.4081C119.18 88.6403 118.506 84.9414 113.613 83.0313C110.635 81.8692 108.672 80.1421 107.777 77.8997C107.487 77.1735 107.334 76.4542 107.272 75.7776C104.962 79.1244 100.869 81.0654 97.9567 81.0654C94.5975 81.0654 92.6482 84.7832 92.6274 84.822L92.088 86.4825C91.6022 88.2354 91.3523 90.0839 91.3523 91.9503C91.3523 100.185 96.2573 107.518 103.558 110.197L104.102 110.387C104.363 110.478 104.506 110.76 104.421 111.023L100.32 123.849C100.254 124.06 100.058 124.204 99.8376 124.204H44.711C44.4969 124.204 44.3065 124.07 44.2331 123.868C44.1013 123.5 41.0454 114.831 45.0769 110.521L45.8146 109.738C49.7092 105.622 56.2303 98.7323 53.0823 91.7274C50.8752 86.8138 50.0076 79.2856 53.0466 73.5422C55.2814 69.3169 59.1979 66.6935 64.6878 65.7404C72.0329 64.4669 72.834 62.135 73.8493 59.1842C74.8339 56.3229 76.0574 52.7623 83.5314 49.522C96.8532 43.7477 107.663 56.0384 110.128 59.1603C112.416 54.3481 116.257 50.9735 121.283 49.3757C128.24 47.1631 136.33 48.7599 140.728 51.4769C145.165 54.2188 146.37 58.2948 147.434 61.8932C148.977 67.1153 150.203 71.238 160.771 69.4343C171.671 67.5769 178.785 70.7177 182.834 73.6785C187.098 76.7984 190.01 81.2305 190.626 85.5353C191.06 88.5697 190.238 91.3603 189.445 94.0594C188.153 98.4478 186.932 102.593 190.891 107.668C197.692 116.389 190.949 124.648 190.879 124.73C190.783 124.846 190.641 124.912 190.491 124.912" fill="black"/></g></g></g><g id="Torso Upper Body" transform="translate(1 41.7684) scale(1 1)"><g id="Torso Upper Body/Neutral Arms Sweater"><g id="Group 18"><path id="Skin" fill-rule="evenodd" clip-rule="evenodd" d="M356.801 320.448L348.292 305.558C342.248 294.983 338.078 283.412 336.277 271.365C330.462 232.468 318.169 196.434 305.013 176.133C300.307 168.872 295.126 162.803 289.971 157.776C277.516 145.627 256.564 153.486 255.284 170.839C254.761 177.927 258.041 184.67 263.737 188.921C292.941 210.717 305.431 279.799 306.315 289.027C307.289 299.193 296.892 298.138 295.192 319.26C293.304 342.719 303.489 344.47 307.705 342.121C311.921 339.771 309.384 320.816 309.384 320.816C318.455 333.171 312.402 352.174 319.035 357.893C325.197 363.209 330.979 357.775 330.979 357.775C341.055 360.924 345.172 352.793 345.172 352.793C356.75 351.097 355.486 340.03 355.486 340.03C362.454 332.321 356.801 320.448 356.801 320.448M183.168 170.839C181.888 153.486 160.936 145.627 148.481 157.776C143.326 162.803 138.145 168.872 133.439 176.133C120.283 196.434 107.99 232.468 102.176 271.365C100.375 283.412 96.2042 294.983 90.1602 305.558L81.6512 320.448C81.6512 320.448 75.9982 332.321 82.9662 340.03C82.9662 340.03 81.7032 351.097 93.2802 352.793C93.2802 352.793 97.3972 360.924 107.473 357.775C107.473 357.775 113.255 363.209 119.418 357.893C126.05 352.174 119.998 333.171 129.069 320.816C129.069 320.816 126.531 339.771 130.748 342.121C134.964 344.47 145.148 342.719 143.26 319.26C141.56 298.138 131.163 299.193 132.137 289.027C133.021 279.799 145.511 210.717 174.716 188.921C180.412 184.67 183.691 177.927 183.168 170.839" fill="#fbefe3"/><path id="Fill 3" fill-rule="evenodd" clip-rule="evenodd" d="M344.552 316.805C350.779 328.438 353.766 334.571 354.979 340.112C355.045 340.731 355.888 350.42 345.533 352.208C346.811 347.44 346.171 338.059 337.914 319.679C337.799 319.42 337.497 319.304 337.238 319.422C336.98 319.538 336.865 319.841 336.981 320.099C346.435 341.145 345.522 349.846 344.136 353.159C343.973 353.549 343.799 353.866 343.623 354.149C343.22 354.631 342.7 355.17 342.056 355.689C341.96 355.725 341.888 355.791 341.831 355.869C339.743 357.463 336.44 358.762 331.675 357.442C332.458 355.249 334.347 346.457 326.957 322.859C326.872 322.59 326.585 322.436 326.316 322.523C326.046 322.608 325.896 322.895 325.98 323.164C334.001 348.777 330.898 356.725 330.562 357.463C329.909 358.043 324.835 362.22 319.368 357.506C316.448 354.987 316.113 349.557 315.725 343.269C315.264 335.78 314.739 327.294 309.836 320.573C309.827 316.549 311.103 314.836 311.12 314.814C311.294 314.593 311.256 314.274 311.035 314.097C310.815 313.92 310.492 313.958 310.317 314.179C310.21 314.313 307.736 317.54 309.353 325.539C309.354 325.543 309.357 325.547 309.358 325.551C309.844 331.76 309.93 340.295 307.455 341.674C306.012 342.481 303.475 342.871 301.079 341.331C298.54 339.7 294.465 334.667 295.702 319.3C296.646 307.574 300.251 302.841 303.149 299.037C305.451 296.016 307.27 293.629 306.824 288.98C305.898 279.301 293.099 210.196 264.042 188.511C258.375 184.282 255.292 177.689 255.794 170.877C256.369 163.075 261.265 156.51 268.57 153.743C275.916 150.956 283.978 152.645 289.614 158.143C295.26 163.652 300.297 169.798 304.583 176.411C318.198 197.42 330.148 233.834 335.77 271.442C337.549 283.338 341.613 294.904 347.847 305.814L356.338 320.668C356.391 320.78 361.394 331.545 355.747 338.913C354.383 333.505 351.368 327.369 345.454 316.321C345.321 316.072 345.012 315.975 344.762 316.112C344.512 316.244 344.418 316.555 344.552 316.805M357.245 320.194L348.736 305.306C342.564 294.506 338.542 283.062 336.782 271.289C331.14 233.547 319.131 196.979 305.442 175.856C301.115 169.177 296.03 162.971 290.329 157.409C284.406 151.633 275.929 149.862 268.207 152.784C260.526 155.695 255.378 162.598 254.774 170.801C254.245 177.965 257.481 184.892 263.43 189.33C292.191 210.796 304.884 279.458 305.805 289.077C306.212 293.326 304.585 295.462 302.334 298.416C299.356 302.326 295.649 307.192 294.681 319.218C293.466 334.322 297.189 340.049 300.526 342.194C303.303 343.979 306.263 343.51 307.953 342.569C311.612 340.53 310.704 328.131 310.145 322.896C313.825 329.088 314.289 336.618 314.703 343.332C315.106 349.851 315.452 355.48 318.7 358.282C320.823 360.114 322.913 360.728 324.763 360.728C327.906 360.728 330.356 358.952 331.098 358.348C336.388 359.912 340.086 358.431 342.431 356.639C342.574 356.585 343.638 356.14 344.578 354.553C345.029 353.996 345.335 353.527 345.493 353.261C356.219 351.545 356.111 341.852 356.013 340.208C362.903 332.332 357.321 320.349 357.245 320.194M174.409 188.511C145.353 210.196 132.554 279.301 131.627 288.98C131.181 293.629 133 296.016 135.303 299.037C138.2 302.841 141.806 307.574 142.749 319.3C143.987 334.667 139.911 339.7 137.372 341.331C134.976 342.87 132.44 342.479 130.996 341.674C128.522 340.295 128.608 331.76 129.094 325.551C129.095 325.547 129.097 325.543 129.098 325.539C130.716 317.54 128.241 314.313 128.135 314.179C127.96 313.96 127.641 313.924 127.419 314.096C127.198 314.27 127.159 314.591 127.331 314.814C127.348 314.836 128.624 316.549 128.615 320.573C123.714 327.294 123.188 335.78 122.726 343.269C122.339 349.557 122.004 354.987 119.083 357.506C113.616 362.224 108.544 358.043 107.89 357.463C107.553 356.725 104.451 348.776 112.471 323.164C112.556 322.895 112.406 322.608 112.136 322.523C111.865 322.436 111.578 322.588 111.494 322.859C104.104 346.456 105.993 355.249 106.777 357.442C102.007 358.764 98.7023 357.462 96.6153 355.868C96.5583 355.788 96.4853 355.72 96.3873 355.684C96.3873 355.684 96.3853 355.683 96.3843 355.682C95.7483 355.168 95.2333 354.634 94.8333 354.155C94.6563 353.871 94.4803 353.553 94.3163 353.159C92.9303 349.846 92.0173 341.145 101.471 320.099C101.587 319.841 101.471 319.538 101.214 319.422C100.955 319.306 100.653 319.421 100.537 319.679C92.2813 338.059 91.6413 347.44 92.9183 352.209C82.5763 350.422 83.4043 340.755 83.4723 340.115C84.6843 334.573 87.6713 328.44 93.9003 316.805C94.0333 316.555 93.9403 316.244 93.6903 316.112C93.4403 315.975 93.1313 316.072 92.9973 316.321C87.0833 327.368 84.0683 333.504 82.7043 338.913C77.0583 331.545 82.0593 320.782 82.0953 320.701L90.6043 305.814C96.8403 294.904 100.903 283.338 102.681 271.442C108.303 233.834 120.254 197.42 133.868 176.411C138.155 169.797 143.192 163.652 148.838 158.143C154.473 152.645 162.538 150.96 169.881 153.743C177.187 156.508 182.081 163.075 182.657 170.877C183.159 177.689 180.076 184.282 174.409 188.511M170.244 152.784C162.524 149.86 154.047 151.632 148.123 157.409C142.422 162.971 137.337 169.177 133.01 175.856C119.32 196.979 107.311 233.547 101.669 271.289C99.9093 283.062 95.8883 294.506 89.7153 305.306L81.1883 320.228C81.1313 320.349 75.5493 332.332 82.4393 340.208C82.3413 341.852 82.2333 351.545 92.9583 353.261C93.1163 353.528 93.4243 353.998 93.8753 354.556C94.8143 356.137 95.8733 356.584 96.0203 356.638C98.3653 358.43 102.063 359.911 107.354 358.348C108.096 358.952 110.546 360.728 113.689 360.728C115.538 360.728 117.628 360.114 119.752 358.282C122.999 355.48 123.346 349.851 123.748 343.332C124.162 336.618 124.626 329.088 128.306 322.896C127.746 328.131 126.84 340.53 130.497 342.569C132.188 343.511 135.148 343.98 137.926 342.194C141.263 340.049 144.986 334.322 143.77 319.218C142.802 307.192 139.095 302.326 136.117 298.416C133.866 295.462 132.239 293.326 132.646 289.077C133.567 279.458 146.261 210.796 175.021 189.33C180.97 184.892 184.206 177.965 183.678 170.801C183.073 162.598 177.926 155.695 170.244 152.784" fill="black"/><path id="Sweater" fill-rule="evenodd" clip-rule="evenodd" d="M342.249 264.271C342.249 264.271 336.639 253.39 324.258 204.528C311.877 155.666 266.664 144.786 266.664 144.786V144.787C260.125 142.701 253.32 141.348 246.365 140.798C246.333 140.796 246.302 140.792 246.27 140.79C245.212 140.707 244.15 140.648 243.085 140.602C242.977 140.598 242.869 140.588 242.761 140.583C241.594 140.539 240.423 140.515 239.25 140.515H232.024C232.023 140.519 232.02 140.522 232.018 140.525L231.962 140.515C231.962 140.515 231.961 140.515 231.961 140.516L231.955 140.515C230.02 144.59 225.229 147.481 219.606 147.495C213.984 147.481 209.193 144.59 207.258 140.515L207.252 140.516C207.252 140.515 207.251 140.515 207.251 140.515L207.195 140.525C207.193 140.522 207.19 140.519 207.189 140.515H199.963C198.79 140.515 197.619 140.539 196.452 140.583C196.344 140.588 196.236 140.598 196.128 140.602C195.063 140.648 194.001 140.707 192.942 140.79C192.911 140.792 192.88 140.796 192.848 140.798C185.893 141.348 179.087 142.701 172.549 144.787V144.786C172.549 144.786 127.335 155.666 114.955 204.528C102.574 253.39 96.9639 264.271 96.9639 264.271H140.091C140.091 264.271 147.612 229.833 160.928 210.149C159.954 226.658 156.91 253.142 156.91 253.142H282.304C282.304 253.142 279.259 226.658 278.286 210.149C291.601 229.833 299.122 264.271 299.122 264.271H342.249Z" fill="#4B69FD"/><path id="Fill 7" fill-rule="evenodd" clip-rule="evenodd" d="M159.955 223.059L163.005 192.548Z" fill="#426AFF"/><path id="Fill 9" fill-rule="evenodd" clip-rule="evenodd" d="M279.089 221.727L276.32 192.572Z" fill="#426AFF"/><path id="Fill 11" fill-rule="evenodd" clip-rule="evenodd" d="M280.007 231.351H159.195L159.776 225.092H279.436L280.007 231.351Z" fill="#FF4200"/><path id="Fill 13" fill-rule="evenodd" clip-rule="evenodd" d="M280.579 237.585H158.615L159.196 231.325H280.008L280.579 237.585Z" fill="#FFBA00"/><path id="Fill 15" fill-rule="evenodd" clip-rule="evenodd" d="M299.531 263.759C298.633 259.829 291.152 228.254 278.709 209.862C278.647 209.769 278.557 209.703 278.457 209.668L276.829 192.524C276.802 192.242 276.56 192.044 276.271 192.063C275.989 192.089 275.783 192.339 275.81 192.62L278.579 221.776C278.586 221.853 278.614 221.922 278.652 221.986C278.726 222.847 278.801 223.712 278.878 224.579H160.334C160.378 224.092 160.421 223.604 160.463 223.117C160.463 223.115 160.465 223.113 160.465 223.112L163.515 192.6C163.543 192.319 163.338 192.068 163.056 192.039C162.777 192.014 162.524 192.216 162.496 192.497L160.781 209.66C160.67 209.694 160.571 209.761 160.503 209.862C148.061 228.254 140.579 259.829 139.681 263.759H97.7631C99.1661 260.58 104.877 246.384 115.451 204.653C127.453 157.281 171.082 145.686 172.63 145.291C172.656 145.287 172.68 145.282 172.704 145.275C179.255 143.184 186.045 141.849 192.982 141.299C194.034 141.217 195.091 141.158 196.151 141.113L196.472 141.095C197.632 141.05 198.796 141.026 199.963 141.026H206.94C209.111 145.264 214.041 147.992 219.608 148.006C225.172 147.992 230.102 145.264 232.273 141.026H239.25C240.417 141.026 241.581 141.05 242.741 141.095L243.064 141.114C244.122 141.158 245.178 141.217 246.222 141.299C246.224 141.299 246.322 141.308 246.324 141.308C253.167 141.849 259.958 143.184 266.509 145.275C266.532 145.282 266.557 145.287 266.582 145.291C268.12 145.682 311.758 157.276 323.761 204.653C334.335 246.384 340.046 260.58 341.449 263.759H299.531ZM157.483 252.631C157.682 250.863 158.318 245.179 159.039 238.098H280.174C280.894 245.179 281.531 250.863 281.73 252.631H157.483ZM279.444 230.814H159.759L159.769 230.71C159.929 229.027 160.089 227.316 160.243 225.604H278.968L279.444 230.814ZM159.659 231.863H279.542L280.018 237.073H159.176L159.659 231.863ZM342.704 264.035C342.648 263.928 336.979 252.65 324.754 204.401C312.441 155.801 267.239 144.397 266.783 144.286C266.781 144.286 266.78 144.285 266.779 144.285C260.166 142.179 253.312 140.834 246.413 140.288C246.41 140.288 246.314 140.28 246.31 140.28C245.246 140.196 244.178 140.137 243.109 140.091L242.78 140.071C241.607 140.027 240.43 140.002 239.25 140.002H232.024C232.01 140.002 231.996 140.002 231.983 140.003C231.761 139.975 231.582 140.107 231.492 140.294C229.57 144.345 224.904 146.97 219.608 146.983C214.309 146.97 209.643 144.345 207.72 140.294C207.636 140.116 207.448 140.002 207.251 140.002C207.236 140.001 207.212 140.001 207.189 140.002H199.963C198.782 140.002 197.606 140.027 196.433 140.071L196.106 140.09C195.035 140.137 193.967 140.196 192.808 140.288C185.901 140.834 179.047 142.179 172.434 144.285C172.433 144.285 172.431 144.286 172.429 144.286C171.974 144.397 126.772 155.801 114.458 204.401C102.253 252.572 96.5651 263.928 96.5091 264.037C96.4271 264.195 96.4341 264.385 96.5271 264.537C96.6191 264.69 96.7851 264.782 96.9631 264.782H140.091C140.331 264.782 140.54 264.614 140.591 264.379C140.664 264.045 147.839 231.643 160.296 212.045C160.031 216.101 159.66 220.65 159.251 225.202L158.741 230.703C158.723 230.895 158.704 231.085 158.686 231.277C158.686 231.278 158.685 231.278 158.685 231.279L158.676 231.375C157.57 242.876 156.419 252.922 156.401 253.084C156.384 253.23 156.429 253.375 156.527 253.484C156.624 253.592 156.763 253.655 156.909 253.655H282.304C282.449 253.655 282.589 253.592 282.686 253.484C282.783 253.375 282.829 253.23 282.812 253.084C282.783 252.83 279.987 228.418 278.916 212.045C291.373 231.643 298.549 264.045 298.622 264.379C298.673 264.614 298.881 264.782 299.122 264.782H342.249C342.428 264.782 342.594 264.69 342.686 264.537C342.779 264.385 342.786 264.195 342.704 264.035V264.035Z" fill="black"/></g></g></g></g></g></g></g><path id="Fill 3" fill-rule="evenodd" clip-rule="evenodd" d="M199.62 157.117C158.539 157.117 125.117 190.539 125.117 231.621C125.117 272.702 158.539 306.124 199.62 306.124C240.701 306.124 274.123 272.702 274.123 231.621C274.123 190.539 240.701 157.117 199.62 157.117M199.62 307.241C157.923 307.241 124 273.318 124 231.621C124 189.924 157.923 156.001 199.62 156.001C241.317 156.001 275.24 189.924 275.24 231.621C275.24 273.318 241.317 307.241 199.62 307.241" fill="black"/></g></svg>