<svg viewBox="118.60465116279073 150.8 156.97674418604657 156.60000000000002" fill="none" xmlns="http://www.w3.org/2000/svg" xmlns:xlink="http://www.w3.org/1999/xlink" overflow="visible" width="156.97674418604657px" height="156.60000000000002px"><g id="Master/Character/Avatar"><g id="Avatar"><path id="Mask" fill-rule="evenodd" clip-rule="evenodd" d="M274.682 231.62C274.682 273.075 241.076 306.682 199.62 306.682C158.164 306.682 124.558 273.075 124.558 231.62C124.558 190.164 158.164 156.558 199.62 156.558C241.076 156.558 274.682 190.164 274.682 231.62" fill="#EEF2F8"/><mask id="mask031628f0f-13c4-4dc6-a9ac-bb23639aef35" mask-type="alpha" maskUnits="userSpaceOnUse" x="124" y="156" width="151" height="151" fill="#ffffff"><path id="Mask_2" fill-rule="evenodd" clip-rule="evenodd" d="M274.682 231.62C274.682 273.075 241.076 306.682 199.62 306.682C158.164 306.682 124.558 273.075 124.558 231.62C124.558 190.164 158.164 156.558 199.62 156.558C241.076 156.558 274.682 190.164 274.682 231.62" fill="#ffffff"/></mask><g mask="url(#mask031628f0f-13c4-4dc6-a9ac-bb23639aef35)"><g id="Master/Character/Torso" transform="translate(-19 56) scale(1 1)"><g id="Master/Character/Torso"><g id="Head 2" transform="translate(189.79 120) scale(1 1)"><g id="Head 2/Funny"><path id="Path 2" fill-rule="evenodd" clip-rule="evenodd" d="M16 65.8323C16 65.8323 21.5224 62.2244 20.5403 47.3243C20.5403 47.3243 29.274 51.4116 38.8022 44.5006L41 65.6603C41 65.6603 34.3939 73.164 27.4671 72.4363C20.5403 71.7086 16 65.8323 16 65.8323Z" fill="#8b4500"/><path id="Path 2 Copy" fill-rule="evenodd" clip-rule="evenodd" d="M20.7523 46.8715C26.3989 49.514 32.2957 48.6022 38.5087 44.0959C38.8203 43.8698 39.2598 44.066 39.2996 44.449L41.4974 65.6086C41.5118 65.7474 41.4675 65.8859 41.3753 65.9907C36.8731 71.1047 32.2136 73.4377 27.4149 72.9335C22.6587 72.4339 18.7133 70.1617 15.6044 66.1381C15.426 65.9072 15.4824 65.5733 15.7266 65.4138C19.2108 63.1374 20.6854 57.1264 20.0414 47.3572C20.0164 46.9776 20.4077 46.7102 20.7523 46.8715ZM40.479 65.492L38.392 45.4L37.9797 45.6795C32.2505 49.4704 26.6918 50.3258 21.3497 48.2176L21.088 48.111L21.1011 48.3404C21.5662 57.3108 20.1823 63.143 16.8667 65.8193L16.719 65.934L16.9567 66.2216C19.711 69.4853 23.0863 71.3695 27.1017 71.89L27.5194 71.939C31.9564 72.4051 36.3189 70.2208 40.6248 65.3299L40.479 65.492Z" fill="black"/><g id="Head"><path id="Combined Shape" fill-rule="evenodd" clip-rule="evenodd" d="M27.485 48.7008C17.392 48.7008 9.20996 40.0248 9.20996 29.3208C9.20996 18.6168 17.392 9.93982 27.485 9.93982C37.578 9.93982 45.76 18.6168 45.76 29.3208C45.76 40.0248 37.578 48.7008 27.485 48.7008Z" fill="#8b4500"/><path id="Fill 18" fill-rule="evenodd" clip-rule="evenodd" d="M27.485 10.4399C17.684 10.4399 9.70996 18.9099 9.70996 29.3209C9.70996 39.7319 17.684 48.2009 27.485 48.2009C37.286 48.2009 45.26 39.7319 45.26 29.3209C45.26 18.9099 37.286 10.4399 27.485 10.4399M27.485 49.2009C17.132 49.2009 8.70996 40.2829 8.70996 29.3209C8.70996 18.3579 17.132 9.43994 27.485 9.43994C37.838 9.43994 46.26 18.3579 46.26 29.3209C46.26 40.2829 37.838 49.2009 27.485 49.2009" fill="black"/><path id="Fill 21" fill-rule="evenodd" clip-rule="evenodd" d="M22.3651 35.2921C22.3451 35.2921 22.3251 35.2911 22.3041 35.2891L19.2491 34.9181C19.1061 34.9001 18.9771 34.8221 18.8961 34.7021C18.8151 34.5831 18.7891 34.4341 18.8261 34.2941L19.7521 30.7751C19.8231 30.5091 20.0961 30.3511 20.3631 30.4191C20.6291 30.4901 20.7891 30.7631 20.7191 31.0301L19.9391 33.9941L22.4251 34.2951C22.6991 34.3291 22.8941 34.5781 22.8611 34.8521C22.8301 35.1061 22.6151 35.2921 22.3651 35.2921" fill="black"/><path id="Fill 22" fill-rule="evenodd" clip-rule="evenodd" d="M27.4851 28.8979C27.4851 29.7989 27.0261 30.5299 26.4591 30.5299C25.8911 30.5299 25.4321 29.7989 25.4321 28.8979C25.4321 27.9959 25.8911 27.2649 26.4591 27.2649C27.0261 27.2649 27.4851 27.9959 27.4851 28.8979" fill="black"/><path id="Fill 23" fill-rule="evenodd" clip-rule="evenodd" d="M17.5203 28.8979C17.5203 29.7989 17.0603 30.5299 16.4933 30.5299C15.9263 30.5299 15.4663 29.7989 15.4663 28.8979C15.4663 27.9959 15.9263 27.2649 16.4933 27.2649C17.0603 27.2649 17.5203 27.9959 17.5203 28.8979" fill="black"/><path id="Fill 24" fill-rule="evenodd" clip-rule="evenodd" d="M29.0188 25.0131C28.9028 25.0131 28.7878 24.9731 28.6928 24.8921C27.1708 23.5861 25.4648 23.6191 25.4438 23.6141C25.1638 23.6141 24.9388 23.4011 24.9318 23.1251C24.9258 22.8491 25.1438 22.6201 25.4198 22.6141C25.5038 22.6151 27.5368 22.5821 29.3448 24.1341C29.5538 24.3131 29.5778 24.6291 29.3978 24.8391C29.2988 24.9541 29.1598 25.0131 29.0188 25.0131" fill="black"/><path id="Fill 25" fill-rule="evenodd" clip-rule="evenodd" d="M13.9334 25.0131C13.7924 25.0131 13.6534 24.9541 13.5544 24.8391C13.3744 24.6291 13.3984 24.3141 13.6074 24.1341C15.4144 22.5821 17.4474 22.6111 17.5324 22.6141C17.8074 22.6201 18.0244 22.8481 18.0194 23.1241C18.0144 23.3991 17.7974 23.5851 17.5104 23.6141C17.4854 23.6111 15.7614 23.6031 14.2594 24.8921C14.1644 24.9731 14.0494 25.0131 13.9334 25.0131" fill="black"/><path id="Fill 26" fill-rule="evenodd" clip-rule="evenodd" d="M22.0183 41.1421C20.4003 41.1421 19.1463 40.6431 19.1193 40.6321C18.8643 40.5271 18.7423 40.2361 18.8473 39.9801C18.9513 39.7251 19.2433 39.6021 19.4983 39.7061C19.6973 39.7881 24.3933 41.6351 26.7873 37.2821C26.9203 37.0401 27.2253 36.9521 27.4663 37.0841C27.7083 37.2171 27.7963 37.5211 27.6633 37.7631C26.1603 40.4981 23.8553 41.1421 22.0183 41.1421" fill="black"/><path id="Fill 27" fill-rule="evenodd" clip-rule="evenodd" d="M24.7944 40.0698C24.7944 40.0698 26.3494 43.5018 27.9764 41.8748C29.6044 40.2468 26.9824 38.7488 26.9824 38.7488" fill="#FF4200"/><path id="Fill 28" fill-rule="evenodd" clip-rule="evenodd" d="M27.0572 42.8121C26.9552 42.8121 26.8602 42.8021 26.7762 42.7871C25.3992 42.5361 24.4432 40.5071 24.3392 40.2761C24.2252 40.0251 24.3362 39.7291 24.5882 39.6151C24.8402 39.5011 25.1362 39.6121 25.2492 39.8631C25.5622 40.5501 26.3022 41.6851 26.9552 41.8031C27.0972 41.8301 27.3172 41.8271 27.6232 41.5211C27.9162 41.2281 28.0402 40.9441 28.0022 40.6531C27.9152 39.9971 27.0572 39.3691 26.7332 39.1821C26.4942 39.0441 26.4112 38.7391 26.5492 38.5001C26.6852 38.2611 26.9912 38.1761 27.2302 38.3141C27.3922 38.4071 28.8242 39.2591 28.9932 40.5191C29.0492 40.9391 28.9802 41.5781 28.3302 42.2281C27.8712 42.6871 27.4172 42.8121 27.0572 42.8121" fill="black"/></g></g></g><g id="Hair 2" transform="translate(107.79 57) scale(1 1)"><g id="Hair 2/Short Curly"><g id="Group 6"><path id="Hair" fill-rule="evenodd" clip-rule="evenodd" d="M122.894 81.0923C122.894 81.0923 120.295 84.9903 116.026 81.0923C116.026 81.0923 111.384 76.8223 106.929 81.0923C102.473 85.3623 97.4609 82.1233 96.9039 79.1953C96.9039 79.1953 84.2809 83.6913 83.5379 71.8103C82.7949 59.9293 98.3889 67.1693 98.3889 67.1693C98.3889 67.1693 96.5329 58.6293 103.958 56.7733C111.384 54.9163 115.468 63.4563 115.468 63.4563C115.468 63.4563 115.468 56.0303 122.894 57.3293C130.32 58.6293 127.907 63.8273 127.907 63.8273C127.907 63.8273 132.734 56.2163 138.117 61.2283C143.5 66.2403 138.117 71.9953 138.117 71.9953C138.117 71.9953 149.777 71.9703 148.328 80.9063C147.213 87.7763 141.087 83.1523 141.087 83.1523C140.994 83.6373 148.453 85.9193 145.171 94.2313C142.376 101.313 137.746 97.0573 137.746 97.0573C137.746 97.0573 142.202 105.04 136.632 107.824C136.632 107.824 133.847 109.31 132.547 107.824C132.547 107.824 130.117 116.463 123.535 110.751C123.535 110.751 116.954 104.297 122.152 97.8003C122.152 97.8003 124.194 95.9443 123.637 90.9313C123.637 90.9313 119.553 86.1053 122.894 81.0923" fill="#4b69fd"/><path id="Fill 3" fill-rule="evenodd" clip-rule="evenodd" d="M123.32 81.3765C120.238 85.9995 123.872 90.4145 124.028 90.6015C124.093 90.6785 124.135 90.7735 124.146 90.8735C124.725 96.0875 122.589 98.0955 122.496 98.1785C117.709 104.174 123.639 110.136 123.894 110.387C125.637 111.897 127.218 112.473 128.569 112.066C130.993 111.344 132.045 107.723 132.054 107.687C132.105 107.506 132.252 107.367 132.434 107.326C132.623 107.283 132.809 107.348 132.932 107.488C133.931 108.629 136.367 107.387 136.392 107.374C137.561 106.789 138.329 105.913 138.683 104.764C139.659 101.605 137.323 97.3505 137.299 97.3075C137.176 97.0875 137.232 96.8135 137.428 96.6565C137.626 96.5005 137.905 96.5125 138.091 96.6805C138.107 96.6945 139.72 98.1525 141.465 97.7415C142.758 97.4415 143.845 96.1965 144.695 94.0425C147.208 87.6775 143.162 85.1505 141.434 84.0715C140.852 83.7095 140.501 83.4905 140.585 83.0545C140.619 82.8805 140.739 82.7375 140.904 82.6735C141.07 82.6095 141.255 82.6365 141.396 82.7425C141.424 82.7625 144.094 84.7475 145.972 83.9925C146.921 83.6105 147.544 82.5455 147.823 80.8245C148.163 78.7255 147.758 76.9835 146.622 75.6495C143.972 72.5405 138.187 72.5075 138.119 72.5075H138.118C137.915 72.5075 137.729 72.3865 137.649 72.1985C137.568 72.0125 137.604 71.7955 137.744 71.6465C137.949 71.4255 142.707 66.2015 137.768 61.6035C136.483 60.4065 135.132 59.8875 133.75 60.0655C130.691 60.4575 128.362 64.0655 128.34 64.1025C128.194 64.3295 127.9 64.4045 127.664 64.2765C127.427 64.1485 127.331 63.8585 127.442 63.6135C127.451 63.5975 128.201 61.9115 127.393 60.3785C126.723 59.1055 125.179 58.2495 122.806 57.8335C120.756 57.4785 119.129 57.7855 117.97 58.7555C116.012 60.3955 115.98 63.4255 115.98 63.4565C115.979 63.6945 115.814 63.9015 115.582 63.9545C115.346 64.0025 115.111 63.8925 115.007 63.6765C114.967 63.5965 111.01 55.5355 104.083 57.2705C97.2326 58.9825 98.8186 66.7315 98.8886 67.0615C98.9296 67.2515 98.8596 67.4465 98.7096 67.5685C98.5566 67.6905 98.3486 67.7165 98.1736 67.6335C98.0896 67.5965 89.7806 63.7935 85.9516 66.4125C84.5266 67.3865 83.8866 69.1905 84.0486 71.7775C84.2426 74.8735 85.2906 77.0695 87.1646 78.3055C90.8756 80.7525 96.6736 78.7335 96.7326 78.7135C96.8736 78.6605 97.0276 78.6765 97.1596 78.7515C97.2886 78.8245 97.3796 78.9515 97.4076 79.0995C97.6696 80.4775 99.0626 81.8615 100.721 82.3915C101.874 82.7605 104.167 83.0325 106.575 80.7235C111.32 76.1725 116.321 80.6695 116.373 80.7155C117.672 81.9025 118.924 82.4305 120.07 82.2915C121.588 82.1055 122.46 80.8215 122.468 80.8095C122.627 80.5735 122.944 80.5125 123.178 80.6665C123.413 80.8235 123.477 81.1425 123.32 81.3765M127.696 113.218C126.3 113.218 124.793 112.522 123.199 111.139C123.107 111.05 116.329 104.261 121.753 97.4805C121.822 97.4075 123.607 95.6695 123.143 91.1315C122.604 90.4235 120.18 86.9335 121.431 82.9515C121.067 83.1205 120.655 83.2515 120.195 83.3075C118.727 83.4805 117.212 82.8685 115.68 81.4705C115.504 81.3105 111.331 77.5825 107.283 81.4625C104.49 84.1405 101.775 83.8055 100.409 83.3675C98.5966 82.7885 97.0886 81.3875 96.5496 79.8455C94.9496 80.3155 90.0836 81.4565 86.5996 79.1595C84.4436 77.7365 83.2416 75.2755 83.0266 71.8425C82.8406 68.8685 83.6306 66.7585 85.3746 65.5655C88.9436 63.1305 95.4236 65.3925 97.7546 66.3395C97.5136 63.9765 97.5346 57.8525 103.835 56.2755C109.68 54.8205 113.57 59.4765 115.142 61.8865C115.39 60.7045 115.966 59.1015 117.306 57.9765C118.708 56.8005 120.618 56.4085 122.982 56.8255C125.692 57.2995 127.483 58.3385 128.305 59.9125C128.659 60.5895 128.784 61.2735 128.795 61.8865C129.882 60.7145 131.577 59.3135 133.615 59.0505C135.319 58.8315 136.948 59.4395 138.466 60.8535C140.094 62.3685 140.952 64.1055 141.018 66.0125C141.1 68.3995 139.92 70.4505 139.142 71.5315C141.05 71.6855 145.132 72.3245 147.399 74.9825C148.742 76.5575 149.223 78.5775 148.833 80.9885C148.493 83.0885 147.658 84.4195 146.351 84.9435C145.747 85.1865 145.105 85.2265 144.477 85.1485C146.135 86.8965 147.483 89.7695 145.647 94.4185C144.665 96.9085 143.333 98.3625 141.688 98.7415C140.655 98.9765 139.689 98.7435 138.936 98.4105C139.603 100.079 140.373 102.759 139.662 105.064C139.222 106.49 138.28 107.573 136.861 108.283C136.758 108.337 134.416 109.564 132.797 108.675C132.319 109.91 131.107 112.376 128.865 113.047C128.485 113.16 128.095 113.218 127.696 113.218" fill="black"/></g></g></g><g id="Torso Upper Body" transform="translate(1 41.7684) scale(1 1)"><g id="Torso Upper Body/Empty Food Bag"><g id="Empty Box"><path id="Sweater" fill-rule="evenodd" clip-rule="evenodd" d="M280.334 203.876C280.334 203.876 277.424 202.563 272.953 200.436L272.244 195.139L290.251 208.91L280.334 203.876ZM311.611 180.715L311.622 180.71C294.8 156.177 267.14 141.174 237.393 141.174H230.175C228.242 145.245 223.456 148.135 217.84 148.152C212.225 148.135 207.439 145.245 205.507 141.174H198.288C189.635 141.174 180.879 142.377 172.397 144.687C150.987 150.517 133.262 164.819 122.543 183.679C122.54 183.684 122.537 183.688 122.533 183.691C118.303 189.23 115.822 196.301 114.408 203.439C114.401 203.464 114.394 203.486 114.388 203.511C114.388 203.511 114.386 203.533 114.386 203.54C111.222 219.627 113.479 236.031 113.481 236.049L111.131 222.718L82.0688 228.247C82.0428 228.191 78.0088 229.073 78.0088 229.073C78.7798 232.793 79.6208 236.491 80.5618 240.089C85.6438 259.521 96.5818 269.672 112.445 270.55C148.31 272.537 158.661 217.704 158.661 217.704L163.437 195.139L160.518 216.951L154.227 254.802H281.455L280.153 246.18C285.313 249.116 289.981 251.291 293.889 253.179C315.918 263.822 340.465 251.358 333.245 216.545C330.668 204.121 321.768 191.58 311.611 180.715Z" fill="#FF5613"/><path id="Fill 3" fill-rule="evenodd" clip-rule="evenodd" d="M273.423 200.092C277.698 202.122 280.516 203.396 280.544 203.408C280.551 203.412 280.559 203.415 280.565 203.418L285.512 205.93L272.915 196.296L273.423 200.092ZM290.25 209.42C290.172 209.42 290.092 209.403 290.019 209.365L280.112 204.337C279.912 204.246 277.022 202.938 272.733 200.897C272.576 200.823 272.468 200.675 272.445 200.503L271.736 195.206C271.709 195.001 271.808 194.799 271.986 194.696C272.166 194.591 272.389 194.604 272.554 194.731L290.561 208.501C290.771 208.662 290.824 208.957 290.683 209.182C290.587 209.334 290.421 209.42 290.25 209.42V209.42ZM81.0559 239.958C86.0479 259.04 96.6179 269.16 112.473 270.039C147.472 271.993 158.054 218.152 158.157 217.608L162.936 195.032C162.993 194.764 163.255 194.587 163.524 194.633C163.795 194.68 163.981 194.933 163.944 195.206L161.025 217.018L154.834 254.289H280.847L279.649 246.265C279.615 246.071 279.697 245.873 279.859 245.76C280.021 245.646 280.235 245.635 280.406 245.735C284.881 248.28 288.955 250.238 292.549 251.965L294.111 252.717C304.99 257.973 316.578 257.467 324.355 251.401C333.011 244.646 335.99 232.304 332.743 216.649C330.519 205.923 323.283 193.95 311.236 181.064C311.193 181.017 311.159 180.963 311.136 180.906C294.251 156.344 266.693 141.686 237.393 141.686H230.492C228.324 145.917 223.399 148.646 217.841 148.664C212.281 148.646 207.357 145.917 205.188 141.686H198.287C189.713 141.686 181.048 142.862 172.532 145.18C151.537 150.897 133.941 164.658 122.987 183.931C122.973 183.958 122.948 183.991 122.928 184.016C119.212 188.883 116.51 195.456 114.909 203.538C114.909 203.571 114.895 203.606 114.888 203.639C111.799 219.343 113.896 235.304 113.987 235.976C114.025 236.253 113.834 236.51 113.559 236.552C113.282 236.6 113.025 236.411 112.976 236.137L110.717 223.317L82.1639 228.749C82.1269 228.756 82.0899 228.758 82.0519 228.758C81.7519 228.797 80.1629 229.129 78.6129 229.464C79.4229 233.335 80.2229 236.773 81.0559 239.958ZM112.417 271.061C96.0669 270.155 85.1829 259.778 80.0659 240.218C79.1929 236.88 78.3559 233.268 77.5069 229.176C77.4499 228.901 77.6249 228.632 77.8999 228.572C80.3589 228.035 81.4549 227.795 81.9769 227.762L81.9729 227.743L111.036 222.214C111.17 222.191 111.309 222.218 111.422 222.296C111.535 222.373 111.611 222.493 111.635 222.628L112.244 226.085C112.062 219.905 112.275 211.624 113.883 203.441C113.886 203.405 113.895 203.367 113.905 203.332C115.537 195.102 118.303 188.387 122.126 183.38C133.187 163.914 151.003 149.981 172.263 144.192C180.866 141.849 189.622 140.661 198.287 140.661H205.506C205.704 140.661 205.884 140.776 205.969 140.953C207.889 144.998 212.549 147.623 217.841 147.64C223.131 147.623 227.791 144.998 229.712 140.953C229.797 140.776 229.977 140.661 230.174 140.661H237.393C267.067 140.661 294.974 155.525 312.044 180.419C312.049 180.429 312.055 180.437 312.06 180.446C324.192 193.442 331.487 205.551 333.746 216.441C337.076 232.497 333.965 245.199 324.985 252.207C316.899 258.517 304.898 259.066 293.666 253.639L292.106 252.888C288.749 251.276 284.975 249.461 280.839 247.153L281.958 254.715C281.984 254.863 281.943 255.016 281.845 255.131C281.748 255.245 281.605 255.313 281.454 255.313H154.227C154.076 255.313 153.933 255.245 153.835 255.131C153.738 255.016 153.697 254.863 153.722 254.715L160.013 216.864L161.133 208.488L159.161 217.809C159.06 218.341 148.691 271.11 114.314 271.113C113.688 271.113 113.059 271.097 112.417 271.061Z" fill="black"/><g id="Food Bag"><path id="Bag" fill-rule="evenodd" clip-rule="evenodd" d="M74.6777 160.72C95.1976 183.639 99.0441 221.246 99.7429 236.698L99.8878 243.66L108.81 244.001L115.611 239.811L123.37 241.695L130.145 237.52L130.153 237.516L137.905 239.393L137.92 239.383L137.938 239.387L144.731 235.206L152.473 237.085L152.484 237.077L152.497 237.081L159.279 232.902L167.032 234.779L167.048 234.77L167.065 234.774L173.857 230.594L173.867 230.596L181.6 232.472L188.397 228.283L196.16 230.166L202.959 225.977L207.441 226.626C207.441 226.626 189.844 176.037 205.787 139.954L190.97 131.268C190.97 131.268 190.967 131.283 190.968 131.284C190.967 131.283 190.97 131.268 190.97 131.268L153.925 136.389L122.9 141.303L86.0855 147.88C86.0855 147.88 86.1082 147.921 86.1171 147.939C86.1082 147.921 86.0855 147.88 86.0855 147.88L74.6777 160.72Z" fill="#EFF2F7"/><path id="Fill 3_2" fill-rule="evenodd" clip-rule="evenodd" d="M190.864 131.799L153.995 136.898L122.98 141.81L86.3497 148.352L75.3622 160.72C95.7636 183.836 99.5673 221.5 100.253 236.673L100.39 243.168L108.673 243.483L115.342 239.375C115.458 239.304 115.598 239.282 115.731 239.314L123.283 241.146L129.876 237.083C129.993 237.012 130.141 236.988 130.273 237.018L137.835 238.849L144.462 234.77C144.578 234.7 144.719 234.678 144.851 234.709L152.399 236.541L159.011 232.466C159.127 232.396 159.267 232.374 159.4 232.404L166.962 234.236L173.589 230.157C173.697 230.091 173.825 230.069 173.95 230.091L181.512 231.923L188.128 227.847C188.244 227.776 188.385 227.754 188.518 227.785L196.072 229.617L202.691 225.541C202.794 225.479 202.915 225.454 203.033 225.47L206.695 226.001C204.57 219.422 190.683 173.523 205.136 140.166L190.864 131.799ZM153.844 135.884L190.9 130.76C190.933 130.756 190.966 130.755 190.999 130.757C191 130.757 191.001 130.757 191.002 130.756C191.003 130.756 191.003 130.757 191.004 130.757C191.082 130.763 191.159 130.785 191.228 130.827L206.047 139.512C206.271 139.644 206.361 139.923 206.256 140.162C190.578 175.641 207.749 225.954 207.925 226.458C207.983 226.628 207.95 226.814 207.836 226.953C207.722 227.092 207.544 227.155 207.368 227.133L203.07 226.509L196.428 230.602C196.311 230.673 196.171 230.695 196.038 230.663L188.483 228.832L181.867 232.908C181.751 232.979 181.611 233.001 181.478 232.969L173.944 231.141L167.332 235.21C167.257 235.256 167.169 235.286 167.083 235.285C167.025 235.292 166.967 235.289 166.912 235.277L159.366 233.451L152.766 237.517C152.691 237.563 152.607 237.591 152.52 237.592C152.463 237.598 152.406 237.595 152.351 237.583L144.818 235.756L138.205 239.823C138.13 239.87 138.043 239.899 137.956 239.898C137.898 239.905 137.839 239.902 137.785 239.89L130.238 238.064L123.639 242.13C123.523 242.201 123.382 242.224 123.25 242.192L115.697 240.36L109.078 244.436C108.993 244.489 108.893 244.518 108.79 244.511L99.8687 244.172C99.5978 244.162 99.3818 243.942 99.3754 243.672L99.23 236.707C98.5464 221.581 94.7452 183.901 74.2956 161.062C74.1221 160.868 74.1212 160.574 74.2939 160.38L85.7028 147.54C85.7799 147.452 85.8843 147.395 85.9956 147.375L122.81 140.799L153.844 135.884Z" fill="black"/><path id="Fill 6" fill-rule="evenodd" clip-rule="evenodd" d="M190.89 130.762C190.946 130.753 191.004 130.753 191.063 130.764C191.341 130.815 191.525 131.083 191.474 131.36C191.378 131.884 182.01 184.034 194.332 222.133L207.59 226.136C207.86 226.218 208.013 226.503 207.932 226.774C207.849 227.046 207.565 227.197 207.293 227.115L193.78 223.035C193.62 222.987 193.493 222.863 193.441 222.704C180.914 184.335 190.37 131.702 190.467 131.176C190.508 130.955 190.682 130.795 190.89 130.762" fill="black"/><path id="Fill 8" fill-rule="evenodd" clip-rule="evenodd" d="M86.0045 147.374C86.2129 147.341 86.4279 147.44 86.535 147.637C86.7898 148.107 112.047 195.243 111.991 235.604C111.991 235.771 111.908 235.928 111.772 236.024L100.179 244.08C99.9446 244.242 99.6279 244.186 99.4665 243.953C99.3051 243.721 99.362 243.402 99.5946 243.241L110.967 235.336C110.914 195.295 85.8874 148.592 85.6341 148.123C85.4996 147.875 85.5921 147.564 85.8411 147.43C85.8933 147.401 85.9492 147.383 86.0045 147.374" fill="black"/><path id="Fill 10" fill-rule="evenodd" clip-rule="evenodd" d="M188.753 221.15C188.809 221.141 188.865 221.141 188.922 221.151L194.016 222.042C194.295 222.09 194.48 222.355 194.432 222.634C194.383 222.91 194.118 223.1 193.839 223.05L188.937 222.193L182.302 226.281C182.185 226.351 182.045 226.374 181.913 226.343L174.358 224.509L167.742 228.587C167.626 228.657 167.485 228.68 167.353 228.649L159.819 226.82L153.206 230.889C153.129 230.934 153.042 230.963 152.956 230.964C152.898 230.971 152.84 230.968 152.786 230.956L145.24 229.129L138.64 233.197C138.524 233.267 138.383 233.289 138.251 233.258L130.699 231.424L124.079 235.503C123.963 235.573 123.823 235.595 123.69 235.564L116.117 233.727L111.72 236.056C111.47 236.191 111.159 236.091 111.027 235.844C110.895 235.593 110.99 235.284 111.241 235.152L115.809 232.731C115.92 232.671 116.047 232.656 116.169 232.685L123.724 234.517L130.344 230.44C130.46 230.369 130.6 230.347 130.733 230.379L138.284 232.211L144.885 228.145C145.001 228.073 145.141 228.051 145.274 228.083L152.837 229.913L159.464 225.835C159.58 225.764 159.72 225.742 159.853 225.774L167.387 227.602L174.002 223.526C174.119 223.455 174.259 223.432 174.392 223.464L181.946 225.296L188.565 221.219C188.623 221.184 188.687 221.16 188.753 221.15" fill="black"/><path id="Rectangle 1" d="M129.331 183.124C129.068 181.488 130.182 179.949 131.818 179.686L158.038 175.476C159.674 175.213 161.213 176.326 161.476 177.962L161.622 178.874C161.885 180.51 160.771 182.049 159.136 182.312L132.915 186.522C131.279 186.785 129.74 185.671 129.478 184.036L129.331 183.124Z" fill="#954000"/><path id="Fill 12" fill-rule="evenodd" clip-rule="evenodd" d="M132.67 191.896L160.41 187.502C161.492 194.333 156.832 200.747 150.001 201.829L146.998 202.305C140.167 203.387 133.752 198.727 132.67 191.896" fill="#FFBA00"/><path id="Fill 12 Copy" fill-rule="evenodd" clip-rule="evenodd" d="M132.46 192.373C133.725 199.311 140.306 204.004 147.309 202.895L150.312 202.419L150.615 202.367C157.553 201.103 162.246 194.522 161.137 187.52L161.059 187.026L132.824 191.498L132.903 191.992L132.409 192.07L132.46 192.373ZM150.156 201.431L147.152 201.907L146.854 201.95C140.607 202.783 134.788 198.64 133.505 192.504L133.486 192.406L160.217 188.172L160.228 188.272C160.915 194.603 156.515 200.424 150.156 201.431Z" fill="black"/><path id="Fill 16" fill-rule="evenodd" clip-rule="evenodd" d="M158.535 175.664L130.795 180.057C129.991 174.982 133.453 170.218 138.527 169.415L147.893 167.931C152.966 167.128 157.731 170.589 158.535 175.664" fill="#FFBA00"/><path id="Fill 16 Copy" fill-rule="evenodd" clip-rule="evenodd" d="M130.534 180.231L130.612 180.725L158.846 176.253L158.768 175.76L159.262 175.681L159.215 175.411C158.244 170.212 153.303 166.701 148.047 167.533L138.682 169.017L138.411 169.063C133.212 170.034 129.701 174.974 130.534 180.231ZM158.182 175.346L131.457 179.579L131.434 179.306C131.116 174.801 134.293 170.724 138.838 170.004L148.203 168.521L148.46 168.484C152.993 167.9 157.209 170.891 158.178 175.329L158.182 175.346Z" fill="black"/><path id="Stroke 22 Copy" fill-rule="evenodd" clip-rule="evenodd" d="M159.084 182.73L133.463 186.788C131.433 187.11 129.528 185.726 129.207 183.697C128.885 181.667 130.269 179.761 132.299 179.44L157.92 175.382C159.949 175.061 161.855 176.446 162.176 178.475C162.497 180.504 161.113 182.409 159.084 182.73ZM133.307 185.801L158.927 181.743C160.411 181.508 161.423 180.115 161.188 178.632C160.953 177.147 159.56 176.135 158.076 176.37L132.456 180.428C130.971 180.663 129.96 182.056 130.195 183.541C130.43 185.024 131.822 186.036 133.307 185.801Z" fill="black"/><path id="Fill 24" fill-rule="evenodd" clip-rule="evenodd" d="M147.245 186.033L159.034 184.166C159.597 184.077 159.983 183.562 159.896 183.016C159.81 182.472 159.284 182.101 158.721 182.19L146.932 184.058C146.369 184.147 145.982 184.662 146.069 185.206C146.155 185.752 146.682 186.122 147.245 186.033" fill="#FF4200"/><path id="Fill 24 Copy" fill-rule="evenodd" clip-rule="evenodd" d="M145.872 184.814C146.003 185.642 146.781 186.207 147.609 186.076L159.234 184.235L159.37 184.207C160.122 184.017 160.619 183.28 160.495 182.498C160.364 181.671 159.587 181.106 158.759 181.237L147.134 183.078L146.999 183.106C146.246 183.296 145.749 184.033 145.872 184.814ZM159.078 183.247L147.453 185.088L147.359 185.095C147.114 185.089 146.9 184.909 146.86 184.658C146.815 184.376 147.008 184.111 147.291 184.066L158.916 182.225L159.009 182.219C159.254 182.224 159.468 182.404 159.507 182.655C159.552 182.937 159.36 183.203 159.078 183.247Z" fill="black"/><path id="Fill 28" fill-rule="evenodd" clip-rule="evenodd" d="M133.61 188.193L145.4 186.325C145.963 186.236 146.349 185.721 146.262 185.176C146.176 184.631 145.65 184.261 145.087 184.35L133.297 186.217C132.734 186.306 132.349 186.821 132.435 187.366C132.521 187.911 133.047 188.282 133.61 188.193" fill="#FF4200"/><path id="Fill 28 Copy" fill-rule="evenodd" clip-rule="evenodd" d="M132.238 186.974C132.37 187.802 133.146 188.367 133.974 188.236L145.599 186.395L145.735 186.367C146.488 186.177 146.984 185.44 146.86 184.658C146.729 183.831 145.952 183.266 145.125 183.397L133.499 185.238L133.364 185.266C132.611 185.456 132.115 186.193 132.238 186.974ZM145.443 185.407L133.818 187.248L133.725 187.254C133.48 187.249 133.266 187.069 133.226 186.817C133.182 186.536 133.374 186.27 133.656 186.226L145.281 184.385L145.374 184.378C145.619 184.384 145.833 184.564 145.873 184.814C145.917 185.097 145.725 185.362 145.443 185.407Z" fill="black"/><path id="Fill 32" fill-rule="evenodd" clip-rule="evenodd" d="M162.836 186.287C162.865 186.471 164.429 187.52 164.247 187.563C161.842 188.133 161.376 185.773 158.936 186.159C156.494 186.546 156.842 188.738 154.401 189.125C151.96 189.512 151.613 187.319 149.173 187.705C146.732 188.092 147.079 190.285 144.639 190.671C142.196 191.058 141.849 188.865 139.405 189.252C136.961 189.64 137.308 191.832 134.864 192.219C132.419 192.607 128.416 190.248 128.416 190.248C128.387 190.064 130.57 189.553 130.514 189.374C130.288 188.648 128.957 188.298 129.139 188.255C131.544 187.685 132.01 190.046 134.451 189.659C136.893 189.273 136.545 187.079 138.986 186.693C141.426 186.306 141.774 188.5 144.214 188.113C146.655 187.727 146.307 185.533 148.748 185.146C151.191 184.759 151.538 186.953 153.982 186.566C156.426 186.179 156.079 183.985 158.523 183.598C160.967 183.211 161.211 185.232 163.677 185.027L162.836 186.287Z" fill="#009E80"/><path id="Stroke 34" fill-rule="evenodd" clip-rule="evenodd" d="M164.75 187.439C164.809 187.719 164.634 187.986 164.362 188.049C163.191 188.327 162.486 188.1 161.335 187.351L161.058 187.172C160.249 186.666 159.786 186.531 159.014 186.653C158.147 186.79 157.771 187.077 157.056 187.957L156.889 188.16C156.124 189.067 155.568 189.446 154.479 189.619C153.312 189.804 152.654 189.573 151.515 188.835L151.318 188.71C150.497 188.198 150.055 188.072 149.251 188.199C148.384 188.337 148.008 188.623 147.294 189.503L147.126 189.706C146.361 190.613 145.806 190.992 144.717 191.165C143.549 191.35 142.891 191.119 141.751 190.382L141.554 190.256C140.732 189.744 140.289 189.619 139.483 189.746C138.615 189.884 138.238 190.171 137.522 191.051L137.355 191.254C136.588 192.161 136.032 192.541 134.942 192.713C134.328 192.81 133.622 192.761 132.835 192.59C132.112 192.432 131.336 192.174 130.531 191.841C129.945 191.598 129.377 191.329 128.848 191.054C128.742 190.999 128.645 190.947 128.558 190.9L128.162 190.679C128.033 190.603 127.945 190.473 127.922 190.326C127.889 190.12 127.967 189.967 128.086 189.851C128.136 189.803 128.19 189.765 128.253 189.73C128.332 189.685 128.431 189.642 128.556 189.594L128.691 189.543L129.747 189.193L129.652 189.127L129.537 189.056C129.47 189.016 129.429 188.993 129.366 188.961L129.066 188.815C128.964 188.766 128.914 188.74 128.86 188.703L128.809 188.669C128.737 188.611 128.658 188.507 128.631 188.362C128.563 188.004 128.783 187.825 129.023 187.769C130.195 187.491 130.9 187.717 132.052 188.468L132.329 188.646C133.137 189.152 133.601 189.288 134.373 189.166C135.24 189.028 135.616 188.741 136.33 187.861L136.498 187.658C137.263 186.751 137.818 186.371 138.907 186.199C140.074 186.014 140.732 186.245 141.872 186.983L142.068 187.108C142.889 187.621 143.331 187.747 144.136 187.619C145.002 187.482 145.378 187.195 146.093 186.315L146.26 186.112C147.025 185.205 147.58 184.825 148.67 184.652C149.837 184.468 150.495 184.698 151.636 185.436L151.833 185.562C152.654 186.074 153.097 186.2 153.903 186.072C154.772 185.935 155.148 185.648 155.864 184.767L156.032 184.564C156.798 183.657 157.354 183.277 158.445 183.104C159.616 182.919 160.29 183.139 161.363 183.824L161.648 184.004C162.389 184.457 162.848 184.594 163.636 184.529C164.053 184.495 164.325 184.957 164.093 185.305L163.478 186.227L164.27 186.855L164.496 187.049C164.547 187.097 164.589 187.14 164.623 187.182C164.685 187.258 164.728 187.331 164.75 187.439ZM133.048 191.613C133.724 191.76 134.311 191.801 134.785 191.726C135.654 191.588 136.03 191.301 136.746 190.421L136.914 190.218C137.68 189.311 138.236 188.931 139.327 188.759C140.495 188.574 141.154 188.804 142.294 189.542L142.491 189.667C143.312 190.179 143.755 190.305 144.56 190.177C145.427 190.04 145.803 189.753 146.517 188.873L146.685 188.671C147.449 187.764 148.005 187.384 149.094 187.212C150.261 187.027 150.919 187.257 152.058 187.996L152.255 188.121C153.076 188.633 153.518 188.759 154.323 188.631C155.189 188.494 155.565 188.207 156.279 187.327L156.447 187.125C157.212 186.218 157.768 185.838 158.857 185.665C159.991 185.486 160.676 185.728 161.796 186.458L162.063 186.63C162.358 186.814 162.605 186.947 162.838 187.034L162.919 187.062L162.736 186.91C162.462 186.675 162.376 186.584 162.342 186.365C162.322 186.24 162.35 186.113 162.42 186.009L162.754 185.509L162.661 185.495C162.15 185.407 161.691 185.202 161.133 184.861L160.641 184.552C159.871 184.081 159.42 183.962 158.601 184.092C157.733 184.229 157.356 184.516 156.64 185.397L156.473 185.6C155.706 186.507 155.15 186.887 154.06 187.06C152.891 187.245 152.233 187.014 151.092 186.276L150.895 186.151C150.074 185.638 149.631 185.513 148.826 185.64C147.959 185.777 147.584 186.064 146.869 186.945L146.702 187.147C145.937 188.055 145.382 188.434 144.292 188.607C143.125 188.792 142.467 188.561 141.328 187.822L141.131 187.697C140.31 187.185 139.868 187.059 139.064 187.186C138.197 187.324 137.821 187.61 137.107 188.491L136.939 188.694C136.174 189.601 135.619 189.981 134.529 190.153C133.396 190.333 132.71 190.09 131.59 189.36L131.323 189.189C131.205 189.115 131.095 189.049 130.99 188.991L130.849 188.918L130.873 188.954C130.897 188.997 130.919 189.041 130.939 189.086L130.991 189.225C131.059 189.443 130.987 189.623 130.862 189.755C130.811 189.809 130.755 189.85 130.689 189.888C130.61 189.934 130.512 189.978 130.386 190.027C130.32 190.052 130.254 190.076 130.176 190.104L129.577 190.303L129.695 190.362C129.956 190.491 130.225 190.618 130.499 190.739L130.914 190.917C131.668 191.229 132.389 191.469 133.048 191.613Z" fill="black"/></g><path id="Skin" fill-rule="evenodd" clip-rule="evenodd" d="M208.212 155.806C210.36 159.081 212.594 162.486 215.009 165.736C225.269 179.541 249.628 190.272 249.628 190.272L238.862 220.17C238.862 220.17 219.3 205.656 210.905 204.351C207.029 203.748 202.034 206.939 197.295 209.966C191.772 213.494 186.597 216.801 183.942 213.623C178.995 207.701 190.423 199.092 193.418 196.992C189.798 199.425 172.913 210.24 168.31 203.48C163.864 196.95 181.058 189.427 181.058 189.427C181.058 189.427 162.783 197.411 160.409 188.822C158.029 180.207 181.618 175.809 181.618 175.809L169.63 175.914C161.296 175.494 161.766 171.276 161.766 171.276C161.498 160.748 193.391 161.151 193.391 161.151C193.391 161.151 175.722 140.13 186.655 137.755C195.161 135.907 201.237 145.171 208.212 155.806ZM91.6018 183.838L112.949 181.07C115.536 180.748 117.932 182.478 118.441 185.035C118.936 187.524 117.477 189.987 115.056 190.75L94.9448 196.902L111.395 195.018C114.019 194.741 116.422 196.509 116.936 199.098C117.509 201.973 115.546 204.738 112.642 205.147L96.4758 207.514C96.7892 211.111 102.496 210.663 107.067 210.304C108.489 210.192 109.801 210.089 110.807 210.119C112.692 210.175 114.281 211.529 114.649 213.379C115.004 215.16 114.145 216.978 112.516 217.781C110.38 218.834 106.664 220.211 100.376 221.461C99.8338 221.568 99.2838 221.615 98.7328 221.658H98.7318C98.4788 221.677 98.2238 221.684 97.9688 221.69C97.6568 222.836 97.6908 224.09 98.1168 225.194L82.0688 228.247C82.0528 228.213 80.4918 228.539 79.3098 228.792C78.0567 222.759 76.9855 216.674 75.9645 210.876C75.1499 206.249 74.3673 201.803 73.5498 197.711C73.6069 197.814 73.6784 197.915 73.7499 198.016C73.771 198.045 73.7921 198.075 73.8128 198.105C73.0128 195.841 72.3008 193.424 71.6918 190.852V190.851C71.6342 190.608 71.579 190.363 71.5239 190.117C71.4748 189.898 71.4257 189.68 71.3748 189.463C71.3323 189.268 71.2867 189.077 71.241 188.887C71.1781 188.624 71.1153 188.362 71.0608 188.088C69.5738 180.612 71.3078 173.814 74.0988 168.278C74.4488 167.587 74.8138 166.914 75.1918 166.262C77.8378 161.703 81.0858 158.167 83.4898 156.045C86.3428 153.528 90.8428 154.693 92.1968 158.249L92.3328 158.605C93.1238 160.686 92.5338 162.992 90.9528 164.56C87.6108 167.874 85.7288 173.592 85.7288 173.592L106.352 170.031C108.936 169.585 111.404 171.28 111.916 173.851C112.413 176.352 110.882 178.809 108.418 179.466L91.6018 183.838Z" fill="#8b4500"/><path id="Fill 26" fill-rule="evenodd" clip-rule="evenodd" d="M238.613 219.351C235.305 216.937 218.711 205.046 210.984 203.845C210.634 203.79 210.277 203.765 209.914 203.765C206.051 203.765 201.467 206.695 197.02 209.535C191.712 212.925 186.699 216.124 184.335 213.294C183.418 212.197 183.076 210.973 183.289 209.554C184.03 204.601 191.32 199.101 193.671 197.443C194.083 197.164 194.341 196.985 194.412 196.935C194.437 196.917 194.452 196.892 194.473 196.871C195.613 196.152 196.916 195.466 198.177 195.101C198.449 195.022 198.606 194.738 198.528 194.467C198.448 194.197 198.167 194.039 197.893 194.118C195.81 194.72 193.692 196.081 192.238 197.156C188.256 199.74 177.682 206.101 171.75 205.038C170.399 204.792 169.413 204.189 168.734 203.192C168.09 202.246 167.929 201.258 168.242 200.17C169.73 194.997 181.149 189.946 181.264 189.896C181.284 189.887 181.298 189.871 181.316 189.859C184.254 188.497 188.648 186.708 193.508 185.585C193.783 185.521 193.954 185.246 193.891 184.971C193.827 184.695 193.556 184.524 193.276 184.587C188.18 185.765 183.597 187.66 180.61 189.061C178.897 189.774 168.368 193.966 163.314 191.557C162.061 190.96 161.272 190.02 160.904 188.685C160.586 187.538 160.765 186.446 161.451 185.348C165.125 179.467 181.547 176.343 181.713 176.312C181.788 176.298 181.854 176.265 181.913 176.222C182.513 176.162 183.166 176.093 183.892 176.015C185.723 175.821 188.002 175.579 190.779 175.339C191.06 175.316 191.269 175.068 191.245 174.786C191.22 174.503 190.977 174.3 190.691 174.32C187.904 174.559 185.619 174.802 183.784 174.997C182.603 175.123 181.609 175.229 180.761 175.305L169.656 175.402C165.594 175.197 163.8 174.071 163.011 173.162C162.204 172.233 162.272 171.365 162.278 171.263C162.245 169.976 162.734 168.837 163.771 167.787C169.6 161.883 190.035 161.662 193.021 161.662C193.271 161.662 193.376 161.662 193.392 161.663C193.59 161.663 193.77 161.549 193.854 161.371C193.94 161.189 193.913 160.975 193.784 160.822C193.664 160.679 181.799 146.462 183.822 140.535C184.23 139.341 185.192 138.596 186.763 138.254C194.922 136.493 200.884 145.566 207.783 156.085C209.942 159.376 212.174 162.779 214.599 166.041C224.064 178.776 245.648 189.012 248.987 190.542L238.613 219.351ZM249.835 189.803C249.592 189.697 225.48 178.966 215.421 165.431C213.013 162.192 210.79 158.802 208.64 155.524C201.532 144.689 195.388 135.32 186.547 137.254C184.621 137.672 183.379 138.665 182.854 140.204C180.925 145.854 189.713 157.398 192.311 160.637C187.54 160.665 168.877 161.158 163.043 167.067C161.816 168.31 161.215 169.731 161.257 171.219C161.252 171.273 161.126 172.526 162.206 173.796C163.536 175.36 166.025 176.244 169.635 176.424L176.934 176.362C171.607 177.762 163.236 180.559 160.583 184.805C159.749 186.141 159.524 187.539 159.917 188.957C160.363 190.573 161.358 191.759 162.874 192.481C166.047 193.995 170.983 193.193 174.944 192.099C171.675 194.127 168.109 196.931 167.258 199.886C166.861 201.266 167.073 202.572 167.888 203.767C168.717 204.987 169.956 205.753 171.567 206.045C175.972 206.85 182.48 203.978 187.43 201.251C184.996 203.63 182.703 206.551 182.276 209.401C182.021 211.103 182.449 212.634 183.549 213.951C186.492 217.474 191.874 214.036 197.571 210.398C202.276 207.391 207.141 204.277 210.827 204.857C219.001 206.128 238.363 220.437 238.557 220.58C238.646 220.647 238.754 220.681 238.863 220.681C238.912 220.681 238.962 220.675 239.01 220.66C239.166 220.613 239.289 220.496 239.344 220.343L250.11 190.445C250.201 190.192 250.081 189.912 249.835 189.803V189.803ZM114.906 190.259L94.7953 196.412C94.5423 196.49 94.3893 196.747 94.4443 197.005C94.4973 197.265 94.7423 197.427 95.0033 197.411L111.448 195.527C113.836 195.281 115.968 196.855 116.434 199.198C116.683 200.449 116.413 201.71 115.675 202.751C114.936 203.791 113.834 204.462 112.569 204.64L96.4023 207.007C96.1343 207.047 95.9423 207.288 95.9663 207.558C96.3233 211.661 102.303 211.189 107.107 210.814C108.499 210.705 109.816 210.593 110.792 210.63C112.444 210.681 113.823 211.851 114.147 213.478C114.459 215.048 113.695 216.628 112.289 217.322C110.354 218.276 106.699 219.681 100.276 220.958C99.7793 221.058 99.2653 221.103 98.6923 221.148C87.5373 222.017 76.6343 209.513 72.1903 190.734L71.8753 189.351C71.8313 189.15 71.7843 188.954 71.7373 188.756C71.6763 188.503 71.6163 188.251 71.5633 187.989C70.2813 181.542 71.2893 174.989 74.5563 168.509C74.9013 167.825 75.2623 167.162 75.6353 166.519C78.7043 161.229 82.3873 157.701 83.8293 156.429C85.0473 155.356 86.6563 154.965 88.2413 155.356C89.8363 155.749 91.1353 156.899 91.7183 158.431L91.8543 158.788C92.5523 160.621 92.0563 162.744 90.5923 164.196C87.2023 167.558 85.3213 173.194 85.2433 173.432C85.1873 173.603 85.2243 173.79 85.3423 173.925C85.4593 174.062 85.6393 174.124 85.8163 174.097L106.439 170.536C108.769 170.132 110.952 171.633 111.414 173.951C111.857 176.181 110.483 178.385 108.289 178.969L91.4733 183.341C91.2123 183.41 91.0493 183.669 91.1003 183.935C91.1513 184.201 91.3983 184.379 91.6683 184.345L113.012 181.578C115.323 181.29 117.485 182.852 117.939 185.135C118.384 187.372 117.078 189.576 114.906 190.259V190.259ZM112.883 180.562L99.6193 182.282L108.55 179.96C111.267 179.236 112.966 176.509 112.418 173.751C111.847 170.885 109.146 169.035 106.265 169.526L86.5133 172.937C87.1603 171.26 88.8373 167.379 91.3143 164.923C93.0653 163.186 93.6533 160.635 92.8113 158.423L92.6753 158.067C91.9723 156.221 90.4073 154.836 88.4873 154.361C86.5683 153.89 84.6233 154.363 83.1523 155.662C81.6733 156.966 77.8943 160.585 74.7493 166.005C74.3673 166.666 73.9963 167.347 73.6433 168.046C70.2693 174.737 69.2323 181.513 70.5593 188.189C70.6143 188.464 70.6773 188.73 70.7413 188.996C70.7873 189.185 70.8333 189.375 70.8753 189.57C70.8753 189.574 70.8763 189.576 70.8773 189.58L71.1943 190.97C75.6033 209.606 86.3443 222.213 97.6023 222.213C97.9913 222.213 98.3833 222.199 98.7733 222.167C99.3793 222.121 99.9253 222.073 100.476 221.962C107.008 220.663 110.752 219.221 112.742 218.24C114.563 217.342 115.553 215.302 115.151 213.278C114.734 211.181 112.954 209.671 110.823 209.607C109.789 209.573 108.448 209.681 107.027 209.792C102.911 210.117 97.8413 210.513 97.0753 207.944L112.714 205.654C114.259 205.437 115.606 204.617 116.509 203.345C117.413 202.072 117.743 200.529 117.438 198.997C116.869 196.132 114.241 194.219 111.337 194.509L100.432 195.758L115.21 191.237C117.885 190.395 119.49 187.687 118.943 184.935C118.385 182.128 115.73 180.207 112.883 180.562V180.562Z" fill="black"/><path id="Fill 29" fill-rule="evenodd" clip-rule="evenodd" d="M97.9536 224.703L81.9736 227.744L81.9746 227.755C81.6066 227.783 80.9486 227.918 79.7066 228.183C78.5016 222.33 77.4696 216.466 76.4716 210.79C75.7216 206.523 75.0046 202.475 74.2626 198.68C73.5986 197.96 73.2226 197.182 73.0826 196.402C72.9196 196.517 72.8296 196.715 72.8716 196.916C73.7536 201.246 74.5836 205.968 75.4636 210.967C76.4916 216.814 77.5556 222.859 78.8086 228.895C78.8366 229.029 78.9156 229.146 79.0306 229.221C79.1146 229.275 79.2116 229.304 79.3096 229.304C79.3456 229.304 79.3816 229.3 79.4166 229.293C81.0906 228.933 81.8666 228.784 82.0526 228.759C82.0866 228.759 82.1266 228.757 82.1636 228.75L98.3306 225.674C98.1736 225.365 98.0476 225.04 97.9536 224.703" fill="black"/><path id="Fill 31" fill-rule="evenodd" clip-rule="evenodd" d="M282.883 248.177C282.798 248.177 282.711 248.156 282.632 248.111C263.037 237.06 237.562 223.549 237.307 223.413C237.185 223.349 237.095 223.239 237.056 223.106C237.017 222.973 237.033 222.831 237.1 222.711C240.2 217.175 249.887 187.877 249.985 187.581C250.033 187.437 250.143 187.321 250.286 187.264C250.428 187.208 250.589 187.22 250.722 187.296L273.203 199.989C273.45 200.128 273.537 200.44 273.398 200.687C273.258 200.932 272.947 201.02 272.7 200.881L250.761 188.494C249.367 192.696 241.375 216.637 238.24 222.749C241.759 224.618 264.97 236.975 283.135 247.219C283.381 247.358 283.468 247.67 283.329 247.917C283.235 248.083 283.062 248.177 282.883 248.177" fill="black"/><path id="Fill 33" fill-rule="evenodd" clip-rule="evenodd" d="M307.002 221.71C306.846 221.71 306.693 221.64 306.593 221.506C300.537 213.482 283.53 206.058 283.359 205.983C283.1 205.872 282.981 205.57 283.093 205.311C283.205 205.051 283.504 204.931 283.766 205.044C284.474 205.351 301.191 212.649 307.41 220.891C307.58 221.115 307.535 221.437 307.31 221.607C307.217 221.676 307.109 221.71 307.002 221.71" fill="black"/><path id="Fill 35" fill-rule="evenodd" clip-rule="evenodd" d="M114.388 203.51V203.51V203.509V203.51C114.388 203.51 114.387 203.53 114.386 203.534C114.387 203.525 114.388 203.51 114.388 203.51" fill="#E5AB78"/><path id="Fill 37" fill-rule="evenodd" clip-rule="evenodd" d="M114.387 204.047C114.361 204.047 114.335 204.045 114.308 204.041C114.037 203.999 113.848 203.751 113.878 203.479C113.908 203.206 114.155 202.986 114.422 203.013C114.696 203.03 114.907 203.249 114.9 203.524C114.9 203.525 114.9 203.526 114.9 203.526V203.528C114.9 203.533 114.899 203.539 114.899 203.545C114.898 203.563 114.897 203.582 114.896 203.592L114.895 203.591C114.893 203.609 114.891 203.624 114.888 203.635C114.84 203.878 114.627 204.047 114.387 204.047" fill="black"/><path id="Fill 39" fill-rule="evenodd" clip-rule="evenodd" d="M113.478 236.039L113.479 236.047L113.48 236.048L113.478 236.039Z" fill="#E5AB78"/><path id="Fill 41" fill-rule="evenodd" clip-rule="evenodd" d="M113.534 236.039H113.991H113.534ZM113.082 235.725L113.471 236.041L113.082 235.725ZM113.48 236.56C113.239 236.56 113.027 236.391 112.978 236.148L113.056 236.132L112.978 236.147C112.971 236.112 112.967 236.073 112.967 236.039C112.967 235.772 113.171 235.551 113.436 235.528C113.701 235.524 113.933 235.686 113.981 235.942C113.988 235.977 113.992 236.015 113.992 236.049C113.992 236.311 113.793 236.532 113.531 236.559C113.514 236.56 113.497 236.56 113.48 236.56V236.56Z" fill="black"/></g></g></g></g></g></g></g><path id="Fill 3" fill-rule="evenodd" clip-rule="evenodd" d="M199.62 157.117C158.539 157.117 125.117 190.539 125.117 231.621C125.117 272.702 158.539 306.124 199.62 306.124C240.701 306.124 274.123 272.702 274.123 231.621C274.123 190.539 240.701 157.117 199.62 157.117M199.62 307.241C157.923 307.241 124 273.318 124 231.621C124 189.924 157.923 156.001 199.62 156.001C241.317 156.001 275.24 189.924 275.24 231.621C275.24 273.318 241.317 307.241 199.62 307.241" fill="black"/></g></svg>