<svg viewBox="118.60465116279073 150.8 156.97674418604657 156.60000000000002" fill="none" xmlns="http://www.w3.org/2000/svg" xmlns:xlink="http://www.w3.org/1999/xlink" overflow="visible" width="156.97674418604657px" height="156.60000000000002px"><g id="Master/Character/Avatar"><g id="Avatar"><path id="Mask" fill-rule="evenodd" clip-rule="evenodd" d="M274.682 231.62C274.682 273.075 241.076 306.682 199.62 306.682C158.164 306.682 124.558 273.075 124.558 231.62C124.558 190.164 158.164 156.558 199.62 156.558C241.076 156.558 274.682 190.164 274.682 231.62" fill="#EEF2F8"/><mask id="mask031628f0f-13c4-4dc6-a9ac-bb23639aef35" mask-type="alpha" maskUnits="userSpaceOnUse" x="124" y="156" width="151" height="151" fill="#ffffff"><path id="Mask_2" fill-rule="evenodd" clip-rule="evenodd" d="M274.682 231.62C274.682 273.075 241.076 306.682 199.62 306.682C158.164 306.682 124.558 273.075 124.558 231.62C124.558 190.164 158.164 156.558 199.62 156.558C241.076 156.558 274.682 190.164 274.682 231.62" fill="#ffffff"/></mask><g mask="url(#mask031628f0f-13c4-4dc6-a9ac-bb23639aef35)"><g id="Master/Character/Torso" transform="translate(-19 56) scale(1 1)"><g id="Master/Character/Torso"><g id="Head 2" transform="translate(189.79 120) scale(1 1)"><g id="Head 2/Very Happy"><path id="Path 2" fill-rule="evenodd" clip-rule="evenodd" d="M16 65.8325C16 65.8325 21.5224 62.2245 20.5403 47.3244C20.5403 47.3244 29.274 51.4117 38.8022 44.5007L41 65.6604C41 65.6604 34.3939 73.1641 27.4671 72.4364C20.5403 71.7087 16 65.8325 16 65.8325Z" fill="#d96e05"/><path id="Path 2 Copy" fill-rule="evenodd" clip-rule="evenodd" d="M20.7523 46.8715C26.3989 49.514 32.2957 48.6022 38.5087 44.0959C38.8203 43.8698 39.2598 44.066 39.2996 44.449L41.4974 65.6086C41.5118 65.7474 41.4675 65.8859 41.3753 65.9907C36.8731 71.1047 32.2136 73.4377 27.4149 72.9335C22.6587 72.4339 18.7133 70.1617 15.6044 66.1381C15.426 65.9072 15.4824 65.5733 15.7266 65.4138C19.2108 63.1374 20.6854 57.1264 20.0414 47.3572C20.0164 46.9776 20.4077 46.7102 20.7523 46.8715ZM40.479 65.492L38.392 45.4L37.9797 45.6795C32.2505 49.4704 26.6918 50.3258 21.3497 48.2176L21.088 48.111L21.1011 48.3404C21.5662 57.3108 20.1823 63.143 16.8667 65.8193L16.719 65.934L16.9567 66.2216C19.711 69.4853 23.0863 71.3695 27.1017 71.89L27.5194 71.939C31.9564 72.4051 36.3189 70.2208 40.6248 65.3299L40.479 65.492Z" fill="black"/><g id="Head"><path id="Combined Shape" fill-rule="evenodd" clip-rule="evenodd" d="M27.485 48.7009C17.392 48.7009 9.20996 40.0249 9.20996 29.3209C9.20996 18.6169 17.392 9.93994 27.485 9.93994C37.578 9.93994 45.76 18.6169 45.76 29.3209C45.76 40.0249 37.578 48.7009 27.485 48.7009Z" fill="#d96e05"/><path id="Fill 18" fill-rule="evenodd" clip-rule="evenodd" d="M27.485 10.4399C17.684 10.4399 9.70996 18.9099 9.70996 29.3209C9.70996 39.7319 17.684 48.2009 27.485 48.2009C37.286 48.2009 45.26 39.7319 45.26 29.3209C45.26 18.9099 37.286 10.4399 27.485 10.4399M27.485 49.2009C17.132 49.2009 8.70996 40.2829 8.70996 29.3209C8.70996 18.3579 17.132 9.43994 27.485 9.43994C37.838 9.43994 46.26 18.3579 46.26 29.3209C46.26 40.2829 37.838 49.2009 27.485 49.2009" fill="black"/><g id="Group 3"><path id="Fill 1" fill-rule="evenodd" clip-rule="evenodd" d="M25.3824 37.8149C25.2289 37.7392 25.0533 37.7699 24.9244 37.8906C22.3294 40.3196 19.6859 38.3365 19.5747 38.2506C19.3665 38.09 19.0868 38.1545 18.9491 38.3958C18.8106 38.6362 18.8653 38.9604 19.0718 39.1199C19.1018 39.1445 21.883 41.2533 24.763 39.2917C24.7162 40.2214 24.5018 41.6092 23.6874 42.3712C22.9533 43.0564 21.8318 43.127 20.3486 42.5747C20.1103 42.4888 19.8571 42.6381 19.7803 42.9142C19.7044 43.1894 19.835 43.4839 20.0724 43.5729C20.8224 43.8511 21.5036 43.9901 22.1168 43.9901C22.9683 43.9901 23.6847 43.7191 24.2583 43.1832C25.9294 41.6164 25.6691 38.3825 25.6577 38.2455C25.6409 38.0542 25.535 37.8886 25.3824 37.8149M17.7139 22.0005C17.63 22.0107 15.793 21.9678 14.1571 23.5959C13.9674 23.7841 13.9462 24.1145 14.1086 24.3333C14.1977 24.455 14.3247 24.5164 14.4518 24.5164C14.5559 24.5164 14.6609 24.4745 14.7456 24.3906C16.1124 23.0294 17.6724 23.057 17.6936 23.0478C17.9459 23.0089 18.148 22.8238 18.1533 22.5354C18.1586 22.2449 17.9618 22.0076 17.7139 22.0005M28.4168 23.597C26.7818 21.9678 24.9412 22.0076 24.8618 22.0005C24.6121 22.0076 24.4162 22.2449 24.4215 22.5354C24.4268 22.8238 24.6368 23.0069 24.8821 23.0478C24.8856 23.0232 26.4624 23.0314 27.8283 24.3896C27.9139 24.4745 28.018 24.5164 28.123 24.5164C28.25 24.5164 28.3762 24.455 28.4653 24.3344C28.6277 24.1145 28.6065 23.7841 28.4168 23.597M16.7715 26.884C16.258 26.884 15.8415 27.6511 15.8415 28.5991C15.8415 29.5462 16.258 30.3142 16.7715 30.3142C17.2859 30.3142 17.7024 29.5462 17.7024 28.5991C17.7024 27.6511 17.2859 26.884 16.7715 26.884M25.8033 26.884C25.2889 26.884 24.8724 27.6511 24.8724 28.5991C24.8724 29.5462 25.2889 30.3142 25.8033 30.3142C26.3168 30.3142 26.7333 29.5462 26.7333 28.5991C26.7333 27.6511 26.3168 26.884 25.8033 26.884M19.2694 34.9206L22.0383 35.3103C22.0568 35.3133 22.0744 35.3144 22.093 35.3144C22.318 35.3144 22.5139 35.118 22.5412 34.8531C22.5712 34.5657 22.3947 34.3049 22.1468 34.2701L19.8924 33.9541L20.6 30.8379C20.6627 30.5587 20.5189 30.2723 20.278 30.1987C20.038 30.1261 19.79 30.2928 19.7265 30.572L18.8874 34.2681C18.8539 34.4154 18.8768 34.5698 18.95 34.6956C19.0233 34.8204 19.1397 34.9022 19.2694 34.9206" fill="black"/></g></g></g></g><g id="Hair 2" transform="translate(107.79 57) scale(1 1)"><g id="Hair 2/Big Quiff"><g id="Big Quiff"><path id="Fill 126" fill-rule="evenodd" clip-rule="evenodd" d="M135.428 81.2288C133.855 76.3684 129.672 71.8251 122.766 70.0383C123.079 69.0178 123.248 67.9323 123.248 66.8082C123.248 60.8217 118.473 55.9684 112.584 55.9684C109.182 55.9684 106.158 57.5946 104.206 60.1163C102.069 54.8564 96.9775 51.1517 91.0315 51.1517C88.4535 51.1517 86.0425 51.8571 83.9565 53.0737C82.3245 49.2124 78.5525 46.5078 74.1565 46.5078C68.2665 46.5078 63.4925 51.3611 63.4925 57.3466C63.4925 63.3332 68.2665 68.1854 74.1565 68.1854C75.1255 68.1854 76.0595 68.0421 76.9515 67.7961C77.9795 74.7717 83.8825 80.127 91.0315 80.127C92.2085 80.127 94.3095 80.0264 94.3095 80.0264H94.6515C96.4685 82.6223 99.4445 84.3207 102.817 84.3207C105.8 84.3207 108.47 82.9892 110.305 80.8883C111.484 83.2535 113.873 84.8919 116.661 84.8919C118.167 84.8919 119.56 84.4132 120.712 83.6051L121.611 91.6052C122.578 91.4192 123.654 91.5391 124.943 93.0769C125.42 93.6471 125.76 94.3687 125.754 95.1168C125.74 97.0662 124.181 98.6417 122.26 98.6417C122.143 98.6417 122.034 98.6183 121.921 98.6081L122.306 107.318C126.908 107.318 130.416 104.333 132.652 100.121C135.399 94.941 137.238 86.8179 135.428 81.2288" fill="#040226"/><path id="Fill 128" fill-rule="evenodd" clip-rule="evenodd" d="M112.592 56.477C118.196 56.477 122.756 61.1117 122.756 66.8076C122.756 67.8565 122.601 68.8922 122.296 69.8863C122.256 70.0194 122.27 70.1637 122.337 70.2857C122.404 70.4077 122.517 70.4961 122.65 70.5307C128.751 72.1091 133.238 76.0659 134.961 81.3878C136.719 86.8194 134.913 94.8021 132.219 99.879C129.943 104.17 126.609 106.61 122.792 106.798L122.453 99.1452C124.554 99.0466 126.246 97.2791 126.262 95.1213C126.268 94.3143 125.937 93.4707 125.332 92.748C124.075 91.2478 122.956 90.9774 122.058 91.0354L121.217 83.5476C121.197 83.3697 121.087 83.2173 120.927 83.1431C120.766 83.0679 120.581 83.0862 120.436 83.1868C119.32 83.9694 118.017 84.3841 116.669 84.3841C114.169 84.3841 111.904 82.9561 110.759 80.658C110.684 80.5086 110.542 80.4049 110.377 80.3836C110.214 80.3663 110.049 80.4252 109.939 80.5503C108.128 82.6237 105.535 83.8129 102.825 83.8129C99.755 83.8129 96.854 82.2873 95.066 79.7321C94.972 79.5979 94.821 79.5176 94.659 79.5176H94.317C94.273 79.5196 92.191 79.6182 91.038 79.6182C84.293 79.6182 78.453 74.5037 77.454 67.7213C77.432 67.577 77.352 67.45 77.233 67.3707C77.113 67.2914 76.966 67.267 76.828 67.3056C75.935 67.5516 75.039 67.6776 74.163 67.6776C68.559 67.6776 64 63.0429 64 57.347C64 51.6501 68.559 47.0164 74.163 47.0164C78.231 47.0164 81.897 49.472 83.504 53.2743C83.56 53.4075 83.67 53.5101 83.805 53.5549C83.941 53.6026 84.088 53.5864 84.213 53.5142C86.293 52.3016 88.653 51.6603 91.038 51.6603C96.627 51.6603 101.617 55.0561 103.751 60.3098C103.819 60.4775 103.969 60.5944 104.145 60.6198C104.318 60.6442 104.497 60.572 104.607 60.4308C106.552 57.9182 109.462 56.477 112.592 56.477M122.314 107.826C126.716 107.826 130.546 105.175 133.099 100.362C135.895 95.0928 137.758 86.7747 135.911 81.0696C134.127 75.5588 129.58 71.4302 123.394 69.6799C123.634 68.7449 123.756 67.7813 123.756 66.8076C123.756 60.5507 118.748 55.4606 112.592 55.4606C109.425 55.4606 106.464 56.8022 104.346 59.1694C101.901 53.9634 96.762 50.6439 91.038 50.6439C88.66 50.6439 86.305 51.2375 84.194 52.3657C82.326 48.48 78.447 46 74.163 46C68.008 46 63 51.0901 63 57.347C63 63.6039 68.008 68.694 74.163 68.694C74.952 68.694 75.755 68.6015 76.556 68.4206C77.855 75.4226 83.986 80.6346 91.038 80.6346C92.214 80.6346 94.254 80.5381 94.341 80.534H94.405C96.39 83.2285 99.518 84.8293 102.825 84.8293C105.59 84.8293 108.244 83.7102 110.21 81.7364C111.605 84.0131 114.022 85.4005 116.669 85.4005C117.949 85.4005 119.195 85.0763 120.312 84.4563L121.122 91.6635C121.138 91.8038 121.21 91.9308 121.322 92.0142C121.434 92.0985 121.574 92.131 121.712 92.1046C122.504 91.9552 123.396 92.005 124.571 93.4066C125.02 93.9443 125.266 94.5501 125.262 95.1131C125.25 96.779 123.906 98.1339 122.267 98.1339C122.214 98.1339 122.164 98.1257 122.113 98.1186L121.976 98.1024C121.825 98.0902 121.689 98.1379 121.584 98.2396C121.479 98.3412 121.423 98.4835 121.429 98.6309L121.815 107.34C121.827 107.612 122.047 107.826 122.314 107.826" fill="black"/></g></g></g><g id="Torso Upper Body" transform="translate(1 41.7684) scale(1 1)"><g id="Torso Upper Body/Box Open"><g id="Group 21"><path id="Tshirt" fill-rule="evenodd" clip-rule="evenodd" d="M205.616 140.439C207.555 144.524 212.363 147.421 218.002 147.421C223.642 147.421 228.45 144.524 230.389 140.439H237.608C267.355 140.439 295.189 155.103 312.011 179.636L326.719 201.086H275.801L272.459 194.404L280.308 253.067H154.442L164.838 192.175L165.704 147.869L205.616 140.439Z" fill="#4B69FD"/><path id="Fill 3" fill-rule="evenodd" clip-rule="evenodd" d="M155.049 252.555H279.723L271.952 194.471C271.919 194.223 272.07 193.988 272.309 193.914C272.549 193.837 272.805 193.95 272.918 194.174L276.118 200.575H325.747L311.589 179.927C294.855 155.521 267.199 140.951 237.608 140.951H230.708C228.529 145.202 223.584 147.932 218.003 147.932C212.449 147.932 207.524 145.229 205.331 141.012L166.208 148.295L165.35 192.186L155.049 252.555ZM280.308 253.578H154.442C154.291 253.578 154.148 253.512 154.05 253.397C153.954 253.282 153.912 253.13 153.938 252.981L164.333 192.089L165.192 147.859C165.197 147.616 165.372 147.409 165.611 147.366L205.523 139.936C205.748 139.892 205.979 140.01 206.079 140.219C208.008 144.283 212.689 146.909 218.003 146.909C223.318 146.909 227.998 144.283 229.927 140.219C230.011 140.04 230.192 139.927 230.389 139.927H237.608C267.536 139.927 295.509 154.663 312.434 179.347L327.141 200.796C327.249 200.953 327.26 201.157 327.172 201.325C327.084 201.492 326.909 201.598 326.719 201.598H275.801C275.608 201.598 275.43 201.488 275.343 201.315L273.374 197.375L280.816 252.999C280.835 253.145 280.791 253.293 280.694 253.404C280.596 253.515 280.456 253.578 280.308 253.578V253.578Z" fill="black"/><path id="Fill 9" fill-rule="evenodd" clip-rule="evenodd" d="M69.9254 115.599L53.6484 99.3221Z" fill="#EEF2F8"/><path id="Box" fill-rule="evenodd" clip-rule="evenodd" d="M204.318 119.349H74.0332L86.2062 142.616H86.2052V220.091H192.146V142.617L192.147 142.616L204.318 119.349Z" fill="#FCBD21"/><path id="Fill 13" fill-rule="evenodd" clip-rule="evenodd" d="M191.837 142.104H86.516L74.879 119.861H203.473L191.837 142.104ZM191.634 219.58H166.916V208.946C166.916 208.663 166.687 208.433 166.404 208.433H111.948C111.666 208.433 111.437 208.663 111.437 208.946V219.58H86.718V143.127H191.634V219.58ZM112.46 219.542H165.892V209.458H112.46V219.542ZM204.756 119.083C204.663 118.931 204.497 118.836 204.318 118.836H74.034C73.855 118.836 73.689 118.931 73.596 119.083C73.503 119.237 73.498 119.427 73.581 119.585L85.694 142.74V220.091C85.694 220.375 85.923 220.603 86.206 220.603H192.147C192.429 220.603 192.658 220.375 192.658 220.091V142.742L204.772 119.585C204.855 119.427 204.849 119.237 204.756 119.083V119.083ZM54.01 98.411C53.81 98.21 53.486 98.21 53.286 98.411C53.086 98.61 53.086 98.934 53.286 99.134L69.563 115.412C69.663 115.511 69.795 115.561 69.925 115.561C70.056 115.561 70.187 115.511 70.287 115.412C70.487 115.211 70.487 114.887 70.287 114.688L54.01 98.411ZM75.377 114.043C75.659 114.043 75.888 113.815 75.888 113.532V90.512C75.888 90.229 75.659 90 75.377 90C75.093 90 74.864 90.229 74.864 90.512V113.532C74.864 113.815 75.093 114.043 75.377 114.043V114.043ZM68.531 119.332H45.512C45.229 119.332 45 119.561 45 119.843C45 120.126 45.229 120.356 45.512 120.356H68.531C68.815 120.356 69.044 120.126 69.044 119.843C69.044 119.561 68.815 119.332 68.531 119.332V119.332Z" fill="black"/><path id="Fill 16" fill-rule="evenodd" clip-rule="evenodd" d="M112.46 219.604H165.892V209.458H112.46V219.604Z" fill="#EEF2F8"/><path id="Skin" fill-rule="evenodd" clip-rule="evenodd" d="M107.336 162.554L85.8588 161.106L103.206 160.097C105.75 159.935 107.731 157.824 107.731 155.274C107.731 152.652 105.641 150.507 103.02 150.442L82.0978 149.911C82.0978 149.911 85.0588 144.67 88.9828 142.072C90.8398 140.842 91.8678 138.697 91.4968 136.5L91.4338 136.124C90.7998 132.372 86.6128 130.352 83.3238 132.265C76.9878 135.949 64.8848 146.023 64.8848 161.268C64.8848 185.441 75.5868 199.718 87.1268 199.718C93.5378 199.718 97.4498 199.093 99.7508 198.476C101.505 198.006 102.701 196.391 102.701 194.575C102.701 192.689 101.408 191.052 99.5698 190.628C95.4388 189.677 85.5048 189.984 86.0218 185.279L102.34 186.11C105.267 186.275 107.731 183.947 107.731 181.015C107.731 178.376 105.719 176.172 103.091 175.933L86.5888 174.572L107.515 172.46C110.038 172.184 111.949 170.053 111.949 167.515C111.949 164.908 109.936 162.743 107.336 162.554M319.665 201.086H277.833C277.833 201.086 293.223 226.225 277.877 234.888C262.53 243.552 193.18 220.641 193.18 220.641C193.18 220.641 174.368 214.452 172.883 222.373C172.719 223.248 172.724 224.033 172.862 224.736C172.862 224.736 167.252 223.456 164.56 220.115H139.313C139.313 220.115 134.95 231.718 175.698 242.949C175.698 242.949 190.643 247.868 196.955 251.21C203.267 254.552 273.564 287.906 309.022 261.73C344.48 235.554 319.665 201.086 319.665 201.086" fill="#d96e05"/><path id="Fill 19" fill-rule="evenodd" clip-rule="evenodd" d="M308.718 261.318C272.117 288.34 197.927 251.146 197.194 250.757C190.917 247.435 176.008 242.512 175.834 242.455C149.681 235.248 142.487 227.877 140.526 224.125C139.637 222.423 139.647 221.186 139.723 220.627H147.249C147.22 220.802 147.212 221.002 147.243 221.228C147.503 223.123 150.193 225.339 155.238 227.814C165.185 232.697 177.562 236.44 177.686 236.477C177.735 236.492 177.785 236.5 177.833 236.5C178.054 236.5 178.257 236.356 178.324 236.134C178.405 235.865 178.251 235.578 177.981 235.498C177.858 235.461 165.562 231.741 155.689 226.895C149.58 223.897 148.415 222 148.265 221.134C148.223 220.893 148.262 220.732 148.308 220.627H164.32C166.807 223.536 171.277 224.855 172.459 225.163C173.939 230.83 183.345 231.285 183.73 231.298L190.784 231.918C190.799 231.92 190.814 231.92 190.829 231.92C191.092 231.92 191.315 231.718 191.339 231.453C191.364 231.172 191.155 230.923 190.873 230.898L183.795 230.277C183.7 230.274 174.392 229.837 173.365 224.637C173.234 223.972 173.241 223.243 173.386 222.467C173.596 221.345 174.192 220.509 175.207 219.909C180.19 216.962 192.892 221.085 193.019 221.127C193.193 221.185 210.597 226.915 229.654 231.511C255.337 237.707 271.647 238.993 278.128 235.335C281.499 233.431 283.693 230.601 284.647 226.925C287.137 217.32 280.576 204.843 278.727 201.598H319.397C320.343 202.993 325.566 211.082 327.14 221.705C329.444 237.265 323.246 250.592 308.718 261.318M320.081 200.787C319.985 200.654 319.83 200.574 319.665 200.574H277.834C277.649 200.574 277.478 200.674 277.387 200.837C277.297 200.998 277.3 201.195 277.397 201.353C277.488 201.502 286.373 216.196 283.655 226.67C282.773 230.066 280.744 232.681 277.625 234.443C262.65 242.899 194.032 220.382 193.34 220.155C192.8 219.976 180.067 215.845 174.687 219.027C173.42 219.776 172.644 220.87 172.38 222.28C172.266 222.889 172.226 223.479 172.26 224.043C170.694 223.58 166.949 222.265 164.958 219.795C164.862 219.673 164.715 219.603 164.56 219.603H139.312C139.099 219.603 138.908 219.735 138.833 219.935C138.805 220.007 138.174 221.763 139.567 224.5C142.006 229.288 150.231 236.461 175.538 243.435C175.688 243.484 190.514 248.38 196.715 251.664C197.256 251.949 237.55 272.149 273.644 272.147C286.806 272.146 299.413 269.46 309.325 262.142C344.781 235.968 320.332 201.136 320.081 200.787" fill="black"/><path id="Fill 20" fill-rule="evenodd" clip-rule="evenodd" d="M86.0211 132.041C85.1791 132.041 84.3421 132.264 83.5801 132.708C80.5431 134.474 65.3961 144.149 65.3961 161.268C65.3961 179.658 73.0121 199.205 87.1261 199.205C93.6741 199.205 97.5331 198.54 99.6171 197.981C101.131 197.576 102.188 196.175 102.188 194.574C102.188 192.915 101.064 191.497 99.4541 191.127C98.5001 190.906 97.1911 190.752 95.8041 190.588C91.0191 190.02 85.0621 189.314 85.5111 185.223C85.5411 184.952 85.7871 184.737 86.0461 184.768L102.364 185.599C103.638 185.673 104.853 185.228 105.779 184.352C106.707 183.476 107.218 182.29 107.218 181.015C107.218 178.625 105.423 176.659 103.044 176.442L86.5461 175.081C86.2821 175.061 86.0791 174.84 86.0761 174.576C86.0741 174.312 86.2741 174.089 86.5371 174.062L107.462 171.951C109.726 171.703 111.436 169.795 111.436 167.515C111.436 165.188 109.618 163.233 107.298 163.065L85.8241 161.616C85.5541 161.599 85.3451 161.374 85.3471 161.103C85.3481 160.833 85.5591 160.61 85.8291 160.595L103.175 159.586C105.441 159.442 107.218 157.547 107.218 155.273C107.218 152.91 105.368 151.013 103.005 150.953L82.0841 150.424C81.9051 150.419 81.7401 150.32 81.6511 150.164C81.5631 150.008 81.5631 149.816 81.6511 149.66C81.7741 149.441 84.7191 144.28 88.6991 141.645C90.4181 140.506 91.3181 138.52 90.9921 136.585L90.9281 136.209C90.6551 134.594 89.6041 133.213 88.1171 132.516C87.4411 132.199 86.7291 132.041 86.0211 132.041M87.1261 200.229C75.8191 200.229 64.3721 186.847 64.3721 161.268C64.3721 143.589 79.9441 133.638 83.0651 131.822C84.7631 130.835 86.7621 130.75 88.5511 131.589C90.3431 132.428 91.6081 134.092 91.9381 136.039L92.0011 136.415C92.3951 138.749 91.3211 141.136 89.2641 142.499C86.3541 144.427 83.9541 147.905 82.9931 149.423L103.031 149.93C105.953 150.004 108.242 152.351 108.242 155.273C108.242 158.086 106.043 160.429 103.237 160.607L94.0251 161.144L107.37 162.044C110.225 162.252 112.46 164.654 112.46 167.515C112.46 170.319 110.357 172.664 107.569 172.969L92.1951 174.52L103.132 175.422C106.047 175.688 108.242 178.092 108.242 181.015C108.242 182.575 107.617 184.024 106.483 185.096C105.349 186.167 103.864 186.702 102.31 186.62L86.5241 185.816C86.7751 188.487 91.8241 189.085 95.9251 189.57C97.3401 189.738 98.6761 189.896 99.6841 190.129C101.762 190.607 103.212 192.437 103.212 194.574C103.212 196.638 101.843 198.445 99.8821 198.971C97.7381 199.545 93.7851 200.229 87.1261 200.229" fill="black"/></g></g></g></g></g></g></g><path id="Fill 3" fill-rule="evenodd" clip-rule="evenodd" d="M199.62 157.117C158.539 157.117 125.117 190.539 125.117 231.621C125.117 272.702 158.539 306.124 199.62 306.124C240.701 306.124 274.123 272.702 274.123 231.621C274.123 190.539 240.701 157.117 199.62 157.117M199.62 307.241C157.923 307.241 124 273.318 124 231.621C124 189.924 157.923 156.001 199.62 156.001C241.317 156.001 275.24 189.924 275.24 231.621C275.24 273.318 241.317 307.241 199.62 307.241" fill="black"/></g></svg>