<svg viewBox="118.60465116279073 150.8 156.97674418604657 156.60000000000002" fill="none" xmlns="http://www.w3.org/2000/svg" xmlns:xlink="http://www.w3.org/1999/xlink" overflow="visible" width="156.97674418604657px" height="156.60000000000002px"><g id="Master/Character/Avatar"><g id="Avatar"><path id="Mask" fill-rule="evenodd" clip-rule="evenodd" d="M274.682 231.62C274.682 273.075 241.076 306.682 199.62 306.682C158.164 306.682 124.558 273.075 124.558 231.62C124.558 190.164 158.164 156.558 199.62 156.558C241.076 156.558 274.682 190.164 274.682 231.62" fill="#EEF2F8"/><mask id="mask031628f0f-13c4-4dc6-a9ac-bb23639aef35" mask-type="alpha" maskUnits="userSpaceOnUse" x="124" y="156" width="151" height="151" fill="#ffffff"><path id="Mask_2" fill-rule="evenodd" clip-rule="evenodd" d="M274.682 231.62C274.682 273.075 241.076 306.682 199.62 306.682C158.164 306.682 124.558 273.075 124.558 231.62C124.558 190.164 158.164 156.558 199.62 156.558C241.076 156.558 274.682 190.164 274.682 231.62" fill="#ffffff"/></mask><g mask="url(#mask031628f0f-13c4-4dc6-a9ac-bb23639aef35)"><g id="Master/Character/Torso" transform="translate(-19 56) scale(1 1)"><g id="Master/Character/Torso"><g id="Head 2" transform="translate(189.79 120) scale(1 1)"><g id="Head 2/Relax"><path id="Path 2" fill-rule="evenodd" clip-rule="evenodd" d="M16 65.8325C16 65.8325 21.5224 62.2245 20.5403 47.3244C20.5403 47.3244 29.274 51.4117 38.8022 44.5007L41 65.6604C41 65.6604 34.3939 73.1641 27.4671 72.4364C20.5403 71.7087 16 65.8325 16 65.8325Z" fill="#dcad7f"/><path id="Path 2 Copy" fill-rule="evenodd" clip-rule="evenodd" d="M20.7523 46.8715C26.3989 49.514 32.2957 48.6022 38.5087 44.0959C38.8203 43.8698 39.2598 44.066 39.2996 44.449L41.4974 65.6086C41.5118 65.7474 41.4675 65.8859 41.3753 65.9907C36.8731 71.1047 32.2136 73.4377 27.4149 72.9335C22.6587 72.4339 18.7133 70.1617 15.6044 66.1381C15.426 65.9072 15.4824 65.5733 15.7266 65.4138C19.2108 63.1374 20.6854 57.1264 20.0414 47.3572C20.0164 46.9776 20.4077 46.7102 20.7523 46.8715ZM40.479 65.492L38.392 45.4L37.9797 45.6795C32.2505 49.4704 26.6918 50.3258 21.3497 48.2176L21.088 48.111L21.1011 48.3404C21.5662 57.3108 20.1823 63.143 16.8667 65.8193L16.719 65.934L16.9567 66.2216C19.711 69.4853 23.0863 71.3695 27.1017 71.89L27.5194 71.939C31.9564 72.4051 36.3189 70.2208 40.6248 65.3299L40.479 65.492Z" fill="black"/><g id="Head"><path id="Combined Shape" fill-rule="evenodd" clip-rule="evenodd" d="M27.485 48.7009C17.392 48.7009 9.20996 40.0249 9.20996 29.3209C9.20996 18.6169 17.392 9.93994 27.485 9.93994C37.578 9.93994 45.76 18.6169 45.76 29.3209C45.76 40.0249 37.578 48.7009 27.485 48.7009Z" fill="#dcad7f"/><path id="Fill 18" fill-rule="evenodd" clip-rule="evenodd" d="M27.485 10.4399C17.684 10.4399 9.70996 18.9099 9.70996 29.3209C9.70996 39.7319 17.684 48.2009 27.485 48.2009C37.286 48.2009 45.26 39.7319 45.26 29.3209C45.26 18.9099 37.286 10.4399 27.485 10.4399M27.485 49.2009C17.132 49.2009 8.70996 40.2829 8.70996 29.3209C8.70996 18.3579 17.132 9.43994 27.485 9.43994C37.838 9.43994 46.26 18.3579 46.26 29.3209C46.26 40.2829 37.838 49.2009 27.485 49.2009" fill="black"/><g id="Group 3"><path id="Fill 1" fill-rule="evenodd" clip-rule="evenodd" d="M17.2774 30.5449C15.8894 31.7662 14.3014 30.5746 14.2344 30.5233C14.0084 30.3499 13.6874 30.3961 13.5184 30.629C13.3484 30.8599 13.3924 31.1873 13.6174 31.3628C14.0804 31.7221 14.9304 32.1428 15.8814 32.1428C16.5534 32.1428 17.2754 31.9324 17.9444 31.3423C18.1584 31.1535 18.1834 30.822 17.9994 30.6023C17.8164 30.3827 17.4924 30.3581 17.2774 30.5449M28.6074 30.5449C27.2204 31.7662 25.6314 30.5746 25.5644 30.5233C25.3384 30.3499 25.0174 30.3961 24.8474 30.629C24.6784 30.8599 24.7224 31.1873 24.9464 31.3628C25.4094 31.7221 26.2594 32.1428 27.2104 32.1428C27.8824 32.1428 28.6044 31.9324 29.2744 31.3423C29.4884 31.1535 29.5124 30.822 29.3294 30.6023C29.1454 30.3827 28.8204 30.3581 28.6074 30.5449M22.8154 39.6103C22.3694 40.2528 21.9064 40.5843 21.4404 40.5956C20.6684 40.612 20.0554 39.8135 20.0454 39.8022C19.8714 39.5754 19.5514 39.5333 19.3274 39.7099C19.1044 39.8884 19.0634 40.2169 19.2374 40.4468C19.2744 40.496 20.1584 41.6455 21.4134 41.6455H21.4564C22.2664 41.6301 23.0044 41.1498 23.6494 40.221C23.8134 39.9839 23.7594 39.6555 23.5294 39.4872C23.2984 39.3188 22.9794 39.3743 22.8154 39.6103M13.8764 25.6781C15.3084 24.1879 17.0784 24.0524 17.0964 24.0514C17.3784 24.0319 17.5914 23.7835 17.5744 23.4941C17.5574 23.2067 17.3214 22.9717 17.0344 23.0025C16.9464 23.0076 14.8654 23.1523 13.1474 24.9391C12.9484 25.1444 12.9504 25.4779 13.1524 25.6822C13.2514 25.7828 13.3814 25.8341 13.5114 25.8341C13.6434 25.8341 13.7754 25.7807 13.8764 25.6781M27.7394 25.5457C28.5914 25.5457 29.1644 25.3784 29.2084 25.3651C29.4804 25.2829 29.6344 24.9915 29.5544 24.7113C29.4754 24.4352 29.1924 24.2792 28.9194 24.3572C28.9024 24.3613 27.2094 24.857 25.3544 23.9436C25.0994 23.8184 24.7934 23.9282 24.6714 24.1909C24.5484 24.4516 24.6564 24.7657 24.9114 24.8919C25.9614 25.4071 26.9654 25.5457 27.7394 25.5457M22.1064 34.8308C22.3624 34.8308 22.5824 34.6347 22.6144 34.3699C22.6484 34.0805 22.4484 33.8188 22.1674 33.7839L19.6124 33.4658L20.4134 30.3396C20.4854 30.0594 20.3224 29.7721 20.0484 29.6982C19.7784 29.6253 19.4964 29.7926 19.4234 30.0728L18.4724 33.7808C18.4344 33.9276 18.4614 34.0836 18.5444 34.2098C18.6274 34.3351 18.7594 34.4172 18.9064 34.4356L22.0444 34.8267C22.0654 34.8297 22.0864 34.8308 22.1064 34.8308" fill="black"/></g></g></g></g><g id="Hair 2" transform="translate(107.79 57) scale(1 1)"><g id="Hair 2/Pompadour"><g id="Group 6"><path id="Hair" fill-rule="evenodd" clip-rule="evenodd" d="M111.519 78.2797C111.519 78.2797 96.2101 86.0767 74.3041 77.1657C52.3981 68.2547 50.3561 42.2647 87.1141 49.8767C123.871 57.4877 120.22 66.0267 120.22 66.0267C120.22 66.0267 133.401 56.5587 138.599 74.1957C143.797 91.8317 133.239 108.492 122.459 106.659C122.459 106.659 118.549 99.0527 125.047 92.7507C125.047 92.7507 117.993 90.9027 121.52 81.4347C121.52 81.4347 109.045 85.0337 111.519 78.2797" fill="#4b2500"/><path id="Fill 3" fill-rule="evenodd" clip-rule="evenodd" d="M122.806 106.195C126.428 106.701 130.122 105.071 133.234 101.567C137.702 96.5367 141.659 86.3877 138.108 74.3397C136.513 68.9287 134.011 65.6017 130.668 64.4527C125.749 62.7567 120.571 66.4057 120.519 66.4427C120.332 66.5777 120.079 66.5697 119.9 66.4257C119.721 66.2827 119.66 66.0377 119.749 65.8267C119.758 65.8017 120.04 65.0247 119.318 63.7077C117.785 60.9107 111.549 55.4597 87.01 50.3777C64.58 45.7357 60.213 53.9987 59.41 56.6417C57.558 62.7277 62.696 71.8907 74.497 76.6917C95.938 85.4117 111.135 77.8997 111.286 77.8227C111.474 77.7257 111.701 77.7567 111.858 77.8957C112.015 78.0367 112.072 78.2577 112 78.4557C111.576 79.6117 111.614 80.4707 112.114 81.0067C113.686 82.6937 119.333 81.5327 121.378 80.9437C121.563 80.8917 121.763 80.9457 121.895 81.0877C122.026 81.2297 122.067 81.4337 121.999 81.6147C120.814 84.7957 120.728 87.4067 121.743 89.3757C122.903 91.6237 125.156 92.2497 125.178 92.2557C125.356 92.3027 125.495 92.4437 125.542 92.6217C125.588 92.7987 125.536 92.9897 125.403 93.1187C119.806 98.5477 122.222 104.893 122.806 106.195M124.121 107.312C123.539 107.312 122.956 107.263 122.373 107.165C122.215 107.137 122.078 107.037 122.004 106.893C121.965 106.816 118.225 99.3297 124.134 92.9527C123.234 92.5417 121.766 91.6397 120.843 89.8617C119.785 87.8237 119.744 85.2407 120.722 82.1747C118.499 82.7167 113.249 83.7267 111.365 81.7047C110.774 81.0707 110.566 80.2257 110.743 79.1847C109.188 79.8227 105.893 80.9737 101.191 81.5717C95.142 82.3407 85.531 82.2867 74.111 77.6387C63.054 73.1417 56.166 63.7877 58.43 56.3437C60.747 48.7267 71.508 46.1187 87.218 49.3757C111.101 54.3207 118.378 59.6907 120.276 63.3267C120.629 64.0027 120.775 64.5827 120.819 65.0437C122.61 64.0027 126.801 62.0417 130.995 63.4817C134.672 64.7437 137.395 68.2987 139.09 74.0497C142.759 86.5007 138.641 97.0207 133.999 102.247C131.06 105.556 127.608 107.312 124.121 107.312" fill="black"/></g></g></g><g id="Torso Upper Body" transform="translate(1 41.7684) scale(1 1)"><g id="Torso Upper Body/Pizza Box"><g id="Group 14"><path id="Tshirt" fill-rule="evenodd" clip-rule="evenodd" d="M273.649 194.477L276.99 201.16H327.908L313.201 179.71C296.379 155.176 268.544 140.512 238.797 140.512H231.579C229.646 144.583 224.861 147.473 219.245 147.491C213.629 147.473 208.844 144.583 206.911 140.512H199.692C169.946 140.512 142.111 155.176 125.289 179.71L110.582 201.16H161.5L164.841 194.477L161.923 216.289L155.631 253.14H282.859L276.567 216.287L273.649 194.477Z" fill="#FCBD21"/><path id="Fill 3" fill-rule="evenodd" clip-rule="evenodd" d="M156.239 252.628H282.253L276.063 216.372L273.142 194.544C273.109 194.297 273.26 194.061 273.499 193.987C273.738 193.91 273.996 194.023 274.107 194.247L277.308 200.648H326.937L312.779 180C296.045 155.594 268.389 141.024 238.799 141.024H231.898C229.729 145.256 224.804 147.984 219.247 148.003C213.687 147.984 208.762 145.256 206.594 141.024H199.693C170.102 141.024 142.446 155.594 125.712 180L111.554 200.648H161.184L164.384 194.247C164.496 194.023 164.753 193.91 164.992 193.987C165.231 194.061 165.382 194.297 165.349 194.544L162.431 216.357L156.239 252.628ZM282.86 253.652H155.632C155.481 253.652 155.338 253.585 155.24 253.47C155.144 253.356 155.102 253.203 155.128 253.054L161.42 216.202L163.927 197.449L161.958 201.388C161.871 201.562 161.695 201.671 161.5 201.671H110.582C110.392 201.671 110.218 201.566 110.13 201.399C110.041 201.231 110.053 201.026 110.16 200.869L124.867 179.42C141.792 154.736 169.765 140 199.693 140H206.912C207.11 140 207.29 140.114 207.374 140.292C209.295 144.337 213.955 146.962 219.247 146.979C224.536 146.962 229.197 144.337 231.117 140.292C231.202 140.114 231.382 140 231.58 140H238.799C268.727 140 296.699 154.736 313.623 179.42L328.331 200.869C328.438 201.026 328.45 201.231 328.362 201.399C328.273 201.566 328.099 201.671 327.909 201.671H276.991C276.798 201.671 276.62 201.562 276.533 201.388L274.564 197.449L277.075 216.219L283.364 253.054C283.39 253.203 283.348 253.356 283.251 253.47C283.154 253.585 283.011 253.652 282.86 253.652V253.652Z" fill="black"/><path id="Skin" fill-rule="evenodd" clip-rule="evenodd" d="M320.854 201.159H279.022C279.022 201.159 294.412 226.298 279.065 234.961C263.719 243.625 194.369 220.714 194.369 220.714C194.369 220.714 175.557 214.525 174.072 222.446C173.908 223.321 173.913 224.105 174.052 224.808C174.052 224.808 168.44 223.529 165.749 220.187H147.053C150.014 213.697 153.346 207.51 157.07 202.042C154.333 201.638 151.463 201.609 148.583 201.639C137.927 203.908 127.128 201.136 116.353 200.966C116.26 200.965 116.175 200.947 116.085 200.941C108.332 220.306 101.771 244.44 97.976 269.826C96.175 281.873 92.004 293.444 85.96 304.019L77.451 318.908C77.451 318.908 71.798 330.782 78.766 338.491C78.766 338.491 77.502 349.558 89.08 351.254C89.08 351.254 93.197 359.385 103.272 356.236C103.272 356.236 109.055 361.67 115.218 356.354C121.85 350.635 115.797 331.632 124.869 319.277C124.869 319.277 122.331 338.232 126.547 340.582C130.764 342.931 140.948 341.18 139.06 317.721C137.36 296.599 126.963 297.654 127.937 287.489C128.478 281.836 133.375 253.735 143.798 227.795C147.988 232.05 157.141 237.579 176.887 243.021C176.887 243.021 191.832 247.941 198.144 251.283C204.455 254.625 274.752 287.978 310.21 261.803C345.668 235.627 320.854 201.159 320.854 201.159" fill="#dcad7f"/><path id="Fill 7" fill-rule="evenodd" clip-rule="evenodd" d="M147.423 220.699H148.438C148.408 220.875 148.401 221.074 148.432 221.301C148.692 223.195 151.382 225.412 156.427 227.887C166.374 232.769 178.751 236.512 178.875 236.55C178.924 236.564 178.974 236.572 179.023 236.572C179.243 236.572 179.445 236.428 179.513 236.207C179.594 235.937 179.441 235.651 179.17 235.57C179.047 235.533 166.75 231.814 156.878 226.968C150.769 223.97 149.604 222.072 149.453 221.208C149.411 220.967 149.451 220.804 149.496 220.699H165.508C167.995 223.608 172.466 224.928 173.648 225.236C175.128 230.902 184.533 231.357 184.918 231.372L191.973 231.99C191.988 231.992 192.003 231.992 192.018 231.992C192.28 231.992 192.504 231.792 192.527 231.525C192.552 231.244 192.344 230.996 192.062 230.97L184.984 230.349C184.889 230.347 175.58 229.909 174.554 224.71C174.423 224.045 174.43 223.315 174.574 222.541C174.785 221.419 175.381 220.582 176.397 219.982C181.379 217.034 194.081 221.158 194.208 221.199C194.382 221.258 211.786 226.988 230.842 231.584C256.527 237.779 272.837 239.065 279.317 235.407C282.688 233.504 284.881 230.674 285.835 226.998C288.326 217.393 281.766 204.916 279.916 201.671H320.586C321.531 203.066 326.755 211.154 328.328 221.777C330.633 237.338 324.435 250.666 309.906 261.39C273.306 288.413 199.116 251.22 198.383 250.83C192.106 247.508 177.197 242.585 177.023 242.527C157.492 237.145 148.537 231.672 144.436 227.682L143.676 226.899C142.732 225.871 142.112 224.959 141.714 224.197C140.825 222.496 140.836 221.259 140.912 220.699H146.327H147.423ZM321.27 200.86C321.173 200.726 321.019 200.647 320.854 200.647H279.023C278.838 200.647 278.666 200.747 278.576 200.909C278.485 201.07 278.489 201.267 278.586 201.426C278.676 201.574 287.562 216.268 284.844 226.742C283.962 230.138 281.934 232.755 278.814 234.515C263.839 242.971 195.221 220.456 194.528 220.227C193.989 220.049 181.256 215.919 175.876 219.099C174.609 219.848 173.833 220.943 173.569 222.352C173.454 222.963 173.414 223.553 173.448 224.115C171.882 223.652 168.138 222.338 166.147 219.867C166.05 219.746 165.903 219.676 165.749 219.676H147.89C150.791 213.393 154.037 207.417 157.649 202.135C157.283 202.072 156.916 202.015 156.546 201.967C152.935 207.319 149.689 213.35 146.791 219.676H140.501C140.287 219.676 140.097 219.807 140.022 220.008C139.994 220.081 139.362 221.837 140.756 224.573C141.28 225.601 142.074 226.741 143.245 227.965C132.935 253.752 127.99 281.56 127.428 287.44C126.983 292.09 128.801 294.476 131.104 297.498C134.001 301.302 137.606 306.034 138.55 317.761C139.787 333.128 135.712 338.16 133.173 339.792C130.777 341.331 128.24 340.939 126.797 340.135C124.323 338.756 124.408 330.22 124.895 324.011C124.896 324.007 124.898 324.004 124.899 324C126.516 316.001 124.041 312.773 123.935 312.639C123.76 312.421 123.441 312.385 123.22 312.556C122.998 312.73 122.96 313.052 123.131 313.274C123.149 313.297 124.424 315.01 124.416 319.033C119.513 325.755 118.988 334.24 118.527 341.729C118.139 348.017 117.805 353.447 114.883 355.967C109.421 360.681 104.346 356.507 103.69 355.924C103.355 355.189 100.25 347.242 108.272 321.625C108.356 321.355 108.206 321.068 107.936 320.983C107.664 320.896 107.379 321.049 107.295 321.319C99.9036 344.918 101.794 353.71 102.577 355.902C97.8086 357.227 94.5046 355.926 92.4166 354.329C92.3596 354.25 92.2856 354.181 92.1876 354.144C92.1876 354.144 92.1836 354.142 92.1826 354.142C91.5476 353.628 91.0326 353.095 90.6326 352.616C90.4566 352.332 90.2796 352.013 90.1156 351.62C88.7296 348.306 87.8176 339.605 97.2706 318.559C97.3866 318.302 97.2716 317.999 97.0136 317.883C96.7546 317.766 96.4526 317.882 96.3366 318.139C88.0806 336.519 87.4416 345.9 88.7176 350.67C78.3766 348.883 79.2046 339.216 79.2716 338.575C80.4846 333.033 83.4716 326.9 89.6996 315.265C89.8336 315.015 89.7396 314.705 89.4896 314.572C89.2396 314.435 88.9306 314.532 88.7976 314.781C82.8836 325.828 79.8686 331.965 78.5036 337.373C72.8586 330.006 77.8596 319.242 77.8956 319.162L86.4036 304.274C92.6396 293.362 96.7036 281.798 98.4816 269.902C102.175 245.196 108.61 220.884 116.603 200.972C116.52 200.971 116.437 200.967 116.353 200.966C116.072 200.961 115.803 200.929 115.543 200.881C107.572 220.814 101.156 245.087 97.4686 269.75C95.7096 281.52 91.6876 292.965 85.5156 303.766L76.9876 318.688C76.9306 318.809 71.3496 330.793 78.2386 338.669C78.1416 340.312 78.0326 350.006 88.7576 351.721C88.9166 351.988 89.2246 352.46 89.6766 353.018C90.6096 354.59 91.6616 355.039 91.8176 355.097C94.1616 356.892 97.8596 358.375 103.154 356.808C103.896 357.413 106.346 359.188 109.489 359.188C111.339 359.188 113.429 358.574 115.552 356.743C118.8 353.941 119.147 348.311 119.548 341.793C119.962 335.079 120.426 327.549 124.107 321.356C123.548 326.592 122.641 338.99 126.298 341.029C127.988 341.971 130.948 342.44 133.726 340.654C137.063 338.51 140.786 332.782 139.57 317.678C138.603 305.652 134.896 300.788 131.918 296.879C129.666 293.923 128.04 291.787 128.446 287.538C129.004 281.715 133.878 254.258 144.017 228.729C148.607 233.063 157.975 238.34 176.727 243.508C176.876 243.556 191.703 248.453 197.904 251.736C198.445 252.022 238.738 272.221 274.833 272.22C287.994 272.219 300.602 269.532 310.514 262.215C345.969 236.041 321.521 201.209 321.27 200.86V200.86Z" fill="black"/><path id="Pizza Box" fill-rule="evenodd" clip-rule="evenodd" d="M242.873 199.303H66.5117V212.298H69.6677V220.23H239.717V212.298H242.873V199.303Z" fill="#FF5613"/><path id="Fill 12" fill-rule="evenodd" clip-rule="evenodd" d="M67.023 211.786H242.361V199.815H67.023V211.786ZM70.18 219.718H239.205V212.811H70.18V219.718ZM242.873 198.791H66.512C66.229 198.791 66 199.021 66 199.304V212.299C66 212.581 66.229 212.811 66.512 212.811H69.156V220.231C69.156 220.513 69.385 220.742 69.668 220.742H239.717C240 220.742 240.229 220.513 240.229 220.231V212.811H242.873C243.156 212.811 243.385 212.581 243.385 212.299V199.304C243.385 199.021 243.156 198.791 242.873 198.791V198.791Z" fill="black"/></g></g></g></g></g></g></g><path id="Fill 3" fill-rule="evenodd" clip-rule="evenodd" d="M199.62 157.117C158.539 157.117 125.117 190.539 125.117 231.621C125.117 272.702 158.539 306.124 199.62 306.124C240.701 306.124 274.123 272.702 274.123 231.621C274.123 190.539 240.701 157.117 199.62 157.117M199.62 307.241C157.923 307.241 124 273.318 124 231.621C124 189.924 157.923 156.001 199.62 156.001C241.317 156.001 275.24 189.924 275.24 231.621C275.24 273.318 241.317 307.241 199.62 307.241" fill="black"/></g></svg>